<svg id="Слой_15" data-name="Слой 15" xmlns="http://www.w3.org/2000/svg" viewBox="0 0 407.93311 407.93324"><defs><style>.cls-1{fill:#777a74;}.cls-1,.cls-2{stroke:#adc79d;stroke-miterlimit:10;stroke-width:10px;}.cls-2{fill:none;}</style></defs><path class="cls-1" d="M5599.77466,1168.12527H5471.22231c-4.07356,0-7.37607,3.91485-7.37607,8.74414v161.30041c0,4.88623-3.37665,8.748-7.4984,8.74152l-.07785-.00006c-21.46425,0-38.85658,13.80005-38.85658,30.8175,0,17.00171,17.39233,30.80182,38.85658,30.80182s38.85658-13.80011,38.85658-30.80182c0-.61511-.02636-1.21448-.07908-1.81378h.07908l-1.308-88.50148a8.524,8.524,0,0,1,8.52307-8.65h66.809a8.524,8.524,0,0,1,8.52136,8.312l1.229,49.39622c0,4.991-3.51586,8.97492-7.72082,8.72644q-1.42965-.0845-2.88609-.0849c-21.45107,0-38.85658,13.78424-38.85658,30.8017,0,17.00177,17.40551,30.80182,38.85658,30.80182,21.46384,0,38.85658-13.80005,38.85658-30.80182V1176.86941C5607.15073,1172.04012,5603.84822,1168.12527,5599.77466,1168.12527Zm-96.12409,72.32812a8.524,8.524,0,0,1-8.524-8.524v-16.404c0-4.82928,3.30251-8.74414,7.37607-8.74414H5571.525c4.07356,0,7.37607,3.91486,7.37607,8.74414v16.404a8.524,8.524,0,0,1-8.524,8.524Z" transform="translate(-5321.3894 -1088.11636)"/><circle class="cls-2" cx="203.96655" cy="203.96662" r="198.96658"/></svg>