<svg id="Слой_26" data-name="Слой 26" xmlns="http://www.w3.org/2000/svg" viewBox="0 0 407.93457 407.93384"><defs><style>.cls-1{fill:none;stroke:#adc79d;stroke-miterlimit:10;stroke-width:10px;}.cls-2{fill:#adc79d;}.cls-3{fill:#777a74;}</style></defs><circle class="cls-1" cx="11459.01214" cy="3174.83446" r="198.9668" transform="translate(-10143.72561 6061.76507) rotate(-45)"/><polygon class="cls-2" points="247.063 255.121 203.346 319.58 195.687 313.836 240.947 245.36 195.687 178.218 203.346 171.836 247.063 236.613 290.141 171.836 299.076 177.58 252.806 245.36 299.076 314.474 290.779 319.58 247.063 255.121"/><path class="cls-2" d="M11497.79106,3223.46523l-43.71724,64.4584,6.84095-1.79376-7.65816-5.74385,1.79376,6.841,45.25967-68.47605a4.90059,4.90059,0,0,0,0-5.04719l-45.25967-67.142-.78182,6.05913,7.65816-6.38188-7.85289-1.01194,43.71724,64.7773a5.07131,5.07131,0,0,0,8.63471,0l43.0783-64.7773-6.841,1.79376,8.93513,5.74385-1.79376-6.841-46.27026,67.78a4.88943,4.88943,0,0,0,0,5.04719l46.27026,69.11431,1.79376-6.84095-8.2971,5.10559,6.84095,1.79376-43.71633-64.4584c-3.59207-5.29641-12.2601-.29835-8.63471,5.04719l43.71633,64.4584a5.09209,5.09209,0,0,0,6.84095,1.79376l8.2971-5.1056c2.195-1.3507,3.3275-4.55,1.79376-6.841l-46.27027-69.1143v5.04719l46.27027-67.78c1.5689-2.29824.35154-5.46187-1.79376-6.84095l-8.93513-5.74385c-2.36666-1.52138-5.39551-.37976-6.84095,1.79376l-43.0783,64.7773h8.63471l-43.71724-64.7773a5.09688,5.09688,0,0,0-7.85289-1.01194l-7.65816,6.38188a5.00937,5.00937,0,0,0-.78182,6.05913l45.25968,67.142v-5.04719l-45.25968,68.476c-1.61049,2.43661-.26842,5.29425,1.79376,6.841l7.65816,5.74385c2.26153,1.69621,5.46695.23211,6.84095-1.79376l43.71724-64.4584C11510.04759,3223.17227,11501.38708,3218.16312,11497.79106,3223.46523Z" transform="translate(-11255.04559 -2970.8676)"/><path class="cls-3" d="M11576.37911,3077.44708q-79.93492-.47869-159.86983-.95727-16.03491,88.072-32.06981,176.144-14.35973-45.71142-28.719-91.42262-23.6933.71813-47.38659,1.436l-3.35033,15.31678,38.29218-.47852,33.98388,112.96176,21.06086-.47852q16.03491-91.90135,32.06981-183.80249l144.553,2.39329Q11575.66144,3093.00329,11576.37911,3077.44708Z" transform="translate(-11255.04559 -2970.8676)"/><path class="cls-2" d="M11576.37911,3072.44708q-79.93492-.47869-159.86983-.95727c-2.03028-.01216-4.435,1.54825-4.82139,3.6708q-16.03491,88.072-32.06981,176.144h9.64279q-14.35968-45.71125-28.719-91.42261a5.109,5.109,0,0,0-4.82139-3.67081q-23.6933.71811-47.38659,1.436a5.093,5.093,0,0,0-4.82139,3.67081l-3.35034,15.31677a5.0625,5.0625,0,0,0,4.8214,6.3292l38.29218-.47852-4.8214-3.6708,33.98389,112.96176a5.10328,5.10328,0,0,0,4.82139,3.6708l21.06086-.47852c2.02291-.046,4.44372-1.50623,4.8214-3.6708q16.03488-91.90125,32.0698-183.80249l-4.82139,3.6708,144.553,2.39329a5.091,5.091,0,0,0,5-5q.71809-15.5562,1.4358-31.11242c.297-6.43361-9.70372-6.41866-10,0q-.7181,15.5562-1.4358,31.11242l5-5-144.553-2.39329c-2.01428-.03335-4.45361,1.56291-4.8214,3.6708q-16.03488,91.90125-32.0698,183.80249l4.82139-3.6708-21.06086.47852,4.8214,3.6708-33.98389-112.96176a5.10981,5.10981,0,0,0-4.82139-3.6708l-38.29218.47852,4.82139,6.3292,3.35034-15.31678-4.8214,3.6708q23.69329-.71811,47.38659-1.436l-4.8214-3.6708q14.35968,45.71125,28.719,91.42261c1.36964,4.36,8.7064,5.14312,9.64279,0q16.03492-88.072,32.06981-176.144l-4.8214,3.67081q79.93491.47868,159.86983.95727C11582.81506,3082.48562,11582.82239,3072.48566,11576.37911,3072.44708Z" transform="translate(-11255.04559 -2970.8676)"/></svg>