<?xml version="1.0" encoding="UTF-8"?>
<svg id="_Слой_1" data-name="Слой 1" xmlns="http://www.w3.org/2000/svg" viewBox="0 0 223.63301 223.62219">
  <defs>
    <style>
      .cls-1 {
        fill: #718c09;
      }

      .cls-1, .cls-2 {
        stroke-width: 0px;
      }

      .cls-2 {
        fill: #aac419;
      }
    </style>
  </defs>
  <path class="cls-1" d="M223.30433,103.73873c-.30707-4.30871-.84951-8.58292-1.65723-12.81962-1.78929-9.38689-4.72793-18.40956-8.82404-27.04395-5.05849-10.66334-11.66545-20.27935-19.74972-28.87338-4.00923-4.26206-8.3458-8.17517-12.98578-11.73991-10.21019-7.84417-21.43231-13.77931-33.68163-17.76676-9.4497-3.0761-19.13335-4.86593-29.05941-5.34386-.62977-.12876-1.26685-.02866-1.89992-.06081-.71531-.05505-1.43972.11326-2.14842-.09045h-2.9815c-.80844.20501-1.63062.03509-2.44477.09045-.54574-.00036-1.09104,0-1.63723.00009-2.71604.01299-5.41708.19979-8.11508.52405-6.54526.78665-12.9627,2.16922-19.25518,4.11156-9.14379,2.82247-17.80252,6.72835-25.94036,11.77813-8.63658,5.35926-16.43302,11.72607-23.32085,19.2146-3.16932,3.44572-6.13171,7.04877-8.8665,10.8438-4.40443,6.11193-8.13709,12.61331-11.19962,19.49296-3.12195,7.0131-5.55284,14.26273-7.17096,21.77085C1.07274,93.82757.1134,99.8766.09036,106.0388c-.00018.3873.00013.77522.00004,1.16283-.00027.40158.00009.80353,0,1.20533-.05063.75258.10407,1.51352-.09041,2.26043v3.85842c.19787.58548.03956,1.18899.09041,1.78175.03201.40221-.07094.81183.06567,1.2085.09367,2.12681.30488,4.24308.51985,6.36074.48043,4.73262,1.30672,9.40336,2.42062,14.02423,2.56835,10.65459,6.59424,20.7249,12.1156,30.19715,4.62538,7.93511,10.14568,15.18693,16.55205,21.76523,3.28415,3.37228,6.7805,6.50888,10.46311,9.44269,8.13749,6.48271,17.00997,11.7188,26.61263,15.71191,7.34807,3.05565,14.93656,5.29939,22.7701,6.73902,5.86281,1.07751,11.76929,1.68237,17.71988,1.8334,4.87589.1238,9.73972-.11916,14.59364-.64963,4.43801-.48507,8.83226-1.20645,13.17419-2.22338,10.40636-2.43727,20.28028-6.25498,29.59605-11.50896,12.14253-6.84827,22.64443-15.65865,31.49544-26.41744,6.77501-8.23513,12.24753-17.27276,16.43713-27.0894,5.52342-12.94176,8.45081-26.45418,8.95352-40.49735.13688-3.82244-.00339-7.64465-.27555-11.46557ZM111.69942,218.09958c-58.91963-.07094-105.97206-47.38691-106.24596-106.2894C5.7199,52.82863,52.90243,5.48904,111.868,5.5132c58.93387.02411,106.25766,47.39357,106.23239,106.33427-.02527,58.98852-47.4379,106.32306-106.40097,106.25212Z"/>
  <path class="cls-1" d="M110.94354,191.68593c-8.54406-.14644-16.22091-1.18132-23.53053-4.20515-2.65577-1.09863-5.15635-2.44979-7.35682-4.34108-1.70762-1.46771-2.13364-3.33388-1.95911-5.44115.5165-6.23637-1.77677-11.19727-6.86899-14.79503-3.11311-2.19945-6.68624-3.37848-10.34366-4.37534-6.08131-1.65752-12.12857-3.41735-17.72315-6.45215-3.82485-2.0748-7.01087-4.773-8.90994-8.73908-1.95026-4.07299-2.12875-8.27294-.66857-12.58484,1.09228-3.22549,2.70489-6.07422,5.2746-8.33093,2.77165-2.43406,6.00259-3.87667,9.65624-4.3963,3.19915-.45501,6.24289.01069,9.25082,1.20129,4.4566,1.76401,9.14528,2.76422,13.78833,3.89976,2.52062.61648,5.04573,1.21018,7.47546,2.14863,1.61738.62471,3.31672.89141,5.04051,1.00205.43824.02812.91608.05463,1.16753-.40671.23512-.43136-.16309-.70998-.36174-.9997-1.79115-2.61233-3.12321-5.47804-4.54172-8.2908-1.13121-2.24305-1.49229-4.71865-1.72605-7.18976-.492-5.20111-.01422-10.30448,1.70331-15.26638.84291-2.43513,1.86095-4.78777,3.20391-6.99201.1688-.27703.32841-.53621.30634-.88733-.2195-3.4917-.43096-6.98391-.63985-10.47627-.07664-1.28125-.2017-2.56399-.18698-3.84469.0088-.76559-.27957-1.12295-.94335-1.4419-2.26388-1.08782-4.49477-2.24439-6.73623-3.37873-1.98123-1.00264-3.27144-2.49986-3.44671-4.80437-.16999-2.23505.66245-4.01348,2.53313-5.21369,1.12563-.7222,2.36423-1.27065,3.56182-1.87797,9.69044-4.91426,19.38482-9.82075,29.07308-14.7393,1.14357-.58057,2.22809-1.31576,3.51997-1.51424,1.55439-.23882,2.98353.16761,4.37973.89005,5.49836,2.84501,11.02139,5.64236,16.53485,8.45819,5.43623,2.7764,10.87187,5.55397,16.30799,8.33057,2.12803,1.08692,3.38832,2.78443,3.38293,5.20762-.00544,2.44467-1.23183,4.20229-3.41374,5.28116-2.27749,1.12612-4.55509,2.25314-6.85541,3.33118-.59651.27956-.78551.62572-.77655,1.26932.04308,3.09782-.01806,6.19785.06796,9.29403.04784,1.72174.09744,3.44295.10296,5.16519.00127.39807.09402.81055-.20739,1.17496-.22343.27013.04517.49131.17505.69911,2.63378,4.21429,4.37324,8.77597,5.07769,13.68831.58639,4.08906.87696,8.215-.66458,12.18491-1.18696,3.05676-2.93925,5.83448-4.59194,8.65469-.41288.70453-.9011,1.36464-1.32166,2.06502-.26892.44785-.5786.94517-.2403,1.46954.32646.50601.89561.31629,1.37524.32759.19644.00464.40159-.06806.59187-.1361,5.94192-2.12478,12.12121-3.40402,18.18082-5.10924,3.31107-.93177,6.58789-2.00531,9.93193-2.79591,9.3387-2.20786,17.70422,2.96901,21.04322,11.26116,3.71565,9.22747-.82914,18.11238-8.40272,22.5625-2.43803,1.43253-5.1382,2.04541-7.81453,2.73515-4.18562,1.07867-8.22949,2.60406-12.3696,3.8227-2.4612.72444-4.93384,1.41231-7.3816,2.17958-6.40746,2.00847-10.44363,6.177-11.60313,12.90863-.22229,1.29055-.28884,2.58604-.2333,3.90873.13982,3.32907-1.29468,5.89973-4.00897,7.80354-3.12169,2.18954-6.66965,3.31742-10.32218,4.17015-3.60855.84247-7.26547,1.39016-10.9687,1.60393-2.09594.12096-4.19169.24516-5.58757.3269Z"/>
  <path class="cls-1" d="M160.29777,103.69218c.32787-1.79584.71584-3.94333,1.11316-6.0891.2597-1.40247.53088-2.80284.80119-4.20333.10219-.52945-.03835-.8916-.47983-1.28167-2.71225-2.39647-5.42133-4.79947-8.05101-7.28542-1.87583-1.77331-1.35519-4.73072.94343-5.65054,1.11286-.44532,2.33947-.44504,3.52071-.60638,3.0574-.41758,6.11569-.82892,9.17508-1.2317.58883-.07752.68827-.59039.89648-.97578,1.55401-2.87659,3.08219-5.76711,4.62455-8.65001.67657-1.26459,1.55014-2.24774,3.13305-2.32792,1.62198-.08216,2.73453.64753,3.47878,2.03039,1.63243,3.03308,3.27291,6.06199,4.87781,9.10959.28551.54221.59458.78198,1.24079.86246,3.72599.4641,7.44156,1.01153,11.16256,1.51658,1.4208.19285,2.47465.87684,2.97922,2.23982.53504,1.44525.12826,2.7236-.95213,3.74826-1.39699,1.32496-2.85802,2.58246-4.29197,3.86846-1.3254,1.18868-2.64665,2.38209-3.98091,3.56074-.30234.26708-.33332.52446-.25667.92125.66257,3.43002,1.29025,6.86678,1.92636,10.30191.48796,2.63497-2.05715,4.91364-4.52683,3.89665-2.66737-1.09841-5.23012-2.45087-7.83829-3.69301-1.18431-.56401-2.34202-1.59483-3.56258-1.55401-1.17622.03935-2.32484.97627-3.48098,1.52849-2.52839,1.20762-5.02752,2.48078-7.58806,3.61556-2.47146,1.09529-4.88376-.58432-4.8639-3.65131Z"/>
  <path class="cls-1" d="M28.12004,104.00288c.41283-2.26157.82236-4.52375,1.23971-6.78449.24837-1.34536.49046-2.69241.77363-4.0306.10792-.51003-.19362-.75464-.49614-1.0285-2.61892-2.37067-5.22936-4.75084-7.86303-7.10503-1.12244-1.00333-1.62688-2.20745-1.21848-3.66704.41188-1.47201,1.47733-2.2612,2.97625-2.46796,3.80703-.52515,7.61245-1.0636,11.42497-1.54563.56678-.07166.79019-.33906,1.0225-.77638,1.63001-3.06848,3.341-6.09564,4.90327-9.19788,1.29717-2.57581,4.99521-2.7499,6.36679-.14196,1.64446,3.12682,3.34104,6.22618,4.99738,9.34682.2337.44032.4629.69861,1.02632.76999,3.78341.47932,7.55893,1.0206,11.33802,1.5344,1.56912.21334,2.66185,1.005,3.07742,2.56948.41869,1.5762-.27733,2.75721-1.41431,3.77447-2.61061,2.33575-5.20674,4.68769-7.81835,7.02232-.34799.31108-.40789.61523-.31905,1.07798.64782,3.37414,1.28717,6.75056,1.86649,10.137.40954,2.39398-1.34507,4.33877-3.68823,4.19099-.62981-.03972-1.18071-.32113-1.72838-.58349-3.23831-1.55126-6.47487-3.10661-9.69417-4.69675-.55201-.27265-.9764-.28959-1.53851-.01164-3.32395,1.64363-6.66419,3.25474-10.01076,4.85202-2.14087,1.02181-4.40713.09504-5.03248-2.00672-.12053-.40508-.0812-.8099-.19087-1.23141Z"/>
  <path class="cls-2" d="M110.42729,186.08681c-6.64096.13546-13.02423-.83132-19.21042-3.01037-2.42588-.85448-4.75221-1.91946-6.84383-3.45735-.53184-.39104-.7592-.80646-.72755-1.46056.15032-3.10698-.10174-6.16504-1.14199-9.12913-1.89642-5.40364-5.5005-9.31345-10.45003-12.0766-3.78189-2.1113-7.91337-3.23987-12.04946-4.3656-5.01657-1.36537-9.94008-2.97273-14.5223-5.49364-3.0241-1.6637-5.50905-3.82789-6.72554-7.16392-.89838-2.46368-.84953-4.92818.01883-7.42138.75071-2.1554,1.71033-4.15921,3.42119-5.7122,2.0372-1.84924,4.41503-2.93754,7.16227-3.35976,2.35288-.3616,4.49749.12603,6.63211,1.00543,2.91747,1.20192,6.00478,1.85061,9.02672,2.71382,3.80485,1.08684,7.74434,1.67068,11.47394,3.0235,2.70862.98248,5.46226,1.64823,8.35743,1.53114,2.41894-.09783,4.19559-1.27809,5.32414-3.40291,1.03569-1.94996.90122-3.8968-.28646-5.71742-1.66237-2.5483-3.00517-5.26832-4.41131-7.95427-.82114-1.56853-1.05844-3.29991-1.32079-5.03567-.21475-1.42074-.24605-2.85983-.24588-4.26111.00026-2.25061.20682-4.5228.79056-6.73294.61994-2.34726,1.43469-4.61527,2.49567-6.80035.26933-.55469.49063-.56584.97511-.23778,4.2665,2.88906,8.90267,4.97539,13.90885,6.19079,2.1425.52018,4.31761.88586,6.53553,1.01441,1.16344.06743,2.32495.17041,3.48893.13612,5.34715-.15749,10.49997-1.21515,15.43068-3.32781,2.63857-1.13057,5.14407-2.49652,7.48793-4.14474.55846-.39271.78033-.24388,1.05458.2464,2.02505,3.61999,3.43341,7.43823,3.9018,11.58957.27145,2.40577.49751,4.78554.0061,7.19986-.44243,2.17377-1.681,3.95528-2.64445,5.87528-1.09999,2.1921-2.63465,4.13908-3.70677,6.33464-1.26005,2.58037-.9959,5.13545.91266,7.33816.99929,1.15328,2.41632,1.73342,3.94425,1.85014,1.39641.10667,2.77342.01649,4.13458-.47734,5.12584-1.85963,10.45909-2.99516,15.71004-4.41983,3.79125-1.02866,7.52997-2.26791,11.34906-3.17301,6.08519-1.44214,11.23423,1.11752,14.1981,6.46362,1.08906,1.96439,1.64311,4.08595,1.62235,6.27323-.02301,2.42371-.8413,4.69605-2.29569,6.66928-1.78596,2.42308-4.02736,4.31772-6.91018,5.28547-1.81699.60995-3.70166,1.01857-5.55671,1.51471-3.20775.85792-6.32407,2.00681-9.49547,2.97925-3.089.94719-6.21224,1.78431-9.29256,2.75799-5.38637,1.70263-9.75878,4.77593-12.64912,9.72793-1.6838,2.88487-2.53576,6.03281-2.89302,9.34928-.12916,1.1991-.13737,2.38741-.11605,3.57782.01939,1.08229-.46753,1.81968-1.27628,2.43747-2.66963,2.03927-5.82267,2.91677-9.00902,3.63481-5.1522,1.16096-10.37909,1.73286-15.58254,1.6156Z"/>
  <path class="cls-2" d="M111.60072,44.32665c.6545.32588,1.30939.64273,1.95538.97678.43995.2275.86.49378,1.30165.71763,5.28791,2.68016,10.58295,5.34631,15.86647,8.03507,4.76159,2.42315,9.51229,4.86768,14.26304,7.31201.23811.12251.65777.13613.62533.49965-.02778.31126-.39954.39509-.65664.5206-7.10956,3.47074-14.22306,6.93339-21.33101,10.40741-3.85647,1.88485-7.70959,3.77677-11.55088,5.69225-.78825.39307-1.45047.45552-2.28877.01924-4.32569-2.25126-8.69142-4.42546-13.03845-6.63584-6.22051-3.16299-12.43787-6.33217-18.65183-9.50798-.26674-.13633-.71908-.16458-.70237-.55538.01579-.3695.45711-.40495.72858-.54251,6.04386-3.06244,12.11466-6.07262,18.13244-9.18533,3.91724-2.0262,7.88021-3.95938,11.80437-5.97029.96064-.49227,1.9077-1.011,2.86546-1.50898.20316-.10564.42582-.17381.67724-.27433Z"/>
  <path class="cls-2" d="M134.69415,73.53303c0,.88319-.00047,1.6611.00009,2.43901.00189,2.65908-.00766,5.31826.01531,7.97716.00517.59832-.15699.98097-.66024,1.39092-4.56794,3.72111-9.76135,6.10761-15.49551,7.33315-1.61388.34493-3.255.54855-4.91594.65824-4.35193.28741-8.57701-.27773-12.71712-1.59631-4.0371-1.28578-7.72685-3.24309-11.15453-5.72284-.69439-.50235-.60418-1.2334-.64326-1.87905-.1706-2.81838-.26872-5.64128-.37856-8.46311-.02137-.54905-.30994-1.07532-.12266-1.65251.2479-.14171.42844.06558.61723.16084,5.26589,2.65713,10.5358,5.3065,15.78682,7.99276,1.32383.67723,2.59952,1.44934,3.99848,1.97122,1.53352.57208,3.0073.4125,4.46956-.30802,5.65619-2.78706,11.32182-5.55499,16.9887-8.32028,1.35611-.66174,2.7306-1.2858,4.21163-1.98117Z"/>
  <path class="cls-2" d="M166.45242,100.51467c.48569-2.61976.95882-5.23992,1.46184-7.85434.22699-1.17974-.04226-2.20942-.87761-3.0492-1.70626-1.7153-3.54801-3.2842-5.36581-4.87873-.29379-.25769-.81535-.49758-.72286-.90035.08241-.35893.61521-.15126.94247-.19898,2.43972-.35576,4.88153-.69829,7.32591-1.02053,1.38422-.18249,2.36575-.89558,3.01436-2.11527,1.29848-2.44175,2.60588-4.87874,3.9965-7.48026.65713,1.20901,1.2403,2.2655,1.80785,3.33032.6863,1.2876,1.40176,2.56209,2.02806,3.87865.89912,1.88999,2.53027,2.38125,4.42323,2.57096,2.27989.22849,4.5483.57174,6.82086.87161.10229.01349.2522.06572.28354.14037.08433.2008-.10223.31529-.22383.42523-1.2531,1.13316-2.48968,2.28618-3.7771,3.37922-.7787.66114-1.4898,1.38539-2.22337,2.09036-.84922.8161-.99315,1.85105-.81456,2.90879.39622,2.34621.88062,4.67747,1.32116,7.01632.0477.25317.14237.5711-.06727.75266-.27877.24145-.5442-.04992-.79064-.16812-1.92118-.9214-3.91448-1.725-5.73394-2.81743-2.12206-1.27413-4.05485-1.1639-6.15124-.00719-1.93963,1.0702-3.97848,1.96081-5.97638,2.92485-.20089.09693-.38334.26989-.70118.20104Z"/>
  <path class="cls-2" d="M59.77178,83.73741c-2.04495,1.81849-3.86722,3.53184-5.79121,5.12213-1.70973,1.41319-1.7274,3.14185-1.31641,5.0727.43457,2.04166.78397,4.10148,1.16495,6.15443.02543.13704.00332.28291.00332.40483-.23998.09808-.38368-.02272-.53479-.0961-2.25766-1.0966-4.54154-2.14345-6.76233-3.31032-1.66723-.87602-3.20759-.8812-4.87773.01052-2.16051,1.15354-4.39669,2.16561-6.60446,3.22997-.19231.0927-.41225.35305-.61449.14985-.16236-.16312-.03146-.43783.01257-.66796.44151-2.30751.89322-4.61336,1.3013-6.92687.31591-1.79101-.41775-3.12819-1.79251-4.27092-1.82589-1.51771-3.55737-3.14899-5.46693-4.85427,1.69309-.22411,3.20144-.42324,4.70964-.62356,1.37995-.18328,2.7633-.34495,4.13852-.55876,1.19641-.18601,2.0814-.84037,2.65725-1.91738,1.22346-2.28824,2.4556-4.57186,3.69055-6.85392.10737-.1984.1392-.52526.39096-.54168.32581-.02125.34098.34892.45695.56227,1.22531,2.25411,2.44862,4.50943,3.65274,6.77491.67583,1.27155,1.72569,1.86157,3.14358,2.02582,2.33152.2701,4.65058.64715,6.97581.9726.39619.05546.79693.07834,1.46274.1417Z"/>
</svg>