<svg id="Слой_1" data-name="Слой 1" xmlns="http://www.w3.org/2000/svg" viewBox="0 0 407.93301 407.93396"><defs><style>.cls-1,.cls-3{fill:none;stroke-miterlimit:10;}.cls-1{stroke:#718c09;stroke-width:10px;}.cls-2{fill:#aac419;}.cls-3{stroke:#b8e87b;}</style></defs><circle class="cls-1" cx="500.17046" cy="500.09753" r="198.96664" transform="translate(-503.33004 204.01852) rotate(-45)"/><path class="cls-2" d="M386.2739,410.64389l16.06,30.02a2.04445,2.04445,0,0,0,1.543,1.03405l35.911,4.814a1.85525,1.85525,0,0,1,1.136,3.224l-25.986,23.36706a1.80346,1.80346,0,0,0-.589,1.674l6.134,32.995a2.01906,2.01906,0,0,1-2.973,1.99206l-32.12-15.578a2.20518,2.20518,0,0,0-1.907,0l-32.12,15.578a2.01954,2.01954,0,0,1-2.974-1.99206l6.135-32.995a1.804,1.804,0,0,0-.59-1.674l-25.985-23.36706a1.855,1.855,0,0,1,1.136-3.224l35.911-4.814a2.04793,2.04793,0,0,0,1.543-1.03405l16.06-30.02a2.12908,2.12908,0,0,1,3.675,0" transform="translate(-296.20422 -296.13058)"/><path class="cls-3" d="M386.2739,410.64389l16.06,30.02a2.04445,2.04445,0,0,0,1.543,1.03405l35.911,4.814a1.85525,1.85525,0,0,1,1.136,3.224l-25.986,23.36706a1.80346,1.80346,0,0,0-.589,1.674l6.134,32.995a2.01906,2.01906,0,0,1-2.973,1.99206l-32.12-15.578a2.20518,2.20518,0,0,0-1.907,0l-32.12,15.578a2.01954,2.01954,0,0,1-2.974-1.99206l6.135-32.995a1.804,1.804,0,0,0-.59-1.674l-25.985-23.36706a1.855,1.855,0,0,1,1.136-3.224l35.911-4.814a2.04793,2.04793,0,0,0,1.543-1.03405l16.06-30.02a2.12908,2.12908,0,0,1,3.675,0" transform="translate(-296.20422 -296.13058)"/><path class="cls-1" d="M386.2739,410.64389l16.06,30.02a2.04445,2.04445,0,0,0,1.543,1.03405l35.911,4.814a1.85525,1.85525,0,0,1,1.136,3.224l-25.986,23.36706a1.80346,1.80346,0,0,0-.589,1.674l6.134,32.995a2.01906,2.01906,0,0,1-2.973,1.99206l-32.12-15.578a2.20518,2.20518,0,0,0-1.907,0l-32.12,15.578a2.01954,2.01954,0,0,1-2.974-1.99206l6.135-32.995a1.804,1.804,0,0,0-.59-1.674l-25.985-23.36706a1.855,1.855,0,0,1,1.136-3.224l35.911-4.814a2.04793,2.04793,0,0,0,1.543-1.03405l16.06-30.02A2.12908,2.12908,0,0,1,386.2739,410.64389Z" transform="translate(-296.20422 -296.13058)"/><path class="cls-1" d="M428.71,538.90109l16.06,30.02a2.04447,2.04447,0,0,0,1.543,1.03406l35.911,4.814a1.85526,1.85526,0,0,1,1.136,3.224l-25.986,23.36707a1.80266,1.80266,0,0,0-.589,1.67395l6.134,32.994a2.01925,2.01925,0,0,1-2.973,1.99305l-32.12-15.578a2.20518,2.20518,0,0,0-1.907,0l-32.12,15.578a2.01971,2.01971,0,0,1-2.974-1.99305l6.135-32.994a1.80332,1.80332,0,0,0-.59-1.67395l-25.985-23.36707a1.855,1.855,0,0,1,1.136-3.224l35.911-4.814a2.048,2.048,0,0,0,1.543-1.03406l16.06-30.02A2.12908,2.12908,0,0,1,428.71,538.90109Z" transform="translate(-296.20422 -296.13058)"/><path class="cls-1" d="M573.92423,538.90109l16.06,30.02a2.04449,2.04449,0,0,0,1.543,1.03406l35.911,4.814a1.85526,1.85526,0,0,1,1.136,3.224l-25.986,23.36707a1.80263,1.80263,0,0,0-.589,1.67395l6.134,32.994a2.01925,2.01925,0,0,1-2.973,1.99305l-32.12-15.578a2.20518,2.20518,0,0,0-1.907,0l-32.12,15.578a2.01971,2.01971,0,0,1-2.974-1.99305l6.135-32.994a1.80335,1.80335,0,0,0-.59-1.67395l-25.985-23.36707a1.855,1.855,0,0,1,1.136-3.224l35.911-4.814a2.048,2.048,0,0,0,1.543-1.03406l16.06-30.02A2.12908,2.12908,0,0,1,573.92423,538.90109Z" transform="translate(-296.20422 -296.13058)"/><path class="cls-1" d="M617.74271,415.94345l16.06,30.02a2.04445,2.04445,0,0,0,1.543,1.03405l35.911,4.814a1.85525,1.85525,0,0,1,1.136,3.224l-25.986,23.36706a1.80267,1.80267,0,0,0-.589,1.67395l6.134,32.994a2.01924,2.01924,0,0,1-2.973,1.993l-32.12-15.578a2.20518,2.20518,0,0,0-1.907,0l-32.12,15.578a2.01971,2.01971,0,0,1-2.974-1.993l6.135-32.994a1.80337,1.80337,0,0,0-.59-1.67395l-25.985-23.36706a1.855,1.855,0,0,1,1.136-3.224l35.911-4.814a2.04793,2.04793,0,0,0,1.543-1.03405l16.06-30.02A2.12908,2.12908,0,0,1,617.74271,415.94345Z" transform="translate(-296.20422 -296.13058)"/><path class="cls-2" d="M503.73294,321.32077l17.756,33.19006a2.262,2.262,0,0,0,1.706,1.144l39.705,5.3219a2.052,2.052,0,0,1,1.255,3.566l-28.73,25.835a1.99225,1.99225,0,0,0-.652,1.8501l6.783,36.48a2.23353,2.23353,0,0,1-3.288,2.203l-35.512-17.223a2.43615,2.43615,0,0,0-2.109,0l-35.51294,17.223a2.23265,2.23265,0,0,1-3.28705-2.203l6.78205-36.48a1.99246,1.99246,0,0,0-.652-1.8501l-28.73-25.835a2.052,2.052,0,0,1,1.256-3.566l39.704-5.3219a2.262,2.262,0,0,0,1.706-1.144l17.756-33.19006a2.35415,2.35415,0,0,1,4.064,0" transform="translate(-296.20422 -296.13058)"/><path class="cls-3" d="M503.73294,321.32077l17.756,33.19006a2.262,2.262,0,0,0,1.706,1.144l39.705,5.3219a2.052,2.052,0,0,1,1.255,3.566l-28.73,25.835a1.99225,1.99225,0,0,0-.652,1.8501l6.783,36.48a2.23353,2.23353,0,0,1-3.288,2.203l-35.512-17.223a2.43615,2.43615,0,0,0-2.109,0l-35.51294,17.223a2.23265,2.23265,0,0,1-3.28705-2.203l6.78205-36.48a1.99246,1.99246,0,0,0-.652-1.8501l-28.73-25.835a2.052,2.052,0,0,1,1.256-3.566l39.704-5.3219a2.262,2.262,0,0,0,1.706-1.144l17.756-33.19006a2.35415,2.35415,0,0,1,4.064,0" transform="translate(-296.20422 -296.13058)"/><path class="cls-1" d="M503.73294,321.32077l17.756,33.19006a2.262,2.262,0,0,0,1.706,1.144l39.705,5.3219a2.052,2.052,0,0,1,1.255,3.566l-28.73,25.835a1.99225,1.99225,0,0,0-.652,1.8501l6.783,36.48a2.23353,2.23353,0,0,1-3.288,2.203l-35.512-17.223a2.43615,2.43615,0,0,0-2.109,0l-35.51294,17.223a2.23265,2.23265,0,0,1-3.28705-2.203l6.78205-36.48a1.99246,1.99246,0,0,0-.652-1.8501l-28.73-25.835a2.052,2.052,0,0,1,1.256-3.566l39.704-5.3219a2.262,2.262,0,0,0,1.706-1.144l17.756-33.19006A2.35415,2.35415,0,0,1,503.73294,321.32077Z" transform="translate(-296.20422 -296.13058)"/></svg>