<svg id="Слой_18" data-name="Слой 18" xmlns="http://www.w3.org/2000/svg" viewBox="0 0 403.96411 407.93323"><defs><style>.cls-1{fill:#777a74;}.cls-1,.cls-2{stroke:#adc79d;stroke-miterlimit:10;stroke-width:10px;}.cls-2{fill:none;}</style></defs><path class="cls-1" d="M7457.22517,1401.78133c16.88318-15.01575,42.11621-5.264,53.90869-24.63,7.67652-12.60669,1.43384-24.04724,13.49561-40.73169,7.02271-9.71423,10.60205-7.85962,16.34033-16.34045,12.50684-18.48407.75611-35.05524,8.17017-49.02124,7.25195-13.66089,31.2168-21.761,53.24414-20.04523-20.86206-87.5639-99.5918-152.68573-193.54273-152.68573-109.88623,0-198.96679,89.08038-198.96679,198.96661s89.08056,198.96662,198.96679,198.96662a199.70129,199.70129,0,0,0,41.96033-4.44757C7436.016,1464.99525,7437.409,1419.40559,7457.22517,1401.78133Zm-55.35449-40.9076c-38.18359-2.87921-64.17187-40.65075-59.39795-74.84735,5.8042-41.579,55.73877-68.22,92.23926-52.53259,25.08252,10.78015,39.97021,39.89349,36.79,67.4071C7467.67928,1333.96651,7437.89168,1363.58992,7401.87068,1360.87373Z" transform="translate(-7204.87459 -1093.32698)"/><path class="cls-2" d="M7457.22517,1401.78133c16.88318-15.01575,42.11621-5.264,53.90869-24.63,7.67652-12.60669,1.43384-24.04724,13.49561-40.73169,7.02271-9.71423,10.60205-7.85962,16.34033-16.34045,12.50684-18.48407.75611-35.05524,8.17017-49.02124,3.40405-6.41254,10.49731-11.59772,19.33813-15.12317,2.50879-5.92469,3.82764-11.46381,1.48267-18.3476-5.5669-16.34167-22.354-14.87073-49.09058-32.87805-46.63379-31.40893-42.25549-68.47-69.99011-72.30194-26.63806-3.68091-33.02563,30.18426-73.36719,34.7309-35.01465,3.94641-51.16443-19.2035-70.68982-7.54035-14.15075,8.45252-7.31091,21.59241-26.40893,53.268-17.89527,29.68011-31.16467,30.19195-32.17383,47.18853-1.32056,22.24091,20.89368,29.90332,17.37915,51.16236-2.89453,17.50695-19.20435,19.8443-18.6571,34.5711.49524,13.33222,13.97326,14.41468,26.81726,35.12647,15.09387,24.34088,6.217,38.54992,19.22314,47.90112,14.06348,10.11157,26.42627-5.07538,50.8,1.63666,28.834,7.94037,30.4635,36.04541,51.15833,36.57074,17.43823.44269,17.94958-19.18122,46.5238-28.91C7443.1689,1423.19093,7448.34627,1409.67811,7457.22517,1401.78133Z" transform="translate(-7204.87459 -1093.32698)"/><line class="cls-2" x1="221.17297" y1="93.01662" x2="242.76995" y2="103.64511"/><line class="cls-2" x1="110.28168" y1="141.35193" x2="127.15108" y2="124.18167"/><line class="cls-2" x1="112.73521" y1="258.92275" x2="97.10314" y2="240.61884"/><line class="cls-2" x1="202.76894" y1="316.20556" x2="183.00827" y2="329.95003"/><line class="cls-2" x1="294.80351" y1="264.64852" x2="270.78526" y2="263.06164"/><line class="cls-2" x1="312.87369" y1="189.26489" x2="296.09034" y2="172.01052"/></svg>