<svg id="Слой_22" data-name="Слой 22" xmlns="http://www.w3.org/2000/svg" viewBox="0 0 407.93311 407.93324"><defs><style>.cls-1{fill:none;}.cls-1,.cls-2{stroke:#adc79d;stroke-miterlimit:10;stroke-width:10px;}.cls-2,.cls-3{fill:#777a74;}.cls-4{fill:#adc79d;}</style></defs><circle class="cls-1" cx="203.96655" cy="203.96662" r="198.96658"/><path class="cls-2" d="M9601.15036,1346.03423h0a16.851,16.851,0,0,1,16.851,16.851V1512.066a16.851,16.851,0,0,1-16.851,16.851h0a16.851,16.851,0,0,1-16.851-16.851V1362.88527a16.851,16.851,0,0,1,16.851-16.851Z" transform="translate(-6605.0742 -6685.1963) rotate(37.22362)"/><circle class="cls-2" cx="245.37442" cy="160.61948" r="87.56398"/><path class="cls-3" d="M9739.74149,1312.03773a59.8756,59.8756,0,0,1-20.93652,65.87235" transform="translate(-9430.58332 -1170.03859)"/><path class="cls-4" d="M9734.9201,1313.36693c6.7378,21.77662-.53656,46.3313-18.63872,60.22579-5.03518,3.8648-.06024,12.555,5.04719,8.63471,21.741-16.68752,31.404-45.11453,23.23432-71.51889-1.8963-6.12886-11.55254-3.51394-9.64279,2.65839Z" transform="translate(-9430.58332 -1170.03859)"/></svg>