<svg id="Слой_1" data-name="Слой 1" xmlns="http://www.w3.org/2000/svg" viewBox="0 0 407.93555 407.93396"><defs><style>.cls-1{fill:#aac419;}.cls-2{fill:none;stroke:#718c09;stroke-miterlimit:10;stroke-width:10px;}</style></defs><path class="cls-1" d="M500.953,607.13266c0-8.214,62.51465-15.6919,141.76562-15.6919l.0752.97791-.78027-151.83191-24.21583-1.015" transform="translate(-296.20296 -296.13058)"/><path class="cls-2" d="M500.953,607.13266c0-8.214,62.51465-15.6919,141.76562-15.6919l.0752.97791-.78027-151.83191-24.21583-1.015" transform="translate(-296.20296 -296.13058)"/><path class="cls-1" d="M499.78011,607.13266c0-8.214-64.15137-15.804-143.40137-15.804v.447l.41211-151.59106,26.81933.40307" transform="translate(-296.20296 -296.13058)"/><path class="cls-2" d="M499.78011,607.13266c0-8.214-64.15137-15.804-143.40137-15.804v.447l.41211-151.59106,26.81933.40307" transform="translate(-296.20296 -296.13058)"/><path class="cls-1" d="M499.243,605.81479c0-15.662-50.87793-28.736-114.957-28.736V411.44088h.06152c62.93262,0,113.8584,12.672,113.8584,28.334" transform="translate(-296.20296 -296.13058)"/><path class="cls-2" d="M499.243,605.81479c0-15.662-50.87793-28.736-114.957-28.736V411.44088h.06152c62.93262,0,113.8584,12.672,113.8584,28.334" transform="translate(-296.20296 -296.13058)"/><path class="cls-1" d="M499.66878,439.77475c0-15.66089,52.25976-28.334,116.84277-28.334v166.04c-63.874,0-115.56054,12.673-115.56054,28.334h-.76758l-1.54785-166.03895" transform="translate(-296.20296 -296.13058)"/><path class="cls-2" d="M499.66878,439.77475c0-15.66089,52.25976-28.334,116.84277-28.334v166.04c-63.874,0-115.56054,12.673-115.56054,28.334h-.76758l-1.54785-166.03895" transform="translate(-296.20296 -296.13058)"/><circle class="cls-2" cx="500.17024" cy="500.09753" r="198.96716" transform="translate(-503.32884 204.01837) rotate(-45)"/></svg>