<svg id="Слой_27" data-name="Слой 27" xmlns="http://www.w3.org/2000/svg" viewBox="0 0 407.93311 407.93396"><defs><style>.cls-1,.cls-3,.cls-6,.cls-8{fill:none;stroke-miterlimit:10;}.cls-1{stroke:#adc79d;}.cls-1,.cls-3{stroke-width:10px;}.cls-2{fill:#787974;}.cls-3{stroke:#aec89d;}.cls-4{fill:#f18faa;}.cls-5{fill:#040604;}.cls-6{stroke:#040604;}.cls-7{fill:#babb8f;}.cls-8{stroke:#babb8f;}</style></defs><circle class="cls-1" cx="7861.80376" cy="3172.38044" r="198.96661" transform="translate(-7598.38029 3519.88997) rotate(-45)"/><path class="cls-2" d="M7990.14665,3274.10026h-256.979a20.12018,20.12018,0,0,1-20.28809-19.825v-168.516a20.12039,20.12039,0,0,1,20.28809-19.82605h256.979a20.12028,20.12028,0,0,1,20.2876,19.82605v168.516a20.12007,20.12007,0,0,1-20.2876,19.825" transform="translate(-7657.83757 -2968.41349)"/><path class="cls-3" d="M7990.14665,3274.10026h-256.979a20.12018,20.12018,0,0,1-20.28809-19.825v-168.516a20.12039,20.12039,0,0,1,20.28809-19.82605h256.979a20.12028,20.12028,0,0,1,20.2876,19.82605v168.516A20.12007,20.12007,0,0,1,7990.14665,3274.10026Z" transform="translate(-7657.83757 -2968.41349)"/><line class="cls-4" x1="55.3374" y1="154.672" x2="352.89111" y2="154.672"/><line class="cls-3" x1="55.3374" y1="154.672" x2="352.89111" y2="154.672"/><rect class="cls-5" x="194.03662" y="173.021" width="24.13379" height="23.58398"/><rect class="cls-6" x="194.03662" y="173.021" width="24.13379" height="23.58398"/><rect class="cls-5" x="194.03662" y="173.021" width="24.13379" height="23.58398"/><rect class="cls-6" x="194.03662" y="173.021" width="24.13379" height="23.58398"/><rect class="cls-5" x="246.72266" y="172.89197" width="24.13477" height="23.58398"/><rect class="cls-6" x="246.72266" y="172.89197" width="24.13477" height="23.58398"/><rect class="cls-5" x="246.72266" y="172.89197" width="24.13477" height="23.58398"/><rect class="cls-6" x="246.72266" y="172.89197" width="24.13477" height="23.58398"/><rect class="cls-5" x="299.41064" y="173.021" width="24.13379" height="23.58398"/><rect class="cls-6" x="299.41064" y="173.021" width="24.13379" height="23.58398"/><rect class="cls-5" x="299.41064" y="173.021" width="24.13379" height="23.58398"/><rect class="cls-6" x="299.41064" y="173.021" width="24.13379" height="23.58398"/><rect class="cls-5" x="84.68359" y="217.86194" width="24.13379" height="23.58496"/><rect class="cls-6" x="84.68359" y="217.86194" width="24.13379" height="23.58496"/><rect class="cls-5" x="84.68359" y="217.86194" width="24.13379" height="23.58496"/><rect class="cls-6" x="84.68359" y="217.86194" width="24.13379" height="23.58496"/><rect class="cls-5" x="139.75293" y="215.37695" width="24.13477" height="23.58398"/><rect class="cls-6" x="139.75293" y="215.37695" width="24.13477" height="23.58398"/><rect class="cls-5" x="139.75293" y="215.37695" width="24.13477" height="23.58398"/><rect class="cls-6" x="139.75293" y="215.37695" width="24.13477" height="23.58398"/><rect class="cls-5" x="194.82373" y="215.37695" width="24.13379" height="23.58398"/><rect class="cls-6" x="194.82373" y="215.37695" width="24.13379" height="23.58398"/><rect class="cls-5" x="194.82373" y="215.37695" width="24.13379" height="23.58398"/><rect class="cls-6" x="194.82373" y="215.37695" width="24.13379" height="23.58398"/><rect class="cls-5" x="246.72266" y="215.37695" width="24.13477" height="23.58398"/><rect class="cls-6" x="246.72266" y="215.37695" width="24.13477" height="23.58398"/><rect class="cls-5" x="246.72266" y="215.37695" width="24.13477" height="23.58398"/><rect class="cls-6" x="246.72266" y="215.37695" width="24.13477" height="23.58398"/><rect class="cls-7" x="299.41064" y="215.37695" width="24.13379" height="23.58398"/><rect class="cls-8" x="299.41064" y="215.37695" width="24.13379" height="23.58398"/><rect class="cls-7" x="299.41064" y="215.37695" width="24.13379" height="23.58398"/><rect class="cls-8" x="299.41064" y="215.37695" width="24.13379" height="23.58398"/><rect class="cls-7" x="84.68359" y="262.83398" width="24.13379" height="23.58398"/><rect class="cls-8" x="84.68359" y="262.83398" width="24.13379" height="23.58398"/><rect class="cls-7" x="84.68359" y="262.83398" width="24.13379" height="23.58398"/><rect class="cls-8" x="84.68359" y="262.83398" width="24.13379" height="23.58398"/><rect class="cls-7" x="139.75293" y="262.83398" width="24.13477" height="23.58398"/><rect class="cls-8" x="139.75293" y="262.83398" width="24.13477" height="23.58398"/><rect class="cls-7" x="139.75293" y="262.83398" width="24.13477" height="23.58398"/><rect class="cls-8" x="139.75293" y="262.83398" width="24.13477" height="23.58398"/><rect class="cls-7" x="194.82373" y="262.83398" width="24.13379" height="23.58398"/><rect class="cls-8" x="194.82373" y="262.83398" width="24.13379" height="23.58398"/><rect class="cls-7" x="194.82373" y="262.83398" width="24.13379" height="23.58398"/><rect class="cls-8" x="194.82373" y="262.83398" width="24.13379" height="23.58398"/><rect class="cls-7" x="247.1167" y="262.83398" width="24.13477" height="23.58398"/><rect class="cls-8" x="247.1167" y="262.83398" width="24.13477" height="23.58398"/><rect class="cls-7" x="247.1167" y="262.83398" width="24.13477" height="23.58398"/><rect class="cls-8" x="247.1167" y="262.83398" width="24.13477" height="23.58398"/><rect class="cls-7" x="299.41064" y="262.83398" width="24.13379" height="23.58398"/><rect class="cls-8" x="299.41064" y="262.83398" width="24.13379" height="23.58398"/><rect class="cls-7" x="299.41064" y="262.83398" width="24.13379" height="23.58398"/><rect class="cls-8" x="299.41064" y="262.83398" width="24.13379" height="23.58398"/><path class="cls-7" d="M7969.41667,3102.46537h-.20215a8.74269,8.74269,0,0,1-8.71728-8.71692v-42.043a8.74188,8.74188,0,0,1,8.71728-8.71606h.20215a8.74126,8.74126,0,0,1,8.71582,8.71606v42.043a8.74206,8.74206,0,0,1-8.71582,8.71692" transform="translate(-7657.83757 -2968.41349)"/><path class="cls-8" d="M7969.41667,3102.46537h-.20215a8.74269,8.74269,0,0,1-8.71728-8.71692v-42.043a8.74188,8.74188,0,0,1,8.71728-8.71606h.20215a8.74126,8.74126,0,0,1,8.71582,8.71606v42.043a8.74206,8.74206,0,0,1-8.71582,8.71692" transform="translate(-7657.83757 -2968.41349)"/><path class="cls-7" d="M7969.41667,3102.46537h-.20215a8.74269,8.74269,0,0,1-8.71728-8.71692v-42.043a8.74188,8.74188,0,0,1,8.71728-8.71606h.20215a8.74126,8.74126,0,0,1,8.71582,8.71606v42.043a8.74206,8.74206,0,0,1-8.71582,8.71692" transform="translate(-7657.83757 -2968.41349)"/><path class="cls-8" d="M311.37549,74.57593h.20251a8.71692,8.71692,0,0,1,8.71692,8.71692v42.04175a8.71729,8.71729,0,0,1-8.71729,8.71729h-.2019a8.71606,8.71606,0,0,1-8.71606-8.71606V83.29175A8.71582,8.71582,0,0,1,311.37549,74.57593Z"/><path class="cls-7" d="M7754.68913,3100.523h-.20215a8.74269,8.74269,0,0,1-8.71728-8.71692v-42.043a8.74187,8.74187,0,0,1,8.71728-8.71606h.20215a8.74125,8.74125,0,0,1,8.71582,8.71606v42.043a8.74206,8.74206,0,0,1-8.71582,8.71692" transform="translate(-7657.83757 -2968.41349)"/><path class="cls-8" d="M7754.68913,3100.523h-.20215a8.74269,8.74269,0,0,1-8.71728-8.71692v-42.043a8.74187,8.74187,0,0,1,8.71728-8.71606h.20215a8.74125,8.74125,0,0,1,8.71582,8.71606v42.043a8.74206,8.74206,0,0,1-8.71582,8.71692" transform="translate(-7657.83757 -2968.41349)"/><path class="cls-7" d="M7754.68913,3100.523h-.20215a8.74269,8.74269,0,0,1-8.71728-8.71692v-42.043a8.74187,8.74187,0,0,1,8.71728-8.71606h.20215a8.74125,8.74125,0,0,1,8.71582,8.71606v42.043a8.74206,8.74206,0,0,1-8.71582,8.71692" transform="translate(-7657.83757 -2968.41349)"/><path class="cls-8" d="M96.64795,72.63354h.20251a8.71692,8.71692,0,0,1,8.71692,8.71692v42.04175a8.71729,8.71729,0,0,1-8.71729,8.71729h-.2019a8.71606,8.71606,0,0,1-8.71606-8.71606V81.34937A8.71582,8.71582,0,0,1,96.64795,72.63354Z"/></svg>