<?xml version="1.0" encoding="UTF-8"?>
<svg id="_Слой_1" data-name="Слой 1" xmlns="http://www.w3.org/2000/svg" viewBox="0 0 223.63601 223.63542">
  <defs>
    <style>
      .cls-1 {
        fill: #718c09;
      }

      .cls-1, .cls-2 {
        stroke-width: 0px;
      }

      .cls-2 {
        fill: #aac419;
      }
    </style>
  </defs>
  <path class="cls-1" d="M223.63601,109.10963c-.33315-.50164-.12332-1.0578-.15961-1.58925.05821-.07048.11118-.06336.15961.01079v1.57846Z"/>
  <path class="cls-1" d="M223.47643,116.13578c.03622-.53145-.17352-1.08761.15958-1.58925v1.57846c-.04828.0762-.10148.07982-.15958.01079Z"/>
  <path class="cls-1" d="M223.63601,107.53117c-.05335-.00254-.10664-.00608-.15973-.0107.00295-.46792.00578-.93576.00871-1.40364.05055.00184.10084.00561.15102.01127v1.40307Z"/>
  <path class="cls-1" d="M223.47643,116.13578c.05314-.00451.10634-.0081.15958-.01079v1.40307c-.05038.00527-.10088.00896-.15143.01113-.00265-.46778-.00542-.93559-.00816-1.40342Z"/>
  <path class="cls-1" d="M223.63597,109.10965c-.19322-.53329-.0409-1.08568-.09036-1.62674-.03107-.45476.06804-.91545-.06054-1.36614-.10858-2.12632-.30698-4.24438-.52396-6.36262-.48485-4.73387-1.31328-9.40644-2.42817-14.02847-2.78693-11.55419-7.2786-22.39767-13.51626-32.52397-7.15556-11.61701-16.13354-21.59205-26.92358-29.9233-10.19215-7.86953-21.43597-13.77123-33.68073-17.77216C136.33862,2.21472,125.99753.44494,115.42089.06278c-5.22635-.18885-10.44395.05643-15.64887.62731-4.72954.51878-9.40533,1.31453-14.02879,2.42705-10.62753,2.55719-20.67218,6.57129-30.12233,12.0685-11.6083,6.75246-21.6783,15.32216-30.20215,25.69115-6.77304,8.23919-12.24405,17.27753-16.42963,27.09681C3.49365,80.86528.5601,94.32229.06078,108.31023c-.18555,5.1972.06215,10.38529.62771,15.5615.51699,4.73021,1.31043,9.4068,2.4237,14.02955,2.56603,10.65539,6.59142,20.72633,12.1119,30.19934,6.74679,11.57745,15.30082,21.62093,25.64387,30.1276,7.38825,6.07622,15.43779,11.11359,24.13594,15.11313,13.11356,6.02979,26.87322,9.4093,41.28525,10.14411.57753.13019,1.1631.02714,1.7442.05951.82594.05456,1.65973-.11425,2.47978.09045h2.63086c.80844-.20501,1.6308-.035,2.44513-.09045.54574.0004,1.09131.00004,1.63759-.00009,2.80497.00656,5.59351-.1888,8.37759-.53351,6.56946-.81335,13.01909-2.17619,19.33514-4.15201,9.18924-2.87462,17.89471-6.80925,26.07711-11.90198,6.4966-4.04365,12.50174-8.71908,18.06097-13.96365,3.16624-2.98703,6.10265-6.19765,8.89173-9.54431,6.55035-7.85922,11.90742-16.46343,16.09193-25.79102,3.05766-6.81545,5.42743-13.87003,7.04306-21.16904,1.39061-6.28172,2.43102-12.61005,2.44138-19.06883.00036-.43069,0-.86188,0-1.29297.05-.52579-.10304-1.06332.09036-1.58102v-5.4369ZM111.78355,218.12035c-58.97923-.03737-106.28534-47.42852-106.24962-106.35811C5.56965,52.78998,52.98933,5.49441,111.91392,5.53361c58.91655.0392,106.01425,47.407,106.26641,106.31489-.28216,58.97169-47.46647,106.30918-106.39677,106.27185Z"/>
  <path class="cls-1" d="M111.06012,191.70022c-8.59257-.12507-16.29876-1.17001-23.63923-4.20305-2.60207-1.07517-5.05003-2.40588-7.22811-4.22506-1.77527-1.48271-2.2807-3.38721-2.06707-5.56911.64258-6.56339-2.60661-12.56908-8.43368-15.79662-3.54325-1.96256-7.40423-2.96133-11.25162-4.04057-5.71501-1.60316-11.34999-3.42218-16.49051-6.48328-4.73526-2.81978-8.00426-6.7306-9.05508-12.27932-.64161-3.38791-.06187-6.62638,1.22478-9.75584,2.69849-6.56342,7.634-10.27703,14.62175-11.31125,3.04653-.45091,5.96051.00361,8.82868,1.13212,4.76217,1.87374,9.76359,2.93952,14.71836,4.1528,2.20942.54101,4.41755,1.07842,6.54595,1.90628,1.66947.64936,3.42243.95276,5.20662,1.06937.43809.02861.91689.06882,1.19277-.36399.2958-.46411-.14794-.76818-.3587-1.07486-1.77766-2.5869-3.08843-5.43102-4.50151-8.21371-1.13767-2.24033-1.50469-4.71606-1.74006-7.18829-.51264-5.3843.00995-10.65559,1.85806-15.77015.81601-2.25827,1.7772-4.44425,3.02343-6.49998.16573-.27338.34685-.52745.32546-.88271-.14203-2.35887-.26715-4.71876-.40461-7.07791-.08482-1.45571-.18594-2.91046-.27185-4.3661-.06704-1.13591-.15129-2.2721-.16876-3.40908-.00774-.50331-.33048-.62679-.66845-.79742-2.34655-1.18473-4.69224-2.37115-7.03773-3.55798-1.99036-1.00713-3.24809-2.5335-3.40806-4.83072-.15309-2.19833.68344-3.95907,2.51589-5.14348,1.17174-.75736,2.46556-1.32848,3.7152-1.96226,9.63723-4.88772,19.27714-9.77012,28.91591-14.65481,1.39828-.70861,2.71509-1.60484,4.39088-1.59238,1.04835.00779,2.02078.20697,2.95124.68206,11.20964,5.72367,22.42638,11.4335,33.62805,17.17273,2.06508,1.05805,3.21314,2.8041,3.18418,5.14957-.0292,2.36623-1.19322,4.10626-3.31256,5.16463-2.27279,1.135-4.55399,2.25428-6.85216,3.33661-.6307.29703-.90194.63732-.88725,1.37821.06081,3.06795-.00532,6.13874.07613,9.20581.04806,1.80994.31811,3.65759.02702,5.41695-.21631,1.30731.35644,2.10948.87802,3.05424,2.57416,4.6626,4.10393,9.62054,4.52709,14.95391.31053,3.91382.12078,7.71123-1.70107,11.26105-1.54619,3.01269-3.14515,6.0012-5.0538,8.80897-.11435.1682-.22106.34567-.30259.53144-.42496.96834-.11999,1.42952.94712,1.45095.32325.0065.63495-.02141.94645-.13287,5.99713-2.14595,12.23039-3.45111,18.35235-5.15319,3.11813-.86693,6.20387-1.85537,9.33627-2.66504,9.55755-2.47046,18.2395,2.764,21.58484,11.38424,3.55934,9.1717-.97966,17.90992-8.48271,22.33006-2.43627,1.43524-5.13705,2.04968-7.81422,2.73891-4.21457,1.08504-8.28615,2.62107-12.45386,3.85053-2.43314.71775-4.88022,1.39071-7.30038,2.14963-6.40593,2.00881-10.45013,6.17256-11.61087,12.9058-.22254,1.2909-.304,2.58543-.24106,3.91192.16004,3.37253-1.32469,5.94737-4.0731,7.85679-3.10598,2.15785-6.62752,3.27323-10.25085,4.12073-3.60992.84438-7.26908,1.38828-10.97325,1.60586-2.06742.12145-4.13498.2403-5.48772.31883Z"/>
  <path class="cls-2" d="M110.66484,186.10367c-6.811.12653-13.19762-.80937-19.38505-2.99271-2.45452-.86613-4.80703-1.94079-6.92144-3.49473-.50033-.3677-.71888-.76934-.69163-1.3928.13563-3.1043-.08234-6.1638-1.12198-9.13238-1.90431-5.43757-5.52978-9.36386-10.50873-12.1339-3.57383-1.98833-7.46062-3.09956-11.37348-4.16792-5.20523-1.42122-10.34796-3.02124-15.10987-5.64653-3.0205-1.66525-5.51886-3.8085-6.75401-7.13872-.7331-1.97657-.92517-3.99454-.3918-6.07515.69236-2.70083,1.73267-5.21277,3.8347-7.12928,2.00591-1.82889,4.35445-2.93738,7.07803-3.33607,2.36898-.34678,4.5477.09317,6.71397,1.00165,2.90902,1.21999,6.00373,1.85047,9.0251,2.71519,3.7763,1.08079,7.69048,1.64763,11.38819,3.00333,2.70734.9926,5.46501,1.63007,8.35573,1.54728,2.45963-.07045,4.25101-1.26876,5.402-3.41995,1.0495-1.96149.85012-3.90896-.31437-5.72254-1.64324-2.55918-3.01973-5.25984-4.40952-7.95497-.78465-1.5216-1.01728-3.1951-1.29841-4.86523-.25377-1.50764-.23221-3.03204-.23626-4.52599-.00976-3.59557.62262-7.11909,1.99894-10.47318.39821-.97044.85176-1.91817,1.25028-2.88849.23614-.57495.47394-.64929,1.02278-.27687,3.57124,2.42321,7.42325,4.28579,11.55445,5.53682,2.89842.87771,5.85972,1.39696,8.89189,1.65278,5.76773.48659,11.30763-.46149,16.72251-2.33586,3.43613-1.18943,6.62836-2.8876,9.60764-4.96688.56407-.39366.80916-.30935,1.11996.23729,1.92007,3.37716,3.2693,6.97215,3.81535,10.81178.3752,2.6382.66304,5.3013.0752,7.98257-.47422,2.16299-1.69091,3.95171-2.6604,5.86921-1.08035,2.13672-2.551,4.05127-3.63018,6.17788-1.31528,2.59187-1.09148,5.16927.81089,7.42907,1.01393,1.20444,2.47765,1.74374,4.02199,1.89199,1.42713.13703,2.83388-.00861,4.21685-.51032,5.07185-1.83995,10.35111-2.95464,15.5427-4.37739,3.81672-1.04596,7.58301-2.29939,11.43413-3.19105,6.04777-1.40025,11.11857,1.04922,14.13722,6.42849,1.05348,1.87732,1.5998,3.90672,1.65322,6.0046.05954,2.33999-.68184,4.54906-1.98564,6.5027-1.75937,2.6363-4.07426,4.66566-7.09987,5.70904-1.86602.64347-3.80631,1.07383-5.71802,1.58195-3.18485.84649-6.2803,1.97595-9.42416,2.95131-3.08568.9573-6.18555,1.87174-9.29537,2.74751-2.8265.79598-5.33713,2.1923-7.62522,3.97654-2.12774,1.65921-3.92303,3.62333-5.2331,6.03374-1.25628,2.31143-1.99852,4.77426-2.49087,7.32502-.29221,1.5139-.51897,3.06463-.33711,4.60027.21061,1.77844-.64787,2.85999-2.02087,3.72967-2.32466,1.4725-4.9098,2.2773-7.54859,2.9243-2.93719.72016-5.92055,1.1534-8.93312,1.45439-2.4708.24685-4.93722.35785-7.15464.32251Z"/>
  <path class="cls-2" d="M145.67315,61.84306c-.08526.24051-.25919.34935-.44386.43929-3.12322,1.52112-6.24708,3.04093-9.37186,4.55882-.28836.14007-.58813.25673-.87563.39844-4.76741,2.35-9.5287,4.71251-14.30211,7.05028-3.01425,1.47624-6.05384,2.90092-9.06358,4.38615-.56856.28057-1.00798.24008-1.55184-.03715-7.77919-3.96546-15.56878-7.91055-23.35395-11.8643-2.8872-1.46629-5.77072-2.93984-8.65168-4.41834-.24656-.12654-.64116-.16087-.65027-.5057-.00941-.35602.39041-.38953.63514-.51343,6.09736-3.08703,12.19978-6.16405,18.29855-9.24828,4.16966-2.10866,8.33602-4.22383,12.50131-6.34111.44138-.22436.8993-.43787,1.29118-.73373,1.01703-.76782,1.95971-.59833,2.96371.04864.75738.48804,1.58272.8733,2.38886,1.28253,4.84369,2.45886,9.69456,4.90366,14.53532,7.36827,5.02172,2.55673,10.03519,5.12965,15.04981,7.70026.22039.11298.50016.16711.60089.42935Z"/>
  <path class="cls-2" d="M88.68511,73.90788c1.92311.96213,3.8029,1.89175,5.67267,2.8411,1.84803.93832,3.68393,1.90053,5.52881,2.84514,2.75489,1.41056,5.50772,2.82531,8.27157,4.21815,1.80319.90871,3.6023.91378,5.43845.0057,5.41747-2.67923,10.8509-5.32622,16.28328-7.97517,1.56606-.76365,3.1497-1.49127,4.83637-2.28788,0,1.4999-.0006,2.89278.00014,4.28566.0011,2.04583-.0123,4.09186.01438,6.13736.00785.60189-.16336.98153-.66777,1.38729-3.63531,2.92432-7.66457,5.09206-12.12195,6.45149-2.81619.85888-5.68633,1.36757-8.64409,1.54403-4.36336.26035-8.58747-.35349-12.70335-1.69788-3.87306-1.26508-7.43828-3.17378-10.74492-5.56902-.78975-.57208-.65283-1.39704-.70119-2.11796-.1851-2.75896-.27228-5.52466-.38147-8.28842-.02168-.54884-.31148-1.07504-.08091-1.7796Z"/>
</svg>