<svg id="Слой_1" data-name="Слой 1" xmlns="http://www.w3.org/2000/svg" viewBox="0 0 408.46691 407.96636"><defs><style>.cls-1,.cls-10,.cls-12,.cls-3,.cls-4,.cls-6,.cls-8{fill:none;}.cls-1{stroke:#f993aa;}.cls-1,.cls-10{stroke-miterlimit:10;stroke-width:10px;}.cls-2{fill:#fccd9a;}.cls-3{stroke:#f18faa;}.cls-11,.cls-12,.cls-13,.cls-14,.cls-3,.cls-6,.cls-8,.cls-9{stroke-miterlimit:10;}.cls-12,.cls-3{stroke-width:10px;}.cls-5{fill:#331013;}.cls-6{stroke:#331013;}.cls-7{fill:#7b7575;}.cls-8{stroke:#7b7575;}.cls-9{fill:#b8e87c;}.cls-11,.cls-9{stroke:#b8e87c;}.cls-10,.cls-12,.cls-13{stroke:#718c09;}.cls-11{fill:#aac419;}.cls-13{fill:#718c09;}.cls-14{fill:#4a6401;stroke:#4a6401;}</style></defs><circle class="cls-1" cx="499.90393" cy="500.08104" r="198.96679" transform="translate(-503.1295 203.84142) rotate(-45)"/><path class="cls-2" d="M627.54056,602.19685h-256.979a20.1204,20.1204,0,0,1-20.28808-19.825V413.856a20.12028,20.12028,0,0,1,20.28808-19.82593h256.979A20.12018,20.12018,0,0,1,647.82815,413.856V582.37214a20.12013,20.12013,0,0,1-20.28759,19.825" transform="translate(-295.93728 -296.11438)"/><path class="cls-3" d="M627.54056,602.19685h-256.979a20.1204,20.1204,0,0,1-20.28808-19.825V413.856a20.12028,20.12028,0,0,1,20.28808-19.82593h256.979A20.12018,20.12018,0,0,1,647.82815,413.856V582.37214A20.12009,20.12009,0,0,1,627.54056,602.19685Z" transform="translate(-295.93728 -296.11438)"/><line class="cls-4" x1="53.94312" y1="152.08271" x2="351.49683" y2="152.08271"/><line class="cls-3" x1="53.94312" y1="152.08271" x2="351.49683" y2="152.08271"/><rect class="cls-5" x="192.64234" y="170.43159" width="24.13379" height="23.58398"/><rect class="cls-6" x="192.64234" y="170.43159" width="24.13379" height="23.58398"/><rect class="cls-5" x="192.64234" y="170.43159" width="24.13379" height="23.58398"/><rect class="cls-6" x="192.64234" y="170.43159" width="24.13379" height="23.58398"/><rect class="cls-7" x="245.32838" y="170.30268" width="24.13477" height="23.58398"/><rect class="cls-8" x="245.32838" y="170.30268" width="24.13477" height="23.58398"/><rect class="cls-7" x="245.32838" y="170.30268" width="24.13477" height="23.58398"/><rect class="cls-8" x="245.32838" y="170.30268" width="24.13477" height="23.58398"/><rect class="cls-7" x="298.01636" y="170.43159" width="24.13379" height="23.58398"/><rect class="cls-8" x="298.01636" y="170.43159" width="24.13379" height="23.58398"/><rect class="cls-7" x="298.01636" y="170.43159" width="24.13379" height="23.58398"/><rect class="cls-8" x="298.01636" y="170.43159" width="24.13379" height="23.58398"/><rect class="cls-7" x="83.28931" y="215.27265" width="24.13379" height="23.58496"/><rect class="cls-8" x="83.28931" y="215.27265" width="24.13379" height="23.58496"/><rect class="cls-7" x="83.28931" y="215.27265" width="24.13379" height="23.58496"/><rect class="cls-8" x="83.28931" y="215.27265" width="24.13379" height="23.58496"/><rect class="cls-7" x="138.35865" y="212.78754" width="24.13477" height="23.58398"/><rect class="cls-8" x="138.35865" y="212.78754" width="24.13477" height="23.58398"/><rect class="cls-7" x="138.35865" y="212.78754" width="24.13477" height="23.58398"/><rect class="cls-8" x="138.35865" y="212.78754" width="24.13477" height="23.58398"/><rect class="cls-7" x="193.42847" y="212.78754" width="24.13379" height="23.58398"/><rect class="cls-8" x="193.42847" y="212.78754" width="24.13379" height="23.58398"/><rect class="cls-7" x="193.42847" y="212.78754" width="24.13379" height="23.58398"/><rect class="cls-8" x="193.42847" y="212.78754" width="24.13379" height="23.58398"/><rect class="cls-7" x="245.32838" y="212.78754" width="24.13477" height="23.58398"/><rect class="cls-8" x="245.32838" y="212.78754" width="24.13477" height="23.58398"/><rect class="cls-7" x="245.32838" y="212.78754" width="24.13477" height="23.58398"/><rect class="cls-8" x="245.32838" y="212.78754" width="24.13477" height="23.58398"/><rect class="cls-7" x="298.01636" y="212.78754" width="24.13379" height="23.58398"/><rect class="cls-8" x="298.01636" y="212.78754" width="24.13379" height="23.58398"/><rect class="cls-7" x="298.01636" y="212.78754" width="24.13379" height="23.58398"/><rect class="cls-8" x="298.01636" y="212.78754" width="24.13379" height="23.58398"/><rect class="cls-7" x="83.28931" y="260.24457" width="24.13379" height="23.58411"/><rect class="cls-8" x="83.28931" y="260.24457" width="24.13379" height="23.58411"/><rect class="cls-7" x="83.28931" y="260.24457" width="24.13379" height="23.58411"/><rect class="cls-8" x="83.28931" y="260.24457" width="24.13379" height="23.58411"/><rect class="cls-7" x="138.35865" y="260.24457" width="24.13477" height="23.58411"/><rect class="cls-8" x="138.35865" y="260.24457" width="24.13477" height="23.58411"/><rect class="cls-7" x="138.35865" y="260.24457" width="24.13477" height="23.58411"/><rect class="cls-8" x="138.35865" y="260.24457" width="24.13477" height="23.58411"/><rect class="cls-7" x="193.42847" y="260.24457" width="24.13379" height="23.58411"/><rect class="cls-8" x="193.42847" y="260.24457" width="24.13379" height="23.58411"/><rect class="cls-7" x="193.42847" y="260.24457" width="24.13379" height="23.58411"/><rect class="cls-8" x="193.42847" y="260.24457" width="24.13379" height="23.58411"/><rect class="cls-7" x="245.72242" y="260.24457" width="24.13477" height="23.58411"/><rect class="cls-8" x="245.72242" y="260.24457" width="24.13477" height="23.58411"/><rect class="cls-7" x="245.72242" y="260.24457" width="24.13477" height="23.58411"/><rect class="cls-8" x="245.72242" y="260.24457" width="24.13477" height="23.58411"/><rect class="cls-7" x="298.01636" y="260.24457" width="24.13379" height="23.58411"/><rect class="cls-8" x="298.01636" y="260.24457" width="24.13379" height="23.58411"/><rect class="cls-7" x="298.01636" y="260.24457" width="24.13379" height="23.58411"/><rect class="cls-8" x="298.01636" y="260.24457" width="24.13379" height="23.58411"/><path class="cls-9" d="M606.12161,427.577h-.20215a8.74258,8.74258,0,0,1-8.71728-8.71679v-42.043a8.74165,8.74165,0,0,1,8.71728-8.71607h.20215a8.741,8.741,0,0,1,8.71582,8.71607v42.043a8.7418,8.7418,0,0,1-8.71582,8.71679" transform="translate(-295.93728 -296.11438)"/><path class="cls-9" d="M606.12161,427.577h-.20215a8.74258,8.74258,0,0,1-8.71728-8.71679v-42.043a8.74165,8.74165,0,0,1,8.71728-8.71607h.20215a8.741,8.741,0,0,1,8.71582,8.71607v42.043a8.7418,8.7418,0,0,1-8.71582,8.71679" transform="translate(-295.93728 -296.11438)"/><path class="cls-9" d="M606.12161,427.577h-.20215a8.74258,8.74258,0,0,1-8.71728-8.71679v-42.043a8.74165,8.74165,0,0,1,8.71728-8.71607h.20215a8.741,8.741,0,0,1,8.71582,8.71607v42.043a8.7418,8.7418,0,0,1-8.71582,8.71679" transform="translate(-295.93728 -296.11438)"/><path class="cls-9" d="M605.918,368.10114h.20263a8.71681,8.71681,0,0,1,8.7168,8.7168v42.043a8.71606,8.71606,0,0,1-8.71606,8.71606h-.20313a8.716,8.716,0,0,1-8.71606-8.716h0V376.817a8.71581,8.71581,0,0,1,8.71582-8.71582Z" transform="translate(-295.93728 -296.11438)"/><path class="cls-9" d="M391.39407,425.63459h-.20215a8.74259,8.74259,0,0,1-8.71728-8.7168v-42.043a8.74165,8.74165,0,0,1,8.71728-8.71607h.20215a8.741,8.741,0,0,1,8.71582,8.71607v42.043a8.7418,8.7418,0,0,1-8.71582,8.7168" transform="translate(-295.93728 -296.11438)"/><path class="cls-9" d="M391.39407,425.63459h-.20215a8.74259,8.74259,0,0,1-8.71728-8.7168v-42.043a8.74165,8.74165,0,0,1,8.71728-8.71607h.20215a8.741,8.741,0,0,1,8.71582,8.71607v42.043a8.7418,8.7418,0,0,1-8.71582,8.7168" transform="translate(-295.93728 -296.11438)"/><path class="cls-9" d="M391.39407,425.63459h-.20215a8.74259,8.74259,0,0,1-8.71728-8.7168v-42.043a8.74165,8.74165,0,0,1,8.71728-8.71607h.20215a8.741,8.741,0,0,1,8.71582,8.71607v42.043a8.7418,8.7418,0,0,1-8.71582,8.7168" transform="translate(-295.93728 -296.11438)"/><path class="cls-9" d="M391.19046,366.15876h.20264a8.71679,8.71679,0,0,1,8.71679,8.7168v42.043a8.716,8.716,0,0,1-8.716,8.71606h-.20314a8.716,8.716,0,0,1-8.716-8.716v-42.044A8.71582,8.71582,0,0,1,391.19046,366.15876Z" transform="translate(-295.93728 -296.11438)"/><circle class="cls-10" cx="500.43753" cy="500.11408" r="198.96679" transform="translate(-502.99658 204.22841) rotate(-45)"/><path class="cls-11" d="M628.07415,602.22989h-256.979a20.1204,20.1204,0,0,1-20.28809-19.82495V413.88907a20.12028,20.12028,0,0,1,20.28809-19.82592h256.979a20.12017,20.12017,0,0,1,20.2876,19.82592V582.40519a20.12014,20.12014,0,0,1-20.2876,19.825" transform="translate(-295.93728 -296.11438)"/><path class="cls-12" d="M628.07415,602.22989h-256.979a20.1204,20.1204,0,0,1-20.28809-19.82495V413.88907a20.12028,20.12028,0,0,1,20.28809-19.82592h256.979a20.12017,20.12017,0,0,1,20.2876,19.82592V582.40519A20.12009,20.12009,0,0,1,628.07415,602.22989Z" transform="translate(-295.93728 -296.11438)"/><line class="cls-4" x1="54.47672" y1="152.11575" x2="352.03043" y2="152.11575"/><line class="cls-12" x1="54.47672" y1="152.11575" x2="352.03043" y2="152.11575"/><rect class="cls-5" x="193.17594" y="170.46463" width="24.13379" height="23.58398"/><rect class="cls-6" x="193.17594" y="170.46463" width="24.13379" height="23.58398"/><rect class="cls-5" x="193.17594" y="170.46463" width="24.13379" height="23.58398"/><rect class="cls-13" x="193.17594" y="170.46463" width="24.13379" height="23.58398"/><rect class="cls-7" x="245.86197" y="170.33573" width="24.13477" height="23.58398"/><rect class="cls-8" x="245.86197" y="170.33573" width="24.13477" height="23.58398"/><rect class="cls-7" x="245.86197" y="170.33573" width="24.13477" height="23.58398"/><rect class="cls-14" x="245.86197" y="170.33573" width="24.13477" height="23.58398"/><rect class="cls-7" x="298.54996" y="170.46463" width="24.13379" height="23.58398"/><rect class="cls-8" x="298.54996" y="170.46463" width="24.13379" height="23.58398"/><rect class="cls-7" x="298.54996" y="170.46463" width="24.13379" height="23.58398"/><rect class="cls-14" x="298.54996" y="170.46463" width="24.13379" height="23.58398"/><rect class="cls-7" x="83.82291" y="215.3057" width="24.13379" height="23.58496"/><rect class="cls-8" x="83.82291" y="215.3057" width="24.13379" height="23.58496"/><rect class="cls-7" x="83.82291" y="215.3057" width="24.13379" height="23.58496"/><rect class="cls-14" x="83.82291" y="215.3057" width="24.13379" height="23.58496"/><rect class="cls-7" x="138.89224" y="212.82059" width="24.13477" height="23.58398"/><rect class="cls-8" x="138.89224" y="212.82059" width="24.13477" height="23.58398"/><rect class="cls-7" x="138.89224" y="212.82059" width="24.13477" height="23.58398"/><rect class="cls-14" x="138.89224" y="212.82059" width="24.13477" height="23.58398"/><rect class="cls-7" x="193.96207" y="212.82059" width="24.13379" height="23.58398"/><rect class="cls-8" x="193.96207" y="212.82059" width="24.13379" height="23.58398"/><rect class="cls-7" x="193.96207" y="212.82059" width="24.13379" height="23.58398"/><rect class="cls-14" x="193.96207" y="212.82059" width="24.13379" height="23.58398"/><rect class="cls-7" x="245.86197" y="212.82059" width="24.13477" height="23.58398"/><rect class="cls-8" x="245.86197" y="212.82059" width="24.13477" height="23.58398"/><rect class="cls-7" x="245.86197" y="212.82059" width="24.13477" height="23.58398"/><rect class="cls-14" x="245.86197" y="212.82059" width="24.13477" height="23.58398"/><rect class="cls-7" x="298.54996" y="212.82059" width="24.13379" height="23.58398"/><rect class="cls-8" x="298.54996" y="212.82059" width="24.13379" height="23.58398"/><rect class="cls-7" x="298.54996" y="212.82059" width="24.13379" height="23.58398"/><rect class="cls-14" x="298.54996" y="212.82059" width="24.13379" height="23.58398"/><rect class="cls-7" x="83.82291" y="260.27762" width="24.13379" height="23.58411"/><rect class="cls-8" x="83.82291" y="260.27762" width="24.13379" height="23.58411"/><rect class="cls-7" x="83.82291" y="260.27762" width="24.13379" height="23.58411"/><rect class="cls-14" x="83.82291" y="260.27762" width="24.13379" height="23.58411"/><rect class="cls-7" x="138.89224" y="260.27762" width="24.13477" height="23.58411"/><rect class="cls-8" x="138.89224" y="260.27762" width="24.13477" height="23.58411"/><rect class="cls-7" x="138.89224" y="260.27762" width="24.13477" height="23.58411"/><rect class="cls-14" x="138.89224" y="260.27762" width="24.13477" height="23.58411"/><rect class="cls-7" x="193.96207" y="260.27762" width="24.13379" height="23.58411"/><rect class="cls-8" x="193.96207" y="260.27762" width="24.13379" height="23.58411"/><rect class="cls-7" x="193.96207" y="260.27762" width="24.13379" height="23.58411"/><rect class="cls-14" x="193.96207" y="260.27762" width="24.13379" height="23.58411"/><rect class="cls-7" x="246.25601" y="260.27762" width="24.13477" height="23.58411"/><rect class="cls-8" x="246.25601" y="260.27762" width="24.13477" height="23.58411"/><rect class="cls-7" x="246.25601" y="260.27762" width="24.13477" height="23.58411"/><rect class="cls-14" x="246.25601" y="260.27762" width="24.13477" height="23.58411"/><rect class="cls-7" x="298.54996" y="260.27762" width="24.13379" height="23.58411"/><rect class="cls-8" x="298.54996" y="260.27762" width="24.13379" height="23.58411"/><rect class="cls-7" x="298.54996" y="260.27762" width="24.13379" height="23.58411"/><rect class="cls-14" x="298.54996" y="260.27762" width="24.13379" height="23.58411"/><path class="cls-9" d="M606.65521,427.61h-.20215a8.74259,8.74259,0,0,1-8.71729-8.7168v-42.043a8.74164,8.74164,0,0,1,8.71729-8.71606h.20215a8.741,8.741,0,0,1,8.71582,8.71606v42.043a8.74181,8.74181,0,0,1-8.71582,8.7168" transform="translate(-295.93728 -296.11438)"/><path class="cls-9" d="M606.65521,427.61h-.20215a8.74259,8.74259,0,0,1-8.71729-8.7168v-42.043a8.74164,8.74164,0,0,1,8.71729-8.71606h.20215a8.741,8.741,0,0,1,8.71582,8.71606v42.043a8.74181,8.74181,0,0,1-8.71582,8.7168" transform="translate(-295.93728 -296.11438)"/><path class="cls-9" d="M606.65521,427.61h-.20215a8.74259,8.74259,0,0,1-8.71729-8.7168v-42.043a8.74164,8.74164,0,0,1,8.71729-8.71606h.20215a8.741,8.741,0,0,1,8.71582,8.71606v42.043a8.74181,8.74181,0,0,1-8.71582,8.7168" transform="translate(-295.93728 -296.11438)"/><path class="cls-13" d="M606.45159,368.13419h.20264a8.7168,8.7168,0,0,1,8.7168,8.7168v42.043a8.71607,8.71607,0,0,1-8.71607,8.71606h-.20312a8.71606,8.71606,0,0,1-8.71607-8.71606h0V376.85a8.71581,8.71581,0,0,1,8.71582-8.71582Z" transform="translate(-295.93728 -296.11438)"/><path class="cls-9" d="M391.92767,425.66764h-.20215a8.7426,8.7426,0,0,1-8.71729-8.7168v-42.043a8.74164,8.74164,0,0,1,8.71729-8.71606h.20215a8.741,8.741,0,0,1,8.71582,8.71606v42.043a8.74181,8.74181,0,0,1-8.71582,8.7168" transform="translate(-295.93728 -296.11438)"/><path class="cls-9" d="M391.92767,425.66764h-.20215a8.7426,8.7426,0,0,1-8.71729-8.7168v-42.043a8.74164,8.74164,0,0,1,8.71729-8.71606h.20215a8.741,8.741,0,0,1,8.71582,8.71606v42.043a8.74181,8.74181,0,0,1-8.71582,8.7168" transform="translate(-295.93728 -296.11438)"/><path class="cls-9" d="M391.92767,425.66764h-.20215a8.7426,8.7426,0,0,1-8.71729-8.7168v-42.043a8.74164,8.74164,0,0,1,8.71729-8.71606h.20215a8.741,8.741,0,0,1,8.71582,8.71606v42.043a8.74181,8.74181,0,0,1-8.71582,8.7168" transform="translate(-295.93728 -296.11438)"/><path class="cls-13" d="M391.72405,366.19181h.20264a8.71679,8.71679,0,0,1,8.7168,8.71679v42.043a8.71606,8.71606,0,0,1-8.71606,8.71607h-.20313a8.71606,8.71606,0,0,1-8.71606-8.71606v-42.044A8.71581,8.71581,0,0,1,391.72405,366.19181Z" transform="translate(-295.93728 -296.11438)"/></svg>