<svg id="Слой_6" data-name="Слой 6" xmlns="http://www.w3.org/2000/svg" viewBox="0 0 407.93311 407.93324"><defs><style>.cls-1{fill:none;}.cls-1,.cls-2{stroke:#adc79d;stroke-miterlimit:10;stroke-width:10px;}.cls-2{fill:#777a74;}.cls-3{fill:#e1e1e1;}.cls-4{fill:#adc79d;}</style></defs><circle class="cls-1" cx="203.96655" cy="203.96662" r="198.96658"/><rect class="cls-2" x="3172.5394" y="1285.21044" width="66.25374" height="42.81737" rx="11.37257" transform="translate(-3352.72846 8.63541) rotate(-18.77289)"/><rect class="cls-2" x="3210.08338" y="1241.34934" width="130.17712" height="82.13643" rx="12.75461" transform="translate(-3341.24238 29.71608) rotate(-18.77289)"/><rect class="cls-2" x="3290.31992" y="1192.51487" width="152.31825" height="118.55416" rx="12.67141" transform="translate(-3326.52913 57.47109) rotate(-18.77289)"/><line class="cls-3" x1="130.09" y1="353.46013" x2="173.41967" y2="248.63029"/><path class="cls-4" d="M3237.68284,1447.30409l37.86145-91.60029,5.46822-13.22955c2.456-5.94186-7.21508-8.53191-9.64279-2.6584l-37.86146,91.60029-5.46821,13.22955c-2.456,5.94186,7.21507,8.53191,9.64279,2.6584Z" transform="translate(-3102.77144 -1092.51476)"/><line class="cls-3" x1="239.80156" y1="353.69308" x2="191.67536" y2="241.26755"/><path class="cls-4" d="M3346.89035,1443.68425l-42.15718-98.48158-5.969-13.94395c-2.525-5.89849-11.142-.81-8.6347,5.04719l42.15717,98.48158,5.969,13.944c2.525,5.8985,11.142.81,8.6347-5.04719Z" transform="translate(-3102.77144 -1092.51476)"/><line class="cls-3" x1="183.85773" y1="248.86324" x2="183.85773" y2="353.46013"/><path class="cls-4" d="M3281.62917,1341.378v104.59688c0,6.43453,10,6.44518,10,0V1341.378c0-6.43453-10-6.44518-10,0Z" transform="translate(-3102.77144 -1092.51476)"/><line class="cls-3" x1="146.07383" y1="314.78956" x2="220.14225" y2="314.78956"/><path class="cls-4" d="M3248.84528,1412.30433h74.06842c6.43452,0,6.44518-10,0-10h-74.06842c-6.43453,0-6.44518,10,0,10Z" transform="translate(-3102.77144 -1092.51476)"/><line class="cls-3" x1="173.3202" y1="248.37131" x2="191.67536" y2="241.32164"/><path class="cls-4" d="M3277.42084,1345.70746l18.35517-7.04966c5.94634-2.28381,3.36427-11.95592-2.6584-9.64279l-18.35516,7.04966c-5.94634,2.28381-3.36428,11.95592,2.65839,9.64279Z" transform="translate(-3102.77144 -1092.51476)"/></svg>