<svg id="Слой_1" data-name="Слой 1" xmlns="http://www.w3.org/2000/svg" viewBox="0 0 227.23919 227.23891"><defs><style>.cls-1{fill:none;stroke:#718c09;stroke-miterlimit:5.57;stroke-width:5.57px;}.cls-2{fill:#aac419;}</style></defs><path class="cls-1" d="M421.79939,421.726a110.83463,110.83463,0,1,1,0,156.744A110.83472,110.83472,0,0,1,421.79939,421.726Z" transform="translate(-386.55126 -386.47839)"/><path class="cls-2" d="M556.88338,493.56985H446.9781a17.96591,17.96591,0,0,1-17.96484-17.965v-18.995a17.96591,17.96591,0,0,1,17.96484-17.965H556.88338a17.96591,17.96591,0,0,1,17.96484,17.965v18.995a17.95965,17.95965,0,0,1-17.96484,17.965" transform="translate(-386.55126 -386.47839)"/><path class="cls-1" d="M556.88338,493.56985H446.9781a17.96591,17.96591,0,0,1-17.96484-17.965v-18.995a17.96591,17.96591,0,0,1,17.96484-17.965H556.88338a17.96591,17.96591,0,0,1,17.96484,17.965v18.995A17.95965,17.95965,0,0,1,556.88338,493.56985Z" transform="translate(-386.55126 -386.47839)"/><path class="cls-1" d="M553.10115,463.70669a2.39551,2.39551,0,1,1-2.39648,2.395A2.39512,2.39512,0,0,1,553.10115,463.70669Z" transform="translate(-386.55126 -386.47839)"/><path class="cls-1" d="M529.53768,463.70669a2.39551,2.39551,0,1,1-2.39649,2.395A2.39512,2.39512,0,0,1,529.53768,463.70669Z" transform="translate(-386.55126 -386.47839)"/><path class="cls-1" d="M503.56844,463.70669a2.39551,2.39551,0,1,1-2.395,2.395A2.39512,2.39512,0,0,1,503.56844,463.70669Z" transform="translate(-386.55126 -386.47839)"/><path class="cls-2" d="M556.88338,565.45681H446.9781a17.96591,17.96591,0,0,1-17.96484-17.965v-18.995a17.96591,17.96591,0,0,1,17.96484-17.965H556.88338a17.9659,17.9659,0,0,1,17.96484,17.965v18.995a17.95965,17.95965,0,0,1-17.96484,17.965" transform="translate(-386.55126 -386.47839)"/><path class="cls-1" d="M556.88338,565.45681H446.9781a17.96591,17.96591,0,0,1-17.96484-17.965v-18.995a17.96591,17.96591,0,0,1,17.96484-17.965H556.88338a17.9659,17.9659,0,0,1,17.96484,17.965v18.995A17.95965,17.95965,0,0,1,556.88338,565.45681Z" transform="translate(-386.55126 -386.47839)"/><path class="cls-1" d="M553.10115,535.599a2.39551,2.39551,0,1,1-2.39648,2.395A2.39512,2.39512,0,0,1,553.10115,535.599Z" transform="translate(-386.55126 -386.47839)"/><path class="cls-1" d="M529.53768,535.599a2.39551,2.39551,0,1,1-2.39649,2.395A2.39512,2.39512,0,0,1,529.53768,535.599Z" transform="translate(-386.55126 -386.47839)"/><path class="cls-1" d="M503.56844,535.599a2.39551,2.39551,0,1,1-2.395,2.395A2.39512,2.39512,0,0,1,503.56844,535.599Z" transform="translate(-386.55126 -386.47839)"/></svg>