<svg id="Слой_20" data-name="Слой 20" xmlns="http://www.w3.org/2000/svg" viewBox="0 0 407.93311 407.93324"><defs><style>.cls-1{fill:#777a74;}.cls-1,.cls-2{stroke:#adc79d;stroke-miterlimit:10;stroke-width:10px;}.cls-2{fill:none;}</style></defs><path class="cls-1" d="M8683.47986,1497.66c-.05737-3.93543.04639-5.26972.04639-5.26981a28.82285,28.82285,0,0,0-.04639-4.46246,35.98015,35.98015,0,0,0-4.41455-13.846,33.94418,33.94418,0,0,0-7.12378-8.52829c-1.53271-1.36432-5.34253-4.5336-13.54492-7.92627-5.04345-2.08615-6.40478-2.04669-15.15039-4.61535-9.522-2.7967-15.896-4.70215-23.37744-8.52836-5.17163-2.64492-8.56421-4.42135-12.04-8.22729a24.73606,24.73606,0,0,1-5.61865-26.78888,27.83558,27.83558,0,0,1,6.2207-10.73566,28.32055,28.32055,0,0,1,10.33423-6.82266,29.12228,29.12228,0,0,1,13.74561-1.70566c3.97534.482,4.949,1.47239,11.93969,3.81269,3.29126,1.10183,2.60694.7254,13.846,3.81265,6.6499,1.82663,13.56982,2.84094,19.96631,5.418a36.7286,36.7286,0,0,0,10.13354,2.107,8.18464,8.18464,0,0,0,5.21729-.90295,6.78753,6.78753,0,0,0,3.01-4.31436c.36157-2.37348-1.09082-4.232-2.5083-6.321-2.269-3.3439-3.80493-7.132-5.81934-10.63528-3.5437-6.16293-3.88476-12.36957-4.21386-18.36093a58.2549,58.2549,0,0,1,4.21386-24.4813,51.34577,51.34577,0,0,1,24.18042-27.3909,57.6809,57.6809,0,0,1,17.85913-6.321,54.899,54.899,0,0,1,17.35767-.301,53.71588,53.71588,0,0,1,17.25732,5.91964,60.24616,60.24616,0,0,1,31.304,45.04953c.7251,6.68457,1.5498,14.28659-2.30786,21.672-6.25806,11.98163-8.62842,15.04984-8.62867,15.05a8.737,8.737,0,0,0-1.8059,4.11364,6.97005,6.97005,0,0,0,1.2041,5.31766c1.7268,2.1337,4.51367,2.25516,5.719,2.30768,2.26807.09885,3.53223-.59473,7.0232-1.806,2.43945-.84634,4.95971-1.43915,7.4248-2.20734,6.00391-1.87112,7.00391-1.7814,16.85571-4.41467,8.53809-2.28207,14.749-4.11362,14.749-4.11368,6.97119-2.05578,8.41162-2.6448,11.63867-2.90963a29.30729,29.30729,0,0,1,12.24072,1.30432,29.66937,29.66937,0,0,1,18.96289,28.1936,27.03127,27.03127,0,0,1-4.61523,13.64526,31.09471,31.09471,0,0,1-10.6355,9.933c-4.37231,2.62753-6.56885,2.70443-16.655,5.51831-9.72437,2.71286-7.25513,2.522-21.47144,6.72235-12.03173,3.55487-13.28369,3.53882-17.157,5.61859-3.49951,1.87912-8.916,4.86713-13.14355,11.03671a34.80991,34.80991,0,0,0-5.0166,11.93958c-1.83155,7.281-.51075,10.492-1.20411,13.64529-2.56445,11.66046-30.56543,16.491-50.42944,16.76624C8703.86487,1515.11374,8683.53577,1501.49451,8683.47986,1497.66Z" transform="translate(-8535.94502 -1170.03859)"/><circle class="cls-2" cx="203.96655" cy="203.96662" r="198.96658"/><path class="cls-1" d="M8691.74026,1289.993q1.06444,19.33349,2.12855,38.667c3.94672,3.339,22.48836,18.296,49.66393,16.67291a71.18991,71.18991,0,0,0,43.27862-18.44663q-.17757-19.15612-.35481-38.31224Q8739.0984,1289.2835,8691.74026,1289.993Z" transform="translate(-8535.94502 -1170.03859)"/><path class="cls-1" d="M8803.7262,1287.74158l-63.15834,30.86523a5.38484,5.38484,0,0,1-4.80548-.03831l-60.88047-30.964a5.38485,5.38485,0,0,1,.0047-9.60184l62.09372-31.50461a5.38486,5.38486,0,0,1,4.88364.00545l61.94508,31.60337A5.38485,5.38485,0,0,1,8803.7262,1287.74158Z" transform="translate(-8535.94502 -1170.03859)"/><path class="cls-1" d="M8617.65281,1294.92482l10.76348,20.11936a1.37072,1.37072,0,0,0,1.03416.69314l24.06786,3.22629a1.24366,1.24366,0,0,1,.76121,2.16124l-17.41567,15.66074a1.20758,1.20758,0,0,0-.395,1.12153l4.11128,22.11331a1.35368,1.35368,0,0,1-1.99287,1.33572l-21.527-10.44049a1.47614,1.47614,0,0,0-1.27829,0l-21.52695,10.44049a1.35368,1.35368,0,0,1-1.99287-1.33572l4.11128-22.11331a1.20758,1.20758,0,0,0-.395-1.12153l-17.41567-15.66074a1.24365,1.24365,0,0,1,.7612-2.16124l24.06787-3.22629a1.37076,1.37076,0,0,0,1.03416-.69314l10.76348-20.11936A1.427,1.427,0,0,1,8617.65281,1294.92482Z" transform="translate(-8535.94502 -1170.03859)"/></svg>