<svg id="Слой_1" data-name="Слой 1" xmlns="http://www.w3.org/2000/svg" viewBox="0 0 407.93555 407.93396"><defs><style>.cls-1,.cls-4,.cls-5{fill:none;stroke:#718c09;stroke-miterlimit:10;}.cls-1{stroke-width:10px;}.cls-2{fill:#aac419;}.cls-3{fill:#787974;}.cls-4{stroke-width:10.81508px;}.cls-5{stroke-width:10.55827px;}</style></defs><circle class="cls-1" cx="500.17024" cy="500.09753" r="198.96716" transform="translate(-503.32884 204.01837) rotate(-45)"/><path class="cls-2" d="M461.56136,361.28H400.45784V612.56491H626.52815V553.292C600.64534,522.521,490.66878,394.51291,461.56136,361.28m-8.9375,197.04089v-117.991l104.82226,117.991Z" transform="translate(-296.20296 -296.13058)"/><path class="cls-1" d="M461.56136,361.28H400.45784V612.56491H626.52815V553.292C600.64534,522.521,490.66878,394.51291,461.56136,361.28Zm-8.9375,197.04089v-117.991l104.82226,117.991Z" transform="translate(-296.20296 -296.13058)"/><line class="cls-3" x1="174.1709" y1="86.77588" x2="154.89941" y2="102.0929"/><line class="cls-4" x1="174.83771" y1="84.16386" x2="154.9921" y2="101.56126"/><line class="cls-3" x1="194.16992" y1="103.22546" x2="181.58496" y2="113.22852"/><line class="cls-1" x1="194.16992" y1="103.22546" x2="181.58496" y2="113.22852"/><line class="cls-3" x1="207.54297" y1="122.22815" x2="188.27148" y2="137.54517"/><line class="cls-1" x1="207.54297" y1="122.22815" x2="188.27148" y2="137.54517"/><line class="cls-3" x1="223.58301" y1="138.33862" x2="210.99707" y2="148.34167"/><line class="cls-1" x1="223.58301" y1="138.33862" x2="210.99707" y2="148.34167"/><line class="cls-3" x1="238.02539" y1="160.01538" x2="218.75391" y2="175.3324"/><line class="cls-5" x1="240.14167" y1="159.66011" x2="219.04806" y2="175.26009"/><line class="cls-3" x1="256.13184" y1="178.68787" x2="243.54687" y2="188.69092"/><line class="cls-1" x1="256.13184" y1="178.68787" x2="243.54687" y2="188.69092"/><line class="cls-3" x1="274.37695" y1="197.9613" x2="255.10547" y2="213.27832"/><line class="cls-1" x1="274.37695" y1="197.9613" x2="255.10547" y2="213.27832"/><line class="cls-3" x1="290.85645" y1="213.17261" x2="278.27148" y2="223.17566"/><line class="cls-1" x1="290.85645" y1="213.17261" x2="278.27148" y2="223.17566"/><line class="cls-3" x1="304.65625" y1="232.03845" x2="285.38574" y2="247.35547"/><line class="cls-1" x1="304.65625" y1="232.03845" x2="285.38574" y2="247.35547"/></svg>