<svg id="Слой_1" data-name="Слой 1" xmlns="http://www.w3.org/2000/svg" viewBox="0 0 407.388 407.38806"><defs><style>.cls-1,.cls-3{fill:none;stroke-miterlimit:10;}.cls-1{stroke:#718c09;stroke-width:10px;}.cls-2{fill:#aac419;}.cls-3{stroke:#b8e87b;}</style></defs><circle class="cls-1" cx="500.17073" cy="500.09753" r="198.69405" transform="translate(-503.60247 203.74576) rotate(-45)"/><path class="cls-2" d="M386.274,410.91647l16.06,30.02a2.0445,2.0445,0,0,0,1.543,1.03406l35.911,4.814a1.85525,1.85525,0,0,1,1.136,3.224l-25.986,23.36707a1.80331,1.80331,0,0,0-.589,1.67395l6.134,32.995a2.019,2.019,0,0,1-2.973,1.99207l-32.12-15.578a2.20522,2.20522,0,0,0-1.907,0l-32.12,15.578a2.01954,2.01954,0,0,1-2.974-1.99207l6.135-32.995a1.80393,1.80393,0,0,0-.59-1.67395l-25.985-23.36707a1.855,1.855,0,0,1,1.136-3.224l35.911-4.814a2.048,2.048,0,0,0,1.543-1.03406l16.06-30.02a2.129,2.129,0,0,1,3.675,0" transform="translate(-296.47673 -296.40353)"/><path class="cls-3" d="M386.274,410.91647l16.06,30.02a2.0445,2.0445,0,0,0,1.543,1.03406l35.911,4.814a1.85525,1.85525,0,0,1,1.136,3.224l-25.986,23.36707a1.80331,1.80331,0,0,0-.589,1.67395l6.134,32.995a2.019,2.019,0,0,1-2.973,1.99207l-32.12-15.578a2.20522,2.20522,0,0,0-1.907,0l-32.12,15.578a2.01954,2.01954,0,0,1-2.974-1.99207l6.135-32.995a1.80393,1.80393,0,0,0-.59-1.67395l-25.985-23.36707a1.855,1.855,0,0,1,1.136-3.224l35.911-4.814a2.048,2.048,0,0,0,1.543-1.03406l16.06-30.02a2.129,2.129,0,0,1,3.675,0" transform="translate(-296.47673 -296.40353)"/><path class="cls-1" d="M386.274,410.91647l16.06,30.02a2.0445,2.0445,0,0,0,1.543,1.03406l35.911,4.814a1.85525,1.85525,0,0,1,1.136,3.224l-25.986,23.36707a1.80331,1.80331,0,0,0-.589,1.67395l6.134,32.995a2.019,2.019,0,0,1-2.973,1.99207l-32.12-15.578a2.20522,2.20522,0,0,0-1.907,0l-32.12,15.578a2.01954,2.01954,0,0,1-2.974-1.99207l6.135-32.995a1.80393,1.80393,0,0,0-.59-1.67395l-25.985-23.36707a1.855,1.855,0,0,1,1.136-3.224l35.911-4.814a2.048,2.048,0,0,0,1.543-1.03406l16.06-30.02A2.129,2.129,0,0,1,386.274,410.91647Z" transform="translate(-296.47673 -296.40353)"/><path class="cls-1" d="M428.808,538.84787l16.038,29.978a2.03909,2.03909,0,0,0,1.541,1.03308l35.862,4.807a1.85363,1.85363,0,0,1,1.134,3.221l-25.95,23.335a1.80118,1.80118,0,0,0-.589,1.671l6.126,32.949a2.017,2.017,0,0,1-2.969,1.99109l-32.076-15.557a2.20074,2.20074,0,0,0-1.905,0l-32.075,15.557a2.01748,2.01748,0,0,1-2.97-1.99109l6.126-32.949a1.7982,1.7982,0,0,0-.588-1.671l-25.95-23.335a1.8534,1.8534,0,0,1,1.134-3.221l35.862-4.807a2.04083,2.04083,0,0,0,1.541-1.03308l16.038-29.978A2.12618,2.12618,0,0,1,428.808,538.84787Z" transform="translate(-296.47673 -296.40353)"/><path class="cls-1" d="M573.82323,538.84787l16.038,29.978a2.03913,2.03913,0,0,0,1.541,1.03308l35.862,4.807a1.85363,1.85363,0,0,1,1.134,3.221l-25.95,23.335a1.80114,1.80114,0,0,0-.589,1.671l6.126,32.949a2.017,2.017,0,0,1-2.969,1.99109l-32.076-15.557a2.20076,2.20076,0,0,0-1.905,0l-32.075,15.557a2.01748,2.01748,0,0,1-2.97-1.99109l6.126-32.949a1.79824,1.79824,0,0,0-.588-1.671l-25.95-23.335a1.8534,1.8534,0,0,1,1.134-3.221l35.862-4.807a2.04083,2.04083,0,0,0,1.541-1.03308l16.038-29.978A2.12618,2.12618,0,0,1,573.82323,538.84787Z" transform="translate(-296.47673 -296.40353)"/><path class="cls-1" d="M617.58183,416.05868l16.038,29.979a2.04054,2.04054,0,0,0,1.541,1.0321l35.862,4.807a1.85363,1.85363,0,0,1,1.134,3.22094l-25.95,23.335a1.80119,1.80119,0,0,0-.589,1.671l6.126,32.949a2.017,2.017,0,0,1-2.969,1.99109l-32.076-15.557a2.20083,2.20083,0,0,0-1.905,0l-32.075,15.557a2.01748,2.01748,0,0,1-2.97-1.99109l6.126-32.949a1.79821,1.79821,0,0,0-.588-1.671l-25.95-23.335a1.8534,1.8534,0,0,1,1.134-3.22094l35.862-4.807a2.0423,2.0423,0,0,0,1.541-1.0321l16.038-29.979A2.12618,2.12618,0,0,1,617.58183,416.05868Z" transform="translate(-296.47673 -296.40353)"/><path class="cls-1" d="M503.728,321.56564l17.732,33.145a2.26015,2.26015,0,0,0,1.704,1.14209l39.649,5.31494a2.04855,2.04855,0,0,1,1.254,3.56006l-28.69,25.79993a1.98882,1.98882,0,0,0-.651,1.848l6.773,36.43a2.22983,2.22983,0,0,1-3.283,2.2l-35.464-17.19995a2.43624,2.43624,0,0,0-2.106,0l-35.464,17.2a2.22984,2.22984,0,0,1-3.283-2.2l6.773-36.43a1.98884,1.98884,0,0,0-.651-1.848L439.33,364.72775a2.04857,2.04857,0,0,1,1.254-3.56006l39.65-5.31494a2.26015,2.26015,0,0,0,1.704-1.14209l17.732-33.145A2.35126,2.35126,0,0,1,503.728,321.56564Z" transform="translate(-296.47673 -296.40353)"/></svg>