<svg id="Слой_28" data-name="Слой 28" xmlns="http://www.w3.org/2000/svg" viewBox="0 0 407.93311 407.93396"><defs><style>.cls-1,.cls-3{fill:none;stroke-miterlimit:10;stroke-width:10px;}.cls-1{stroke:#adc79d;}.cls-2{fill:#adc79c;}.cls-3{stroke:#adc79c;}</style></defs><path class="cls-1" d="M8960.07286,3173.60744c0,109.8861-89.08008,198.967-198.96875,198.967-109.88427,0-198.96435-89.08094-198.96435-198.967,0-109.886,89.08008-198.96692,198.96435-198.96692C8870.99278,2974.64052,8960.07286,3063.72145,8960.07286,3173.60744Z" transform="translate(-8557.13976 -2969.64052)"/><path class="cls-2" d="M8790.64318,3174.14454a22.61293,22.61293,0,1,1-22.60645-23.11193,22.86361,22.86361,0,0,1,22.60645,23.11193" transform="translate(-8557.13976 -2969.64052)"/><path class="cls-3" d="M8790.64318,3174.14454a22.61293,22.61293,0,1,1-22.60645-23.11193A22.86361,22.86361,0,0,1,8790.64318,3174.14454Z" transform="translate(-8557.13976 -2969.64052)"/><path class="cls-3" d="M8701.95568,3174.14454c0,96.223,29.585,174.22706,66.0791,174.22706,36.49511,0,66.08105-78.004,66.08105-174.22706,0-96.2229-29.58594-174.22692-66.08105-174.22692C8731.54064,2999.91762,8701.95568,3077.92164,8701.95568,3174.14454Z" transform="translate(-8557.13976 -2969.64052)"/><path class="cls-3" d="M8768.03673,3241.7018c-94.12012,0-170.41943-30.246-170.41943-67.55689,0-37.311,76.29931-67.5581,170.41943-67.5581,94.11816,0,170.41895,30.24707,170.41895,67.5581C8938.45568,3211.45582,8862.15489,3241.7018,8768.03673,3241.7018Z" transform="translate(-8557.13976 -2969.64052)"/><path class="cls-3" d="M8713.82628,3221.91481c66.12451,67.604,140.65283,101.02,166.45752,74.63708,25.80566-26.38305-6.87793-102.574-73.00488-170.177-66.126-67.604-140.65283-101.02-166.459-74.63806C8615.0128,3078.11989,8647.69982,3154.31093,8713.82628,3221.91481Z" transform="translate(-8557.13976 -2969.64052)"/><path class="cls-3" d="M8814.76329,3221.91481c-66.1289,67.604-140.65332,101.02-166.45947,74.63708-25.80664-26.38305,6.87939-102.574,73.00635-170.177,66.12695-67.604,140.65039-101.02,166.459-74.63806C8913.57579,3078.11989,8880.88927,3154.31093,8814.76329,3221.91481Z" transform="translate(-8557.13976 -2969.64052)"/></svg>