<?xml version="1.0" encoding="UTF-8"?>
<svg id="_Слой_1" data-name="Слой 1" xmlns="http://www.w3.org/2000/svg" viewBox="0 0 223.62608 223.64529">
  <defs>
    <style>
      .cls-1 {
        fill: #718c09;
      }

      .cls-1, .cls-2 {
        stroke-width: 0px;
      }

      .cls-2 {
        fill: #aac419;
      }
    </style>
  </defs>
  <path class="cls-1" d="M223.32847,103.6333c-.50293-7.11768-1.7124-14.11133-3.57349-20.99164-2.54248-9.39978-6.24927-18.3175-11.125-26.75433-3.48804-6.03564-7.49048-11.70319-12.02979-16.98425-4.06104-4.72473-8.50073-9.07306-13.2959-13.0603-7.22144-6.00452-15.06934-11.0224-23.54907-15.04944-8.97852-4.26385-18.36401-7.27258-28.14746-9.03412-4.59424-.82721-9.21973-1.38312-13.88525-1.59155-.19727-.00879-.41724.03857-.55762-.16766h-10.17236c-.12256.16418-.3042.1532-.47754.15472-1.69458.01471-3.37598.20374-5.06226.34741-5.17944.4411-10.28979,1.29761-15.34302,2.4939-12.44116,2.94507-24.04883,7.86932-34.79834,14.78925-9.27222,5.96887-17.48267,13.15863-24.63647,21.55743-5.38135,6.31805-10.00513,13.14575-13.85742,20.49231-5.10156,9.7287-8.69946,19.98566-10.78247,30.77765C.82163,96.89972.14903,103.23944.02036,109.63678c-.08398,4.1767.09521,8.34283.47461,12.50726.44263,4.85669,1.20483,9.65576,2.28296,14.40631,2.29321,10.10663,5.92554,19.70715,10.88843,28.80914,4.63989,8.5094,10.29761,16.27594,16.94531,23.31952,4.1377,4.38397,8.62427,8.3869,13.41699,12.04553,8.50586,6.4931,17.75854,11.65997,27.74609,15.48376,7.04199,2.69604,14.28589,4.67499,21.74072,5.89319,4.75684.77728,9.53613,1.289,14.34424,1.46838,6.5752.24524,13.13184-.10962,19.64746-1.03729,6.47705-.92218,12.8335-2.39478,19.05127-4.43762,7.0647-2.32117,13.83643-5.30621,20.31177-8.97009,8.073-4.56787,15.46924-10.04541,22.16943-16.4538,7.73169-7.39539,14.27856-15.72498,19.62573-25.00079,4.86719-8.44373,8.5752-17.36316,11.10669-26.77081,1.84497-6.85712,3.05493-13.82227,3.55469-20.91272.06177-.87793-.07935-1.80164.29932-2.65149v-10.87408c-.3916-.90918-.23145-1.89075-.29761-2.82788ZM111.70689,218.09692c-58.9917-.06946-106.25122-47.42859-106.17871-106.41748C5.60069,52.69214,52.96519,5.72443,111.87949,5.45636c58.96606.32495,106.27344,47.44025,106.22168,106.4397-.052,59.01111-47.4248,106.2702-106.39429,106.20087Z"/>
  <path class="cls-1" d="M112.82437,62.60021c11.68941.16271,22.08707,3.87853,31.07762,11.3926,8.52755,7.1271,14.06058,16.13364,16.66584,26.92762,1.06699,4.42069,1.42753,8.92694,1.28168,13.46493-.15404,4.79297-.9658,9.44153-3.11229,13.80334-2.5276,5.1363-6.33479,9.12334-10.88746,12.4866-2.8409,2.09867-5.71855,4.15974-8.2645,6.62423-3.63473,3.51842-5.59473,7.80014-5.99771,12.86517-.20531,2.58047.18164,5.05984.6995,7.54178.99836,4.7847-.34037,7.15836-4.96323,8.81716-2.57713.92475-5.25746,1.30783-7.94744,1.63602-3.07269.3749-6.16986.58873-9.25876.49294-4.77582-.14809-9.56956-.26697-14.23414-1.51028-1.09995-.29318-2.18104-.64539-3.20621-1.15562-3.4048-1.69454-4.49035-3.90848-3.53629-7.58753.67169-2.59018,1.07813-5.1823.97302-7.86768-.18375-4.69472-1.87204-8.74205-5.05156-12.17821-2.61628-2.82745-5.77689-5.00354-8.80805-7.33555-4.12232-3.17149-7.89204-6.67347-10.50843-11.25794-1.87838-3.29133-2.93708-6.85223-3.52424-10.56619-.54099-3.42187-.53754-6.87913-.3203-10.31602.57458-9.08986,3.42857-17.43374,8.6804-24.88736,7.42302-10.53507,17.42098-17.33745,29.99478-20.26142,3.35873-.78106,6.78244-1.1579,10.24776-1.12859ZM113.39677,173.11162c2.94331.09245,6.33782-.12971,9.70117-.71796,1.97904-.34613,3.93676-.79773,5.75167-1.71264.31005-.15629.62286-.22739.44708-.74777-1.19194-3.52838-1.43595-7.14798-1.10394-10.8475.27151-3.02544,1.01272-5.90469,2.32644-8.62698,2.10698-4.36602,5.53231-7.58489,9.28615-10.50743,3.37498-2.62755,6.90935-5.05721,9.87333-8.18878,2.24143-2.36815,3.93496-5.05585,4.99151-8.13024.82483-2.40009,1.28509-4.87458,1.46776-7.41692.23255-3.23678.2908-6.47314-.08323-9.68895-.40021-3.44071-1.22676-6.80001-2.42537-10.06233-1.26479-3.44246-2.97837-6.65322-5.04099-9.66991-2.14889-3.14288-4.7421-5.89642-7.62956-8.38105-2.66698-2.29489-5.58283-4.22053-8.72875-5.76313-4.65869-2.28437-9.56093-3.75786-14.75495-4.28783-3.14376-.32078-6.25505-.3504-9.39251.01301-4.18963.48529-8.21237,1.51745-12.11552,3.13235-5.08093,2.10221-9.53864,5.12408-13.48642,8.90002-2.42484,2.3193-4.49473,4.94847-6.29584,7.79716-4.21451,6.66577-6.5011,13.9532-7.04919,21.78447-.20336,2.90562.03297,5.81412.49185,8.70362,1.05013,6.61238,4.53732,11.7857,9.49404,16.05839,2.75373,2.3737,5.79801,4.38622,8.62009,6.68446,2.95682,2.40796,5.43613,5.19874,7.15727,8.59241,2.84681,5.61322,3.34932,11.53872,2.10266,17.66037-.18724.91943-.93379,1.95333-.46751,2.71471.4583.74836,1.6766.831,2.56189,1.20439.13193.05563.28135.06877.42137.10641,4.395,1.18153,8.8866,1.43681,13.87951,1.39763Z"/>
  <path class="cls-1" d="M113.6815,195.40161c-6.62801.03552-12.61621-1.05604-18.44068-3.14279-1.67465-.59997-2.79173-1.58004-3.18571-3.37707-.51787-2.36206-1.17886-4.69305-1.68341-7.05763-.50976-2.38893,1.26789-4.06771,3.61119-3.41275,3.65797,1.02239,7.36648,1.78687,11.13694,2.19608,4.56445.49538,9.13582.52942,13.71973.10476,4.31439-.3997,8.51284-1.33002,12.70481-2.36182,1.96671-.48406,3.69057,1.32098,3.19542,3.28563-.748,2.96793-1.57604,5.91561-2.33979,8.87969-.31772,1.23308-1.192,1.78979-2.30838,2.15271-5.47596,1.7801-11.07395,2.79222-16.4101,2.7332ZM113.46656,189.94531c.59704.08427,1.3405-.14683,2.09344-.16036,3.36319-.06038,6.62339-.76334,9.90295-1.42167,1.67355-.33594,2.37981-1.23781,2.59606-2.81066.0856-.62255.0515-.73502-.61576-.59778-4.6807.96271-9.40382,1.54037-14.19543,1.49674-2.4795-.02261-4.96629.06316-7.42977-.23202-2.82103-.33806-5.65331-.63623-8.42332-1.3164-.22817-.05603-.47251-.09228-.55669.23654-.16821.65696.62582,2.07225,1.29392,2.30038,4.91661,1.67868,9.99707,2.36353,15.33459,2.50525Z"/>
  <path class="cls-1" d="M68.22425,65.36409c-.08395,1.1653-.69968,2.03921-1.76933,2.57045-1.05832.52563-2.04229.34335-2.96266-.55176-1.38132-1.34345-2.73063-2.71982-4.09325-4.08248-3.22075-3.22085-6.44686-6.43637-9.65922-9.66557-1.26198-1.2686-1.27242-2.71945-.07001-3.93823,1.20658-1.22301,2.67873-1.23882,3.93796.0069,2.40778,2.38199,4.79457,4.78522,7.1897,7.18,2.14735,2.14704,4.29277,4.29604,6.44226,6.44093.55426.55308.94871,1.17859.98456,2.03976Z"/>
  <path class="cls-1" d="M172.23755,169.30944c.00635,1.17499-.71214,2.26797-1.79402,2.71393-1.16637.4808-2.1591.16722-3.02565-.70206-2.32898-2.33629-4.66405-4.66651-6.99671-6.99914-2.18818-2.18811-4.37329-4.3793-6.56614-6.56273-.79662-.7932-1.26829-1.6921-.87179-2.82769.39529-1.13206,1.1923-1.83951,2.39742-2.05147.85374-.15015,1.5681.17361,2.14053.74312,4.65643,4.6328,9.29972,9.27883,13.93427,13.93352.47758.47964.83595,1.05774.7821,1.75252Z"/>
  <path class="cls-1" d="M68.21247,153.63882c-.02289.53597-.41153,1.1558-.93294,1.67903-4.5381,4.55411-9.07712,9.10742-13.64019,13.63645-1.29649,1.28682-2.83451,1.2452-4.01641-.0061-1.17354-1.24244-1.11989-2.64953.17466-3.94622,4.52171-4.52919,9.04887-9.05294,13.57494-13.57777.83-.82979,1.7831-1.21731,2.9368-.74425,1.11602.4576,1.92227,1.62565,1.90314,2.95885Z"/>
  <path class="cls-1" d="M169.36891,46.10463c1.2068.00772,2.23298.7109,2.67595,1.83301.42064,1.06553.186,1.99963-.61656,2.80219-4.62319,4.62323-9.2412,9.25168-13.87348,13.86578-1.15778,1.15322-2.65789,1.12117-3.80288-.02394-1.14593-1.14603-1.20769-2.67514-.078-3.81089,4.61081-4.63553,9.24059-9.25222,13.86466-13.87455.51539-.51518,1.11494-.84243,1.83031-.7916Z"/>
  <path class="cls-1" d="M113.33406,37.1853c.0002,3.15287.00332,6.30575-.00097,9.45862-.00256,1.8747-.98303,2.97029-2.65461,2.98359-1.75803.014-2.79975-1.08352-2.80045-2.96719-.00243-6.42252-.00517-12.84504.00325-19.26755.00174-1.32843.74179-2.3104,1.91105-2.61815,1.27849-.3365,2.60337.15456,3.22996,1.17087.29341.47592.31195.9908.31187,1.51845-.00056,3.24045-.00028,6.48091-.00009,9.72136Z"/>
  <path class="cls-1" d="M41.79253,115.24917c-3.24076-.00012-6.48153.00634-9.72226-.00282-1.64183-.00462-2.7324-1.06579-2.75289-2.6437-.0215-1.6556,1.103-2.80406,2.79215-2.80602,6.48151-.00751,12.96303-.00608,19.44455-.00059,1.32269.00112,2.32038.74069,2.61773,1.89926.34869,1.35859-.13686,2.64064-1.21861,3.27099-.45289.26391-.93903.28431-1.43838.28401-3.24076-.00197-6.48152-.00101-9.72227-.00113Z"/>
  <path class="cls-1" d="M185.72266,115.24942c-3.21498.00016-6.42994.00435-9.64492-.00148-1.83163-.00332-2.81446-.95673-2.8143-2.70729.00016-1.72163,1.03407-2.74352,2.81348-2.74506,6.42994-.00555,12.8599-.0061,19.28984.0007,1.70437.0018,2.79201,1.05723,2.81556,2.69004.02413,1.67374-1.06929,2.75677-2.81475,2.76079-3.21496.0074-6.42994.00212-9.64492.00229Z"/>
  <path class="cls-2" d="M113.39677,173.11162c-4.99291.03918-9.48451-.2161-13.87951-1.39763-.14002-.03764-.28944-.05077-.42137-.10641-.88528-.37339-2.10359-.45603-2.56189-1.20439-.46627-.76138.28028-1.79528.46751-2.71471,1.24666-6.12165.74415-12.04715-2.10266-17.66037-1.72114-3.39368-4.20045-6.18445-7.15727-8.59241-2.82208-2.29823-5.86636-4.31076-8.62009-6.68446-4.95672-4.2727-8.44391-9.44601-9.49404-16.05839-.45888-2.8895-.69521-5.798-.49185-8.70362.54809-7.83127,2.83468-15.1187,7.04919-21.78447,1.80111-2.84869,3.871-5.47786,6.29584-7.79716,3.94778-3.77595,8.40549-6.79781,13.48642-8.90002,3.90316-1.61491,7.9259-2.64707,12.11552-3.13235,3.13746-.36341,6.24875-.33378,9.39251-.01301,5.19402.52997,10.09626,2.00346,14.75495,4.28783,3.14592,1.54259,6.06178,3.46824,8.72875,5.76313,2.88746,2.48463,5.48067,5.23817,7.62956,8.38105,2.06262,3.01669,3.7762,6.22745,5.04099,9.66991,1.19861,3.26232,2.02515,6.62161,2.42537,10.06233.37403,3.2158.31578,6.45217.08323,9.68895-.18267,2.54234-.64293,5.01683-1.46776,7.41692-1.05655,3.07439-2.75008,5.76209-4.99151,8.13024-2.96398,3.13157-6.49835,5.56123-9.87333,8.18878-3.75383,2.92254-7.17916,6.14141-9.28615,10.50743-1.31373,2.72229-2.05493,5.60154-2.32644,8.62698-.33201,3.69952-.08799,7.31912,1.10394,10.8475.17579.52038-.13703.59148-.44708.74777-1.81491.91492-3.77263,1.36651-5.75167,1.71264-3.36335.58824-6.75786.8104-9.70117.71796ZM144.87863,100.90002c-.02655-2.37239-.38329-4.69791-1.18084-6.93073-1.82202-5.10092-5.0515-9.07396-9.72418-11.83539-3.4075-2.01376-7.09969-3.04669-11.06606-3.02731-1.4957.00731-2.59762,1.20809-2.58302,2.73866.01509,1.58217,1.07378,2.62403,2.60909,2.71218,1.18441.068,2.38771.16682,3.53591.44483,5.7022,1.38066,9.65938,4.82659,11.83465,10.27605.78363,1.96314,1.18332,4.0465,1.04959,6.1417-.1095,1.71582.39869,2.77455,2.04197,3.20792,1.30357.34379,2.77666-.48625,3.28224-1.82543.23493-.62226.19627-1.26122.20063-1.90247Z"/>
  <path class="cls-2" d="M113.46656,189.94531c-5.33753-.14171-10.41798-.82657-15.33459-2.50525-.6681-.22812-1.46213-1.64342-1.29392-2.30038.08417-.32881.32851-.29256.55669-.23654,2.77001.68017,5.60229.97834,8.42332,1.3164,2.46348.29518,4.95027.20941,7.42977.23202,4.79161.04363,9.51474-.53402,14.19543-1.49674.66726-.13724.70135-.02477.61576.59778-.21625,1.57285-.92251,2.47472-2.59606,2.81066-3.27956.65833-6.53976,1.3613-9.90295,1.42167-.75294.01353-1.49639.24463-2.09344.16036Z"/>
  <path class="cls-1" d="M144.87863,100.90002c-.00436.64126.0343,1.28021-.20063,1.90247-.50558,1.33918-1.97867,2.16922-3.28224,1.82543-1.64328-.43337-2.15147-1.49209-2.04197-3.20792.13373-2.09519-.26596-4.17856-1.04959-6.1417-2.17527-5.44946-6.13245-8.89538-11.83465-10.27605-1.14821-.27801-2.3515-.37683-3.53591-.44483-1.53532-.08814-2.594-1.13001-2.60909-2.71218-.0146-1.53058,1.08732-2.73135,2.58302-2.73866,3.96637-.01939,7.65856,1.01355,11.06606,3.02731,4.67268,2.76144,7.90216,6.73447,9.72418,11.83539.79755,2.23282,1.15429,4.55834,1.18084,6.93073Z"/>
</svg>