<svg id="Слой_1" data-name="Слой 1" xmlns="http://www.w3.org/2000/svg" viewBox="0 0 407.93311 407.93396"><defs><style>.cls-1{fill:#aac419;}.cls-2{fill:none;stroke:#718c09;stroke-miterlimit:10;stroke-width:10px;}</style></defs><path class="cls-1" d="M395.4449,479.80392q2.34082,42.53412,4.68262,85.06812c8.6831,7.34594,49.4751,40.252,109.26221,36.6809,51.95117-3.1029,85.63281-31.79895,95.21386-40.583q-.39111-42.14392-.78076-84.288-104.18847,1.56153-208.37793,3.122" transform="translate(-296.20418 -296.13058)"/><path class="cls-2" d="M395.4449,479.80392q2.34082,42.53412,4.68262,85.06812c8.6831,7.34594,49.4751,40.252,109.26221,36.6809,51.95117-3.1029,85.63281-31.79895,95.21386-40.583q-.39111-42.14392-.78076-84.288Q499.63436,478.2435,395.4449,479.80392Z" transform="translate(-296.20418 -296.13058)"/><path class="cls-1" d="M641.817,474.85067,502.86678,542.75473a11.84482,11.84482,0,0,1-10.57227-.084l-133.939-68.122a11.84658,11.84658,0,0,1,.01025-21.124l136.60791-69.311a11.84923,11.84923,0,0,1,10.74414.012l136.28076,69.52807a11.84688,11.84688,0,0,1-.18164,21.1969" transform="translate(-296.20418 -296.13058)"/><path class="cls-2" d="M641.817,474.85067,502.86678,542.75473a11.84482,11.84482,0,0,1-10.57227-.084l-133.939-68.122a11.84658,11.84658,0,0,1,.01025-21.124l136.60791-69.311a11.84923,11.84923,0,0,1,10.74414.012l136.28076,69.52807A11.84688,11.84688,0,0,1,641.817,474.85067Z" transform="translate(-296.20418 -296.13058)"/><path class="cls-1" d="M474.338,485.08322c.53662-.683,1.40771-1.76795,2.53955-3.063,1.57324-1.799,2.022-2.14392,3.51123-3.88391,1.2832-1.5,2.08008-2.566,2.83887-3.58606a16.5814,16.5814,0,0,0,1.99218-3.038,11.36063,11.36063,0,0,0,.9458-3.461c.063-.64991-.00488-.60694,0-2.98792.00391-2.024.05323-1.93506,0-2.415a8.91554,8.91554,0,0,0-1.0957-3.436,8.40883,8.40883,0,0,0-1.76806-2.11695,11.3383,11.3383,0,0,0-3.36133-1.967,32.56673,32.56673,0,0,0-3.75977-1.145,30.77714,30.77714,0,0,1-5.80224-2.11694,9.25744,9.25744,0,0,1-2.9878-2.042,6.13726,6.13726,0,0,1-1.394-6.64807,6.90541,6.90541,0,0,1,1.54394-2.66492,7.03069,7.03069,0,0,1,2.564-1.693,7.22483,7.22483,0,0,1,3.41211-.4231,14.651,14.651,0,0,1,2.96289.946c.81592.27295.647.18006,3.436.94605a44.86108,44.86108,0,0,1,4.95508,1.345,9.141,9.141,0,0,0,2.51514.52295,2.03717,2.03717,0,0,0,1.29492-.224,1.69042,1.69042,0,0,0,.74707-1.07092,2.25445,2.25445,0,0,0-.62305-1.56909c-.563-.83-.94384-1.7699-1.44384-2.63892a9.6139,9.6139,0,0,1-1.04541-4.557,14.44741,14.44741,0,0,1,1.04541-6.07605,12.74415,12.74415,0,0,1,6.001-6.797,14.29255,14.29255,0,0,1,4.43262-1.569,13.61261,13.61261,0,0,1,4.30713-.075,13.32712,13.32712,0,0,1,4.2832,1.469,14.95386,14.95386,0,0,1,7.76905,11.18091,8.95746,8.95746,0,0,1-.57325,5.378,30.893,30.893,0,0,1-2.14111,3.735,2.17124,2.17124,0,0,0-.44873,1.021,1.73433,1.73433,0,0,0,.29883,1.31995,1.858,1.858,0,0,0,1.41992.572,4.43087,4.43087,0,0,0,1.74316-.448c.605-.21,1.231-.35693,1.84278-.548,1.48926-.464,1.7373-.442,4.1831-1.095,2.11914-.567,3.66016-1.021,3.66016-1.021a13.446,13.446,0,0,1,2.88818-.722,7.25954,7.25954,0,0,1,3.0376.324,6.41759,6.41759,0,0,1,4.10938,3.9591,6.90051,6.90051,0,0,1,.59765,3.037,6.716,6.716,0,0,1-1.146,3.387,7.71505,7.71505,0,0,1-2.63965,2.465c-1.085.652-1.63037.671-4.1333,1.37-2.41309.673-1.80078.626-5.32813,1.66809-2.98681.882-3.29687.87793-4.25879,1.39392a7.96083,7.96083,0,0,0-4.50683,5.702,10.67473,10.67473,0,0,0-.29834,3.387,10.43337,10.43337,0,0,0,1.09521,3.909,14.87877,14.87877,0,0,0,2.34082,3.063c.54932.651,1.52832,1.97,3.48633,4.60694,1.83594,2.473,1.47705,2.08606,3.73486,5.154.53321.725,1.30176,1.811,2.83887,3.984a10.846,10.846,0,0,1,1.81787,3.01294,7.41436,7.41436,0,0,1,.02442,4.28308,6.77075,6.77075,0,0,1-2.19141,3.43591,6.65751,6.65751,0,0,1-3.73486,1.46912,7.23912,7.23912,0,0,1-4.18311-1.07105,13.961,13.961,0,0,1-2.98779-2.639c-1.62793-1.632-2.4419-2.448-3.51123-3.61-2.375-2.582-3.93457-4.38294-3.93457-4.38294a11.22269,11.22269,0,0,0-2.938-2.81408,7.04249,7.04249,0,0,0-6.92236-.27393c-.87793.427-.978.68592-3.41163,2.88892-1.8833,1.704-1.84423,1.568-3.28613,2.91308-.75635.704-.70312.683-3.01318,2.938a40.80235,40.80235,0,0,1-3.78516,3.46192,8.92644,8.92644,0,0,1-2.58984,1.618,6.91288,6.91288,0,0,1-3.73487.224,6.98652,6.98652,0,0,1-3.436-1.967,7.15891,7.15891,0,0,1-1.89209-4.00891,7.33582,7.33582,0,0,1,2.09131-6.2251" transform="translate(-296.20418 -296.13058)"/><path class="cls-2" d="M474.338,485.08322c.53662-.683,1.40771-1.76795,2.53955-3.063,1.57324-1.799,2.022-2.14392,3.51123-3.88391,1.2832-1.5,2.08008-2.566,2.83887-3.58606a16.5814,16.5814,0,0,0,1.99218-3.038,11.36063,11.36063,0,0,0,.9458-3.461c.063-.64991-.00488-.60694,0-2.98792.00391-2.024.05323-1.93506,0-2.415a8.91554,8.91554,0,0,0-1.0957-3.436,8.40883,8.40883,0,0,0-1.76806-2.11695,11.3383,11.3383,0,0,0-3.36133-1.967,32.56673,32.56673,0,0,0-3.75977-1.145,30.77714,30.77714,0,0,1-5.80224-2.11694,9.25744,9.25744,0,0,1-2.9878-2.042,6.13726,6.13726,0,0,1-1.394-6.64807,6.90541,6.90541,0,0,1,1.54394-2.66492,7.03069,7.03069,0,0,1,2.564-1.693,7.22483,7.22483,0,0,1,3.41211-.4231,14.651,14.651,0,0,1,2.96289.946c.81592.27295.647.18006,3.436.94605a44.86108,44.86108,0,0,1,4.95508,1.345,9.141,9.141,0,0,0,2.51514.52295,2.03717,2.03717,0,0,0,1.29492-.224,1.69042,1.69042,0,0,0,.74707-1.07092,2.25445,2.25445,0,0,0-.62305-1.56909c-.563-.83-.94384-1.7699-1.44384-2.63892a9.6139,9.6139,0,0,1-1.04541-4.557,14.44741,14.44741,0,0,1,1.04541-6.07605,12.74415,12.74415,0,0,1,6.001-6.797,14.29255,14.29255,0,0,1,4.43262-1.569,13.61261,13.61261,0,0,1,4.30713-.075,13.32712,13.32712,0,0,1,4.2832,1.469,14.95386,14.95386,0,0,1,7.76905,11.18091,8.95746,8.95746,0,0,1-.57325,5.378,30.893,30.893,0,0,1-2.14111,3.735,2.17124,2.17124,0,0,0-.44873,1.021,1.73433,1.73433,0,0,0,.29883,1.31995,1.858,1.858,0,0,0,1.41992.572,4.43087,4.43087,0,0,0,1.74316-.448c.605-.21,1.231-.35693,1.84278-.548,1.48926-.464,1.7373-.442,4.1831-1.095,2.11914-.567,3.66016-1.021,3.66016-1.021a13.446,13.446,0,0,1,2.88818-.722,7.25954,7.25954,0,0,1,3.0376.324,6.41759,6.41759,0,0,1,4.10938,3.9591,6.90051,6.90051,0,0,1,.59765,3.037,6.716,6.716,0,0,1-1.146,3.387,7.71505,7.71505,0,0,1-2.63965,2.465c-1.085.652-1.63037.671-4.1333,1.37-2.41309.673-1.80078.626-5.32813,1.66809-2.98681.882-3.29687.87793-4.25879,1.39392a7.96083,7.96083,0,0,0-4.50683,5.702,10.67473,10.67473,0,0,0-.29834,3.387,10.43337,10.43337,0,0,0,1.09521,3.909,14.87877,14.87877,0,0,0,2.34082,3.063c.54932.651,1.52832,1.97,3.48633,4.60694,1.83594,2.473,1.47705,2.08606,3.73486,5.154.53321.725,1.30176,1.811,2.83887,3.984a10.846,10.846,0,0,1,1.81787,3.01294,7.41436,7.41436,0,0,1,.02442,4.28308,6.77075,6.77075,0,0,1-2.19141,3.43591,6.65751,6.65751,0,0,1-3.73486,1.46912,7.23912,7.23912,0,0,1-4.18311-1.07105,13.961,13.961,0,0,1-2.98779-2.639c-1.62793-1.632-2.4419-2.448-3.51123-3.61-2.375-2.582-3.93457-4.38294-3.93457-4.38294a11.22269,11.22269,0,0,0-2.938-2.81408,7.04249,7.04249,0,0,0-6.92236-.27393c-.87793.427-.978.68592-3.41163,2.88892-1.8833,1.704-1.84423,1.568-3.28613,2.91308-.75635.704-.70312.683-3.01318,2.938a40.80235,40.80235,0,0,1-3.78516,3.46192,8.92644,8.92644,0,0,1-2.58984,1.618,6.91288,6.91288,0,0,1-3.73487.224,6.98652,6.98652,0,0,1-3.436-1.967,7.15891,7.15891,0,0,1-1.89209-4.00891,7.33582,7.33582,0,0,1,2.09131-6.2251Z" transform="translate(-296.20418 -296.13058)"/><circle class="cls-2" cx="500.17085" cy="500.09753" r="198.96686" transform="translate(-503.32988 204.0188) rotate(-45)"/></svg>