<svg id="Слой_27" data-name="Слой 27" xmlns="http://www.w3.org/2000/svg" viewBox="0 0 407.93311 407.93396"><defs><style>.cls-1,.cls-3,.cls-6,.cls-8{fill:none;stroke-miterlimit:10;}.cls-1{stroke:#adc79d;}.cls-1,.cls-3{stroke-width:10px;}.cls-2{fill:#787974;}.cls-3{stroke:#aec89d;}.cls-4{fill:#f18faa;}.cls-5{fill:#040604;}.cls-6{stroke:#040604;}.cls-7{fill:#babb8f;}.cls-8{stroke:#babb8f;}</style></defs><circle class="cls-1" cx="7412.15266" cy="3171.15342" r="198.96661" transform="translate(-7279.56131 3202.80627) rotate(-45)"/><path class="cls-2" d="M7540.3481,3274.38764h-256.979a20.12018,20.12018,0,0,1-20.28808-19.82495v-168.516a20.12039,20.12039,0,0,1,20.28808-19.826h256.979a20.12028,20.12028,0,0,1,20.28759,19.826v168.516a20.12006,20.12006,0,0,1-20.28759,19.82495" transform="translate(-7208.18648 -2967.18647)"/><path class="cls-3" d="M7540.3481,3274.38764h-256.979a20.12018,20.12018,0,0,1-20.28808-19.82495v-168.516a20.12039,20.12039,0,0,1,20.28808-19.826h256.979a20.12028,20.12028,0,0,1,20.28759,19.826v168.516A20.12006,20.12006,0,0,1,7540.3481,3274.38764Z" transform="translate(-7208.18648 -2967.18647)"/><line class="cls-4" x1="55.48486" y1="154.62646" x2="353.03857" y2="154.62646"/><line class="cls-3" x1="55.48486" y1="154.62646" x2="353.03857" y2="154.62646"/><rect class="cls-5" x="194.18408" y="172.97546" width="24.13379" height="23.58398"/><rect class="cls-6" x="194.18408" y="172.97546" width="24.13379" height="23.58398"/><rect class="cls-5" x="194.18408" y="172.97546" width="24.13379" height="23.58398"/><rect class="cls-6" x="194.18408" y="172.97546" width="24.13379" height="23.58398"/><rect class="cls-7" x="246.87012" y="172.84644" width="24.13477" height="23.58398"/><rect class="cls-8" x="246.87012" y="172.84644" width="24.13477" height="23.58398"/><rect class="cls-7" x="246.87012" y="172.84644" width="24.13477" height="23.58398"/><rect class="cls-8" x="246.87012" y="172.84644" width="24.13477" height="23.58398"/><rect class="cls-7" x="299.55811" y="172.97546" width="24.13379" height="23.58398"/><rect class="cls-8" x="299.55811" y="172.97546" width="24.13379" height="23.58398"/><rect class="cls-7" x="299.55811" y="172.97546" width="24.13379" height="23.58398"/><rect class="cls-8" x="299.55811" y="172.97546" width="24.13379" height="23.58398"/><rect class="cls-7" x="84.83105" y="217.81641" width="24.13379" height="23.58496"/><rect class="cls-8" x="84.83105" y="217.81641" width="24.13379" height="23.58496"/><rect class="cls-7" x="84.83105" y="217.81641" width="24.13379" height="23.58496"/><rect class="cls-8" x="84.83105" y="217.81641" width="24.13379" height="23.58496"/><rect class="cls-7" x="139.8999" y="215.33142" width="24.13477" height="23.58398"/><rect class="cls-8" x="139.8999" y="215.33142" width="24.13477" height="23.58398"/><rect class="cls-7" x="139.8999" y="215.33142" width="24.13477" height="23.58398"/><rect class="cls-8" x="139.8999" y="215.33142" width="24.13477" height="23.58398"/><rect class="cls-7" x="194.9707" y="215.33142" width="24.13379" height="23.58398"/><rect class="cls-8" x="194.9707" y="215.33142" width="24.13379" height="23.58398"/><rect class="cls-7" x="194.9707" y="215.33142" width="24.13379" height="23.58398"/><rect class="cls-8" x="194.9707" y="215.33142" width="24.13379" height="23.58398"/><rect class="cls-7" x="246.87012" y="215.33142" width="24.13477" height="23.58398"/><rect class="cls-8" x="246.87012" y="215.33142" width="24.13477" height="23.58398"/><rect class="cls-7" x="246.87012" y="215.33142" width="24.13477" height="23.58398"/><rect class="cls-8" x="246.87012" y="215.33142" width="24.13477" height="23.58398"/><rect class="cls-7" x="299.55811" y="215.33142" width="24.13379" height="23.58398"/><rect class="cls-8" x="299.55811" y="215.33142" width="24.13379" height="23.58398"/><rect class="cls-7" x="299.55811" y="215.33142" width="24.13379" height="23.58398"/><rect class="cls-8" x="299.55811" y="215.33142" width="24.13379" height="23.58398"/><rect class="cls-7" x="84.83105" y="262.78845" width="24.13379" height="23.58398"/><rect class="cls-8" x="84.83105" y="262.78845" width="24.13379" height="23.58398"/><rect class="cls-7" x="84.83105" y="262.78845" width="24.13379" height="23.58398"/><rect class="cls-8" x="84.83105" y="262.78845" width="24.13379" height="23.58398"/><rect class="cls-7" x="139.8999" y="262.78845" width="24.13477" height="23.58398"/><rect class="cls-8" x="139.8999" y="262.78845" width="24.13477" height="23.58398"/><rect class="cls-7" x="139.8999" y="262.78845" width="24.13477" height="23.58398"/><rect class="cls-8" x="139.8999" y="262.78845" width="24.13477" height="23.58398"/><rect class="cls-7" x="194.9707" y="262.78845" width="24.13379" height="23.58398"/><rect class="cls-8" x="194.9707" y="262.78845" width="24.13379" height="23.58398"/><rect class="cls-7" x="194.9707" y="262.78845" width="24.13379" height="23.58398"/><rect class="cls-8" x="194.9707" y="262.78845" width="24.13379" height="23.58398"/><rect class="cls-7" x="247.26416" y="262.78845" width="24.13477" height="23.58398"/><rect class="cls-8" x="247.26416" y="262.78845" width="24.13477" height="23.58398"/><rect class="cls-7" x="247.26416" y="262.78845" width="24.13477" height="23.58398"/><rect class="cls-8" x="247.26416" y="262.78845" width="24.13477" height="23.58398"/><rect class="cls-7" x="299.55811" y="262.78845" width="24.13379" height="23.58398"/><rect class="cls-8" x="299.55811" y="262.78845" width="24.13379" height="23.58398"/><rect class="cls-7" x="299.55811" y="262.78845" width="24.13379" height="23.58398"/><rect class="cls-8" x="299.55811" y="262.78845" width="24.13379" height="23.58398"/><path class="cls-7" d="M7519.91255,3101.19282h-.20215a8.7427,8.7427,0,0,1-8.71728-8.71692v-42.043a8.74188,8.74188,0,0,1,8.71728-8.71607h.20215a8.74126,8.74126,0,0,1,8.71582,8.71607v42.043a8.74207,8.74207,0,0,1-8.71582,8.71692" transform="translate(-7208.18648 -2967.18647)"/><path class="cls-8" d="M7519.91255,3101.19282h-.20215a8.7427,8.7427,0,0,1-8.71728-8.71692v-42.043a8.74188,8.74188,0,0,1,8.71728-8.71607h.20215a8.74126,8.74126,0,0,1,8.71582,8.71607v42.043a8.74207,8.74207,0,0,1-8.71582,8.71692" transform="translate(-7208.18648 -2967.18647)"/><path class="cls-7" d="M7519.91255,3101.19282h-.20215a8.7427,8.7427,0,0,1-8.71728-8.71692v-42.043a8.74188,8.74188,0,0,1,8.71728-8.71607h.20215a8.74126,8.74126,0,0,1,8.71582,8.71607v42.043a8.74207,8.74207,0,0,1-8.71582,8.71692" transform="translate(-7208.18648 -2967.18647)"/><path class="cls-8" d="M311.52356,74.5304h.201a8.71729,8.71729,0,0,1,8.71729,8.71729v42.04138a8.71729,8.71729,0,0,1-8.71729,8.71729h-.20215a8.71582,8.71582,0,0,1-8.71582-8.71582V83.24731a8.71692,8.71692,0,0,1,8.71692-8.71692Z"/><path class="cls-7" d="M7305.185,3099.25043h-.20215a8.74269,8.74269,0,0,1-8.71728-8.71691v-42.043a8.74188,8.74188,0,0,1,8.71728-8.71607h.20215a8.74126,8.74126,0,0,1,8.71582,8.71607v42.043a8.74206,8.74206,0,0,1-8.71582,8.71691" transform="translate(-7208.18648 -2967.18647)"/><path class="cls-8" d="M7305.185,3099.25043h-.20215a8.74269,8.74269,0,0,1-8.71728-8.71691v-42.043a8.74188,8.74188,0,0,1,8.71728-8.71607h.20215a8.74126,8.74126,0,0,1,8.71582,8.71607v42.043a8.74206,8.74206,0,0,1-8.71582,8.71691" transform="translate(-7208.18648 -2967.18647)"/><path class="cls-7" d="M7305.185,3099.25043h-.20215a8.74269,8.74269,0,0,1-8.71728-8.71691v-42.043a8.74188,8.74188,0,0,1,8.71728-8.71607h.20215a8.74126,8.74126,0,0,1,8.71582,8.71607v42.043a8.74206,8.74206,0,0,1-8.71582,8.71691" transform="translate(-7208.18648 -2967.18647)"/><path class="cls-8" d="M96.796,72.588h.201a8.71729,8.71729,0,0,1,8.71729,8.71729v42.04138a8.71729,8.71729,0,0,1-8.71729,8.71729h-.20215a8.71582,8.71582,0,0,1-8.71582-8.71582V81.30493A8.71692,8.71692,0,0,1,96.796,72.588Z"/></svg>