<svg id="Слой_33" data-name="Слой 33" xmlns="http://www.w3.org/2000/svg" viewBox="0 0 407.93555 407.93396"><defs><style>.cls-1,.cls-3{fill:none;stroke-miterlimit:10;stroke-width:10px;}.cls-1{stroke:#adc79d;}.cls-2{fill:#787974;}.cls-3{stroke:#aec89d;}</style></defs><circle class="cls-1" cx="11009.36129" cy="3177.28854" r="198.96716" transform="translate(-9827.50901 5742.07871) rotate(-45)"/><path class="cls-2" d="M10970.7524,3038.471h-61.10351v251.28491h226.07031v-59.273c-25.88281-30.771-135.85937-158.779-164.9668-192.012m-8.9375,197.0409v-117.991l104.82227,117.991Z" transform="translate(-10805.39401 -2973.32159)"/><path class="cls-3" d="M10970.7524,3038.471h-61.10351v251.28491h226.07031v-59.273C11109.83639,3199.712,10999.85983,3071.70391,10970.7524,3038.471Zm-8.9375,197.0409v-117.991l104.82227,117.991Z" transform="translate(-10805.39401 -2973.32159)"/><line class="cls-2" x1="174.1709" y1="86.77588" x2="154.89941" y2="102.0929"/><line class="cls-3" x1="174.1709" y1="86.77588" x2="154.89941" y2="102.0929"/><line class="cls-2" x1="194.16992" y1="103.22546" x2="181.58496" y2="113.22852"/><line class="cls-3" x1="194.16992" y1="103.22546" x2="181.58496" y2="113.22852"/><line class="cls-2" x1="207.54297" y1="122.22815" x2="188.27148" y2="137.54517"/><line class="cls-3" x1="207.54297" y1="122.22815" x2="188.27148" y2="137.54517"/><line class="cls-2" x1="223.58301" y1="138.33862" x2="210.99707" y2="148.34167"/><line class="cls-3" x1="223.58301" y1="138.33862" x2="210.99707" y2="148.34167"/><line class="cls-2" x1="238.02539" y1="160.01538" x2="218.75391" y2="175.3324"/><line class="cls-3" x1="238.02539" y1="160.01538" x2="218.75391" y2="175.3324"/><line class="cls-2" x1="256.13184" y1="178.68787" x2="243.54688" y2="188.69092"/><line class="cls-3" x1="256.13184" y1="178.68787" x2="243.54688" y2="188.69092"/><line class="cls-2" x1="274.37695" y1="197.9613" x2="255.10547" y2="213.27832"/><line class="cls-3" x1="274.37695" y1="197.9613" x2="255.10547" y2="213.27832"/><line class="cls-2" x1="290.85645" y1="213.17261" x2="278.27148" y2="223.17566"/><line class="cls-3" x1="290.85645" y1="213.17261" x2="278.27148" y2="223.17566"/><line class="cls-2" x1="304.65625" y1="232.03845" x2="285.38574" y2="247.35547"/><line class="cls-3" x1="304.65625" y1="232.03845" x2="285.38574" y2="247.35547"/></svg>