<?xml version="1.0" encoding="UTF-8"?>
<svg id="_Слой_1" data-name="Слой 1" xmlns="http://www.w3.org/2000/svg" viewBox="0 0 227.24188 227.24102">
  <defs>
    <style>
      .cls-1 {
        stroke-width: 7.023px;
      }

      .cls-1, .cls-2, .cls-3, .cls-4, .cls-5, .cls-6, .cls-7, .cls-8, .cls-9 {
        fill: none;
        stroke: #718c09;
      }

      .cls-1, .cls-2, .cls-3, .cls-4, .cls-6, .cls-7, .cls-8, .cls-9 {
        stroke-miterlimit: 5.57;
      }

      .cls-2 {
        stroke-width: 6.146px;
      }

      .cls-3 {
        stroke-width: 5.967px;
      }

      .cls-4 {
        stroke-width: 4.541px;
      }

      .cls-10 {
        fill: #718c09;
        font-family: ArialMT, Arial;
        font-size: 35.4431px;
      }

      .cls-5 {
        stroke-miterlimit: 10;
        stroke-width: 1.239px;
      }

      .cls-6 {
        stroke-width: 6.728px;
      }

      .cls-7 {
        stroke-width: 6.105px;
      }

      .cls-8 {
        stroke-width: 5.57px;
      }

      .cls-11 {
        fill: #aac419;
        stroke-width: 0px;
      }

      .cls-9 {
        stroke-width: 4.543px;
      }
    </style>
  </defs>
  <circle class="cls-8" cx="113.62094" cy="113.62078" r="110.83559"/>
  <path class="cls-11" d="M165.87582,102.76681c0,32.37708-26.24707,58.62402-58.62402,58.62402s-58.62402-26.24695-58.62402-58.62402,26.24609-58.6239,58.62402-58.6239,58.62402,26.24695,58.62402,58.6239"/>
  <circle class="cls-8" cx="107.2518" cy="102.76684" r="58.62403" transform="translate(-31.1631 48.86613) rotate(-22.49999)"/>
  <path class="cls-11" d="M178.61508,158.43039c0,14.10901-11.43848,25.54712-25.54883,25.54712-14.1084,0-25.54688-11.43811-25.54688-25.54712s11.43848-25.547,25.54688-25.547c14.11035,0,25.54883,11.43811,25.54883,25.547"/>
  <path class="cls-3" d="M178.61508,158.43039c0,14.10901-11.43848,25.54712-25.54883,25.54712-14.1084,0-25.54688-11.43811-25.54688-25.54712s11.43848-25.547,25.54688-25.547c14.11035,0,25.54883,11.43811,25.54883,25.547Z"/>
  <line class="cls-6" x1="80.63656" y1="81.13778" x2="134.46859" y2="81.13778"/>
  <line class="cls-1" x1="107.63266" y1="75.63095" x2="107.63266" y2="131.58798"/>
  <line class="cls-2" x1="85.09262" y1="91.92318" x2="130.01352" y2="91.92318"/>
  <line class="cls-7" x1="85.69418" y1="110.31503" x2="130.01254" y2="110.31503"/>
  <line class="cls-7" x1="85.69418" y1="101.11911" x2="130.01254" y2="101.11911"/>
  <line class="cls-4" x1="127.80453" y1="88.83493" x2="127.80453" y2="113.35605"/>
  <line class="cls-9" x1="87.3807" y1="88.8348" x2="87.3807" y2="113.37985"/>
  <path class="cls-8" d="M107.85434,113.38009s5.56543,5.57202,11.39355,8.99512c8.55566,5.0249,15.2207,3.62891,15.2207,3.62891"/>
  <path class="cls-8" d="M107.2518,113.38009s-5.56641,5.57202-11.39551,8.99512c-8.55566,5.0249-15.21973,3.62891-15.21973,3.62891"/>
  <text class="cls-10" transform="translate(140.26901 169.40302) scale(1.15601 1)"><tspan x="0" y="0">А</tspan></text>
  <path class="cls-5" d="M151.89242,151.54306c.67969-1.60291,1.20703-3.21899,1.58105-4.84595.45312,1.37305,1.14551,3.12695,2.08105,5.26099l3.05957,7.02698h-9.94238l3.2207-7.44202ZM144.3309,169.40304l3.2207-7.68396h12.2627l3.4209,7.68396h4.42188l-12.00391-25.37097h-4.18066l-11.2627,25.37097h4.12109Z"/>
</svg>