<svg id="Слой_1" data-name="Слой 1" xmlns="http://www.w3.org/2000/svg" viewBox="0 0 407.93311 407.93396"><defs><style>.cls-1,.cls-3{fill:none;stroke-miterlimit:10;}.cls-1{stroke:#718c09;stroke-width:10px;}.cls-2{fill:#aac419;}.cls-3{stroke:#b8e87b;}</style></defs><circle class="cls-1" cx="500.17049" cy="500.09753" r="198.96667" transform="translate(-503.32999 204.01854) rotate(-45)"/><path class="cls-2" d="M445.141,515.06063c4.26684-.917,17.21679-3.64294,30.54687-3.62,26.02808.046,25.22412,10.52,49.2771,10.468,12.084-.026,18.40894-2.683,38.45581-1.88794,5.80908.231,10.593.66491,13.8042,1.007q19.95594,54.56853,39.90991,109.137-118.33959.3825-236.68091.76611,22.08582-55.02154,44.1709-110.04309a164.1424,164.1424,0,0,1,20.51612-5.827" transform="translate(-296.20418 -296.13058)"/><path class="cls-3" d="M445.141,515.06063c4.26684-.917,17.21679-3.64294,30.54687-3.62,26.02808.046,25.22412,10.52,49.2771,10.468,12.084-.026,18.40894-2.683,38.45581-1.88794,5.80908.231,10.593.66491,13.8042,1.007q19.95594,54.56853,39.90991,109.137-118.33959.3825-236.68091.76611,22.08582-55.02154,44.1709-110.04309a164.1424,164.1424,0,0,1,20.51612-5.827" transform="translate(-296.20418 -296.13058)"/><path class="cls-1" d="M605.47029,634.77865H394.87019a12.764,12.764,0,0,1-11.78-17.66992l74.95-179.92V344.73874a12.76485,12.76485,0,0,1,12.77-12.76h58.72a12.76485,12.76485,0,0,1,12.77,12.76v92.45l74.95,179.92A12.76007,12.76007,0,0,1,605.47029,634.77865Z" transform="translate(-296.20418 -296.13058)"/><path class="cls-1" d="M422.00911,523.683c20.02783-8.954,39.43579-13.537,50.84277-14.007,21.96607-.90393,32.677,10.288,67.915,12.256,12.603.704,28.657-3.45593,35.335-3.601" transform="translate(-296.20418 -296.13058)"/><path class="cls-1" d="M516.0013,416.92965a11.36158,11.36158,0,1,1-11.36206-11.36194A11.36222,11.36222,0,0,1,516.0013,416.92965Z" transform="translate(-296.20418 -296.13058)"/><path class="cls-1" d="M484.08626,456.56991a3.57459,3.57459,0,1,1-3.57422-3.574A3.57395,3.57395,0,0,1,484.08626,456.56991Z" transform="translate(-296.20418 -296.13058)"/><path class="cls-1" d="M531.02791,475.88327a10.44959,10.44959,0,1,1-10.44922-10.449A10.449,10.449,0,0,1,531.02791,475.88327Z" transform="translate(-296.20418 -296.13058)"/></svg>