<?xml version="1.0" encoding="UTF-8"?>
<svg id="_Слой_1" data-name="Слой 1" xmlns="http://www.w3.org/2000/svg" viewBox="0 0 221.23926 223.64045">
  <defs>
    <style>
      .cls-1 {
        fill: #718c09;
      }

      .cls-1, .cls-2 {
        stroke-width: 0px;
      }

      .cls-2 {
        fill: #aac419;
      }
    </style>
  </defs>
  <path class="cls-1" d="M0,106.3052c.38051-.88009.23779-1.83203.30211-2.7401.46888-6.61989,1.54749-13.13563,3.19123-19.55943,3.05152-11.9255,7.97176-23.02835,14.69873-33.33646,4.8278-7.39791,10.46218-14.12266,16.88386-20.1792,7.47727-7.05211,15.76659-12.97635,24.87791-17.7509,8.3941-4.39871,17.20434-7.67261,26.4257-9.82784,4.34275-1.01499,8.73945-1.73451,13.17848-2.22136,5.35108-.58688,10.7149-.81443,16.08674-.62426,9.71849.34404,19.24894,1.90554,28.56081,4.72975,10.57851,3.20838,20.46074,7.90558,29.64573,14.04797,5.27635,3.5285,10.20744,7.49771,14.81493,11.87313,5.99777,5.69567,11.3072,11.9701,15.91435,18.83151,4.95242,7.37564,8.96255,15.23871,12.04679,23.57683,1.86555,5.04349,3.27423,10.21436,4.5006,15.4413.21789.92871.19138.98442-.78012.87168-2.61548-.30352-5.24237-.45644-7.86723-.30329-6.1447.3585-12.00087,1.75004-17.20085,5.22038-2.49428,1.66464-4.45101,3.77408-5.06195,6.8501-.37276,1.87664-.33101,3.76756-.18635,5.66379.38968,5.10692.63426,10.19809-1.46369,15.06849-1.50905,3.50325-3.64567,6.49286-6.80093,8.71922-4.58706,3.23661-7.08559,7.78582-8.12875,13.21026-.52128,2.71078-.64849,5.48627-1.37281,8.16653-1.76231,6.52109-5.922,10.68957-12.33679,12.67716-3.45665,1.07104-7.04726,1.51484-10.5705,2.27379-4.0084.86345-7.72923,2.28467-10.51942,5.46294-2.33114,2.65535-3.81401,5.77891-4.84132,9.13312-1.59623,5.21176-2.16055,10.55948-1.89708,15.98072.3026,6.22659,1.51979,12.26588,4.22524,17.93306.7036,1.47387,1.53697,2.88604,2.31866,4.32223.19401.35647.31788.56083-.27416.6868-5.36038,1.14059-10.73163,2.19525-16.20657,2.63792-1.5697.12692-3.13533.29702-4.71103.33616-.17225.00428-.35573-.01467-.46892.16327h-10.69863c-.85135-.36508-1.77242-.2418-2.65098-.30079-4.04804-.27182-8.0663-.77741-12.04963-1.51125-7.41773-1.36648-14.63592-3.44693-21.63297-6.27998-7.27901-2.94721-14.1841-6.60334-20.68258-11.00615-9.24922-6.2665-17.40259-13.73766-24.42685-22.43504-8.0749-9.99829-14.26994-21.04786-18.53195-33.1712-3.30483-9.40064-5.34207-19.06765-6.00939-29.02072-.05292-.78928.05704-1.62464-.30039-2.38522v-11.2249ZM104.40637,202.07291c2.04418.12951,3.71451-.79441,5.31883-2.08673,1.94308-1.56514,3.48153-3.51703,5.28134-5.21898,3.26373-3.08624,6.87719-5.58489,11.02863-7.26381.88884-.35947,1.16415-.89298,1.29045-1.70007.72231-4.61617,2.11709-9.00727,4.4992-13.04593,1.87363-3.17656,4.25287-5.87766,7.44387-7.82786,3.26321-1.99434,6.85867-2.99525,10.55772-3.72279,3.27491-.64412,6.6024-1.05353,9.75042-2.25216,3.16904-1.20661,5.39066-3.37232,6.71217-6.49347.99058-2.33956,1.2073-4.84306,1.53082-7.30983.4936-3.7637,1.42778-7.36994,3.3204-10.68065,1.68926-2.95502,3.71897-5.64022,6.49534-7.67596,1.27177-.93249,2.52732-1.86805,3.53483-3.10305,3.44677-4.22506,3.81138-9.20681,3.47499-14.3321-.19241-2.9314-.49824-5.85151.03757-8.77601.55569-3.03306,1.87205-5.65193,4.02507-7.89228,2.20249-2.29181,4.80348-3.95944,7.64965-5.29703.34148-.16048.68789-.295.85313-.69685,1.37218-3.33726.85227-7.06663-1.58962-9.88596-1.20804-1.39476-2.73854-2.36704-4.36893-3.15406-3.09908-1.49601-6.27406-2.83737-9.3516-4.37491-5.69494-2.84518-11.09987-6.14694-16.0289-10.22199-3.52219-2.91194-6.74768-6.10289-9.66247-9.60263-3.60976-4.33418-6.51373-9.155-9.40544-13.98051-1.85789-3.10033-3.67695-6.24765-6.45197-8.65623-2.63843-2.29001-5.75663-3.0737-9.19294-2.67376-2.76571.32189-5.07536,1.67062-7.18883,3.36267-2.99764,2.39991-5.9134,4.90205-8.90958,7.30384-2.85666,2.28995-5.96906,4.17559-9.35853,5.5846-3.54101,1.472-7.20747,2.37381-11.03054,2.82065-3.38845.39604-6.74764.34615-10.09156-.10698-5.16216-.69954-10.04143-2.46866-14.92689-4.20578-2.78734-.99109-5.61752-1.95029-8.66254-1.52474-2.49344.34847-4.59562,1.45686-6.15748,3.45395-1.51314,1.93479-2.07569,4.29714-2.70647,6.59275-2.07114,7.53756-5.21899,14.57722-9.39446,21.18426-3.52535,5.57835-7.81288,10.51191-12.41836,15.19993-1.37325,1.39787-2.67081,2.90627-3.26319,4.80937-1.23499,3.96758-.46653,7.70629,1.52113,11.26345,1.28187,2.29403,2.86245,4.39502,4.24987,6.62168,2.57194,4.12766,3.99853,8.4805,3.15418,13.42579-.57149,3.34721-1.97707,6.2599-4.1527,8.81679-1.4339,1.68518-3.00193,3.25832-4.40041,4.97103-2.09501,2.56574-2.23942,5.5694-.36048,8.05007.82192,1.08513,1.83865,2.04824,2.87638,2.93929,2.43853,2.09385,4.74151,4.31002,6.77458,6.80496,3.99901,4.90748,6.8612,10.38361,8.39833,16.54326.77424,3.10256,1.06458,6.29779,1.87644,9.393.87924,3.35211,3.8268,5.6564,7.29119,5.68207,1.8821.01394,3.69851-.40195,5.50809-.80674,4.27425-.95618,8.55582-1.55737,12.94986-.97074,3.11696.41614,6.08891,1.27358,8.91984,2.62116,4.66119,2.21885,8.25447,5.71273,11.46755,9.65787,1.56242,1.91838,3.04768,3.91037,4.84533,5.619,1.77163,1.6839,3.77405,2.93584,6.43668,2.81916ZM126.62561,196.42861c0-.78919-.03096-1.57998.00922-2.36711.03596-.7046-.16273-.80708-.77535-.4726-2.33767,1.27645-4.5428,2.74294-6.46453,4.59133-1.85351,1.78275-3.59571,3.68311-5.47838,5.43327-2.99847,2.78747-6.45127,4.32159-10.69233,3.93071-3.45665-.31864-6.2749-1.80746-8.7698-4.07407-2.49181-2.26379-4.45271-5.00259-6.62452-7.54877-3.43125-4.02273-7.42635-7.13528-12.62423-8.51634-2.7048-.71864-5.45969-.95368-8.2283-.7387-3.0729.23857-6.04722,1.11997-9.08191,1.62353-3.49613.58012-6.88474.49056-10.06404-1.39902-3.08591-1.83409-5.12963-4.42078-6.09701-7.86879-.90441-3.22354-1.14852-6.58208-1.9806-9.8174-1.68036-6.53362-5.04064-12.12759-9.70333-16.95465-2.08241-2.15584-4.46259-3.99577-6.54021-6.17067-3.84961-4.02982-4.15379-10.21969-1.19213-14.67709,1.49604-2.25159,3.50111-4.05111,5.24676-6.08,3.71364-4.3162,4.20205-10.10811,1.1714-14.92415-1.24195-1.97359-2.51567-3.92738-3.79069-5.87989-2.59602-3.97548-4.18479-8.23648-3.91534-13.08118.11636-2.09209.54937-4.07547,1.40276-5.98783,1.21649-2.72601,3.2799-4.81027,5.28898-6.9052,2.56519-2.67479,5.07769-5.38588,7.26916-8.37598,4.2454-5.79254,7.73431-11.99209,10.13-18.79055,1.13351-3.21666,1.94372-6.53129,3.10647-9.73866,1.62163-4.47317,4.7257-7.40691,9.13801-9.01618,3.20169-1.16772,6.44137-1.01165,9.70469-.22408,3.12289.75367,6.11588,1.90493,9.13571,2.95975,5.02713,1.75596,10.14323,2.76962,15.49237,2.56443,3.04563-.11683,6.01039-.61785,8.91755-1.49035,5.68943-1.70752,10.35329-5.11613,14.76643-8.93982,2.46306-2.13406,4.90021-4.29973,7.67205-6.04702,4.33915-2.73527,9.00061-3.5492,13.98646-2.36207,4.47547,1.06561,7.78311,3.8089,10.46422,7.42452,2.64447,3.56622,4.73958,7.47898,7.09797,11.22558,2.64426,4.20074,5.56813,8.18875,8.99626,11.78786,3.77714,3.96552,8.04689,7.32919,12.63823,10.30331,2.57595,1.66863,5.27585,3.11517,8.01067,4.48657,3.59583,1.80316,7.36543,3.24505,10.88907,5.20764,4.01809,2.238,6.74299,5.47741,7.87918,9.97834.39509,1.56505.50184,3.15876.42978,4.76791-.01696.37883-.02633.69221.56284.55252,3.09259-.73323,6.22107-1.2025,9.41187-1.14472.55494.01005.79237-.15246.61159-.79601-1.65192-5.88042-3.81639-11.56623-6.45822-17.06927-2.50381-5.21552-5.42695-10.18703-8.74704-14.928-2.84362-4.06061-5.93125-7.92837-9.32413-11.53414-2.47782-2.63328-5.06703-5.16176-7.80469-7.54217-2.99297-2.6024-6.0866-5.06622-9.34324-7.31927-5.14173-3.55722-10.53151-6.68577-16.2253-9.29264-5.36565-2.45663-10.88508-4.47917-16.57461-6.02433-7.08587-1.92438-14.30958-3.10783-21.63625-3.48622-3.10149-.16018-6.21238-.36005-9.34582-.10873-2.7496.22054-5.51378.30429-8.26647.56853-2.37228.22773-4.72898.56899-7.07141.97085-3.06194.5253-6.09416,1.21783-9.0976,2.02846-6.00761,1.62144-11.83789,3.72729-17.46122,6.3908-5.43987,2.5766-10.64349,5.56169-15.58963,9.00377-4.62405,3.21793-8.95892,6.7851-13.02242,10.67367-3.68838,3.52959-7.06464,7.34786-10.2088,11.3782-3.75731,4.81631-7.06898,9.91558-9.93227,15.30293-1.57474,2.96291-3.01941,5.99196-4.3106,9.09543-1.93999,4.6629-3.56875,9.43153-4.80138,14.32224-1.26378,5.01431-2.17727,10.09637-2.71654,15.25214-.34243,3.27386-.45797,6.55396-.63473,9.83273-.08923,1.6553.05746,3.31942.1126,4.97907.10348,3.11471.36993,6.20662.71268,9.30137.49343,4.45525,1.3308,8.84473,2.40487,13.18721,1.59224,6.43742,3.82288,12.66005,6.61306,18.67378,2.32403,5.00904,5.01689,9.82118,8.09001,14.41019,3.44178,5.13954,7.32885,9.93155,11.57737,14.42378,2.92816,3.09613,6.0851,5.95805,9.37593,8.66088,4.64503,3.81508,9.58707,7.20737,14.81505,10.18445,5.6682,3.22776,11.56612,5.94156,17.73145,8.07198,6.33735,2.18986,12.81264,3.80028,19.46146,4.71857,2.7637.38169,5.52789.69083,8.31216.88874,1.42917.10161,2.86674-.01323,4.2763.17141,3.06659.40169,6.11634-.03867,9.17012-.09206,2.34364-.04098,4.68532-.38473,7.02045-.6573,1.64171-.19162,3.27143-.48688,4.9055-.74223.52674-.0823.61806-.2961.3903-.82922-.52535-1.22974-.96141-2.4961-1.36018-3.77772-1.5751-5.06202-2.37257-10.24054-2.44371-15.53625Z"/>
  <path class="cls-2" d="M104.40637,202.07291c-2.66262.11668-4.66504-1.13525-6.43668-2.81916-1.79766-1.70863-3.28291-3.70062-4.84533-5.619-3.21309-3.94514-6.80637-7.43903-11.46755-9.65787-2.83093-1.34758-5.80288-2.20502-8.91984-2.62116-4.39403-.58663-8.6756.01456-12.94986.97074-1.80958.40479-3.62599.82068-5.50809.80674-3.46439-.02567-6.41195-2.32996-7.29119-5.68207-.81186-3.09521-1.1022-6.29044-1.87644-9.393-1.53713-6.15965-4.39932-11.63578-8.39833-16.54326-2.03307-2.49495-4.33605-4.71112-6.77458-6.80496-1.03773-.89104-2.05446-1.85415-2.87638-2.93929-1.87894-2.48067-1.73454-5.48433.36048-8.05007,1.39848-1.71271,2.96651-3.28586,4.40041-4.97103,2.17563-2.55689,3.5812-5.46958,4.1527-8.81679.84435-4.94529-.58223-9.29813-3.15418-13.42579-1.38742-2.22666-2.968-4.32766-4.24987-6.62168-1.98766-3.55715-2.75612-7.29587-1.52113-11.26345.59238-1.90311,1.88994-3.41151,3.26319-4.80937,4.60548-4.68802,8.89301-9.62158,12.41836-15.19993,4.17547-6.60704,7.32333-13.6467,9.39446-21.18426.63077-2.29561,1.19332-4.65796,2.70647-6.59275,1.56186-1.99708,3.66404-3.10548,6.15748-3.45395,3.04502-.42555,5.8752.53365,8.66254,1.52474,4.88545,1.73712,9.76473,3.50624,14.92689,4.20578,3.34392.45314,6.70311.50303,10.09156.10698,3.82307-.44684,7.48953-1.34865,11.03054-2.82065,3.38947-1.40901,6.50187-3.29465,9.35853-5.5846,2.99618-2.40179,5.91194-4.90392,8.90958-7.30384,2.11347-1.69205,4.42311-3.04078,7.18883-3.36267,3.4363-.39994,6.5545.38375,9.19294,2.67376,2.77503,2.40859,4.59408,5.5559,6.45197,8.65623,2.89171,4.82552,5.79567,9.64634,9.40544,13.98051,2.91479,3.49974,6.14028,6.6907,9.66247,9.60263,4.92903,4.07505,10.33396,7.37681,16.0289,10.22199,3.07754,1.53754,6.25252,2.87889,9.3516,4.37491,1.63038.78702,3.16089,1.7593,4.36893,3.15406,2.44189,2.81933,2.9618,6.5487,1.58962,9.88596-.16524.40185-.51165.53636-.85313.69685-2.84617,1.3376-5.44716,3.00522-7.64965,5.29703-2.15301,2.24035-3.46938,4.85922-4.02507,7.89228-.53582,2.9245-.22998,5.84462-.03757,8.77601.33639,5.12529-.02822,10.10704-3.47499,14.3321-1.00751,1.235-2.26306,2.17056-3.53483,3.10305-2.77636,2.03574-4.80608,4.72093-6.49534,7.67596-1.89262,3.31071-2.8268,6.91695-3.3204,10.68065-.32352,2.46677-.54024,4.97027-1.53082,7.30983-1.32152,3.12115-3.54314,5.28686-6.71217,6.49347-3.14802,1.19863-6.47551,1.60804-9.75042,2.25216-3.69905.72754-7.29451,1.72844-10.55772,3.72279-3.191,1.9502-5.57024,4.6513-7.44387,7.82786-2.38212,4.03866-3.7769,8.42976-4.4992,13.04593-.12631.80708-.40161,1.3406-1.29045,1.70007-4.15144,1.67891-7.76489,4.17756-11.02863,7.26381-1.79981,1.70195-3.33826,3.65384-5.28134,5.21898-1.60432,1.29232-3.27465,2.21623-5.31883,2.08673ZM110.79564,149.45802c2.4906.15815,5.34929-.24732,8.14534-.94497,6.16074-1.53719,11.62208-4.46909,16.34508-8.70691,4.75932-4.27042,8.38883-9.36766,10.82617-15.2963,1.82213-4.43222,2.81472-9.04352,2.95832-13.83103.06992-2.33154-.15736-4.64176-.48589-6.95523-.59581-4.19545-1.85465-8.18122-3.73484-11.94936-2.26993-4.54927-5.23696-8.58816-9.13001-11.93172-2.25219-1.93431-4.66621-3.61123-7.3256-4.88029-6.16839-2.94357-12.66111-3.90113-19.46171-3.06845-4.26074.5217-8.33974,1.62002-12.23757,3.3615-6.77725,3.02798-12.51162,7.41055-17.01155,13.36021-4.87396,6.4442-7.32082,13.72017-7.3867,21.77413-.01607,1.96469.17882,3.95047.52688,5.89742,1.40307,7.84841,4.74719,14.77922,10.07455,20.70194,3.48317,3.87245,7.58115,6.96523,12.34914,9.14852,4.81225,2.20356,9.82509,3.41542,15.54839,3.32053ZM62.36827,79.28135c.25739-.02975.39885-.23027.55944-.39397,2.76033-2.81392,5.51466-5.63374,8.28145-8.44129.30183-.30627.38253-.52121.03239-.85761-.96917-.93119-1.91071-1.89121-2.86005-2.84295-.41791-.41897-.75716-.4788-1.23319.00876-2.73328,2.79944-5.54811,5.51877-8.21027,8.38873-.33363.35966-.36443.57666-.00194.9242.99123.95036,1.95013,1.93442,2.92354,2.90341.14337.14272.27725.30704.50862.31072ZM169.47897,105.56098c.06419-.04426.16703-.09724.24777-.17357,1.10152-1.04122,2.19739-2.08844,3.30069-3.12776.33874-.31908.26514-.5835-.03348-.88753-2.80166-2.85246-5.5993-5.70887-8.38828-8.57372-.30438-.31267-.52215-.37252-.85617-.02841-1.01706,1.0478-2.05534,2.0754-3.10168,3.0941-.26749.26041-.28367.42468-.01204.7054,2.77813,2.87111,5.54174,5.75626,8.31253,8.63448.13759.14291.25561.32562.53066.35701ZM131.70526,59.23839c.1604.0291.21086-.17105.28413-.31696.68087-1.35567,1.3458-2.71946,2.03781-4.06937.19571-.38176.10145-.59066-.26533-.75235-.61276-.27012-1.22756-.53768-1.82712-.83532-2.9528-1.46593-5.90698-2.92942-8.84513-4.42429-.54369-.27661-.80964-.20992-1.05965.35638-.51761,1.17244-1.06028,2.33708-1.66298,3.46742-.34198.64135-.14849.91163.44189,1.20159,3.27326,1.60759,6.53015,3.2485,9.79448,4.87431.33705.16787.68626.31134,1.10189.49859ZM149.82116,141.53124c-.38443.22044-1.13005-.35361-1.23229.38866-.2095,1.52104-.26695,3.06314-.3818,4.59696-.02439.32572.14282.46028.46947.4803,1.76784.10839,3.53522.22519,5.30196.35033,2.22859.15782,4.45676.32199,6.68423.49466.38994.03022.67025.03628.70326-.49138.08511-1.36047.19568-2.72055.34504-4.07539.0886-.80386-.18475-1.12385-1.00246-1.02347-.43071.05288-.87601.02343-1.31186-.00822-3.18421-.23127-6.36769-.47252-9.57555-.71245ZM63.78436,140.08383c-.06151-.07918-.14369-.19515-.23602-.30237-2.58283-2.99906-5.17889-5.9869-7.73857-9.00557-.43342-.51115-.71775-.53062-1.19454-.08777-.9166.85131-1.82996,1.72196-2.84187,2.44933-.70026.50333-.48256.81919-.06137,1.29577.90548,1.02458,1.78055,2.07598,2.67179,3.1132,1.61207,1.87608,3.2375,3.74083,4.8332,5.63069.41249.48854.71992.40779,1.14308.02785,1.01762-.91371,2.06425-1.79523,3.10515-2.68274.13121-.11188.31022-.17173.31915-.4384ZM112.54564,175.49679c-.05182-.10754-.08928-.22162-.15496-.31609-.84619-1.2171-1.69758-2.4306-2.54485-3.64695-.239-.34308-.46383-.31152-.79403-.07685-1.39756.99328-2.82111,1.94989-4.22799,2.93019-1.88402,1.31277-3.75163,2.64944-5.64999,3.941-.37274.2536-.37772.444-.15382.76113.85487,1.21085,1.71406,2.4189,2.54998,3.64277.23868.34945.38618.35148.73952.09726,1.69857-1.22211,3.43107-2.397,5.15017-3.59059,1.52791-1.06081,3.05985-2.11605,4.57381-3.19645.19113-.13639.49311-.22291.51216-.5454Z"/>
  <path class="cls-2" d="M126.62561,196.42861c.07114,5.29571.86861,10.47423,2.44371,15.53625.39878,1.28161.83483,2.54798,1.36018,3.77772.22777.53313.13644.74692-.3903.82922-1.63408.25535-3.2638.55062-4.9055.74223-2.33513.27257-4.67681.61632-7.02045.6573-3.05378.0534-6.10353.49375-9.17012.09206-1.40955-.18464-2.84713-.0698-4.2763-.17141-2.78426-.19791-5.54846-.50705-8.31216-.88874-6.64881-.91829-13.12411-2.52871-19.46146-4.71857-6.16532-2.13042-12.06324-4.84422-17.73145-8.07198-5.22797-2.97707-10.17002-6.36937-14.81505-10.18445-3.29083-2.70284-6.44777-5.56475-9.37593-8.66088-4.24852-4.49222-8.13559-9.28424-11.57737-14.42378-3.07313-4.58902-5.76599-9.40116-8.09001-14.41019-2.79018-6.01373-5.02082-12.23636-6.61306-18.67378-1.07407-4.34248-1.91144-8.73196-2.40487-13.18721-.34275-3.09474-.6092-6.18666-.71268-9.30137-.05514-1.65966-.20183-3.32377-.1126-4.97907.17675-3.27877.2923-6.55887.63473-9.83273.53927-5.15577,1.45276-10.23783,2.71654-15.25214,1.23262-4.89071,2.86138-9.65934,4.80138-14.32224,1.29119-3.10347,2.73586-6.13252,4.3106-9.09543,2.8633-5.38736,6.17497-10.48662,9.93227-15.30293,3.14416-4.03034,6.52042-7.84861,10.2088-11.3782,4.06351-3.88857,8.39837-7.45574,13.02242-10.67367,4.94614-3.44208,10.14977-6.42716,15.58963-9.00377,5.62333-2.6635,11.45362-4.76936,17.46122-6.3908,3.00344-.81062,6.03566-1.50316,9.0976-2.02846,2.34242-.40186,4.69913-.74312,7.07141-.97085,2.75268-.26424,5.51687-.34799,8.26647-.56853,3.13344-.25132,6.24433-.05145,9.34582.10873,7.32667.37839,14.55039,1.56183,21.63625,3.48622,5.68952,1.54516,11.20896,3.5677,16.57461,6.02433,5.69379,2.60687,11.08357,5.73542,16.2253,9.29264,3.25664,2.25305,6.35027,4.71687,9.34324,7.31927,2.73767,2.38041,5.32688,4.90889,7.80469,7.54217,3.39288,3.60577,6.48051,7.47353,9.32413,11.53414,3.32009,4.74097,6.24323,9.71248,8.74704,14.928,2.64184,5.50304,4.8063,11.18885,6.45822,17.06927.18078.64355-.05665.80605-.61159.79601-3.1908-.05778-6.31928.41149-9.41187,1.14472-.58917.13969-.57979-.17369-.56284-.55252.07206-1.60915-.03468-3.20286-.42978-4.76791-1.13619-4.50093-3.86109-7.74034-7.87918-9.97834-3.52363-1.96259-7.29324-3.40448-10.88907-5.20764-2.73482-1.3714-5.43472-2.81795-8.01067-4.48657-4.59134-2.97413-8.86109-6.3378-12.63823-10.30331-3.42812-3.59911-6.352-7.58712-8.99626-11.78786-2.35839-3.74659-4.45351-7.65935-7.09797-11.22558-2.6811-3.61562-5.98874-6.35891-10.46422-7.42452-4.98584-1.18714-9.64731-.3732-13.98646,2.36207-2.77185,1.74729-5.209,3.91295-7.67205,6.04702-4.41314,3.82369-9.077,7.2323-14.76643,8.93982-2.90717.8725-5.87192,1.37352-8.91755,1.49035-5.34915.20519-10.46524-.80847-15.49237-2.56443-3.01983-1.05482-6.01282-2.20607-9.13571-2.95975-3.26332-.78757-6.503-.94364-9.70469.22408-4.41231,1.60927-7.51638,4.54301-9.13801,9.01618-1.16274,3.20737-1.97295,6.52201-3.10647,9.73866-2.39569,6.79845-5.8846,12.998-10.13,18.79055-2.19147,2.99009-4.70397,5.70119-7.26916,8.37598-2.00908,2.09493-4.07249,4.17919-5.28898,6.9052-.8534,1.91236-1.28641,3.89574-1.40276,5.98783-.26945,4.8447,1.31931,9.1057,3.91534,13.08118,1.27502,1.95251,2.54874,3.9063,3.79069,5.87989,3.03066,4.81604,2.54224,10.60794-1.1714,14.92415-1.74565,2.02889-3.75072,3.8284-5.24676,6.08-2.96166,4.4574-2.65748,10.64727,1.19213,14.67709,2.07761,2.17489,4.45779,4.01483,6.54021,6.17067,4.6627,4.82706,8.02297,10.42103,9.70333,16.95465.83208,3.23532,1.07619,6.59385,1.9806,9.8174.96738,3.44802,3.0111,6.0347,6.09701,7.86879,3.17931,1.88959,6.56791,1.97914,10.06404,1.39902,3.03469-.50356,6.00901-1.38496,9.08191-1.62353,2.76862-.21498,5.52351.02006,8.2283.7387,5.19788,1.38106,9.19299,4.49362,12.62423,8.51634,2.17181,2.54618,4.13271,5.28499,6.62452,7.54877,2.49489,2.26661,5.31314,3.75543,8.7698,4.07407,4.24107.39088,7.69387-1.14324,10.69233-3.93071,1.88267-1.75016,3.62487-3.65052,5.47838-5.43327,1.92172-1.84839,4.12686-3.31488,6.46453-4.59133.61261-.33449.81131-.232.77535.4726-.04018.78713-.00922,1.57792-.00922,2.36711Z"/>
  <path class="cls-1" d="M110.79564,149.45802c-5.72331.09489-10.73614-1.11697-15.54839-3.32053-4.76799-2.1833-8.86597-5.27607-12.34914-9.14852-5.32736-5.92272-8.67148-12.85353-10.07455-20.70194-.34806-1.94695-.54295-3.93273-.52688-5.89742.06588-8.05396,2.51274-15.32993,7.3867-21.77413,4.49993-5.94966,10.2343-10.33223,17.01155-13.36021,3.89783-1.74148,7.97683-2.8398,12.23757-3.3615,6.80061-.83269,13.29332.12487,19.46171,3.06845,2.65939,1.26906,5.07341,2.94598,7.3256,4.88029,3.89306,3.34355,6.86008,7.38245,9.13001,11.93172,1.88019,3.76814,3.13903,7.75391,3.73484,11.94936.32853,2.31347.55581,4.62369.48589,6.95523-.1436,4.78751-1.1362,9.3988-2.95832,13.83103-2.43733,5.92864-6.06685,11.02588-10.82617,15.2963-4.723,4.23782-10.18434,7.16972-16.34508,8.70691-2.79605.69766-5.65474,1.10313-8.14534.94497ZM113.43233,77.14416c-1.40397.01276-2.80514.019-4.19639.22284-.5191.07606-1.04384.12124-1.55819.22084-8.83735,1.71132-16.35058,5.79415-22.24212,12.64771-6.24084,7.25987-8.84882,15.70262-7.13231,25.13875,2.15197,11.82994,8.59099,20.67688,19.5617,25.90827,5.95181,2.83814,12.26632,3.46,18.71047,2.11056,7.63194-1.59818,13.88462-5.58664,18.78708-11.58625,6.54914-8.01482,9.3784-17.1619,7.75629-27.50177-1.1217-7.15012-4.13273-13.43014-9.19406-18.61586-5.5927-5.73014-12.45294-8.59777-20.49247-8.54509Z"/>
  <path class="cls-1" d="M62.36789,79.28066c-.23098-.00298-.36486-.1673-.50823-.31002-.97341-.969-1.93232-1.95305-2.92354-2.90341-.36249-.34754-.33169-.56454.00194-.9242,2.66216-2.86996,5.47699-5.58929,8.21027-8.38873.47603-.48755.81528-.42773,1.23319-.00876.94934.95175,1.89087,1.91177,2.86005,2.84295.35013.3364.26943.55134-.03239.85761-2.76679,2.80755-5.52112,5.62737-8.28145,8.44129-.16059.1637-.30205.36422-.55982.39328Z"/>
  <path class="cls-1" d="M169.47897,105.56098c-.27505-.03139-.39307-.2141-.53066-.35701-2.77079-2.87823-5.5344-5.76338-8.31253-8.63448-.27162-.28071-.25545-.44499.01204-.7054,1.04634-1.0187,2.08462-2.04631,3.10168-3.0941.33402-.34411.55179-.28426.85617.02841,2.78897,2.86486,5.58662,5.72126,8.38828,8.57372.29862.30403.37223.56845.03348.88753-1.1033,1.03932-2.19917,2.08653-3.30069,3.12776-.08075.07633-.18359.1293-.24777.17357Z"/>
  <path class="cls-1" d="M131.70526,59.23839c-.41562-.18725-.76484-.33072-1.10189-.49859-3.26433-1.62581-6.52122-3.26672-9.79448-4.87431-.59038-.28996-.78387-.56024-.44189-1.20159.6027-1.13034,1.14537-2.29498,1.66298-3.46742.25001-.56631.51596-.633,1.05965-.35638,2.93814,1.49487,5.89233,2.95836,8.84513,4.42429.59955.29764,1.21435.56521,1.82712.83532.36678.16169.46103.37059.26533.75235-.69201,1.34991-1.35694,2.7137-2.03781,4.06937-.07326.1459-.12373.34605-.28413.31696Z"/>
  <path class="cls-1" d="M149.82116,141.53124c3.20785.23993,6.39134.48119,9.57555.71245.43586.03165.88115.0611,1.31186.00822.81771-.10038,1.09106.21961,1.00246,1.02347-.14935,1.35483-.25992,2.71491-.34504,4.07539-.03301.52766-.31332.5216-.70326.49138-2.22748-.17267-4.45565-.33684-6.68423-.49466-1.76674-.12514-3.53411-.24194-5.30196-.35033-.32665-.02002-.49385-.15458-.46947-.4803.11485-1.53382.17229-3.07592.3818-4.59696.10224-.74228.84786-.16823,1.23229-.38866Z"/>
  <path class="cls-1" d="M63.78436,140.08383c-.00893.26667-.18794.32652-.31915.4384-1.0409.88751-2.08753,1.76904-3.10515,2.68274-.42316.37994-.73059.46069-1.14308-.02785-1.5957-1.88986-3.22113-3.75461-4.8332-5.63069-.89124-1.03722-1.76631-2.08862-2.67179-3.1132-.42119-.47658-.63889-.79244.06137-1.29577,1.01191-.72738,1.92527-1.59803,2.84187-2.44933.47679-.44285.76112-.42338,1.19454.08777,2.55968,3.01867,5.15574,6.00651,7.73857,9.00557.09234.10722.17451.22319.23602.30237Z"/>
  <path class="cls-1" d="M112.54564,175.49679c-.01905.3225-.32103.40901-.51216.5454-1.51396,1.0804-3.0459,2.13564-4.57381,3.19645-1.7191,1.1936-3.4516,2.36848-5.15017,3.59059-.35334.25422-.50083.25219-.73952-.09726-.83592-1.22387-1.6951-2.43192-2.54998-3.64277-.2239-.31713-.21892-.50753.15382-.76113,1.89836-1.29156,3.76597-2.62822,5.64999-3.941,1.40688-.9803,2.83042-1.93691,4.22799-2.93019.3302-.23467.55503-.26623.79403.07685.84727,1.21635,1.69866,2.42985,2.54485,3.64695.06568.09447.10314.20855.15496.31609Z"/>
</svg>