<svg id="Слой_1" data-name="Слой 1" xmlns="http://www.w3.org/2000/svg" viewBox="0 0 407.93311 407.93396"><defs><style>.cls-1{fill:#aac419;}.cls-2{fill:none;stroke:#718c09;stroke-miterlimit:10;stroke-width:10px;}</style></defs><path class="cls-1" d="M574.59041,376.13986H446.03719c-4.07325,0-7.376,3.915-7.376,8.744V546.18393c0,4.887-3.37695,8.748-7.499,8.74194H431.085c-21.46485,0-38.85694,13.8-38.85694,30.817,0,17.00207,17.39209,30.802,38.85694,30.802,21.46435,0,38.856-13.79993,38.856-30.802,0-.615-.02588-1.214-.07862-1.813h.07862l-1.30762-88.502a8.524,8.524,0,0,1,8.523-8.65h66.80908a8.52365,8.52365,0,0,1,8.521,8.312l1.229,49.396c0,4.991-3.51514,8.975-7.72022,8.727q-1.42968-.08551-2.88623-.08508c-21.45068,0-38.85693,13.78405-38.85693,30.802,0,17.001,17.40625,30.801,38.85693,30.801,21.46338,0,38.85645-13.8,38.85645-30.801v-199.046c0-4.829-3.30225-8.744-7.375-8.744m-96.125,72.328a8.52386,8.52386,0,0,1-8.52441-8.52392V423.53988c0-4.829,3.30322-8.744,7.376-8.744h69.02344c4.07275,0,7.375,3.915,7.375,8.744v16.40406a8.523,8.523,0,0,1-8.52344,8.52392Z" transform="translate(-296.20418 -296.13058)"/><path class="cls-2" d="M574.59041,376.13986H446.03719c-4.07325,0-7.376,3.915-7.376,8.744V546.18393c0,4.887-3.37695,8.748-7.499,8.74194H431.085c-21.46485,0-38.85694,13.8-38.85694,30.817,0,17.00207,17.39209,30.802,38.85694,30.802,21.46435,0,38.856-13.79993,38.856-30.802,0-.615-.02588-1.214-.07862-1.813h.07862l-1.30762-88.502a8.524,8.524,0,0,1,8.523-8.65h66.80908a8.52365,8.52365,0,0,1,8.521,8.312l1.229,49.396c0,4.991-3.51514,8.975-7.72022,8.727q-1.42968-.08551-2.88623-.08508c-21.45068,0-38.85693,13.78405-38.85693,30.802,0,17.001,17.40625,30.801,38.85693,30.801,21.46338,0,38.85645-13.8,38.85645-30.801v-199.046C581.96541,380.0549,578.66316,376.13986,574.59041,376.13986Zm-96.125,72.328a8.52386,8.52386,0,0,1-8.52441-8.52392V423.53988c0-4.829,3.30322-8.744,7.376-8.744h69.02344c4.07275,0,7.375,3.915,7.375,8.744v16.40406a8.523,8.523,0,0,1-8.52344,8.52392Z" transform="translate(-296.20418 -296.13058)"/><circle class="cls-2" cx="500.17085" cy="500.09753" r="198.96686" transform="translate(-503.32988 204.0188) rotate(-45)"/></svg>