<svg id="Слой_5" data-name="Слой 5" xmlns="http://www.w3.org/2000/svg" viewBox="0 0 407.93311 407.93324"><defs><style>.cls-1{fill:none;stroke:#adc79d;stroke-miterlimit:10;stroke-width:10px;}.cls-2{fill:#adc79d;}.cls-3{fill:#777a74;}</style></defs><circle class="cls-1" cx="203.96655" cy="203.96662" r="198.96658"/><path class="cls-2" d="M2790.30624,1137.46988c-53.18934,29.91782-82.83962,91.05543-73.44113,151.35156,9.42352,60.45673,58.88115,108.32953,118.8692,118.25778a148.06563,148.06563,0,0,0,98.51267-17.9108c5.56528-3.22692.53627-11.87217-5.04719-8.63471-48.94328,28.37883-112.64961,23.72311-156.35656-12.63182-44.0561-36.64535-58.878-97.86206-38.68928-151.136a137.4554,137.4554,0,0,1,61.19948-70.66128c5.60939-3.15516.57429-11.79666-5.04719-8.63471Z" transform="translate(-2659.04785 -1082.98777)"/><line class="cls-1" x1="203.96655" y1="365.18245" x2="203.96655" y2="321.19709"/><path class="cls-2" d="M2814.50377,1453.17022H2911.525c6.43453,0,6.44518-10,0-10h-97.02127c-6.43453,0-6.44518,10,0,10Z" transform="translate(-2659.04785 -1082.98777)"/><circle class="cls-3" cx="196.90355" cy="185.14362" r="110.59202"/><path class="cls-2" d="M2961.54342,1268.13139c-.27319,43.83166-27.94652,84.3142-69.44389,99.2589a106.79249,106.79249,0,0,1-117.84667-32.32168c-28.3304-34.226-31.494-84.3388-8.35157-122.11,22.82625-37.25509,67.77139-57.06069,110.6766-48.41853,49.05051,9.88,84.65461,53.70644,84.96553,103.59129.04009,6.43254,10.04018,6.44666,10,0a116.91375,116.91375,0,0,0-75.5351-108.44279c-45.41293-16.98-98.57117-2.55795-129.24041,34.94054-30.66016,37.48738-34.98866,91.5637-9.84115,133.16011,25.03018,41.40233,74.2242,62.95306,121.64283,53.70622,46.79328-9.12489,84.44216-48.28157,91.5594-95.44636a125.10636,125.10636,0,0,0,1.41443-17.91772C2971.58353,1261.69539,2961.58358,1261.68819,2961.54342,1268.13139Z" transform="translate(-2659.04785 -1082.98777)"/><path class="cls-2" d="M2852.06372,1161.19149c.22168.50578-.70874.83866-8.17017,8.17021-11.35986,11.1622-12.59008,13.71832-13.27661,15.82979a22.29735,22.29735,0,0,0,.51075,14.29788c.33862.96748,4.15551,11.51366,10.21264,11.234a7.40879,7.40879,0,0,0,6.12769-4.59575c1.64258-4.279-2.78223-7.15808-1.53174-10.7234,1.58105-4.50771,11.21069-7.19368,17.87231-4.0851,4.14209,1.9329,6.135,5.32068,9.19141,10.7234,2.50415,4.42662,4.69336,8.29654,4.08521,13.10639-.25538,2.02026-.71949,1.95375-5.10645,9.87233-4.73413,8.54525-5.75659,11.44381-9.19141,12.766-2.082.80143-2.56469.06674-4.93628,1.02127-3.813,1.53471-5.7539,4.71725-7.31909,7.14894-4.3872,6.8156-11.47363,17.82464-15.82983,16.85106-1.31055-.2929-1.69214-1.51786-3.9148-1.87233a8.06633,8.06633,0,0,0-4.76611.85106c-.44385.2135-5.052,2.56529-5.61694,7.65957a9.52056,9.52056,0,0,0,4.085,8.68085c4.25708,2.7545,8.52026-3.51578,15.31933-1.53191,2.3523.68641,5.45337,2.42057,5.617,4.59574.18969,2.523-3.7295,3.55229-3.57447,6.12767.14624,2.432,3.835,4.72984,7.07813,4.84382,1.38037.04853,2.24536-.31384,6.709-2.29063,4.05616-1.79631,6.08423-2.69446,6.64063-2.95615,5.73584-2.69714,15.81592,2.04421,35.74243,11.637,9.54956,4.59726,14.334,6.97244,14.80859,10.72342.37867,2.992-1.86254,4.10419-4.0852,10.72339-2.30078,6.85251-.94263,8.76877-2.55322,13.27661-2.17994,6.10138-6.1792,6.81906-13.78711,13.78723-9.969,9.13065-7.88745,12.28119-17.36182,20.93616-4.79053,4.37637-14.49487,13.24145-19.09106,10.72342-5.50245-3.01462,3.02221-18.67087.70825-46.46808a80.85494,80.85494,0,0,0-9.91675-33.07373c-7.25732-12.74971-13.70947-14.87773-16.63647-15.43692-2.93726-.56113-3.15088.29967-7.14893,0-11.82813-.88655-19.94214-9.169-20.93628-10.21275-4.54858-4.7751-4.073-7.62366-8.68091-18.89363-7.92212-19.376-13.94385-22.24578-20.42554-42.383-1.7478-5.42984-2.62158-8.14478-2.553-9.70213C2771.56616,1175.21341,2850.07568,1156.65329,2852.06372,1161.19149Z" transform="translate(-2659.04785 -1082.98777)"/><path class="cls-2" d="M2949.08521,1231.149c0,.00009-.919,1.54-13.78736,17.87233-10.93579,13.87945-16.04565,11.7924-16.85107,17.87234-1.0564,7.975,8.07568,8.99788,14.80859,26.55318,1.48706,3.87747,2.72022,8.20413,6.12769,9.1915,2.83447.82135,4.65991-1.39637,10.72339-2.5532,5.66308-1.08041,6.90625.31308,9.1914-.51062,10.1438-3.65628,5.87427-38.40278,1.532-57.70213-2.10693-9.36407-4.38134-15.75974-7.14892-15.82979C2951.9624,1225.99907,2950.719,1228.411,2949.08521,1231.149Z" transform="translate(-2659.04785 -1082.98777)"/><path class="cls-2" d="M2883.21265,1164.766c-3.6211,3.106.64965,13.2279,1.532,15.31913,1.404,3.32764,4.90259,11.61977,10.72339,11.74469,4.05005.08693,7.06665-3.82631,7.65967-4.59575a13.04041,13.04041,0,0,0,2.55322-9.70211C2904.084,1167.54789,2887.64819,1160.96125,2883.21265,1164.766Z" transform="translate(-2659.04785 -1082.98777)"/></svg>