<?xml version="1.0" encoding="UTF-8"?>
<svg id="_Слой_1" data-name="Слой 1" xmlns="http://www.w3.org/2000/svg" viewBox="0 0 227.24188 227.24102">
  <defs>
    <style>
      .cls-1 {
        stroke-miterlimit: 10;
        stroke-width: 5px;
      }

      .cls-1, .cls-2 {
        fill: none;
        stroke: #718c09;
      }

      .cls-2 {
        stroke-miterlimit: 5.57;
        stroke-width: 5.57px;
      }

      .cls-3 {
        fill: #aac419;
        stroke-width: 0px;
      }
    </style>
  </defs>
  <circle class="cls-2" cx="113.62094" cy="113.62078" r="110.83559"/>
  <path class="cls-3" d="M147.38559,93.61691h-64.60156c-11.44336,0-20.71973-9.27698-20.71973-20.72095,0-11.44299,9.27637-20.71997,20.71973-20.71997h64.60156c11.44238,0,20.7207,9.27698,20.7207,20.71997,0,11.44397-9.27832,20.72095-20.7207,20.72095"/>
  <path class="cls-1" d="M147.38559,93.61691h-64.60156c-11.44336,0-20.71973-9.27698-20.71973-20.72095,0-11.44299,9.27637-20.71997,20.71973-20.71997h64.60156c11.44238,0,20.7207,9.27698,20.7207,20.71997,0,11.44397-9.27832,20.72095-20.7207,20.72095Z"/>
  <path class="cls-3" d="M100.35531,139.99569h-20.06348c-10.06738,0-18.22754-8.16089-18.22754-18.22693,0-10.06702,8.16016-18.22803,18.22754-18.22803h20.06348"/>
  <path class="cls-1" d="M100.35531,139.99569h-20.06348c-10.06738,0-18.22754-8.16089-18.22754-18.22693,0-10.06702,8.16016-18.22803,18.22754-18.22803h20.06348"/>
  <line class="cls-1" x1="100.35531" y1="101.04513" x2="100.35531" y2="142.49118"/>
  <path class="cls-3" d="M99.95004,167.11618c.06152,9.26904-7.51562,16.78406-16.78418,16.78406-9.27051,0-16.78418-7.51404-16.78418-16.78406s7.51367-16.65991,16.78418-16.78394c21.64355-.29004,16.64355-3.86304,16.78418,16.78394"/>
  <path class="cls-1" d="M99.95004,167.11618c.06152,9.26904-7.51562,16.78406-16.78418,16.78406-9.27051,0-16.78418-7.51404-16.78418-16.78406s7.51367-16.65991,16.78418-16.78394c21.64355-.29004,16.64355-3.86304,16.78418,16.78394Z"/>
  <path class="cls-3" d="M146.3973,121.76828c0,10.06702-8.16113,18.22705-18.22852,18.22705-10.06641,0-18.22656-8.16003-18.22656-18.22705s8.16016-18.22693,18.22656-18.22693c10.06738,0,18.22852,8.16003,18.22852,18.22693"/>
  <path class="cls-1" d="M146.3973,121.76828c0,10.06702-8.16113,18.22705-18.22852,18.22705-10.06641,0-18.22656-8.16003-18.22656-18.22705s8.16016-18.22693,18.22656-18.22693c10.06738,0,18.22852,8.16003,18.22852,18.22693Z"/>
</svg>