<svg id="Слой_14" data-name="Слой 14" xmlns="http://www.w3.org/2000/svg" viewBox="0 0 407.93311 407.93324"><defs><style>.cls-1{fill:#777a74;}.cls-1,.cls-2{stroke:#adc79d;stroke-miterlimit:10;stroke-width:10px;}.cls-2{fill:none;}.cls-3{fill:#adc79d;}</style></defs><path class="cls-1" d="M6354.228,1352.5798c1.2169-1.54937,3.19245-4.00856,5.759-6.9447,3.56607-4.07958,4.58626-4.86221,7.961-8.80792,2.90885-3.401,4.71568-5.81822,6.43658-8.13038,3.42908-4.60719,4.12732-6.02485,4.51685-6.88822a25.79752,25.79752,0,0,0,2.14554-7.84811c.142-1.47341-.01113-1.376,0-6.77532.00948-4.5895.11957-4.38805,0-5.47671a20.24754,20.24754,0,0,0-2.48429-7.79163,19.10028,19.10028,0,0,0-4.00872-4.79916,25.765,25.765,0,0,0-7.62225-4.46042c-2.83819-1.17393-3.60421-1.15174-8.52562-2.59722-5.35835-1.57379-8.94535-2.64606-13.1554-4.79921-2.91023-1.48839-4.81933-2.488-6.77533-4.62978a13.92019,13.92019,0,0,1-3.16179-15.07508,15.66541,15.66541,0,0,1,3.50055-6.04133,15.93789,15.93789,0,0,1,5.81551-3.83937,16.38807,16.38807,0,0,1,7.73514-.95983c2.237.27125,2.7849.82856,6.71888,2.14553,1.85213.62,1.467.40822,7.79162,2.14552,3.74209,1.02791,7.63622,1.5987,11.23574,3.04889a20.66763,20.66763,0,0,0,5.70253,1.18568,4.60585,4.60585,0,0,0,2.936-.50813,3.81983,3.81983,0,0,0,1.69385-2.42784c.20343-1.33564-.61386-2.38151-1.41154-3.557-1.27691-1.88174-2.14117-4.01347-3.27473-5.98487-1.99418-3.4681-2.18611-6.96079-2.37136-10.33236a32.78391,32.78391,0,0,1,2.37136-13.77649,28.89351,28.89351,0,0,1,13.6071-15.41385,32.45849,32.45849,0,0,1,10.05009-3.55706,30.89376,30.89376,0,0,1,9.76775-.16937,30.22786,30.22786,0,0,1,9.7113,3.3312,33.9026,33.9026,0,0,1,17.61581,25.351c.40807,3.76164.87215,8.03957-1.29862,12.19559a70.26175,70.26175,0,0,1-4.85565,8.46915,4.91546,4.91546,0,0,0-1.01626,2.31489,3.92169,3.92169,0,0,0,.67751,2.99244,4.20689,4.20689,0,0,0,3.21828,1.29862c1.2763.05563,1.9877-.33467,3.95228-1.01631,1.37267-.47626,2.791-.80985,4.1781-1.24214,3.37867-1.053,3.94139-1.00245,9.48544-2.48429,4.80467-1.28421,8.29972-2.31489,8.2998-2.31491,3.92292-1.15687,4.73352-1.48834,6.54946-1.63737a16.492,16.492,0,0,1,6.88825.734,16.69607,16.69607,0,0,1,10.67112,15.86554,15.2101,15.2101,0,0,1-2.59719,7.6787,17.49765,17.49765,0,0,1-5.98488,5.58964c-2.46053,1.4786-3.69658,1.52188-9.37251,3.10535-5.47222,1.52662-4.08262,1.41924-12.08266,3.7829-6.77075,2.00045-7.47522,1.99142-9.65485,3.1618a18.03406,18.03406,0,0,0-10.21944,12.92958,24.16657,24.16657,0,0,0-.67755,7.67869,23.66991,23.66991,0,0,0,2.48429,8.86438c1.33838,2.62759,2.45814,3.56935,5.30734,6.9447,1.24625,1.47641,3.46569,4.466,7.90455,10.44529,4.16288,5.60751,3.34984,4.73082,8.46913,11.68746,1.2101,1.64442,2.95226,4.10753,6.43657,9.03376,2.8918,4.08853,3.557,5.07005,4.12166,6.83177a16.8054,16.8054,0,0,1,.05644,9.7113,15.36392,15.36392,0,0,1-4.96858,7.79162,15.098,15.098,0,0,1-8.46914,3.33117,16.42378,16.42378,0,0,1-9.48543-2.4278c-1.42292-.80028-2.37432-1.57266-6.77533-5.98489-3.69147-3.7009-5.53724-5.55138-7.961-8.18682-5.38443-5.85467-8.92081-9.93713-8.92086-9.93717-2.97286-3.43188-4.15088-4.91736-6.66239-6.38008a15.96913,15.96913,0,0,0-15.69618-.62107c-1.9898.9684-2.217,1.55537-7.73514,6.54946-4.27018,3.86469-4.18154,3.55611-7.45287,6.60595-1.7122,1.59626-1.59344,1.54743-6.83177,6.66239a92.62342,92.62342,0,0,1-8.58207,7.84811c-2.54584,1.96563-3.85984,2.96286-5.87195,3.67a15.27122,15.27122,0,0,1-16.26076-3.95228,16.24085,16.24085,0,0,1-4.291-9.09023,16.6415,16.6415,0,0,1,4.74272-14.11527Z" transform="translate(-6208.83659 -1088.67584)"/><circle class="cls-2" cx="203.96655" cy="203.96662" r="198.96658"/><path class="cls-3" d="M6545.93672,1268.03634a97.1086,97.1086,0,0,0-7.95732-56.5003c-12.28817-26.26811-37.42372-44.7442-65.73019-50.10552a92.88327,92.88327,0,0,0-24.16518-1.67351c-6.37658.48483-6.42917,10.48882,0,10a86.22054,86.22054,0,0,1,47.63813,10.60775c23.52374,13.09574,38.632,37.51127,41.01755,64.18528a96.54081,96.54081,0,0,1,.22434,14.34488q-.14,2.34393-.40608,4.67681a14.16483,14.16483,0,0,1-.264,1.80621c-1.06087,6.29489,8.57394,9.00059,9.64279,2.6584Z" transform="translate(-6208.83659 -1088.67584)"/><path class="cls-3" d="M6519.09428,1240.29919l17.147,29.62689c3.22258,5.568,11.8676.53864,8.63471-5.04719l-17.147-29.62689c-3.22258-5.568-11.86759-.53863-8.63471,5.04719Z" transform="translate(-6208.83659 -1088.67584)"/><path class="cls-3" d="M6554.506,1236.09093l-17.40542,29.47582c-3.27957,5.55391,5.36123,10.59077,8.6347,5.04719l17.40543-29.47582c3.27957-5.55391-5.36124-10.59077-8.63471-5.04719Z" transform="translate(-6208.83659 -1088.67584)"/><path class="cls-3" d="M6284.29062,1312.45149a96.67147,96.67147,0,0,0,6.26565,58.547c11.62283,26.26261,35.82149,45.08242,63.6369,51.406a92.83385,92.83385,0,0,0,23.14667,2.51058c6.42056-.19131,6.44775-10.19212,0-10a86.07221,86.07221,0,0,1-45.8395-12.16922c-23.44673-13.99091-37.71018-39.2877-39.01224-66.37239a82.23,82.23,0,0,1,1.44531-21.26355c1.3576-6.27438-8.28034-8.95523-9.64279-2.65839Z" transform="translate(-6208.83659 -1088.67584)"/><path class="cls-3" d="M6309.77919,1340.97473l-15.76166-30.38656c-2.96425-5.71471-11.59684-.66343-8.63471,5.04719l15.76166,30.38656c2.96425,5.71471,11.59684.66343,8.63471-5.04719Z" transform="translate(-6208.83659 -1088.67584)"/><path class="cls-3" d="M6274.444,1343.54986l18.747-28.64128c3.53474-5.40029-5.12027-10.41646-8.63471-5.04719l-18.747,28.64128c-3.53474,5.40029,5.12027,10.41646,8.6347,5.04719Z" transform="translate(-6208.83659 -1088.67584)"/></svg>