<svg id="Слой_7" data-name="Слой 7" xmlns="http://www.w3.org/2000/svg" viewBox="0 0 407.93311 407.93324"><defs><style>.cls-1{fill:none;}.cls-1,.cls-2,.cls-3{stroke:#adc79d;stroke-miterlimit:10;stroke-width:10px;}.cls-2{fill:#777a74;}.cls-3{fill:#adc79d;}</style></defs><circle class="cls-1" cx="203.96655" cy="203.96662" r="198.96658"/><path class="cls-2" d="M3893.38431,1272.82621c-19.45606-21.14462-42.51194,13.025-61.48562,10.27066-6.40211-.92938-29.15539-12.00226-7.83483-36.49078,31.12158-35.746,16.09063-52.35469,12.25532-59.08744-13.96249-24.51064-79.93438-46.93365-154.99078-6.26208-9.71655,5.2652-78.72339,44.12243-78.31616,115.66687.33154,58.23291,46.45,103.00635,92.77466,119.28143,68.24487,23.97638,126.66455-17.50622,138.55908-26.507C3881.45682,1354.04911,3909.3721,1290.20151,3893.38431,1272.82621Zm-171.3169-62.83948c0-12.40881,17.14649-22.46808,38.29785-22.46808s38.29786,10.05927,38.29786,22.46808c0,12.40875-17.14649,22.46808-38.29786,22.46808S3722.06741,1222.39548,3722.06741,1209.98673Z" transform="translate(-3546.49507 -1082.98777)"/><ellipse class="cls-3" cx="112.50496" cy="189.89957" rx="22.59574" ry="16.10204"/><ellipse class="cls-3" cx="124.3773" cy="257.17349" rx="22.59574" ry="16.10204"/><ellipse class="cls-3" cx="195.27971" cy="290.58478" rx="22.59574" ry="16.10204"/><ellipse class="cls-3" cx="268.93554" cy="257.17349" rx="22.59574" ry="16.10204"/></svg>