<svg id="Слой_27" data-name="Слой 27" xmlns="http://www.w3.org/2000/svg" viewBox="0 0 407.93311 407.93396"><defs><style>.cls-1,.cls-3,.cls-6,.cls-8{fill:none;stroke-miterlimit:10;}.cls-1{stroke:#adc79d;}.cls-1,.cls-3{stroke-width:10px;}.cls-2{fill:#787974;}.cls-3{stroke:#aec89d;}.cls-4{fill:#f18faa;}.cls-5{fill:#040604;}.cls-6{stroke:#040604;}.cls-7{fill:#babb8f;}.cls-8{stroke:#babb8f;}</style></defs><circle class="cls-1" cx="8311.45534" cy="3169.92639" r="198.96686" transform="translate(-7914.59621 3839.57693) rotate(-45)"/><path class="cls-2" d="M8440.5248,3273.94858h-256.979a20.12018,20.12018,0,0,1-20.28808-19.825v-168.516a20.12039,20.12039,0,0,1,20.28808-19.82605h256.979a20.12028,20.12028,0,0,1,20.28759,19.82605v168.516a20.12006,20.12006,0,0,1-20.28759,19.825" transform="translate(-8107.48866 -2965.95945)"/><path class="cls-3" d="M8440.5248,3273.94858h-256.979a20.12018,20.12018,0,0,1-20.28808-19.825v-168.516a20.12039,20.12039,0,0,1,20.28808-19.82605h256.979a20.12028,20.12028,0,0,1,20.28759,19.82605v168.516A20.12006,20.12006,0,0,1,8440.5248,3273.94858Z" transform="translate(-8107.48866 -2965.95945)"/><line class="cls-4" x1="57.90674" y1="152.36951" x2="355.46045" y2="152.36951"/><line class="cls-3" x1="57.90674" y1="152.36951" x2="355.46045" y2="152.36951"/><rect class="cls-5" x="196.60693" y="170.71899" width="24.13379" height="23.58398"/><rect class="cls-6" x="196.60693" y="170.71899" width="24.13379" height="23.58398"/><rect class="cls-5" x="196.60693" y="170.71899" width="24.13379" height="23.58398"/><rect class="cls-6" x="196.60693" y="170.71899" width="24.13379" height="23.58398"/><rect class="cls-5" x="249.29297" y="170.58997" width="24.13477" height="23.58398"/><rect class="cls-6" x="249.29297" y="170.58997" width="24.13477" height="23.58398"/><rect class="cls-5" x="249.29297" y="170.58997" width="24.13477" height="23.58398"/><rect class="cls-6" x="249.29297" y="170.58997" width="24.13477" height="23.58398"/><rect class="cls-5" x="301.98096" y="170.71899" width="24.13379" height="23.58398"/><rect class="cls-6" x="301.98096" y="170.71899" width="24.13379" height="23.58398"/><rect class="cls-5" x="301.98096" y="170.71899" width="24.13379" height="23.58398"/><rect class="cls-6" x="301.98096" y="170.71899" width="24.13379" height="23.58398"/><rect class="cls-5" x="87.25391" y="215.55994" width="24.13379" height="23.58496"/><rect class="cls-6" x="87.25391" y="215.55994" width="24.13379" height="23.58496"/><rect class="cls-5" x="87.25391" y="215.55994" width="24.13379" height="23.58496"/><rect class="cls-6" x="87.25391" y="215.55994" width="24.13379" height="23.58496"/><rect class="cls-5" x="142.32178" y="213.07495" width="24.13477" height="23.58398"/><rect class="cls-6" x="142.32178" y="213.07495" width="24.13477" height="23.58398"/><rect class="cls-5" x="142.32178" y="213.07495" width="24.13477" height="23.58398"/><rect class="cls-6" x="142.32178" y="213.07495" width="24.13477" height="23.58398"/><rect class="cls-5" x="197.39258" y="213.07495" width="24.13379" height="23.58398"/><rect class="cls-6" x="197.39258" y="213.07495" width="24.13379" height="23.58398"/><rect class="cls-5" x="197.39258" y="213.07495" width="24.13379" height="23.58398"/><rect class="cls-6" x="197.39258" y="213.07495" width="24.13379" height="23.58398"/><rect class="cls-5" x="249.29297" y="213.07495" width="24.13477" height="23.58398"/><rect class="cls-6" x="249.29297" y="213.07495" width="24.13477" height="23.58398"/><rect class="cls-5" x="249.29297" y="213.07495" width="24.13477" height="23.58398"/><rect class="cls-6" x="249.29297" y="213.07495" width="24.13477" height="23.58398"/><rect class="cls-5" x="301.98096" y="213.07495" width="24.13379" height="23.58398"/><rect class="cls-6" x="301.98096" y="213.07495" width="24.13379" height="23.58398"/><rect class="cls-5" x="301.98096" y="213.07495" width="24.13379" height="23.58398"/><rect class="cls-6" x="301.98096" y="213.07495" width="24.13379" height="23.58398"/><rect class="cls-5" x="87.25391" y="260.53198" width="24.13379" height="23.58398"/><rect class="cls-6" x="87.25391" y="260.53198" width="24.13379" height="23.58398"/><rect class="cls-5" x="87.25391" y="260.53198" width="24.13379" height="23.58398"/><rect class="cls-6" x="87.25391" y="260.53198" width="24.13379" height="23.58398"/><rect class="cls-5" x="142.32178" y="260.53198" width="24.13477" height="23.58398"/><rect class="cls-6" x="142.32178" y="260.53198" width="24.13477" height="23.58398"/><rect class="cls-5" x="142.32178" y="260.53198" width="24.13477" height="23.58398"/><rect class="cls-6" x="142.32178" y="260.53198" width="24.13477" height="23.58398"/><rect class="cls-5" x="197.39258" y="260.53198" width="24.13379" height="23.58398"/><rect class="cls-6" x="197.39258" y="260.53198" width="24.13379" height="23.58398"/><rect class="cls-5" x="197.39258" y="260.53198" width="24.13379" height="23.58398"/><rect class="cls-6" x="197.39258" y="260.53198" width="24.13379" height="23.58398"/><rect class="cls-5" x="249.68701" y="260.53198" width="24.13477" height="23.58398"/><rect class="cls-6" x="249.68701" y="260.53198" width="24.13477" height="23.58398"/><rect class="cls-5" x="249.68701" y="260.53198" width="24.13477" height="23.58398"/><rect class="cls-6" x="249.68701" y="260.53198" width="24.13477" height="23.58398"/><rect class="cls-5" x="301.98096" y="260.53198" width="24.13379" height="23.58398"/><rect class="cls-6" x="301.98096" y="260.53198" width="24.13379" height="23.58398"/><rect class="cls-5" x="301.98096" y="260.53198" width="24.13379" height="23.58398"/><rect class="cls-6" x="301.98096" y="260.53198" width="24.13379" height="23.58398"/><path class="cls-7" d="M8421.6371,3097.70884h-.20215a8.7427,8.7427,0,0,1-8.71728-8.71692v-42.043a8.74188,8.74188,0,0,1,8.71728-8.71607h.20215a8.74126,8.74126,0,0,1,8.71582,8.71607v42.043a8.74207,8.74207,0,0,1-8.71582,8.71692" transform="translate(-8107.48866 -2965.95945)"/><path class="cls-8" d="M8421.6371,3097.70884h-.20215a8.7427,8.7427,0,0,1-8.71728-8.71692v-42.043a8.74188,8.74188,0,0,1,8.71728-8.71607h.20215a8.74126,8.74126,0,0,1,8.71582,8.71607v42.043a8.74207,8.74207,0,0,1-8.71582,8.71692" transform="translate(-8107.48866 -2965.95945)"/><path class="cls-7" d="M8421.6371,3097.70884h-.20215a8.7427,8.7427,0,0,1-8.71728-8.71692v-42.043a8.74188,8.74188,0,0,1,8.71728-8.71607h.20215a8.74126,8.74126,0,0,1,8.71582,8.71607v42.043a8.74207,8.74207,0,0,1-8.71582,8.71692" transform="translate(-8107.48866 -2965.95945)"/><path class="cls-8" d="M313.94482,72.27344h.20215a8.71729,8.71729,0,0,1,8.71729,8.71729V123.0321a8.71729,8.71729,0,0,1-8.71729,8.71729h-.20215a8.71582,8.71582,0,0,1-8.71582-8.71582V80.98926A8.71582,8.71582,0,0,1,313.94482,72.27344Z"/><path class="cls-7" d="M8206.90956,3095.76645h-.20215a8.74269,8.74269,0,0,1-8.71728-8.71692v-42.043a8.74188,8.74188,0,0,1,8.71728-8.71606h.20215a8.74126,8.74126,0,0,1,8.71582,8.71606v42.043a8.74206,8.74206,0,0,1-8.71582,8.71692" transform="translate(-8107.48866 -2965.95945)"/><path class="cls-8" d="M8206.90956,3095.76645h-.20215a8.74269,8.74269,0,0,1-8.71728-8.71692v-42.043a8.74188,8.74188,0,0,1,8.71728-8.71606h.20215a8.74126,8.74126,0,0,1,8.71582,8.71606v42.043a8.74206,8.74206,0,0,1-8.71582,8.71692" transform="translate(-8107.48866 -2965.95945)"/><path class="cls-7" d="M8206.90956,3095.76645h-.20215a8.74269,8.74269,0,0,1-8.71728-8.71692v-42.043a8.74188,8.74188,0,0,1,8.71728-8.71606h.20215a8.74126,8.74126,0,0,1,8.71582,8.71606v42.043a8.74206,8.74206,0,0,1-8.71582,8.71692" transform="translate(-8107.48866 -2965.95945)"/><path class="cls-8" d="M99.21838,70.33105h.201a8.71729,8.71729,0,0,1,8.71729,8.71729v42.0426a8.71606,8.71606,0,0,1-8.71606,8.71606h-.20337a8.71582,8.71582,0,0,1-8.71582-8.71582V79.048a8.71692,8.71692,0,0,1,8.71692-8.71692Z"/></svg>