<svg id="Слой_1" data-name="Слой 1" xmlns="http://www.w3.org/2000/svg" viewBox="0 0 407.93374 407.93374"><defs><style>.cls-1,.cls-3,.cls-4,.cls-6{fill:none;}.cls-1,.cls-3,.cls-7{stroke:#718c09;}.cls-1{stroke-miterlimit:10;stroke-width:10px;}.cls-2{fill:#aac419;}.cls-2,.cls-8{stroke:#b8e87c;}.cls-2,.cls-3,.cls-6,.cls-7,.cls-8{stroke-miterlimit:10;}.cls-3{stroke-width:10px;}.cls-5{fill:#331013;}.cls-6{stroke:#331013;}.cls-7{fill:#718c09;}.cls-8{fill:#b8e87c;}</style></defs><circle class="cls-1" cx="203.96687" cy="203.96687" r="198.96679"/><path class="cls-2" d="M628.19038,604.86494H371.21186a20.12039,20.12039,0,0,1-20.28808-19.825V416.52412A20.12065,20.12065,0,0,1,371.21186,396.698H628.19038a20.12017,20.12017,0,0,1,20.28808,19.82617V585.04a20.12008,20.12008,0,0,1-20.28808,19.825" transform="translate(-296.20386 -296.13069)"/><path class="cls-3" d="M628.19038,604.86494H371.21186a20.12039,20.12039,0,0,1-20.28808-19.825V416.52412A20.12065,20.12065,0,0,1,371.21186,396.698H628.19038a20.12017,20.12017,0,0,1,20.28808,19.82617V585.04A20.12008,20.12008,0,0,1,628.19038,604.86494Z" transform="translate(-296.20386 -296.13069)"/><line class="cls-4" x1="55.04755" y1="152.99133" x2="352.60126" y2="152.99133"/><line class="cls-3" x1="55.04755" y1="152.99133" x2="352.60126" y2="152.99133"/><rect class="cls-5" x="193.74628" y="171.34094" width="24.13379" height="23.58398"/><rect class="cls-6" x="193.74628" y="171.34094" width="24.13379" height="23.58398"/><rect class="cls-5" x="193.74628" y="171.34094" width="24.13379" height="23.58398"/><rect class="cls-7" x="193.74628" y="171.34094" width="24.13379" height="23.58398"/><rect class="cls-5" x="246.43232" y="171.21179" width="24.13477" height="23.58398"/><rect class="cls-6" x="246.43232" y="171.21179" width="24.13477" height="23.58398"/><rect class="cls-5" x="246.43232" y="171.21179" width="24.13477" height="23.58398"/><rect class="cls-7" x="246.43232" y="171.21179" width="24.13477" height="23.58398"/><rect class="cls-5" x="299.12031" y="171.34094" width="24.13379" height="23.58398"/><rect class="cls-6" x="299.12031" y="171.34094" width="24.13379" height="23.58398"/><rect class="cls-5" x="299.12031" y="171.34094" width="24.13379" height="23.58398"/><rect class="cls-7" x="299.12031" y="171.34094" width="24.13379" height="23.58398"/><rect class="cls-5" x="84.39326" y="216.182" width="24.13379" height="23.58496"/><rect class="cls-6" x="84.39326" y="216.182" width="24.13379" height="23.58496"/><rect class="cls-5" x="84.39326" y="216.182" width="24.13379" height="23.58496"/><rect class="cls-7" x="84.39326" y="216.182" width="24.13379" height="23.58496"/><rect class="cls-5" x="139.46259" y="213.6969" width="24.13477" height="23.58398"/><rect class="cls-6" x="139.46259" y="213.6969" width="24.13477" height="23.58398"/><rect class="cls-5" x="139.46259" y="213.6969" width="24.13477" height="23.58398"/><rect class="cls-7" x="139.46259" y="213.6969" width="24.13477" height="23.58398"/><rect class="cls-5" x="194.53339" y="213.6969" width="24.13379" height="23.58398"/><rect class="cls-6" x="194.53339" y="213.6969" width="24.13379" height="23.58398"/><rect class="cls-5" x="194.53339" y="213.6969" width="24.13379" height="23.58398"/><rect class="cls-7" x="194.53339" y="213.6969" width="24.13379" height="23.58398"/><rect class="cls-5" x="246.43232" y="213.6969" width="24.13477" height="23.58398"/><rect class="cls-6" x="246.43232" y="213.6969" width="24.13477" height="23.58398"/><rect class="cls-5" x="246.43232" y="213.6969" width="24.13477" height="23.58398"/><rect class="cls-7" x="246.43232" y="213.6969" width="24.13477" height="23.58398"/><rect class="cls-5" x="299.12031" y="213.6969" width="24.13379" height="23.58398"/><rect class="cls-6" x="299.12031" y="213.6969" width="24.13379" height="23.58398"/><rect class="cls-5" x="299.12031" y="213.6969" width="24.13379" height="23.58398"/><rect class="cls-7" x="299.12031" y="213.6969" width="24.13379" height="23.58398"/><rect class="cls-5" x="84.39326" y="261.15381" width="24.13379" height="23.58398"/><rect class="cls-6" x="84.39326" y="261.15381" width="24.13379" height="23.58398"/><rect class="cls-5" x="84.39326" y="261.15381" width="24.13379" height="23.58398"/><rect class="cls-7" x="84.39326" y="261.15381" width="24.13379" height="23.58398"/><rect class="cls-5" x="139.46259" y="261.15381" width="24.13477" height="23.58398"/><rect class="cls-6" x="139.46259" y="261.15381" width="24.13477" height="23.58398"/><rect class="cls-5" x="139.46259" y="261.15381" width="24.13477" height="23.58398"/><rect class="cls-7" x="139.46259" y="261.15381" width="24.13477" height="23.58398"/><rect class="cls-5" x="194.53339" y="261.15381" width="24.13379" height="23.58398"/><rect class="cls-6" x="194.53339" y="261.15381" width="24.13379" height="23.58398"/><rect class="cls-5" x="194.53339" y="261.15381" width="24.13379" height="23.58398"/><rect class="cls-7" x="194.53339" y="261.15381" width="24.13379" height="23.58398"/><rect class="cls-5" x="246.82636" y="261.15381" width="24.13477" height="23.58398"/><rect class="cls-6" x="246.82636" y="261.15381" width="24.13477" height="23.58398"/><rect class="cls-5" x="246.82636" y="261.15381" width="24.13477" height="23.58398"/><rect class="cls-7" x="246.82636" y="261.15381" width="24.13477" height="23.58398"/><rect class="cls-5" x="299.12031" y="261.15381" width="24.13379" height="23.58398"/><rect class="cls-6" x="299.12031" y="261.15381" width="24.13379" height="23.58398"/><rect class="cls-5" x="299.12031" y="261.15381" width="24.13379" height="23.58398"/><rect class="cls-7" x="299.12031" y="261.15381" width="24.13379" height="23.58398"/><path class="cls-8" d="M607.49214,428.50166H607.29a8.742,8.742,0,0,1-8.7168-8.7168v-42.043a8.74122,8.74122,0,0,1,8.7168-8.71606h.20215a8.74135,8.74135,0,0,1,8.71582,8.71606v42.043a8.74214,8.74214,0,0,1-8.71582,8.7168" transform="translate(-296.20386 -296.13069)"/><path class="cls-8" d="M607.49214,428.50166H607.29a8.742,8.742,0,0,1-8.7168-8.7168v-42.043a8.74122,8.74122,0,0,1,8.7168-8.71606h.20215a8.74135,8.74135,0,0,1,8.71582,8.71606v42.043a8.74214,8.74214,0,0,1-8.71582,8.7168" transform="translate(-296.20386 -296.13069)"/><path class="cls-8" d="M607.49214,428.50166H607.29a8.742,8.742,0,0,1-8.7168-8.7168v-42.043a8.74122,8.74122,0,0,1,8.7168-8.71606h.20215a8.74135,8.74135,0,0,1,8.71582,8.71606v42.043a8.74214,8.74214,0,0,1-8.71582,8.7168" transform="translate(-296.20386 -296.13069)"/><path class="cls-7" d="M607.289,369.02607h.20215a8.7173,8.7173,0,0,1,8.71729,8.7173v42.04126a8.71729,8.71729,0,0,1-8.71729,8.71729h-.2019a8.71606,8.71606,0,0,1-8.71607-8.71606h0v-42.044A8.71583,8.71583,0,0,1,607.289,369.02607Z" transform="translate(-296.20386 -296.13069)"/><path class="cls-8" d="M392.7646,426.55952h-.20215a8.74265,8.74265,0,0,1-8.7168-8.7168v-42.043a8.74122,8.74122,0,0,1,8.7168-8.71606h.20215a8.74134,8.74134,0,0,1,8.71582,8.71606v42.043a8.74212,8.74212,0,0,1-8.71582,8.7168" transform="translate(-296.20386 -296.13069)"/><path class="cls-8" d="M392.7646,426.55952h-.20215a8.74265,8.74265,0,0,1-8.7168-8.7168v-42.043a8.74122,8.74122,0,0,1,8.7168-8.71606h.20215a8.74134,8.74134,0,0,1,8.71582,8.71606v42.043a8.74212,8.74212,0,0,1-8.71582,8.7168" transform="translate(-296.20386 -296.13069)"/><path class="cls-8" d="M392.7646,426.55952h-.20215a8.74265,8.74265,0,0,1-8.7168-8.7168v-42.043a8.74122,8.74122,0,0,1,8.7168-8.71606h.20215a8.74134,8.74134,0,0,1,8.71582,8.71606v42.043a8.74212,8.74212,0,0,1-8.71582,8.7168" transform="translate(-296.20386 -296.13069)"/><path class="cls-7" d="M392.56245,367.08369h.20117a8.71729,8.71729,0,0,1,8.71729,8.71729h0v42.04248a8.716,8.716,0,0,1-8.716,8.71606h-.20337a8.71582,8.71582,0,0,1-8.71582-8.71582h0V375.80049a8.71679,8.71679,0,0,1,8.71679-8.7168Z" transform="translate(-296.20386 -296.13069)"/></svg>