<svg id="Слой_1" data-name="Слой 1" xmlns="http://www.w3.org/2000/svg" viewBox="0 0 227.23907 227.23855"><defs><style>.cls-1{fill:none;stroke:#718c09;stroke-miterlimit:5.57;stroke-width:5.57px;}.cls-2{fill:#aac419;}</style></defs><path class="cls-1" d="M421.79939,421.72549a110.83463,110.83463,0,1,1,0,156.744A110.83442,110.83442,0,0,1,421.79939,421.72549Z" transform="translate(-386.55126 -386.47827)"/><path class="cls-2" d="M500.53963,460.65054a21.61365,21.61365,0,1,1-21.686,21.613,21.64974,21.64974,0,0,1,21.686-21.613" transform="translate(-386.55126 -386.47827)"/><path class="cls-1" d="M500.53963,460.65054a21.61365,21.61365,0,1,1-21.686,21.613A21.64974,21.64974,0,0,1,500.53963,460.65054Z" transform="translate(-386.55126 -386.47827)"/><path class="cls-2" d="M549.90486,437.00955a21.61365,21.61365,0,1,1-21.686,21.613,21.65036,21.65036,0,0,1,21.686-21.613" transform="translate(-386.55126 -386.47827)"/><path class="cls-1" d="M549.90486,437.00955a21.61365,21.61365,0,1,1-21.686,21.613A21.65036,21.65036,0,0,1,549.90486,437.00955Z" transform="translate(-386.55126 -386.47827)"/><path class="cls-2" d="M451.66951,435.33841a21.61365,21.61365,0,1,1-21.686,21.613,21.64974,21.64974,0,0,1,21.686-21.613" transform="translate(-386.55126 -386.47827)"/><path class="cls-1" d="M451.66951,435.33841a21.61365,21.61365,0,1,1-21.686,21.613A21.64974,21.64974,0,0,1,451.66951,435.33841Z" transform="translate(-386.55126 -386.47827)"/><path class="cls-2" d="M514.50984,537.406c0-14.17688,1.60987-44.736,11.80371-49.839,10.19385-5.10193,41.42188-4.2279,49.13721.58509,8.45068,5.27,9.84277,35.183,9.84277,49.2539l-13.89794-.27893s-.28418-27.974-2.67383-27.991c-2.38428-.01709-.15039,45.371-.15039,45.371H529.78475s3.543-44.90906,1.5039-45.08106c-3.50928-.28991-1.8501,26.76-3.80517,27.395-1.94971.635-12.97364.585-12.97364.585" transform="translate(-386.55126 -386.47827)"/><path class="cls-1" d="M514.50984,537.406c0-14.17688,1.60987-44.736,11.80371-49.839,10.19385-5.10193,41.42188-4.2279,49.13721.58509,8.45068,5.27,9.84277,35.183,9.84277,49.2539l-13.89794-.27893s-.28418-27.974-2.67383-27.991c-2.38428-.01709-.15039,45.371-.15039,45.371H529.78475s3.543-44.90906,1.5039-45.08106c-3.50928-.28991-1.8501,26.76-3.80517,27.395C525.53377,537.45608,514.50984,537.406,514.50984,537.406Z" transform="translate(-386.55126 -386.47827)"/><path class="cls-2" d="M414.60359,536.2919c0-14.17688,1.60987-44.736,11.80371-49.839,10.19385-5.10193,41.42286-4.22791,49.13721.58508,8.45068,5.27,9.84277,35.183,9.84277,49.25391l-13.89794-.278s-.28418-27.975-2.67383-27.99194c-2.38428-.01709-.15039,45.371-.15039,45.371H429.8785s3.543-44.90906,1.5039-45.08105c-3.50928-.28992-2.69629,27.27807-3.8042,27.395-2.04.212-12.97461.585-12.97461.585" transform="translate(-386.55126 -386.47827)"/><path class="cls-1" d="M414.60359,536.2919c0-14.17688,1.60987-44.736,11.80371-49.839,10.19385-5.10193,41.42286-4.22791,49.13721.58508,8.45068,5.27,9.84277,35.183,9.84277,49.25391l-13.89794-.278s-.28418-27.975-2.67383-27.99194c-2.38428-.01709-.15039,45.371-.15039,45.371H429.8785s3.543-44.90906,1.5039-45.08105c-3.50928-.28992-2.69629,27.27807-3.8042,27.395C425.53816,535.919,414.60359,536.2919,414.60359,536.2919Z" transform="translate(-386.55126 -386.47827)"/><path class="cls-2" d="M464.588,560.82986c0-14.17688,1.60888-44.736,11.80371-49.839,10.19385-5.09692,41.42187-4.2279,49.13721.58508,8.4497,5.27,9.84277,35.183,9.84277,49.25391l-13.898-.27893s-.28418-27.974-2.67383-27.991c-2.39013-.01709-.15039,45.371-.15039,45.371h-38.7876s3.543-44.909,1.50489-45.08105c-3.50928-.28992-2.51221,27.69605-3.80518,27.395Z" transform="translate(-386.55126 -386.47827)"/><path class="cls-1" d="M464.588,560.82986c0-14.17688,1.60888-44.736,11.80371-49.839,10.19385-5.09692,41.42187-4.2279,49.13721.58508,8.4497,5.27,9.84277,35.183,9.84277,49.25391l-13.898-.27893s-.28418-27.974-2.67383-27.991c-2.39013-.01709-.15039,45.371-.15039,45.371h-38.7876s3.543-44.909,1.50489-45.08105c-3.50928-.28992-2.51221,27.69605-3.80518,27.395Z" transform="translate(-386.55126 -386.47827)"/></svg>