<svg id="Слой_1" data-name="Слой 1" xmlns="http://www.w3.org/2000/svg" viewBox="0 0 407.93311 407.93396"><defs><style>.cls-1{fill:#aac419;}.cls-2{fill:none;stroke-width:10px;}.cls-2,.cls-3{stroke:#718c09;stroke-miterlimit:10;}.cls-3{fill:#718c09;}</style></defs><path class="cls-1" d="M441.59578,560.03488c1.2168-1.54895,3.1919-4.00891,5.75879-6.945,3.56592-4.079,4.58594-4.86194,7.96094-8.808,2.90918-3.401,4.71582-5.818,6.437-8.13,3.42822-4.607,4.127-6.025,4.51611-6.88806a25.79673,25.79673,0,0,0,2.146-7.8479c.14209-1.474-.01123-1.3761,0-6.776.00976-4.589.11914-4.38806,0-5.47607a20.238,20.238,0,0,0-2.48487-7.792,19.06472,19.06472,0,0,0-4.0083-4.79895,25.78474,25.78474,0,0,0-7.62207-4.46106c-2.83789-1.17395-3.604-1.151-8.52588-2.59692-5.35791-1.5741-8.94482-2.646-13.15576-4.79907-2.91015-1.48792-4.81933-2.48792-6.77441-4.63a13.92071,13.92071,0,0,1-3.1626-15.07495,15.67441,15.67441,0,0,1,3.501-6.041,15.93447,15.93447,0,0,1,5.81494-3.84,16.39161,16.39161,0,0,1,7.73584-.959c2.23682.271,2.78516.828,6.71826,2.14489,1.85254.62,1.46777.40808,7.792,2.146,3.7417,1.02808,7.63672,1.598,11.23584,3.04907a20.68356,20.68356,0,0,0,5.70215,1.18494,4.60808,4.60808,0,0,0,2.936-.50794,3.8177,3.8177,0,0,0,1.69384-2.428c.20411-1.33509-.61328-2.381-1.41113-3.557-1.27685-1.88208-2.14111-4.01306-3.2749-5.985-1.99414-3.468-2.186-6.96008-2.37109-10.332a32.77637,32.77637,0,0,1,2.37109-13.777,28.89059,28.89059,0,0,1,13.60693-15.41308,32.438,32.438,0,0,1,10.04981-3.557,30.88212,30.88212,0,0,1,9.76806-.16992,30.25175,30.25175,0,0,1,9.71192,3.33093A33.90194,33.90194,0,0,1,531.87654,435.651c.40821,3.762.87207,8.03991-1.29883,12.19592a70.258,70.258,0,0,1-4.855,8.469,4.92665,4.92665,0,0,0-1.01709,2.31507,3.92812,3.92812,0,0,0,.67774,2.993,4.20729,4.20729,0,0,0,3.21826,1.298c1.27686.056,1.98779-.33508,3.95166-1.016,1.374-.47607,2.79248-.81006,4.1792-1.24206,3.37891-1.053,3.94092-1.00293,9.48486-2.485,4.80518-1.28393,8.3003-2.31494,8.3003-2.31494,3.92285-1.156,4.73291-1.488,6.5498-1.63709a16.49141,16.49141,0,0,1,6.88818.734,16.69543,16.69543,0,0,1,10.6709,15.86609,15.21031,15.21031,0,0,1-2.59717,7.678,17.5005,17.5005,0,0,1-5.98486,5.59c-2.46094,1.479-3.69678,1.522-9.373,3.105-5.47216,1.527-4.082,1.42-12.082,3.783-6.771,2.00109-7.47509,1.99206-9.65478,3.16211a18.03466,18.03466,0,0,0-10.22022,12.92993,24.15525,24.15525,0,0,0-.67675,7.678,23.67293,23.67293,0,0,0,2.48388,8.865c1.33887,2.62707,2.458,3.56909,5.30713,6.94409,1.24561,1.47693,3.46582,4.46594,7.90479,10.44592,4.16308,5.60706,3.35009,4.73,8.46923,11.687,1.21,1.645,2.95166,4.108,6.436,9.03406,2.89258,4.088,3.55762,5.06995,4.12158,6.83191a16.80961,16.80961,0,0,1,.05713,9.71106,15.36948,15.36948,0,0,1-4.96875,7.792,15.10108,15.10108,0,0,1-8.46924,3.33106,16.42974,16.42974,0,0,1-9.48584-2.42811c-1.42285-.79992-2.374-1.573-6.7749-5.985-3.69141-3.70093-5.53711-5.5509-7.96143-8.187-5.38379-5.854-8.91992-9.93689-8.91992-9.93689-2.97363-3.432-4.15088-4.91712-6.66308-6.38a15.96728,15.96728,0,0,0-15.6958-.62109c-1.98975.968-2.2168,1.55505-7.73487,6.54907-4.271,3.865-4.18213,3.55591-7.45312,6.606-1.71192,1.597-1.59375,1.548-6.832,6.663a92.64667,92.64667,0,0,1-8.582,7.848c-2.54589,1.965-3.85986,2.963-5.87207,3.67a15.27114,15.27114,0,0,1-16.26074-3.953,16.24332,16.24332,0,0,1-4.291-9.09,16.87172,16.87172,0,0,1,1.355-9.259,16.6986,16.6986,0,0,1,3.38818-4.85608" transform="translate(-296.20418 -296.13058)"/><path class="cls-2" d="M441.59578,560.03488c1.2168-1.54895,3.1919-4.00891,5.75879-6.945,3.56592-4.079,4.58594-4.86194,7.96094-8.808,2.90918-3.401,4.71582-5.818,6.437-8.13,3.42822-4.607,4.127-6.025,4.51611-6.88806a25.79673,25.79673,0,0,0,2.146-7.8479c.14209-1.474-.01123-1.3761,0-6.776.00976-4.589.11914-4.38806,0-5.47607a20.238,20.238,0,0,0-2.48487-7.792,19.06472,19.06472,0,0,0-4.0083-4.79895,25.78474,25.78474,0,0,0-7.62207-4.46106c-2.83789-1.17395-3.604-1.151-8.52588-2.59692-5.35791-1.5741-8.94482-2.646-13.15576-4.79907-2.91015-1.48792-4.81933-2.48792-6.77441-4.63a13.92071,13.92071,0,0,1-3.1626-15.07495,15.67441,15.67441,0,0,1,3.501-6.041,15.93447,15.93447,0,0,1,5.81494-3.84,16.39161,16.39161,0,0,1,7.73584-.959c2.23682.271,2.78516.828,6.71826,2.14489,1.85254.62,1.46777.40808,7.792,2.146,3.7417,1.02808,7.63672,1.598,11.23584,3.04907a20.68356,20.68356,0,0,0,5.70215,1.18494,4.60808,4.60808,0,0,0,2.936-.50794,3.8177,3.8177,0,0,0,1.69384-2.428c.20411-1.33509-.61328-2.381-1.41113-3.557-1.27685-1.88208-2.14111-4.01306-3.2749-5.985-1.99414-3.468-2.186-6.96008-2.37109-10.332a32.77637,32.77637,0,0,1,2.37109-13.777,28.89059,28.89059,0,0,1,13.60693-15.41308,32.438,32.438,0,0,1,10.04981-3.557,30.88212,30.88212,0,0,1,9.76806-.16992,30.25175,30.25175,0,0,1,9.71192,3.33093A33.90194,33.90194,0,0,1,531.87654,435.651c.40821,3.762.87207,8.03991-1.29883,12.19592a70.258,70.258,0,0,1-4.855,8.469,4.92665,4.92665,0,0,0-1.01709,2.31507,3.92812,3.92812,0,0,0,.67774,2.993,4.20729,4.20729,0,0,0,3.21826,1.298c1.27686.056,1.98779-.33508,3.95166-1.016,1.374-.47607,2.79248-.81006,4.1792-1.24206,3.37891-1.053,3.94092-1.00293,9.48486-2.485,4.80518-1.28393,8.3003-2.31494,8.3003-2.31494,3.92285-1.156,4.73291-1.488,6.5498-1.63709a16.49141,16.49141,0,0,1,6.88818.734,16.69543,16.69543,0,0,1,10.6709,15.86609,15.21031,15.21031,0,0,1-2.59717,7.678,17.5005,17.5005,0,0,1-5.98486,5.59c-2.46094,1.479-3.69678,1.522-9.373,3.105-5.47216,1.527-4.082,1.42-12.082,3.783-6.771,2.00109-7.47509,1.99206-9.65478,3.16211a18.03466,18.03466,0,0,0-10.22022,12.92993,24.15525,24.15525,0,0,0-.67675,7.678,23.67293,23.67293,0,0,0,2.48388,8.865c1.33887,2.62707,2.458,3.56909,5.30713,6.94409,1.24561,1.47693,3.46582,4.46594,7.90479,10.44592,4.16308,5.60706,3.35009,4.73,8.46923,11.687,1.21,1.645,2.95166,4.108,6.436,9.03406,2.89258,4.088,3.55762,5.06995,4.12158,6.83191a16.80961,16.80961,0,0,1,.05713,9.71106,15.36948,15.36948,0,0,1-4.96875,7.792,15.10108,15.10108,0,0,1-8.46924,3.33106,16.42974,16.42974,0,0,1-9.48584-2.42811c-1.42285-.79992-2.374-1.573-6.7749-5.985-3.69141-3.70093-5.53711-5.5509-7.96143-8.187-5.38379-5.854-8.91992-9.93689-8.91992-9.93689-2.97363-3.432-4.15088-4.91712-6.66308-6.38a15.96728,15.96728,0,0,0-15.6958-.62109c-1.98975.968-2.2168,1.55505-7.73487,6.54907-4.271,3.865-4.18213,3.55591-7.45312,6.606-1.71192,1.597-1.59375,1.548-6.832,6.663a92.64667,92.64667,0,0,1-8.582,7.848c-2.54589,1.965-3.85986,2.963-5.87207,3.67a15.27114,15.27114,0,0,1-16.26074-3.953,16.24332,16.24332,0,0,1-4.291-9.09,16.87172,16.87172,0,0,1,1.355-9.259A16.6986,16.6986,0,0,1,441.59578,560.03488Z" transform="translate(-296.20418 -296.13058)"/><circle class="cls-2" cx="500.17085" cy="500.09753" r="198.96686" transform="translate(-503.32988 204.0188) rotate(-45)"/><path class="cls-3" d="M633.30428,475.49142a97.10748,97.10748,0,0,0-7.957-56.5c-12.28809-26.26794-37.42432-44.745-65.73145-50.106a92.88051,92.88051,0,0,0-24.16455-1.673c-6.376.484-6.4292,10.488,0,10a86.21911,86.21911,0,0,1,47.63867,10.60693c23.52393,13.09607,38.63135,37.51209,41.01709,64.186a96.49376,96.49376,0,0,1,.22412,14.345q-.13989,2.343-.40527,4.676a14.25549,14.25549,0,0,1-.26465,1.807c-1.061,6.29407,8.57373,9,9.64307,2.658" transform="translate(-296.20418 -296.13058)"/><path class="cls-3" d="M606.462,447.75424q8.57373,14.81415,17.147,29.62707c3.22266,5.568,11.86768.53894,8.63477-5.047q-8.57373-14.814-17.147-29.62708c-3.22315-5.568-11.86817-.53894-8.63477,5.047" transform="translate(-296.20418 -296.13058)"/><path class="cls-3" d="M641.87361,443.546q-8.70336,14.7376-17.40527,29.47607c-3.27979,5.554,5.36084,10.59094,8.63379,5.047q8.70336-14.73742,17.40625-29.47595c3.27978-5.55408-5.36182-10.59107-8.63477-5.04712" transform="translate(-296.20418 -296.13058)"/><path class="cls-3" d="M371.65828,519.90658a96.66542,96.66542,0,0,0,6.26563,58.54712c11.623,26.26294,35.82128,45.08191,63.6372,51.40588a92.87232,92.87232,0,0,0,23.146,2.51111c6.4209-.192,6.44775-10.193,0-10a86.07119,86.07119,0,0,1-45.83887-12.17c-23.44726-13.991-37.71-39.287-39.01221-66.37195a82.21334,82.21334,0,0,1,1.44483-21.264c1.35742-6.274-8.28076-8.95508-9.64258-2.65808" transform="translate(-296.20418 -296.13058)"/><path class="cls-3" d="M397.14705,548.42978q-7.88159-15.19336-15.76221-30.387c-2.96386-5.714-11.59619-.663-8.63427,5.048q7.88012,15.19353,15.76123,30.3861c2.96484,5.715,11.59716.66394,8.63525-5.04711" transform="translate(-296.20418 -296.13058)"/><path class="cls-3" d="M361.8116,551.005l18.74658-28.641c3.53516-5.401-5.11963-10.417-8.63476-5.047l-18.74707,28.641c-3.53418,5.4,5.12109,10.416,8.63525,5.047" transform="translate(-296.20418 -296.13058)"/></svg>