<svg id="Слой_16" data-name="Слой 16" xmlns="http://www.w3.org/2000/svg" viewBox="0 0 407.93311 407.93324"><defs><style>.cls-1{fill:none;}.cls-1,.cls-2{stroke:#adc79d;stroke-miterlimit:10;stroke-width:10px;}.cls-2,.cls-3{fill:#777a74;}.cls-4{fill:#adc79d;}</style></defs><circle class="cls-1" cx="203.96655" cy="203.96662" r="198.96658"/><path class="cls-2" d="M10613.31327,1482.10057h-162.08252a8.73833,8.73833,0,0,1-8.73828-8.73859V1311.27989a8.73833,8.73833,0,0,1,8.73828-8.73859l42.9624,0q58.53882,0,117.07715,0a11.01159,11.01159,0,0,1,7.624,3.15768,10.7484,10.7484,0,0,1,3.15722,7.62345V1473.362A8.73833,8.73833,0,0,1,10613.31327,1482.10057Z" transform="translate(-10328.30545 -1184.44944)"/><line class="cls-3" x1="184.68993" y1="114.93486" x2="184.68993" y2="89.91359"/><path class="cls-4" d="M10517.99538,1299.3843V1274.363c0-6.43452-10-6.44518-10,0v25.02127c0,6.43452,10,6.44518,10,0Z" transform="translate(-10328.30545 -1184.44944)"/><line class="cls-3" x1="223.24312" y1="114.93486" x2="223.24312" y2="89.91359"/><path class="cls-4" d="M10556.54857,1299.3843V1274.363c0-6.43452-10-6.44518-10,0v25.02127c0,6.43452,10,6.44518,10,0Z" transform="translate(-10328.30545 -1184.44944)"/><line class="cls-3" x1="261.79632" y1="114.93486" x2="261.79632" y2="89.91359"/><path class="cls-4" d="M10595.10176,1299.3843V1274.363c0-6.43452-10-6.44518-10,0v25.02127c0,6.43452,10,6.44518,10,0Z" transform="translate(-10328.30545 -1184.44944)"/><line class="cls-3" x1="146.13674" y1="114.93486" x2="146.13674" y2="89.91359"/><path class="cls-4" d="M10479.44219,1299.3843V1274.363c0-6.43452-10-6.44518-10,0v25.02127c0,6.43452,10,6.44518,10,0Z" transform="translate(-10328.30545 -1184.44944)"/><line class="cls-3" x1="184.68993" y1="322.6724" x2="184.68993" y2="297.65113"/><path class="cls-4" d="M10517.99538,1507.12184v-25.02127c0-6.43452-10-6.44518-10,0v25.02127c0,6.43453,10,6.44518,10,0Z" transform="translate(-10328.30545 -1184.44944)"/><line class="cls-3" x1="223.24312" y1="322.6724" x2="223.24312" y2="297.65113"/><path class="cls-4" d="M10556.54857,1507.12184v-25.02127c0-6.43452-10-6.44518-10,0v25.02127c0,6.43453,10,6.44518,10,0Z" transform="translate(-10328.30545 -1184.44944)"/><line class="cls-3" x1="261.79632" y1="322.6724" x2="261.79632" y2="297.65113"/><path class="cls-4" d="M10595.10176,1507.12184v-25.02127c0-6.43452-10-6.44518-10,0v25.02127c0,6.43453,10,6.44518,10,0Z" transform="translate(-10328.30545 -1184.44944)"/><line class="cls-3" x1="146.13674" y1="322.6724" x2="146.13674" y2="297.65113"/><path class="cls-4" d="M10479.44219,1507.12184v-25.02127c0-6.43452-10-6.44518-10,0v25.02127c0,6.43453,10,6.44518,10,0Z" transform="translate(-10328.30545 -1184.44944)"/><line class="cls-3" x1="86.03166" y1="188.5949" x2="111.05292" y2="188.59489"/><path class="cls-4" d="M10414.3371,1378.04434l25.02127,0c6.43452,0,6.44518-10,0-10l-25.02127,0c-6.43452,0-6.44518,10,0,10Z" transform="translate(-10328.30545 -1184.44944)"/><line class="cls-3" x1="86.03167" y1="227.14809" x2="111.05294" y2="227.14808"/><path class="cls-4" d="M10414.33711,1416.59753l25.02127,0c6.43453,0,6.44518-10,0-10l-25.02127,0c-6.43452,0-6.44518,10,0,10Z" transform="translate(-10328.30545 -1184.44944)"/><line class="cls-3" x1="86.03168" y1="265.70128" x2="111.05295" y2="265.70128"/><path class="cls-4" d="M10414.33713,1455.15072h25.02127c6.43452,0,6.44518-10,0-10h-25.02127c-6.43453,0-6.44518,10,0,10Z" transform="translate(-10328.30545 -1184.44944)"/><line class="cls-3" x1="86.03164" y1="150.04171" x2="111.05291" y2="150.0417"/><path class="cls-4" d="M10414.33709,1339.49115l25.02127,0c6.43452,0,6.44518-10,0-10l-25.02127,0c-6.43452,0-6.44518,10,0,10Z" transform="translate(-10328.30545 -1184.44944)"/><line class="cls-3" x1="293.74621" y1="188.5949" x2="318.76748" y2="188.59489"/><path class="cls-4" d="M10622.05165,1378.04434l25.02127,0c6.43452,0,6.44518-10,0-10l-25.02127,0c-6.43452,0-6.44518,10,0,10Z" transform="translate(-10328.30545 -1184.44944)"/><line class="cls-3" x1="293.74622" y1="227.14809" x2="318.76749" y2="227.14808"/><path class="cls-4" d="M10622.05167,1416.59753l25.02126,0c6.43453,0,6.44519-10,0-10l-25.02126,0c-6.43453,0-6.44518,10,0,10Z" transform="translate(-10328.30545 -1184.44944)"/><line class="cls-3" x1="293.74623" y1="265.70128" x2="318.7675" y2="265.70128"/><path class="cls-4" d="M10622.05168,1455.15072h25.02127c6.43452,0,6.44518-10,0-10h-25.02127c-6.43452,0-6.44518,10,0,10Z" transform="translate(-10328.30545 -1184.44944)"/><line class="cls-3" x1="293.7462" y1="150.04171" x2="318.76746" y2="150.0417"/><path class="cls-4" d="M10622.05164,1339.49115l25.02127,0c6.43452,0,6.44518-10,0-10l-25.02127,0c-6.43452,0-6.44518,10,0,10Z" transform="translate(-10328.30545 -1184.44944)"/><circle class="cls-3" cx="231.77638" cy="163.55503" r="13.36372"/><path class="cls-4" d="M10568.4456,1348.00447c-.53953,10.684-16.72754,10.86274-16.72754,0,0-10.86614,16.18786-10.68713,16.72754,0,.32339,6.40419,10.32534,6.4428,10,0-.50281-9.95694-8.02269-18.36368-18.36377-18.36368a18.36367,18.36367,0,1,0,0,36.72735c10.34043,0,17.861-8.40734,18.36377-18.36367C10578.7704,1341.57234,10568.76953,1341.58969,10568.4456,1348.00447Z" transform="translate(-10328.30545 -1184.44944)"/><circle class="cls-3" cx="169.9105" cy="207.87149" r="13.96395"/><path class="cls-4" d="M10507.17989,1392.32093c-.54561,11.47871-17.92789,11.60533-17.92789,0,0-11.59527,17.38158-11.49325,17.92789,0,.30454,6.40687,10.30629,6.44385,10,0-.48895-10.28653-8.29581-18.96394-18.96395-18.96394a18.96394,18.96394,0,0,0,0,37.92789c10.67,0,18.475-8.67646,18.96395-18.96395C10517.48568,1385.88777,10507.48493,1385.90348,10507.17989,1392.32093Z" transform="translate(-10328.30545 -1184.44944)"/><circle class="cls-3" cx="10564.91239" cy="1430.51047" r="12.94824" transform="translate(-10391.24627 -598.01836) rotate(-3.17009)"/><path class="cls-4" d="M10572.86064,1430.51048c-.51278,10.15443-15.89648,10.32433-15.89649,0,0-10.32742,15.3836-10.1568,15.89649,0,.32339,6.40419,10.32534,6.4428,10,0-.4914-9.7311-7.84176-17.94831-17.94825-17.94834a17.94832,17.94832,0,0,0,0,35.89664c10.106,0,17.45688-8.2177,17.94825-17.9483C10583.18544,1424.07836,10573.18456,1424.09571,10572.86064,1430.51048Z" transform="translate(-10328.30545 -1184.44944)"/><path class="cls-3" d="M10622.12431,1385.93794q-13.021-1.14894-26.04248-2.29789l.76611-32.93615-23.40234-2.69943" transform="translate(-10328.30545 -1184.44944)"/><path class="cls-4" d="M10622.12431,1380.93794q-13.02124-1.149-26.04248-2.29789l5,5,.76611-32.93615c.06808-2.927-2.36315-4.69584-5-5l-23.40234-2.69943c-6.3816-.73611-6.32888,9.27,0,10l23.40234,2.69943-5-5-.76611,32.93615c-.06687,2.87469,2.35562,4.76667,5,5q13.02123,1.149,26.04248,2.29789c6.40908.56552,6.371-9.43784,0-10Z" transform="translate(-10328.30545 -1184.44944)"/><path class="cls-3" d="M10497.27323,1302.54127q-10.93578,14.25151-21.87207,28.50305,4.4253,9.19149,8.85108,18.383l22.46777,2.04254q-4.25171,13.44356-8.50391,26.88711" transform="translate(-10328.30545 -1184.44944)"/><path class="cls-4" d="M10492.95588,1300.01767q-10.93592,14.25162-21.87207,28.50306c-1.11222,1.44944-.71476,3.56263,0,5.04719q2.81616,5.84918,5.63253,11.69827c1.43353,2.97728,2.49687,7.20146,5.6095,8.7305,2.90323,1.42618,8.04735.98708,11.288,1.28169l13.1062,1.19148-4.8214-6.3292q-4.25177,13.44361-8.5039,26.88712c-1.9451,6.15018,7.706,8.78221,9.64279,2.65839q4.25176-13.44361,8.50391-26.88711c1.057-3.342-1.74236-6.04929-4.8214-6.3292l-22.46777-2.04254,4.31735,2.4764q-4.42539-9.19156-8.85107-18.383v5.04719q10.9359-14.25162,21.87207-28.50305c3.91563-5.10284-4.76631-10.08847-8.63471-5.0472Z" transform="translate(-10328.30545 -1184.44944)"/><path class="cls-3" d="M10469.9539,1476.406q.68115-13.44681,1.36181-26.89362,17.36206-.17019,34.72364-.34042,10.04223-9.19149,20.085-18.383,12.91992-.13925,25.83984-.27853" transform="translate(-10328.30545 -1184.44944)"/><path class="cls-4" d="M10474.9539,1476.406q.68109-13.44681,1.36181-26.89362l-5,5c11.221-.11,22.55313.237,33.75908-.331,4.93257-.25,8.2179-4.87674,11.67326-8.03926q6.45591-5.9088,12.91179-11.81762l-3.53553,1.46446q12.91992-.13926,25.83984-.27853c6.43079-.06932,6.44743-10.0695,0-10l-15.90144.1714c-3.79491.04091-9.04761-.93166-12.462.78978-3.43268,1.73065-6.75664,6.03976-9.61976,8.66023q-5.73859,5.25225-11.47714,10.50455l3.53554-1.46446q-17.36182.17019-34.72364.34042a5.10387,5.10387,0,0,0-5,5q-.68109,13.44679-1.36181,26.89362c-.3258,6.43206,9.67509,6.41462,10,0Z" transform="translate(-10328.30545 -1184.44944)"/></svg>