<svg id="Слой_19" data-name="Слой 19" xmlns="http://www.w3.org/2000/svg" viewBox="0 0 407.93311 407.93324"><defs><style>.cls-1{fill:#777a74;}.cls-2{fill:#adc79d;}.cls-3{fill:none;stroke:#adc79d;stroke-miterlimit:10;stroke-width:10px;}</style></defs><path class="cls-1" d="M11503.811,1383.23a84.38875,84.38875,0,1,0-168.7775,0c0,5.30477-.4966,14.5424,3.78843,25.07749,10.68965,26.2821,36.75861,28.03873,45.40928,51.641,2.24224,6.118,4.20818,16.14234,0,30.991,0,12.714,70.38209,12.714,70.38209,0-4.20819-14.84873-2.24225-24.87312,0-30.991,8.65028-23.602,34.71848-25.35876,45.40852-51.641C11504.30722,1397.772,11503.811,1388.53385,11503.811,1383.23Z" transform="translate(-11213.59946 -1179.61295)"/><path class="cls-2" d="M11508.811,1383.23c-.38807-47.42331-38.26916-87.36411-85.87584-89.31415-47.71661-1.95455-89.16671,35.571-92.6674,83.01689-.88371,11.97716-.13144,24.19707,4.824,35.28312,4.60057,10.29216,12.50656,17.95652,21.3216,24.70337,8.09936,6.1991,16.9566,11.99564,21.6787,21.37669a34.28522,34.28522,0,0,1,3.48025,12.615,47.79577,47.79577,0,0,1-.08829,8.24442c-.37165,3.91913-2.15781,7.90827-2.25281,11.78416-.313,12.77058,23.22835,13.7583,31.47474,14.27065a134.25,134.25,0,0,0,24.7853-.68018c6.23836-.773,13.15982-1.73352,18.618-5.10214,8.69807-5.36818,3.66994-13.44512,3.13544-21.76294-.66-10.2711,2.21838-20.06579,9.33411-27.66635,6.9477-7.42108,15.95236-12.484,23.45093-19.28839a55.53107,55.53107,0,0,0,17.70047-31.07886,89.71666,89.71666,0,0,0,1.08078-16.40133c-.0258-6.43331-10.02585-6.4462-10,0,.04692,11.69776-1.49006,22.705-8.53388,32.45139-5.559,7.69194-13.56812,13.00159-20.98672,18.71107-7.33987,5.64889-14.1018,12.01656-18.00248,20.58518-4.112,9.03281-4.86764,18.88051-3.37554,28.63051a27.10925,27.10925,0,0,0,1.808,6.69545c.3592.71722.08467-.71836-.052.11363.13989-.8516.36157-.09836-.28912.19145a42.545,42.545,0,0,1-4.97741,2.10193,79.66385,79.66385,0,0,1-19.13857,2.64673,126.314,126.314,0,0,1-22.11424-.85575,59.70287,59.70287,0,0,1-8.70641-1.791,42.00267,42.00267,0,0,1-4.9774-2.10193c-1.09779-.48714-.11349-.67185-.25274.03174.26819-1.35506,1.3759-4.78365,1.71962-7.03223a55.47872,55.47872,0,0,0,.21542-16.40972,44.60145,44.60145,0,0,0-11.01868-23.4053c-6.35034-7.12818-14.67482-12.03614-21.92732-18.13418-8.5742-7.20936-14.779-16.00435-17.13534-27.10311-4.28336-20.17544,1.239-42.95379,12.60514-59.84872A79.38675,79.38675,0,0,1,11498.811,1383.23C11498.86364,1389.66177,11508.86376,1389.677,11508.811,1383.23Z" transform="translate(-11213.59946 -1179.61295)"/><path class="cls-1" d="M11450.221,1526.00587a90.46373,90.46373,0,0,1-63.3335-1.1875l-3.67236-15.05566a126.04133,126.04133,0,0,0,71.35986.014Q11452.39746,1517.89135,11450.221,1526.00587Z" transform="translate(-11213.59946 -1179.61295)"/><path class="cls-2" d="M11448.89175,1521.18448a87.60292,87.60292,0,0,1-60.6751-1.1875l3.49219,3.4922-3.67236-15.05567-6.15059,6.15059a133.06967,133.06967,0,0,0,74.01826.014l-6.1506-6.15059q-2.17737,8.11446-4.354,16.22913c-1.66928,6.22277,7.97445,8.87765,9.64279,2.65839q2.17678-8.11463,4.354-16.22912a5.04658,5.04658,0,0,0-6.15059-6.1506,123.042,123.042,0,0,1-68.70147-.014,5.05014,5.05014,0,0,0-6.15059,6.1506c1.14227,4.683,2.05811,9.49853,3.44284,14.11468,1.07616,3.5875,3.36977,4.36629,6.66992,5.5381a93.713,93.713,0,0,0,18.914,4.50666,96.04726,96.04726,0,0,0,44.12966-4.42408C11457.59585,1528.7377,11454.99733,1519.07421,11448.89175,1521.18448Z" transform="translate(-11213.59946 -1179.61295)"/><path class="cls-1" d="M11437.95012,1328.92445a35.501,35.501,0,0,1,24.93723,10.29166c10.631,10.77518,10.02652,24.38857,9.89594,26.52079" transform="translate(-11213.59946 -1179.61295)"/><path class="cls-2" d="M11437.95012,1333.92445a30.08479,30.08479,0,0,1,29.83317,31.81245c-.35832,6.43,9.64281,6.40977,10,0,1.25429-22.50789-17.40327-41.83944-39.83317-41.81245-6.43418.00774-6.44551,10.00775,0,10Z" transform="translate(-11213.59946 -1179.61295)"/><line class="cls-1" x1="283.84726" y1="114.40052" x2="309.20897" y2="89.03882"/><path class="cls-2" d="M11500.98225,1297.549l25.3617-25.3617c4.5564-4.5564-2.51271-11.62942-7.07106-7.07107l-25.36171,25.3617c-4.5564,4.5564,2.51272,11.62942,7.07107,7.07107Z" transform="translate(-11213.59946 -1179.61295)"/><line class="cls-1" x1="94.03633" y1="304.89231" x2="119.39803" y2="279.53061"/><path class="cls-2" d="M11311.17131,1488.0408l25.36171-25.3617c4.5564-4.5564-2.51272-11.62942-7.07107-7.07107l-25.3617,25.3617c-4.5564,4.5564,2.51271,11.62942,7.07106,7.07107Z" transform="translate(-11213.59946 -1179.61295)"/><line class="cls-1" x1="309.20897" y1="309.20903" x2="283.84726" y2="283.84733"/><path class="cls-2" d="M11526.344,1485.28645l-25.3617-25.3617c-4.5564-4.5564-11.62942,2.51271-7.07107,7.07107l25.36171,25.3617c4.5564,4.5564,11.62942-2.51271,7.07106-7.07107Z" transform="translate(-11213.59946 -1179.61295)"/><line class="cls-1" x1="94.03633" y1="94.03639" x2="119.39803" y2="119.39809"/><path class="cls-2" d="M11304.10025,1277.18488l25.3617,25.3617c4.5564,4.5564,11.62942-2.51271,7.07107-7.07107l-25.36171-25.3617c-4.5564-4.5564-11.62942,2.51272-7.07106,7.07107Z" transform="translate(-11213.59946 -1179.61295)"/><line class="cls-1" x1="320.80745" y1="205.29414" x2="356.67431" y2="205.29414"/><path class="cls-2" d="M11534.4069,1389.90709h35.86687c6.43452,0,6.44518-10,0-10h-35.86687c-6.43452,0-6.44518,10,0,10Z" transform="translate(-11213.59946 -1179.61295)"/><line class="cls-1" x1="58.33936" y1="205.29414" x2="94.20623" y2="205.29414"/><path class="cls-2" d="M11271.93882,1389.90709h35.86686c6.43452,0,6.44518-10,0-10h-35.86686c-6.43452,0-6.44518,10,0,10Z" transform="translate(-11213.59946 -1179.61295)"/><line class="cls-1" x1="201.80471" y1="85.69566" x2="201.80471" y2="49.82879"/><path class="cls-2" d="M11420.40417,1265.30861v-35.86686c0-6.43453-10-6.44518-10,0v35.86686c0,6.43452,10,6.44518,10,0Z" transform="translate(-11213.59946 -1179.61295)"/><circle class="cls-3" cx="203.96655" cy="203.96662" r="198.96658"/></svg>