<svg id="Слой_31" data-name="Слой 31" xmlns="http://www.w3.org/2000/svg" viewBox="0 0 407.93555 407.93396"><defs><style>.cls-1,.cls-3,.cls-4{fill:none;stroke-miterlimit:10;}.cls-1{stroke:#adc79d;stroke-width:10px;}.cls-2{fill:#787974;}.cls-3,.cls-4{stroke:#aec89d;}.cls-4{stroke-width:9.361px;}</style></defs><circle class="cls-1" cx="10110.0591" cy="3176.06151" r="198.96716" transform="translate(-9190.7387 5107.04367) rotate(-45)"/><rect class="cls-2" x="82.62793" y="81.62927" width="241.85547" height="236.15601"/><rect class="cls-3" x="82.62793" y="81.62927" width="241.85547" height="236.15601"/><rect class="cls-2" x="82.62793" y="81.62927" width="241.85547" height="236.15601"/><rect class="cls-4" x="82.62793" y="81.62927" width="241.85547" height="236.15601"/><rect class="cls-2" x="82.62793" y="81.6283" width="120.92871" height="118.07898"/><rect class="cls-3" x="82.62793" y="81.6283" width="120.92871" height="118.07898"/><rect class="cls-2" x="82.62793" y="81.6283" width="120.92871" height="118.07898"/><rect class="cls-4" x="82.62793" y="81.6283" width="120.92871" height="118.07898"/><rect class="cls-2" x="82.62793" y="200.51233" width="120.92871" height="118.078"/><rect class="cls-3" x="82.62793" y="200.51233" width="120.92871" height="118.078"/><rect class="cls-2" x="82.62793" y="200.51233" width="120.92871" height="118.078"/><rect class="cls-4" x="82.62793" y="200.51233" width="120.92871" height="118.078"/><rect class="cls-2" x="204.38086" y="82.4353" width="120.92871" height="118.078"/><rect class="cls-3" x="204.38086" y="82.4353" width="120.92871" height="118.078"/><rect class="cls-2" x="204.38086" y="82.4353" width="120.92871" height="118.078"/><rect class="cls-4" x="204.38086" y="82.4353" width="120.92871" height="118.078"/><rect class="cls-2" x="204.38086" y="200.51233" width="120.92871" height="118.078"/><rect class="cls-3" x="204.38086" y="200.51233" width="120.92871" height="118.078"/><rect class="cls-2" x="204.38086" y="200.51233" width="120.92871" height="118.078"/><rect class="cls-4" x="204.38086" y="200.51233" width="120.92871" height="118.078"/><line class="cls-2" x1="110.69336" y1="140.66003" x2="176.72656" y2="140.66003"/><line class="cls-4" x1="110.69336" y1="140.66003" x2="176.72656" y2="140.66003"/><line class="cls-2" x1="295.2959" y1="114.06226" x2="232.56152" y2="168.86926"/><line class="cls-4" x1="295.2959" y1="114.06226" x2="232.56152" y2="168.86926"/><line class="cls-2" x1="236.32617" y1="110.45129" x2="293.3623" y2="170.8844"/><line class="cls-4" x1="236.32617" y1="110.45129" x2="293.3623" y2="170.8844"/><line class="cls-2" x1="143.71094" y1="300.64941" x2="143.71094" y2="218.45447"/><line class="cls-4" x1="143.71094" y1="300.64941" x2="143.71094" y2="218.45447"/><line class="cls-2" x1="189.11035" y1="259.55994" x2="104.91504" y2="259.55994"/><line class="cls-4" x1="189.11035" y1="259.55994" x2="104.91504" y2="259.55994"/><line class="cls-2" x1="231.83594" y1="273.45532" x2="297.86914" y2="273.45532"/><line class="cls-4" x1="231.83594" y1="273.45532" x2="297.86914" y2="273.45532"/><line class="cls-2" x1="230.91113" y1="247.66345" x2="296.94531" y2="247.66345"/><line class="cls-4" x1="230.91113" y1="247.66345" x2="296.94531" y2="247.66345"/></svg>