<svg id="Слой_1" data-name="Слой 1" xmlns="http://www.w3.org/2000/svg" viewBox="0 0 407.93374 407.93374"><defs><style>.cls-1{fill:none;stroke-miterlimit:10;stroke-width:10px;}.cls-1,.cls-3{stroke:#718c09;}.cls-2{fill:#f993aa;}.cls-3{fill:#718c09;stroke-miterlimit:10;}.cls-4{fill:#aac419;}</style></defs><circle class="cls-1" cx="203.96687" cy="203.96687" r="198.96679"/><polygon class="cls-2" points="247.064 255.121 203.347 319.58 195.688 313.836 240.948 245.36 195.688 178.218 203.347 171.836 247.064 236.613 290.142 171.836 299.077 177.58 252.807 245.36 299.077 314.474 290.78 319.58 247.064 255.121"/><path class="cls-3" d="M538.95,548.72813l-43.71679,64.45849,6.84082-1.7937-7.65821-5.7439,1.79395,6.84082,45.25976-68.47607a4.902,4.902,0,0,0,0-5.04712l-45.25976-67.14209-.78223,6.05908,7.65821-6.38183-7.85254-1.012L538.95,535.26719a5.07179,5.07179,0,0,0,8.63477,0l43.07812-64.77735-6.84082,1.79371,8.93555,5.74389-1.79394-6.84106-46.27051,67.78a4.88888,4.88888,0,0,0,0,5.04712l46.27051,69.11425,1.79394-6.84106-8.29687,5.10547,6.84082,1.7937-43.7168-64.4585c-3.5918-5.29638-12.25977-.29834-8.63477,5.04712l43.7168,64.4585a5.09212,5.09212,0,0,0,6.84082,1.7937l8.29688-5.10547c2.19531-1.35059,3.32714-4.55005,1.79394-6.84106L553.3279,538.96592V544.013l46.27051-67.78c1.56934-2.29834.35156-5.46192-1.79394-6.84107l-8.93555-5.74389c-2.36621-1.52149-5.39551-.37964-6.84082,1.7937L538.95,530.21909h8.63477l-43.7168-64.77734a5.09721,5.09721,0,0,0-7.85254-1.012l-7.6582,6.38183a5.00966,5.00966,0,0,0-.78223,6.05908l45.25977,67.14209v-5.04712L487.575,607.44175c-1.61035,2.43652-.26855,5.29419,1.79395,6.84106l7.6582,5.7439c2.26172,1.69629,5.4668.23218,6.84082-1.7937l43.7168-64.4585C551.20681,548.43516,542.54568,543.42612,538.95,548.72813Z" transform="translate(-296.20386 -296.13069)"/><path class="cls-4" d="M617.53786,402.71006q-79.93506-.47864-159.87011-.95728-16.03419,88.07228-32.06934,176.14405Q411.24,532.18565,396.87966,486.47422q-23.69385.71814-47.38672,1.436l-3.35058,15.3169,38.292-.47852,33.9834,112.96167,21.06054-.47851q16.03419-91.90137,32.06934-183.80249l144.55273,2.39331Q616.82107,418.266,617.53786,402.71006Z" transform="translate(-296.20386 -296.13069)"/><path class="cls-3" d="M617.53786,397.71006q-79.93506-.47864-159.87011-.95728c-2.03028-.0122-4.43457,1.54834-4.82129,3.6709Q436.81082,488.496,420.77712,576.56773h9.64258q-14.35986-45.71119-28.71875-91.42261a5.1096,5.1096,0,0,0-4.82129-3.6709q-23.69385.71814-47.38672,1.436a5.093,5.093,0,0,0-4.82129,3.6709l-3.35058,15.3169a5.06262,5.06262,0,0,0,4.82129,6.3291l38.292-.47852-4.82129-3.6709L413.59743,617.0394a5.103,5.103,0,0,0,4.82129,3.6709l21.06055-.47851c2.02246-.0459,4.44336-1.50635,4.82129-3.6709q16.03564-91.90137,32.06934-183.80249l-4.82129,3.6709,144.55273,2.39331a5.09114,5.09114,0,0,0,5-5q.71778-15.55591,1.43555-31.11231c.29687-6.43359-9.7041-6.4187-10,0q-.71778,15.55627-1.43555,31.11231l5-5L471.54861,426.4293c-2.01465-.03345-4.45313,1.563-4.82129,3.6709Q450.69168,522.00193,434.658,613.90269l4.82129-3.6709-21.06055.47851,4.82129,3.6709L389.25564,501.41953a5.10993,5.10993,0,0,0-4.82129-3.6709l-38.292.47852,4.82129,6.3291,3.35058-15.31689-4.82129,3.67089q23.69385-.71777,47.38672-1.436l-4.82129-3.6709q14.35986,45.71118,28.71875,91.42261c1.37012,4.36011,8.70606,5.14306,9.64258,0q16.03418-88.07227,32.06934-176.144l-4.82129,3.67089q79.93359.479,159.87011.95728C623.97439,407.74863,623.98122,397.74863,617.53786,397.71006Z" transform="translate(-296.20386 -296.13069)"/></svg>