<svg id="Слой_1" data-name="Слой 1" xmlns="http://www.w3.org/2000/svg" viewBox="0 0 407.93331 407.93331"><defs><style>.cls-1,.cls-3,.cls-4,.cls-6,.cls-9{fill:none;}.cls-1,.cls-3,.cls-7{stroke:#718c09;}.cls-1{stroke-miterlimit:10;stroke-width:10px;}.cls-2{fill:#aac419;}.cls-11,.cls-2{stroke:#b8e87c;}.cls-10,.cls-11,.cls-2,.cls-3,.cls-6,.cls-7,.cls-9{stroke-miterlimit:10;}.cls-3{stroke-width:10px;}.cls-5{fill:#331013;}.cls-6{stroke:#331013;}.cls-7{fill:#718c09;}.cls-8{fill:#7b7575;}.cls-9{stroke:#7b7575;}.cls-10{fill:#4a6401;stroke:#4a6401;}.cls-11{fill:#b8e87c;}</style></defs><circle class="cls-1" cx="500.17073" cy="500.09756" r="198.96679" transform="translate(-503.32984 204.0184) rotate(-45)"/><path class="cls-2" d="M628.53233,607.81043h-256.979a20.12039,20.12039,0,0,1-20.28808-19.82495V419.46937a20.12028,20.12028,0,0,1,20.28808-19.82593h256.979a20.12019,20.12019,0,0,1,20.2876,19.82593V587.98548a20.12013,20.12013,0,0,1-20.2876,19.82495" transform="translate(-296.20408 -296.13091)"/><path class="cls-3" d="M628.53233,607.81043h-256.979a20.12039,20.12039,0,0,1-20.28808-19.82495V419.46937a20.12028,20.12028,0,0,1,20.28808-19.82593h256.979a20.12019,20.12019,0,0,1,20.2876,19.82593V587.98548A20.12013,20.12013,0,0,1,628.53233,607.81043Z" transform="translate(-296.20408 -296.13091)"/><line class="cls-4" x1="55.71497" y1="156.86312" x2="353.26868" y2="156.86312"/><line class="cls-3" x1="55.71497" y1="156.86312" x2="353.26868" y2="156.86312"/><rect class="cls-5" x="194.41419" y="175.21175" width="24.13379" height="23.58398"/><rect class="cls-6" x="194.41419" y="175.21175" width="24.13379" height="23.58398"/><rect class="cls-5" x="194.41419" y="175.21175" width="24.13379" height="23.58398"/><rect class="cls-7" x="194.41419" y="175.21175" width="24.13379" height="23.58398"/><rect class="cls-5" x="247.10022" y="175.08382" width="24.13477" height="23.58398"/><rect class="cls-6" x="247.10022" y="175.08382" width="24.13477" height="23.58398"/><rect class="cls-5" x="247.10022" y="175.08382" width="24.13477" height="23.58398"/><rect class="cls-7" x="247.10022" y="175.08382" width="24.13477" height="23.58398"/><rect class="cls-5" x="299.78821" y="175.21175" width="24.13379" height="23.58398"/><rect class="cls-6" x="299.78821" y="175.21175" width="24.13379" height="23.58398"/><rect class="cls-5" x="299.78821" y="175.21175" width="24.13379" height="23.58398"/><rect class="cls-7" x="299.78821" y="175.21175" width="24.13379" height="23.58398"/><rect class="cls-5" x="85.06116" y="220.05282" width="24.13379" height="23.58496"/><rect class="cls-6" x="85.06116" y="220.05282" width="24.13379" height="23.58496"/><rect class="cls-5" x="85.06116" y="220.05282" width="24.13379" height="23.58496"/><rect class="cls-7" x="85.06116" y="220.05282" width="24.13379" height="23.58496"/><rect class="cls-5" x="140.13001" y="217.56771" width="24.13477" height="23.58398"/><rect class="cls-6" x="140.13001" y="217.56771" width="24.13477" height="23.58398"/><rect class="cls-5" x="140.13001" y="217.56771" width="24.13477" height="23.58398"/><rect class="cls-7" x="140.13001" y="217.56771" width="24.13477" height="23.58398"/><rect class="cls-5" x="195.20081" y="217.56771" width="24.13379" height="23.58398"/><rect class="cls-6" x="195.20081" y="217.56771" width="24.13379" height="23.58398"/><rect class="cls-5" x="195.20081" y="217.56771" width="24.13379" height="23.58398"/><rect class="cls-7" x="195.20081" y="217.56771" width="24.13379" height="23.58398"/><rect class="cls-5" x="247.10022" y="217.56771" width="24.13477" height="23.58398"/><rect class="cls-6" x="247.10022" y="217.56771" width="24.13477" height="23.58398"/><rect class="cls-5" x="247.10022" y="217.56771" width="24.13477" height="23.58398"/><rect class="cls-7" x="247.10022" y="217.56771" width="24.13477" height="23.58398"/><rect class="cls-8" x="299.78821" y="217.56771" width="24.13379" height="23.58398"/><rect class="cls-9" x="299.78821" y="217.56771" width="24.13379" height="23.58398"/><rect class="cls-8" x="299.78821" y="217.56771" width="24.13379" height="23.58398"/><rect class="cls-10" x="299.78821" y="217.56771" width="24.13379" height="23.58398"/><rect class="cls-8" x="85.06116" y="265.02474" width="24.13379" height="23.58398"/><rect class="cls-9" x="85.06116" y="265.02474" width="24.13379" height="23.58398"/><rect class="cls-8" x="85.06116" y="265.02474" width="24.13379" height="23.58398"/><rect class="cls-10" x="85.06116" y="265.02474" width="24.13379" height="23.58398"/><rect class="cls-8" x="140.13001" y="265.02474" width="24.13477" height="23.58398"/><rect class="cls-9" x="140.13001" y="265.02474" width="24.13477" height="23.58398"/><rect class="cls-8" x="140.13001" y="265.02474" width="24.13477" height="23.58398"/><rect class="cls-10" x="140.13001" y="265.02474" width="24.13477" height="23.58398"/><rect class="cls-8" x="195.20081" y="265.02474" width="24.13379" height="23.58398"/><rect class="cls-9" x="195.20081" y="265.02474" width="24.13379" height="23.58398"/><rect class="cls-8" x="195.20081" y="265.02474" width="24.13379" height="23.58398"/><rect class="cls-10" x="195.20081" y="265.02474" width="24.13379" height="23.58398"/><rect class="cls-8" x="247.49427" y="265.02474" width="24.13477" height="23.58398"/><rect class="cls-9" x="247.49427" y="265.02474" width="24.13477" height="23.58398"/><rect class="cls-8" x="247.49427" y="265.02474" width="24.13477" height="23.58398"/><rect class="cls-10" x="247.49427" y="265.02474" width="24.13477" height="23.58398"/><rect class="cls-8" x="299.78821" y="265.02474" width="24.13379" height="23.58398"/><rect class="cls-9" x="299.78821" y="265.02474" width="24.13379" height="23.58398"/><rect class="cls-8" x="299.78821" y="265.02474" width="24.13379" height="23.58398"/><rect class="cls-10" x="299.78821" y="265.02474" width="24.13379" height="23.58398"/><path class="cls-11" d="M608.16026,432.37391h-.20215a8.7426,8.7426,0,0,1-8.71729-8.7168v-42.043a8.74165,8.74165,0,0,1,8.71729-8.71606h.20215a8.741,8.741,0,0,1,8.71582,8.71606v42.043a8.74181,8.74181,0,0,1-8.71582,8.7168" transform="translate(-296.20408 -296.13091)"/><path class="cls-7" d="M608.16026,432.37391h-.20215a8.7426,8.7426,0,0,1-8.71729-8.7168v-42.043a8.74165,8.74165,0,0,1,8.71729-8.71606h.20215a8.741,8.741,0,0,1,8.71582,8.71606v42.043a8.74181,8.74181,0,0,1-8.71582,8.7168" transform="translate(-296.20408 -296.13091)"/><path class="cls-11" d="M393.43272,430.43153h-.20215a8.74259,8.74259,0,0,1-8.71728-8.7168v-42.043a8.74163,8.74163,0,0,1,8.71728-8.71606h.20215a8.741,8.741,0,0,1,8.71582,8.71606v42.043a8.74182,8.74182,0,0,1-8.71582,8.7168" transform="translate(-296.20408 -296.13091)"/><path class="cls-7" d="M393.43272,430.43153h-.20215a8.74259,8.74259,0,0,1-8.71728-8.7168v-42.043a8.74163,8.74163,0,0,1,8.71728-8.71606h.20215a8.741,8.741,0,0,1,8.71582,8.71606v42.043a8.74182,8.74182,0,0,1-8.71582,8.7168" transform="translate(-296.20408 -296.13091)"/></svg>