<svg id="Слой_1" data-name="Слой 1" xmlns="http://www.w3.org/2000/svg" viewBox="0 0 407.93311 407.93396"><defs><style>.cls-1,.cls-3{fill:none;stroke-miterlimit:10;stroke-width:10px;}.cls-1{stroke:#adc79d;}.cls-2{fill:#aac419;}.cls-3{stroke:#718c09;}</style></defs><ellipse class="cls-1" cx="141.64014" cy="172.25369" rx="49.47412" ry="48.689"/><path class="cls-2" d="M531.33113,462.65426l-1.34521-11.079a1.82049,1.82049,0,0,0-1.45215-1.556l-22.29785-4.579q-.91186-2.63689-2.02881-5.176l13.69775-18.272a1.82087,1.82087,0,0,0,.05518-2.127l-6.33985-9.18506a1.821,1.821,0,0,0-2.00927-.703l-22.44287,6.473q-1.80617-1.66352-3.72705-3.20495l3.73388-23.145a1.81985,1.81985,0,0,0-.93994-1.90906l-9.88184-5.18689a1.82058,1.82058,0,0,0-2.106.31189l-17.231,16.51208q-2.11377-.57147-4.27637-1.02l-7.5957-22.666a1.82105,1.82105,0,0,0-1.72021-1.254H432.26375a1.82138,1.82138,0,0,0-1.71973,1.254l-7.59521,22.666q-2.1643.447-4.27686,1.02l-17.231-16.51208a1.8191,1.8191,0,0,0-2.105-.31189l-9.8833,5.18689a1.82132,1.82132,0,0,0-.939,1.90906l3.73437,23.145q-1.9204,1.539-3.728,3.20495l-22.44239-6.473a1.82122,1.82122,0,0,0-2.00976.703l-6.33985,9.18506a1.82012,1.82012,0,0,0,.05567,2.127l13.69726,18.272q-1.11181,2.53966-2.02929,5.176l-22.29688,4.579a1.81934,1.81934,0,0,0-1.45215,1.556l-1.3457,11.079a1.8213,1.8213,0,0,0,1.03809,1.858l20.457,9.736q.23657,2.86357.70263,5.659l-17.54687,14.361a1.8215,1.8215,0,0,0-.563,2.052l3.958,10.436a1.81977,1.81977,0,0,0,1.78223,1.163l23.01269-.901q1.448,2.19909,3.05518,4.282l-9.041,21.287a1.82151,1.82151,0,0,0,.45606,2.0791l8.353,7.401a1.82417,1.82417,0,0,0,2.12012.2019l20.49268-11.8009q2.01782,1.11146,4.1123,2.099l1.93555,23.632a1.81982,1.81982,0,0,0,1.36914,1.629l10.83691,2.671a1.81929,1.81929,0,0,0,1.96924-.807l12.83789-20.25c.71387.021,1.43018.03393,2.14893.03393.71924,0,1.43506-.01294,2.1499-.03393l12.8374,20.25a1.82029,1.82029,0,0,0,1.96973.807l10.83594-2.671a1.82078,1.82078,0,0,0,1.37011-1.629l1.93506-23.632q2.09545-.984,4.11279-2.099l20.49317,11.8009a1.8213,1.8213,0,0,0,2.11816-.2019l8.354-7.401a1.8189,1.8189,0,0,0,.45508-2.0791l-9.04-21.287q1.60473-2.08191,3.05566-4.282l23.01221.901a1.82128,1.82128,0,0,0,1.78271-1.163l3.958-10.436a1.82039,1.82039,0,0,0-.564-2.052l-17.54687-14.36q.46362-2.796.7041-5.66l20.45606-9.736a1.81992,1.81992,0,0,0,1.03808-1.858m-142.96094,5.73c0-26.88989,22.15088-48.689,49.47364-48.689,27.32422,0,49.47412,21.79907,49.47412,48.689,0,26.89-22.1499,48.68909-49.47412,48.68909-27.32276,0-49.47364-21.79907-49.47364-48.68909" transform="translate(-296.20418 -296.13058)"/><path class="cls-3" d="M531.33113,462.65426l-1.34521-11.079a1.82049,1.82049,0,0,0-1.45215-1.556l-22.29785-4.579q-.91186-2.63689-2.02881-5.176l13.69775-18.272a1.82087,1.82087,0,0,0,.05518-2.127l-6.33985-9.18506a1.821,1.821,0,0,0-2.00927-.703l-22.44287,6.473q-1.80617-1.66352-3.72705-3.20495l3.73388-23.145a1.81985,1.81985,0,0,0-.93994-1.90906l-9.88184-5.18689a1.82058,1.82058,0,0,0-2.106.31189l-17.231,16.51208q-2.11377-.57147-4.27637-1.02l-7.5957-22.666a1.82105,1.82105,0,0,0-1.72021-1.254H432.26375a1.82138,1.82138,0,0,0-1.71973,1.254l-7.59521,22.666q-2.1643.447-4.27686,1.02l-17.231-16.51208a1.8191,1.8191,0,0,0-2.105-.31189l-9.8833,5.18689a1.82132,1.82132,0,0,0-.939,1.90906l3.73437,23.145q-1.9204,1.539-3.728,3.20495l-22.44239-6.473a1.82122,1.82122,0,0,0-2.00976.703l-6.33985,9.18506a1.82012,1.82012,0,0,0,.05567,2.127l13.69726,18.272q-1.11181,2.53966-2.02929,5.176l-22.29688,4.579a1.81934,1.81934,0,0,0-1.45215,1.556l-1.3457,11.079a1.8213,1.8213,0,0,0,1.03809,1.858l20.457,9.736q.23657,2.86357.70263,5.659l-17.54687,14.361a1.8215,1.8215,0,0,0-.563,2.052l3.958,10.436a1.81977,1.81977,0,0,0,1.78223,1.163l23.01269-.901q1.448,2.19909,3.05518,4.282l-9.041,21.287a1.82151,1.82151,0,0,0,.45606,2.0791l8.353,7.401a1.82417,1.82417,0,0,0,2.12012.2019l20.49268-11.8009q2.01782,1.11146,4.1123,2.099l1.93555,23.632a1.81982,1.81982,0,0,0,1.36914,1.629l10.83691,2.671a1.81929,1.81929,0,0,0,1.96924-.807l12.83789-20.25c.71387.021,1.43018.03393,2.14893.03393.71924,0,1.43506-.01294,2.1499-.03393l12.8374,20.25a1.82029,1.82029,0,0,0,1.96973.807l10.83594-2.671a1.82078,1.82078,0,0,0,1.37011-1.629l1.93506-23.632q2.09545-.984,4.11279-2.099l20.49317,11.8009a1.8213,1.8213,0,0,0,2.11816-.2019l8.354-7.401a1.8189,1.8189,0,0,0,.45508-2.0791l-9.04-21.287q1.60473-2.08191,3.05566-4.282l23.01221.901a1.82128,1.82128,0,0,0,1.78271-1.163l3.958-10.436a1.82039,1.82039,0,0,0-.564-2.052l-17.54687-14.36q.46362-2.796.7041-5.66l20.45606-9.736A1.81992,1.81992,0,0,0,531.33113,462.65426Zm-142.96094,5.73c0-26.88989,22.15088-48.689,49.47364-48.689,27.32422,0,49.47412,21.79907,49.47412,48.689,0,26.89-22.1499,48.68909-49.47412,48.68909C410.52107,517.07333,388.37019,495.27426,388.37019,468.38424Z" transform="translate(-296.20418 -296.13058)"/><ellipse class="cls-1" cx="282.96289" cy="265.34756" rx="34.51123" ry="33.96402"/><path class="cls-2" d="M644.38045,557.48117l-.939-7.729a1.26933,1.26933,0,0,0-1.01269-1.085l-15.5542-3.194q-.63575-1.8391-1.415-3.61108l9.55518-12.745a1.27164,1.27164,0,0,0,.03808-1.484l-4.42236-6.408a1.27133,1.27133,0,0,0-1.40186-.49l-15.65478,4.515q-1.26049-1.15961-2.6001-2.235l2.604-16.145a1.26946,1.26946,0,0,0-.65527-1.332l-6.89307-3.618a1.26975,1.26975,0,0,0-1.46875.217l-12.02,11.519q-1.47437-.399-2.98291-.712l-5.29931-15.811a1.269,1.269,0,0,0-1.19873-.875h-7.78516a1.27112,1.27112,0,0,0-1.19971.875l-5.29834,15.811q-1.51025.312-2.98388.712l-12.019-11.519a1.26974,1.26974,0,0,0-1.46875-.217l-6.894,3.618a1.26946,1.26946,0,0,0-.65527,1.332l2.605,16.145q-1.3396,1.07393-2.60108,2.235l-15.65478-4.515a1.27068,1.27068,0,0,0-1.40088.49l-4.42285,6.408a1.26929,1.26929,0,0,0,.03857,1.484l9.55518,12.746q-.77564,1.77009-1.416,3.61011l-15.55273,3.194a1.27089,1.27089,0,0,0-1.01416,1.085l-.938,7.729a1.26935,1.26935,0,0,0,.72412,1.296l14.27,6.791q.16479,1.998.49072,3.948l-12.24072,10.01795a1.27107,1.27107,0,0,0-.39307,1.432l2.76075,7.27906a1.26913,1.26913,0,0,0,1.24316.81091l16.05274-.62793q1.01147,1.533,2.13232,2.98694l-6.30713,14.849a1.27078,1.27078,0,0,0,.31787,1.45007l5.82715,5.163a1.26959,1.26959,0,0,0,1.478.14l14.2959-8.231q1.407.77545,2.86816,1.464l1.3501,16.484a1.26922,1.26922,0,0,0,.95556,1.137l7.55909,1.863a1.26965,1.26965,0,0,0,1.374-.562l8.95508-14.126c.498.01392.998.02393,1.499.02393.502,0,1.001-.01,1.5-.02393l8.95508,14.126a1.26876,1.26876,0,0,0,1.374.562l7.55908-1.863a1.26946,1.26946,0,0,0,.95459-1.137l1.3501-16.484q1.46118-.687,2.86914-1.464l14.2959,8.231a1.26808,1.26808,0,0,0,1.477-.14l5.82813-5.163a1.26892,1.26892,0,0,0,.31689-1.45007l-6.30615-14.849q1.11913-1.4535,2.13135-2.98694l16.05273.62793a1.26828,1.26828,0,0,0,1.24317-.81091l2.76074-7.27906a1.27009,1.27009,0,0,0-.39258-1.432l-12.24023-10.017q.32373-1.95008.49121-3.949l14.27-6.791a1.27105,1.27105,0,0,0,.72363-1.296m-99.72461,3.99695c0-18.75794,15.45068-33.964,34.51074-33.964s34.51123,15.20605,34.51123,33.964c0,18.75805-15.45117,33.96411-34.51123,33.96411s-34.51074-15.20606-34.51074-33.96411" transform="translate(-296.20418 -296.13058)"/><path class="cls-3" d="M644.38045,557.48117l-.939-7.729a1.26933,1.26933,0,0,0-1.01269-1.085l-15.5542-3.194q-.63575-1.8391-1.415-3.61108l9.55518-12.745a1.27164,1.27164,0,0,0,.03808-1.484l-4.42236-6.408a1.27133,1.27133,0,0,0-1.40186-.49l-15.65478,4.515q-1.26049-1.15961-2.6001-2.235l2.604-16.145a1.26946,1.26946,0,0,0-.65527-1.332l-6.89307-3.618a1.26975,1.26975,0,0,0-1.46875.217l-12.02,11.519q-1.47437-.399-2.98291-.712l-5.29931-15.811a1.269,1.269,0,0,0-1.19873-.875h-7.78516a1.27112,1.27112,0,0,0-1.19971.875l-5.29834,15.811q-1.51025.312-2.98388.712l-12.019-11.519a1.26974,1.26974,0,0,0-1.46875-.217l-6.894,3.618a1.26946,1.26946,0,0,0-.65527,1.332l2.605,16.145q-1.3396,1.07393-2.60108,2.235l-15.65478-4.515a1.27068,1.27068,0,0,0-1.40088.49l-4.42285,6.408a1.26929,1.26929,0,0,0,.03857,1.484l9.55518,12.746q-.77564,1.77009-1.416,3.61011l-15.55273,3.194a1.27089,1.27089,0,0,0-1.01416,1.085l-.938,7.729a1.26935,1.26935,0,0,0,.72412,1.296l14.27,6.791q.16479,1.998.49072,3.948l-12.24072,10.01795a1.27107,1.27107,0,0,0-.39307,1.432l2.76075,7.27906a1.26913,1.26913,0,0,0,1.24316.81091l16.05274-.62793q1.01147,1.533,2.13232,2.98694l-6.30713,14.849a1.27078,1.27078,0,0,0,.31787,1.45007l5.82715,5.163a1.26959,1.26959,0,0,0,1.478.14l14.2959-8.231q1.407.77545,2.86816,1.464l1.3501,16.484a1.26922,1.26922,0,0,0,.95556,1.137l7.55909,1.863a1.26965,1.26965,0,0,0,1.374-.562l8.95508-14.126c.498.01392.998.02393,1.499.02393.502,0,1.001-.01,1.5-.02393l8.95508,14.126a1.26876,1.26876,0,0,0,1.374.562l7.55908-1.863a1.26946,1.26946,0,0,0,.95459-1.137l1.3501-16.484q1.46118-.687,2.86914-1.464l14.2959,8.231a1.26808,1.26808,0,0,0,1.477-.14l5.82813-5.163a1.26892,1.26892,0,0,0,.31689-1.45007l-6.30615-14.849q1.11913-1.4535,2.13135-2.98694l16.05273.62793a1.26828,1.26828,0,0,0,1.24317-.81091l2.76074-7.27906a1.27009,1.27009,0,0,0-.39258-1.432l-12.24023-10.017q.32373-1.95008.49121-3.949l14.27-6.791A1.27105,1.27105,0,0,0,644.38045,557.48117Zm-99.72461,3.99695c0-18.75794,15.45068-33.964,34.51074-33.964s34.51123,15.20605,34.51123,33.964c0,18.75805-15.45117,33.96411-34.51123,33.96411S544.65584,580.23617,544.65584,561.47812Z" transform="translate(-296.20418 -296.13058)"/><circle class="cls-3" cx="500.17037" cy="500.09753" r="198.96661" transform="translate(-503.33003 204.01845) rotate(-45)"/></svg>