<svg id="Слой_29" data-name="Слой 29" xmlns="http://www.w3.org/2000/svg" viewBox="0 0 407.93555 407.93396"><defs><style>.cls-1{fill:#787974;}.cls-2{fill:none;stroke:#aec89d;stroke-miterlimit:10;stroke-width:10px;}</style></defs><path class="cls-1" d="M9211.53963,3286.77771c0-8.214,62.51465-15.69189,141.76563-15.69189l.07519.9779-.78027-151.83191-24.21582-1.015" transform="translate(-9006.78963 -2975.77563)"/><path class="cls-2" d="M9211.53963,3286.77771c0-8.214,62.51465-15.69189,141.76563-15.69189l.07519.9779-.78027-151.83191-24.21582-1.015" transform="translate(-9006.78963 -2975.77563)"/><path class="cls-1" d="M9210.36678,3286.77771c0-8.214-64.15137-15.804-143.40137-15.804v.447l.41211-151.59107,26.81934.40308" transform="translate(-9006.78963 -2975.77563)"/><path class="cls-2" d="M9210.36678,3286.77771c0-8.214-64.15137-15.804-143.40137-15.804v.447l.41211-151.59107,26.81934.40308" transform="translate(-9006.78963 -2975.77563)"/><path class="cls-1" d="M9209.82967,3285.45984c0-15.662-50.87793-28.736-114.957-28.736V3091.08594h.06152c62.93262,0,113.8584,12.672,113.8584,28.334" transform="translate(-9006.78963 -2975.77563)"/><path class="cls-2" d="M9209.82967,3285.45984c0-15.662-50.87793-28.736-114.957-28.736V3091.08594h.06152c62.93262,0,113.8584,12.672,113.8584,28.334" transform="translate(-9006.78963 -2975.77563)"/><path class="cls-1" d="M9210.25545,3119.4198c0-15.66089,52.25977-28.334,116.84277-28.334v166.04c-63.874,0-115.56054,12.673-115.56054,28.334h-.76758l-1.54785-166.03894" transform="translate(-9006.78963 -2975.77563)"/><path class="cls-2" d="M9210.25545,3119.4198c0-15.66089,52.25977-28.334,116.84277-28.334v166.04c-63.874,0-115.56054,12.673-115.56054,28.334h-.76758l-1.54785-166.03894" transform="translate(-9006.78963 -2975.77563)"/><circle class="cls-2" cx="9210.75692" cy="3179.74258" r="198.96716" transform="translate(-8557.43893 4468.53808) rotate(-45)"/></svg>