<svg id="Слой_13" data-name="Слой 13" xmlns="http://www.w3.org/2000/svg" viewBox="0 0 407.93311 407.93323"><defs><style>.cls-1{fill:#777a74;}.cls-1,.cls-2{stroke:#adc79d;stroke-miterlimit:10;stroke-width:10px;}.cls-2{fill:none;}</style></defs><path class="cls-1" d="M6957.42082,1104.03766c-109.88623,0-198.9668,89.08039-198.9668,198.96662s89.08057,198.96661,198.9668,198.96661,198.96631-89.08038,198.96631-198.96661S7067.30705,1104.03766,6957.42082,1104.03766Zm62.66064,202.57392c-3.82275,33.06561-33.61035,62.689-69.63134,59.97284-38.1836-2.87921-64.17188-40.65076-59.398-74.84735,5.8042-41.579,55.73877-68.22,92.23926-52.5326C7008.37394,1249.98462,7023.26164,1279.098,7020.08146,1306.61158Z" transform="translate(-6753.45402 -1099.03766)"/><path class="cls-2" d="M6795.54177,1351.49837c-.5472-14.72678,15.76253-17.06414,18.65714-34.5711,3.51446-21.259-18.69968-28.92145-17.37914-51.16237,1.00908-16.99657,14.27858-17.50843,32.17374-47.18854,19.09808-31.6755,12.2582-44.8154,26.40889-53.2679,19.52553-11.66314,35.67522,11.48673,70.68991,7.5403,40.34157-4.54664,46.7292-38.41181,73.36715-34.73088,27.73466,3.83192,23.35628,40.893,69.99011,72.30194,26.73661,18.00734,43.52375,16.5364,49.09066,32.878,6.27273,18.41431-13.66481,27.20445-12.49463,59.50288.80681,22.27153,10.75431,30.97813,4.11551,43.51421-6.15014,11.61357-18.0585,5.93066-29.48411,18.28234-12.59038,13.611-3.75113,25.52158-16.84945,46.032a70.16923,70.16923,0,0,1-25.61846,23.5505c-18.59156,9.93678-26.6727,2.54023-47.50335,9.41808-29.22419,9.64935-29.59439,29.58155-47.16521,29.1355-20.69481-.52531-22.32436-28.63033-51.15841-36.5707-24.37369-6.71207-36.73645,8.47491-50.7999-1.6367-13.00612-9.35118-4.12931-23.56022-19.22313-47.9011C6809.515,1365.91307,6796.037,1364.83059,6795.54177,1351.49837Z" transform="translate(-6753.45402 -1099.03766)"/><line class="cls-2" x1="221.17293" y1="93.01663" x2="242.76992" y2="103.64511"/><line class="cls-2" x1="110.28165" y1="141.35194" x2="127.15105" y2="124.18168"/><line class="cls-2" x1="112.73517" y1="258.92276" x2="97.1031" y2="240.61885"/><line class="cls-2" x1="202.76891" y1="316.20557" x2="183.00823" y2="329.95004"/><line class="cls-2" x1="294.80348" y1="264.64853" x2="270.78523" y2="263.06165"/><line class="cls-2" x1="312.87366" y1="189.2649" x2="296.0903" y2="172.01053"/></svg>