<svg id="Слой_24" data-name="Слой 24" xmlns="http://www.w3.org/2000/svg" viewBox="0 0 407.93311 407.93324"><defs><style>.cls-1{fill:none;stroke-width:10px;}.cls-1,.cls-2{stroke:#adc79d;stroke-miterlimit:10;}.cls-2,.cls-3{fill:#777a74;}.cls-4{fill:#adc79d;}</style></defs><circle class="cls-1" cx="203.96655" cy="203.96662" r="198.96658"/><rect class="cls-2" x="132.53448" y="159.80633" width="91.61579" height="46.67515"/><path class="cls-3" d="M11001.31709,1411.07534a124.325,124.325,0,0,1-131.82606.37756v-35.01149a125.36716,125.36716,0,0,0,131.82606-.01764v70.43936s-32.69144,17.67027-63.70558,18.29839c-33.95861.68776-68.43591-18.68284-68.43591-18.68284V1339.047" transform="translate(-10777.16651 -1184.44944)"/><path class="cls-4" d="M10998.79349,1406.758a120.85579,120.85579,0,0,1-126.77886.37756l2.4764,4.31735v-35.01149l-7.52359,4.31735a131.89378,131.89378,0,0,0,132.54012,2.53432c1.6854-.94732,4.00726-1.91443,5.34506-3.33378,2.56738-2.72386,1.46447-7.992,1.46447-11.40432V1339.047c0-6.43452-10-6.44518-10,0v107.8161l2.4764-4.31735c-19.314,10.38244-42.54866,18.003-64.57827,17.61912-21.37424-.37246-43.87565-7.59045-62.516-18.00358l2.47641,4.31736V1339.047c0-6.43452-10-6.44518-10,0v107.43165a5.01026,5.01026,0,0,0,2.4764,4.31735c20.17523,11.27055,44.42218,18.96562,67.56322,19.36887,23.7873.41451,48.7855-7.78168,69.62546-18.98441a4.98912,4.98912,0,0,0,2.47641-4.31736V1339.047c0-6.43452-10-6.44518-10,0v37.37674l2.4764-4.31735a121.889,121.889,0,0,1-126.77886.01764,5.04335,5.04335,0,0,0-7.5236,4.31735v25.28608c0,3.355-.788,7.82731.17861,11.05461.6424,2.14474,2.50992,3.13969,4.30078,4.202a131.97149,131.97149,0,0,0,25.35683,11.54132,129.21227,129.21227,0,0,0,80.75525.2782,132.2337,132.2337,0,0,0,28.75818-13.41091c5.44823-3.39928.43382-12.05444-5.04719-8.6347Z" transform="translate(-10777.16651 -1184.44944)"/><path class="cls-3" d="M11001.31511,1339.047c-.2849-9.2983-37.02436-16.82675-66.06847-16.81985-28.97728.0069-65.78417,7.518-66.06907,16.81985-.28126,9.18525,35.05132,20.09417,66.863,19.92612C10966.95812,1358.80982,11001.59394,1348.14641,11001.31511,1339.047Z" transform="translate(-10777.16651 -1184.44944)"/><path class="cls-4" d="M11006.31511,1339.047c-.78333-7.89072-8.958-11.33509-15.52779-13.70634-10.6758-3.85323-22.16729-5.59334-33.40123-6.84028-24.08652-2.67356-49.71264-1.49591-73.0641,5.35443-6.64649,1.94981-17.0901,4.967-19.62379,12.41-2.3616,6.9374,4.143,12.16547,9.52369,15.09618,9.66346,5.26346,20.89326,7.97683,31.63955,9.88227a162.81554,162.81554,0,0,0,40.38022,2.31719c13.92159-1.02689,28.14936-3.41821,41.26047-8.33818,7.169-2.6902,18.46046-7.02825,18.813-16.17527.248-6.43565-9.75239-6.42491-10,0,.0313-.8121-.0274-.06313-.511.49725a12.307,12.307,0,0,1-2.94918,2.23906,51.93706,51.93706,0,0,1-10.50188,4.687,141.75772,141.75772,0,0,1-29.31175,6.44491c-21.46524,2.50755-43.92423.64637-64.45589-6.27928-4.09753-1.38217-12.9898-4.31641-14.48205-7.928.44707,1.082-.66111.91239.285.53919a22.7314,22.7314,0,0,0,2.30791-1.6831,43.70085,43.70085,0,0,1,9.68257-3.88607c19.11784-5.75606,39.97546-7.27405,59.83469-6.12311a179.47194,179.47194,0,0,1,32.85859,4.73985,67.86293,67.86293,0,0,1,12.28213,3.99351c1.47211.68467,2.76375,1.58043,4.15967,2.37685.729.41592.93286,1.70808.80121.38193C10996.94495,1345.39151,11006.95141,1345.45667,11006.31511,1339.047Z" transform="translate(-10777.16651 -1184.44944)"/><rect class="cls-2" x="132.53448" y="124.45283" width="91.61579" height="46.67515"/><path class="cls-3" d="M11001.31709,1375.72183a124.325,124.325,0,0,1-131.82606.37756V1341.0879a125.36716,125.36716,0,0,0,131.82606-.01764v70.43937s-32.69144,17.67026-63.70558,18.29839c-33.95861.68775-68.43591-18.68285-68.43591-18.68285V1303.69352" transform="translate(-10777.16651 -1184.44944)"/><path class="cls-4" d="M10998.79349,1371.40448a120.85579,120.85579,0,0,1-126.77886.37756l2.4764,4.31735V1341.0879l-7.52359,4.31736a131.8938,131.8938,0,0,0,132.54012,2.53431c1.6854-.94731,4.00726-1.91443,5.34506-3.33377,2.56738-2.72387,1.46447-7.992,1.46447-11.40433v-29.50795c0-6.43452-10-6.44518-10,0v107.81611l2.4764-4.31736c-19.314,10.38244-42.54866,18.003-64.57827,17.61912-21.37424-.37246-43.87565-7.59044-62.516-18.00357l2.47641,4.31735V1303.69352c0-6.43452-10-6.44518-10,0v107.43165a5.01024,5.01024,0,0,0,2.4764,4.31735c20.17523,11.27055,44.42218,18.96562,67.56322,19.36887,23.7873.41451,48.7855-7.78168,69.62546-18.98441a4.98912,4.98912,0,0,0,2.47641-4.31735V1303.69352c0-6.43452-10-6.44518-10,0v37.37674l2.4764-4.31735a121.889,121.889,0,0,1-126.77886.01764,5.04335,5.04335,0,0,0-7.5236,4.31735V1366.374c0,3.355-.788,7.82731.17861,11.05461.6424,2.14474,2.50992,3.13969,4.30078,4.202a131.97092,131.97092,0,0,0,25.35683,11.54133,129.21234,129.21234,0,0,0,80.75525.2782,132.23416,132.23416,0,0,0,28.75818-13.41091c5.44823-3.39929.43382-12.05445-5.04719-8.63471Z" transform="translate(-10777.16651 -1184.44944)"/><path class="cls-3" d="M11001.31511,1303.69352c-.2849-9.2983-37.02436-16.82675-66.06847-16.81985-28.97728.0069-65.78417,7.518-66.06907,16.81985-.28126,9.18525,35.05132,20.09417,66.863,19.92613C10966.95812,1323.45631,11001.59394,1312.7929,11001.31511,1303.69352Z" transform="translate(-10777.16651 -1184.44944)"/><path class="cls-4" d="M11006.31511,1303.69352c-.78333-7.89071-8.958-11.33509-15.52779-13.70633-10.6758-3.85324-22.16729-5.59335-33.40123-6.84029-24.08652-2.67356-49.71264-1.49591-73.0641,5.35443-6.64649,1.94981-17.0901,4.967-19.62379,12.41-2.3616,6.93741,4.143,12.16547,9.52369,15.09619,9.66346,5.26345,20.89326,7.97683,31.63955,9.88226a162.81507,162.81507,0,0,0,40.38022,2.3172c13.92159-1.0269,28.14936-3.41822,41.26047-8.33819,7.169-2.69019,18.46046-7.02824,18.813-16.17527.248-6.43564-9.75239-6.42491-10,0,.0313-.8121-.0274-.06313-.511.49725a12.30676,12.30676,0,0,1-2.94918,2.23906,51.9365,51.9365,0,0,1-10.50188,4.687,141.75839,141.75839,0,0,1-29.31175,6.44492c-21.46524,2.50754-43.92423.64637-64.45589-6.27929-4.09753-1.38216-12.9898-4.31641-14.48205-7.928.44707,1.082-.66111.9124.285.5392a22.73153,22.73153,0,0,0,2.30791-1.68311,43.70134,43.70134,0,0,1,9.68257-3.88607c19.11784-5.75606,39.97546-7.274,59.83469-6.12311a179.4728,179.4728,0,0,1,32.85859,4.73985,67.86293,67.86293,0,0,1,12.28213,3.99351c1.47211.68468,2.76375,1.58043,4.15967,2.37685.729.41593.93286,1.70808.80121.38193C10996.94495,1310.038,11006.95141,1310.10316,11006.31511,1303.69352Z" transform="translate(-10777.16651 -1184.44944)"/><rect class="cls-2" x="224.30793" y="204.33888" width="91.61579" height="46.67515"/><path class="cls-3" d="M11093.09053,1455.60788a124.325,124.325,0,0,1-131.826.37756V1420.974a125.36715,125.36715,0,0,0,131.826-.01764v70.43937s-32.69144,17.67026-63.70557,18.29839c-33.95862.68775-68.43592-18.68285-68.43592-18.68285V1383.57957" transform="translate(-10777.16651 -1184.44944)"/><path class="cls-4" d="M11090.56694,1451.29053a120.8558,120.8558,0,0,1-126.77887.37756l2.47641,4.31735V1420.974l-7.5236,4.31736a131.8938,131.8938,0,0,0,132.54012,2.53431c1.68541-.94731,4.00726-1.91443,5.34506-3.33377,2.56739-2.72387,1.46447-7.992,1.46447-11.40433v-29.50795c0-6.43452-10-6.44518-10,0v107.81611l2.47641-4.31736c-19.314,10.38244-42.54867,18.003-64.57828,17.61912-21.37424-.37246-43.87565-7.59044-62.516-18.00357l2.4764,4.31735V1383.57957c0-6.43452-10-6.44518-10,0v107.43165a5.01026,5.01026,0,0,0,2.4764,4.31735c20.17523,11.27055,44.42219,18.96562,67.56322,19.36887,23.7873.41451,48.78551-7.78168,69.62547-18.98441a4.98913,4.98913,0,0,0,2.4764-4.31735V1383.57957c0-6.43452-10-6.44518-10,0v37.37674l2.47641-4.31735a121.889,121.889,0,0,1-126.77887.01764,5.04335,5.04335,0,0,0-7.52359,4.31735V1446.26c0,3.355-.78806,7.82731.1786,11.05461.6424,2.14474,2.50993,3.13969,4.30079,4.202a131.97064,131.97064,0,0,0,25.35683,11.54133,129.21231,129.21231,0,0,0,80.75524.2782,132.23424,132.23424,0,0,0,28.75819-13.41091c5.44822-3.39929.43382-12.05445-5.04719-8.63471Z" transform="translate(-10777.16651 -1184.44944)"/><path class="cls-3" d="M11093.08856,1383.57957c-.2849-9.2983-37.02437-16.82675-66.06847-16.81985-28.97728.0069-65.78418,7.518-66.06908,16.81985-.28126,9.18525,35.05132,20.09417,66.863,19.92613C11058.73157,1403.34236,11093.36738,1392.679,11093.08856,1383.57957Z" transform="translate(-10777.16651 -1184.44944)"/><path class="cls-4" d="M11098.08856,1383.57957c-.78334-7.89071-8.958-11.33509-15.52779-13.70633-10.67581-3.85324-22.16729-5.59335-33.40124-6.84029-24.08652-2.67356-49.71264-1.49591-73.06409,5.35443-6.6465,1.94981-17.09011,4.967-19.6238,12.41-2.36159,6.93741,4.143,12.16547,9.52369,15.09619,9.66347,5.26345,20.89326,7.97683,31.63956,9.88226a162.815,162.815,0,0,0,40.38021,2.3172c13.9216-1.0269,28.14937-3.41822,41.26048-8.33819,7.169-2.69019,18.46046-7.02824,18.813-16.17527.248-6.43564-9.75239-6.42491-10,0,.03129-.8121-.02741-.06313-.51105.49725a12.30651,12.30651,0,0,1-2.94917,2.23906,51.93755,51.93755,0,0,1-10.50188,4.687,141.75848,141.75848,0,0,1-29.31176,6.44492c-21.46524,2.50754-43.92423.64637-64.45589-6.27929-4.09753-1.38216-12.9898-4.31641-14.48205-7.928.44707,1.082-.66111.9124.285.5392a22.73031,22.73031,0,0,0,2.3079-1.68311,43.70134,43.70134,0,0,1,9.68257-3.88607c19.11784-5.75606,39.97547-7.274,59.83469-6.12311a179.47291,179.47291,0,0,1,32.8586,4.73985,67.86319,67.86319,0,0,1,12.28213,3.99351c1.4721.68468,2.76374,1.58043,4.15966,2.37685.729.41593.93287,1.70808.80122.38193C11088.71839,1389.92405,11098.72486,1389.98921,11098.08856,1383.57957Z" transform="translate(-10777.16651 -1184.44944)"/></svg>