<svg id="Слой_1" data-name="Слой 1" xmlns="http://www.w3.org/2000/svg" viewBox="0 0 407.93311 407.93396"><defs><style>.cls-1{fill:none;stroke:#718c09;stroke-miterlimit:10;stroke-width:10px;}.cls-2{fill:#aac419;}.cls-3{fill:#718c09;}</style></defs><circle class="cls-1" cx="500.17049" cy="500.09753" r="198.96667" transform="translate(-503.32999 204.01854) rotate(-45)"/><path class="cls-2" d="M643.09334,485.96884c-19.45606-21.144-42.512,13.026-61.48608,10.271-6.40186-.92907-29.155-12.00207-7.834-36.49108,31.12109-35.746,16.09009-52.354,12.25513-59.08692-13.96314-24.511-79.93506-46.93408-154.991-6.26208-9.717,5.265-78.72314,44.12207-78.31616,115.667.33105,58.233,46.45,103.006,92.77417,119.281,68.24487,23.977,126.66479-17.506,138.55981-26.507,47.11011-35.649,75.02613-99.496,59.03809-116.87195m-171.3169-62.83911c0-12.40894,17.146-22.4679,38.29786-22.4679,21.15112,0,38.29809,10.059,38.29809,22.4679,0,12.409-17.147,22.468-38.29809,22.468-21.15186,0-38.29786-10.059-38.29786-22.468" transform="translate(-296.20418 -296.13058)"/><path class="cls-1" d="M643.09334,485.96884c-19.45606-21.144-42.512,13.026-61.48608,10.271-6.40186-.92907-29.155-12.00207-7.834-36.49108,31.12109-35.746,16.09009-52.354,12.25513-59.08692-13.96314-24.511-79.93506-46.93408-154.991-6.26208-9.717,5.265-78.72314,44.12207-78.31616,115.667.33105,58.233,46.45,103.006,92.77417,119.281,68.24487,23.977,126.66479-17.506,138.55981-26.507C631.16536,567.19174,659.08138,503.34481,643.09334,485.96884Zm-171.3169-62.83911c0-12.40894,17.146-22.4679,38.29786-22.4679,21.15112,0,38.29809,10.059,38.29809,22.4679,0,12.409-17.147,22.468-38.29809,22.468C488.92244,445.59774,471.77644,435.53878,471.77644,423.12973Z" transform="translate(-296.20418 -296.13058)"/><path class="cls-3" d="M431.30476,486.03036c0,8.89307-10.11621,16.10205-22.59619,16.10205-12.479,0-22.595-7.209-22.595-16.10205,0-8.89294,10.116-16.10193,22.595-16.10193,12.48,0,22.59619,7.209,22.59619,16.10193" transform="translate(-296.20418 -296.13058)"/><path class="cls-1" d="M431.30476,486.03036c0,8.89307-10.11621,16.10205-22.59619,16.10205-12.479,0-22.595-7.209-22.595-16.10205,0-8.89294,10.116-16.10193,22.595-16.10193C421.18855,469.92843,431.30476,477.13742,431.30476,486.03036Z" transform="translate(-296.20418 -296.13058)"/><path class="cls-3" d="M443.17708,553.30429c0,8.89306-10.11621,16.102-22.59619,16.102-12.479,0-22.595-7.209-22.595-16.102,0-8.893,10.116-16.10193,22.595-16.10193,12.48,0,22.59619,7.209,22.59619,16.10193" transform="translate(-296.20418 -296.13058)"/><path class="cls-1" d="M443.17708,553.30429c0,8.89306-10.11621,16.102-22.59619,16.102-12.479,0-22.595-7.209-22.595-16.102,0-8.893,10.116-16.10193,22.595-16.10193C433.06087,537.20236,443.17708,544.41134,443.17708,553.30429Z" transform="translate(-296.20418 -296.13058)"/><path class="cls-3" d="M514.07967,586.71566c0,8.89307-10.11621,16.10205-22.59619,16.10205-12.479,0-22.59595-7.209-22.59595-16.10205,0-8.89294,10.11694-16.10192,22.59595-16.10192,12.48,0,22.59619,7.209,22.59619,16.10192" transform="translate(-296.20418 -296.13058)"/><ellipse class="cls-1" cx="195.27936" cy="290.58511" rx="22.59601" ry="16.10202"/><path class="cls-3" d="M587.73543,553.30429c0,8.89306-10.11621,16.102-22.59619,16.102-12.479,0-22.595-7.209-22.595-16.102,0-8.893,10.116-16.10193,22.595-16.10193,12.48,0,22.59619,7.209,22.59619,16.10193" transform="translate(-296.20418 -296.13058)"/><path class="cls-1" d="M587.73543,553.30429c0,8.89306-10.11621,16.102-22.59619,16.102-12.479,0-22.595-7.209-22.595-16.102,0-8.893,10.116-16.10193,22.595-16.10193C577.61922,537.20236,587.73543,544.41134,587.73543,553.30429Z" transform="translate(-296.20418 -296.13058)"/></svg>