<svg id="Слой_1" data-name="Слой 1" xmlns="http://www.w3.org/2000/svg" viewBox="0 0 407.93311 407.93396"><defs><style>.cls-1{fill:none;stroke-width:10px;}.cls-1,.cls-2{stroke:#718c09;stroke-miterlimit:10;}.cls-2{fill:#718c09;}.cls-3{fill:#b8e87b;}.cls-4{fill:#aac419;}</style></defs><circle class="cls-1" cx="500.17049" cy="500.09753" r="198.96667" transform="translate(-503.32999 204.01854) rotate(-45)"/><path class="cls-2" d="M427.46248,350.61288c-53.18921,29.91809-82.84009,91.056-73.44116,151.352,9.42309,60.45606,58.8811,108.329,118.86914,118.257A148.06608,148.06608,0,0,0,571.4034,602.312c5.56494-3.227.53589-11.873-5.04712-8.635-48.94385,28.3789-112.6499,23.7229-156.35694-12.63208-44.0559-36.6449-58.87792-97.86194-38.689-151.136a137.45428,137.45428,0,0,1,61.199-70.661c5.61011-3.15491.575-11.797-5.04687-8.635" transform="translate(-296.20418 -296.13058)"/><line class="cls-3" x1="203.96655" y1="365.18274" x2="203.96655" y2="321.19775"/><line class="cls-1" x1="203.96655" y1="365.18274" x2="203.96655" y2="321.19775"/><path class="cls-2" d="M451.66,664.66872h97.021c6.43481,0,6.4458-10,0-10H451.66c-6.43408,0-6.44507,10,0,10" transform="translate(-296.20418 -296.13058)"/><path class="cls-4" d="M603.69978,481.2745a110.592,110.592,0,1,1-110.592-110.59192,110.5925,110.5925,0,0,1,110.592,110.59192" transform="translate(-296.20418 -296.13058)"/><path class="cls-2" d="M598.69978,481.2745c-.27319,43.832-27.947,84.31409-69.44409,99.259a106.792,106.792,0,0,1-117.84692-32.322c-28.33008-34.226-31.49414-84.339-8.35108-122.11,22.82593-37.255,67.771-57.06091,110.676-48.418,49.051,9.88,84.655,53.70605,84.96606,103.59094.0398,6.432,10.0398,6.447,10,0a116.91481,116.91481,0,0,0-75.53515-108.443c-45.41284-16.98-98.57105-2.558-129.241,34.941-30.65991,37.48706-34.988,91.563-9.84106,133.16,25.031,41.402,74.22412,62.953,121.64306,53.70594,46.793-9.125,84.4419-48.282,91.55909-95.44593a125.16048,125.16048,0,0,0,1.415-17.91809c.0398-6.43591-9.9602-6.443-10,0" transform="translate(-296.20418 -296.13058)"/><path class="cls-2" d="M489.22005,374.33456c.22192.5061-.70923.83911-8.17017,8.17-11.35986,11.162-12.58984,13.719-13.27685,15.83a22.29727,22.29727,0,0,0,.511,14.2981c.33887.96692,4.155,11.51391,10.21289,11.234a7.40637,7.40637,0,0,0,6.127-4.59606c1.64306-4.27894-2.782-7.158-1.531-10.723,1.58106-4.50793,11.21-7.194,17.87207-4.085,4.14209,1.933,6.135,5.32007,9.19092,10.723,2.50415,4.427,4.69409,8.297,4.0852,13.106-.25512,2.021-.71923,1.954-5.1062,9.87305-4.73388,8.54492-5.75683,11.444-9.19091,12.766-2.082.801-2.565.066-4.937,1.021-3.813,1.535-5.7539,4.717-7.31909,7.149-4.387,6.81592-11.4729,17.825-15.82983,16.851-1.31006-.293-1.69214-1.51807-3.91406-1.872a8.06314,8.06314,0,0,0-4.76612.851c-.44385.213-5.052,2.56494-5.61694,7.65894a9.51831,9.51831,0,0,0,4.085,8.681c4.25708,2.755,8.52-3.516,15.31909-1.532,2.35205.687,5.45313,2.421,5.61694,4.596.19,2.52307-3.73,3.552-3.575,6.128.147,2.432,3.835,4.73,7.07813,4.843,1.38086.04895,2.24585-.313,6.709-2.29,4.05689-1.796,6.085-2.69495,6.64087-2.95593,5.73609-2.697,15.81592,2.04394,35.74292,11.637,9.54907,4.59705,14.33423,6.97205,14.80811,10.723.3789,2.992-1.86206,4.104-4.085,10.723-2.301,6.8529-.94312,8.76892-2.553,13.277-2.17993,6.10193-6.17993,6.819-13.78711,13.787-9.969,9.131-7.88794,12.282-17.36206,20.936-4.79077,4.377-14.49488,13.24194-19.09082,10.724-5.50318-3.015,3.022-18.671.708-46.468a80.85853,80.85853,0,0,0-9.917-33.074c-7.25708-12.75-13.709-14.878-16.636-15.437-2.938-.561-3.15113.29993-7.14917,0-11.82788-.886-19.9419-9.16907-20.936-10.213-4.54883-4.775-4.073-7.623-8.68091-18.89307-7.92309-19.376-13.94409-22.246-20.426-42.38293-1.748-5.43006-2.62207-8.145-2.553-9.702,1.2041-27.34,79.71411-45.9,81.70215-41.36206" transform="translate(-296.20418 -296.13058)"/><path class="cls-2" d="M586.24153,444.292s-.91919,1.54-13.78711,17.87207c-10.936,13.88-16.0459,11.793-16.85107,17.873-1.05689,7.975,8.075,8.99792,14.8081,26.553,1.48706,3.877,2.72,8.204,6.12793,9.19092,2.834.822,4.65992-1.396,10.72315-2.553,5.66284-1.07995,6.90576.313,9.19189-.51,10.14307-3.657,5.874-38.403,1.532-57.703-2.10694-9.364-4.38208-15.75891-7.14893-15.829-1.719-.04394-2.96216,2.368-4.596,5.106" transform="translate(-296.20418 -296.13058)"/><path class="cls-2" d="M520.369,377.909c-3.62109,3.10608.64991,13.228,1.532,15.3191,1.4038,3.328,4.90283,11.62,10.7229,11.745,4.05.08691,7.06689-3.82605,7.65991-4.59607a13.03908,13.03908,0,0,0,2.553-9.7019c-1.59693-9.984-18.032-16.57105-22.46778-12.76612" transform="translate(-296.20418 -296.13058)"/></svg>