<svg id="Слой_1" data-name="Слой 1" xmlns="http://www.w3.org/2000/svg" xmlns:xlink="http://www.w3.org/1999/xlink" viewBox="0 0 227.23846 227.23855"><defs><style>.cls-1,.cls-2,.cls-4{fill:none;}.cls-2,.cls-4{stroke:#718c09;stroke-miterlimit:5.57;}.cls-2{stroke-width:5.57px;}.cls-3{fill:#718c09;}.cls-4{stroke-width:5.564px;}.cls-5{isolation:isolate;}.cls-6{clip-path:url(#clip-path);}.cls-7{font-size:79.1006px;fill:#aac419;font-family:ArialMT, Arial;}</style><clipPath id="clip-path" transform="translate(-386.5515 -386.47827)"><rect class="cls-1" x="466.18074" y="454.82193" width="74.85986" height="93.57007"/></clipPath></defs><circle class="cls-2" cx="113.61923" cy="113.61923" r="110.83463"/><path class="cls-3" d="M545.61043,570.21157H454.43807a24.59866,24.59866,0,0,1-24.59913-24.599v-91.172a24.59874,24.59874,0,0,1,24.59913-24.599h91.17236a24.59915,24.59915,0,0,1,24.59961,24.599v91.172a24.59907,24.59907,0,0,1-24.59961,24.599" transform="translate(-386.5515 -386.47827)"/><path class="cls-4" d="M67.88644,43.36331h91.173a24.59912,24.59912,0,0,1,24.59912,24.59912V159.1343a24.599,24.599,0,0,1-24.599,24.599H67.88705a24.59961,24.59961,0,0,1-24.59961-24.59961V67.96231A24.599,24.599,0,0,1,67.88644,43.36331Z"/><g class="cls-5"><g class="cls-6"><text class="cls-7" transform="translate(79.75025 136.22574)">AI</text></g></g></svg>