<svg id="Слой_1" data-name="Слой 1" xmlns="http://www.w3.org/2000/svg" viewBox="0 0 227.24041 227.24102"><defs><style>.cls-1{fill:none;stroke:#718c09;stroke-miterlimit:5.57;stroke-width:5.57px;}.cls-2{fill:#aac419;}.cls-3{fill:#718c09;}</style></defs><circle class="cls-1" cx="500.17085" cy="500.09784" r="110.83522" transform="translate(-593.67645 113.67242) rotate(-45)"/><path class="cls-2" d="M553.09578,555.90805H444.71053a16.68665,16.68665,0,0,1-16.689-16.689v-70.934a16.687,16.687,0,0,1,16.689-16.69006H553.09578a16.687,16.687,0,0,1,16.689,16.69006v70.934a16.69049,16.69049,0,0,1-16.689,16.689" transform="translate(-386.55053 -386.47705)"/><path class="cls-1" d="M58.16,65.118H166.54525a16.689,16.689,0,0,1,16.689,16.689v70.934A16.69006,16.69006,0,0,1,166.54416,169.431H58.16a16.689,16.689,0,0,1-16.689-16.689V81.807A16.689,16.689,0,0,1,58.16,65.118Z"/><line class="cls-1" x1="56.03842" y1="77.72445" x2="56.03842" y2="124.65548"/><line class="cls-1" x1="168.66732" y1="77.72445" x2="168.66732" y2="124.65548"/><line class="cls-1" x1="56.03842" y1="121.86483" x2="168.66732" y2="121.86483"/><rect class="cls-3" x="102.27377" y="121.86459" width="22.68896" height="12.63403"/><rect class="cls-1" x="102.27377" y="121.86459" width="22.68896" height="12.63403"/><path class="cls-1" d="M513.43416,451.59567H484.36775a3.45983,3.45983,0,0,1-3.46-3.459v-8.172a3.45921,3.45921,0,0,1,3.46-3.459h29.06641a3.45837,3.45837,0,0,1,3.459,3.459v8.172A3.4512,3.4512,0,0,1,513.43416,451.59567Z" transform="translate(-386.55053 -386.47705)"/></svg>