<?xml version="1.0" encoding="UTF-8"?>
<svg id="_Слой_1" data-name="Слой 1" xmlns="http://www.w3.org/2000/svg" viewBox="0 0 223.63516 223.61678">
  <defs>
    <style>
      .cls-1 {
        fill: #718c09;
      }

      .cls-1, .cls-2 {
        stroke-width: 0px;
      }

      .cls-2 {
        fill: #aac419;
      }
    </style>
  </defs>
  <path class="cls-1" d="M223.63516,103.94618c-.36246-.6797-.09382-1.40992-.16911-2.11261.06001-.0741.11621-.06789.16911.008v2.10461Z"/>
  <path class="cls-1" d="M223.46605,108.33878c.0753-.70268-.19335-1.43291.16911-2.11261v2.10461c-.0529.07588-.1091.08209-.16911.008Z"/>
  <path class="cls-1" d="M223.63516,101.84157c-.05648-.00122-.11289-.00382-.1692-.00791.00208-.46748.00409-.93489.0061-1.40228.05774-.07477.11193-.06854.1631.00712v1.40307Z"/>
  <path class="cls-1" d="M223.46605,108.33878c.05631-.00402.11268-.00669.16911-.008v1.40307c-.05125.07779-.10572.08008-.16342.00699-.00191-.46735-.00381-.93471-.00569-1.40207Z"/>
  <path class="cls-1" d="M223.63516,100.4385c-.05457-.00086-.10908-.00316-.16331-.007.00158-.40879.00293-.81745.0045-1.22618.05303.00289.10589.00474.15881.00549v1.22769Z"/>
  <path class="cls-1" d="M223.47174,109.74084c.0544-.00377.10887-.00609.16342-.00699v1.22769c-.05337.00031-.1067.00201-.15978.00518-.00107-.40857-.00236-.81723-.00364-1.22588Z"/>
  <path class="cls-1" d="M223.63508,110.66944c-.20358-.69977-.03554-1.41534-.09036-2.12141.00036-.46333,0-.92675,0-1.39012-.03357-.40917.07447-.8262-.06822-1.2294-.11143-2.06645-.30841-4.12486-.51663-6.18404-.4786-4.73235-1.31114-9.40175-2.42263-14.02151-2.56317-10.65383-6.5891-20.7229-12.10726-30.19523-4.51863-7.75622-9.90035-14.85749-16.11693-21.3273-2.89587-3.01391-5.96425-5.84362-9.18513-8.5093-6.04872-5.00607-12.54567-9.33773-19.50497-12.97078-8.71029-4.54712-17.86453-7.89315-27.45183-10.04098C128.86911,1.04352,121.46997.16964,113.9901.02074c-2.45067-.04875-4.90187-.01165-7.35539.11219-2.59407.1309-5.18438.30886-7.7572.61825-5.38297.64731-10.69807,1.66201-15.94443,3.06619-11.34382,3.03614-21.9435,7.73381-31.79956,14.10111-7.86006,5.07782-14.97455,11.04809-21.3265,17.93328-3.62984,3.93454-6.97966,8.0845-10.01786,12.48674-6.80447,9.85923-11.85831,20.55043-15.25225,32.03886C1.84642,89.48424.41188,98.79068.06052,108.2635c-.16992,4.58065.03045,9.15728.44485,13.72989.48226,5.3214,1.32695,10.57704,2.56916,15.76607,2.68997,11.23591,6.99609,21.82443,12.96141,31.72014,6.6175,10.97746,14.88008,20.55463,24.78383,28.69332,7.38825,6.07162,15.42975,11.11475,24.12254,15.1213,13.07749,6.02738,26.80429,9.39711,41.17578,10.17242.45985.12693.92934.0288,1.39365.05974.707.05514,1.42329-.11335,2.12369.09041h3.68305c.75218-.19421,1.5183-.04005,2.27637-.09041.54431.0004,1.08827,0,1.63294-.00009,2.54139.01031,5.07581-.1155,7.59666-.42507,6.41892-.7883,12.74033-2.04404,18.94066-3.90918,10.59146-3.18597,20.53199-7.75863,29.75713-13.86713,5.0992-3.37643,9.88642-7.14395,14.38738-11.29422,3.09802-2.85676,6.00604-5.88585,8.76368-9.05879,2.60657-2.99887,5.02134-6.15203,7.28289-9.42559,3.94718-5.7133,7.35754-11.72603,10.17662-18.06771,3.7427-8.41983,6.44124-17.16534,8.02882-26.24815.78986-4.51904,1.38382-9.05705,1.38311-13.65511.00036-.38819,0-.77705,0-1.16551.00036-.45288,0-.90603,0-1.35922.05518-.69928-.1134-1.40825.09036-2.10114v-2.28003ZM111.85249,218.10175c-58.98066.00304-106.33873-47.35347-106.31944-106.33208.01947-58.98401,47.43468-106.3023,106.39784-106.25457,58.8994.04768,105.97318,47.38209,106.25105,106.28882-.27644,58.94494-47.39057,106.2948-106.32944,106.29784Z"/>
  <path class="cls-1" d="M111.00342,191.6877c-8.53334-.13805-16.24017-1.17003-23.57677-4.2081-2.70944-1.12199-5.26734-2.49154-7.48053-4.46651-1.57339-1.40401-2.02542-3.16764-1.82001-5.14377.69223-6.65935-2.60213-12.78769-8.50001-16.01658-3.52679-1.9308-7.35471-2.92858-11.17235-4.00195-5.71371-1.60647-11.34769-3.42352-16.49126-6.47915-4.76946-2.8334-8.04488-6.77453-9.08363-12.35486-.61855-3.32288-.05082-6.50879,1.19875-9.58814,2.68137-6.60781,7.61586-10.35923,14.63981-11.408,3.07727-.45947,6.01427.01023,8.90867,1.15413,4.48525,1.77262,9.19762,2.79303,13.86783,3.93817,2.5773.63196,5.15635,1.24326,7.64354,2.19584,1.6171.61934,3.31957.88125,5.04597.97259.41492.02196.84844.01239,1.07779-.4144.21344-.39717-.13652-.65511-.32327-.92618-1.79697-2.60826-3.12644-5.47618-4.5538-8.28445-1.15171-2.26596-1.52154-4.77022-1.75767-7.27114-.50542-5.35325.02218-10.59299,1.85155-15.67972.82273-2.28766,1.79871-4.49848,3.06046-6.57839.16883-.27829.32404-.53859.30204-.88852-.21956-3.49168-.43216-6.98381-.64015-10.4762-.07978-1.33958-.17712-2.67967-.19705-4.02055-.00851-.57243-.17776-.88221-.70634-1.13998-2.33646-1.13946-4.64965-2.32672-6.96901-3.50111-1.98167-1.00341-3.2683-2.50296-3.44147-4.80798-.16511-2.1978.64212-3.9659,2.46722-5.1627,1.14173-.74867,2.41194-1.30429,3.6355-1.92485,9.6902-4.91474,19.38464-9.82112,29.07296-14.73957,1.14351-.58053,2.22804-1.31482,3.52077-1.51163,1.55516-.23676,2.98289.17197,4.37898.89451,5.49809,2.84552,11.02124,5.64264,16.53475,8.45837,5.43629,2.7763,10.87219,5.55332,16.30819,8.33016,2.12903,1.08756,3.38301,2.79022,3.37565,5.21195-.00729,2.40377-1.1933,4.16166-3.34426,5.23312-2.27411,1.1328-4.55127,2.26133-6.85535,3.33088-.66732.30977-.85783.70051-.84669,1.40543.04759,3.01-.01511,6.02232.06654,9.03097.04752,1.75092.10391,3.5013.10412,5.25279.00005.42537.1106.8686-.21001,1.26168-.2192.26877.0532.49048.18325.69874,2.63203,4.2152,4.37133,8.77702,5.07449,13.68954.58531,4.08917.87849,8.2165-.66878,12.18428-1.20177,3.08177-2.96208,5.88835-4.64115,8.7274-.43065.72814-.94017,1.41052-1.35537,2.14669-.62074,1.10063-.27471,1.6719.96516,1.64278.28623-.00672.58498-.05257.8537-.14843,5.94345-2.12054,12.12232-3.40082,18.18217-5.10505,3.31124-.93125,6.58766-2.0068,9.9321-2.79549,9.41214-2.2196,17.81708,3.03785,21.10455,11.4312,3.60358,9.20034-.96027,17.97953-8.47854,22.39658-2.43819,1.43246-5.13885,2.04417-7.81501,2.7338-4.18567,1.07861-8.2292,2.60487-12.36939,3.82317-2.46126.72426-4.93438,1.41059-7.38181,2.17887-6.40649,2.01108-10.40697,6.18786-11.62086,12.90972-.30907,1.71144-.17546,3.42132-.27671,5.12983-.17427,2.94094-1.72302,5.00354-4.02314,6.62715-3.08972,2.181-6.62332,3.27794-10.24682,4.12367-3.60866.84224-7.26559,1.38901-10.96877,1.60303-2.06677.11946-4.13329.24336-5.54056.32636Z"/>
  <path class="cls-1" d="M28.13916,104.02143c.4116-2.26174.81944-4.52418,1.23621-6.78497.24802-1.34537.49069-2.6923.77576-4.03.10778-.50578-.1745-.75728-.48066-1.03419-2.61983-2.36962-5.22882-4.75136-7.86336-7.1045-1.12151-1.00171-1.6385-2.19916-1.23416-3.66197.41838-1.51359,1.51538-2.28622,3.04955-2.4944,3.77919-.5128,7.55465-1.05435,11.33792-1.53466.55831-.07088.79769-.31709,1.03331-.76139,1.62788-3.06956,3.3447-6.09392,4.89989-9.19945,1.28983-2.57565,5.00808-2.7995,6.41624-.09775,1.52482,2.92558,3.16986,5.78984,4.63973,8.74196.50139,1.007,1.15662,1.34065,2.18834,1.46465,3.49726.42034,6.98463.92247,10.477,1.38411,1.57029.20757,2.67227.99286,3.08955,2.55539.42976,1.60931-.29444,2.79621-1.46461,3.83511-2.59777,2.30633-5.1637,4.64849-7.75136,6.96626-.3421.30643-.42683.60402-.33652,1.07339.64912,3.37382,1.28774,6.75027,1.86923,10.13628.41277,2.40361-1.32164,4.34404-3.66901,4.20876-.63147-.03641-1.18255-.31572-1.72987-.57772-3.26511-1.56288-6.52833-3.13016-9.77308-4.73463-.53567-.26489-.93752-.24064-1.45794.01534-3.32737,1.63676-6.66653,3.24989-10.01255,4.84831-2.14822,1.02624-4.40542.11603-5.04165-1.98336-.1228-.4052-.08685-.80901-.19794-1.23058Z"/>
  <path class="cls-2" d="M110.51679,186.08755c-6.70422.13706-13.08705-.82982-19.27426-3.00654-2.45491-.86367-4.80643-1.9462-6.91683-3.50445-.46606-.34413-.68747-.72726-.65989-1.32237.14527-3.13505-.08815-6.22375-1.13913-9.21745-1.89699-5.40354-5.49928-9.31451-10.44753-12.07928-3.7812-2.11268-7.91336-3.24041-12.04903-4.36699-5.01625-1.36644-9.94053-2.97116-14.52274-5.49211-3.02355-1.66344-5.51084-3.82481-6.72888-7.161-.89952-2.46377-.85322-4.92816.01458-7.42147.75013-2.15523,1.70924-4.15921,3.41894-5.71376,2.03618-1.85139,4.41439-2.93949,7.16079-3.36306,2.35201-.36273,4.49781.12159,6.63254,1.0023,2.91694,1.20341,6.00435,1.85198,9.02627,2.71522,3.80464,1.08683,7.74412,1.67007,11.47353,3.02291,2.70858.98254,5.46192,1.64799,8.35725,1.53323,2.41976-.09591,4.19676-1.2751,5.32771-3.39748,1.03811-1.94816.90673-3.89611-.27972-5.71781-1.6764-2.57394-3.03905-5.3165-4.44999-8.03284-.80145-1.54296-1.02694-3.24971-1.28519-4.956-.215-1.42049-.24706-2.85964-.24658-4.26103.00078-2.25071.20598-4.52273.7896-6.73305.61979-2.34726,1.43222-4.61609,2.49405-6.80076.26425-.5437.47884-.58309.9727-.24842,4.26547,2.89052,8.90124,4.97747,13.90754,6.19313,2.14261.52029,4.31746.88618,6.53513,1.01647,1.16352.06835,2.32502.17015,3.48894.13613,5.34719-.15628,10.50016-1.21328,15.43124-3.32504,2.63881-1.13009,5.14386-2.49671,7.48895-4.14311.55017-.38625.77752-.26303,1.0567.236,2.02517,3.61993,3.43478,7.43791,3.9041,11.58886.27197,2.40547.49853,4.78511.00794,7.19991-.4417,2.17423-1.67842,3.95647-2.64206,5.87619-1.1002,2.19173-2.63196,4.14043-3.70707,6.33441-1.26376,2.57894-1.00178,5.13473.90527,7.33882.99787,1.15333,2.41365,1.73743,3.94165,1.85513,1.39628.10755,2.77339.01882,4.13479-.4752,5.12574-1.85992,10.45918-2.99491,15.70989-4.42042,3.79124-1.02928,7.53085-2.26529,11.3497-3.17239,6.09603-1.44803,11.24302,1.12464,14.20141,6.45596,1.07485,1.93699,1.62986,4.02862,1.62616,6.18524-.00428,2.48891-.84134,4.81521-2.34347,6.82922-1.76078,2.36079-3.95253,4.23171-6.77658,5.18282-1.84389.62101-3.75536,1.04176-5.63744,1.54889-3.23413.87146-6.37934,2.02532-9.57736,3.01003-3.08755.95065-6.22187,1.75271-9.29575,2.74378-5.33883,1.72133-9.69763,4.77703-12.56775,9.70743-1.68057,2.88693-2.54758,6.03145-2.89256,9.3493-.10014.96307-.22444,1.93114-.11092,2.87318.20952,1.73869-.63881,2.8138-1.97914,3.66794-2.34537,1.49462-4.95899,2.30909-7.6285,2.95714-2.93871.71338-5.92401,1.13389-8.93392,1.45304-2.47192.26213-4.9389.33189-7.26508.31932Z"/>
  <path class="cls-2" d="M110.9189,78.96321c-.21275-.07714-.38363-.11937-.53628-.19731-4.78434-2.44294-9.56672-4.88971-14.34998-7.3348-.57218-.29249-1.14794-.57799-1.72141-.868-5.42065-2.7413-10.84187-5.4815-16.25947-8.22881-.24668-.12509-.64339-.16139-.6454-.5087-.00203-.34976.39593-.38575.64209-.51042,5.96626-3.02171,11.93722-6.03413,17.90498-9.05289,4.06495-2.05624,8.12774-4.11679,12.1882-6.18188.88398-.44958,1.7722-.89593,2.62401-1.40178.57599-.34205,1.05115-.28139,1.6286.0149,6.13083,3.14581,12.27621,6.26326,18.41337,9.39678,4.73232,2.41624,9.45954,4.84249,14.18508,7.27198.24281.12484.65629.1467.64376.49245-.01143.31533-.38863.40205-.64516.52789-5.87172,2.8803-11.74402,5.75941-17.61893,8.63319-5.06149,2.47588-10.12552,4.94653-15.19119,7.41383-.41633.20278-.85384.36212-1.26229.53359Z"/>
  <path class="cls-2" d="M88.68437,73.89032c2.02839,1.01434,4.01264,1.99567,5.98684,2.99678,2.18683,1.10894,4.36415,2.2366,6.54622,3.35494,2.26003,1.1583,4.518,2.32063,6.78205,3.47103,1.914.97254,3.78438,1.00558,5.76003.01467,5.58387-2.80068,11.21067-5.5159,16.82553-8.25459,1.32963-.64854,2.67877-1.25704,4.13035-1.93608,0,1.41055-.00063,2.71532.00015,4.02009.00128,2.1331-.01124,4.26639.01475,6.3992.00732.60074-.16365.97978-.66503,1.38848-4.56715,3.7229-9.7623,6.10679-15.49601,7.33175-1.69951.3631-3.43112.54535-5.17844.66747-3.67187.25664-7.25482-.18609-10.78096-1.10735-4.61996-1.20702-8.80527-3.35563-12.6988-6.10552-.75007-.52974-.73269-1.28444-.77327-2.00059-.15976-2.81919-.26294-5.6417-.37339-8.4635-.02148-.54869-.31053-1.07515-.08002-1.77679Z"/>
  <path class="cls-2" d="M59.78628,83.73517c-2.01344,1.79778-3.79694,3.50871-5.70843,5.06215-1.74996,1.42215-1.82106,3.15247-1.39871,5.12529.44304,2.06943.79207,4.15903,1.17676,6.24082.02007.10862-.01061.22663-.01665.32381-.21887.11902-.36174-.01287-.50967-.08463-2.25816-1.09556-4.54265-2.14138-6.76249-3.30995-1.66608-.87705-3.20197-.8857-4.87844-.00206-2.34394,1.23546-4.76526,2.32409-7.27239,3.53287.0133-1.00326.2615-1.88114.42413-2.76747.30891-1.68351.65591-3.36035.94266-5.04753.2933-1.7257-.41766-3.0291-1.72452-4.13437-1.8378-1.5543-3.61007-3.18609-5.55715-4.9151,1.69627-.22503,3.20281-.42329,4.70886-.62516,1.40831-.18878,2.81981-.35801,4.22302-.57946,1.20372-.18995,2.04955-.88909,2.62055-1.96279,1.20465-2.26518,2.42661-4.52119,3.6527-6.77485.11459-.21063.12563-.5853.46044-.55177.24825.02486.27935.34788.38707.5468,1.22172,2.25607,2.44537,4.51117,3.65022,6.77627.67438,1.26785,1.71634,1.87252,3.13666,2.0367,2.33166.26953,4.65104.64471,6.9765.96879.39806.05548.80067.07834,1.46887.14163Z"/>
</svg>