<?xml version="1.0" encoding="UTF-8"?>
<svg id="_Слой_1" data-name="Слой 1" xmlns="http://www.w3.org/2000/svg" viewBox="0 0 223.59317 223.61215">
  <defs>
    <style>
      .cls-1 {
        fill: #718c09;
      }

      .cls-1, .cls-2 {
        stroke-width: 0px;
      }

      .cls-2 {
        fill: #aac419;
      }
    </style>
  </defs>
  <path class="cls-1" d="M223.14267,102.17154c-.24644-3.20504-.63611-6.38271-1.17971-9.5364-1.04648-6.07024-2.60898-12.01426-4.65096-17.83395-2.87462-8.1924-6.64964-15.94068-11.32543-23.25035-5.18912-8.11235-11.32534-15.42971-18.41438-21.95564-3.72359-3.42777-7.64612-6.59942-11.79474-9.49122-10.14519-7.07172-21.16524-12.30749-33.04534-15.74924C133.18454,1.5887,123.43786.19081,113.51045.01044c-3.84333-.06983-7.67157.22412-11.50579.47703-4.11477.27144-8.17481.87732-12.19762,1.69054-11.05247,2.23436-21.55053,6.02876-31.46213,11.43383-12.79961,6.98006-23.82538,16.10921-33.06168,27.37142-8.54581,10.42033-14.98607,22.03721-19.32532,34.80294-2.06788,6.08354-3.63046,12.29436-4.58569,18.65546-.56244,3.74475-1.07095,7.49263-1.20096,11.2823-.00679.19814.03518.41699-.17126.55619v11.22457c.37306.78821.24216,1.65397.29903,2.47129.49592,7.11895,1.71018,14.11263,3.57046,20.99398,2.53389,9.37269,6.22703,18.26651,11.0822,26.68107,3.89592,6.75215,8.43804,13.03204,13.64019,18.83186,5.51976,6.1539,11.65491,11.62701,18.39456,16.41516,7.38709,5.24809,15.29082,9.53756,23.72377,12.87283,7.10404,2.80961,14.41559,4.86062,21.92609,6.19564,3.38331.60142,6.80429.96836,10.22439,1.33463,1.08006.11568,2.20101-.12492,3.24678.31095h11.22453c.13456-.21613.35672-.16738.55271-.17095,3.23928-.05871,6.44838-.4798,9.64543-.93027,6.47704-.91255,12.83149-2.39281,19.04986-4.43479,11.01238-3.61613,21.22373-8.81275,30.63093-15.58083,7.09609-5.10541,13.49233-10.98505,19.20978-17.59451,4.67382-5.40306,8.78217-11.21306,12.33905-17.41196,4.37756-7.62885,7.83729-15.6516,10.2893-24.09839,2.0927-7.20931,3.55073-14.52966,4.09879-22.04332.20751-2.84591.35627-5.69285.42717-8.53657.08831-3.54706-.15983-7.09225-.43234-10.63901ZM186.785,187.07868c-18.7827,18.98401-41.92921,29.31898-68.53555,30.80812-31.64571,1.77121-59.15531-8.63211-81.64696-31.03586-20.68825-20.6074-30.64637-45.95487-31.1589-72.68796C5.77442,52.77032,52.90176,5.43024,111.8626,5.53681c58.85458.10634,101.6975,45.82147,105.77138,96.72,2.63443,32.9135-7.65443,61.37887-30.84897,84.82186Z"/>
  <path class="cls-1" d="M162.77577,170.61266c-1.01264-.22774-2.03832-.0905-3.05704-.09889-.49538-.00411-.78111-.14586-1.03666-.59396-1.89421-3.32326-3.82217-6.62732-5.73674-9.93901-5.08608-8.79735-10.16626-17.59804-15.25742-26.39244-3.84753-6.64611-7.71345-13.2816-11.5583-19.92933-.69164-1.19596-1.14622-2.49478-1.24578-3.87762-.12947-1.79996.52306-3.38554,1.56473-4.80624,3.3367-4.55042,6.23212-9.39015,9.28746-14.12437,6.47686-10.03585,12.91962-20.09371,19.36238-30.15139.25367-.39605.51905-.55083.98353-.54565,1.98734.02205,3.97503.0129,5.96264.00808,1.89778-.0046,2.98489-1.088,2.98873-2.98596.00589-2.86444-.08661-5.73245.02929-8.5922.09438-2.32879-1.37579-3.53488-3.52608-3.5309-23.32464.0434-46.64946.0271-69.9741.0271-9.93785,0-19.87571-.00143-29.81356.00129-2.01296.00054-3.1649,1.14091-3.16767,3.12843-.00411,2.98137-.00661,5.96273.00107,8.94405.00473,1.87546,1.13274,3.00413,2.99766,3.00793,2.68898.00549,5.37815.01228,8.06704-.00813.49646-.00379.7954.15617,1.06282.58137,9.1879,14.60877,18.37232,29.21996,27.60067,43.80319,1.55776,2.46152,1.63732,4.82115.1734,7.31588-2.92605,4.98629-5.82281,9.98987-8.71815,14.99411-8.23267,14.22942-16.4616,28.46103-24.67757,42.70014-.38395.66553-.78468,1.08702-1.63062.96867-.602-.0842-1.22578-.03014-1.83912-.0129-1.89608.05322-3.03356,1.21596-3.03695,3.10552-.00509,2.8352-.0017,5.67044-.00152,8.50563.00036,2.5375.9388,3.47487,3.48429,3.47496,16.60214.00054,33.2041.00031,49.80624.00031,16.45588,0,32.91176.00004,49.36773-.00031.40922-.00004.81879.00683,1.22748-.00897,1.40784-.05442,2.53228-1.08805,2.55049-2.49433.04241-3.27312.03831-6.54736.00545-9.82062-.01366-1.35998-.91871-2.35504-2.24583-2.65345ZM151.89769,170.50248c-.14483-.01362-.29207-.00192-.43824-.00192h-79.27183c-.14608,0-.29287-.0088-.43833.00143-.6328.04447-.8871-.06884-.47744-.75625,1.28543-2.15712,2.52103-4.34398,3.7777-6.51821,4.86606-8.41889,9.70302-16.85479,14.60801-25.25095,4.65427-7.96694,9.13772-16.0326,13.95932-23.90374,2.34396-3.82641,2.3829-7.79752-.11902-11.63348-7.17967-11.00791-14.02495-22.22682-21.05738-33.3275-.92112-1.45392-1.83037-2.91529-2.7364-4.37876-.90603-1.46343-1.80885-2.92891-2.71711-4.3909-.08179-.05572-.17296-.11237.01429-.14077.32064-.01281.64128-.03688.96184-.03688,23.26464-.00179,46.5291-.00174,69.79365-.00027.32091,0,.64182.01987.96273.03036v.00013c.19492.02848.11063.09652.02339.16501-1.63821,2.5884-3.26303,5.18541-4.91696,7.76372-7.64782,11.92193-15.30269,23.83936-22.95819,35.75638-.84433,1.31445-1.27551,2.7447-1.25435,4.30577.01822,1.34248-.08054,2.68684.07849,4.02736.21367,1.80184,1.18622,3.27848,2.06002,4.79124,7.98954,13.83154,15.98853,27.65769,23.98396,41.48588,2.1778,3.76667,4.34416,7.54014,6.53937,11.29677.31707.54262.33814.78299-.37752.71557Z"/>
  <path class="cls-2" d="M77.00125,60.20145c-.00215.04713-.00689.094-.01426.14068-.08182-.05564-.17297-.11231.01426-.14068Z"/>
  <path class="cls-2" d="M148.74289,60.3598c-.0118-.05453-.01958-.10964-.02339-.16516.19486.02862.11067.09667.02339.16516Z"/>
  <path class="cls-1" d="M112.43117,167.10217c-8.94083,0-17.88167.00134-26.82251-.00407-.4355-.00027-.87417-.03631-1.30588-.09567-2.03682-.28011-3.08871-2.31474-2.08361-4.12227,3.90105-7.01544,7.82695-14.01707,11.74345-21.02392,3.78839-6.77763,7.57647-13.55544,11.36532-20.33281.18516-.33118.42426-.64084.55695-.99132.80464-2.12524,2.3636-2.86602,4.55857-2.67225,1.47692.13037,2.96753-.08688,4.45657.13875,1.27747.19355,2.28535.75259,2.92316,1.8473,1.26301,2.16778,2.44851,4.38056,3.69503,6.55813,5.16247,9.01837,10.33685,18.02992,15.50449,27.04532,1.77094,3.08958,3.56176,6.16819,5.29309,9.27987,1.2509,2.24823-.04069,4.38388-2.62386,4.38662-9.08692.00964-18.17386.00376-27.26078.00376v-.01745ZM112.15671,161.53138c1.11052,0,2.22103-.00005,3.33155.00002,6.3124.00043,12.6248.00187,18.9372-.00093.41842-.00018,1.00562.13408.5529-.64891-1.59017-2.75029-3.1667-5.50848-4.75059-8.2624-2.63-4.57281-5.2671-9.14152-7.89119-13.71772-2.82734-4.9306-5.64151-9.86875-8.46603-14.80098-.37132-.6484-2.95491-.95125-3.45973-.41558-.05849.06205-.09285.14752-.1355.22377-.56928,1.01783-1.13981,2.03497-1.70667,3.05415-2.06897,3.71999-4.13155,7.44355-6.20621,11.16037-2.42965,4.3528-4.86781,8.70087-7.30533,13.04928-1.76748,3.15306-3.54052,6.30299-5.3091,9.45543-.14004.24961-.43476.52211-.30716.77645.13855.27617.52459.11946.79787.11973,7.30599.00726,14.61199.00578,21.91799.00733Z"/>
  <path class="cls-1" d="M112.80708,79.24738c3.3301,0,6.66024-.00732,9.99031.00265,2.11819.00634,3.34634,1.77992,2.60474,3.78621-.25175.68107-.6101,1.32391-.93515,1.97654-1.95192,3.91908-3.95347,7.81437-5.84027,11.7645-.71962,1.50659-1.82008,2.10488-3.39339,2.10311-1.81105-.00202-3.62212.02243-5.43318.02212-1.05042-.00017-1.89433-.46409-2.36501-1.38215-2.43692-4.75321-4.86284-9.5125-7.23603-14.29772-.95602-1.92769.37724-3.96537,2.53023-3.97547,3.35918-.01576,6.71849-.00417,10.07775-.00417v.00438ZM112.82005,84.70779c-1.66571,0-3.33143-.00233-4.99713.00193-.3431.00088-.79453-.08091-.48571.53403,1.2977,2.58403,2.58788,5.17184,3.89121,7.75303.13106.25954.31373.50208.68871.388.51422-.15646,1.04971-.10145,1.56695-.06264.59261.04446.88389-.19101,1.13316-.71083,1.16014-2.41931,2.33796-4.83089,3.56118-7.21873.32932-.64284.07351-.68896-.44893-.68699-1.63647.00615-3.27295.00226-4.90944.00221Z"/>
  <path class="cls-2" d="M112.15671,161.5306c-7.306-.00077-14.612.00071-21.91799-.00655-.27328-.00027-.65932.15644-.79787-.11973-.1276-.25434.16713-.52684.30716-.77645,1.76858-3.15244,3.54163-6.30236,5.3091-9.45543,2.43752-4.34841,4.87568-8.69648,7.30533-13.04928,2.07467-3.71682,4.13724-7.44038,6.20621-11.16037.56685-1.01918,1.13738-2.03633,1.70667-3.05415.04265-.07625.07701-.16171.1355-.22377.50482-.53567,3.0884-.23281,3.45973.41558,2.82451,4.93223,5.63869,9.87038,8.46603,14.80098,2.62409,4.57619,5.26119,9.14491,7.89119,13.71772,1.58389,2.75392,3.16042,5.51211,4.75059,8.2624.45272.78299-.13448.64873-.5529.64891-6.3124.0028-12.6248.00136-18.9372.00093-1.11052-.00007-2.22103-.00002-3.33155-.0008Z"/>
  <path class="cls-2" d="M112.82005,84.70782c1.63649.00003,3.27297.00392,4.90944-.00223.52244-.00196.77825.04415.44893.68699-1.22322,2.38784-2.40104,4.79941-3.56118,7.21873-.24927.51982-.54055.75528-1.13316.71083-.51724-.0388-1.05273-.09382-1.56695.06264-.37498.11408-.55766-.12846-.68871-.388-1.30333-2.58119-2.59351-5.169-3.89121-7.75303-.30882-.61494.14261-.53315.48571-.53403,1.6657-.00426,3.33142-.00193,4.99713-.0019Z"/>
</svg>