<svg id="Слой_1" data-name="Слой 1" xmlns="http://www.w3.org/2000/svg" viewBox="0 0 407.93311 407.93396"><defs><style>.cls-1,.cls-3{fill:none;}.cls-1,.cls-5,.cls-6{stroke:#718c09;}.cls-1,.cls-3,.cls-5,.cls-6{stroke-miterlimit:10;}.cls-1{stroke-width:10px;}.cls-2{fill:#aac419;}.cls-3{stroke:#b8e87b;}.cls-4{fill:#b8e87b;}.cls-5{fill:#718c09;}.cls-6{fill:#4a6401;}</style></defs><circle class="cls-1" cx="500.17037" cy="500.09753" r="198.96661" transform="translate(-503.33003 204.01845) rotate(-45)"/><path class="cls-2" d="M428.17,504.34274H414.39461a6.78548,6.78548,0,0,0-6.78565,6.786v105.8811a6.78517,6.78517,0,0,0,6.78565,6.78492H428.17a6.78547,6.78547,0,0,0,6.78564-6.78492V511.12875a6.78578,6.78578,0,0,0-6.78564-6.786" transform="translate(-296.20418 -296.13058)"/><path class="cls-3" d="M428.17,504.34274H414.39461a6.78548,6.78548,0,0,0-6.78565,6.786v105.8811a6.78517,6.78517,0,0,0,6.78565,6.78492H428.17a6.78547,6.78547,0,0,0,6.78564-6.78492V511.12875a6.78578,6.78578,0,0,0-6.78564-6.786" transform="translate(-296.20418 -296.13058)"/><path class="cls-1" d="M118.1908,208.21216h13.775a6.78564,6.78564,0,0,1,6.78564,6.78564V320.87927a6.78491,6.78491,0,0,1-6.78491,6.78491H118.19043a6.78564,6.78564,0,0,1-6.78564-6.78564V214.99817A6.786,6.786,0,0,1,118.1908,208.21216Z"/><path class="cls-2" d="M479.544,475.34286H467.19685a7.4993,7.4993,0,0,0-7.499,7.5v133.452a7.4993,7.4993,0,0,0,7.499,7.5H479.544a7.50045,7.50045,0,0,0,7.5-7.5v-133.452a7.50045,7.50045,0,0,0-7.5-7.5" transform="translate(-296.20418 -296.13058)"/><path class="cls-3" d="M479.544,475.34286H467.19685a7.4993,7.4993,0,0,0-7.499,7.5v133.452a7.4993,7.4993,0,0,0,7.499,7.5H479.544a7.50045,7.50045,0,0,0,7.5-7.5v-133.452a7.50045,7.50045,0,0,0-7.5-7.5" transform="translate(-296.20418 -296.13058)"/><path class="cls-1" d="M170.99365,179.21228h12.34717a7.499,7.499,0,0,1,7.499,7.499v133.453a7.5,7.5,0,0,1-7.5,7.5H170.99365a7.5,7.5,0,0,1-7.5-7.5v-133.452A7.5,7.5,0,0,1,170.99365,179.21228Z"/><path class="cls-2" d="M531.80476,449.29867H520.83357a8.18818,8.18818,0,0,0-8.188,8.18811v158.12a8.18815,8.18815,0,0,0,8.188,8.188h10.97119a8.18815,8.18815,0,0,0,8.188-8.188v-158.12a8.18818,8.18818,0,0,0-8.188-8.18811" transform="translate(-296.20418 -296.13058)"/><path class="cls-3" d="M531.80476,449.29867H520.83357a8.18818,8.18818,0,0,0-8.188,8.18811v158.12a8.18815,8.18815,0,0,0,8.188,8.188h10.97119a8.18815,8.18815,0,0,0,8.188-8.188v-158.12a8.18818,8.18818,0,0,0-8.188-8.18811" transform="translate(-296.20418 -296.13058)"/><path class="cls-1" d="M224.62952,153.16809h10.97107a8.188,8.188,0,0,1,8.188,8.188V319.4762a8.188,8.188,0,0,1-8.188,8.188H224.62939a8.188,8.188,0,0,1-8.188-8.188v-158.12A8.18811,8.18811,0,0,1,224.62952,153.16809Z"/><path class="cls-2" d="M586.95467,422.60336H571.16219a5.77788,5.77788,0,0,0-5.77686,5.77808v189.636a5.77778,5.77778,0,0,0,5.77686,5.778h15.79248a5.77777,5.77777,0,0,0,5.77685-5.778v-189.636a5.77787,5.77787,0,0,0-5.77685-5.77808" transform="translate(-296.20418 -296.13058)"/><path class="cls-3" d="M586.95467,422.60336H571.16219a5.77788,5.77788,0,0,0-5.77686,5.77808v189.636a5.77778,5.77778,0,0,0,5.77686,5.778h15.79248a5.77777,5.77777,0,0,0,5.77685-5.778v-189.636a5.77787,5.77787,0,0,0-5.77685-5.77808" transform="translate(-296.20418 -296.13058)"/><path class="cls-1" d="M274.95923,126.47278h15.79126a5.77686,5.77686,0,0,1,5.77686,5.77686V321.88684a5.778,5.778,0,0,1-5.778,5.778H274.958a5.77686,5.77686,0,0,1-5.77686-5.77686V132.25085A5.77808,5.77808,0,0,1,274.95923,126.47278Z"/><path class="cls-4" d="M410.36189,472.18478q27.52441-15.13788,55.05079-30.27588,43.65013-24.0075,87.30078-48.01306,10.10742-5.55908,20.21533-11.118c5.64062-3.10193.60107-11.741-5.04736-8.635q-27.52441,15.13806-55.05079,30.2771-43.65014,24.00585-87.30078,48.012-10.10742,5.5589-20.21533,11.118c-5.64087,3.10193-.60107,11.741,5.04736,8.63489" transform="translate(-296.20418 -296.13058)"/><path class="cls-5" d="M410.36189,472.18478q27.52441-15.13788,55.05079-30.27588,43.65013-24.0075,87.30078-48.01306,10.10742-5.55908,20.21533-11.118c5.64062-3.10193.60107-11.741-5.04736-8.635q-27.52441,15.13806-55.05079,30.2771-43.65014,24.00585-87.30078,48.012-10.10742,5.5589-20.21533,11.118c-5.64087,3.10193-.60107,11.741,5.04736,8.63489" transform="translate(-296.20418 -296.13058)"/><path class="cls-6" d="M541.11238,381.40011q14.6455,1.03052,29.293,2.06006c6.42188.452,6.39356-9.55,0-10q-14.64624-1.029-29.293-2.06006c-6.42236-.4519-6.394,9.55,0,10" transform="translate(-296.20418 -296.13058)"/><path class="cls-5" d="M541.11238,381.40011q14.6455,1.03052,29.293,2.06006c6.42188.452,6.39356-9.55,0-10q-14.64624-1.029-29.293-2.06006c-6.42236-.4519-6.394,9.55,0,10" transform="translate(-296.20418 -296.13058)"/><path class="cls-4" d="M560.46932,407.02963q7.21728-12.78735,14.43457-25.573c3.167-5.61194-5.46875-10.658-8.63477-5.048q-7.218,12.78753-14.43408,25.574c-3.168,5.61206,5.4668,10.65808,8.63428,5.047" transform="translate(-296.20418 -296.13058)"/><path class="cls-5" d="M560.46932,407.02963q7.21728-12.78735,14.43457-25.573c3.167-5.61194-5.46875-10.658-8.63477-5.048q-7.218,12.78753-14.43408,25.574c-3.168,5.61206,5.4668,10.65808,8.63428,5.047" transform="translate(-296.20418 -296.13058)"/></svg>