<svg id="Слой_1" data-name="Слой 1" xmlns="http://www.w3.org/2000/svg" viewBox="0 0 407.93311 407.93396"><defs><style>.cls-1{fill:none;}.cls-1,.cls-2,.cls-3{stroke:#718c09;stroke-miterlimit:10;}.cls-1,.cls-3{stroke-width:10px;}.cls-2,.cls-3{fill:#718c09;}</style></defs><path class="cls-1" d="M699.13728,500.0975c0,109.88611-89.08007,198.967-198.96875,198.967-109.88427,0-198.96435-89.08093-198.96435-198.967,0-109.886,89.08008-198.96692,198.96435-198.96692C610.05721,301.13058,699.13728,390.21151,699.13728,500.0975Z" transform="translate(-296.20418 -296.13058)"/><path class="cls-2" d="M522.80667,499.83194A22.61293,22.61293,0,1,1,500.20022,476.72a22.86361,22.86361,0,0,1,22.60645,23.11194" transform="translate(-296.20418 -296.13058)"/><path class="cls-3" d="M522.80667,499.83194A22.61293,22.61293,0,1,1,500.20022,476.72,22.86361,22.86361,0,0,1,522.80667,499.83194Z" transform="translate(-296.20418 -296.13058)"/><path class="cls-1" d="M434.11917,499.83194c0,96.223,29.585,174.22705,66.0791,174.22705,36.49512,0,66.08105-78.004,66.08105-174.22705,0-96.2229-29.58593-174.22693-66.081-174.22693C463.70413,325.605,434.11917,403.609,434.11917,499.83194Z" transform="translate(-296.20418 -296.13058)"/><path class="cls-1" d="M500.20022,567.38919c-94.12011,0-170.41943-30.246-170.41943-67.55689,0-37.311,76.29932-67.5581,170.41943-67.5581,94.11817,0,170.419,30.24707,170.419,67.5581C670.61917,537.14322,594.31839,567.38919,500.20022,567.38919Z" transform="translate(-296.20418 -296.13058)"/><path class="cls-1" d="M445.98977,547.6022c66.12452,67.604,140.65284,101.02,166.45752,74.63709,25.80567-26.38306-6.87793-102.574-73.00488-170.177-66.126-67.604-140.65283-101.02-166.459-74.63806C347.1763,403.80728,379.86331,479.99832,445.98977,547.6022Z" transform="translate(-296.20418 -296.13058)"/><path class="cls-1" d="M546.92679,547.6022c-66.12891,67.604-140.65332,101.02-166.45948,74.63709-25.80664-26.38306,6.8794-102.574,73.00635-170.177,66.12695-67.604,140.65039-101.02,166.459-74.63806C645.73929,403.80728,613.05276,479.99832,546.92679,547.6022Z" transform="translate(-296.20418 -296.13058)"/></svg>