<svg id="Слой_1" data-name="Слой 1" xmlns="http://www.w3.org/2000/svg" xmlns:xlink="http://www.w3.org/1999/xlink" viewBox="0 0 227.24041 227.24102"><defs><style>.cls-1,.cls-2{fill:none;}.cls-2{stroke:#718c09;stroke-miterlimit:5.57;stroke-width:5.57px;}.cls-3{fill:#aac419;}.cls-4{isolation:isolate;}.cls-5{clip-path:url(#clip-path);}.cls-6{font-size:66.8456px;fill:#718c09;font-family:ArialMT, Arial;}</style><clipPath id="clip-path" transform="translate(-386.55053 -386.47705)"><rect class="cls-1" x="508.71297" y="494.79464" width="44.81006" height="79.06995"/></clipPath></defs><circle class="cls-2" cx="500.17085" cy="500.09784" r="110.83522" transform="translate(-593.67645 113.67242) rotate(-45)"/><path class="cls-3" d="M498.57185,507.45614H444.56648a10.2385,10.2385,0,0,1-10.23877-10.23791v-54.006a10.24,10.24,0,0,1,10.23877-10.239h54.00537a10.24,10.24,0,0,1,10.23877,10.239v54.006a10.23912,10.23912,0,0,1-10.23877,10.23791" transform="translate(-386.55053 -386.47705)"/><path class="cls-2" d="M58.0151,46.49618h54.00708A10.23792,10.23792,0,0,1,122.2601,56.7341v54.00623a10.23877,10.23877,0,0,1-10.23877,10.23877H58.016a10.23877,10.23877,0,0,1-10.23877-10.23877V56.7341A10.23792,10.23792,0,0,1,58.0151,46.49618Z"/><path class="cls-3" d="M555.78035,567.22165H501.774a10.23829,10.23829,0,0,1-10.23779-10.23792v-54.006a10.23915,10.23915,0,0,1,10.23779-10.239h54.00635a10.23915,10.23915,0,0,1,10.23779,10.239v54.006a10.23766,10.23766,0,0,1-10.23779,10.23792" transform="translate(-386.55053 -386.47705)"/><path class="cls-2" d="M555.78035,567.22165H501.774a10.23829,10.23829,0,0,1-10.23779-10.23792v-54.006a10.23915,10.23915,0,0,1,10.23779-10.239h54.00635a10.23915,10.23915,0,0,1,10.23779,10.239v54.006A10.23766,10.23766,0,0,1,555.78035,567.22165Z" transform="translate(-386.55053 -386.47705)"/><line class="cls-2" x1="47.77719" y1="138.04709" x2="71.15609" y2="138.47018"/><line class="cls-2" x1="156.0892" y1="90.4808" x2="179.46811" y2="90.9039"/><g class="cls-4"><g class="cls-5"><text class="cls-6" transform="translate(122.25953 165.68271)">А</text></g></g><path class="cls-2" d="M436.74519,522.47421c.25586,3.927,1.55372,21.58008,10.94581,31.9801,14.32714,15.859,28.57617,13.11292,30.521,12.767" transform="translate(-386.55053 -386.47705)"/><path class="cls-2" d="M563.6573,479.57052c-.25634-3.92688-1.5542-21.57995-10.94629-31.98-14.32714-15.859-28.57617-13.11291-30.521-12.76794" transform="translate(-386.55053 -386.47705)"/><line class="cls-2" x1="65.85922" y1="74.08139" x2="102.75814" y2="74.08139"/><line class="cls-2" x1="85.01547" y1="74.08139" x2="85.01547" y2="57.18649"/><path class="cls-2" d="M461.92391,460.55844c.167,2.44507,1.002,13.436,7.07959,19.91406,9.269,9.87695,18.48925,8.167,19.748,7.949" transform="translate(-386.55053 -386.47705)"/><path class="cls-2" d="M480.18367,460.55844c-.16748,2.44507-1.00342,13.436-7.08008,19.91406-9.269,9.87695-18.48925,8.167-19.748,7.949" transform="translate(-386.55053 -386.47705)"/></svg>