<svg id="Слой_1" data-name="Слой 1" xmlns="http://www.w3.org/2000/svg" viewBox="0 0 407.93311 407.93396"><defs><style>.cls-1,.cls-3{fill:none;}.cls-1,.cls-5{stroke:#718c09;}.cls-1,.cls-3,.cls-5{stroke-miterlimit:10;}.cls-1{stroke-width:10px;}.cls-2{fill:#aac419;}.cls-3{stroke:#b8e87b;}.cls-4{fill:#b8e87b;}.cls-5,.cls-7{fill:#718c09;}.cls-6{fill:#e1e1e1;}</style></defs><circle class="cls-1" cx="500.17049" cy="500.09753" r="198.96667" transform="translate(-503.32999 204.01854) rotate(-45)"/><path class="cls-2" d="M426.58577,523.50412l-41.19409,14.00207a11.37352,11.37352,0,0,1-14.428-7.108l-6.459-19.004a11.3727,11.3727,0,0,1,7.10791-14.428l41.19311-14.002a11.37313,11.37313,0,0,1,14.428,7.108l6.46,19.005a11.37251,11.37251,0,0,1-7.10791,14.42688" transform="translate(-296.20418 -296.13058)"/><path class="cls-3" d="M426.58577,523.50412l-41.19409,14.00207a11.37352,11.37352,0,0,1-14.428-7.108l-6.459-19.004a11.3727,11.3727,0,0,1,7.10791-14.428l41.19311-14.002a11.37313,11.37313,0,0,1,14.428,7.108l6.46,19.005a11.37251,11.37251,0,0,1-7.10791,14.42688" transform="translate(-296.20418 -296.13058)"/><path class="cls-1" d="M426.58577,523.50412l-41.19409,14.00207a11.37352,11.37352,0,0,1-14.428-7.108l-6.459-19.004a11.3727,11.3727,0,0,1,7.10791-14.428l41.19311-14.002a11.37313,11.37313,0,0,1,14.428,7.108l6.46,19.005A11.37251,11.37251,0,0,1,426.58577,523.50412Z" transform="translate(-296.20418 -296.13058)"/><path class="cls-2" d="M531.37093,508.075l-99.1001,33.68408a12.75542,12.75542,0,0,1-16.18091-7.97107l-18.22314-53.615a12.75483,12.75483,0,0,1,7.97094-16.18091l99.1001-33.68408a12.75437,12.75437,0,0,1,16.18091,7.97205l18.22314,53.614a12.754,12.754,0,0,1-7.97094,16.18091" transform="translate(-296.20418 -296.13058)"/><path class="cls-3" d="M531.37093,508.075l-99.1001,33.68408a12.75542,12.75542,0,0,1-16.18091-7.97107l-18.22314-53.615a12.75483,12.75483,0,0,1,7.97094-16.18091l99.1001-33.68408a12.75437,12.75437,0,0,1,16.18091,7.97205l18.22314,53.614a12.754,12.754,0,0,1-7.97094,16.18091" transform="translate(-296.20418 -296.13058)"/><path class="cls-1" d="M531.37093,508.075l-99.1001,33.68408a12.75542,12.75542,0,0,1-16.18091-7.97107l-18.22314-53.615a12.75483,12.75483,0,0,1,7.97094-16.18091l99.1001-33.68408a12.75437,12.75437,0,0,1,16.18091,7.97205l18.22314,53.614A12.754,12.754,0,0,1,531.37093,508.075Z" transform="translate(-296.20418 -296.13058)"/><path class="cls-2" d="M639.09847,491.10019l-120.2212,40.863a12.67172,12.67172,0,0,1-16.07495-7.91992l-29.99707-88.25207a12.67158,12.67158,0,0,1,7.92017-16.075l120.22-40.863a12.67091,12.67091,0,0,1,16.075,7.91894l29.99707,88.25305a12.67014,12.67014,0,0,1-7.91894,16.075" transform="translate(-296.20418 -296.13058)"/><path class="cls-1" d="M639.09847,491.10019l-120.2212,40.863a12.67172,12.67172,0,0,1-16.07495-7.91992l-29.99707-88.25207a12.67158,12.67158,0,0,1,7.92017-16.075l120.22-40.863a12.67091,12.67091,0,0,1,16.075,7.91894l29.99707,88.25305A12.67014,12.67014,0,0,1,639.09847,491.10019Z" transform="translate(-296.20418 -296.13058)"/><line class="cls-4" x1="130.08984" y1="353.46045" x2="173.41968" y2="248.63049"/><path class="cls-5" d="M431.11556,650.92013q18.9298-45.79944,37.86084-91.6,2.73449-6.61488,5.469-13.23c2.45605-5.942-7.21484-8.532-9.64307-2.658q-18.93128,45.79944-37.86181,91.6-2.733,6.61506-5.468,13.23c-2.45606,5.941,7.21484,8.532,9.64307,2.658" transform="translate(-296.20418 -296.13058)"/><line class="cls-4" x1="239.80151" y1="353.69336" x2="191.67529" y2="241.26746"/><path class="cls-5" d="M540.32308,647.30038q-21.078-49.24035-42.15723-98.48193-2.985-6.97193-5.969-13.944c-2.5249-5.89807-11.14184-.81006-8.635,5.048q21.07984,49.24054,42.15723,98.481,2.985,6.9721,5.969,13.94409c2.5249,5.89893,11.14184.80994,8.635-5.04712" transform="translate(-296.20418 -296.13058)"/><line class="cls-4" x1="183.85767" y1="248.86353" x2="183.85767" y2="353.46057"/><path class="cls-5" d="M475.06184,544.99411v104.597c0,6.434,10,6.44507,10,0v-104.597c0-6.43494-10-6.44495-10,0" transform="translate(-296.20418 -296.13058)"/><line class="cls-4" x1="146.07373" y1="314.78979" x2="220.14258" y2="314.78979"/><path class="cls-5" d="M442.27791,615.92038h74.06885c6.43408,0,6.44507-10,0-10H442.27791c-6.43506,0-6.44507,10,0,10" transform="translate(-296.20418 -296.13058)"/><line class="cls-6" x1="173.32007" y1="248.37158" x2="191.67505" y2="241.32166"/><path class="cls-7" d="M470.85359,549.32357q9.17688-3.525,18.355-7.04992c5.94678-2.283,3.364-11.95606-2.6582-9.64307q-9.17835,3.52515-18.355,7.05c-5.947,2.28406-3.365,11.95605,2.6582,9.64294" transform="translate(-296.20418 -296.13058)"/></svg>