<svg id="Слой_1" data-name="Слой 1" xmlns="http://www.w3.org/2000/svg" viewBox="0 0 407.93311 407.93396"><defs><style>.cls-1{fill:#aac419;}.cls-2{fill:#718c09;}.cls-2,.cls-3{stroke:#718c09;stroke-miterlimit:10;}.cls-3{fill:none;stroke-width:10px;}</style></defs><path class="cls-1" d="M466.80965,618.71457q44.21484-109.63643,88.43164-219.272c2.8789-7.83093-1.30469-15.916-7.44385-17.926-6.65625-2.179-15.54,2.806-16.9292,11.8341q-44.21558,109.635-88.43164,219.271c-1.5581,6.5719,1.70557,13.05395,6.98584,15.291,6.39893,2.71093,15.01514-1.12708,17.38721-9.19812" transform="translate(-296.20418 -296.13058)"/><path class="cls-2" d="M471.63094,620.04379q23.77881-58.96344,47.55957-117.928,11.8894-29.4809,23.78027-58.963,5.94434-14.742,11.88867-29.48194c3.269-8.104,8.23145-16.505,5.354-25.45105-4.65284-14.468-23.05078-15.82995-31.18555-3.62292-2.0874,3.131-2.71338,6.76-4.09522,10.188q-3.15893,7.83143-6.31689,15.662-5.94434,14.742-11.89014,29.48193-23.77953,58.96362-47.56006,117.9281-6.687,16.58387-13.376,33.167-3.34352,8.29194-6.688,16.584c-1.81982,4.51294-2.69092,8.84094-1.30371,13.65a16.92587,16.92587,0,0,0,16.708,12.48291c8.24267-.32,14.52685-6.187,17.125-13.697,2.10791-6.095-7.54834-8.71289-9.64307-2.658-1.748,5.052-8.481,9.005-12.80713,4.295-2.58789-2.817-2.36523-6.251-1.1792-9.572,1.665-4.663,3.72119-9.228,5.57324-13.81994q10.032-24.87617,20.064-49.7511,20.25-50.211,40.501-100.422,10.21654-25.33648,20.43505-50.672c1.93116-4.787,3.7417-12.568,10.82569-11.391,8.85644,1.47205,4.80224,12.598,2.79,17.589q-20.25,50.211-40.501,100.4231-22.85083,56.65943-45.70166,113.32092c-2.40625,5.96606,7.2627,8.56006,9.64307,2.658" transform="translate(-296.20418 -296.13058)"/><path class="cls-1" d="M571.47664,449.86471q44.67114,26.56806,89.34082,53.135-44.6704,23.187-89.34082,46.374c-5.62842,4.089-13.458,2.19006-16.48633-3.285-2.99805-5.418-.53906-12.9729,5.80518-15.64392q27.676-14.36555,55.35107-28.73108-27.67529-16.461-55.35107-32.91992a10.86768,10.86768,0,1,1,10.68115-18.92908" transform="translate(-296.20418 -296.13058)"/><path class="cls-2" d="M568.9532,454.182Q613.62289,480.75,658.294,507.317v-8.635c-29.44384,15.28308-59.49316,29.765-88.46484,45.92005-2.58643,1.442-4.96436,2.792-7.94531,1.363A5.508,5.508,0,0,1,558.753,540.218c.356-2.75,2.32519-4.20092,4.56592-5.45593,3.67724-2.059,7.5039-3.895,11.24316-5.83606q22.054-11.44794,44.10791-22.895c3.3999-1.76489,3.09717-6.793,0-8.63489q-19.70727-11.72112-39.416-23.443-4.61278-2.742-9.22509-5.48608c-2.791-1.66-6.81006-3.11194-8.73975-5.79993-3.66211-5.10205,2.3208-11.08508,7.66406-8.48511,5.76367,2.80408,10.83887-5.81592,5.04688-8.63489-7.20215-3.504-15.66211-2.29907-20.65821,4.328A15.99531,15.99531,0,0,0,555.608,471.164c3.65918,3.26794,8.53076,5.436,12.728,7.933q7.54761,4.48811,15.09571,8.978,15.0952,8.97747,30.1914,17.95593v-8.63489c-17.873,9.277-35.70214,18.6449-53.62109,27.83289-6.5,3.333-11.3999,8.411-11.27588,16.203a15.5232,15.5232,0,0,0,11.0127,14.37012c8.03418,2.454,14.42822-2.19812,21.26806-5.74805q13.57691-7.047,27.15284-14.094,27.59106-14.322,55.18115-28.64307c3.3999-1.76489,3.09717-6.793,0-8.635q-44.67114-26.56639-89.34082-53.13489c-5.54395-3.297-10.5791,5.345-5.04688,8.63489" transform="translate(-296.20418 -296.13058)"/><path class="cls-1" d="M428.86434,449.86471q-44.67187,26.56806-89.34131,53.135,44.6704,23.187,89.34131,46.374c5.62792,4.089,13.45751,2.19006,16.48584-3.285,2.998-5.418.53906-12.9729-5.80518-15.64392q-27.676-14.36555-55.35107-28.73108,27.67528-16.461,55.35107-32.91992a10.86756,10.86756,0,1,0-10.68066-18.92908" transform="translate(-296.20418 -296.13058)"/><path class="cls-2" d="M426.34041,445.54733q-44.67041,26.56806-89.34033,53.135c-3.09815,1.842-3.3999,6.87,0,8.635q27.15161,14.094,54.30517,28.188,14.01417,7.2735,28.02784,14.54809c6.83984,3.55091,13.23486,8.20191,21.269,5.74793a15.52214,15.52214,0,0,0,11.01221-14.37c.11474-7.224-4.24317-12.609-10.41114-15.75293-18.229-9.29309-36.32519-18.85608-54.48584-28.2821v8.634l29.353-17.457q7.54761-4.48938,15.0957-8.97791c4.44629-2.644,9.68994-4.969,13.5669-8.432a16.07278,16.07278,0,0,0,2.65625-20.78308c-4.75586-7.08789-13.75-8.38391-21.04883-4.833-5.78613,2.81506-.72217,11.442,5.04687,8.635,5.34473-2.601,11.271,3.34009,7.66407,8.48511-1.686,2.4049-5.4253,3.828-7.90039,5.3009q-5.03247,2.99249-10.064,5.985-19.708,11.72114-39.417,23.443c-3.09668,1.842-3.3999,6.87012,0,8.634q21.62256,11.22455,43.24316,22.447c3.74707,1.94495,7.48194,3.918,11.24317,5.83606,2.58886,1.319,5.022,2.74292,5.43066,5.90491a5.53234,5.53234,0,0,1-3.12988,5.74707c-2.92871,1.40393-5.373.06995-7.9458-1.364-28.97119-16.15406-59.021-30.636-88.46436-45.91907v8.635q44.67042-26.56788,89.34033-53.135c5.52686-3.287.50293-11.93591-5.04687-8.635" transform="translate(-296.20418 -296.13058)"/><circle class="cls-3" cx="500.17037" cy="500.09753" r="198.96661" transform="translate(-503.33003 204.01845) rotate(-45)"/></svg>