<svg id="Слой_1" data-name="Слой 1" xmlns="http://www.w3.org/2000/svg" viewBox="0 0 227.23907 227.23855"><defs><style>.cls-1,.cls-3,.cls-4{fill:none;stroke:#718c09;stroke-miterlimit:5.57;}.cls-1{stroke-width:5.57px;}.cls-2{fill:#aac419;}.cls-3{stroke-width:6.2px;}.cls-4{stroke-width:5.966px;}</style></defs><path class="cls-1" d="M421.79939,421.72549a110.83463,110.83463,0,1,1,0,156.744A110.83442,110.83442,0,0,1,421.79939,421.72549Z" transform="translate(-386.55126 -386.47827)"/><path class="cls-2" d="M500.2242,424.53653a75.56354,75.56354,0,1,1-75.56348,75.56311,75.56429,75.56429,0,0,1,75.56348-75.56311" transform="translate(-386.55126 -386.47827)"/><circle class="cls-3" cx="500.22432" cy="500.09985" r="75.56372" transform="translate(-557.33702 337.38416) rotate(-63.43493)"/><path class="cls-1" d="M435.75154,466.10342c-8.46728,0,29.34473,17.06812,66.10987,17.01209,33.5288-.05,64.144-15.35206,66.03271-17.01209" transform="translate(-386.55126 -386.47827)"/><path class="cls-4" d="M500.2242,575.66323c-13.22412-14.38891-33.64014-29.86291-33.59033-75.0559.05029-41.222,24.57226-70.734,33.59033-76.07105" transform="translate(-386.55126 -386.47827)"/><path class="cls-4" d="M501.86238,575.62429c13.22461-14.38891,33.63965-29.86291,33.58985-75.05688-.0503-41.22107-24.57227-70.733-33.58985-76.07007" transform="translate(-386.55126 -386.47827)"/><path class="cls-1" d="M437.24471,532.63137c-8.46729,0,29.34472-17.068,66.10986-17.012,33.52881.05,64.144,15.352,66.03271,17.012" transform="translate(-386.55126 -386.47827)"/></svg>