<svg id="Слой_1" data-name="Слой 1" xmlns="http://www.w3.org/2000/svg" viewBox="0 0 227.24041 227.24102"><defs><style>.cls-1{fill:none;stroke:#718c09;stroke-miterlimit:5.57;stroke-width:5.57px;}.cls-2{fill:#aac419;}</style></defs><circle class="cls-1" cx="500.17085" cy="500.09784" r="110.83522" transform="translate(-593.67645 113.67242) rotate(-45)"/><path class="cls-2" d="M505.97518,473.18673c13.30761,9.358,67.09082,20.76709,82.78857,16.55506,0,0-10.42774,58.312-16.416,64.712-6.90771,7.387-33.25586,20.327-42.29687,18.829-9.04-1.499-30.3418-25.11206-33.646-32.994-3.54785-8.45593,9.57032-67.102,9.57032-67.102" transform="translate(-386.55053 -386.47705)"/><path class="cls-1" d="M505.97518,473.18673c13.30761,9.358,67.09082,20.76709,82.78857,16.55506,0,0-10.42774,58.312-16.416,64.712-6.90771,7.387-33.25586,20.327-42.29687,18.829-9.04-1.499-30.3418-25.11206-33.646-32.994C492.857,531.83285,505.97518,473.18673,505.97518,473.18673Z" transform="translate(-386.55053 -386.47705)"/><path class="cls-2" d="M426.95223,446.74374c18.17675,13.2301,64.09375,11.69812,84.21972-5.88794,0,0,5.33692,58.997,1.25391,66.751-4.71289,8.946-26.71094,28.387-35.82373,29.328-9.11328.942-35.896-16.204-41.166-22.939-5.65918-7.225-8.48388-67.25208-8.48388-67.25208" transform="translate(-386.55053 -386.47705)"/><path class="cls-1" d="M426.95223,446.74374c18.17675,13.2301,64.09375,11.69812,84.21972-5.88794,0,0,5.33692,58.997,1.25391,66.751-4.71289,8.946-26.71094,28.387-35.82373,29.328-9.11328.942-35.896-16.204-41.166-22.939C429.77693,506.77084,426.95223,446.74374,426.95223,446.74374Z" transform="translate(-386.55053 -386.47705)"/><path class="cls-1" d="M441.15144,480.69015c5.65381-9.65393,16.3379-9.65393,22.627-1.91589" transform="translate(-386.55053 -386.47705)"/><path class="cls-1" d="M479.878,478.53439c5.65381-9.65393,16.33789-9.65393,22.62695-1.91589" transform="translate(-386.55053 -386.47705)"/><path class="cls-1" d="M550.75594,507.679c4.63965,10.18311,15.26855,11.269,22.30957,4.21106" transform="translate(-386.55053 -386.47705)"/><path class="cls-1" d="M513.963,500.29257c4.64062,10.1831,15.26855,11.269,22.30957,4.21106" transform="translate(-386.55053 -386.47705)"/><path class="cls-2" d="M455.80769,506.15268s9.9209,2.401,18.17676,1.577c12.3042-1.22595,18.58789-3.98291,18.58789-3.98291-3.14111,8.7229-6.91308,11.41394-18.53808,12.672-10.68457,0-12.88477-1.25806-18.22657-10.26611" transform="translate(-386.55053 -386.47705)"/><path class="cls-1" d="M455.80769,506.15268s9.9209,2.401,18.17676,1.577c12.3042-1.22595,18.58789-3.98291,18.58789-3.98291-3.14111,8.7229-6.91308,11.41394-18.53808,12.672C463.34969,516.41879,461.14949,515.16073,455.80769,506.15268Z" transform="translate(-386.55053 -386.47705)"/><path class="cls-2" d="M519.172,542.82309s8.95166-.28394,16.00391,1.66c10.51172,2.891,15.58008,6.016,15.58008,6.016-1.50342-7.23-4.394-9.90393-14.31006-12.71191-9.28125-1.693-11.37012-1.06909-17.27393,5.03589" transform="translate(-386.55053 -386.47705)"/><path class="cls-1" d="M519.172,542.82309s8.95166-.28394,16.00391,1.66c10.51172,2.891,15.58008,6.016,15.58008,6.016-1.50342-7.23-4.394-9.90393-14.31006-12.71191C527.16463,536.0942,525.07576,536.71811,519.172,542.82309Z" transform="translate(-386.55053 -386.47705)"/><path class="cls-2" d="M567.7574,534.58432c-.22314.81311-.98047,2.702-2.73535,2.34008-2.55176-.524-1.62109-3.254.145-4.212a13.58345,13.58345,0,0,0,3.09131-2.21094,12.89572,12.89572,0,0,1-.501,4.08289" transform="translate(-386.55053 -386.47705)"/><path class="cls-1" d="M567.7574,534.58432c-.22314.81311-.98047,2.702-2.73535,2.34008-2.55176-.524-1.62109-3.254.145-4.212a13.58345,13.58345,0,0,0,3.09131-2.21094A12.89572,12.89572,0,0,1,567.7574,534.58432Z" transform="translate(-386.55053 -386.47705)"/></svg>