<svg id="Слой_1" data-name="Слой 1" xmlns="http://www.w3.org/2000/svg" viewBox="0 0 407.93555 407.93396"><defs><style>.cls-1{fill:none;}.cls-1,.cls-4{stroke:#718c09;stroke-miterlimit:10;stroke-width:10px;}.cls-2,.cls-4{fill:#aac419;}.cls-3{fill:#787974;}</style></defs><circle class="cls-1" cx="500.17024" cy="500.09753" r="198.96716" transform="translate(-503.32884 204.01837) rotate(-45)"/><path class="cls-2" d="M386.73518,522.44906c0,57.85706,48.209,104.68006,107.7754,104.68006" transform="translate(-296.20296 -296.13058)"/><path class="cls-1" d="M386.73518,522.44906c0,57.85706,48.209,104.68006,107.7754,104.68006" transform="translate(-296.20296 -296.13058)"/><path class="cls-2" d="M494.51155,627.12936c0-57.85693-48.21094-104.67993-107.77637-104.67993" transform="translate(-296.20296 -296.13058)"/><path class="cls-1" d="M494.51155,627.12936c0-57.85693-48.21094-104.67993-107.77637-104.67993" transform="translate(-296.20296 -296.13058)"/><path class="cls-2" d="M604.29085,522.44906c0,57.85706-48.21,104.68006-107.77637,104.68006" transform="translate(-296.20296 -296.13058)"/><path class="cls-1" d="M604.29085,522.44906c0,57.85706-48.21,104.68006-107.77637,104.68006" transform="translate(-296.20296 -296.13058)"/><path class="cls-2" d="M496.51448,627.12936c0-57.85693,48.209-104.67993,107.77539-104.67993" transform="translate(-296.20296 -296.13058)"/><path class="cls-1" d="M496.51448,627.12936c0-57.85693,48.209-104.67993,107.77539-104.67993" transform="translate(-296.20296 -296.13058)"/><path class="cls-3" d="M584.43538,433.77877c0,49.015-39.06348,88.67-87.35449,88.67" transform="translate(-296.20296 -296.13058)"/><path class="cls-4" d="M584.43538,433.77877c0,49.015-39.06348,88.67-87.35449,88.67" transform="translate(-296.20296 -296.13058)"/><path class="cls-2" d="M497.08089,522.44906c0-49.01489,39.0625-88.66992,87.35351-88.66992" transform="translate(-296.20296 -296.13058)"/><path class="cls-1" d="M497.08089,522.44906c0-49.01489,39.0625-88.66992,87.35351-88.66992" transform="translate(-296.20296 -296.13058)"/><path class="cls-2" d="M407.15706,433.77877c0,49.015,39.06152,88.67,87.35352,88.67" transform="translate(-296.20296 -296.13058)"/><path class="cls-1" d="M407.15706,433.77877c0,49.015,39.06152,88.67,87.35352,88.67" transform="translate(-296.20296 -296.13058)"/><path class="cls-2" d="M494.51155,522.44906c0-49.01489-39.06347-88.66992-87.35449-88.66992" transform="translate(-296.20296 -296.13058)"/><path class="cls-1" d="M494.51155,522.44906c0-49.01489-39.06347-88.66992-87.35449-88.66992" transform="translate(-296.20296 -296.13058)"/><path class="cls-2" d="M500.35628,342.27584c28.58789,30.78809,26.86035,74.0271-3.84277,96.67505" transform="translate(-296.20296 -296.13058)"/><path class="cls-1" d="M500.35628,342.27584c28.58789,30.78809,26.86035,74.0271-3.84277,96.67505" transform="translate(-296.20296 -296.13058)"/><path class="cls-2" d="M496.51448,438.95114c-28.58887-30.788-26.86133-74.027,3.8418-96.67493" transform="translate(-296.20296 -296.13058)"/><path class="cls-1" d="M496.51448,438.95114c-28.58887-30.788-26.86133-74.027,3.8418-96.67493" transform="translate(-296.20296 -296.13058)"/><line class="cls-3" x1="200.31152" y1="142.82056" x2="200.31152" y2="364.64465"/><line class="cls-1" x1="200.31152" y1="142.82056" x2="200.31152" y2="364.64465"/></svg>