<svg id="Слой_9" data-name="Слой 9" xmlns="http://www.w3.org/2000/svg" viewBox="0 0 407.93311 407.93324"><defs><style>.cls-1{fill:none;}.cls-1,.cls-2{stroke:#adc79d;stroke-miterlimit:10;stroke-width:10px;}.cls-2{fill:#777a74;}</style></defs><ellipse class="cls-1" cx="141.64034" cy="172.25339" rx="49.47407" ry="48.68873"/><path class="cls-2" d="M4669.0694,1259.03815l-1.34524-11.07943a1.82046,1.82046,0,0,0-1.45222-1.55551l-22.29709-4.57887q-.91312-2.63676-2.02944-5.17628l13.69752-18.27179a1.82094,1.82094,0,0,0,.05548-2.12729l-6.3402-9.18522a1.82023,1.82023,0,0,0-2.00868-.70246l-22.44279,6.47248q-1.8071-1.66332-3.72756-3.20458l3.73395-23.14485a1.82022,1.82022,0,0,0-.93968-1.90944l-9.88214-5.18671a1.82042,1.82042,0,0,0-2.10528.31151l-17.23108,16.51224q-2.11366-.57121-4.27643-1.0196l-7.59642-22.666a1.8196,1.8196,0,0,0-1.71928-1.25418H4570.0021a1.82033,1.82033,0,0,0-1.71927,1.25418l-7.596,22.66608q-2.16338.44631-4.27683,1.01956l-17.23068-16.51224a1.82051,1.82051,0,0,0-2.10528-.31151l-9.88254,5.18671a1.82,1.82,0,0,0-.93928,1.90944l3.73395,23.14485q-1.92027,1.53966-3.728,3.20463l-22.44239-6.47253a1.8206,1.8206,0,0,0-2.00908.70246l-6.3398,9.18522a1.81965,1.81965,0,0,0,.05548,2.12729l13.69752,18.27194q-1.11252,2.53923-2.02944,5.17613l-22.29749,4.57887a1.82046,1.82046,0,0,0-1.45222,1.55551l-1.34524,11.07943a1.82031,1.82031,0,0,0,1.03787,1.85789l20.45686,9.73579q.23772,2.86378.70336,5.6598l-17.54722,14.36066a1.82,1.82,0,0,0-.56285,2.05224L4490.141,1303.14a1.82029,1.82029,0,0,0,1.78234,1.16281l23.01242-.90075q1.449,2.19855,3.05574,4.28232l-9.04067,21.28721a1.82052,1.82052,0,0,0,.45547,2.07879l8.35367,7.401a1.82068,1.82068,0,0,0,2.11886.20133l20.49319-11.8003q2.01846,1.111,4.11276,2.09909l1.93524,23.63121a1.82011,1.82011,0,0,0,1.36919,1.62911l10.83658,2.671a1.81972,1.81972,0,0,0,1.96917-.80625l12.83808-20.24993c.71413.02056,1.43026.03388,2.14959.03388s1.43506-.01327,2.14919-.03383l12.83808,20.24988a1.82029,1.82029,0,0,0,1.96957.80625l10.83618-2.671a1.82011,1.82011,0,0,0,1.36919-1.62911l1.93524-23.63121q2.09569-.985,4.11316-2.099l20.49319,11.80025a1.82013,1.82013,0,0,0,2.11846-.20133l8.35407-7.401a1.81977,1.81977,0,0,0,.45507-2.07879l-9.04067-21.28716q1.60531-2.083,3.05614-4.28237l23.012.90075a1.81994,1.81994,0,0,0,1.78234-1.16281l3.95789-10.43551a1.82014,1.82014,0,0,0-.56324-2.05224l-17.54683-14.36051q.46285-2.79537.70336-5.66l20.45686-9.73569A1.82,1.82,0,0,0,4669.0694,1259.03815Zm-142.96091,5.73c0-26.89008,22.15059-48.68874,49.47417-48.68874s49.47377,21.79866,49.47377,48.68874c0,26.89-22.15019,48.68873-49.47377,48.68873S4526.10849,1291.65818,4526.10849,1264.76816Z" transform="translate(-4433.94222 -1092.51476)"/><ellipse class="cls-1" cx="282.9631" cy="265.34733" rx="34.51142" ry="33.9636"/><path class="cls-2" d="M4782.11855,1353.865l-.93839-7.72863a1.26988,1.26988,0,0,0-1.013-1.08507l-15.55369-3.19406q-.637-1.83933-1.41567-3.6108l9.55492-12.74578a1.27022,1.27022,0,0,0,.03871-1.48393l-4.42271-6.40729a1.26973,1.26973,0,0,0-1.40119-.49l-15.65532,4.515q-1.26057-1.16028-2.60022-2.23541l2.60467-16.14506a1.26971,1.26971,0,0,0-.65548-1.332l-6.89345-3.61808a1.26986,1.26986,0,0,0-1.46857.2173l-12.01981,11.51838q-1.47443-.39848-2.98309-.71124l-5.299-15.811a1.26929,1.26929,0,0,0-1.19931-.87488h-7.78534a1.2698,1.2698,0,0,0-1.1993.87488l-5.29873,15.81108q-1.50909.31132-2.98337.71121l-12.01954-11.51838a1.26992,1.26992,0,0,0-1.46857-.2173l-6.89372,3.61808a1.26953,1.26953,0,0,0-.65521,1.332l2.60467,16.14506q-1.3395,1.074-2.60049,2.23544l-15.655-4.515a1.27,1.27,0,0,0-1.40146.49l-4.42243,6.40729a1.26934,1.26934,0,0,0,.0387,1.48393l9.55492,12.74588q-.77606,1.77129-1.41566,3.6107l-15.554,3.19406a1.26988,1.26988,0,0,0-1.013,1.08507l-.9384,7.72863a1.26979,1.26979,0,0,0,.724,1.296l14.27,6.79136q.16581,1.99767.49063,3.94808l-12.24034,10.01751a1.26954,1.26954,0,0,0-.39262,1.43157l2.7606,7.27945a1.2698,1.2698,0,0,0,1.24331.81114l16.05268-.62833q1.01079,1.53363,2.13157,2.9872l-6.30646,14.84923a1.26993,1.26993,0,0,0,.31772,1.45009l5.82724,5.16267a1.27,1.27,0,0,0,1.478.14045l14.29535-8.23149q1.408.775,2.86893,1.46425l1.34995,16.48432a1.26965,1.26965,0,0,0,.9551,1.13642l7.55923,1.86318a1.26937,1.26937,0,0,0,1.37362-.56241l8.95541-14.12567c.49816.01434.99771.02364,1.49948.02364s1.001-.00926,1.49921-.0236l8.9554,14.12563a1.26977,1.26977,0,0,0,1.3739.56241l7.55895-1.86318a1.26965,1.26965,0,0,0,.95511-1.13642l1.35-16.48432q1.46188-.68709,2.8692-1.46422l14.29535,8.23146a1.26968,1.26968,0,0,0,1.47777-.14045l5.82751-5.16267a1.2694,1.2694,0,0,0,.31744-1.45009l-6.30646-14.84919q1.11981-1.453,2.13186-2.98724l16.0524.62833a1.26953,1.26953,0,0,0,1.2433-.81114l2.76089-7.27945a1.26967,1.26967,0,0,0-.3929-1.43157l-12.24007-10.0174q.32287-1.95.49064-3.94826l14.27-6.79129A1.26957,1.26957,0,0,0,4782.11855,1353.865Zm-99.72465,3.99706c0-18.7576,15.45149-33.9636,34.51149-33.9636s34.51122,15.206,34.51122,33.9636-15.45122,33.9636-34.51122,33.9636S4682.3939,1376.61966,4682.3939,1357.8621Z" transform="translate(-4433.94222 -1092.51476)"/><circle class="cls-1" cx="203.96655" cy="203.96662" r="198.96658"/></svg>