<svg id="Слой_4" data-name="Слой 4" xmlns="http://www.w3.org/2000/svg" viewBox="0 0 407.93325 407.93325"><defs><style>.cls-1{fill:none;stroke:#adc79d;stroke-miterlimit:10;stroke-width:10px;}.cls-2{fill:#777a74;}</style></defs><circle class="cls-1" cx="203.96662" cy="203.96662" r="198.96662"/><path class="cls-2" d="M2370.87817,1301.91759c4.26734-.91751,17.21729-3.64289,30.54737-3.61972,26.02758.04519,25.22412,10.52,49.27661,10.46808,12.08447-.02613,18.40918-2.68351,38.456-1.88831,5.80933.23044,10.59278.66443,13.80445,1.00668l39.90966,109.137-236.6809.766q22.08507-55.02128,44.17041-110.04257A164.23451,164.23451,0,0,1,2370.87817,1301.91759Z" transform="translate(-2221.94139 -1082.98777)"/><path class="cls-1" d="M2531.20752,1421.63554H2320.60767a12.76406,12.76406,0,0,1-11.78-17.67l74.95-179.92v-92.45a12.76489,12.76489,0,0,1,12.77-12.76h58.72a12.76489,12.76489,0,0,1,12.77,12.76v92.45l74.94995,179.92A12.76016,12.76016,0,0,1,2531.20752,1421.63554Z" transform="translate(-2221.94139 -1082.98777)"/><path class="cls-1" d="M2347.74629,1310.53987c20.02759-8.95431,39.43573-13.53723,50.8432-14.00665,21.96533-.90387,32.67634,10.28715,67.91486,12.25529,12.603.70392,28.65661-3.45535,35.33508-3.60037" transform="translate(-2221.94139 -1082.98777)"/><circle class="cls-1" cx="208.43534" cy="120.79883" r="11.3617"/><circle class="cls-1" cx="184.30768" cy="160.43906" r="3.57447"/><circle class="cls-1" cx="224.37417" cy="179.7525" r="10.44946"/></svg>