<svg id="Слой_1" data-name="Слой 1" xmlns="http://www.w3.org/2000/svg" viewBox="0 0 407.93311 407.93396"><defs><style>.cls-1,.cls-3{fill:none;stroke-miterlimit:10;}.cls-1{stroke:#718c09;stroke-width:10px;}.cls-2{fill:#baeeac;}.cls-3{stroke:#b8e87b;}.cls-4{fill:#aac419;}</style></defs><circle class="cls-1" cx="500.17049" cy="500.09753" r="198.96667" transform="translate(-503.32999 204.01854) rotate(-45)"/><path class="cls-2" d="M386.274,410.64389l16.05994,30.02a2.04443,2.04443,0,0,0,1.543,1.03405l35.911,4.814a1.85523,1.85523,0,0,1,1.136,3.224l-25.986,23.36706a1.80319,1.80319,0,0,0-.589,1.674l6.134,32.995a2.01907,2.01907,0,0,1-2.973,1.99206l-32.12-15.578a2.20518,2.20518,0,0,0-1.907,0l-32.12,15.578a2.01951,2.01951,0,0,1-2.974-1.99206l6.135-32.995a1.80421,1.80421,0,0,0-.59008-1.674l-25.985-23.36706a1.855,1.855,0,0,1,1.136-3.224l35.911-4.814a2.04782,2.04782,0,0,0,1.543-1.03405l16.06-30.02a2.12908,2.12908,0,0,1,3.675,0" transform="translate(-296.20418 -296.13058)"/><path class="cls-3" d="M386.274,410.64389l16.05994,30.02a2.04443,2.04443,0,0,0,1.543,1.03405l35.911,4.814a1.85523,1.85523,0,0,1,1.136,3.224l-25.986,23.36706a1.80319,1.80319,0,0,0-.589,1.674l6.134,32.995a2.01907,2.01907,0,0,1-2.973,1.99206l-32.12-15.578a2.20518,2.20518,0,0,0-1.907,0l-32.12,15.578a2.01951,2.01951,0,0,1-2.974-1.99206l6.135-32.995a1.80421,1.80421,0,0,0-.59008-1.674l-25.985-23.36706a1.855,1.855,0,0,1,1.136-3.224l35.911-4.814a2.04782,2.04782,0,0,0,1.543-1.03405l16.06-30.02a2.12908,2.12908,0,0,1,3.675,0" transform="translate(-296.20418 -296.13058)"/><path class="cls-4" d="M386.274,410.64389l16.05994,30.02a2.04443,2.04443,0,0,0,1.543,1.03405l35.911,4.814a1.85523,1.85523,0,0,1,1.136,3.224l-25.986,23.36706a1.80319,1.80319,0,0,0-.589,1.674l6.134,32.995a2.01907,2.01907,0,0,1-2.973,1.99206l-32.12-15.578a2.20518,2.20518,0,0,0-1.907,0l-32.12,15.578a2.01951,2.01951,0,0,1-2.974-1.99206l6.135-32.995a1.80421,1.80421,0,0,0-.59008-1.674l-25.985-23.36706a1.855,1.855,0,0,1,1.136-3.224l35.911-4.814a2.04782,2.04782,0,0,0,1.543-1.03405l16.06-30.02a2.12908,2.12908,0,0,1,3.675,0" transform="translate(-296.20418 -296.13058)"/><path class="cls-1" d="M386.274,410.64389l16.05994,30.02a2.04443,2.04443,0,0,0,1.543,1.03405l35.911,4.814a1.85523,1.85523,0,0,1,1.136,3.224l-25.986,23.36706a1.80319,1.80319,0,0,0-.589,1.674l6.134,32.995a2.01907,2.01907,0,0,1-2.973,1.99206l-32.12-15.578a2.20518,2.20518,0,0,0-1.907,0l-32.12,15.578a2.01951,2.01951,0,0,1-2.974-1.99206l6.135-32.995a1.80421,1.80421,0,0,0-.59008-1.674l-25.985-23.36706a1.855,1.855,0,0,1,1.136-3.224l35.911-4.814a2.04782,2.04782,0,0,0,1.543-1.03405l16.06-30.02A2.12908,2.12908,0,0,1,386.274,410.64389Z" transform="translate(-296.20418 -296.13058)"/><path class="cls-2" d="M428.71,538.90109l16.05993,30.02a2.04449,2.04449,0,0,0,1.543,1.03406l35.911,4.814a1.85523,1.85523,0,0,1,1.136,3.224L457.374,601.3602a1.80237,1.80237,0,0,0-.589,1.67395l6.134,32.994a2.01926,2.01926,0,0,1-2.973,1.99305l-32.12-15.578a2.2052,2.2052,0,0,0-1.907,0l-32.12,15.578a2.0197,2.0197,0,0,1-2.974-1.99305l6.135-32.994a1.80339,1.80339,0,0,0-.59009-1.67395l-25.985-23.36707a1.855,1.855,0,0,1,1.136-3.224l35.911-4.814a2.04786,2.04786,0,0,0,1.543-1.03406l16.06006-30.02a2.12908,2.12908,0,0,1,3.675,0" transform="translate(-296.20418 -296.13058)"/><path class="cls-3" d="M428.71,538.90109l16.05993,30.02a2.04449,2.04449,0,0,0,1.543,1.03406l35.911,4.814a1.85523,1.85523,0,0,1,1.136,3.224L457.374,601.3602a1.80237,1.80237,0,0,0-.589,1.67395l6.134,32.994a2.01926,2.01926,0,0,1-2.973,1.99305l-32.12-15.578a2.2052,2.2052,0,0,0-1.907,0l-32.12,15.578a2.0197,2.0197,0,0,1-2.974-1.99305l6.135-32.994a1.80339,1.80339,0,0,0-.59009-1.67395l-25.985-23.36707a1.855,1.855,0,0,1,1.136-3.224l35.911-4.814a2.04786,2.04786,0,0,0,1.543-1.03406l16.06006-30.02a2.12908,2.12908,0,0,1,3.675,0" transform="translate(-296.20418 -296.13058)"/><path class="cls-4" d="M428.71,538.90109l16.05993,30.02a2.04449,2.04449,0,0,0,1.543,1.03406l35.911,4.814a1.85523,1.85523,0,0,1,1.136,3.224L457.374,601.3602a1.80237,1.80237,0,0,0-.589,1.67395l6.134,32.994a2.01926,2.01926,0,0,1-2.973,1.99305l-32.12-15.578a2.2052,2.2052,0,0,0-1.907,0l-32.12,15.578a2.0197,2.0197,0,0,1-2.974-1.99305l6.135-32.994a1.80339,1.80339,0,0,0-.59009-1.67395l-25.985-23.36707a1.855,1.855,0,0,1,1.136-3.224l35.911-4.814a2.04786,2.04786,0,0,0,1.543-1.03406l16.06006-30.02a2.12908,2.12908,0,0,1,3.675,0" transform="translate(-296.20418 -296.13058)"/><path class="cls-1" d="M428.71,538.90109l16.05993,30.02a2.04449,2.04449,0,0,0,1.543,1.03406l35.911,4.814a1.85523,1.85523,0,0,1,1.136,3.224L457.374,601.3602a1.80237,1.80237,0,0,0-.589,1.67395l6.134,32.994a2.01926,2.01926,0,0,1-2.973,1.99305l-32.12-15.578a2.2052,2.2052,0,0,0-1.907,0l-32.12,15.578a2.0197,2.0197,0,0,1-2.974-1.99305l6.135-32.994a1.80339,1.80339,0,0,0-.59009-1.67395l-25.985-23.36707a1.855,1.855,0,0,1,1.136-3.224l35.911-4.814a2.04786,2.04786,0,0,0,1.543-1.03406l16.06006-30.02A2.12908,2.12908,0,0,1,428.71,538.90109Z" transform="translate(-296.20418 -296.13058)"/><path class="cls-2" d="M573.92427,538.90109l16.05994,30.02a2.04447,2.04447,0,0,0,1.543,1.03406l35.91089,4.814a1.8552,1.8552,0,0,1,1.136,3.224L602.58821,601.3602a1.80237,1.80237,0,0,0-.589,1.67395l6.13391,32.994a2.01915,2.01915,0,0,1-2.9729,1.99305l-32.12-15.578a2.20518,2.20518,0,0,0-1.907,0l-32.12,15.578a2.0197,2.0197,0,0,1-2.974-1.99305l6.135-32.994a1.80337,1.80337,0,0,0-.59009-1.67395l-25.985-23.36707a1.855,1.855,0,0,1,1.136-3.224l35.911-4.814a2.04784,2.04784,0,0,0,1.543-1.03406l16.06006-30.02a2.12908,2.12908,0,0,1,3.675,0" transform="translate(-296.20418 -296.13058)"/><path class="cls-3" d="M573.92427,538.90109l16.05994,30.02a2.04447,2.04447,0,0,0,1.543,1.03406l35.91089,4.814a1.8552,1.8552,0,0,1,1.136,3.224L602.58821,601.3602a1.80237,1.80237,0,0,0-.589,1.67395l6.13391,32.994a2.01915,2.01915,0,0,1-2.9729,1.99305l-32.12-15.578a2.20518,2.20518,0,0,0-1.907,0l-32.12,15.578a2.0197,2.0197,0,0,1-2.974-1.99305l6.135-32.994a1.80337,1.80337,0,0,0-.59009-1.67395l-25.985-23.36707a1.855,1.855,0,0,1,1.136-3.224l35.911-4.814a2.04784,2.04784,0,0,0,1.543-1.03406l16.06006-30.02a2.12908,2.12908,0,0,1,3.675,0" transform="translate(-296.20418 -296.13058)"/><path class="cls-4" d="M573.92427,538.90109l16.05994,30.02a2.04447,2.04447,0,0,0,1.543,1.03406l35.91089,4.814a1.8552,1.8552,0,0,1,1.136,3.224L602.58821,601.3602a1.80237,1.80237,0,0,0-.589,1.67395l6.13391,32.994a2.01915,2.01915,0,0,1-2.9729,1.99305l-32.12-15.578a2.20518,2.20518,0,0,0-1.907,0l-32.12,15.578a2.0197,2.0197,0,0,1-2.974-1.99305l6.135-32.994a1.80337,1.80337,0,0,0-.59009-1.67395l-25.985-23.36707a1.855,1.855,0,0,1,1.136-3.224l35.911-4.814a2.04784,2.04784,0,0,0,1.543-1.03406l16.06006-30.02a2.12908,2.12908,0,0,1,3.675,0" transform="translate(-296.20418 -296.13058)"/><path class="cls-1" d="M573.92427,538.90109l16.05994,30.02a2.04447,2.04447,0,0,0,1.543,1.03406l35.91089,4.814a1.8552,1.8552,0,0,1,1.136,3.224L602.58821,601.3602a1.80237,1.80237,0,0,0-.589,1.67395l6.13391,32.994a2.01915,2.01915,0,0,1-2.9729,1.99305l-32.12-15.578a2.20518,2.20518,0,0,0-1.907,0l-32.12,15.578a2.0197,2.0197,0,0,1-2.974-1.99305l6.135-32.994a1.80337,1.80337,0,0,0-.59009-1.67395l-25.985-23.36707a1.855,1.855,0,0,1,1.136-3.224l35.911-4.814a2.04784,2.04784,0,0,0,1.543-1.03406l16.06006-30.02A2.12908,2.12908,0,0,1,573.92427,538.90109Z" transform="translate(-296.20418 -296.13058)"/><path class="cls-2" d="M617.74275,415.94345l16.05982,30.02a2.04632,2.04632,0,0,0,1.543,1.03405l35.91113,4.814a1.85525,1.85525,0,0,1,1.136,3.224l-25.98609,23.36706a1.8026,1.8026,0,0,0-.58887,1.67395l6.134,32.994a2.01937,2.01937,0,0,1-2.97315,1.993l-32.11987-15.578a2.20518,2.20518,0,0,0-1.907,0l-32.12,15.578a2.0197,2.0197,0,0,1-2.974-1.993l6.135-32.994a1.8034,1.8034,0,0,0-.59008-1.67395l-25.985-23.36706a1.855,1.855,0,0,1,1.136-3.224l35.911-4.814a2.04782,2.04782,0,0,0,1.543-1.03405l16.06-30.02a2.12908,2.12908,0,0,1,3.67505,0" transform="translate(-296.20418 -296.13058)"/><path class="cls-3" d="M617.74275,415.94345l16.05982,30.02a2.04632,2.04632,0,0,0,1.543,1.03405l35.91113,4.814a1.85525,1.85525,0,0,1,1.136,3.224l-25.98609,23.36706a1.8026,1.8026,0,0,0-.58887,1.67395l6.134,32.994a2.01937,2.01937,0,0,1-2.97315,1.993l-32.11987-15.578a2.20518,2.20518,0,0,0-1.907,0l-32.12,15.578a2.0197,2.0197,0,0,1-2.974-1.993l6.135-32.994a1.8034,1.8034,0,0,0-.59008-1.67395l-25.985-23.36706a1.855,1.855,0,0,1,1.136-3.224l35.911-4.814a2.04782,2.04782,0,0,0,1.543-1.03405l16.06-30.02a2.12908,2.12908,0,0,1,3.67505,0" transform="translate(-296.20418 -296.13058)"/><path class="cls-4" d="M617.74275,415.94345l16.05982,30.02a2.04632,2.04632,0,0,0,1.543,1.03405l35.91113,4.814a1.85525,1.85525,0,0,1,1.136,3.224l-25.98609,23.36706a1.8026,1.8026,0,0,0-.58887,1.67395l6.134,32.994a2.01937,2.01937,0,0,1-2.97315,1.993l-32.11987-15.578a2.20518,2.20518,0,0,0-1.907,0l-32.12,15.578a2.0197,2.0197,0,0,1-2.974-1.993l6.135-32.994a1.8034,1.8034,0,0,0-.59008-1.67395l-25.985-23.36706a1.855,1.855,0,0,1,1.136-3.224l35.911-4.814a2.04782,2.04782,0,0,0,1.543-1.03405l16.06-30.02a2.12908,2.12908,0,0,1,3.67505,0" transform="translate(-296.20418 -296.13058)"/><path class="cls-1" d="M617.74275,415.94345l16.05982,30.02a2.04632,2.04632,0,0,0,1.543,1.03405l35.91113,4.814a1.85525,1.85525,0,0,1,1.136,3.224l-25.98609,23.36706a1.8026,1.8026,0,0,0-.58887,1.67395l6.134,32.994a2.01937,2.01937,0,0,1-2.97315,1.993l-32.11987-15.578a2.20518,2.20518,0,0,0-1.907,0l-32.12,15.578a2.0197,2.0197,0,0,1-2.974-1.993l6.135-32.994a1.8034,1.8034,0,0,0-.59008-1.67395l-25.985-23.36706a1.855,1.855,0,0,1,1.136-3.224l35.911-4.814a2.04782,2.04782,0,0,0,1.543-1.03405l16.06-30.02A2.12908,2.12908,0,0,1,617.74275,415.94345Z" transform="translate(-296.20418 -296.13058)"/><path class="cls-2" d="M503.73287,321.32077l17.756,33.19006a2.26189,2.26189,0,0,0,1.70593,1.144l39.70508,5.3219a2.052,2.052,0,0,1,1.255,3.566l-28.7301,25.835a1.99256,1.99256,0,0,0-.652,1.8501l6.78308,36.48a2.23358,2.23358,0,0,1-3.28808,2.203l-35.512-17.223a2.43612,2.43612,0,0,0-2.109,0l-35.51294,17.223a2.23267,2.23267,0,0,1-3.28711-2.203l6.7821-36.48a1.99233,1.99233,0,0,0-.6521-1.8501l-28.73-25.835a2.052,2.052,0,0,1,1.256-3.566l39.7041-5.3219a2.26192,2.26192,0,0,0,1.70594-1.144l17.756-33.19006a2.35421,2.35421,0,0,1,4.06409,0" transform="translate(-296.20418 -296.13058)"/><path class="cls-3" d="M503.73287,321.32077l17.756,33.19006a2.26189,2.26189,0,0,0,1.70593,1.144l39.70508,5.3219a2.052,2.052,0,0,1,1.255,3.566l-28.7301,25.835a1.99256,1.99256,0,0,0-.652,1.8501l6.78308,36.48a2.23358,2.23358,0,0,1-3.28808,2.203l-35.512-17.223a2.43612,2.43612,0,0,0-2.109,0l-35.51294,17.223a2.23267,2.23267,0,0,1-3.28711-2.203l6.7821-36.48a1.99233,1.99233,0,0,0-.6521-1.8501l-28.73-25.835a2.052,2.052,0,0,1,1.256-3.566l39.7041-5.3219a2.26192,2.26192,0,0,0,1.70594-1.144l17.756-33.19006a2.35421,2.35421,0,0,1,4.06409,0" transform="translate(-296.20418 -296.13058)"/><path class="cls-4" d="M503.73287,321.32077l17.756,33.19006a2.26189,2.26189,0,0,0,1.70593,1.144l39.70508,5.3219a2.052,2.052,0,0,1,1.255,3.566l-28.7301,25.835a1.99256,1.99256,0,0,0-.652,1.8501l6.78308,36.48a2.23358,2.23358,0,0,1-3.28808,2.203l-35.512-17.223a2.43612,2.43612,0,0,0-2.109,0l-35.51294,17.223a2.23267,2.23267,0,0,1-3.28711-2.203l6.7821-36.48a1.99233,1.99233,0,0,0-.6521-1.8501l-28.73-25.835a2.052,2.052,0,0,1,1.256-3.566l39.7041-5.3219a2.26192,2.26192,0,0,0,1.70594-1.144l17.756-33.19006a2.35421,2.35421,0,0,1,4.06409,0" transform="translate(-296.20418 -296.13058)"/><path class="cls-1" d="M503.73287,321.32077l17.756,33.19006a2.26189,2.26189,0,0,0,1.70593,1.144l39.70508,5.3219a2.052,2.052,0,0,1,1.255,3.566l-28.7301,25.835a1.99256,1.99256,0,0,0-.652,1.8501l6.78308,36.48a2.23358,2.23358,0,0,1-3.28808,2.203l-35.512-17.223a2.43612,2.43612,0,0,0-2.109,0l-35.51294,17.223a2.23267,2.23267,0,0,1-3.28711-2.203l6.7821-36.48a1.99233,1.99233,0,0,0-.6521-1.8501l-28.73-25.835a2.052,2.052,0,0,1,1.256-3.566l39.7041-5.3219a2.26192,2.26192,0,0,0,1.70594-1.144l17.756-33.19006A2.35421,2.35421,0,0,1,503.73287,321.32077Z" transform="translate(-296.20418 -296.13058)"/></svg>