<svg id="Слой_2" data-name="Слой 2" xmlns="http://www.w3.org/2000/svg" viewBox="0 0 407.38804 407.38804"><defs><style>.cls-1{fill:none;}.cls-1,.cls-2{stroke:#adc79d;stroke-miterlimit:10;stroke-width:10px;}.cls-2{fill:#babb90;}</style></defs><circle class="cls-1" cx="203.69402" cy="203.69402" r="198.69402"/><path class="cls-2" d="M105.04792,1202.60718l16.05991,30.01958a2.04525,2.04525,0,0,0,1.543,1.03422l35.91105,4.81386a1.85563,1.85563,0,0,1,1.13578,3.22473l-25.98548,23.367a1.80178,1.80178,0,0,0-.58938,1.6734l6.13434,32.99471a2.01979,2.01979,0,0,1-2.97352,1.993l-32.11981-15.578a2.20254,2.20254,0,0,0-1.90731,0l-32.11981,15.578a2.01979,2.01979,0,0,1-2.97352-1.993L73.29754,1266.74a1.80178,1.80178,0,0,0-.58938-1.6734l-25.98548-23.367a1.85563,1.85563,0,0,1,1.13578-3.22473l35.911-4.81386a2.04525,2.04525,0,0,0,1.543-1.03422l16.05991-30.01958A2.12925,2.12925,0,0,1,105.04792,1202.60718Z" transform="translate(-15.25058 -1088.09415)"/><path class="cls-1" d="M147.58188,1330.53854l16.0379,29.97845a2.0425,2.0425,0,0,0,1.54093,1.0328l35.86184,4.80727a1.85309,1.85309,0,0,1,1.13423,3.22031l-25.94988,23.335a1.79936,1.79936,0,0,0-.58858,1.67111l6.12594,32.9495a2.017,2.017,0,0,1-2.96944,1.99027L146.699,1413.96657a2.19946,2.19946,0,0,0-1.90469,0l-32.07581,15.55665a2.017,2.017,0,0,1-2.96944-1.99027l6.12594-32.9495a1.79936,1.79936,0,0,0-.58858-1.67111l-25.94988-23.335a1.85308,1.85308,0,0,1,1.13423-3.22031l35.86184-4.80727a2.0425,2.0425,0,0,0,1.54093-1.0328l16.0379-29.97845A2.12634,2.12634,0,0,1,147.58188,1330.53854Z" transform="translate(-15.25058 -1088.09415)"/><path class="cls-1" d="M292.59714,1330.53854,308.635,1360.517a2.04246,2.04246,0,0,0,1.54092,1.0328l35.86185,4.80727a1.85308,1.85308,0,0,1,1.13422,3.22031l-25.94987,23.335a1.79933,1.79933,0,0,0-.58858,1.67111l6.12593,32.9495a2.017,2.017,0,0,1-2.96944,1.99027l-32.07581-15.55665a2.19944,2.19944,0,0,0-1.90468,0l-32.07581,15.55665a2.017,2.017,0,0,1-2.96944-1.99027l6.12593-32.9495a1.79931,1.79931,0,0,0-.58858-1.67111l-25.94987-23.335a1.85308,1.85308,0,0,1,1.13422-3.22031l35.86185-4.80727a2.04246,2.04246,0,0,0,1.54092-1.0328l16.03791-29.97845A2.12634,2.12634,0,0,1,292.59714,1330.53854Z" transform="translate(-15.25058 -1088.09415)"/><path class="cls-1" d="M336.35565,1207.74937l16.03791,29.97845a2.04245,2.04245,0,0,0,1.54092,1.03281l35.86185,4.80726a1.85308,1.85308,0,0,1,1.13422,3.22031l-25.94987,23.335a1.79928,1.79928,0,0,0-.58858,1.6711l6.12593,32.94951a2.017,2.017,0,0,1-2.96944,1.99026l-32.07581-15.55665a2.19953,2.19953,0,0,0-1.90469,0l-32.07581,15.55665a2.017,2.017,0,0,1-2.96943-1.99026l6.12593-32.94951a1.79931,1.79931,0,0,0-.58858-1.6711l-25.94988-23.335a1.85309,1.85309,0,0,1,1.13423-3.22031l35.86184-4.80726a2.04246,2.04246,0,0,0,1.54093-1.03281l16.0379-29.97845A2.12634,2.12634,0,0,1,336.35565,1207.74937Z" transform="translate(-15.25058 -1088.09415)"/><path class="cls-1" d="M222.50193,1113.25635l17.732,33.145a2.2582,2.2582,0,0,0,1.70369,1.14189l39.64984,5.315a2.04882,2.04882,0,0,1,1.254,3.56047l-28.69089,25.79978a1.98937,1.98937,0,0,0-.65075,1.84762l6.773,36.42989a2.23007,2.23007,0,0,1-3.2831,2.20048l-35.46389-17.19985a2.43174,2.43174,0,0,0-2.10588,0L183.956,1222.69653a2.23007,2.23007,0,0,1-3.2831-2.20048l6.773-36.42989a1.98937,1.98937,0,0,0-.65075-1.84762l-28.69089-25.79978a2.04882,2.04882,0,0,1,1.254-3.56047l39.64984-5.315a2.25818,2.25818,0,0,0,1.70369-1.14189l17.732-33.145A2.35093,2.35093,0,0,1,222.50193,1113.25635Z" transform="translate(-15.25058 -1088.09415)"/></svg>