<svg id="Слой_12" data-name="Слой 12" xmlns="http://www.w3.org/2000/svg" viewBox="0 0 407.93311 407.93324"><defs><style>.cls-1{fill:#facd99;}.cls-1,.cls-2{stroke:#f993aa;stroke-miterlimit:10;stroke-width:10px;}.cls-2{fill:none;}</style></defs><path class="cls-1" d="M5864.35334,843.64726q2.34182,42.53421,4.68287,85.06843c8.68291,7.34591,49.475,40.2518,109.262,36.68088,51.95115-3.10291,85.63275-31.79973,95.21417-40.5831q-.39067-42.144-.7806-84.288Q5968.54258,842.08634,5864.35334,843.64726Z" transform="translate(-5765.113 -659.97421)"/><path class="cls-1" d="M6110.72555,838.694l-138.95013,67.90437a11.84677,11.84677,0,0,1-10.57219-.08428L5827.26451,838.3925a11.84681,11.84681,0,0,1,.01033-21.1243l136.60793-69.311a11.84684,11.84684,0,0,1,10.74413.012l136.28092,69.5283A11.84682,11.84682,0,0,1,6110.72555,838.694Z" transform="translate(-5765.113 -659.97421)"/><path class="cls-1" d="M5943.24681,848.92659c.53668-.6833,1.40793-1.76785,2.53984-3.06274,1.5727-1.79917,2.02262-2.14432,3.51095-3.88446,1.28285-1.4999,2.07969-2.56594,2.83864-3.58565a16.56926,16.56926,0,0,0,1.992-3.03783,11.37667,11.37667,0,0,0,.94622-3.46116c.06263-.6498-.00491-.60686,0-2.988.00418-2.02406.05274-1.93522,0-2.41533a8.92963,8.92963,0,0,0-1.09561-3.43626,8.42406,8.42406,0,0,0-1.76792-2.11652,11.363,11.363,0,0,0-3.36156-1.96712,32.62854,32.62854,0,0,0-3.76-1.14543,30.749,30.749,0,0,1-5.80178-2.11653,9.26088,9.26088,0,0,1-2.988-2.04183,6.13906,6.13906,0,0,1-1.39442-6.64839,6.9089,6.9089,0,0,1,1.54381-2.66434,7.02907,7.02907,0,0,1,2.56475-1.69323,7.22749,7.22749,0,0,1,3.41134-.4233,14.63563,14.63563,0,0,1,2.96315.94622c.81683.27345.647.18,3.43625.94621a44.82431,44.82431,0,0,1,4.95517,1.34462,9.11462,9.11462,0,0,0,2.51492.52291,2.03127,2.03127,0,0,0,1.29482-.2241,1.68458,1.68458,0,0,0,.747-1.07072,2.25361,2.25361,0,0,0-.62251-1.56872c-.56314-.82988-.9443-1.77-1.44422-2.63944a9.61907,9.61907,0,0,1-1.04581-4.55676,14.45831,14.45831,0,0,1,1.04581-6.07569,12.74257,12.74257,0,0,1,6.001-6.79779,14.31468,14.31468,0,0,1,4.43228-1.56873,13.62456,13.62456,0,0,1,4.30776-.0747,13.331,13.331,0,0,1,4.28286,1.46912,14.95166,14.95166,0,0,1,7.7689,11.18026,8.96053,8.96053,0,0,1-.57271,5.37848,30.98937,30.98937,0,0,1-2.14143,3.73506,2.16773,2.16773,0,0,0-.44819,1.02091,1.72952,1.72952,0,0,0,.29879,1.31972,1.8553,1.8553,0,0,0,1.41932.57271,4.44843,4.44843,0,0,0,1.743-.44821c.60537-.21,1.23087-.35716,1.84262-.54781,1.49006-.46436,1.73823-.4421,4.18325-1.09561,2.119-.56637,3.66033-1.02091,3.66037-1.02092a13.47167,13.47167,0,0,1,2.88843-.72211,7.27313,7.27313,0,0,1,3.03785.32371,7.36324,7.36324,0,0,1,4.70616,6.997,6.70781,6.70781,0,0,1-1.14541,3.38645,7.71676,7.71676,0,0,1-2.63944,2.46514c-1.08514.65209-1.63026.67118-4.13345,1.36951-2.41335.67327-1.80051.62591-5.32868,1.66833-2.986.88224-3.29671.87826-4.258,1.39441a7.95341,7.95341,0,0,0-4.507,5.70219,10.65779,10.65779,0,0,0-.29881,3.38645,10.43868,10.43868,0,0,0,1.09562,3.90935,14.85788,14.85788,0,0,0,2.34063,3.06274c.54962.65113,1.52843,1.96961,3.48606,4.60657,1.8359,2.473,1.47734,2.08638,3.735,5.15439.53368.72521,1.302,1.81149,2.83865,3.98405a10.848,10.848,0,0,1,1.81772,3.01294,7.41149,7.41149,0,0,1,.0249,4.28286,6.77583,6.77583,0,0,1-2.19124,3.43625,6.65851,6.65851,0,0,1-3.73505,1.46911,7.24313,7.24313,0,0,1-4.18325-1.07071,14.01355,14.01355,0,0,1-2.988-2.63944c-1.628-1.63217-2.442-2.44826-3.51095-3.61054-2.37464-2.582-3.93425-4.38246-3.93427-4.38248a11.21925,11.21925,0,0,0-2.93823-2.81373,7.0427,7.0427,0,0,0-6.92231-.2739c-.87754.42708-.97776.68594-3.41134,2.88843-1.88323,1.7044-1.84414,1.56831-3.28686,2.91334-.75511.704-.70273.68245-3.01294,2.93824a40.84526,40.84526,0,0,1-3.78485,3.46116,8.92136,8.92136,0,0,1-2.58964,1.61853,6.73491,6.73491,0,0,1-7.17129-1.743,7.16258,7.16258,0,0,1-1.89243-4.009,7.33922,7.33922,0,0,1,2.09163-6.22509Z" transform="translate(-5765.113 -659.97421)"/><circle class="cls-2" cx="203.96655" cy="203.96662" r="198.96658"/></svg>