<svg id="Слой_8" data-name="Слой 8" xmlns="http://www.w3.org/2000/svg" viewBox="0 0 407.93311 407.93324"><defs><style>.cls-1{fill:none;}.cls-1,.cls-2{stroke:#f993aa;stroke-miterlimit:10;stroke-width:10px;}.cls-2{fill:#facd99;}.cls-3{fill:#f993aa;}</style></defs><circle class="cls-1" cx="203.96655" cy="203.96662" r="198.96658"/><rect class="cls-2" x="111.40513" y="208.21185" width="27.34642" height="119.45217" rx="6.78562"/><rect class="cls-2" x="163.49354" y="179.21204" width="27.34642" height="148.45197" rx="7.49994"/><rect class="cls-2" x="216.44205" y="153.16784" width="27.34642" height="174.49618" rx="8.18779"/><rect class="cls-2" x="269.18156" y="126.47253" width="27.34642" height="201.19149" rx="5.77754"/><path class="cls-3" d="M4104.37632,831.86682l55.05091-30.27631,87.30083-48.01277,20.21567-11.118c5.64039-3.102.60079-11.74093-5.04719-8.63471l-55.05091,30.27631-87.30083,48.01277-20.21567,11.118c-5.64039,3.102-.60079,11.74092,5.04719,8.6347Z" transform="translate(-3990.21863 -655.81285)"/><path class="cls-3" d="M4235.12672,741.08207l29.29341,2.06032c6.42225.4517,6.394-9.55028,0-10l-29.29341-2.06032c-6.42225-.4517-6.394,9.55029,0,10Z" transform="translate(-3990.21863 -655.81285)"/><path class="cls-3" d="M4254.48409,766.71162l14.43431-25.57341c3.16742-5.61175-5.468-10.65776-8.63471-5.04719l-14.43431,25.57341c-3.16742,5.61175,5.468,10.65776,8.63471,5.04719Z" transform="translate(-3990.21863 -655.81285)"/></svg>