<svg id="Слой_17" data-name="Слой 17" xmlns="http://www.w3.org/2000/svg" viewBox="0 0 407.93311 407.93324"><defs><style>.cls-1{fill:none;stroke:#f993aa;stroke-miterlimit:10;stroke-width:10px;}.cls-2{fill:#f993aa;}.cls-3{fill:#facd99;}</style></defs><circle class="cls-1" cx="203.96655" cy="203.96662" r="198.96658"/><rect class="cls-2" x="111.87688" y="87.26809" width="184.17935" height="17.52427"/><path class="cls-2" d="M7939.51979,841.04972H7755.34044l5,5V828.52545l-5,5h184.17935l-5-5v17.52427c0,6.43452,10,6.44518,10,0V828.52545a5.07266,5.07266,0,0,0-5-5H7755.34044a5.07265,5.07265,0,0,0-5,5v17.52427a5.07265,5.07265,0,0,0,5,5h184.17935C7945.95431,851.04972,7945.965,841.04972,7939.51979,841.04972Z" transform="translate(-7643.46356 -741.25736)"/><rect class="cls-2" x="111.87772" y="316.12171" width="184.17851" height="17.52426"/><path class="cls-2" d="M7939.51979,1069.90333H7755.34128l5,5v-17.52426l-5,5h184.17851l-5-5v17.52426c0,6.43453,10,6.44518,10,0v-17.52426a5.07265,5.07265,0,0,0-5-5H7755.34128a5.07265,5.07265,0,0,0-5,5v17.52426a5.07265,5.07265,0,0,0,5,5h184.17851C7945.95431,1079.90333,7945.965,1069.90333,7939.51979,1069.90333Z" transform="translate(-7643.46356 -741.25736)"/><path class="cls-2" d="M7927.16389,832.3377q-28.17294,43.87317-56.346,87.74624-3.45518,5.38067-6.91034,10.76133c-2.31145,3.59957-2.27734,6.12212-2.27734,10.3413,0,4.31215.0277,6.72508,2.1792,10.44646l6.98395,12.07987q13.21964,22.86548,26.43931,45.73093,14.96565,25.88542,29.93126,51.77088c3.22,5.56961,11.86493.54,8.6347-5.04719q-25.19208-43.57386-50.38432-87.14764c-4.148-7.17457-8.58372-14.25315-12.47134-21.5712a14.92759,14.92759,0,0,1-1.12252-10.27338c1.10354-3.53025,4.56542-7.26842,6.569-10.38858q13.28914-20.69488,26.57833-41.38973,15.41544-24.006,30.83083-48.0121c3.48759-5.43114-5.16459-10.45113-8.6347-5.04719Z" transform="translate(-7643.46356 -741.25736)"/><path class="cls-2" d="M7760.97663,833.83377q26.57824,42.28709,53.15664,84.57408l6.37879,10.14889c2.1086,3.35486,4.633,6.14131,4.633,10.17342,0,4.05058-2.31377,6.89881-4.30588,10.34449l-6.4851,11.217q-12.47136,21.5712-24.94275,43.14239-14.21738,24.59115-28.4347,49.18233c-3.227,5.58169,5.41117,10.62283,8.63471,5.04719q26.18979-45.29957,52.37974-90.599l6.4851-11.217c1.99808-3.456,4.94247-7.17885,6.23825-10.95137.95317-2.775.81268-7.46376.43063-10.40562-.50753-3.90805-3.95062-7.72308-5.99829-10.981q-13.82072-21.98928-27.64146-43.97853-15.947-25.3722-31.894-50.74444c-3.41642-5.43567-12.07265-.42272-8.63471,5.04719Z" transform="translate(-7643.46356 -741.25736)"/><path class="cls-3" d="M7830.63505,890.78077q6.553,12.9468,13.1062,25.89362,5.58508-.06381,11.17041-.12766,6.41491-12.8936,12.82959-25.78723Z" transform="translate(-7643.46356 -741.25736)"/><path class="cls-2" d="M7826.3177,893.30437q6.553,12.94685,13.1062,25.89361a4.94553,4.94553,0,0,0,4.31735,2.47641l11.17041-.12766a4.9656,4.9656,0,0,0,4.31735-2.4764q6.41489-12.89358,12.82959-25.78723c1.65458-3.32562-.3335-7.52588-4.31735-7.5236l-37.1062.02127c-6.43436.00369-6.44534,10.00369,0,10l37.1062-.02127-4.31735-7.52359q-6.41488,12.89357-12.82959,25.78723l4.31735-2.47641-11.17041.12766,4.31735,2.4764q-6.553-12.94685-13.1062-25.89361C7832.04551,882.514,7823.41534,887.57017,7826.3177,893.30437Z" transform="translate(-7643.46356 -741.25736)"/><path class="cls-3" d="M7797.71952,1041.01106q11.12294-19.90673,22.2461-39.81345,11.12292-19.90673,22.24609-39.81344l11.36523.39239q11.36976,19.825,22.73926,39.64994,11.36976,19.825,22.7395,39.64993C7886.47147,1041.0547,7810.30375,1041.03279,7797.71952,1041.01106Z" transform="translate(-7643.46356 -741.25736)"/><path class="cls-2" d="M7802.03688,1043.53466q22.24593-39.81354,44.49218-79.6269l-4.31735,2.47641,11.36523.39239-4.31735-2.4764q22.73942,39.6499,45.47876,79.29986l4.31735-7.52359c-33.77868-.05589-67.5575-.00948-101.33618-.06537-6.435-.01065-6.4447,9.98934,0,10,33.77868.05589,67.5575.00948,101.33618.06537a5.04744,5.04744,0,0,0,4.31736-7.5236q-13.84146-24.13472-27.68285-48.26947-6.92064-12.06735-13.84124-24.13474c-1.768-3.08284-3.33232-7.9867-6.94283-9.19345-3.63615-1.21533-8.87516-.43914-12.69443-.571a4.96513,4.96513,0,0,0-4.31735,2.4764q-22.24593,39.81354-44.49219,79.62689C7790.25979,1044.11138,7798.894,1049.15943,7802.03688,1043.53466Z" transform="translate(-7643.46356 -741.25736)"/></svg>