<svg id="Слой_4" data-name="Слой 4" xmlns="http://www.w3.org/2000/svg" viewBox="0 0 407.93325 407.93325"><defs><style>.cls-1{fill:none;stroke:#f993aa;stroke-miterlimit:10;stroke-width:10px;}.cls-2{fill:#facd99;}</style></defs><circle class="cls-1" cx="203.96662" cy="203.96662" r="198.96662"/><path class="cls-2" d="M2370.87817,875.024c4.26734-.91751,17.21729-3.64288,30.54737-3.61972,26.02758.0452,25.22412,10.52,49.27661,10.46808,12.08447-.02612,18.40918-2.6835,38.456-1.88831,5.80933.23044,10.59278.66443,13.80445,1.00669q19.95483,54.56848,39.90966,109.137l-236.6809.766q22.08507-55.02128,44.17041-110.04257A164.23451,164.23451,0,0,1,2370.87817,875.024Z" transform="translate(-2221.94139 -656.09415)"/><path class="cls-1" d="M2531.20752,994.74193H2320.60767a12.76406,12.76406,0,0,1-11.78-17.67l74.95-179.92v-92.45a12.76489,12.76489,0,0,1,12.77-12.76h58.72a12.76489,12.76489,0,0,1,12.77,12.76v92.45l74.94995,179.92A12.76017,12.76017,0,0,1,2531.20752,994.74193Z" transform="translate(-2221.94139 -656.09415)"/><path class="cls-1" d="M2347.74629,883.64626c20.02759-8.95432,39.43573-13.53724,50.8432-14.00666,21.96533-.90387,32.67634,10.28715,67.91486,12.25529,12.603.70392,28.65661-3.45535,35.33508-3.60037" transform="translate(-2221.94139 -656.09415)"/><circle class="cls-1" cx="208.43534" cy="120.79883" r="11.3617"/><circle class="cls-1" cx="184.30768" cy="160.43906" r="3.57447"/><circle class="cls-1" cx="224.37417" cy="179.7525" r="10.44946"/></svg>