<svg id="Слой_29" data-name="Слой 29" xmlns="http://www.w3.org/2000/svg" viewBox="0 0 407.93457 407.93384"><defs><style>.cls-1{fill:#fccd9a;}.cls-2{fill:none;stroke:#f18faa;stroke-miterlimit:10;stroke-width:10px;}</style></defs><path class="cls-1" d="M9211.53914,2845.14526c0-8.214,62.51563-15.6919,141.7666-15.6919l.0752.97791-.78125-151.83191-24.21484-1.01489" transform="translate(-9006.79012 -2534.1433)"/><path class="cls-2" d="M9211.53914,2845.14526c0-8.214,62.51563-15.6919,141.7666-15.6919l.0752.97791-.78125-151.83191-24.21484-1.01489" transform="translate(-9006.79012 -2534.1433)"/><path class="cls-1" d="M9210.36727,2845.14526c0-8.214-64.15137-15.804-143.40235-15.804v.447l.41211-151.59106,26.82032.40307" transform="translate(-9006.79012 -2534.1433)"/><path class="cls-2" d="M9210.36727,2845.14526c0-8.214-64.15137-15.804-143.40235-15.804v.447l.41211-151.59106,26.82032.40307" transform="translate(-9006.79012 -2534.1433)"/><path class="cls-1" d="M9209.83016,2843.82739c0-15.662-50.87793-28.736-114.957-28.736V2649.45361h.06054c62.93262,0,113.8584,12.67187,113.8584,28.334" transform="translate(-9006.79012 -2534.1433)"/><path class="cls-2" d="M9209.83016,2843.82739c0-15.662-50.87793-28.736-114.957-28.736V2649.45361h.06054c62.93262,0,113.8584,12.67187,113.8584,28.334" transform="translate(-9006.79012 -2534.1433)"/><path class="cls-1" d="M9210.255,2677.78735c0-15.66187,52.26074-28.334,116.84375-28.334v166.38208l-.001-.342c-63.87305,0-115.56055,12.673-115.56055,28.334h-.7666l-1.54785-166.03882" transform="translate(-9006.79012 -2534.1433)"/><path class="cls-2" d="M9210.255,2677.78735c0-15.66187,52.26074-28.334,116.84375-28.334v166.38208l-.001-.342c-63.87305,0-115.56055,12.673-115.56055,28.334h-.7666l-1.54785-166.03882" transform="translate(-9006.79012 -2534.1433)"/><circle class="cls-2" cx="9210.75716" cy="2738.11016" r="198.96704" transform="translate(-8245.15807 4780.81944) rotate(-45)"/></svg>