<?xml version="1.0" encoding="UTF-8"?>
<svg id="_Слой_1" data-name="Слой 1" xmlns="http://www.w3.org/2000/svg" viewBox="0 0 227.23907 227.23855">
  <defs>
    <style>
      .cls-1 {
        fill: #f9cc98;
        stroke-miterlimit: 10;
      }

      .cls-1, .cls-2, .cls-3, .cls-4 {
        stroke: #f892a9;
      }

      .cls-2 {
        stroke-width: 6.2px;
      }

      .cls-2, .cls-3, .cls-4 {
        fill: none;
        stroke-miterlimit: 5.57;
      }

      .cls-3 {
        stroke-width: 5.966px;
      }

      .cls-4 {
        stroke-width: 5.57px;
      }
    </style>
  </defs>
  <path class="cls-4" d="M35.24813,35.24722c43.28271-43.28296,113.45996-43.28296,156.74268,0,43.28418,43.28406,43.28418,113.46008.00098,156.74402-43.28369,43.28308-113.45996,43.28308-156.74365,0-43.28418-43.28394-43.28418-113.46094,0-156.74402Z"/>
  <path class="cls-1" d="M113.67294,38.05825c41.73193,0,75.56396,33.83105,75.56396,75.56311s-33.83203,75.56396-75.56396,75.56396-75.56348-33.83105-75.56348-75.56396S71.94052,38.05825,113.67294,38.05825"/>
  <circle class="cls-2" cx="113.67306" cy="113.62158" r="75.56372" transform="translate(-38.78932 164.4807) rotate(-63.43493)"/>
  <path class="cls-4" d="M49.20028,79.62515c-8.46729,0,29.34473,17.06812,66.10986,17.01208,33.52881-.05005,64.14404-15.35205,66.03271-17.01208"/>
  <path class="cls-3" d="M113.67294,189.18496c-13.22412-14.38892-33.64014-29.86292-33.59033-75.05591.05029-41.22205,24.57227-70.73401,33.59033-76.07104"/>
  <path class="cls-3" d="M115.31112,189.14602c13.22461-14.38892,33.63965-29.86292,33.58984-75.05688-.05029-41.22107-24.57227-70.73303-33.58984-76.07007"/>
  <path class="cls-4" d="M50.69345,146.1531c-8.46729,0,29.34473-17.06799,66.10986-17.01196,33.52881.05005,64.14404,15.35205,66.03271,17.01196"/>
</svg>