<svg id="Слой_18" data-name="Слой 18" xmlns="http://www.w3.org/2000/svg" viewBox="0 0 403.96411 407.93323"><defs><style>.cls-1{fill:#facd99;}.cls-1,.cls-2{stroke:#f993aa;stroke-miterlimit:10;stroke-width:10px;}.cls-2{fill:none;}</style></defs><path class="cls-1" d="M7460.16251,973.00009c16.88318-15.01574,42.11621-5.264,53.90869-24.63,7.67652-12.60669,1.43384-24.04724,13.49561-40.73169,7.0227-9.71423,10.602-7.85962,16.34033-16.34045,12.50684-18.48407.7561-35.05524,8.17017-49.02124,7.252-13.66089,31.21679-21.761,53.24414-20.04523-20.86206-87.5639-99.5918-152.68573-193.54273-152.68573-109.88623,0-198.96679,89.08038-198.96679,198.96661s89.08056,198.96662,198.96679,198.96662a199.70136,199.70136,0,0,0,41.96033-4.44757C7438.95328,1036.214,7440.34635,990.62436,7460.16251,973.00009ZM7404.808,932.0925c-38.18359-2.87921-64.17188-40.65075-59.398-74.84735,5.8042-41.579,55.73877-68.22,92.23926-52.53259,25.08252,10.78015,39.97021,39.89349,36.79,67.4071C7470.61661,905.18528,7440.829,934.80869,7404.808,932.0925Z" transform="translate(-7207.81193 -664.54575)"/><path class="cls-2" d="M7460.16251,973.00009c16.88318-15.01574,42.11621-5.264,53.90869-24.63,7.67652-12.60669,1.43384-24.04724,13.49561-40.73169,7.0227-9.71423,10.602-7.85962,16.34033-16.34045,12.50684-18.48407.7561-35.05524,8.17017-49.02124,3.40405-6.41254,10.49731-11.59772,19.33813-15.12317,2.50879-5.92469,3.82764-11.46381,1.48267-18.3476-5.5669-16.34167-22.354-14.87073-49.09058-32.878-46.63379-31.40894-42.25549-68.47-69.99011-72.30194-26.63806-3.68091-33.02564,30.18426-73.36719,34.7309-35.01465,3.94641-51.16443-19.2035-70.68982-7.54035-14.15075,8.45252-7.31091,21.59241-26.40893,53.26795-17.89527,29.68011-31.16468,30.192-32.17383,47.18853-1.32056,22.24091,20.89368,29.90332,17.37915,51.16236-2.89453,17.50695-19.20435,19.8443-18.65711,34.5711.49524,13.33222,13.97327,14.41468,26.81726,35.12647,15.09388,24.34088,6.21705,38.54992,19.22315,47.90112,14.06348,10.11157,26.42627-5.07538,50.8,1.63666,28.834,7.94037,30.4635,36.04541,51.15832,36.57074,17.43824.44269,17.94959-19.18122,46.52381-28.91C7446.10624,994.4097,7451.28361,980.89688,7460.16251,973.00009Z" transform="translate(-7207.81193 -664.54575)"/><line class="cls-2" x1="221.17297" y1="93.01662" x2="242.76995" y2="103.64511"/><line class="cls-2" x1="110.28168" y1="141.35193" x2="127.15108" y2="124.18167"/><line class="cls-2" x1="112.73521" y1="258.92275" x2="97.10314" y2="240.61884"/><line class="cls-2" x1="202.76894" y1="316.20556" x2="183.00827" y2="329.95003"/><line class="cls-2" x1="294.80351" y1="264.64852" x2="270.78526" y2="263.06164"/><line class="cls-2" x1="312.87369" y1="189.26489" x2="296.09034" y2="172.01052"/></svg>