<svg id="Слой_31" data-name="Слой 31" xmlns="http://www.w3.org/2000/svg" viewBox="0 0 407.93652 407.93384"><defs><style>.cls-1,.cls-3,.cls-4{fill:none;stroke-miterlimit:10;}.cls-1{stroke:#f993aa;stroke-width:10px;}.cls-2{fill:#fccd9a;}.cls-3,.cls-4{stroke:#f18faa;}.cls-4{stroke-width:9.361px;}</style></defs><circle class="cls-1" cx="10110.05886" cy="2747.21025" r="198.96729" transform="translate(-8887.49464 5410.28704) rotate(-45)"/><rect class="cls-2" x="82.62793" y="86.17065" width="241.85645" height="236.15601"/><rect class="cls-3" x="82.62793" y="86.17065" width="241.85645" height="236.15601"/><rect class="cls-2" x="82.62793" y="86.17065" width="241.85645" height="236.15601"/><rect class="cls-4" x="82.62793" y="86.17065" width="241.85645" height="236.15601"/><rect class="cls-2" x="82.62793" y="86.1687" width="120.92871" height="118.0791"/><rect class="cls-3" x="82.62793" y="86.1687" width="120.92871" height="118.0791"/><rect class="cls-2" x="82.62793" y="86.1687" width="120.92871" height="118.0791"/><rect class="cls-4" x="82.62793" y="86.1687" width="120.92871" height="118.0791"/><rect class="cls-2" x="82.62793" y="205.05371" width="120.92871" height="118.078"/><rect class="cls-3" x="82.62793" y="205.05371" width="120.92871" height="118.078"/><rect class="cls-2" x="82.62793" y="205.05371" width="120.92871" height="118.078"/><rect class="cls-4" x="82.62793" y="205.05371" width="120.92871" height="118.078"/><rect class="cls-2" x="204.38086" y="86.97559" width="120.92871" height="118.07813"/><rect class="cls-3" x="204.38086" y="86.97559" width="120.92871" height="118.07813"/><rect class="cls-2" x="204.38086" y="86.97559" width="120.92871" height="118.07813"/><rect class="cls-4" x="204.38086" y="86.97559" width="120.92871" height="118.07813"/><rect class="cls-2" x="204.38086" y="205.05371" width="120.92871" height="118.078"/><rect class="cls-3" x="204.38086" y="205.05371" width="120.92871" height="118.078"/><rect class="cls-2" x="204.38086" y="205.05371" width="120.92871" height="118.078"/><rect class="cls-4" x="204.38086" y="205.05371" width="120.92871" height="118.078"/><line class="cls-2" x1="110.69336" y1="145.20117" x2="176.72754" y2="145.20117"/><line class="cls-4" x1="110.69336" y1="145.20117" x2="176.72754" y2="145.20117"/><line class="cls-2" x1="295.2959" y1="118.60352" x2="232.56152" y2="173.41064"/><line class="cls-4" x1="295.2959" y1="118.60352" x2="232.56152" y2="173.41064"/><line class="cls-2" x1="236.32617" y1="114.99243" x2="293.3623" y2="175.42554"/><line class="cls-4" x1="236.32617" y1="114.99243" x2="293.3623" y2="175.42554"/><line class="cls-2" x1="143.71094" y1="305.19067" x2="143.71094" y2="222.99585"/><line class="cls-4" x1="143.71094" y1="305.19067" x2="143.71094" y2="222.99585"/><line class="cls-2" x1="189.11133" y1="264.10107" x2="104.91504" y2="264.10107"/><line class="cls-4" x1="189.11133" y1="264.10107" x2="104.91504" y2="264.10107"/><line class="cls-2" x1="231.83594" y1="277.99646" x2="297.86914" y2="277.99646"/><line class="cls-4" x1="231.83594" y1="277.99646" x2="297.86914" y2="277.99646"/><line class="cls-2" x1="230.91211" y1="252.20459" x2="296.94531" y2="252.20459"/><line class="cls-4" x1="230.91211" y1="252.20459" x2="296.94531" y2="252.20459"/></svg>