<svg id="Слой_27" data-name="Слой 27" xmlns="http://www.w3.org/2000/svg" viewBox="0 0 407.93311 407.93384"><defs><style>.cls-1,.cls-3,.cls-6,.cls-8{fill:none;stroke-miterlimit:10;}.cls-1{stroke:#f993aa;}.cls-1,.cls-3{stroke-width:10px;}.cls-2{fill:#fccd9a;}.cls-3{stroke:#f18faa;}.cls-4{fill:#f18faa;}.cls-5{fill:#331013;}.cls-6{stroke:#331013;}.cls-7{fill:#7b7575;}.cls-8{stroke:#7b7575;}</style></defs><circle class="cls-1" cx="7861.80376" cy="2733.56012" r="198.96661" transform="translate(-7288.08746 3830.18271) rotate(-45)"/><path class="cls-2" d="M7990.16521,2841.27283h-256.979a20.12018,20.12018,0,0,1-20.28808-19.82495v-168.516a20.12028,20.12028,0,0,1,20.28808-19.82592h256.979a20.12017,20.12017,0,0,1,20.28759,19.82592v168.516a20.12006,20.12006,0,0,1-20.28759,19.82495" transform="translate(-7657.83757 -2529.59326)"/><path class="cls-3" d="M7990.16521,2841.27283h-256.979a20.12018,20.12018,0,0,1-20.28808-19.82495v-168.516a20.12028,20.12028,0,0,1,20.28808-19.82592h256.979a20.12017,20.12017,0,0,1,20.28759,19.82592v168.516A20.12006,20.12006,0,0,1,7990.16521,2841.27283Z" transform="translate(-7657.83757 -2529.59326)"/><line class="cls-4" x1="55.71436" y1="156.86328" x2="353.26807" y2="156.86328"/><line class="cls-3" x1="55.71436" y1="156.86328" x2="353.26807" y2="156.86328"/><rect class="cls-5" x="194.41357" y="175.21191" width="24.13379" height="23.58398"/><rect class="cls-6" x="194.41357" y="175.21191" width="24.13379" height="23.58398"/><rect class="cls-5" x="194.41357" y="175.21191" width="24.13379" height="23.58398"/><rect class="cls-6" x="194.41357" y="175.21191" width="24.13379" height="23.58398"/><rect class="cls-5" x="247.09961" y="175.08398" width="24.13477" height="23.58398"/><rect class="cls-6" x="247.09961" y="175.08398" width="24.13477" height="23.58398"/><rect class="cls-5" x="247.09961" y="175.08398" width="24.13477" height="23.58398"/><rect class="cls-6" x="247.09961" y="175.08398" width="24.13477" height="23.58398"/><rect class="cls-5" x="299.7876" y="175.21191" width="24.13379" height="23.58398"/><rect class="cls-6" x="299.7876" y="175.21191" width="24.13379" height="23.58398"/><rect class="cls-5" x="299.7876" y="175.21191" width="24.13379" height="23.58398"/><rect class="cls-6" x="299.7876" y="175.21191" width="24.13379" height="23.58398"/><rect class="cls-5" x="85.06055" y="220.05298" width="24.13379" height="23.58496"/><rect class="cls-6" x="85.06055" y="220.05298" width="24.13379" height="23.58496"/><rect class="cls-5" x="85.06055" y="220.05298" width="24.13379" height="23.58496"/><rect class="cls-6" x="85.06055" y="220.05298" width="24.13379" height="23.58496"/><rect class="cls-5" x="140.12939" y="217.56787" width="24.13477" height="23.58398"/><rect class="cls-6" x="140.12939" y="217.56787" width="24.13477" height="23.58398"/><rect class="cls-5" x="140.12939" y="217.56787" width="24.13477" height="23.58398"/><rect class="cls-6" x="140.12939" y="217.56787" width="24.13477" height="23.58398"/><rect class="cls-5" x="195.2002" y="217.56787" width="24.13379" height="23.58398"/><rect class="cls-6" x="195.2002" y="217.56787" width="24.13379" height="23.58398"/><rect class="cls-5" x="195.2002" y="217.56787" width="24.13379" height="23.58398"/><rect class="cls-6" x="195.2002" y="217.56787" width="24.13379" height="23.58398"/><rect class="cls-5" x="247.09961" y="217.56787" width="24.13477" height="23.58398"/><rect class="cls-6" x="247.09961" y="217.56787" width="24.13477" height="23.58398"/><rect class="cls-5" x="247.09961" y="217.56787" width="24.13477" height="23.58398"/><rect class="cls-6" x="247.09961" y="217.56787" width="24.13477" height="23.58398"/><rect class="cls-7" x="299.7876" y="217.56787" width="24.13379" height="23.58398"/><rect class="cls-8" x="299.7876" y="217.56787" width="24.13379" height="23.58398"/><rect class="cls-7" x="299.7876" y="217.56787" width="24.13379" height="23.58398"/><rect class="cls-8" x="299.7876" y="217.56787" width="24.13379" height="23.58398"/><rect class="cls-7" x="85.06055" y="265.0249" width="24.13379" height="23.58398"/><rect class="cls-8" x="85.06055" y="265.0249" width="24.13379" height="23.58398"/><rect class="cls-7" x="85.06055" y="265.0249" width="24.13379" height="23.58398"/><rect class="cls-8" x="85.06055" y="265.0249" width="24.13379" height="23.58398"/><rect class="cls-7" x="140.12939" y="265.0249" width="24.13477" height="23.58398"/><rect class="cls-8" x="140.12939" y="265.0249" width="24.13477" height="23.58398"/><rect class="cls-7" x="140.12939" y="265.0249" width="24.13477" height="23.58398"/><rect class="cls-8" x="140.12939" y="265.0249" width="24.13477" height="23.58398"/><rect class="cls-7" x="195.2002" y="265.0249" width="24.13379" height="23.58398"/><rect class="cls-8" x="195.2002" y="265.0249" width="24.13379" height="23.58398"/><rect class="cls-7" x="195.2002" y="265.0249" width="24.13379" height="23.58398"/><rect class="cls-8" x="195.2002" y="265.0249" width="24.13379" height="23.58398"/><rect class="cls-7" x="247.49365" y="265.0249" width="24.13477" height="23.58398"/><rect class="cls-8" x="247.49365" y="265.0249" width="24.13477" height="23.58398"/><rect class="cls-7" x="247.49365" y="265.0249" width="24.13477" height="23.58398"/><rect class="cls-8" x="247.49365" y="265.0249" width="24.13477" height="23.58398"/><rect class="cls-7" x="299.7876" y="265.0249" width="24.13379" height="23.58398"/><rect class="cls-8" x="299.7876" y="265.0249" width="24.13379" height="23.58398"/><rect class="cls-7" x="299.7876" y="265.0249" width="24.13379" height="23.58398"/><rect class="cls-8" x="299.7876" y="265.0249" width="24.13379" height="23.58398"/><path class="cls-7" d="M7969.79314,2665.83643h-.20215a8.7426,8.7426,0,0,1-8.71729-8.7168v-42.043a8.74181,8.74181,0,0,1,8.71729-8.71606h.20215a8.74118,8.74118,0,0,1,8.71582,8.71606v42.043a8.742,8.742,0,0,1-8.71582,8.7168" transform="translate(-7657.83757 -2529.59326)"/><path class="cls-7" d="M7969.79314,2665.83643h-.20215a8.7426,8.7426,0,0,1-8.71729-8.7168v-42.043a8.74181,8.74181,0,0,1,8.71729-8.71606h.20215a8.74118,8.74118,0,0,1,8.71582,8.71606v42.043a8.742,8.742,0,0,1-8.71582,8.7168" transform="translate(-7657.83757 -2529.59326)"/><path class="cls-7" d="M7755.0656,2663.894h-.20215a8.74259,8.74259,0,0,1-8.71729-8.71679v-42.043a8.74181,8.74181,0,0,1,8.71729-8.71607h.20215a8.74119,8.74119,0,0,1,8.71582,8.71607v42.043a8.742,8.742,0,0,1-8.71582,8.71679" transform="translate(-7657.83757 -2529.59326)"/><path class="cls-7" d="M7755.0656,2663.894h-.20215a8.74259,8.74259,0,0,1-8.71729-8.71679v-42.043a8.74181,8.74181,0,0,1,8.71729-8.71607h.20215a8.74119,8.74119,0,0,1,8.71582,8.71607v42.043a8.742,8.742,0,0,1-8.71582,8.71679" transform="translate(-7657.83757 -2529.59326)"/></svg>