<?xml version="1.0" encoding="UTF-8"?>
<svg id="_Слой_1" data-name="Слой 1" xmlns="http://www.w3.org/2000/svg" viewBox="0 0 227.24041 227.24102">
  <defs>
    <style>
      .cls-1 {
        fill: #f9cc98;
      }

      .cls-1, .cls-2 {
        stroke-miterlimit: 10;
      }

      .cls-1, .cls-2, .cls-3 {
        stroke: #f892a9;
      }

      .cls-2 {
        fill: #f892a9;
      }

      .cls-3 {
        fill: none;
        stroke-miterlimit: 5.57;
        stroke-width: 5.57px;
      }
    </style>
  </defs>
  <circle class="cls-3" cx="113.62033" cy="113.62078" r="110.83522" transform="translate(-47.0634 113.62046) rotate(-45)"/>
  <path class="cls-1" d="M166.54525,169.431H58.16c-9.21875,0-16.68896-7.46997-16.68896-16.68896v-70.93396c0-9.21997,7.47021-16.69006,16.68896-16.69006h108.38525c9.21875,0,16.68896,7.47009,16.68896,16.69006v70.93396c0,9.21301-7.47021,16.68896-16.68896,16.68896"/>
  <path class="cls-3" d="M58.16,65.11801h108.38525c9.21089,0,16.68896,7.47807,16.68896,16.68896v70.93396c0,9.2115-7.47857,16.69006-16.69006,16.69006H58.16c-9.21089,0-16.68896-7.47807-16.68896-16.68896v-70.93506c0-9.21089,7.47807-16.68896,16.68896-16.68896Z"/>
  <line class="cls-3" x1="56.03842" y1="77.72445" x2="56.03842" y2="124.65548"/>
  <line class="cls-3" x1="168.66732" y1="77.72445" x2="168.66732" y2="124.65548"/>
  <line class="cls-3" x1="56.03842" y1="121.86483" x2="168.66732" y2="121.86483"/>
  <rect class="cls-2" x="102.27377" y="121.86459" width="22.68896" height="12.63403"/>
  <rect class="cls-3" x="102.27377" y="121.86459" width="22.68896" height="12.63403"/>
  <path class="cls-3" d="M126.88363,65.11862h-29.06641c-1.91064,0-3.45996-1.54895-3.45996-3.45898v-8.172c0-1.91101,1.54932-3.45898,3.45996-3.45898h29.06641c1.91064,0,3.45898,1.54797,3.45898,3.45898v8.172c.00586,1.91003-1.54199,3.45898-3.45898,3.45898Z"/>
</svg>