<svg id="Слой_2" data-name="Слой 2" xmlns="http://www.w3.org/2000/svg" viewBox="0 0 407.93325 407.93325"><defs><style>.cls-1{fill:none;}.cls-1,.cls-2{stroke:#f993aa;stroke-miterlimit:10;stroke-width:10px;}.cls-2{fill:#facd99;}</style></defs><circle class="cls-1" cx="203.96662" cy="203.96662" r="198.96662"/><path class="cls-2" d="M105.04792,770.60718l16.05991,30.01958a2.04525,2.04525,0,0,0,1.543,1.03422l35.91105,4.81386a1.85563,1.85563,0,0,1,1.13578,3.22473l-25.98548,23.367a1.80178,1.80178,0,0,0-.58938,1.6734l6.13434,32.99471a2.01979,2.01979,0,0,1-2.97352,1.993l-32.11981-15.578a2.20254,2.20254,0,0,0-1.90731,0l-32.11981,15.578a2.01979,2.01979,0,0,1-2.97352-1.993L73.29754,834.74a1.80178,1.80178,0,0,0-.58938-1.6734l-25.98548-23.367a1.85563,1.85563,0,0,1,1.13578-3.22473l35.911-4.81386a2.04525,2.04525,0,0,0,1.543-1.03422l16.05991-30.01958A2.12925,2.12925,0,0,1,105.04792,770.60718Z" transform="translate(-14.97797 -656.09415)"/><path class="cls-1" d="M147.484,898.86431l16.05991,30.01958a2.04525,2.04525,0,0,0,1.543,1.03422l35.911,4.81386a1.85563,1.85563,0,0,1,1.13578,3.22473l-25.98547,23.367a1.80182,1.80182,0,0,0-.58939,1.67341l6.13434,32.99471a2.01979,2.01979,0,0,1-2.97352,1.993l-32.11981-15.578a2.20245,2.20245,0,0,0-1.9073,0l-32.11982,15.578a2.01979,2.01979,0,0,1-2.97351-1.993l6.13434-32.99471a1.80184,1.80184,0,0,0-.58939-1.67341l-25.98548-23.367a1.85563,1.85563,0,0,1,1.13578-3.22473l35.91105-4.81386a2.04527,2.04527,0,0,0,1.543-1.03422l16.05991-30.01958A2.12924,2.12924,0,0,1,147.484,898.86431Z" transform="translate(-14.97797 -656.09415)"/><path class="cls-1" d="M292.69819,898.86431l16.0599,30.01958a2.04528,2.04528,0,0,0,1.543,1.03422l35.911,4.81386a1.85563,1.85563,0,0,1,1.13578,3.22473l-25.98548,23.367a1.80184,1.80184,0,0,0-.58939,1.67341l6.13434,32.99471a2.01979,2.01979,0,0,1-2.97351,1.993l-32.11982-15.578a2.20245,2.20245,0,0,0-1.9073,0l-32.11981,15.578a2.01979,2.01979,0,0,1-2.97352-1.993l6.13434-32.99471a1.80182,1.80182,0,0,0-.58939-1.67341L234.373,937.9567a1.85563,1.85563,0,0,1,1.13578-3.22473l35.911-4.81386a2.04525,2.04525,0,0,0,1.543-1.03422l16.05991-30.01958A2.12925,2.12925,0,0,1,292.69819,898.86431Z" transform="translate(-14.97797 -656.09415)"/><path class="cls-1" d="M336.51674,775.90668l16.05991,30.01958a2.04525,2.04525,0,0,0,1.543,1.03422l35.911,4.81386a1.85563,1.85563,0,0,1,1.13578,3.22473l-25.98548,23.367a1.80178,1.80178,0,0,0-.58938,1.6734l6.13434,32.99471a2.01979,2.01979,0,0,1-2.97352,1.993l-32.11981-15.578a2.20252,2.20252,0,0,0-1.9073,0l-32.11982,15.578a2.01978,2.01978,0,0,1-2.97351-1.993l6.13433-32.99471a1.80178,1.80178,0,0,0-.58938-1.6734l-25.98548-23.367a1.85563,1.85563,0,0,1,1.13578-3.22473l35.91105-4.81386a2.04525,2.04525,0,0,0,1.543-1.03422l16.05991-30.01958A2.12925,2.12925,0,0,1,336.51674,775.90668Z" transform="translate(-14.97797 -656.09415)"/><path class="cls-1" d="M222.50681,681.284l17.75628,33.19048a2.26131,2.26131,0,0,0,1.706,1.14346l39.70424,5.32234a2.05164,2.05164,0,0,1,1.25575,3.56535l-28.73026,25.83518a1.99212,1.99212,0,0,0-.65164,1.85016l6.78229,36.47986a2.23314,2.23314,0,0,1-3.2876,2.20351l-35.51255-17.22346a2.43512,2.43512,0,0,0-2.10876,0L183.908,790.87435a2.23314,2.23314,0,0,1-3.2876-2.20351l6.7823-36.47986a1.99213,1.99213,0,0,0-.65165-1.85016l-28.73025-25.83518a2.05163,2.05163,0,0,1,1.25575-3.56535l39.70424-5.32234a2.2613,2.2613,0,0,0,1.706-1.14346L218.44312,681.284A2.35415,2.35415,0,0,1,222.50681,681.284Z" transform="translate(-14.97797 -656.09415)"/></svg>