<svg id="Слой_15" data-name="Слой 15" xmlns="http://www.w3.org/2000/svg" viewBox="0 0 407.93311 407.93324"><defs><style>.cls-1{fill:#facd99;}.cls-1,.cls-2{stroke:#f993aa;stroke-miterlimit:10;stroke-width:10px;}.cls-2{fill:none;}</style></defs><path class="cls-1" d="M5599.77466,739.98311H5471.22231c-4.07356,0-7.37607,3.91486-7.37607,8.74414V910.02767c0,4.88623-3.37665,8.748-7.4984,8.74151l-.07785-.00006c-21.46425,0-38.85658,13.8-38.85658,30.81751,0,17.00171,17.39233,30.80182,38.85658,30.80182s38.85658-13.80011,38.85658-30.80182c0-.61512-.02636-1.21448-.07908-1.81379h.07908l-1.33188-90.11874a6.93028,6.93028,0,0,1,6.92952-7.0327h69.981a6.93029,6.93029,0,0,1,6.92813,6.75791l1.26768,50.9503c0,4.991-3.51586,8.97491-7.72082,8.72644q-1.42965-.08451-2.88609-.0849c-21.45107,0-38.85658,13.78424-38.85658,30.80169,0,17.00177,17.40551,30.80182,38.85658,30.80182,21.46384,0,38.85658-13.8,38.85658-30.80182V748.72725C5607.15073,743.898,5603.84822,739.98311,5599.77466,739.98311Zm-97.71781,72.32813a6.93029,6.93029,0,0,1-6.93028-6.93029V787.38326c0-4.82929,3.30251-8.74414,7.37607-8.74414H5571.525c4.07356,0,7.37607,3.91485,7.37607,8.74414V805.381a6.93029,6.93029,0,0,1-6.93028,6.93029Z" transform="translate(-5321.3894 -659.97421)"/><circle class="cls-2" cx="203.96655" cy="203.96662" r="198.96658"/></svg>