<svg id="Слой_27" data-name="Слой 27" xmlns="http://www.w3.org/2000/svg" viewBox="0 0 407.93311 407.93384"><defs><style>.cls-1,.cls-3,.cls-6,.cls-8{fill:none;stroke-miterlimit:10;}.cls-1{stroke:#f993aa;}.cls-1,.cls-3{stroke-width:10px;}.cls-2{fill:#fccd9a;}.cls-3{stroke:#f18faa;}.cls-4{fill:#f18faa;}.cls-5{fill:#331013;}.cls-6{stroke:#331013;}.cls-7{fill:#7b7575;}.cls-8{stroke:#7b7575;}</style></defs><circle class="cls-1" cx="7412.15266" cy="2735.83514" r="198.96661" transform="translate(-6971.7448 3510.62269) rotate(-45)"/><path class="cls-2" d="M7539.7895,2837.95092h-256.979a20.12018,20.12018,0,0,1-20.28809-19.825V2649.61a20.1203,20.1203,0,0,1,20.28809-19.82593h256.979a20.12018,20.12018,0,0,1,20.2876,19.82593v168.516a20.12006,20.12006,0,0,1-20.2876,19.825" transform="translate(-7208.18648 -2531.86828)"/><path class="cls-3" d="M7539.7895,2837.95092h-256.979a20.12018,20.12018,0,0,1-20.28809-19.825V2649.61a20.1203,20.1203,0,0,1,20.28809-19.82593h256.979a20.12018,20.12018,0,0,1,20.2876,19.82593v168.516A20.12006,20.12006,0,0,1,7539.7895,2837.95092Z" transform="translate(-7208.18648 -2531.86828)"/><line class="cls-4" x1="53.94287" y1="152.08301" x2="351.49658" y2="152.08301"/><line class="cls-3" x1="53.94287" y1="152.08301" x2="351.49658" y2="152.08301"/><rect class="cls-5" x="192.64209" y="170.43188" width="24.13379" height="23.58398"/><rect class="cls-6" x="192.64209" y="170.43188" width="24.13379" height="23.58398"/><rect class="cls-5" x="192.64209" y="170.43188" width="24.13379" height="23.58398"/><rect class="cls-6" x="192.64209" y="170.43188" width="24.13379" height="23.58398"/><rect class="cls-7" x="245.32813" y="170.30298" width="24.13477" height="23.58398"/><rect class="cls-8" x="245.32813" y="170.30298" width="24.13477" height="23.58398"/><rect class="cls-7" x="245.32813" y="170.30298" width="24.13477" height="23.58398"/><rect class="cls-8" x="245.32813" y="170.30298" width="24.13477" height="23.58398"/><rect class="cls-7" x="298.01611" y="170.43188" width="24.13379" height="23.58398"/><rect class="cls-8" x="298.01611" y="170.43188" width="24.13379" height="23.58398"/><rect class="cls-7" x="298.01611" y="170.43188" width="24.13379" height="23.58398"/><rect class="cls-8" x="298.01611" y="170.43188" width="24.13379" height="23.58398"/><rect class="cls-7" x="83.28906" y="215.27295" width="24.13379" height="23.58496"/><rect class="cls-8" x="83.28906" y="215.27295" width="24.13379" height="23.58496"/><rect class="cls-7" x="83.28906" y="215.27295" width="24.13379" height="23.58496"/><rect class="cls-8" x="83.28906" y="215.27295" width="24.13379" height="23.58496"/><rect class="cls-7" x="138.3584" y="212.78784" width="24.13477" height="23.58398"/><rect class="cls-8" x="138.3584" y="212.78784" width="24.13477" height="23.58398"/><rect class="cls-7" x="138.3584" y="212.78784" width="24.13477" height="23.58398"/><rect class="cls-8" x="138.3584" y="212.78784" width="24.13477" height="23.58398"/><rect class="cls-7" x="193.42822" y="212.78784" width="24.13379" height="23.58398"/><rect class="cls-8" x="193.42822" y="212.78784" width="24.13379" height="23.58398"/><rect class="cls-7" x="193.42822" y="212.78784" width="24.13379" height="23.58398"/><rect class="cls-8" x="193.42822" y="212.78784" width="24.13379" height="23.58398"/><rect class="cls-7" x="245.32813" y="212.78784" width="24.13477" height="23.58398"/><rect class="cls-8" x="245.32813" y="212.78784" width="24.13477" height="23.58398"/><rect class="cls-7" x="245.32813" y="212.78784" width="24.13477" height="23.58398"/><rect class="cls-8" x="245.32813" y="212.78784" width="24.13477" height="23.58398"/><rect class="cls-7" x="298.01611" y="212.78784" width="24.13379" height="23.58398"/><rect class="cls-8" x="298.01611" y="212.78784" width="24.13379" height="23.58398"/><rect class="cls-7" x="298.01611" y="212.78784" width="24.13379" height="23.58398"/><rect class="cls-8" x="298.01611" y="212.78784" width="24.13379" height="23.58398"/><rect class="cls-7" x="83.28906" y="260.24487" width="24.13379" height="23.58411"/><rect class="cls-8" x="83.28906" y="260.24487" width="24.13379" height="23.58411"/><rect class="cls-7" x="83.28906" y="260.24487" width="24.13379" height="23.58411"/><rect class="cls-8" x="83.28906" y="260.24487" width="24.13379" height="23.58411"/><rect class="cls-7" x="138.3584" y="260.24487" width="24.13477" height="23.58411"/><rect class="cls-8" x="138.3584" y="260.24487" width="24.13477" height="23.58411"/><rect class="cls-7" x="138.3584" y="260.24487" width="24.13477" height="23.58411"/><rect class="cls-8" x="138.3584" y="260.24487" width="24.13477" height="23.58411"/><rect class="cls-7" x="193.42822" y="260.24487" width="24.13379" height="23.58411"/><rect class="cls-8" x="193.42822" y="260.24487" width="24.13379" height="23.58411"/><rect class="cls-7" x="193.42822" y="260.24487" width="24.13379" height="23.58411"/><rect class="cls-8" x="193.42822" y="260.24487" width="24.13379" height="23.58411"/><rect class="cls-7" x="245.72217" y="260.24487" width="24.13477" height="23.58411"/><rect class="cls-8" x="245.72217" y="260.24487" width="24.13477" height="23.58411"/><rect class="cls-7" x="245.72217" y="260.24487" width="24.13477" height="23.58411"/><rect class="cls-8" x="245.72217" y="260.24487" width="24.13477" height="23.58411"/><rect class="cls-7" x="298.01611" y="260.24487" width="24.13379" height="23.58411"/><rect class="cls-8" x="298.01611" y="260.24487" width="24.13379" height="23.58411"/><rect class="cls-7" x="298.01611" y="260.24487" width="24.13379" height="23.58411"/><rect class="cls-8" x="298.01611" y="260.24487" width="24.13379" height="23.58411"/><path class="cls-7" d="M7518.37056,2663.33117h-.20215a8.74259,8.74259,0,0,1-8.71729-8.71679v-42.043a8.74181,8.74181,0,0,1,8.71729-8.71607h.20215a8.74119,8.74119,0,0,1,8.71582,8.71607v42.043a8.742,8.742,0,0,1-8.71582,8.71679" transform="translate(-7208.18648 -2531.86828)"/><path class="cls-8" d="M7518.37056,2663.33117h-.20215a8.74259,8.74259,0,0,1-8.71729-8.71679v-42.043a8.74181,8.74181,0,0,1,8.71729-8.71607h.20215a8.74119,8.74119,0,0,1,8.71582,8.71607v42.043a8.742,8.742,0,0,1-8.71582,8.71679" transform="translate(-7208.18648 -2531.86828)"/><path class="cls-7" d="M7518.37056,2663.33117h-.20215a8.74259,8.74259,0,0,1-8.71729-8.71679v-42.043a8.74181,8.74181,0,0,1,8.71729-8.71607h.20215a8.74119,8.74119,0,0,1,8.71582,8.71607v42.043a8.742,8.742,0,0,1-8.71582,8.71679" transform="translate(-7208.18648 -2531.86828)"/><path class="cls-8" d="M309.98047,71.98706h.20264a8.7168,8.7168,0,0,1,8.7168,8.7168v42.043a8.71606,8.71606,0,0,1-8.71606,8.71606h-.20313a8.71606,8.71606,0,0,1-8.71606-8.71606V80.70288A8.71582,8.71582,0,0,1,309.98047,71.98706Z"/><path class="cls-7" d="M7303.643,2661.38879h-.20215a8.74259,8.74259,0,0,1-8.71728-8.7168v-42.043a8.7418,8.7418,0,0,1,8.71728-8.71606h.20215a8.74119,8.74119,0,0,1,8.71582,8.71606v42.043a8.742,8.742,0,0,1-8.71582,8.7168" transform="translate(-7208.18648 -2531.86828)"/><path class="cls-8" d="M7303.643,2661.38879h-.20215a8.74259,8.74259,0,0,1-8.71728-8.7168v-42.043a8.7418,8.7418,0,0,1,8.71728-8.71606h.20215a8.74119,8.74119,0,0,1,8.71582,8.71606v42.043a8.742,8.742,0,0,1-8.71582,8.7168" transform="translate(-7208.18648 -2531.86828)"/><path class="cls-7" d="M7303.643,2661.38879h-.20215a8.74259,8.74259,0,0,1-8.71728-8.7168v-42.043a8.7418,8.7418,0,0,1,8.71728-8.71606h.20215a8.74119,8.74119,0,0,1,8.71582,8.71606v42.043a8.742,8.742,0,0,1-8.71582,8.7168" transform="translate(-7208.18648 -2531.86828)"/><path class="cls-8" d="M95.25293,70.04468h.20264a8.7168,8.7168,0,0,1,8.7168,8.7168v42.043a8.71606,8.71606,0,0,1-8.71606,8.71606h-.20313a8.71606,8.71606,0,0,1-8.71606-8.71606V78.7605A8.71582,8.71582,0,0,1,95.25293,70.04468Z"/></svg>