<svg id="Слой_22" data-name="Слой 22" xmlns="http://www.w3.org/2000/svg" viewBox="0 0 407.93311 407.93324"><defs><style>.cls-1{fill:none;}.cls-1,.cls-2{stroke:#f993aa;stroke-miterlimit:10;stroke-width:10px;}.cls-2,.cls-3{fill:#facd99;}.cls-4{fill:#f993aa;}</style></defs><circle class="cls-1" cx="203.96655" cy="203.96662" r="198.96658"/><path class="cls-2" d="M9601.15036,912.668h0a16.851,16.851,0,0,1,16.851,16.851v149.18068a16.851,16.851,0,0,1-16.851,16.851h0a16.851,16.851,0,0,1-16.851-16.851V929.51909a16.851,16.851,0,0,1,16.851-16.851Z" transform="translate(-6867.22902 -6340.11551) rotate(37.22362)"/><circle class="cls-2" cx="245.37442" cy="160.61948" r="87.56398"/><path class="cls-3" d="M9739.74149,878.67155a59.87558,59.87558,0,0,1-20.93652,65.87234" transform="translate(-9430.58332 -736.6724)"/><path class="cls-4" d="M9734.9201,880.00075c6.7378,21.77661-.53656,46.33129-18.63872,60.22579-5.03518,3.8648-.06024,12.555,5.04719,8.63471,21.741-16.68753,31.404-45.11453,23.23432-71.5189-1.8963-6.12885-11.55254-3.51393-9.64279,2.6584Z" transform="translate(-9430.58332 -736.6724)"/></svg>