<svg id="Слой_27" data-name="Слой 27" xmlns="http://www.w3.org/2000/svg" viewBox="0 0 407.93408 407.93384"><defs><style>.cls-1,.cls-3,.cls-6,.cls-8{fill:none;stroke-miterlimit:10;}.cls-1{stroke:#f993aa;}.cls-1,.cls-3{stroke-width:10px;}.cls-2{fill:#fccd9a;}.cls-3{stroke:#f18faa;}.cls-4{fill:#f18faa;}.cls-5{fill:#331013;}.cls-6{stroke:#331013;}.cls-7{fill:#7b7575;}.cls-8{stroke:#7b7575;}</style></defs><circle class="cls-1" cx="8311.45461" cy="2731.2851" r="198.96674" transform="translate(-7604.4297 4149.74256) rotate(-45)"/><path class="cls-2" d="M8439.475,2836.05237H8182.496a20.12018,20.12018,0,0,1-20.28809-19.82495V2647.71155a20.12049,20.12049,0,0,1,20.28809-19.82617h256.979a20.12038,20.12038,0,0,1,20.2876,19.82617v168.51587a20.12007,20.12007,0,0,1-20.2876,19.82495" transform="translate(-8107.48818 -2527.31824)"/><path class="cls-3" d="M8439.475,2836.05237H8182.496a20.12018,20.12018,0,0,1-20.28809-19.82495V2647.71155a20.12049,20.12049,0,0,1,20.28809-19.82617h256.979a20.12038,20.12038,0,0,1,20.2876,19.82617v168.51587A20.12007,20.12007,0,0,1,8439.475,2836.05237Z" transform="translate(-8107.48818 -2527.31824)"/><line class="cls-4" x1="55.04736" y1="152.99121" x2="352.60107" y2="152.99121"/><line class="cls-3" x1="55.04736" y1="152.99121" x2="352.60107" y2="152.99121"/><rect class="cls-5" x="193.74609" y="171.34082" width="24.13379" height="23.58398"/><rect class="cls-6" x="193.74609" y="171.34082" width="24.13379" height="23.58398"/><rect class="cls-5" x="193.74609" y="171.34082" width="24.13379" height="23.58398"/><rect class="cls-6" x="193.74609" y="171.34082" width="24.13379" height="23.58398"/><rect class="cls-5" x="246.43213" y="171.21167" width="24.13477" height="23.58398"/><rect class="cls-6" x="246.43213" y="171.21167" width="24.13477" height="23.58398"/><rect class="cls-5" x="246.43213" y="171.21167" width="24.13477" height="23.58398"/><rect class="cls-6" x="246.43213" y="171.21167" width="24.13477" height="23.58398"/><rect class="cls-5" x="299.12012" y="171.34082" width="24.13379" height="23.58398"/><rect class="cls-6" x="299.12012" y="171.34082" width="24.13379" height="23.58398"/><rect class="cls-5" x="299.12012" y="171.34082" width="24.13379" height="23.58398"/><rect class="cls-6" x="299.12012" y="171.34082" width="24.13379" height="23.58398"/><rect class="cls-5" x="84.39307" y="216.18188" width="24.13379" height="23.58496"/><rect class="cls-6" x="84.39307" y="216.18188" width="24.13379" height="23.58496"/><rect class="cls-5" x="84.39307" y="216.18188" width="24.13379" height="23.58496"/><rect class="cls-6" x="84.39307" y="216.18188" width="24.13379" height="23.58496"/><rect class="cls-5" x="139.4624" y="213.69678" width="24.13477" height="23.58398"/><rect class="cls-6" x="139.4624" y="213.69678" width="24.13477" height="23.58398"/><rect class="cls-5" x="139.4624" y="213.69678" width="24.13477" height="23.58398"/><rect class="cls-6" x="139.4624" y="213.69678" width="24.13477" height="23.58398"/><rect class="cls-5" x="194.5332" y="213.69678" width="24.13379" height="23.58398"/><rect class="cls-6" x="194.5332" y="213.69678" width="24.13379" height="23.58398"/><rect class="cls-5" x="194.5332" y="213.69678" width="24.13379" height="23.58398"/><rect class="cls-6" x="194.5332" y="213.69678" width="24.13379" height="23.58398"/><rect class="cls-5" x="246.43213" y="213.69678" width="24.13477" height="23.58398"/><rect class="cls-6" x="246.43213" y="213.69678" width="24.13477" height="23.58398"/><rect class="cls-5" x="246.43213" y="213.69678" width="24.13477" height="23.58398"/><rect class="cls-6" x="246.43213" y="213.69678" width="24.13477" height="23.58398"/><rect class="cls-5" x="299.12012" y="213.69678" width="24.13379" height="23.58398"/><rect class="cls-6" x="299.12012" y="213.69678" width="24.13379" height="23.58398"/><rect class="cls-5" x="299.12012" y="213.69678" width="24.13379" height="23.58398"/><rect class="cls-6" x="299.12012" y="213.69678" width="24.13379" height="23.58398"/><rect class="cls-5" x="84.39307" y="261.15369" width="24.13379" height="23.58398"/><rect class="cls-6" x="84.39307" y="261.15369" width="24.13379" height="23.58398"/><rect class="cls-5" x="84.39307" y="261.15369" width="24.13379" height="23.58398"/><rect class="cls-6" x="84.39307" y="261.15369" width="24.13379" height="23.58398"/><rect class="cls-5" x="139.4624" y="261.15369" width="24.13477" height="23.58398"/><rect class="cls-6" x="139.4624" y="261.15369" width="24.13477" height="23.58398"/><rect class="cls-5" x="139.4624" y="261.15369" width="24.13477" height="23.58398"/><rect class="cls-6" x="139.4624" y="261.15369" width="24.13477" height="23.58398"/><rect class="cls-5" x="194.5332" y="261.15369" width="24.13379" height="23.58398"/><rect class="cls-6" x="194.5332" y="261.15369" width="24.13379" height="23.58398"/><rect class="cls-5" x="194.5332" y="261.15369" width="24.13379" height="23.58398"/><rect class="cls-6" x="194.5332" y="261.15369" width="24.13379" height="23.58398"/><rect class="cls-5" x="246.82617" y="261.15369" width="24.13477" height="23.58398"/><rect class="cls-6" x="246.82617" y="261.15369" width="24.13477" height="23.58398"/><rect class="cls-5" x="246.82617" y="261.15369" width="24.13477" height="23.58398"/><rect class="cls-6" x="246.82617" y="261.15369" width="24.13477" height="23.58398"/><rect class="cls-5" x="299.12012" y="261.15369" width="24.13379" height="23.58398"/><rect class="cls-6" x="299.12012" y="261.15369" width="24.13379" height="23.58398"/><rect class="cls-5" x="299.12012" y="261.15369" width="24.13379" height="23.58398"/><rect class="cls-6" x="299.12012" y="261.15369" width="24.13379" height="23.58398"/><path class="cls-7" d="M8418.77675,2659.68933h-.20215a8.74258,8.74258,0,0,1-8.71728-8.71679v-42.043a8.74181,8.74181,0,0,1,8.71728-8.71607h.20215a8.74119,8.74119,0,0,1,8.71582,8.71607v42.043a8.742,8.742,0,0,1-8.71582,8.71679" transform="translate(-8107.48818 -2527.31824)"/><path class="cls-8" d="M8418.77675,2659.68933h-.20215a8.74258,8.74258,0,0,1-8.71728-8.71679v-42.043a8.74181,8.74181,0,0,1,8.71728-8.71607h.20215a8.74119,8.74119,0,0,1,8.71582,8.71607v42.043a8.742,8.742,0,0,1-8.71582,8.71679" transform="translate(-8107.48818 -2527.31824)"/><path class="cls-7" d="M8418.77675,2659.68933h-.20215a8.74258,8.74258,0,0,1-8.71728-8.71679v-42.043a8.74181,8.74181,0,0,1,8.71728-8.71607h.20215a8.74119,8.74119,0,0,1,8.71582,8.71607v42.043a8.742,8.742,0,0,1-8.71582,8.71679" transform="translate(-8107.48818 -2527.31824)"/><path class="cls-8" d="M311.085,72.89526h.20215a8.71729,8.71729,0,0,1,8.71729,8.71729v42.04126a8.71729,8.71729,0,0,1-8.71729,8.71729h-.2019a8.71606,8.71606,0,0,1-8.71606-8.71606V81.61108A8.71582,8.71582,0,0,1,311.085,72.89526Z"/><path class="cls-7" d="M8204.04921,2657.747h-.20215a8.74259,8.74259,0,0,1-8.71728-8.7168v-42.043a8.74181,8.74181,0,0,1,8.71728-8.71607h.20215a8.74118,8.74118,0,0,1,8.71582,8.71607v42.043a8.742,8.742,0,0,1-8.71582,8.7168" transform="translate(-8107.48818 -2527.31824)"/><path class="cls-8" d="M8204.04921,2657.747h-.20215a8.74259,8.74259,0,0,1-8.71728-8.7168v-42.043a8.74181,8.74181,0,0,1,8.71728-8.71607h.20215a8.74118,8.74118,0,0,1,8.71582,8.71607v42.043a8.742,8.742,0,0,1-8.71582,8.7168" transform="translate(-8107.48818 -2527.31824)"/><path class="cls-7" d="M8204.04921,2657.747h-.20215a8.74259,8.74259,0,0,1-8.71728-8.7168v-42.043a8.74181,8.74181,0,0,1,8.71728-8.71607h.20215a8.74118,8.74118,0,0,1,8.71582,8.71607v42.043a8.742,8.742,0,0,1-8.71582,8.7168" transform="translate(-8107.48818 -2527.31824)"/><path class="cls-8" d="M96.3584,70.95288h.20117a8.71729,8.71729,0,0,1,8.71729,8.71729v42.04248a8.71606,8.71606,0,0,1-8.71606,8.71606h-.20337a8.71582,8.71582,0,0,1-8.71582-8.71582V79.66968a8.7168,8.7168,0,0,1,8.7168-8.7168Z"/></svg>