<svg id="Слой_2" data-name="Слой 2" xmlns="http://www.w3.org/2000/svg" viewBox="0 0 407.93325 407.93325"><defs><style>.cls-1{fill:none;}.cls-1,.cls-2{stroke:#f993aa;stroke-miterlimit:10;stroke-width:10px;}.cls-2{fill:#facd99;}</style></defs><circle class="cls-1" cx="203.96662" cy="203.96662" r="198.96662"/><path class="cls-2" d="M961.3868,770.60718l16.05991,30.01958a2.04525,2.04525,0,0,0,1.543,1.03422l35.911,4.81386a1.85563,1.85563,0,0,1,1.13578,3.22473l-25.98547,23.367a1.80179,1.80179,0,0,0-.58939,1.6734l6.13434,32.99471a2.01979,2.01979,0,0,1-2.97352,1.993l-32.11981-15.578a2.20252,2.20252,0,0,0-1.9073,0l-32.11982,15.578a2.01978,2.01978,0,0,1-2.97351-1.993L929.63643,834.74a1.80181,1.80181,0,0,0-.58939-1.6734l-25.98548-23.367a1.85563,1.85563,0,0,1,1.13578-3.22473l35.911-4.81386a2.04528,2.04528,0,0,0,1.543-1.03422l16.05991-30.01958A2.12924,2.12924,0,0,1,961.3868,770.60718Z" transform="translate(-871.31685 -656.09415)"/><path class="cls-1" d="M1003.82285,898.86431l16.05991,30.01958a2.04525,2.04525,0,0,0,1.543,1.03422l35.911,4.81386a1.85563,1.85563,0,0,1,1.13578,3.22473l-25.98548,23.367a1.80182,1.80182,0,0,0-.58939,1.67341l6.13434,32.99471a2.01979,2.01979,0,0,1-2.97351,1.993l-32.11982-15.578a2.20245,2.20245,0,0,0-1.9073,0l-32.11982,15.578a2.01979,2.01979,0,0,1-2.97351-1.993l6.13434-32.99471a1.80182,1.80182,0,0,0-.58939-1.67341l-25.98548-23.367a1.85563,1.85563,0,0,1,1.13578-3.22473l35.91105-4.81386a2.04525,2.04525,0,0,0,1.543-1.03422l16.05991-30.01958A2.12924,2.12924,0,0,1,1003.82285,898.86431Z" transform="translate(-871.31685 -656.09415)"/><path class="cls-1" d="M1149.03707,898.86431l16.05991,30.01958a2.04525,2.04525,0,0,0,1.543,1.03422l35.911,4.81386a1.85563,1.85563,0,0,1,1.13578,3.22473l-25.98547,23.367a1.80179,1.80179,0,0,0-.58939,1.67341l6.13434,32.99471a2.01979,2.01979,0,0,1-2.97352,1.993l-32.11981-15.578a2.20245,2.20245,0,0,0-1.9073,0l-32.11982,15.578a2.01979,2.01979,0,0,1-2.97351-1.993l6.13433-32.99471a1.80181,1.80181,0,0,0-.58938-1.67341l-25.98548-23.367a1.85563,1.85563,0,0,1,1.13578-3.22473l35.911-4.81386a2.04528,2.04528,0,0,0,1.543-1.03422l16.0599-30.01958A2.12925,2.12925,0,0,1,1149.03707,898.86431Z" transform="translate(-871.31685 -656.09415)"/><path class="cls-2" d="M1192.85562,775.90668l16.05991,30.01958a2.04525,2.04525,0,0,0,1.543,1.03422l35.911,4.81386a1.85563,1.85563,0,0,1,1.13578,3.22473l-25.98547,23.367a1.80179,1.80179,0,0,0-.58939,1.6734l6.13434,32.99471a2.01978,2.01978,0,0,1-2.97351,1.993l-32.11982-15.578a2.20252,2.20252,0,0,0-1.9073,0l-32.11982,15.578a2.01978,2.01978,0,0,1-2.97351-1.993l6.13434-32.99471a1.80181,1.80181,0,0,0-.58939-1.6734l-25.98548-23.367a1.85563,1.85563,0,0,1,1.13578-3.22473l35.911-4.81386a2.04527,2.04527,0,0,0,1.543-1.03422l16.05991-30.01958A2.12924,2.12924,0,0,1,1192.85562,775.90668Z" transform="translate(-871.31685 -656.09415)"/><path class="cls-2" d="M1078.8457,681.284l17.75627,33.19048a2.26133,2.26133,0,0,0,1.706,1.14346l39.70424,5.32234a2.05163,2.05163,0,0,1,1.25575,3.56535l-28.73026,25.83518a1.99212,1.99212,0,0,0-.65164,1.85016l6.78229,36.47986a2.23313,2.23313,0,0,1-3.2876,2.20351l-35.51255-17.22346a2.43512,2.43512,0,0,0-2.10876,0l-35.51256,17.22346a2.23313,2.23313,0,0,1-3.28759-2.20351l6.78229-36.47986a1.99212,1.99212,0,0,0-.65164-1.85016l-28.73026-25.83518a2.05163,2.05163,0,0,1,1.25575-3.56535l39.70424-5.32234a2.26133,2.26133,0,0,0,1.706-1.14346L1074.782,681.284A2.35416,2.35416,0,0,1,1078.8457,681.284Z" transform="translate(-871.31685 -656.09415)"/></svg>