<svg id="Слой_33" data-name="Слой 33" xmlns="http://www.w3.org/2000/svg" viewBox="0 0 407.93555 407.93384"><defs><style>.cls-1,.cls-3{fill:none;stroke-miterlimit:10;stroke-width:10px;}.cls-1{stroke:#f993aa;}.cls-2{fill:#fbcc99;}.cls-3{stroke:#f08ea9;}</style></defs><circle class="cls-1" cx="11009.36129" cy="2740.38518" r="198.96716" transform="translate(-9518.57169 6051.01594) rotate(-45)"/><path class="cls-2" d="M10970.7524,2604.87609h-61.10351V2856.161h226.07031v-59.273c-25.88281-30.771-135.85937-158.77905-164.9668-192.012m-8.9375,197.04089V2683.92516l104.82227,117.99182Z" transform="translate(-10805.39401 -2536.41832)"/><path class="cls-3" d="M10970.7524,2604.87609h-61.10351V2856.161h226.07031v-59.273C11109.83639,2766.11706,10999.85983,2638.109,10970.7524,2604.87609Zm-8.9375,197.04089V2683.92516l104.82227,117.99182Z" transform="translate(-10805.39401 -2536.41832)"/><line class="cls-2" x1="174.1709" y1="90.08423" x2="154.89941" y2="105.40137"/><line class="cls-3" x1="174.1709" y1="90.08423" x2="154.89941" y2="105.40137"/><line class="cls-2" x1="194.16992" y1="106.53369" x2="181.58496" y2="116.53687"/><line class="cls-3" x1="194.16992" y1="106.53369" x2="181.58496" y2="116.53687"/><line class="cls-2" x1="207.54297" y1="125.53662" x2="188.27148" y2="140.85376"/><line class="cls-3" x1="207.54297" y1="125.53662" x2="188.27148" y2="140.85376"/><line class="cls-2" x1="223.58301" y1="141.64697" x2="210.99707" y2="151.65015"/><line class="cls-3" x1="223.58301" y1="141.64697" x2="210.99707" y2="151.65015"/><line class="cls-2" x1="238.02539" y1="163.32373" x2="218.75391" y2="178.64087"/><line class="cls-3" x1="238.02539" y1="163.32373" x2="218.75391" y2="178.64087"/><line class="cls-2" x1="256.13184" y1="181.99634" x2="243.54688" y2="191.99951"/><line class="cls-3" x1="256.13184" y1="181.99634" x2="243.54688" y2="191.99951"/><line class="cls-2" x1="274.37695" y1="201.26953" x2="255.10547" y2="216.58667"/><line class="cls-3" x1="274.37695" y1="201.26953" x2="255.10547" y2="216.58667"/><line class="cls-2" x1="290.85645" y1="216.48096" x2="278.27148" y2="226.48413"/><line class="cls-3" x1="290.85645" y1="216.48096" x2="278.27148" y2="226.48413"/><line class="cls-2" x1="304.65625" y1="235.34692" x2="285.38574" y2="250.66406"/><line class="cls-3" x1="304.65625" y1="235.34692" x2="285.38574" y2="250.66406"/></svg>