<svg id="Слой_6" data-name="Слой 6" xmlns="http://www.w3.org/2000/svg" viewBox="0 0 407.93311 407.93324"><defs><style>.cls-1{fill:none;}.cls-1,.cls-2{stroke:#f993aa;stroke-miterlimit:10;stroke-width:10px;}.cls-2{fill:#facd99;}.cls-3{fill:#e1e1e1;}.cls-4{fill:#f993aa;}</style></defs><circle class="cls-1" cx="203.96655" cy="203.96662" r="198.96658"/><rect class="cls-2" x="3172.5394" y="848.50852" width="66.25374" height="42.81737" rx="11.37257" transform="translate(-3212.19004 422.1055) rotate(-18.77289)"/><rect class="cls-2" x="3218.70251" y="804.11682" width="125.26684" height="79.03825" rx="12.75461" transform="translate(-3199.70677 445.05922) rotate(-18.77289)"/><rect class="cls-2" x="3295.91254" y="757.12439" width="146.57281" height="114.0823" rx="12.67141" transform="translate(-3185.5485 471.76731) rotate(-18.77289)"/><line class="cls-3" x1="130.09" y1="353.46013" x2="173.41967" y2="248.63029"/><path class="cls-4" d="M3237.68284,1010.60218l37.86145-91.60029,5.46822-13.22956c2.456-5.94185-7.21508-8.5319-9.64279-2.65839l-37.86146,91.60029-5.46821,13.22955c-2.456,5.94186,7.21507,8.53191,9.64279,2.6584Z" transform="translate(-3102.77144 -655.81285)"/><line class="cls-3" x1="239.80156" y1="353.69308" x2="191.67536" y2="241.26755"/><path class="cls-4" d="M3346.89035,1006.98234l-42.15718-98.48158-5.969-13.94395c-2.525-5.8985-11.142-.81-8.6347,5.04719l42.15717,98.48158,5.969,13.94395c2.525,5.89849,11.142.81,8.6347-5.04719Z" transform="translate(-3102.77144 -655.81285)"/><line class="cls-3" x1="183.85773" y1="248.86324" x2="183.85773" y2="353.46013"/><path class="cls-4" d="M3281.62917,904.67609V1009.273c0,6.43452,10,6.44518,10,0V904.67609c0-6.43452-10-6.44518-10,0Z" transform="translate(-3102.77144 -655.81285)"/><line class="cls-3" x1="146.07383" y1="330.93308" x2="220.14225" y2="330.93308"/><path class="cls-4" d="M3248.84528,991.74593h74.06842c6.43452,0,6.44518-10,0-10h-74.06842c-6.43453,0-6.44518,10,0,10Z" transform="translate(-3102.77144 -655.81285)"/><line class="cls-3" x1="173.3202" y1="248.37131" x2="191.67536" y2="241.32164"/><path class="cls-4" d="M3277.42084,909.00555l18.35517-7.04967c5.94634-2.28381,3.36427-11.95591-2.6584-9.64279l-18.35516,7.04967c-5.94634,2.28381-3.36428,11.95592,2.65839,9.64279Z" transform="translate(-3102.77144 -655.81285)"/></svg>