<svg id="Слой_19" data-name="Слой 19" xmlns="http://www.w3.org/2000/svg" viewBox="0 0 407.93311 407.93324"><defs><style>.cls-1{fill:#facd99;}.cls-2{fill:#f993aa;}.cls-3{fill:none;stroke:#f993aa;stroke-miterlimit:10;stroke-width:10px;}</style></defs><path class="cls-1" d="M11503.811,950.4425a84.38875,84.38875,0,1,0-168.7775,0c0,5.30478-.4966,14.54241,3.78843,25.0775,10.68965,26.2821,36.75861,28.03872,45.40928,51.641,2.24224,6.11794,4.20818,16.14234,0,30.991,0,12.714,70.38209,12.714,70.38209,0-4.20819-14.84873-2.24225-24.87313,0-30.991,8.65028-23.602,34.71848-25.35877,45.40852-51.641C11504.30722,964.98451,11503.811,955.74641,11503.811,950.4425Z" transform="translate(-11213.59946 -746.82551)"/><path class="cls-2" d="M11508.811,950.4425c-.38807-47.4233-38.26916-87.3641-85.87584-89.31415-47.71661-1.95454-89.16671,35.571-92.6674,83.0169-.88371,11.97716-.13144,24.19706,4.824,35.28311,4.60057,10.29217,12.50656,17.95652,21.3216,24.70338,8.09936,6.1991,16.9566,11.99564,21.6787,21.37669a34.28517,34.28517,0,0,1,3.48025,12.615,47.79578,47.79578,0,0,1-.08829,8.24442c-.37165,3.91913-2.15781,7.90826-2.25281,11.78416-.313,12.77057,23.22835,13.7583,31.47474,14.27064a134.24918,134.24918,0,0,0,24.7853-.68017c6.23836-.773,13.15982-1.73352,18.618-5.10214,8.69807-5.36818,3.66994-13.44512,3.13544-21.76294-.66-10.2711,2.21838-20.06579,9.33411-27.66635,6.9477-7.42108,15.95236-12.484,23.45093-19.2884a55.53107,55.53107,0,0,0,17.70047-31.07885,89.71677,89.71677,0,0,0,1.08078-16.40134c-.0258-6.4333-10.02585-6.44619-10,0,.04692,11.69777-1.49006,22.705-8.53388,32.4514-5.559,7.69194-13.56812,13.00159-20.98672,18.71107-7.33987,5.64889-14.1018,12.01655-18.00248,20.58517-4.112,9.03281-4.86764,18.88051-3.37554,28.63052a27.10925,27.10925,0,0,0,1.808,6.69545c.3592.71722.08467-.71837-.052.11363.13989-.8516.36157-.09837-.28912.19144a42.54327,42.54327,0,0,1-4.97741,2.10193,79.66386,79.66386,0,0,1-19.13857,2.64674,126.314,126.314,0,0,1-22.11424-.85575,59.70158,59.70158,0,0,1-8.70641-1.791,41.99925,41.99925,0,0,1-4.9774-2.10193c-1.09779-.48713-.11349-.67184-.25274.03174.26819-1.35505,1.3759-4.78364,1.71962-7.03223a55.47871,55.47871,0,0,0,.21542-16.40972,44.60145,44.60145,0,0,0-11.01868-23.4053c-6.35034-7.12818-14.67482-12.03613-21.92732-18.13417-8.5742-7.20936-14.779-16.00435-17.13534-27.10312-4.28336-20.17544,1.239-42.95378,12.60514-59.84871A79.38675,79.38675,0,0,1,11498.811,950.4425C11498.86364,956.87433,11508.86376,956.88953,11508.811,950.4425Z" transform="translate(-11213.59946 -746.82551)"/><path class="cls-1" d="M11450.221,1093.21843a90.46388,90.46388,0,0,1-63.3335-1.1875l-3.67236-15.05566a126.04144,126.04144,0,0,0,71.35986.014Q11452.39746,1085.1039,11450.221,1093.21843Z" transform="translate(-11213.59946 -746.82551)"/><path class="cls-2" d="M11448.89175,1088.397a87.603,87.603,0,0,1-60.6751-1.1875l3.49219,3.49219-3.67236-15.05566-6.15059,6.15059a133.06967,133.06967,0,0,0,74.01826.014l-6.1506-6.15059q-2.17737,8.11446-4.354,16.22912c-1.66928,6.22277,7.97445,8.87766,9.64279,2.6584q2.17678-8.11463,4.354-16.22913a5.04657,5.04657,0,0,0-6.15059-6.15059,123.042,123.042,0,0,1-68.70147-.014,5.05013,5.05013,0,0,0-6.15059,6.15059c1.14227,4.683,2.05811,9.49853,3.44284,14.11469,1.07616,3.5875,3.36977,4.36629,6.66992,5.5381a93.71433,93.71433,0,0,0,18.914,4.50666,96.04753,96.04753,0,0,0,44.12966-4.42408C11457.59585,1095.95025,11454.99733,1086.28677,11448.89175,1088.397Z" transform="translate(-11213.59946 -746.82551)"/><path class="cls-1" d="M11437.95012,896.137a35.501,35.501,0,0,1,24.93723,10.29166c10.631,10.77517,10.02652,24.38857,9.89594,26.52079" transform="translate(-11213.59946 -746.82551)"/><path class="cls-2" d="M11437.95012,901.137a30.08478,30.08478,0,0,1,29.83317,31.81245c-.35832,6.43,9.64281,6.40977,10,0,1.25429-22.5079-17.40327-41.83944-39.83317-41.81245-6.43418.00774-6.44551,10.00775,0,10Z" transform="translate(-11213.59946 -746.82551)"/><line class="cls-1" x1="283.84726" y1="114.40052" x2="309.20897" y2="89.03882"/><path class="cls-2" d="M11500.98225,864.76157l25.3617-25.36171c4.5564-4.55639-2.51271-11.62942-7.07106-7.07106l-25.36171,25.3617c-4.5564,4.5564,2.51272,11.62942,7.07107,7.07107Z" transform="translate(-11213.59946 -746.82551)"/><line class="cls-1" x1="94.03633" y1="304.89231" x2="119.39803" y2="279.53061"/><path class="cls-2" d="M11311.17131,1055.25336l25.36171-25.36171c4.5564-4.5564-2.51272-11.62942-7.07107-7.07106l-25.3617,25.3617c-4.5564,4.5564,2.51271,11.62942,7.07106,7.07107Z" transform="translate(-11213.59946 -746.82551)"/><line class="cls-1" x1="309.20897" y1="309.20903" x2="283.84726" y2="283.84733"/><path class="cls-2" d="M11526.344,1052.499l-25.3617-25.3617c-4.5564-4.5564-11.62942,2.51271-7.07107,7.07107l25.36171,25.3617c4.5564,4.5564,11.62942-2.51272,7.07106-7.07107Z" transform="translate(-11213.59946 -746.82551)"/><line class="cls-1" x1="94.03633" y1="94.03639" x2="119.39803" y2="119.39809"/><path class="cls-2" d="M11304.10025,844.39744l25.3617,25.3617c4.5564,4.5564,11.62942-2.51271,7.07107-7.07107l-25.36171-25.3617c-4.5564-4.5564-11.62942,2.51271-7.07106,7.07107Z" transform="translate(-11213.59946 -746.82551)"/><line class="cls-1" x1="320.80745" y1="205.29414" x2="356.67431" y2="205.29414"/><path class="cls-2" d="M11534.4069,957.11965h35.86687c6.43452,0,6.44518-10,0-10h-35.86687c-6.43452,0-6.44518,10,0,10Z" transform="translate(-11213.59946 -746.82551)"/><line class="cls-1" x1="58.33936" y1="205.29414" x2="94.20623" y2="205.29414"/><path class="cls-2" d="M11271.93882,957.11965h35.86686c6.43452,0,6.44518-10,0-10h-35.86686c-6.43452,0-6.44518,10,0,10Z" transform="translate(-11213.59946 -746.82551)"/><line class="cls-1" x1="201.80471" y1="85.69566" x2="201.80471" y2="49.82879"/><path class="cls-2" d="M11420.40417,832.52117V796.6543c0-6.43452-10-6.44518-10,0v35.86687c0,6.43452,10,6.44518,10,0Z" transform="translate(-11213.59946 -746.82551)"/><circle class="cls-3" cx="203.96655" cy="203.96662" r="198.96658"/></svg>