<svg id="Слой_11" data-name="Слой 11" xmlns="http://www.w3.org/2000/svg" viewBox="0 0 407.93311 407.93324"><defs><style>.cls-1{fill:#facd99;}.cls-2{fill:#f993aa;}.cls-3{fill:none;stroke:#f993aa;stroke-miterlimit:10;stroke-width:10px;}</style></defs><path class="cls-1" d="M5048.27134,982.64178q44.21553-109.63581,88.43158-219.27162c2.87978-7.83156-1.30387-15.91637-7.44331-17.92616-6.65636-2.179-15.54007,2.806-16.92915,11.83341q-44.21553,109.63581-88.43157,219.27164c-1.55848,6.572,1.7058,13.05392,6.98541,15.29092C5037.283,994.55109,5045.89975,990.71292,5048.27134,982.64178Z" transform="translate(-4877.66581 -660.05808)"/><path class="cls-2" d="M5053.09274,983.971q23.7798-58.96384,47.55985-117.92759,11.89-29.4819,23.78-58.9638,5.945-14.74093,11.88994-29.4819c3.26809-8.10346,8.23076-16.50489,5.35331-25.45113-4.65317-14.46713-23.05078-15.82932-31.18616-3.62291-2.087,3.1314-2.71261,6.76016-4.09524,10.1885q-3.15825,7.83113-6.31652,15.66226-5.945,14.74095-11.88994,29.4819Q5064.408,862.82012,5040.628,921.78391q-6.68811,16.58357-13.37619,33.16713-3.34405,8.29179-6.68808,16.58357c-1.82027,4.5135-2.69063,8.84179-1.30393,13.65034a16.92436,16.92436,0,0,0,16.7074,12.48274c8.24333-.31958,14.52743-6.18611,17.12554-13.69672,2.10827-6.0946-7.54829-8.71317-9.64279-2.65839-1.74792,5.05287-8.48123,9.00512-12.8074,4.29561-2.5879-2.81722-2.36543-6.251-1.17915-9.57256,1.66521-4.6625,3.72157-9.22792,5.5734-13.81964q10.03212-24.87537,20.06429-49.75071,20.25012-50.21137,40.50026-100.42273,10.21794-25.336,20.43583-50.672c1.93029-4.78631,3.741-12.56734,10.82514-11.39011,8.8565,1.47177,4.8028,12.59712,2.78985,17.58838q-20.25,50.21141-40.50019,100.42272-22.85107,56.66051-45.702,113.32105C5041.04361,987.27929,5050.71233,989.87339,5053.09274,983.971Z" transform="translate(-4877.66581 -660.05808)"/><path class="cls-1" d="M5152.93869,813.79192q44.67058,26.56738,89.34068,53.13478-44.6706,23.18706-89.34068,46.37409c-5.62868,4.08952-13.4575,2.18984-16.48615-3.28464-2.99786-5.41812-.539-12.97362,5.80526-15.64448q27.67522-14.3655,55.351-28.731-27.67522-16.45979-55.351-32.91961a10.86764,10.86764,0,1,1,10.68089-18.92912Z" transform="translate(-4877.66581 -660.05808)"/><path class="cls-2" d="M5150.41509,818.10927q44.6704,26.56728,89.34068,53.13479v-8.63471c-29.44331,15.28307-59.49279,29.76514-88.46479,45.91944-2.58612,1.442-4.96433,2.79255-7.94541,1.36346a5.5083,5.5083,0,0,1-3.13018-5.74661c.356-2.75077,2.32513-4.20189,4.566-5.45662,3.67667-2.05865,7.50357-3.8949,11.24311-5.836q22.05393-11.44753,44.10786-22.895c3.39991-1.76481,3.097-6.7928,0-8.6347q-19.70827-11.72145-39.41665-23.44275l-9.22516-5.4866c-2.79065-1.65973-6.80991-3.11166-8.73927-5.79946-3.66232-5.102,2.32081-11.085,7.6638-8.48522,5.7634,2.80432,10.83918-5.81647,5.04719-8.63471-7.20221-3.50441-15.66187-2.29956-20.65831,4.32737a15.99572,15.99572,0,0,0,2.26572,21.28889c3.65945,3.26827,8.53077,5.43652,12.72828,7.933q7.54787,4.48906,15.09576,8.97808,15.09573,8.97805,30.19144,17.95614v-8.6347c-17.87295,9.27738-35.7021,18.64543-53.62126,27.83317-6.49957,3.33254-11.39963,8.41077-11.27535,16.20237A15.522,15.522,0,0,0,5141.201,919.7287c8.0339,2.4542,14.42836-2.19725,21.26847-5.74774q13.57629-7.047,27.15256-14.09409,27.59049-14.32142,55.181-28.64281c3.39992-1.76479,3.097-6.79282,0-8.63471q-44.6704-26.56728-89.34068-53.13479C5149.91807,806.1772,5144.88266,814.81891,5150.41509,818.10927Z" transform="translate(-4877.66581 -660.05808)"/><path class="cls-1" d="M5010.326,813.79192q-44.6706,26.56738-89.34068,53.13478,44.6706,23.18706,89.34068,46.37409c5.62868,4.08952,13.45749,2.18984,16.48615-3.28464,2.99785-5.41812.539-12.97362-5.80526-15.64448q-27.67524-14.3655-55.351-28.731,27.67522-16.45979,55.351-32.91961a10.86764,10.86764,0,1,0-10.68089-18.92912Z" transform="translate(-4877.66581 -660.05808)"/><path class="cls-2" d="M5007.80245,809.47456q-44.6704,26.5673-89.34069,53.13479c-3.097,1.84189-3.39991,6.86992,0,8.63471q27.15258,14.094,54.3051,28.18817,14.01422,7.27437,28.02844,14.54873c6.84012,3.55049,13.23458,8.20194,21.26847,5.74774a15.522,15.522,0,0,0,11.0124-14.36986c.11523-7.22409-4.2434-12.60972-10.4105-15.75344-18.2292-9.29247-36.3258-18.85556-54.48612-28.2821v8.6347q14.67638-8.72872,29.3528-17.45735l15.09576-8.97808c4.44615-2.64432,9.68968-4.96893,13.56693-8.43175a16.074,16.074,0,0,0,2.65663-20.78293c-4.75644-7.08837-13.75062-8.38464-21.04922-4.83333-5.78573,2.81519-.72181,11.44176,5.04719,8.63471,5.34408-2.6003,11.27107,3.34,7.6638,8.48522-1.68631,2.40523-5.42535,3.82851-7.90063,5.30067q-5.0319,2.99271-10.0638,5.98539-19.70834,11.72137-39.41665,23.44275c-3.097,1.8419-3.39991,6.86989,0,8.6347q21.62147,11.22314,43.243,22.44612c3.74724,1.94508,7.48165,3.91854,11.24312,5.836,2.58861,1.31956,5.0216,2.74326,5.43086,5.90554a5.53239,5.53239,0,0,1-3.13018,5.74661c-2.92954,1.40424-5.37328.07072-7.94542-1.36346-28.972-16.1543-59.02148-30.63637-88.46478-45.91944v8.63471q44.6704-26.5673,89.34068-53.13479C5018.37609,814.82247,5013.35215,806.17393,5007.80245,809.47456Z" transform="translate(-4877.66581 -660.05808)"/><circle class="cls-3" cx="203.96655" cy="203.96662" r="198.96658"/></svg>