<svg id="Слой_20" data-name="Слой 20" xmlns="http://www.w3.org/2000/svg" viewBox="0 0 407.93311 407.93324"><defs><style>.cls-1{fill:#facd99;}.cls-1,.cls-2{stroke:#f993aa;stroke-miterlimit:10;stroke-width:10px;}.cls-2{fill:none;}</style></defs><path class="cls-1" d="M8683.47986,1064.29379c-.05737-3.93542.04639-5.26971.04639-5.2698a28.82281,28.82281,0,0,0-.04639-4.46246,35.98015,35.98015,0,0,0-4.41455-13.846,33.9438,33.9438,0,0,0-7.12378-8.52829c-1.53271-1.36432-5.34253-4.5336-13.54492-7.92627-5.04345-2.08615-6.40478-2.04669-15.15039-4.61536-9.522-2.79669-15.896-4.70215-23.37744-8.52835-5.17163-2.64493-8.56421-4.42136-12.04-8.22729a24.73606,24.73606,0,0,1-5.61865-26.78888,27.83551,27.83551,0,0,1,6.2207-10.73566,28.32042,28.32042,0,0,1,10.33423-6.82266,29.12215,29.12215,0,0,1,13.74561-1.70566c3.97534.482,4.949,1.47238,11.93969,3.81268,3.29126,1.10184,2.60694.72541,13.846,3.81266,6.6499,1.82662,13.56982,2.84094,19.96631,5.418a36.7288,36.7288,0,0,0,10.13354,2.107,8.18465,8.18465,0,0,0,5.21729-.903,6.7875,6.7875,0,0,0,3.01-4.31436c.36157-2.37347-1.09082-4.232-2.5083-6.321-2.269-3.3439-3.80493-7.132-5.81934-10.63529-3.5437-6.16293-3.88476-12.36956-4.21386-18.36093a58.25488,58.25488,0,0,1,4.21386-24.48129,51.34577,51.34577,0,0,1,24.18042-27.3909,57.68063,57.68063,0,0,1,17.85913-6.321,54.89947,54.89947,0,0,1,17.35767-.301,53.71609,53.71609,0,0,1,17.25732,5.91965,60.24612,60.24612,0,0,1,31.304,45.04953c.7251,6.68457,1.5498,14.28659-2.30786,21.672-6.25806,11.98162-8.62842,15.04983-8.62867,15.05a8.737,8.737,0,0,0-1.8059,4.11365,6.97006,6.97006,0,0,0,1.2041,5.31766c1.7268,2.1337,4.51367,2.25516,5.719,2.30768,2.26807.09884,3.53223-.59473,7.0232-1.806,2.43945-.84635,4.95971-1.43915,7.4248-2.20734,6.00391-1.87112,7.00391-1.7814,16.85571-4.41467,8.53809-2.28208,14.749-4.11362,14.749-4.11368,6.97119-2.05579,8.41162-2.64481,11.63867-2.90964a29.30729,29.30729,0,0,1,12.24072,1.30432A29.66939,29.66939,0,0,1,8879.33,986.43543a27.03127,27.03127,0,0,1-4.61523,13.64526,31.09465,31.09465,0,0,1-10.6355,9.933c-4.37231,2.62754-6.56885,2.70444-16.655,5.51831-9.72437,2.71286-7.25513,2.522-21.47144,6.72236-12.03173,3.55487-13.28369,3.53881-17.157,5.61859-3.49951,1.87912-8.916,4.86712-13.14355,11.03671a34.8098,34.8098,0,0,0-5.0166,11.93957c-1.83155,7.281-.51075,10.492-1.20411,13.6453-2.56445,11.66046-30.56543,16.491-50.42944,16.76623C8703.86487,1081.74756,8683.53577,1068.12833,8683.47986,1064.29379Z" transform="translate(-8535.94502 -736.6724)"/><circle class="cls-2" cx="203.96655" cy="203.96662" r="198.96658"/><path class="cls-1" d="M8691.74026,856.62683q1.06444,19.33348,2.12855,38.667c3.94672,3.339,22.48836,18.296,49.66393,16.67292a71.19,71.19,0,0,0,43.27862-18.44663q-.17757-19.15614-.35481-38.31225Z" transform="translate(-8535.94502 -736.6724)"/><path class="cls-1" d="M8803.7262,854.3754l-63.15834,30.86523a5.38484,5.38484,0,0,1-4.80548-.03831l-60.88047-30.964a5.38484,5.38484,0,0,1,.0047-9.60183l62.09372-31.50462a5.38486,5.38486,0,0,1,4.88364.00546l61.94508,31.60337A5.38485,5.38485,0,0,1,8803.7262,854.3754Z" transform="translate(-8535.94502 -736.6724)"/><path class="cls-1" d="M8617.65281,861.55864l10.76348,20.11936a1.37072,1.37072,0,0,0,1.03416.69314l24.06786,3.22629a1.24366,1.24366,0,0,1,.76121,2.16124l-17.41567,15.66074a1.20757,1.20757,0,0,0-.395,1.12152l4.11128,22.11332a1.35368,1.35368,0,0,1-1.99287,1.33572l-21.527-10.44049a1.47607,1.47607,0,0,0-1.27829,0L8594.25505,927.99a1.35368,1.35368,0,0,1-1.99287-1.33572l4.11128-22.11332a1.20757,1.20757,0,0,0-.395-1.12152l-17.41567-15.66074a1.24365,1.24365,0,0,1,.7612-2.16124l24.06787-3.22629a1.37076,1.37076,0,0,0,1.03416-.69314l10.76348-20.11936A1.427,1.427,0,0,1,8617.65281,861.55864Z" transform="translate(-8535.94502 -736.6724)"/></svg>