<svg id="Слой_32" data-name="Слой 32" xmlns="http://www.w3.org/2000/svg" viewBox="0 0 407.93555 407.93384"><defs><style>.cls-1,.cls-3{fill:none;stroke-miterlimit:10;stroke-width:10px;}.cls-1{stroke:#f993aa;}.cls-2{fill:#fccd9a;}.cls-3{stroke:#f18faa;}</style></defs><circle class="cls-1" cx="10559.7102" cy="2742.6602" r="198.96716" transform="translate(-9202.22903 5731.45592) rotate(-45)"/><path class="cls-2" d="M10443.70483,2760.749c0,57.85706,48.209,104.68,107.77539,104.68" transform="translate(-10355.74291 -2538.69335)"/><path class="cls-3" d="M10443.70483,2760.749c0,57.85706,48.209,104.68,107.77539,104.68" transform="translate(-10355.74291 -2538.69335)"/><path class="cls-2" d="M10551.48119,2865.42931c0-57.85694-48.21-104.67981-107.77636-104.67981" transform="translate(-10355.74291 -2538.69335)"/><path class="cls-3" d="M10551.48119,2865.42931c0-57.85694-48.21-104.67981-107.77636-104.67981" transform="translate(-10355.74291 -2538.69335)"/><path class="cls-2" d="M10661.26147,2760.749c0,57.85706-48.21094,104.68-107.77735,104.68" transform="translate(-10355.74291 -2538.69335)"/><path class="cls-3" d="M10661.26147,2760.749c0,57.85706-48.21094,104.68-107.77735,104.68" transform="translate(-10355.74291 -2538.69335)"/><path class="cls-2" d="M10553.48412,2865.42931c0-57.85694,48.21-104.67981,107.77637-104.67981" transform="translate(-10355.74291 -2538.69335)"/><path class="cls-3" d="M10553.48412,2865.42931c0-57.85694,48.21-104.67981,107.77637-104.67981" transform="translate(-10355.74291 -2538.69335)"/><path class="cls-2" d="M10641.405,2672.0786c0,49.01514-39.0625,88.67017-87.35449,88.67017" transform="translate(-10355.74291 -2538.69335)"/><path class="cls-3" d="M10641.405,2672.0786c0,49.01514-39.0625,88.67017-87.35449,88.67017" transform="translate(-10355.74291 -2538.69335)"/><path class="cls-2" d="M10554.05151,2760.749c0-49.01489,39.06152-88.66992,87.35351-88.66992" transform="translate(-10355.74291 -2538.69335)"/><path class="cls-3" d="M10554.05151,2760.749c0-49.01489,39.06152-88.66992,87.35351-88.66992" transform="translate(-10355.74291 -2538.69335)"/><path class="cls-2" d="M10464.1267,2672.0786c0,49.01514,39.0625,88.67017,87.35352,88.67017" transform="translate(-10355.74291 -2538.69335)"/><path class="cls-3" d="M10464.1267,2672.0786c0,49.01514,39.0625,88.67017,87.35352,88.67017" transform="translate(-10355.74291 -2538.69335)"/><path class="cls-2" d="M10551.48119,2760.749c0-49.01489-39.06347-88.66992-87.35449-88.66992" transform="translate(-10355.74291 -2538.69335)"/><path class="cls-3" d="M10551.48119,2760.749c0-49.01489-39.06347-88.66992-87.35449-88.66992" transform="translate(-10355.74291 -2538.69335)"/><path class="cls-2" d="M10557.32592,2580.57567c28.58789,30.78809,26.86035,74.02808-3.84277,96.675" transform="translate(-10355.74291 -2538.69335)"/><path class="cls-3" d="M10557.32592,2580.57567c28.58789,30.78809,26.86035,74.02808-3.84277,96.675" transform="translate(-10355.74291 -2538.69335)"/><path class="cls-2" d="M10553.48412,2677.251c-28.58886-30.78784-26.86035-74.02685,3.8418-96.6748" transform="translate(-10355.74291 -2538.69335)"/><path class="cls-3" d="M10553.48412,2677.251c-28.58886-30.78784-26.86035-74.02685,3.8418-96.6748" transform="translate(-10355.74291 -2538.69335)"/><line class="cls-2" x1="197.74121" y1="138.55762" x2="197.74121" y2="360.38171"/><line class="cls-3" x1="197.74121" y1="138.55762" x2="197.74121" y2="360.38171"/></svg>