<?xml version="1.0" encoding="UTF-8"?>
<svg id="_Слой_1" data-name="Слой 1" xmlns="http://www.w3.org/2000/svg" viewBox="0 0 227.23907 227.23855">
  <defs>
    <style>
      .cls-1 {
        fill: #f9cc98;
        stroke-miterlimit: 10;
      }

      .cls-1, .cls-2 {
        stroke: #f892a9;
      }

      .cls-2 {
        fill: none;
        stroke-miterlimit: 5.57;
        stroke-width: 5.57px;
      }
    </style>
  </defs>
  <path class="cls-2" d="M35.24813,35.24722c43.28271-43.28296,113.45996-43.28296,156.74268,0,43.28418,43.28406,43.28418,113.46008.00098,156.74402-43.28369,43.28308-113.45996,43.28308-156.74365,0-43.28418-43.28394-43.28418-113.46094,0-156.74402Z"/>
  <path class="cls-1" d="M113.98837,74.17227c11.97656,0,21.68555,9.677,21.68555,21.61304,0,11.93701-9.70898,21.61401-21.68555,21.61401s-21.68604-9.677-21.68604-21.61401c0-11.93604,9.70898-21.61304,21.68604-21.61304"/>
  <path class="cls-2" d="M113.98837,74.17227c11.97656,0,21.68555,9.677,21.68555,21.61304,0,11.93701-9.70898,21.61401-21.68555,21.61401s-21.68604-9.677-21.68604-21.61401c0-11.93604,9.70898-21.61304,21.68604-21.61304Z"/>
  <path class="cls-1" d="M163.3536,50.53128c11.97559,0,21.68555,9.677,21.68555,21.61304,0,11.93701-9.70996,21.61401-21.68555,21.61401-11.97705,0-21.68604-9.677-21.68604-21.61401,0-11.93604,9.70898-21.61304,21.68604-21.61304"/>
  <path class="cls-2" d="M163.3536,50.53128c11.97559,0,21.68555,9.677,21.68555,21.61304,0,11.93701-9.70996,21.61401-21.68555,21.61401-11.97705,0-21.68604-9.677-21.68604-21.61401,0-11.93604,9.70898-21.61304,21.68604-21.61304Z"/>
  <path class="cls-1" d="M65.11825,48.86013c11.97656,0,21.68555,9.677,21.68555,21.61304,0,11.93701-9.70898,21.61401-21.68555,21.61401s-21.68604-9.677-21.68604-21.61401c0-11.93604,9.70898-21.61304,21.68604-21.61304"/>
  <path class="cls-2" d="M65.11825,48.86013c11.97656,0,21.68555,9.677,21.68555,21.61304,0,11.93701-9.70898,21.61401-21.68555,21.61401s-21.68604-9.677-21.68604-21.61401c0-11.93604,9.70898-21.61304,21.68604-21.61304Z"/>
  <path class="cls-1" d="M127.95858,150.92776c0-14.17688,1.60986-44.73596,11.80371-49.83899,10.19385-5.10193,41.42188-4.22791,49.13721.58508,8.45068,5.27002,9.84277,35.18298,9.84277,49.25391l-13.89795-.27893s-.28418-27.974-2.67383-27.99097c-2.38428-.01709-.15039,45.37097-.15039,45.37097h-38.78662s3.54297-44.90906,1.50391-45.08105c-3.50928-.28992-1.8501,26.76001-3.80518,27.39502-1.94971.63501-12.97363.58496-12.97363.58496"/>
  <path class="cls-2" d="M127.95858,150.92776c0-14.17688,1.60986-44.73596,11.80371-49.83899,10.19385-5.10193,41.42188-4.22791,49.13721.58508,8.45068,5.27002,9.84277,35.18298,9.84277,49.25391l-13.89795-.27893s-.28418-27.974-2.67383-27.99097c-2.38428-.01709-.15039,45.37097-.15039,45.37097h-38.78662s3.54297-44.90906,1.50391-45.08105c-3.50928-.28992-1.8501,26.76001-3.80518,27.39502-1.94971.63501-12.97363.58496-12.97363.58496Z"/>
  <path class="cls-1" d="M28.05233,149.81363c0-14.17688,1.60986-44.73596,11.80371-49.83899,10.19385-5.10193,41.42285-4.22791,49.13721.58508,8.45068,5.27002,9.84277,35.18298,9.84277,49.25391l-13.89795-.27795s-.28418-27.97498-2.67383-27.99194c-2.38428-.01709-.15039,45.37097-.15039,45.37097h-38.78662s3.54297-44.90906,1.50391-45.08105c-3.50928-.28992-2.69629,27.27808-3.8042,27.39502-2.04004.21204-12.97461.58496-12.97461.58496"/>
  <path class="cls-2" d="M28.05233,149.81363c0-14.17688,1.60986-44.73596,11.80371-49.83899,10.19385-5.10193,41.42285-4.22791,49.13721.58508,8.45068,5.27002,9.84277,35.18298,9.84277,49.25391l-13.89795-.27795s-.28418-27.97498-2.67383-27.99194c-2.38428-.01709-.15039,45.37097-.15039,45.37097h-38.78662s3.54297-44.90906,1.50391-45.08105c-3.50928-.28992-2.69629,27.27808-3.8042,27.39502-2.04004.21204-12.97461.58496-12.97461.58496Z"/>
  <path class="cls-1" d="M78.03671,174.35159c0-14.17688,1.60889-44.73596,11.80371-49.83899,10.19385-5.09692,41.42188-4.22791,49.13721.58508,8.44971,5.27002,9.84277,35.18298,9.84277,49.25391l-13.89795-.27893s-.28418-27.974-2.67383-27.99097c-2.39014-.01709-.15039,45.37097-.15039,45.37097h-38.7876s3.54297-44.90906,1.50488-45.08105c-3.50928-.28992-2.51221,27.69604-3.80518,27.39502l-12.97363.58496Z"/>
  <path class="cls-2" d="M78.03671,174.35159c0-14.17688,1.60889-44.73596,11.80371-49.83899,10.19385-5.09692,41.42188-4.22791,49.13721.58508,8.44971,5.27002,9.84277,35.18298,9.84277,49.25391l-13.89795-.27893s-.28418-27.974-2.67383-27.99097c-2.39014-.01709-.15039,45.37097-.15039,45.37097h-38.7876s3.54297-44.90906,1.50488-45.08105c-3.50928-.28992-2.51221,27.69604-3.80518,27.39502l-12.97363.58496Z"/>
</svg>