<svg id="Слой_20" data-name="Слой 20" xmlns="http://www.w3.org/2000/svg" viewBox="0 0 407.93311 407.93324"><defs><style>.cls-1{fill:#facd99;}.cls-1,.cls-2{stroke:#f993aa;stroke-miterlimit:10;stroke-width:10px;}.cls-2{fill:none;}</style></defs><path class="cls-1" d="M8243.87875,1064.29379c-.05737-3.93542.04639-5.26971.04639-5.2698a28.82414,28.82414,0,0,0-.04639-4.46246,35.98033,35.98033,0,0,0-4.41455-13.846,33.94423,33.94423,0,0,0-7.12378-8.52829c-1.53272-1.36432-5.34253-4.5336-13.54492-7.92627-5.04346-2.08615-6.40479-2.04669-15.15039-4.61536-9.522-2.79669-15.896-4.70215-23.37745-8.52835-5.17163-2.64493-8.5642-4.42136-12.04-8.22729a24.73609,24.73609,0,0,1-5.61866-26.78888,27.83557,27.83557,0,0,1,6.22071-10.73566,28.32032,28.32032,0,0,1,10.33423-6.82266,29.1221,29.1221,0,0,1,13.7456-1.70566c3.97534.482,4.949,1.47238,11.9397,3.81268,3.29126,1.10184,2.60693.72541,13.84595,3.81266,6.6499,1.82662,13.56982,2.84094,19.9663,5.418a36.72894,36.72894,0,0,0,10.13355,2.107,8.18462,8.18462,0,0,0,5.21728-.903,6.78746,6.78746,0,0,0,3.01-4.31436c.36158-2.37347-1.09082-4.232-2.5083-6.321-2.269-3.3439-3.80493-7.132-5.81933-10.63529-3.5437-6.16293-3.88477-12.36956-4.21387-18.36093a58.25478,58.25478,0,0,1,4.21387-24.48129,51.34577,51.34577,0,0,1,24.18042-27.3909,57.68046,57.68046,0,0,1,17.85913-6.321,54.89941,54.89941,0,0,1,17.35766-.301,53.71616,53.71616,0,0,1,17.25733,5.91965,60.24614,60.24614,0,0,1,31.30395,45.04953c.7251,6.68457,1.54981,14.28659-2.30786,21.672-6.25805,11.98162-8.62842,15.04983-8.62866,15.05a8.737,8.737,0,0,0-1.80591,4.11365,6.97006,6.97006,0,0,0,1.2041,5.31766c1.72681,2.1337,4.51367,2.25516,5.719,2.30768,2.26806.09884,3.53222-.59473,7.02319-1.806,2.43945-.84635,4.95972-1.43915,7.42481-2.20734,6.0039-1.87112,7.0039-1.7814,16.85571-4.41467,8.53808-2.28208,14.749-4.11362,14.749-4.11368,6.97119-2.05579,8.41162-2.64481,11.63867-2.90964a29.30732,29.30732,0,0,1,12.24073,1.30432,29.66939,29.66939,0,0,1,18.96289,28.19361,27.03135,27.03135,0,0,1-4.61524,13.64526,31.09447,31.09447,0,0,1-10.6355,9.933c-4.37231,2.62754-6.56884,2.70444-16.655,5.51831-9.72436,2.71286-7.25512,2.522-21.47143,6.72236-12.03174,3.55487-13.28369,3.53881-17.157,5.61859-3.49951,1.87912-8.916,4.86712-13.14356,11.03671a34.81,34.81,0,0,0-5.0166,11.93957c-1.83154,7.281-.51074,10.492-1.2041,13.6453-2.56445,11.66046-30.56543,16.491-50.42944,16.76623C8264.26376,1081.74756,8243.93466,1068.12833,8243.87875,1064.29379Z" transform="translate(-8096.3439 -736.6724)"/><circle class="cls-2" cx="203.96655" cy="203.96662" r="198.96658"/><path class="cls-1" d="M8252.13914,856.62683q1.06445,19.33348,2.12856,38.667c3.94672,3.339,22.48835,18.296,49.66393,16.67292a71.19,71.19,0,0,0,43.27862-18.44663q-.17758-19.15614-.35482-38.31225Z" transform="translate(-8096.3439 -736.6724)"/><path class="cls-1" d="M8364.12509,854.3754l-63.15835,30.86523a5.38484,5.38484,0,0,1-4.80548-.03831l-60.88046-30.964a5.38484,5.38484,0,0,1,.0047-9.60183l62.09372-31.50462a5.38484,5.38484,0,0,1,4.88363.00546l61.94509,31.60337A5.38485,5.38485,0,0,1,8364.12509,854.3754Z" transform="translate(-8096.3439 -736.6724)"/></svg>