<svg id="Слой_28" data-name="Слой 28" xmlns="http://www.w3.org/2000/svg" viewBox="0 0 407.93506 407.93384"><defs><style>.cls-1{fill:#f08ea9;}.cls-2,.cls-3{fill:none;stroke-miterlimit:10;stroke-width:10px;}.cls-2{stroke:#f08ea9;}.cls-3{stroke:#f993aa;}</style></defs><path class="cls-1" d="M8789.77892,2754.6688a23.48195,23.48195,0,1,1-23.48047-23.50586,23.49455,23.49455,0,0,1,23.48047,23.50586" transform="translate(-8557.13878 -2545.51841)"/><path class="cls-2" d="M8789.77892,2754.6688a23.48195,23.48195,0,1,1-23.48047-23.50586A23.49455,23.49455,0,0,1,8789.77892,2754.6688Z" transform="translate(-8557.13878 -2545.51841)"/><path class="cls-2" d="M8697.66075,2754.6688c0,97.86511,30.72852,177.20105,68.6377,177.20105,37.90723,0,68.63476-79.33594,68.63476-177.20105,0-97.865-30.72753-177.19995-68.63476-177.19995C8728.38927,2577.46885,8697.66075,2656.80381,8697.66075,2754.6688Z" transform="translate(-8557.13878 -2545.51841)"/><ellipse class="cls-2" cx="209.1593" cy="209.15063" rx="177.01282" ry="68.71069"/><path class="cls-2" d="M8709.99083,2803.25449c68.68457,68.75806,146.09375,102.744,172.89649,75.911,26.80371-26.833-7.14454-104.32483-75.83106-173.08191-68.68164-68.75805-146.09082-102.74487-172.89551-75.91088C8607.3546,2657.00571,8641.3048,2734.49668,8709.99083,2803.25449Z" transform="translate(-8557.13878 -2545.51841)"/><path class="cls-2" d="M8814.83165,2803.25449c-68.68554,68.75806-146.09424,102.744-172.89746,75.911-26.80469-26.833,7.144-104.32483,75.83008-173.08191,68.68262-68.75805,146.0918-102.74487,172.89648-75.91088C8917.46642,2657.00571,8883.51622,2734.49668,8814.83165,2803.25449Z" transform="translate(-8557.13878 -2545.51841)"/><circle class="cls-3" cx="8761.1057" cy="2749.48527" r="198.96698" transform="translate(-7935.25001 4454.82443) rotate(-45)"/></svg>