<?xml version="1.0" encoding="UTF-8"?>
<svg id="_Слой_1" data-name="Слой 1" xmlns="http://www.w3.org/2000/svg" viewBox="0 0 227.23919 227.23891">
  <defs>
    <style>
      .cls-1 {
        fill: #f9cc98;
        stroke-miterlimit: 10;
      }

      .cls-1, .cls-2 {
        stroke: #f892a9;
      }

      .cls-2 {
        fill: none;
        stroke-miterlimit: 5.57;
        stroke-width: 5.57px;
      }
    </style>
  </defs>
  <path class="cls-2" d="M35.24813,35.24759c43.28271-43.28296,113.45996-43.28394,156.74365,0,43.2832,43.28406,43.2832,113.46008,0,156.74402-43.28369,43.28308-113.45996,43.28308-156.74365,0-43.28418-43.28394-43.28418-113.46094,0-156.74402Z"/>
  <path class="cls-1" d="M170.33212,107.09146H60.42685c-9.9209,0-17.96484-8.04395-17.96484-17.96497v-18.995c0-9.92102,8.04395-17.96497,17.96484-17.96497h109.90527c9.9209,0,17.96484,8.04395,17.96484,17.96497v18.995c.00488,9.92102-8.03906,17.96497-17.96484,17.96497"/>
  <path class="cls-2" d="M170.33212,107.09146H60.42685c-9.9209,0-17.96484-8.04395-17.96484-17.96497v-18.995c0-9.92102,8.04395-17.96497,17.96484-17.96497h109.90527c9.9209,0,17.96484,8.04395,17.96484,17.96497v18.995c.00488,9.92102-8.03906,17.96497-17.96484,17.96497Z"/>
  <path class="cls-2" d="M166.54989,77.2283c1.32275,0,2.39453,1.07312,2.39453,2.39502,0,1.323-1.07178,2.396-2.39453,2.396-1.32324,0-2.39648-1.073-2.39648-2.396,0-1.3219,1.07324-2.39502,2.39648-2.39502Z"/>
  <path class="cls-2" d="M142.98642,77.2283c1.32275,0,2.39453,1.07312,2.39453,2.39502,0,1.323-1.07178,2.396-2.39453,2.396-1.32324,0-2.39648-1.073-2.39648-2.396,0-1.3219,1.07324-2.39502,2.39648-2.39502Z"/>
  <path class="cls-2" d="M117.01718,77.2283c1.32275,0,2.39453,1.07312,2.39453,2.39502,0,1.323-1.07178,2.396-2.39453,2.396-1.32324,0-2.39502-1.073-2.39502-2.396,0-1.3219,1.07178-2.39502,2.39502-2.39502Z"/>
  <path class="cls-1" d="M170.33212,178.97842H60.42685c-9.9209,0-17.96484-8.04395-17.96484-17.96497v-18.995c0-9.92102,8.04395-17.96497,17.96484-17.96497h109.90527c9.9209,0,17.96484,8.04395,17.96484,17.96497v18.995c.00488,9.92102-8.03906,17.96497-17.96484,17.96497"/>
  <path class="cls-2" d="M170.33212,178.97842H60.42685c-9.9209,0-17.96484-8.04395-17.96484-17.96497v-18.995c0-9.92102,8.04395-17.96497,17.96484-17.96497h109.90527c9.9209,0,17.96484,8.04395,17.96484,17.96497v18.995c.00488,9.92102-8.03906,17.96497-17.96484,17.96497Z"/>
  <path class="cls-2" d="M166.54989,149.12063c1.32275,0,2.39453,1.07312,2.39453,2.39502,0,1.323-1.07178,2.396-2.39453,2.396-1.32324,0-2.39648-1.073-2.39648-2.396,0-1.3219,1.07324-2.39502,2.39648-2.39502Z"/>
  <path class="cls-2" d="M142.98642,149.12063c1.32275,0,2.39453,1.07312,2.39453,2.39502,0,1.323-1.07178,2.396-2.39453,2.396-1.32324,0-2.39648-1.073-2.39648-2.396,0-1.3219,1.07324-2.39502,2.39648-2.39502Z"/>
  <path class="cls-2" d="M117.01718,149.12063c1.32275,0,2.39453,1.07312,2.39453,2.39502,0,1.323-1.07178,2.396-2.39453,2.396-1.32324,0-2.39502-1.073-2.39502-2.396,0-1.3219,1.07178-2.39502,2.39502-2.39502Z"/>
</svg>