<?xml version="1.0" encoding="UTF-8"?>
<svg id="_Слой_1" data-name="Слой 1" xmlns="http://www.w3.org/2000/svg" viewBox="0 0 227.24041 227.24102">
  <defs>
    <style>
      .cls-1 {
        stroke-miterlimit: 10;
      }

      .cls-1, .cls-2 {
        fill: #9ceafb;
      }

      .cls-1, .cls-2, .cls-3 {
        stroke: #72c4f5;
      }

      .cls-2, .cls-3 {
        stroke-miterlimit: 5.57;
        stroke-width: 5.57px;
      }

      .cls-3 {
        fill: none;
      }
    </style>
  </defs>
  <circle class="cls-3" cx="113.62033" cy="113.62078" r="110.83522" transform="translate(-47.0634 113.62046) rotate(-45)"/>
  <path class="cls-1" d="M119.42465,86.70968c13.30762,9.35803,67.09082,20.76709,82.78857,16.55505,0,0-10.42773,58.31201-16.41602,64.71204-6.90771,7.38696-33.25586,20.32703-42.29688,18.82898-9.04004-1.49902-30.3418-25.11206-33.646-32.99402-3.54785-8.45593,9.57031-67.10205,9.57031-67.10205"/>
  <path class="cls-2" d="M119.42465,86.70968c13.30762,9.35803,67.09082,20.76709,82.78857,16.55505,0,0-10.42773,58.31201-16.41602,64.71204-6.90771,7.38696-33.25586,20.32703-42.29688,18.82898-9.04004-1.49902-30.3418-25.11206-33.646-32.99402-3.54785-8.45593,9.57031-67.10205,9.57031-67.10205Z"/>
  <path class="cls-1" d="M40.4017,60.26669c18.17676,13.2301,64.09375,11.69812,84.21973-5.88794,0,0,5.33691,58.99695,1.25391,66.75098-4.71289,8.94604-26.71094,28.38696-35.82373,29.328-9.11328.94202-35.896-16.20398-41.16602-22.93896-5.65918-7.22498-8.48389-67.25208-8.48389-67.25208"/>
  <path class="cls-2" d="M40.4017,60.26669c18.17676,13.2301,64.09375,11.69812,84.21973-5.88794,0,0,5.33691,58.99695,1.25391,66.75098-4.71289,8.94604-26.71094,28.38696-35.82373,29.328-9.11328.94202-35.896-16.20398-41.16602-22.93896-5.65918-7.22498-8.48389-67.25208-8.48389-67.25208Z"/>
  <path class="cls-2" d="M54.60092,94.2131c5.65381-9.65393,16.33789-9.65393,22.62695-1.91589"/>
  <path class="cls-2" d="M93.32748,92.05734c5.65381-9.65393,16.33789-9.65393,22.62695-1.91589"/>
  <path class="cls-2" d="M164.20541,121.20199c4.63965,10.18311,15.26855,11.26904,22.30957,4.21106"/>
  <path class="cls-2" d="M127.41244,113.81552c4.64062,10.18311,15.26855,11.26904,22.30957,4.21106"/>
  <path class="cls-1" d="M69.25717,119.67563s9.9209,2.401,18.17676,1.57703c12.3042-1.22595,18.58789-3.98291,18.58789-3.98291-3.14111,8.7229-6.91309,11.41394-18.53809,12.672-10.68457,0-12.88477-1.25806-18.22656-10.26611"/>
  <path class="cls-2" d="M69.25717,119.67563s9.9209,2.401,18.17676,1.57703c12.3042-1.22595,18.58789-3.98291,18.58789-3.98291-3.14111,8.7229-6.91309,11.41394-18.53809,12.672-10.68457,0-12.88477-1.25806-18.22656-10.26611Z"/>
  <path class="cls-1" d="M132.62143,156.34604s8.95166-.28394,16.00391,1.66003c10.51172,2.89099,15.58008,6.01599,15.58008,6.01599-1.50342-7.22998-4.39404-9.90393-14.31006-12.71191-9.28125-1.69299-11.37012-1.06909-17.27393,5.03589"/>
  <path class="cls-2" d="M132.62143,156.34604s8.95166-.28394,16.00391,1.66003c10.51172,2.89099,15.58008,6.01599,15.58008,6.01599-1.50342-7.22998-4.39404-9.90393-14.31006-12.71191-9.28125-1.69299-11.37012-1.06909-17.27393,5.03589Z"/>
  <path class="cls-1" d="M181.20688,148.10727c-.22314.81311-.98047,2.70203-2.73535,2.34009-2.55176-.52405-1.62109-3.25403.14502-4.21204,2.04932-1.11902,3.09131-2.21094,3.09131-2.21094,0,0,.14502,1.7439-.50098,4.08289"/>
  <path class="cls-2" d="M181.20688,148.10727c-.22314.81311-.98047,2.70203-2.73535,2.34009-2.55176-.52405-1.62109-3.25403.14502-4.21204,2.04932-1.11902,3.09131-2.21094,3.09131-2.21094,0,0,.14502,1.7439-.50098,4.08289Z"/>
</svg>