<svg id="Слой_31" data-name="Слой 31" xmlns="http://www.w3.org/2000/svg" viewBox="0 0 407.93457 407.93384"><defs><style>.cls-1{fill:#a6daf0;}.cls-2,.cls-4{fill:none;stroke-miterlimit:10;}.cls-2{stroke:#76c3ed;stroke-width:9.361px;}.cls-3{fill:#9debfc;}.cls-4{stroke:#72c5f6;stroke-width:10px;}</style></defs><rect class="cls-1" x="82.62695" y="80.98779" width="241.85645" height="236.15601"/><rect class="cls-1" x="82.62695" y="80.98779" width="241.85645" height="236.15601"/><rect class="cls-2" x="82.62695" y="80.98779" width="241.85645" height="236.15601"/><rect class="cls-1" x="82.62695" y="80.98804" width="120.92871" height="118.07788"/><rect class="cls-3" x="82.62695" y="80.98804" width="120.92871" height="118.07788"/><rect class="cls-2" x="82.62695" y="80.98804" width="120.92871" height="118.07788"/><rect class="cls-1" x="82.62695" y="199.87183" width="120.92871" height="118.07788"/><rect class="cls-3" x="82.62695" y="199.87183" width="120.92871" height="118.07788"/><rect class="cls-2" x="82.62695" y="199.87183" width="120.92871" height="118.07788"/><rect class="cls-1" x="204.37988" y="81.7937" width="120.92871" height="118.07813"/><rect class="cls-3" x="204.37988" y="81.7937" width="120.92871" height="118.07813"/><rect class="cls-2" x="204.37988" y="81.7937" width="120.92871" height="118.07813"/><rect class="cls-1" x="204.37988" y="199.87183" width="120.92871" height="118.07788"/><rect class="cls-3" x="204.37988" y="199.87183" width="120.92871" height="118.07788"/><rect class="cls-2" x="204.37988" y="199.87183" width="120.92871" height="118.07788"/><line class="cls-1" x1="110.69238" y1="140.01904" x2="176.72656" y2="140.01904"/><line class="cls-2" x1="110.69238" y1="140.01904" x2="176.72656" y2="140.01904"/><line class="cls-1" x1="295.29492" y1="113.42114" x2="232.56055" y2="168.22827"/><line class="cls-2" x1="295.29492" y1="113.42114" x2="232.56055" y2="168.22827"/><line class="cls-1" x1="236.3252" y1="109.8103" x2="293.36133" y2="170.24341"/><line class="cls-2" x1="236.3252" y1="109.8103" x2="293.36133" y2="170.24341"/><line class="cls-1" x1="143.70996" y1="300.00854" x2="143.70996" y2="217.81372"/><line class="cls-2" x1="143.70996" y1="300.00854" x2="143.70996" y2="217.81372"/><line class="cls-1" x1="189.11035" y1="258.91895" x2="104.91406" y2="258.91895"/><line class="cls-2" x1="189.11035" y1="258.91895" x2="104.91406" y2="258.91895"/><line class="cls-1" x1="231.83496" y1="272.81421" x2="297.86816" y2="272.81421"/><line class="cls-2" x1="231.83496" y1="272.81421" x2="297.86816" y2="272.81421"/><line class="cls-1" x1="230.91113" y1="247.02246" x2="296.94434" y2="247.02246"/><line class="cls-2" x1="230.91113" y1="247.02246" x2="296.94434" y2="247.02246"/><circle class="cls-4" cx="10110.05886" cy="2301.57859" r="198.9668" transform="translate(-8572.38646 5725.39621) rotate(-45)"/></svg>