<svg id="Слой_16" data-name="Слой 16" xmlns="http://www.w3.org/2000/svg" viewBox="0 0 407.93311 407.93324"><defs><style>.cls-1{fill:none;}.cls-1,.cls-2{stroke:#72c5f6;stroke-miterlimit:10;stroke-width:10px;}.cls-2{fill:#9debfc;}.cls-3{fill:#72c5f6;}</style></defs><circle class="cls-1" cx="203.96655" cy="203.96662" r="198.96658"/><path class="cls-2" d="M10613.31327,603.35473h-162.08252a8.73833,8.73833,0,0,1-8.73828-8.73859V432.53405a8.73832,8.73832,0,0,1,8.73828-8.73858q21.4812,0,42.9624,0,58.53882,0,117.07715,0a11.01154,11.01154,0,0,1,7.624,3.15768,10.74837,10.74837,0,0,1,3.15722,7.62344V594.61614A8.73833,8.73833,0,0,1,10613.31327,603.35473Z" transform="translate(-10328.30545 -305.70361)"/><path class="cls-3" d="M10517.99538,420.63846V395.6172c0-6.43453-10-6.44518-10,0v25.02126c0,6.43453,10,6.44519,10,0Z" transform="translate(-10328.30545 -305.70361)"/><path class="cls-3" d="M10556.54857,420.63846V395.6172c0-6.43453-10-6.44518-10,0v25.02126c0,6.43453,10,6.44519,10,0Z" transform="translate(-10328.30545 -305.70361)"/><path class="cls-3" d="M10595.10176,420.63846V395.6172c0-6.43453-10-6.44518-10,0v25.02126c0,6.43453,10,6.44519,10,0Z" transform="translate(-10328.30545 -305.70361)"/><path class="cls-3" d="M10479.44219,420.63846V395.6172c0-6.43453-10-6.44518-10,0v25.02126c0,6.43453,10,6.44519,10,0Z" transform="translate(-10328.30545 -305.70361)"/><path class="cls-3" d="M10517.99538,628.376V603.35474c0-6.43452-10-6.44518-10,0V628.376c0,6.43452,10,6.44518,10,0Z" transform="translate(-10328.30545 -305.70361)"/><path class="cls-3" d="M10556.54857,628.376V603.35474c0-6.43452-10-6.44518-10,0V628.376c0,6.43452,10,6.44518,10,0Z" transform="translate(-10328.30545 -305.70361)"/><path class="cls-3" d="M10595.10176,628.376V603.35474c0-6.43452-10-6.44518-10,0V628.376c0,6.43452,10,6.44518,10,0Z" transform="translate(-10328.30545 -305.70361)"/><path class="cls-3" d="M10479.44219,628.376V603.35474c0-6.43452-10-6.44518-10,0V628.376c0,6.43452,10,6.44518,10,0Z" transform="translate(-10328.30545 -305.70361)"/><path class="cls-3" d="M10414.3371,499.29851l25.02127,0c6.43452,0,6.44518-10,0-10l-25.02127,0c-6.43452,0-6.44518,10,0,10Z" transform="translate(-10328.30545 -305.70361)"/><path class="cls-3" d="M10414.33711,537.8517l25.02127,0c6.43453,0,6.44518-10,0-10l-25.02127,0c-6.43452,0-6.44518,10,0,10Z" transform="translate(-10328.30545 -305.70361)"/><path class="cls-3" d="M10414.33713,576.40489l25.02127,0c6.43452,0,6.44518-10,0-10l-25.02127,0c-6.43453,0-6.44518,10,0,10Z" transform="translate(-10328.30545 -305.70361)"/><path class="cls-3" d="M10414.33709,460.74531h25.02127c6.43452,0,6.44518-10,0-10h-25.02127c-6.43452,0-6.44518,10,0,10Z" transform="translate(-10328.30545 -305.70361)"/><path class="cls-3" d="M10622.05165,499.29851l25.02127,0c6.43452,0,6.44518-10,0-10l-25.02127,0c-6.43452,0-6.44518,10,0,10Z" transform="translate(-10328.30545 -305.70361)"/><path class="cls-3" d="M10622.05167,537.8517l25.02126,0c6.43453,0,6.44519-10,0-10l-25.02126,0c-6.43453,0-6.44518,10,0,10Z" transform="translate(-10328.30545 -305.70361)"/><path class="cls-3" d="M10622.05168,576.40489l25.02127,0c6.43452,0,6.44518-10,0-10l-25.02127,0c-6.43452,0-6.44518,10,0,10Z" transform="translate(-10328.30545 -305.70361)"/><path class="cls-3" d="M10622.05164,460.74531h25.02127c6.43452,0,6.44518-10,0-10h-25.02127c-6.43452,0-6.44518,10,0,10Z" transform="translate(-10328.30545 -305.70361)"/><path class="cls-3" d="M10568.4456,469.25863c-.53953,10.68405-16.72754,10.86275-16.72754,0,0-10.86613,16.18786-10.68712,16.72754,0,.32339,6.40419,10.32534,6.4428,10,0-.50281-9.95693-8.02269-18.36368-18.36377-18.36368a18.36368,18.36368,0,1,0,0,36.72736c10.34043,0,17.861-8.40735,18.36377-18.36368C10578.7704,462.82651,10568.76953,462.84386,10568.4456,469.25863Z" transform="translate(-10328.30545 -305.70361)"/><path class="cls-3" d="M10507.17989,513.5751c-.54561,11.47871-17.92789,11.60533-17.92789,0,0-11.59528,17.38158-11.49325,17.92789,0,.30454,6.40687,10.30629,6.44385,10,0-.48895-10.28653-8.29581-18.964-18.96395-18.964a18.96395,18.96395,0,0,0,0,37.92789c10.67,0,18.475-8.67645,18.96395-18.96394C10517.48568,507.14193,10507.48493,507.15764,10507.17989,513.5751Z" transform="translate(-10328.30545 -305.70361)"/><path class="cls-3" d="M10572.86064,551.76464c-.51278,10.15444-15.89648,10.32434-15.89649,0,0-10.32741,15.3836-10.1568,15.89649,0,.32339,6.4042,10.32534,6.44281,10,0-.4914-9.73109-7.84176-17.9483-17.94825-17.94833a17.94832,17.94832,0,0,0,0,35.89664c10.106,0,17.45688-8.21771,17.94825-17.94831C10583.18544,545.33252,10573.18456,545.34987,10572.86064,551.76464Z" transform="translate(-10328.30545 -305.70361)"/><path class="cls-3" d="M10622.12431,502.1921q-13.02124-1.149-26.04248-2.29788l5,5,.76611-32.93616c.06808-2.927-2.36315-4.69584-5-5l-23.40234-2.69943c-6.3816-.73611-6.32888,9.27,0,10l23.40234,2.69943-5-5-.76611,32.93616c-.06687,2.87469,2.35562,4.76667,5,5q13.02123,1.149,26.04248,2.29788c6.40908.56552,6.371-9.43784,0-10Z" transform="translate(-10328.30545 -305.70361)"/><path class="cls-3" d="M10492.95588,421.27184q-10.93592,14.25162-21.87207,28.50305c-1.11222,1.44944-.71476,3.56264,0,5.04719q2.81616,5.84919,5.63253,11.69827c1.43353,2.97728,2.49687,7.20147,5.6095,8.73051,2.90323,1.42617,8.04735.98708,11.288,1.28168l13.1062,1.19148-4.8214-6.32919q-4.25177,13.44361-8.5039,26.88711c-1.9451,6.15018,7.706,8.78221,9.64279,2.6584q4.25176-13.44361,8.50391-26.88712c1.057-3.342-1.74236-6.04928-4.8214-6.3292l-22.46777-2.04254,4.31735,2.47641q-4.42539-9.19157-8.85107-18.383v5.04719q10.9359-14.25162,21.87207-28.50305c3.91563-5.10283-4.76631-10.08847-8.63471-5.04719Z" transform="translate(-10328.30545 -305.70361)"/><path class="cls-3" d="M10474.9539,597.66018q.68109-13.44679,1.36181-26.89361l-5,5c11.221-.11,22.55313.237,33.75908-.331,4.93257-.25,8.2179-4.87674,11.67326-8.03927q6.45591-5.90879,12.91179-11.81762l-3.53553,1.46447,25.83984-.27854c6.43079-.06931,6.44743-10.06949,0-10l-15.90144.17141c-3.79491.04091-9.04761-.93166-12.462.78977-3.43268,1.73066-6.75664,6.03976-9.61976,8.66024q-5.73859,5.25225-11.47714,10.50455l3.53554-1.46447-34.72364.34043a5.10387,5.10387,0,0,0-5,5q-.68109,13.44679-1.36181,26.89361c-.3258,6.43206,9.67509,6.41463,10,0Z" transform="translate(-10328.30545 -305.70361)"/></svg>