<svg id="Слой_27" data-name="Слой 27" xmlns="http://www.w3.org/2000/svg" viewBox="0 0 407.93311 407.93384"><defs><style>.cls-1,.cls-4,.cls-6,.cls-8{fill:none;}.cls-1{stroke:#72c5f6;}.cls-1,.cls-3,.cls-4,.cls-6,.cls-8{stroke-miterlimit:10;}.cls-1,.cls-3,.cls-4{stroke-width:10px;}.cls-2{fill:#a6daf0;}.cls-3{fill:#9debfc;}.cls-3,.cls-4{stroke:#76c2ec;}.cls-5{fill:#0f2233;}.cls-6{stroke:#0f2233;}.cls-7{fill:#73777c;}.cls-8{stroke:#73777c;}</style></defs><circle class="cls-1" cx="8311.45485" cy="2301.57859" r="198.96661" transform="translate(-7300.58173 4453.59111) rotate(-45)"/><path class="cls-2" d="M8439.16347,2404.32878h-256.979a20.1201,20.1201,0,0,1-20.28808-19.825V2215.988a20.12049,20.12049,0,0,1,20.28808-19.82618h256.979a20.12039,20.12039,0,0,1,20.2876,19.82618v168.51586a20.12,20.12,0,0,1-20.2876,19.825" transform="translate(-8107.48866 -2097.61173)"/><path class="cls-3" d="M8439.16347,2404.32878h-256.979a20.1201,20.1201,0,0,1-20.28808-19.825V2215.988a20.12049,20.12049,0,0,1,20.28808-19.82618h256.979a20.12039,20.12039,0,0,1,20.2876,19.82618v168.51586A20.12,20.12,0,0,1,8439.16347,2404.32878Z" transform="translate(-8107.48866 -2097.61173)"/><line class="cls-2" x1="54.4082" y1="150.88013" x2="351.96191" y2="150.88013"/><line class="cls-4" x1="54.4082" y1="150.88013" x2="351.96191" y2="150.88013"/><rect class="cls-5" x="193.10742" y="169.22876" width="24.13379" height="23.58398"/><rect class="cls-6" x="193.10742" y="169.22876" width="24.13379" height="23.58398"/><rect class="cls-5" x="193.10742" y="169.22876" width="24.13379" height="23.58398"/><rect class="cls-6" x="193.10742" y="169.22876" width="24.13379" height="23.58398"/><rect class="cls-5" x="245.79346" y="169.09985" width="24.13477" height="23.58398"/><rect class="cls-6" x="245.79346" y="169.09985" width="24.13477" height="23.58398"/><rect class="cls-5" x="245.79346" y="169.09985" width="24.13477" height="23.58398"/><rect class="cls-6" x="245.79346" y="169.09985" width="24.13477" height="23.58398"/><rect class="cls-5" x="298.48145" y="169.22876" width="24.13379" height="23.58398"/><rect class="cls-6" x="298.48145" y="169.22876" width="24.13379" height="23.58398"/><rect class="cls-5" x="298.48145" y="169.22876" width="24.13379" height="23.58398"/><rect class="cls-6" x="298.48145" y="169.22876" width="24.13379" height="23.58398"/><rect class="cls-5" x="83.75439" y="214.06982" width="24.13379" height="23.58496"/><rect class="cls-6" x="83.75439" y="214.06982" width="24.13379" height="23.58496"/><rect class="cls-5" x="83.75439" y="214.06982" width="24.13379" height="23.58496"/><rect class="cls-6" x="83.75439" y="214.06982" width="24.13379" height="23.58496"/><rect class="cls-5" x="138.82324" y="211.58594" width="24.13477" height="23.58398"/><rect class="cls-6" x="138.82324" y="211.58594" width="24.13477" height="23.58398"/><rect class="cls-5" x="138.82324" y="211.58594" width="24.13477" height="23.58398"/><rect class="cls-6" x="138.82324" y="211.58594" width="24.13477" height="23.58398"/><rect class="cls-5" x="193.89453" y="211.58594" width="24.13379" height="23.58398"/><rect class="cls-6" x="193.89453" y="211.58594" width="24.13379" height="23.58398"/><rect class="cls-5" x="193.89453" y="211.58594" width="24.13379" height="23.58398"/><rect class="cls-6" x="193.89453" y="211.58594" width="24.13379" height="23.58398"/><rect class="cls-5" x="245.79346" y="211.58594" width="24.13477" height="23.58398"/><rect class="cls-6" x="245.79346" y="211.58594" width="24.13477" height="23.58398"/><rect class="cls-5" x="245.79346" y="211.58594" width="24.13477" height="23.58398"/><rect class="cls-6" x="245.79346" y="211.58594" width="24.13477" height="23.58398"/><rect class="cls-7" x="298.48145" y="211.58594" width="24.13379" height="23.58398"/><rect class="cls-8" x="298.48145" y="211.58594" width="24.13379" height="23.58398"/><rect class="cls-5" x="298.48145" y="211.58594" width="24.13379" height="23.58398"/><rect class="cls-6" x="298.48145" y="211.58594" width="24.13379" height="23.58398"/><rect class="cls-5" x="83.75439" y="259.04199" width="24.13379" height="23.58398"/><rect class="cls-6" x="83.75439" y="259.04199" width="24.13379" height="23.58398"/><rect class="cls-5" x="83.75439" y="259.04199" width="24.13379" height="23.58398"/><rect class="cls-6" x="83.75439" y="259.04199" width="24.13379" height="23.58398"/><rect class="cls-5" x="138.82324" y="259.04199" width="24.13477" height="23.58398"/><rect class="cls-6" x="138.82324" y="259.04199" width="24.13477" height="23.58398"/><rect class="cls-5" x="138.82324" y="259.04199" width="24.13477" height="23.58398"/><rect class="cls-6" x="138.82324" y="259.04199" width="24.13477" height="23.58398"/><rect class="cls-5" x="193.89453" y="259.04199" width="24.13379" height="23.58398"/><rect class="cls-6" x="193.89453" y="259.04199" width="24.13379" height="23.58398"/><rect class="cls-5" x="193.89453" y="259.04199" width="24.13379" height="23.58398"/><rect class="cls-6" x="193.89453" y="259.04199" width="24.13379" height="23.58398"/><rect class="cls-5" x="246.18848" y="259.04199" width="24.13477" height="23.58398"/><rect class="cls-6" x="246.18848" y="259.04199" width="24.13477" height="23.58398"/><rect class="cls-5" x="246.18848" y="259.04199" width="24.13477" height="23.58398"/><rect class="cls-6" x="246.18848" y="259.04199" width="24.13477" height="23.58398"/><rect class="cls-5" x="298.48145" y="259.04199" width="24.13379" height="23.58398"/><rect class="cls-6" x="298.48145" y="259.04199" width="24.13379" height="23.58398"/><rect class="cls-5" x="298.48145" y="259.04199" width="24.13379" height="23.58398"/><rect class="cls-6" x="298.48145" y="259.04199" width="24.13379" height="23.58398"/><path class="cls-7" d="M8418.13857,2227.87174h-.20215a8.74259,8.74259,0,0,1-8.71729-8.71679v-42.043a8.74181,8.74181,0,0,1,8.71729-8.71607h.20215a8.74119,8.74119,0,0,1,8.71582,8.71607v42.043a8.742,8.742,0,0,1-8.71582,8.71679" transform="translate(-8107.48866 -2097.61173)"/><path class="cls-8" d="M310.44727,70.78418h.20117a8.71729,8.71729,0,0,1,8.71729,8.71729v42.04248a8.71606,8.71606,0,0,1-8.71606,8.71606h-.20337a8.71582,8.71582,0,0,1-8.71582-8.71582V79.501a8.7168,8.7168,0,0,1,8.7168-8.7168Z"/><path class="cls-7" d="M8203.411,2225.92936h-.20215a8.74259,8.74259,0,0,1-8.71729-8.7168v-42.043a8.74181,8.74181,0,0,1,8.71729-8.71607h.20215a8.74119,8.74119,0,0,1,8.71582,8.71607v42.043a8.742,8.742,0,0,1-8.71582,8.7168" transform="translate(-8107.48866 -2097.61173)"/><path class="cls-8" d="M95.71875,68.8418h.20264a8.7168,8.7168,0,0,1,8.7168,8.7168v42.04175a8.71729,8.71729,0,0,1-8.71729,8.71729h-.20215a8.71582,8.71582,0,0,1-8.71582-8.71582V77.55762A8.71582,8.71582,0,0,1,95.71875,68.8418Z"/></svg>