<svg id="Слой_20" data-name="Слой 20" xmlns="http://www.w3.org/2000/svg" viewBox="0 0 407.93311 407.93324"><defs><style>.cls-1{fill:#9debfc;}.cls-1,.cls-2{stroke:#72c5f6;stroke-miterlimit:10;stroke-width:10px;}.cls-2{fill:none;}</style></defs><path class="cls-1" d="M8243.87875,633.325c-.05737-3.93543.04639-5.26972.04639-5.26981a28.82418,28.82418,0,0,0-.04639-4.46246,35.98033,35.98033,0,0,0-4.41455-13.846,33.94461,33.94461,0,0,0-7.12378-8.52829c-1.53272-1.36432-5.34253-4.5336-13.54492-7.92627-5.04346-2.08615-6.40479-2.04669-15.15039-4.61535-9.522-2.7967-15.896-4.70215-23.37745-8.52836-5.17163-2.64492-8.5642-4.42135-12.04-8.22729a24.73609,24.73609,0,0,1-5.61866-26.78888,27.83564,27.83564,0,0,1,6.22071-10.73566,28.32045,28.32045,0,0,1,10.33423-6.82266,29.12223,29.12223,0,0,1,13.7456-1.70566c3.97534.482,4.949,1.47238,11.9397,3.81269,3.29126,1.10183,2.60693.7254,13.84595,3.81265,6.6499,1.82663,13.56982,2.84094,19.9663,5.418a36.72873,36.72873,0,0,0,10.13355,2.107,8.18461,8.18461,0,0,0,5.21728-.903,6.7875,6.7875,0,0,0,3.01-4.31436c.36158-2.37348-1.09082-4.232-2.5083-6.321-2.269-3.3439-3.80493-7.132-5.81933-10.63528-3.5437-6.16294-3.88477-12.36957-4.21387-18.36093a58.2548,58.2548,0,0,1,4.21387-24.4813,51.34577,51.34577,0,0,1,24.18042-27.3909,57.68073,57.68073,0,0,1,17.85913-6.321,54.899,54.899,0,0,1,17.35766-.301,53.716,53.716,0,0,1,17.25733,5.91964,60.24618,60.24618,0,0,1,31.30395,45.04953c.7251,6.68457,1.54981,14.28659-2.30786,21.672-6.25805,11.98163-8.62842,15.04983-8.62866,15.05a8.737,8.737,0,0,0-1.80591,4.11364,6.97006,6.97006,0,0,0,1.2041,5.31766c1.72681,2.1337,4.51367,2.25516,5.719,2.30768,2.26806.09885,3.53222-.59473,7.02319-1.806,2.43945-.84634,4.95972-1.43915,7.42481-2.20734,6.0039-1.87112,7.0039-1.7814,16.85571-4.41467,8.53808-2.28207,14.749-4.11362,14.749-4.11368,6.97119-2.05578,8.41162-2.6448,11.63867-2.90963A29.30732,29.30732,0,0,1,8420.766,527.273a29.66937,29.66937,0,0,1,18.96289,28.1936,27.03135,27.03135,0,0,1-4.61524,13.64526,31.09453,31.09453,0,0,1-10.6355,9.933c-4.37231,2.62753-6.56884,2.70443-16.655,5.51831-9.72436,2.71286-7.25512,2.522-21.47143,6.72235-12.03174,3.55487-13.28369,3.53882-17.157,5.61859-3.49951,1.87912-8.916,4.86713-13.14356,11.03671a34.81012,34.81012,0,0,0-5.0166,11.93958c-1.83154,7.281-.51074,10.492-1.2041,13.64529-2.56445,11.66046-30.56543,16.491-50.42944,16.76624C8264.26376,650.77876,8243.93466,637.15953,8243.87875,633.325Z" transform="translate(-8096.3439 -305.70361)"/><circle class="cls-2" cx="203.96655" cy="203.96662" r="198.96658"/><path class="cls-1" d="M8252.13914,425.658q1.06445,19.33348,2.12856,38.667c3.94672,3.339,22.48835,18.296,49.66393,16.67291a71.19,71.19,0,0,0,43.27862-18.44663q-.17758-19.15613-.35482-38.31224Q8299.4973,424.94852,8252.13914,425.658Z" transform="translate(-8096.3439 -305.70361)"/><path class="cls-1" d="M8364.12509,423.4066l-63.15835,30.86523a5.38484,5.38484,0,0,1-4.80548-.03831l-60.88046-30.964a5.38484,5.38484,0,0,1,.0047-9.60183l62.09372-31.50461a5.38484,5.38484,0,0,1,4.88363.00545l61.94509,31.60337A5.38485,5.38485,0,0,1,8364.12509,423.4066Z" transform="translate(-8096.3439 -305.70361)"/></svg>