<svg id="Слой_15" data-name="Слой 15" xmlns="http://www.w3.org/2000/svg" viewBox="0 0 407.93311 407.93324"><defs><style>.cls-1{fill:#9debfc;}.cls-1,.cls-2{stroke:#72c5f6;stroke-miterlimit:10;stroke-width:10px;}.cls-2{fill:none;}</style></defs><path class="cls-1" d="M5599.77475,312.96449H5471.222c-4.07324,0-7.376,3.91485-7.376,8.74414V483.009c0,4.88623-3.37647,8.748-7.49854,8.74152l-.07764-.00006c-21.46435,0-38.85644,13.80005-38.85644,30.8175,0,17.00171,17.39209,30.80182,38.85644,30.80182s38.85645-13.80011,38.85645-30.80182c0-.61511-.02637-1.21448-.0791-1.81378h.0791l-1.31213-88.79918a8.23065,8.23065,0,0,1,8.22976-8.35226h67.39278a8.23065,8.23065,0,0,1,8.22811,8.026l1.23589,49.68223c0,4.991-3.51562,8.97492-7.7207,8.72644q-1.42969-.0845-2.88623-.0849c-21.45068,0-38.85645,13.78424-38.85645,30.8017,0,17.00177,17.40577,30.80182,38.85645,30.80182,21.46387,0,38.85693-13.80005,38.85693-30.80182V321.70863C5607.15072,316.87934,5603.848,312.96449,5599.77475,312.96449Zm-96.41768,72.32812a8.23065,8.23065,0,0,1-8.23065-8.23065V360.36463c0-4.82928,3.3025-8.74414,7.37607-8.74414h69.02235c4.07356,0,7.37607,3.91486,7.37607,8.74414V377.062a8.23066,8.23066,0,0,1-8.23066,8.23065Z" transform="translate(-5321.3894 -224.32195)"/><circle class="cls-2" cx="203.96655" cy="203.96662" r="198.96658"/></svg>