<svg xmlns="http://www.w3.org/2000/svg" viewBox="0 0 407.93325 407.93325"><defs><style>.cls-1{fill:none;}.cls-1,.cls-2{stroke:#72c5f6;stroke-miterlimit:10;stroke-width:10px;}.cls-2{fill:#9debfc;}</style></defs><g id="Слой_2_копия_" data-name="Слой 2 (копия)"><circle class="cls-1" cx="203.96662" cy="203.96662" r="198.96662"/><path class="cls-2" d="M959.85643,343.71356l16.05991,30.01958a2.04525,2.04525,0,0,0,1.543,1.03422l35.911,4.81386a1.85563,1.85563,0,0,1,1.13578,3.22473l-25.98548,23.367a1.80178,1.80178,0,0,0-.58938,1.6734l6.13434,32.99471a2.0198,2.0198,0,0,1-2.97352,1.993l-32.11981-15.578a2.20252,2.20252,0,0,0-1.9073,0l-32.11982,15.578a2.01979,2.01979,0,0,1-2.97351-1.993l6.13433-32.99471a1.80178,1.80178,0,0,0-.58938-1.6734l-25.98548-23.367a1.85563,1.85563,0,0,1,1.13578-3.22473l35.91105-4.81386a2.04525,2.04525,0,0,0,1.543-1.03422L956.181,343.71356A2.12925,2.12925,0,0,1,959.85643,343.71356Z" transform="translate(-869.78648 -229.20053)"/><path class="cls-1" d="M1002.29248,471.97069l16.05991,30.01958a2.04525,2.04525,0,0,0,1.543,1.03422l35.911,4.81386a1.85563,1.85563,0,0,1,1.13579,3.22473l-25.98548,23.367a1.80179,1.80179,0,0,0-.58939,1.6734l6.13434,32.99471a2.01978,2.01978,0,0,1-2.97351,1.993l-32.11982-15.578a2.20252,2.20252,0,0,0-1.9073,0l-32.11982,15.578a2.01978,2.01978,0,0,1-2.97351-1.993l6.13434-32.99471a1.80181,1.80181,0,0,0-.58939-1.6734l-25.98548-23.367a1.85563,1.85563,0,0,1,1.13578-3.22473l35.911-4.81386a2.04527,2.04527,0,0,0,1.543-1.03422L998.617,471.97069A2.12924,2.12924,0,0,1,1002.29248,471.97069Z" transform="translate(-869.78648 -229.20053)"/><path class="cls-1" d="M1147.5067,471.97069l16.0599,30.01958a2.04528,2.04528,0,0,0,1.543,1.03422l35.91105,4.81386a1.85563,1.85563,0,0,1,1.13578,3.22473l-25.98548,23.367a1.80178,1.80178,0,0,0-.58938,1.6734l6.13433,32.99471a2.01978,2.01978,0,0,1-2.97351,1.993l-32.11982-15.578a2.20252,2.20252,0,0,0-1.9073,0l-32.11981,15.578a2.01979,2.01979,0,0,1-2.97352-1.993l6.13434-32.99471a1.80179,1.80179,0,0,0-.58939-1.6734l-25.98547-23.367a1.85563,1.85563,0,0,1,1.13578-3.22473l35.911-4.81386a2.04525,2.04525,0,0,0,1.543-1.03422l16.05991-30.01958A2.12925,2.12925,0,0,1,1147.5067,471.97069Z" transform="translate(-869.78648 -229.20053)"/><path class="cls-2" d="M1191.32525,349.01306l16.05991,30.01958a2.04525,2.04525,0,0,0,1.543,1.03422l35.911,4.81386a1.85563,1.85563,0,0,1,1.13578,3.22473l-25.98547,23.367a1.80179,1.80179,0,0,0-.58939,1.6734l6.13434,32.99471a2.01979,2.01979,0,0,1-2.97352,1.993l-32.11981-15.578a2.20252,2.20252,0,0,0-1.9073,0l-32.11982,15.578a2.01978,2.01978,0,0,1-2.97351-1.993l6.13434-32.99471a1.80181,1.80181,0,0,0-.58939-1.6734L1133,388.10545a1.85563,1.85563,0,0,1,1.13578-3.22473l35.911-4.81386a2.04528,2.04528,0,0,0,1.543-1.03422l16.0599-30.01958A2.12925,2.12925,0,0,1,1191.32525,349.01306Z" transform="translate(-869.78648 -229.20053)"/><path class="cls-2" d="M1077.31533,254.39039l17.75627,33.19048a2.26129,2.26129,0,0,0,1.706,1.14346l39.70424,5.32234a2.05163,2.05163,0,0,1,1.25575,3.56535l-28.73026,25.83518a1.99212,1.99212,0,0,0-.65164,1.85016l6.78229,36.47986a2.23314,2.23314,0,0,1-3.2876,2.20351l-35.51255-17.22346a2.43512,2.43512,0,0,0-2.10876,0l-35.51256,17.22346a2.23314,2.23314,0,0,1-3.2876-2.20351l6.7823-36.47986a1.99214,1.99214,0,0,0-.65164-1.85016L1012.82934,297.612a2.05163,2.05163,0,0,1,1.25575-3.56535l39.70424-5.32234a2.26127,2.26127,0,0,0,1.706-1.14346l17.75628-33.19048A2.35416,2.35416,0,0,1,1077.31533,254.39039Z" transform="translate(-869.78648 -229.20053)"/></g></svg>