<svg id="Слой_12" data-name="Слой 12" xmlns="http://www.w3.org/2000/svg" viewBox="0 0 407.93311 407.93324"><defs><style>.cls-1{fill:#9debfc;}.cls-1,.cls-2{stroke:#72c5f6;stroke-miterlimit:10;stroke-width:10px;}.cls-2{fill:none;}</style></defs><path class="cls-1" d="M5864.35334,407.995q2.34182,42.53422,4.68287,85.06843c8.68291,7.34591,49.475,40.25181,109.262,36.68089,51.95115-3.10292,85.63275-31.79974,95.21417-40.58311q-.39067-42.144-.7806-84.288Q5968.54258,406.43407,5864.35334,407.995Z" transform="translate(-5765.113 -224.32195)"/><path class="cls-1" d="M6110.72555,403.04179l-138.95013,67.90438a11.84683,11.84683,0,0,1-10.57219-.08428l-133.93872-68.12164a11.84682,11.84682,0,0,1,.01033-21.12431l136.60793-69.311a11.84681,11.84681,0,0,1,10.74413.012l136.28092,69.5283A11.84681,11.84681,0,0,1,6110.72555,403.04179Z" transform="translate(-5765.113 -224.32195)"/><path class="cls-1" d="M5943.24681,413.27434c.53668-.68331,1.40793-1.76785,2.53984-3.06275,1.5727-1.79917,2.02262-2.14432,3.51095-3.88445,1.28285-1.4999,2.07969-2.56595,2.83864-3.58565a16.56965,16.56965,0,0,0,1.992-3.03783,11.3767,11.3767,0,0,0,.94622-3.46117c.06263-.6498-.00491-.60685,0-2.988.00418-2.02405.05274-1.93521,0-2.41533a8.92963,8.92963,0,0,0-1.09561-3.43625,8.42367,8.42367,0,0,0-1.76792-2.11652,11.363,11.363,0,0,0-3.36156-1.96713,32.62693,32.62693,0,0,0-3.76-1.14542,30.74831,30.74831,0,0,1-5.80178-2.11654,9.26086,9.26086,0,0,1-2.988-2.04182,6.13906,6.13906,0,0,1-1.39442-6.64839,6.90883,6.90883,0,0,1,1.54381-2.66434,7.02894,7.02894,0,0,1,2.56475-1.69323,7.22745,7.22745,0,0,1,3.41134-.42331,14.63563,14.63563,0,0,1,2.96315.94622c.81683.27346.647.18,3.43625.94622a44.82207,44.82207,0,0,1,4.95517,1.34461,9.1147,9.1147,0,0,0,2.51492.52291,2.03127,2.03127,0,0,0,1.29482-.22409,1.68461,1.68461,0,0,0,.747-1.07073,2.25364,2.25364,0,0,0-.62251-1.56872c-.56314-.82988-.9443-1.77-1.44422-2.63943a9.61908,9.61908,0,0,1-1.04581-4.55677,14.45831,14.45831,0,0,1,1.04581-6.07569,12.74267,12.74267,0,0,1,6.001-6.79779,14.31522,14.31522,0,0,1,4.43228-1.56873,13.62488,13.62488,0,0,1,4.30776-.0747,13.33128,13.33128,0,0,1,4.28286,1.46912,14.95169,14.95169,0,0,1,7.7689,11.18027,8.96054,8.96054,0,0,1-.57271,5.37848,30.98828,30.98828,0,0,1-2.14143,3.73505,2.16779,2.16779,0,0,0-.44819,1.02091,1.72952,1.72952,0,0,0,.29879,1.31972,1.85531,1.85531,0,0,0,1.41932.57272,4.44878,4.44878,0,0,0,1.743-.44821c.60537-.21,1.23087-.35716,1.84262-.54781,1.49006-.46437,1.73823-.4421,4.18325-1.09562,2.119-.56636,3.66033-1.02091,3.66037-1.02092a13.4708,13.4708,0,0,1,2.88843-.7221,7.27325,7.27325,0,0,1,3.03785.3237,7.36324,7.36324,0,0,1,4.70616,6.997,6.70785,6.70785,0,0,1-1.14541,3.38645,7.7168,7.7168,0,0,1-2.63944,2.46513c-1.08514.65209-1.63026.67118-4.13345,1.36952-2.41335.67327-1.80051.62591-5.32868,1.66833-2.986.88224-3.29671.87825-4.258,1.39441a7.95338,7.95338,0,0,0-4.507,5.70218,10.65781,10.65781,0,0,0-.29881,3.38645,10.43876,10.43876,0,0,0,1.09562,3.90936,14.85841,14.85841,0,0,0,2.34063,3.06274c.54962.65112,1.52843,1.9696,3.48606,4.60657,1.8359,2.473,1.47734,2.08637,3.735,5.15438.53368.72522,1.302,1.8115,2.83865,3.98406a10.848,10.848,0,0,1,1.81772,3.01293,7.41153,7.41153,0,0,1,.0249,4.28287,6.77587,6.77587,0,0,1-2.19124,3.43625,6.65859,6.65859,0,0,1-3.73505,1.46911,7.24329,7.24329,0,0,1-4.18325-1.07071,14.01376,14.01376,0,0,1-2.988-2.63945c-1.628-1.63216-2.442-2.44826-3.51095-3.61054-2.37464-2.582-3.93425-4.38245-3.93427-4.38247a11.21915,11.21915,0,0,0-2.93823-2.81374,7.0427,7.0427,0,0,0-6.92231-.2739c-.87754.42708-.97776.68595-3.41134,2.88843-1.88323,1.7044-1.84414,1.56831-3.28686,2.91335-.75511.704-.70273.68244-3.01294,2.93824a40.84676,40.84676,0,0,1-3.78485,3.46116,8.92129,8.92129,0,0,1-2.58964,1.61852,6.73486,6.73486,0,0,1-7.17129-1.743,7.16253,7.16253,0,0,1-1.89243-4.009,7.33922,7.33922,0,0,1,2.09163-6.22509Z" transform="translate(-5765.113 -224.32195)"/><circle class="cls-2" cx="203.96655" cy="203.96662" r="198.96658"/></svg>