<?xml version="1.0" encoding="UTF-8"?>
<svg id="_Слой_1" data-name="Слой 1" xmlns="http://www.w3.org/2000/svg" viewBox="0 0 227.23846 227.23855">
  <defs>
    <style>
      .cls-1 {
        fill: #9ceafb;
        stroke-miterlimit: 10;
      }

      .cls-1, .cls-2, .cls-3 {
        stroke: #72c4f5;
      }

      .cls-2 {
        stroke-width: 5.564px;
      }

      .cls-2, .cls-3 {
        fill: none;
        stroke-miterlimit: 5.57;
      }

      .cls-3 {
        stroke-width: 5.57px;
      }

      .cls-4 {
        fill: #72c4f5;
        font-family: ArialMT, Arial;
        font-size: 79.1006px;
      }
    </style>
  </defs>
  <path class="cls-3" d="M35.2474,35.24722c43.28369-43.28296,113.45996-43.28296,156.74365,0,43.2832,43.28406,43.2832,113.46008,0,156.74402-43.28369,43.28308-113.45996,43.28308-156.74365,0-43.2832-43.28394-43.2832-113.46094,0-156.74402Z"/>
  <path class="cls-1" d="M159.05893,183.7333h-91.17236c-13.58594,0-24.59912-11.01294-24.59912-24.599v-91.172c0-13.58594,11.01318-24.599,24.59912-24.599h91.17236c13.58594,0,24.59961,11.01306,24.59961,24.599v91.172c0,13.58606-11.01367,24.599-24.59961,24.599"/>
  <path class="cls-2" d="M67.88644,43.36331h91.17297c13.57662,0,24.59912,11.0225,24.59912,24.59912v91.17188c0,13.57656-11.02244,24.599-24.599,24.599h-91.17249c-13.57689,0-24.59961-11.02272-24.59961-24.59961v-91.17139c0-13.57656,11.02244-24.599,24.599-24.599Z"/>
  <text class="cls-4" transform="translate(79.75021 136.22574)"><tspan x="0" y="0">AI</tspan></text>
</svg>