<svg id="Слой_29" data-name="Слой 29" xmlns="http://www.w3.org/2000/svg" viewBox="0 0 407.93555 407.93384"><defs><style>.cls-1{fill:#9debfc;}.cls-2,.cls-3{fill:none;stroke-miterlimit:10;stroke-width:10px;}.cls-2{stroke:#76c2ec;}.cls-3{stroke:#72c5f6;}</style></defs><path class="cls-1" d="M9211.53963,2408.61369c0-8.21387,62.51563-15.6919,141.7666-15.6919l.07422.978-.78027-151.832-24.21582-1.01489" transform="translate(-9006.78963 -2097.61173)"/><path class="cls-2" d="M9211.53963,2408.61369c0-8.21387,62.51563-15.6919,141.7666-15.6919l.07422.978-.78027-151.832-24.21582-1.01489" transform="translate(-9006.78963 -2097.61173)"/><path class="cls-1" d="M9210.36776,2408.61369c0-8.21387-64.15235-15.804-143.40235-15.804v.447l.41211-151.59106,26.81934.40308" transform="translate(-9006.78963 -2097.61173)"/><path class="cls-2" d="M9210.36776,2408.61369c0-8.21387-64.15235-15.804-143.40235-15.804v.447l.41211-151.59106,26.81934.40308" transform="translate(-9006.78963 -2097.61173)"/><path class="cls-1" d="M9209.82967,2407.29582c0-15.66187-50.87793-28.73584-114.957-28.73584V2212.922h.06152c62.93262,0,113.8584,12.67187,113.8584,28.334" transform="translate(-9006.78963 -2097.61173)"/><path class="cls-2" d="M9209.82967,2407.29582c0-15.66187-50.87793-28.73584-114.957-28.73584V2212.922h.06152c62.93262,0,113.8584,12.67187,113.8584,28.334" transform="translate(-9006.78963 -2097.61173)"/><path class="cls-1" d="M9210.25545,2241.25578c0-15.66187,52.25977-28.334,116.84375-28.334v166.38208l-.001-.342c-63.873,0-115.56054,12.67212-115.56054,28.334h-.76758l-1.54785-166.03882" transform="translate(-9006.78963 -2097.61173)"/><path class="cls-2" d="M9210.25545,2241.25578c0-15.66187,52.25977-28.334,116.84375-28.334v166.38208l-.001-.342c-63.873,0-115.56054,12.67212-115.56054,28.334h-.76758l-1.54785-166.03882" transform="translate(-9006.78963 -2097.61173)"/><circle class="cls-3" cx="9210.75692" cy="2301.57859" r="198.96716" transform="translate(-7936.48322 5089.4937) rotate(-45)"/></svg>