<svg id="Слой_33" data-name="Слой 33" xmlns="http://www.w3.org/2000/svg" viewBox="0 0 407.93457 407.93384"><defs><style>.cls-1,.cls-3{fill:none;stroke-miterlimit:10;stroke-width:10px;}.cls-1{stroke:#72c5f6;}.cls-2{fill:#9debfc;}.cls-3{stroke:#76c3ed;}.cls-4{fill:#a6daf0;}</style></defs><circle class="cls-1" cx="11009.36105" cy="2301.57859" r="198.9668" transform="translate(-9208.28913 6361.29888) rotate(-45)"/><path class="cls-2" d="M10970.75192,2161.538h-61.10352v251.28492h226.07031V2353.55c-25.88281-30.771-135.85937-158.77906-164.96679-192.012m-8.9375,197.04078v-117.991l104.82226,117.991Z" transform="translate(-10805.39449 -2097.61173)"/><path class="cls-3" d="M10970.75192,2161.538h-61.10352v251.28492h226.07031V2353.55C11109.8359,2322.779,10999.85934,2194.77091,10970.75192,2161.538Zm-8.9375,197.04078v-117.991l104.82226,117.991Z" transform="translate(-10805.39449 -2097.61173)"/><line class="cls-4" x1="174.16992" y1="85.55273" x2="154.89844" y2="100.86987"/><line class="cls-3" x1="174.16992" y1="85.55273" x2="154.89844" y2="100.86987"/><line class="cls-4" x1="194.16895" y1="102.0022" x2="181.58398" y2="112.00537"/><line class="cls-3" x1="194.16895" y1="102.0022" x2="181.58398" y2="112.00537"/><line class="cls-4" x1="207.54199" y1="121.00513" x2="188.27051" y2="136.32227"/><line class="cls-3" x1="207.54199" y1="121.00513" x2="188.27051" y2="136.32227"/><line class="cls-4" x1="223.58203" y1="137.11548" x2="210.99609" y2="147.11865"/><line class="cls-3" x1="223.58203" y1="137.11548" x2="210.99609" y2="147.11865"/><line class="cls-4" x1="238.02441" y1="158.79224" x2="218.75293" y2="174.10938"/><line class="cls-3" x1="238.02441" y1="158.79224" x2="218.75293" y2="174.10938"/><line class="cls-4" x1="256.13086" y1="177.4646" x2="243.5459" y2="187.46777"/><line class="cls-3" x1="256.13086" y1="177.4646" x2="243.5459" y2="187.46777"/><line class="cls-4" x1="274.37598" y1="196.73804" x2="255.10449" y2="212.05518"/><line class="cls-3" x1="274.37598" y1="196.73804" x2="255.10449" y2="212.05518"/><line class="cls-4" x1="290.85547" y1="211.94946" x2="278.27051" y2="221.95264"/><line class="cls-3" x1="290.85547" y1="211.94946" x2="278.27051" y2="221.95264"/><line class="cls-4" x1="304.65527" y1="230.81543" x2="285.38477" y2="246.13257"/><line class="cls-3" x1="304.65527" y1="230.81543" x2="285.38477" y2="246.13257"/></svg>