<svg id="Слой_5" data-name="Слой 5" xmlns="http://www.w3.org/2000/svg" viewBox="0 0 407.93311 407.93324"><defs><style>.cls-1{fill:#72c5f6;}.cls-2{fill:none;stroke:#72c5f6;stroke-miterlimit:10;stroke-width:10px;}.cls-3{fill:#9debfc;}</style></defs><path class="cls-1" d="M2814.50377,599.383H2911.525c6.43453,0,6.44518-10,0-10h-97.02127c-6.43453,0-6.44518,10,0,10Z" transform="translate(-2659.04785 -229.20053)"/><circle class="cls-2" cx="203.96655" cy="203.96662" r="198.96658"/><path class="cls-1" d="M2790.30624,283.68264c-53.18934,29.91782-82.83962,91.05544-73.44113,151.35157,9.42352,60.45672,58.88115,108.32952,118.8692,118.25777a148.06558,148.06558,0,0,0,98.51267-17.9108c5.56528-3.22692.53627-11.87217-5.04719-8.63471-48.94328,28.37883-112.64961,23.72312-156.35656-12.63181-44.0561-36.64536-58.878-97.86207-38.68928-151.136a137.4554,137.4554,0,0,1,61.19948-70.66128c5.60939-3.15515.57429-11.79666-5.04719-8.63471Z" transform="translate(-2659.04785 -229.20053)"/><line class="cls-2" x1="203.96655" y1="365.18245" x2="203.96655" y2="321.19709"/><circle class="cls-3" cx="196.90355" cy="185.14362" r="110.59202"/><path class="cls-1" d="M2961.54342,414.34415c-.27319,43.83166-27.94652,84.3142-69.44389,99.2589a106.79247,106.79247,0,0,1-117.84667-32.32167c-28.3304-34.226-31.494-84.3388-8.35157-122.11,22.82625-37.25509,67.77139-57.06069,110.6766-48.41853,49.05051,9.88,84.65461,53.70644,84.96553,103.59129.04009,6.43254,10.04018,6.44666,10,0a116.91375,116.91375,0,0,0-75.5351-108.44279c-45.41293-16.98-98.57117-2.558-129.24041,34.94054-30.66016,37.48738-34.98866,91.5637-9.84115,133.16011,25.03018,41.40233,74.2242,62.95307,121.64283,53.70622,46.79328-9.12489,84.44216-48.28156,91.5594-95.44636a125.10624,125.10624,0,0,0,1.41443-17.91772C2971.58353,407.90815,2961.58358,407.901,2961.54342,414.34415Z" transform="translate(-2659.04785 -229.20053)"/><path class="cls-1" d="M2852.06372,307.40426c.22168.50577-.70874.83865-8.17017,8.1702-11.35986,11.1622-12.59008,13.71832-13.27661,15.82979a22.29735,22.29735,0,0,0,.51075,14.29788c.33862.96749,4.15551,11.51366,10.21264,11.234a7.40878,7.40878,0,0,0,6.12769-4.59575c1.64258-4.279-2.78223-7.15808-1.53174-10.7234,1.58105-4.50771,11.21069-7.19368,17.87231-4.0851,4.14209,1.93291,6.135,5.32068,9.19141,10.7234,2.50415,4.42662,4.69336,8.29654,4.08521,13.10639-.25538,2.02026-.71949,1.95375-5.10645,9.87233-4.73413,8.54526-5.75659,11.44381-9.19141,12.766-2.082.80144-2.56469.06674-4.93628,1.02127-3.813,1.53471-5.7539,4.71725-7.31909,7.14894-4.3872,6.8156-11.47363,17.82465-15.82983,16.85106-1.31055-.29289-1.69214-1.51785-3.9148-1.87233a8.06633,8.06633,0,0,0-4.76611.85106c-.44385.2135-5.052,2.56529-5.61694,7.65957a9.52056,9.52056,0,0,0,4.085,8.68085c4.25708,2.7545,8.52026-3.51578,15.31933-1.5319,2.3523.6864,5.45337,2.42056,5.617,4.59573.18969,2.523-3.7295,3.55229-3.57447,6.12767.14624,2.432,3.835,4.72984,7.07813,4.84383,1.38037.04852,2.24536-.31385,6.709-2.29064,4.05616-1.79631,6.08423-2.69446,6.64063-2.95614,5.73584-2.69715,15.81592,2.0442,35.74243,11.637,9.54956,4.59726,14.334,6.97245,14.80859,10.72342.37867,2.992-1.86254,4.10419-4.0852,10.72339-2.30078,6.85251-.94263,8.76877-2.55322,13.27661-2.17994,6.10138-6.1792,6.81906-13.78711,13.78723-9.969,9.13065-7.88745,12.28119-17.36182,20.93616-4.79053,4.37637-14.49487,13.24146-19.09106,10.72342-5.50245-3.01462,3.02221-18.67087.70825-46.46808a80.85494,80.85494,0,0,0-9.91675-33.07373c-7.25732-12.74971-13.70947-14.87773-16.63647-15.43692-2.93726-.56113-3.15088.29967-7.14893,0-11.82813-.88655-19.94214-9.16905-20.93628-10.21275-4.54858-4.7751-4.073-7.62366-8.68091-18.89363-7.92212-19.376-13.94385-22.24578-20.42554-42.383-1.7478-5.42984-2.62158-8.14477-2.553-9.70213C2771.56616,321.42618,2850.07568,302.866,2852.06372,307.40426Z" transform="translate(-2659.04785 -229.20053)"/><path class="cls-1" d="M2949.08521,377.36171c0,.00009-.919,1.54-13.78736,17.87233-10.93579,13.87945-16.04565,11.7924-16.85107,17.87234-1.0564,7.975,8.07568,8.99788,14.80859,26.55318,1.48706,3.87747,2.72022,8.20413,6.12769,9.1915,2.83447.82135,4.65991-1.39636,10.72339-2.55319,5.66308-1.08042,6.90625.31308,9.1914-.51062,10.1438-3.65629,5.87427-38.40279,1.532-57.70214-2.10693-9.36407-4.38134-15.75973-7.14892-15.82979C2951.9624,372.21184,2950.719,374.62373,2949.08521,377.36171Z" transform="translate(-2659.04785 -229.20053)"/><path class="cls-1" d="M2883.21265,310.97873c-3.6211,3.106.64965,13.2279,1.532,15.31914,1.404,3.32763,4.90259,11.61976,10.72339,11.74469,4.05005.08692,7.06665-3.82631,7.65967-4.59575a13.04044,13.04044,0,0,0,2.55322-9.70212C2904.084,313.76065,2887.64819,307.174,2883.21265,310.97873Z" transform="translate(-2659.04785 -229.20053)"/></svg>