<svg id="Слой_32" data-name="Слой 32" xmlns="http://www.w3.org/2000/svg" viewBox="0 0 407.93457 407.93384"><defs><style>.cls-1{fill:none;stroke:#72c5f6;}.cls-1,.cls-3{stroke-miterlimit:10;stroke-width:10px;}.cls-2,.cls-3{fill:#9debfc;}.cls-3{stroke:#76c3ed;}</style></defs><circle class="cls-1" cx="10559.70995" cy="2301.57859" r="198.9668" transform="translate(-8890.33779 6043.34754) rotate(-45)"/><path class="cls-2" d="M10442.70239,2319.8422c0,57.85718,48.209,104.68018,107.77539,104.68018" transform="translate(-10355.7434 -2097.61173)"/><path class="cls-3" d="M10442.70239,2319.8422c0,57.85718,48.209,104.68018,107.77539,104.68018" transform="translate(-10355.7434 -2097.61173)"/><path class="cls-2" d="M10550.47875,2424.52262c0-57.85693-48.21-104.67993-107.77636-104.67993" transform="translate(-10355.7434 -2097.61173)"/><path class="cls-3" d="M10550.47875,2424.52262c0-57.85693-48.21-104.67993-107.77636-104.67993" transform="translate(-10355.7434 -2097.61173)"/><path class="cls-2" d="M10660.259,2319.8422c0,57.85718-48.21094,104.68018-107.77637,104.68018" transform="translate(-10355.7434 -2097.61173)"/><path class="cls-3" d="M10660.259,2319.8422c0,57.85718-48.21094,104.68018-107.77637,104.68018" transform="translate(-10355.7434 -2097.61173)"/><path class="cls-2" d="M10552.48266,2424.52262c0-57.85693,48.209-104.67993,107.77539-104.67993" transform="translate(-10355.7434 -2097.61173)"/><path class="cls-3" d="M10552.48266,2424.52262c0-57.85693,48.209-104.67993,107.77539-104.67993" transform="translate(-10355.7434 -2097.61173)"/><path class="cls-2" d="M10640.40258,2231.17179c0,49.01514-39.0625,88.67017-87.35449,88.67017" transform="translate(-10355.7434 -2097.61173)"/><path class="cls-3" d="M10640.40258,2231.17179c0,49.01514-39.0625,88.67017-87.35449,88.67017" transform="translate(-10355.7434 -2097.61173)"/><path class="cls-2" d="M10553.04906,2319.8422c0-49.01489,39.06153-88.66992,87.35352-88.66992" transform="translate(-10355.7434 -2097.61173)"/><path class="cls-3" d="M10553.04906,2319.8422c0-49.01489,39.06153-88.66992,87.35352-88.66992" transform="translate(-10355.7434 -2097.61173)"/><path class="cls-2" d="M10463.12426,2231.17179c0,49.01514,39.0625,88.67017,87.35352,88.67017" transform="translate(-10355.7434 -2097.61173)"/><path class="cls-3" d="M10463.12426,2231.17179c0,49.01514,39.0625,88.67017,87.35352,88.67017" transform="translate(-10355.7434 -2097.61173)"/><path class="cls-2" d="M10550.47875,2319.8422c0-49.01489-39.0625-88.66992-87.35449-88.66992" transform="translate(-10355.7434 -2097.61173)"/><path class="cls-3" d="M10550.47875,2319.8422c0-49.01489-39.0625-88.66992-87.35449-88.66992" transform="translate(-10355.7434 -2097.61173)"/><path class="cls-2" d="M10556.32348,2139.66886c28.58887,30.78809,26.86035,74.02808-3.8418,96.676" transform="translate(-10355.7434 -2097.61173)"/><path class="cls-3" d="M10556.32348,2139.66886c28.58887,30.78809,26.86035,74.02808-3.8418,96.676" transform="translate(-10355.7434 -2097.61173)"/><path class="cls-2" d="M10552.48266,2236.3444c-28.58985-30.78784-26.86133-74.02783,3.84082-96.67578" transform="translate(-10355.7434 -2097.61173)"/><path class="cls-3" d="M10552.48266,2236.3444c-28.58985-30.78784-26.86133-74.02783,3.84082-96.67578" transform="translate(-10355.7434 -2097.61173)"/><line class="cls-2" x1="196.73926" y1="138.73267" x2="196.73926" y2="360.55688"/><line class="cls-3" x1="196.73926" y1="138.73267" x2="196.73926" y2="360.55688"/></svg>