<?xml version="1.0" encoding="UTF-8"?>
<svg id="_Слой_1" data-name="Слой 1" xmlns="http://www.w3.org/2000/svg" viewBox="0 0 227.24041 227.24102">
  <defs>
    <style>
      .cls-1 {
        fill: #9ceafb;
        stroke-miterlimit: 10;
      }

      .cls-1, .cls-2 {
        stroke: #72c4f5;
      }

      .cls-3 {
        fill: #72c4f5;
        font-family: ArialMT, Arial;
        font-size: 66.8456px;
      }

      .cls-2 {
        fill: none;
        stroke-miterlimit: 5.57;
        stroke-width: 5.57px;
      }
    </style>
  </defs>
  <circle class="cls-2" cx="113.62033" cy="113.62078" r="110.83522" transform="translate(-47.0634 113.62046) rotate(-45)"/>
  <path class="cls-1" d="M111.00005,121.65994h-54.00537c-5.65479,0-10.23877-4.58398-10.23877-10.23792v-54.00598c0-5.65405,4.58496-10.23901,10.23877-10.23901h54.00537c5.65381,0,10.23877,4.58496,10.23877,10.23901v54.00598c0,5.65393-4.58496,10.23792-10.23877,10.23792"/>
  <path class="cls-2" d="M58.0151,46.49618h54.00623c5.65093,0,10.23877,4.58784,10.23877,10.23877v54.00513c0,5.65107-4.58795,10.23901-10.23901,10.23901h-54.00513c-5.65093,0-10.23877-4.58784-10.23877-10.23877v-54.00623c0-5.65046,4.58746-10.23792,10.23792-10.23792Z"/>
  <path class="cls-1" d="M169.22982,180.74459h-54.00635c-5.65381,0-10.23779-4.58398-10.23779-10.23792v-54.00598c0-5.65405,4.58398-10.23901,10.23779-10.23901h54.00635c5.65381,0,10.23779,4.58496,10.23779,10.23901v54.00598c.00098,5.65393-4.58398,10.23792-10.23779,10.23792"/>
  <path class="cls-2" d="M169.22982,180.74459h-54.00635c-5.65381,0-10.23779-4.58398-10.23779-10.23792v-54.00598c0-5.65405,4.58398-10.23901,10.23779-10.23901h54.00635c5.65381,0,10.23779,4.58496,10.23779,10.23901v54.00598c.00098,5.65393-4.58398,10.23792-10.23779,10.23792Z"/>
  <line class="cls-2" x1="47.77719" y1="138.04709" x2="71.15609" y2="138.47018"/>
  <line class="cls-2" x1="156.0892" y1="90.4808" x2="179.46811" y2="90.9039"/>
  <text class="cls-3" transform="translate(122.25949 165.68271)"><tspan x="0" y="0">А</tspan></text>
  <path class="cls-2" d="M50.19467,135.99716c.25586,3.927,1.55371,21.58008,10.9458,31.9801,14.32715,15.85901,28.57617,13.11292,30.521,12.76697"/>
  <path class="cls-2" d="M177.10678,93.09347c-.25635-3.92688-1.5542-21.57996-10.94629-31.97998-14.32715-15.85901-28.57617-13.11292-30.521-12.76794"/>
  <line class="cls-2" x1="65.85922" y1="74.08139" x2="102.75814" y2="74.08139"/>
  <line class="cls-2" x1="85.01547" y1="74.08139" x2="85.01547" y2="57.18649"/>
  <path class="cls-2" d="M75.37338,74.08139c.16699,2.44507,1.00195,13.43604,7.07959,19.91406,9.26904,9.87695,18.48926,8.16699,19.74805,7.94897"/>
  <path class="cls-2" d="M93.63314,74.08139c-.16748,2.44507-1.00342,13.43604-7.08008,19.91406-9.26904,9.87695-18.48926,8.16699-19.74805,7.94897"/>
</svg>