<svg id="Слой_21" data-name="Слой 21" xmlns="http://www.w3.org/2000/svg" viewBox="0 0 407.93311 407.93324"><defs><style>.cls-1{fill:none;stroke:#72c5f6;stroke-miterlimit:10;stroke-width:10px;}.cls-2{fill:#9debfc;}.cls-3{fill:#72c5f6;}</style></defs><circle class="cls-1" cx="203.96655" cy="203.96662" r="198.96658"/><rect class="cls-2" x="216.61646" y="197.68876" width="75.11033" height="82.43619"/><path class="cls-2" d="M10160.30322,553.30491c5.75914-14.69937.28174-30.77117-11.59264-37.67591-14.2766-8.30159-32.50871-.27524-39.1251,10.30453-9.105,14.55881,7.051,28.732,0,44.76025-8.27451,18.80882-44.24961,30.494-71.00473,17.3889-30.80024-15.08639-39.59067-57.89235-24.63419-84.04628,8.55765-14.96454,27.17913-28.47844,43.79421-25.4393,20.55766,3.76034,30.91386,31.55763,30.91386,31.5576s-10.29384-27.82656-30.91386-31.5576c-16.7033-3.02234-34.94188,10.71485-43.79421,25.4393-13.7108,22.80544-4.458,47.23206-3.19064,50.41716,0,.00009.29329.67137,7.53783,16.24022-40.241,14.536-82.977-8.64772-92.74065-44.92127-8.44449-31.37147,9.15993-67.38424,42.92726-81.30776a66.06972,66.06972,0,0,0,6.34111,36.38648c-11.30443-23.35579-8.16783-50.26128,7.24545-66.65739,20.42141-21.72366,60.47118-22.95288,86.94456,2.89814a68.32769,68.32769,0,0,0-16.98089-12.17567c21.49389-13.65109,47.86934-14.62279,67.69863-2.31507,18.83116,11.68813,24.67067,30.95318,26.08309,36.22685a63.25617,63.25617,0,0,0-16.83771-29.02515c4.37859-1.13788,33.03618-8.06821,60.31,10.18719,27.72459,18.55726,31.97755,48.38651,32.52811,52.78583a70.42971,70.42971,0,0,0-27.18282-7.05462c-18.50139-.86082-32.90223,6.3519-32.87775,6.43544a66.12822,66.12822,0,0,1,31.645-6.48145c8.06852.36067,28.45483,1.272,39.35973,16.625,7.56092,10.645,6.83254,22.9798,6.52078,28.257-.67065,11.3539-4.9176,19.42759-7.72858,24.63427-10.33449,19.1427-26.593,29.61263-35.892,34.5395a103.88737,103.88737,0,0,0-1.46046-15.87118c-.56487-3.31818-1.25769-6.40686-2.01378-9.24936,6.4575,25.85905,3.07333,37.155-2.89827,42.02314-8.02372,6.54121-19.4935.58647-26.08356,7.24537-6.96417,7.037-3.07933,22.73342,3.083,37.86686q-15.46848.70958-30.93741,1.41914-20.287-21.41408-40.574-42.82819" transform="translate(-9879.44438 -305.70361)"/><path class="cls-3" d="M10165.12462,554.6341c5.05216-13.82653,2.08225-30.49689-9.51294-40.20474-11.55-9.67-28.369-9.07067-40.55717-.82748-5.33868,3.6107-10.00087,8.54048-12.10545,14.73906-2.17551,6.40749-.9751,13.1262.70372,19.49018,1.72555,6.54117,4.21567,13.48748,1.66,20.1641-2.03634,5.31985-6.63955,9.42727-11.34361,12.39063-23.77662,14.97823-57.56367,9.52829-72.80171-14.69077-13.63767-21.67546-12.9709-52.23069,6.07527-70.4688,11.72063-11.22336,28.96774-17.08469,42.2025-5.08333a54.9868,54.9868,0,0,1,10.75177,13.93059c1.08238,1.91992,2.072,3.8873,2.99241,5.88939a9.44981,9.44981,0,0,1,.64384,1.521c2.24785,5.96161,11.90744,3.39043,9.64279-2.6584-7.44153-19.87616-25.06991-39.80248-48.30758-34.75488-16.11257,3.49992-30.60622,16.85746-37.69528,31.43194-6.72031,13.81635-7.45727,29.75046-3.44506,44.47377,2.2096,8.10838,6.4281,15.67522,9.94829,23.241l2.98816-7.345c-25.676,8.98615-54.84968,2.77368-73.41032-17.553-17.69065-19.37393-19.36525-47.71013-6.4663-70.12306,7.72585-13.42426,19.72386-23.40064,33.916-29.4142l-7.5236-4.31735a72.6347,72.6347,0,0,0,7.02375,38.91008c2.78817,5.81438,11.35034.73822,8.63471-5.04719-11.34705-24.17389-6.87877-56.12651,18.23752-69.54029,22.4232-11.97549,50.33509-5.13509,68.09961,11.84017,4.65258,4.44587,11.72745-2.60515,7.07106-7.07107a77.61147,77.61147,0,0,0-17.99282-12.95749v8.6347c18.158-11.23855,41.50873-14.29084,60.64482-3.49668,12.99313,7.32907,21.92417,20.16331,25.7919,34.42031l9.64279-2.6584a70.70576,70.70576,0,0,0-18.12357-31.23149l-2.20633,8.35693c21.61354-5.55773,46.01577-.1539,62.85279,14.57235a70.85637,70.85637,0,0,1,19.00253,26.769,78.36685,78.36685,0,0,1,3.5025,11.00067c.3376,1.40556.638,2.82082.88917,4.24448.16582.93987.40147,2.66115.26191,1.56509l7.5236-4.31736c-12.59956-5.92292-26.292-8.89652-40.23259-7.40655-7.6694.81971-18.29,2.19562-24.87518,6.78738-4.32954,3.01893-1.854,11.16053,3.85279,9.13875,8.63-3.05739,16.401-6.10939,25.82094-6.34137,9.57924-.2359,20.00595.8181,28.64,5.21661,25.22,12.848,18.17887,45.71237,4.86673,64.58661-7.49366,10.62469-17.88149,18.87526-29.27551,24.97361l7.5236,4.31736a116.15588,116.15588,0,0,0-3.65284-26.44974c-1.61066-6.23419-11.16746-3.59852-9.64279,2.65839,2.26332,9.28821,4.80308,19.9149,2.659,29.48363-1.7167,7.66133-6.70341,9.47065-14.31527,9.78887-9.44.39464-18.09194,3.27524-20.519,13.4795-2.70219,11.36118,2.116,24,6.27644,34.38338l4.8214-6.3292-30.93741,1.41914,3.53553,1.46447-40.574-42.82819c-4.43511-4.68151-11.49789,2.39831-7.07107,7.07106q16.56772,17.48819,33.13544,34.97636c2.40205,2.53551,5.03552,6.30589,7.94453,8.24275,2.75228,1.8325,6.66879.90661,9.79708.76311l24.1699-1.1087c2.91157-.13356,6.09857-3.14169,4.82139-6.3292a101.92256,101.92256,0,0,1-5.94936-18.81175c-.77443-4.09812-1.72989-10.30694,1.26217-13.80963,3.04812-3.56831,9.36856-2.41281,13.532-2.80907,4.87829-.4643,9.62867-1.78714,13.3128-5.19434,12.11616-11.20538,7.08408-32.79226,3.74124-46.51058l-9.64279,2.65839a103.97307,103.97307,0,0,1,3.29563,23.79135,5.056,5.056,0,0,0,7.52359,4.31735c23.76778-12.72108,44.56054-36.34031,46.14123-64.25366.80806-14.2697-3.16048-28.74436-14.69169-37.98151-9.46707-7.58365-21.51947-10.26818-33.38527-10.99451a76.798,76.798,0,0,0-23.28339,1.98345,67.32938,67.32938,0,0,0-9.18146,3.01281c-1.01522.41414-2.02719.84351-3.02333,1.30212-.51859.23875-2.59541,1.01955-.33385.21834l3.85279,9.13875c5.14923-3.59049,13.81559-4.74459,19.828-5.42209a65.36473,65.36473,0,0,1,35.18539,6.04126c2.9851,1.40327,8.05062-.17839,7.5236-4.31735-2.5128-19.73447-12.42078-38.8189-27.7326-51.631a81.09168,81.09168,0,0,0-71.4347-16.16339,5.0461,5.0461,0,0,0-2.20634,8.35693,60.36713,60.36713,0,0,1,15.55185,26.81882c1.70659,6.19711,11.33279,3.57117,9.64279-2.6584-4.65905-17.17391-15.85986-32.75034-31.74661-41.13853-22.03926-11.63671-48.59359-8.62683-69.38009,4.2386-3.0459,1.8852-3.44326,6.84763,0,8.6347a68.24185,68.24185,0,0,1,15.969,11.39386l7.07106-7.07107c-17.03341-16.27664-40.91849-24.18579-64.19931-19.25742a56.41969,56.41969,0,0,0-44.2168,45.58352c-2.61,14.94475-.0356,29.83886,6.37321,43.49228l8.63471-5.04719a63.048,63.048,0,0,1-5.65846-33.86289c.43175-4.229-4.46344-5.614-7.52359-4.31736-27.803,11.78081-47.84353,39.72386-47.497,70.31985.33877,29.90767,21.14329,55.153,48.72686,65.0902a78.67249,78.67249,0,0,0,52.43627-.04227,5.09765,5.09765,0,0,0,2.98816-7.345q-3.352-7.2043-6.69581-14.41248c-.25419-.55017-.51843-1.097-.76213-1.652-.29588-.67386.57746,1.63094.05279.04964-3.31181-9.98147-4.85621-20.47009-2.66709-30.90345,3.09-14.72711,13.446-27.72617,26.8368-34.52734,11.817-6.0018,23.54446-3.66195,32.53209,5.79064a59.11575,59.11575,0,0,1,9.12782,13.05515q1.2135,2.27694,2.26793,4.63324a8.42856,8.42856,0,0,1,.52973,1.28036l9.64279-2.6584c-7.42275-19.68623-24.598-39.25838-47.60069-34.92272-15.57047,2.93481-29.80444,15.31754-37.05961,29.1003-6.01234,11.42174-7.98143,24.81335-6.52959,37.57122,3.24688,28.53165,22.82742,53.36025,52.20927,57.40961,24.572,3.38648,65.68036-8.97009,61.58091-40.62658-.98581-7.61253-5.26984-15.54072-4.23826-23.29453,1.10327-8.29267,9.67459-13.89732,17.12165-15.9422,8.61129-2.36457,17.84992.02841,23.42109,7.24065,5.9606,7.71637,6.34619,17.73325,3.101,26.61446-2.21212,6.054,7.44834,8.66407,9.6428,2.65839Z" transform="translate(-9879.44438 -305.70361)"/><path class="cls-3" d="M10089.93574,449.609c6.91-8.48229,18.32824-12.2364,28.54649-7.31447,9.549,4.59956,14.39834,15.40155,12.36541,25.6349-1.24858,6.28511,8.38794,8.97508,9.64279,2.65839,2.89677-14.58176-3.318-30.0544-16.961-36.928a33.35985,33.35985,0,0,0-40.66475,8.87811c-4.03114,4.94837,3.003,12.06478,7.07107,7.07107Z" transform="translate(-9879.44438 -305.70361)"/><path class="cls-3" d="M10140.82787,492.11515c15.83808,17.4948,43.47661,18.30129,60.68661,2.41512,4.73914-4.37459-2.346-11.43266-7.07107-7.07107-13.37252,12.34387-34.45378,10.9403-46.54448-2.41512-4.32839-4.78117-11.383,2.308-7.07106,7.07107Z" transform="translate(-9879.44438 -305.70361)"/><path class="cls-3" d="M9996.43813,432.05688c8.93767-3.54049,20.03009-4.18753,27.70955,2.60868,7.94838,7.03419,3.14128,17.27729-3.1098,23.65117-4.50978,4.59838,2.55561,11.67523,7.07107,7.07106,9.48725-9.67362,14.78372-24.75717,4.81649-36.05151-9.65433-10.93978-26.30483-12.00886-39.14571-6.92219-5.913,2.34233-3.33593,12.01733,2.6584,9.64279Z" transform="translate(-9879.44438 -305.70361)"/><path class="cls-3" d="M9951.66648,504.411c-3.82627,8.485-2.908,18.35362,4.002,25.0581,6.72008,6.5202,16.3251,7.25769,24.57484,3.519,5.85291-2.6525.7752-11.27338-5.04719-8.63471-9.39931,4.2597-19.14128-5.47868-14.895-14.89516,2.62453-5.82009-5.99059-10.9107-8.63471-5.04719Z" transform="translate(-9879.44438 -305.70361)"/><path class="cls-3" d="M10036.64022,527.5436c-1.03239,21.40487,20.49748,36.50434,39.72516,25.24841,5.55087-3.24948.52376-11.89595-5.04719-8.6347-12.89,7.54581-25.33973-2.8932-24.678-16.61371.31027-6.43293-9.69051-6.41683-10,0Z" transform="translate(-9879.44438 -305.70361)"/></svg>