<svg id="Слой_27" data-name="Слой 27" xmlns="http://www.w3.org/2000/svg" viewBox="0 0 407.93311 407.93384"><defs><style>.cls-1,.cls-3,.cls-6,.cls-8{fill:none;stroke-miterlimit:10;}.cls-1{stroke:#72c5f6;}.cls-1,.cls-3{stroke-width:10px;}.cls-2{fill:#9debfc;}.cls-3{stroke:#76c2ec;}.cls-4{fill:#a6daf0;}.cls-5{fill:#0f2233;}.cls-6{stroke:#0f2233;}.cls-7{fill:#73777c;}.cls-8{stroke:#73777c;}</style></defs><circle class="cls-1" cx="7861.80376" cy="2301.57859" r="198.96661" transform="translate(-6982.63039 4135.63978) rotate(-45)"/><path class="cls-2" d="M7990.29362,2403.42692h-256.979a20.12011,20.12011,0,0,1-20.28809-19.82495V2215.0861a20.1205,20.1205,0,0,1,20.28809-19.82617h256.979a20.12038,20.12038,0,0,1,20.2876,19.82617V2383.602a20.12,20.12,0,0,1-20.2876,19.82495" transform="translate(-7657.83757 -2097.61173)"/><path class="cls-3" d="M7990.29362,2403.42692h-256.979a20.12011,20.12011,0,0,1-20.28809-19.82495V2215.0861a20.1205,20.1205,0,0,1,20.28809-19.82617h256.979a20.12038,20.12038,0,0,1,20.2876,19.82617V2383.602A20.12,20.12,0,0,1,7990.29362,2403.42692Z" transform="translate(-7657.83757 -2097.61173)"/><line class="cls-4" x1="55.18945" y1="150.90503" x2="352.74316" y2="150.90503"/><line class="cls-3" x1="55.18945" y1="150.90503" x2="352.74316" y2="150.90503"/><rect class="cls-5" x="193.88867" y="169.25415" width="24.13379" height="23.58398"/><rect class="cls-6" x="193.88867" y="169.25415" width="24.13379" height="23.58398"/><rect class="cls-5" x="193.88867" y="169.25415" width="24.13379" height="23.58398"/><rect class="cls-6" x="193.88867" y="169.25415" width="24.13379" height="23.58398"/><rect class="cls-5" x="246.57471" y="169.12524" width="24.13477" height="23.58398"/><rect class="cls-6" x="246.57471" y="169.12524" width="24.13477" height="23.58398"/><rect class="cls-5" x="246.57471" y="169.12524" width="24.13477" height="23.58398"/><rect class="cls-6" x="246.57471" y="169.12524" width="24.13477" height="23.58398"/><rect class="cls-5" x="299.26367" y="169.25415" width="24.13379" height="23.58398"/><rect class="cls-6" x="299.26367" y="169.25415" width="24.13379" height="23.58398"/><rect class="cls-5" x="299.26367" y="169.25415" width="24.13379" height="23.58398"/><rect class="cls-6" x="299.26367" y="169.25415" width="24.13379" height="23.58398"/><rect class="cls-5" x="84.53564" y="214.09521" width="24.13379" height="23.58496"/><rect class="cls-6" x="84.53564" y="214.09521" width="24.13379" height="23.58496"/><rect class="cls-5" x="84.53564" y="214.09521" width="24.13379" height="23.58496"/><rect class="cls-6" x="84.53564" y="214.09521" width="24.13379" height="23.58496"/><rect class="cls-5" x="139.60449" y="211.61035" width="24.13477" height="23.58398"/><rect class="cls-6" x="139.60449" y="211.61035" width="24.13477" height="23.58398"/><rect class="cls-5" x="139.60449" y="211.61035" width="24.13477" height="23.58398"/><rect class="cls-6" x="139.60449" y="211.61035" width="24.13477" height="23.58398"/><rect class="cls-5" x="194.67578" y="211.61035" width="24.13379" height="23.58398"/><rect class="cls-6" x="194.67578" y="211.61035" width="24.13379" height="23.58398"/><rect class="cls-5" x="194.67578" y="211.61035" width="24.13379" height="23.58398"/><rect class="cls-6" x="194.67578" y="211.61035" width="24.13379" height="23.58398"/><rect class="cls-5" x="246.57471" y="211.61035" width="24.13477" height="23.58398"/><rect class="cls-6" x="246.57471" y="211.61035" width="24.13477" height="23.58398"/><rect class="cls-5" x="246.57471" y="211.61035" width="24.13477" height="23.58398"/><rect class="cls-6" x="246.57471" y="211.61035" width="24.13477" height="23.58398"/><rect class="cls-7" x="299.26367" y="211.61035" width="24.13379" height="23.58398"/><rect class="cls-8" x="299.26367" y="211.61035" width="24.13379" height="23.58398"/><rect class="cls-7" x="299.26367" y="211.61035" width="24.13379" height="23.58398"/><rect class="cls-8" x="299.26367" y="211.61035" width="24.13379" height="23.58398"/><rect class="cls-7" x="84.53564" y="259.06738" width="24.13379" height="23.58398"/><rect class="cls-8" x="84.53564" y="259.06738" width="24.13379" height="23.58398"/><rect class="cls-7" x="84.53564" y="259.06738" width="24.13379" height="23.58398"/><rect class="cls-8" x="84.53564" y="259.06738" width="24.13379" height="23.58398"/><rect class="cls-7" x="139.60449" y="259.06738" width="24.13477" height="23.58398"/><rect class="cls-8" x="139.60449" y="259.06738" width="24.13477" height="23.58398"/><rect class="cls-7" x="139.60449" y="259.06738" width="24.13477" height="23.58398"/><rect class="cls-8" x="139.60449" y="259.06738" width="24.13477" height="23.58398"/><rect class="cls-7" x="194.67578" y="259.06738" width="24.13379" height="23.58398"/><rect class="cls-8" x="194.67578" y="259.06738" width="24.13379" height="23.58398"/><rect class="cls-7" x="194.67578" y="259.06738" width="24.13379" height="23.58398"/><rect class="cls-8" x="194.67578" y="259.06738" width="24.13379" height="23.58398"/><rect class="cls-7" x="246.96973" y="259.06738" width="24.13477" height="23.58398"/><rect class="cls-8" x="246.96973" y="259.06738" width="24.13477" height="23.58398"/><rect class="cls-7" x="246.96973" y="259.06738" width="24.13477" height="23.58398"/><rect class="cls-8" x="246.96973" y="259.06738" width="24.13477" height="23.58398"/><rect class="cls-7" x="299.26367" y="259.06738" width="24.13379" height="23.58398"/><rect class="cls-8" x="299.26367" y="259.06738" width="24.13379" height="23.58398"/><rect class="cls-7" x="299.26367" y="259.06738" width="24.13379" height="23.58398"/><rect class="cls-8" x="299.26367" y="259.06738" width="24.13379" height="23.58398"/><path class="cls-7" d="M7969.26872,2227.89665h-.20215a8.74259,8.74259,0,0,1-8.71728-8.7168v-42.043a8.7418,8.7418,0,0,1,8.71728-8.71606h.20215a8.74117,8.74117,0,0,1,8.71582,8.71606v42.043a8.742,8.742,0,0,1-8.71582,8.7168" transform="translate(-7657.83757 -2097.61173)"/><path class="cls-8" d="M311.22754,70.80908h.20264a8.7168,8.7168,0,0,1,8.7168,8.7168v42.04175a8.71729,8.71729,0,0,1-8.71729,8.71729h-.2019a8.71606,8.71606,0,0,1-8.71606-8.71606V79.5249A8.71582,8.71582,0,0,1,311.22754,70.80908Z"/><path class="cls-7" d="M7754.54118,2225.95426h-.20215a8.74258,8.74258,0,0,1-8.71728-8.71679v-42.043a8.74181,8.74181,0,0,1,8.71728-8.71607h.20215a8.74118,8.74118,0,0,1,8.71582,8.71607v42.043a8.742,8.742,0,0,1-8.71582,8.71679" transform="translate(-7657.83757 -2097.61173)"/><path class="cls-8" d="M96.501,68.8667h.20117a8.71729,8.71729,0,0,1,8.71729,8.71729v42.04126a8.71729,8.71729,0,0,1-8.71729,8.71729h-.2019a8.71606,8.71606,0,0,1-8.71606-8.71606V77.5835A8.7168,8.7168,0,0,1,96.501,68.8667Z"/></svg>