<?xml version="1.0" encoding="UTF-8"?>
<svg id="_Слой_1" data-name="Слой 1" xmlns="http://www.w3.org/2000/svg" viewBox="0 0 227.23992 227.24102">
  <defs>
    <style>
      .cls-1 {
        stroke-width: 5.279px;
      }

      .cls-1, .cls-2, .cls-3, .cls-4, .cls-5, .cls-6, .cls-7, .cls-8, .cls-9 {
        stroke-miterlimit: 5.57;
      }

      .cls-1, .cls-2, .cls-3, .cls-4, .cls-6, .cls-7, .cls-8, .cls-9, .cls-10 {
        stroke: #72c4f5;
      }

      .cls-1, .cls-3, .cls-4, .cls-8 {
        fill: none;
      }

      .cls-2, .cls-3 {
        stroke-width: 2.671px;
      }

      .cls-2, .cls-6, .cls-7, .cls-9, .cls-10 {
        fill: #72c4f5;
      }

      .cls-4 {
        stroke-width: 4.412px;
      }

      .cls-11, .cls-5 {
        fill: #9ceafb;
      }

      .cls-11, .cls-12, .cls-13 {
        stroke-width: 0px;
      }

      .cls-5 {
        stroke: #9ceafb;
        stroke-width: 1.377px;
      }

      .cls-6 {
        stroke-width: 5.182px;
      }

      .cls-7 {
        stroke-width: 2.941px;
      }

      .cls-8 {
        stroke-width: 5.57px;
      }

      .cls-12 {
        fill: #718c09;
      }

      .cls-13 {
        fill: #aac419;
      }

      .cls-9 {
        stroke-width: 4.93px;
      }

      .cls-10 {
        stroke-miterlimit: 10;
      }
    </style>
  </defs>
  <circle class="cls-8" cx="113.62021" cy="113.62078" r="110.83526" transform="translate(-22.05051 199.71777) rotate(-77.39946)"/>
  <path class="cls-11" d="M158.28891,180.79086H59.6766c-2.9668,0-5.37207-2.40491-5.37207-5.37195v-106.50403c0-2.96692,2.40527-5.37195,5.37207-5.37195h98.6123c2.9668,0,5.37109,2.40503,5.37109,5.37195v106.50403c0,2.96704-2.4043,5.37195-5.37109,5.37195"/>
  <path class="cls-1" d="M59.67563,63.54293h98.6123c2.96493,0,5.37207,2.40714,5.37207,5.37207v106.50378c0,2.96493-2.40714,5.37207-5.37207,5.37207H59.67563c-2.96439,0-5.37109-2.40671-5.37109-5.37109v-106.50574c0-2.96439,2.40671-5.37109,5.37109-5.37109Z"/>
  <rect class="cls-10" x="84.0599" y="82.3818" width="50.73193" height="30.62903"/>
  <rect class="cls-9" x="84.0599" y="82.3818" width="50.73193" height="30.62903"/>
  <rect class="cls-10" x="84.0599" y="132.07687" width="50.73193" height="30.62903"/>
  <rect class="cls-6" x="84.0599" y="132.07687" width="50.73193" height="30.62903"/>
  <rect class="cls-10" x="145.61264" y="81.09689" width="8.22607" height="8.22595"/>
  <rect class="cls-2" x="145.61264" y="81.09689" width="8.22607" height="8.22595"/>
  <rect class="cls-10" x="145.61264" y="105.60189" width="8.22607" height="8.22595"/>
  <rect class="cls-2" x="145.61264" y="105.60189" width="8.22607" height="8.22595"/>
  <rect class="cls-10" x="145.61264" y="131.04391" width="7.1482" height="8.22595"/>
  <rect class="cls-3" x="145.61264" y="131.04391" width="8.22607" height="8.22595"/>
  <rect class="cls-12" x="145.61264" y="154.59787" width="8.22607" height="8.22595"/>
  <rect class="cls-2" x="145.61264" y="154.59787" width="8.22607" height="8.22595"/>
  <rect class="cls-10" x="65.11068" y="81.30294" width="8.22607" height="8.22595"/>
  <rect class="cls-3" x="65.11068" y="81.30294" width="8.22607" height="8.22595"/>
  <rect class="cls-10" x="65.11068" y="105.80893" width="8.22607" height="8.22595"/>
  <rect class="cls-3" x="65.11068" y="105.80893" width="8.22607" height="8.22595"/>
  <rect class="cls-10" x="65.11068" y="131.24997" width="8.22607" height="8.22595"/>
  <rect class="cls-3" x="65.11068" y="131.24997" width="8.22607" height="8.22595"/>
  <rect class="cls-10" x="65.11068" y="154.8049" width="8.22607" height="8.22595"/>
  <rect class="cls-3" x="65.11068" y="154.8049" width="8.22607" height="8.22595"/>
  <path class="cls-10" d="M132.09555,63.49167s1.40381-4.60596,4.25-6.25696c2.84668-1.65198,22.60352-9.35303,22.60352-9.35303l1.58984,3.84106-28.44336,11.76892Z"/>
  <path class="cls-7" d="M132.09555,63.49167s1.40381-4.60596,4.25-6.25696c2.84668-1.65198,22.60352-9.35303,22.60352-9.35303l1.58984,3.84106-28.44336,11.76892Z"/>
  <path class="cls-10" d="M148.65805,74.21981s3.71875-3.05798,4.15674-6.31995c.43799-3.26099,0-24.46301,0-24.46301h-4.15674v30.78296Z"/>
  <path class="cls-7" d="M148.65805,74.21981s3.71875-3.05798,4.15674-6.31995c.43799-3.26099,0-24.46301,0-24.46301h-4.15674v30.78296Z"/>
  <path class="cls-4" d="M156.7723,36.31674c0,3.28003-2.65918,5.93909-5.93848,5.93909-3.27979,0-5.93896-2.65906-5.93896-5.93909s2.65918-5.93896,5.93896-5.93896c3.2793,0,5.93848,2.65906,5.93848,5.93896Z"/>
  <path class="cls-4" d="M172.93637,46.10592c0,3.28003-2.65918,5.93909-5.93945,5.93909s-5.93945-2.65906-5.93945-5.93909,2.65918-5.93896,5.93945-5.93896,5.93945,2.65906,5.93945,5.93896Z"/>
  <path class="cls-13" d="M152.68734,53.89792c0,1.02405-.83008,1.85303-1.854,1.85303-1.02344,0-1.85303-.82898-1.85303-1.85303,0-1.02393.82959-1.85291,1.85303-1.85291,1.02393,0,1.854.82898,1.854,1.85291"/>
  <path class="cls-5" d="M152.68734,53.89792c0,1.02405-.83008,1.85303-1.854,1.85303-1.02344,0-1.85303-.82898-1.85303-1.85303,0-1.02393.82959-1.85291,1.85303-1.85291,1.02393,0,1.854.82898,1.854,1.85291Z"/>
</svg>