<svg id="Слой_18" data-name="Слой 18" xmlns="http://www.w3.org/2000/svg" viewBox="0 0 403.96411 407.93323"><defs><style>.cls-1{fill:#9debfc;}.cls-1,.cls-2{stroke:#72c5f6;stroke-miterlimit:10;stroke-width:10px;}.cls-2{fill:none;}</style></defs><path class="cls-1" d="M7447.34484,539.64794c16.88318-15.01575,42.11621-5.264,53.90869-24.63,7.67651-12.60669,1.43384-24.04724,13.49561-40.73169,7.0227-9.71423,10.60205-7.85962,16.34033-16.34045,12.50683-18.48407.7561-35.05524,8.17016-49.02124,7.252-13.66089,31.2168-21.761,53.24414-20.04523-20.86206-87.5639-99.59179-152.68573-193.54272-152.68573-109.88623,0-198.9668,89.08039-198.9668,198.96662s89.08057,198.96661,198.9668,198.96661a199.70136,199.70136,0,0,0,41.96033-4.44757C7426.13561,602.86187,7427.52868,557.27221,7447.34484,539.64794Zm-55.35449-40.90759c-38.1836-2.87922-64.17188-40.65076-59.39795-74.84736,5.8042-41.579,55.73877-68.22,92.23925-52.53259,25.08252,10.78015,39.97022,39.8935,36.79,67.40711C7457.79894,471.83312,7428.01134,501.45653,7391.99035,498.74035Z" transform="translate(-7194.99425 -231.19359)"/><path class="cls-2" d="M7447.34484,539.64794c16.88318-15.01575,42.11621-5.264,53.90869-24.63,7.67651-12.60669,1.43384-24.04724,13.49561-40.73169,7.0227-9.71423,10.60205-7.85962,16.34033-16.34045,12.50683-18.48407.7561-35.05524,8.17016-49.02124,3.40406-6.41254,10.49732-11.59772,19.33814-15.12317,2.50879-5.92468,3.82763-11.46381,1.48266-18.34759-5.56689-16.34168-22.354-14.87073-49.09057-32.87806-46.63379-31.40893-42.2555-68.47-69.99011-72.30194-26.63807-3.68091-33.02564,30.18427-73.36719,34.7309-35.01465,3.94641-51.16443-19.20349-70.68982-7.54035-14.15076,8.45252-7.31091,21.59241-26.40894,53.26795-17.89526,29.68011-31.16467,30.192-32.17382,47.18854-1.32056,22.2409,20.89367,29.90332,17.37915,51.16235-2.89454,17.507-19.20435,19.8443-18.65711,34.57111.49524,13.33221,13.97327,14.41467,26.81726,35.12646,15.09387,24.34088,6.217,38.54993,19.22315,47.90112,14.06347,10.11158,26.42627-5.07537,50.8,1.63666,28.834,7.94037,30.4635,36.04541,51.15832,36.57074,17.43823.44269,17.94959-19.18121,46.5238-28.91C7433.28856,561.05755,7438.46593,547.54473,7447.34484,539.64794Z" transform="translate(-7194.99425 -231.19359)"/><line class="cls-2" x1="221.17297" y1="93.01662" x2="242.76995" y2="103.64511"/><line class="cls-2" x1="110.28168" y1="141.35193" x2="127.15108" y2="124.18167"/><line class="cls-2" x1="112.73521" y1="258.92275" x2="97.10314" y2="240.61884"/><line class="cls-2" x1="202.76894" y1="316.20556" x2="183.00827" y2="329.95003"/><line class="cls-2" x1="294.80351" y1="264.64852" x2="270.78526" y2="263.06164"/><line class="cls-2" x1="312.87369" y1="189.26489" x2="296.09034" y2="172.01052"/></svg>