<svg id="Слой_28" data-name="Слой 28" xmlns="http://www.w3.org/2000/svg" viewBox="0 0 407.93311 407.93384"><defs><style>.cls-1{fill:#76c2ec;}.cls-2,.cls-3{fill:none;stroke-miterlimit:10;stroke-width:10px;}.cls-2{stroke:#76c2ec;}.cls-3{stroke:#72c5f6;}</style></defs><path class="cls-1" d="M8781.33751,2304.09855c0,12.29-10.22851,22.25317-22.84473,22.25317-12.61328,0-22.84179-9.96313-22.84179-22.25317,0-12.28979,10.22851-22.25293,22.84179-22.25293,12.61622,0,22.84473,9.96314,22.84473,22.25293" transform="translate(-8557.13976 -2097.61173)"/><path class="cls-2" d="M8781.33751,2304.09855c0,12.29-10.22851,22.25317-22.84473,22.25317-12.61328,0-22.84179-9.96313-22.84179-22.25317,0-12.28979,10.22851-22.25293,22.84179-22.25293C8771.109,2281.84562,8781.33751,2291.80876,8781.33751,2304.09855Z" transform="translate(-8557.13976 -2097.61173)"/><ellipse class="cls-2" cx="201.35474" cy="206.48688" rx="66.7688" ry="167.75214"/><ellipse class="cls-2" cx="201.35474" cy="206.48676" rx="172.19604" ry="65.04706"/><path class="cls-2" d="M8703.71935,2350.09367c66.81445,65.092,142.11718,97.26611,168.19238,71.864,26.07813-25.40283-6.95117-98.76294-73.76465-163.854-66.81836-65.0918-142.12012-97.26587-168.19482-71.864C8603.87609,2211.64274,8636.90294,2285.00187,8703.71935,2350.09367Z" transform="translate(-8557.13976 -2097.61173)"/><path class="cls-2" d="M8805.70861,2350.09367c-66.81543,65.092-142.11915,97.26611-168.19434,71.864-26.07568-25.40283,6.95117-98.76294,73.76709-163.854,66.81592-65.0918,142.11767-97.26587,168.19482-71.864C8905.55138,2211.64274,8872.52306,2285.00187,8805.70861,2350.09367Z" transform="translate(-8557.13976 -2097.61173)"/><path class="cls-3" d="M8960.07286,2301.57853c0,109.88623-89.08008,198.967-198.96875,198.967-109.88427,0-198.96435-89.08081-198.96435-198.967,0-109.886,89.08008-198.9668,198.96435-198.9668C8870.99278,2102.61173,8960.07286,2191.69254,8960.07286,2301.57853Z" transform="translate(-8557.13976 -2097.61173)"/></svg>