<svg id="Слой_20" data-name="Слой 20" xmlns="http://www.w3.org/2000/svg" viewBox="0 0 407.93311 407.93324"><defs><style>.cls-1{fill:#9debfc;}.cls-1,.cls-2{stroke:#72c5f6;stroke-miterlimit:10;stroke-width:10px;}.cls-2{fill:none;}</style></defs><path class="cls-1" d="M9130.799,633.325c-.05737-3.93543.04639-5.26972.04639-5.26981a28.82285,28.82285,0,0,0-.04639-4.46246,35.98033,35.98033,0,0,0-4.41455-13.846,33.94418,33.94418,0,0,0-7.12378-8.52829c-1.53271-1.36432-5.34253-4.5336-13.54492-7.92627-5.04346-2.08615-6.40478-2.04669-15.15039-4.61535-9.522-2.7967-15.896-4.70215-23.37744-8.52836-5.17163-2.64492-8.56421-4.42135-12.04-8.22729a24.73606,24.73606,0,0,1-5.61865-26.78888,27.83558,27.83558,0,0,1,6.2207-10.73566,28.32045,28.32045,0,0,1,10.33423-6.82266,29.12226,29.12226,0,0,1,13.7456-1.70566c3.97535.482,4.949,1.47238,11.9397,3.81269,3.29126,1.10183,2.60694.7254,13.846,3.81265,6.6499,1.82663,13.56982,2.84094,19.96631,5.418a36.72848,36.72848,0,0,0,10.13354,2.107,8.18464,8.18464,0,0,0,5.21729-.903,6.78753,6.78753,0,0,0,3.01-4.31436c.36157-2.37348-1.09082-4.232-2.5083-6.321-2.269-3.3439-3.80493-7.132-5.81934-10.63528-3.5437-6.16294-3.88476-12.36957-4.21387-18.36093a58.25515,58.25515,0,0,1,4.21387-24.4813,51.34577,51.34577,0,0,1,24.18042-27.3909,57.6809,57.6809,0,0,1,17.85913-6.321,54.899,54.899,0,0,1,17.35767-.301,53.71588,53.71588,0,0,1,17.25732,5.91964,60.24616,60.24616,0,0,1,31.304,45.04953c.72509,6.68457,1.5498,14.28659-2.30786,21.672-6.25806,11.98163-8.62842,15.04983-8.62867,15.05a8.737,8.737,0,0,0-1.8059,4.11364,6.97006,6.97006,0,0,0,1.2041,5.31766c1.7268,2.1337,4.51367,2.25516,5.719,2.30768,2.26807.09885,3.53223-.59473,7.02319-1.806,2.43946-.84634,4.95972-1.43915,7.42481-2.20734,6.00391-1.87112,7.00391-1.7814,16.85571-4.41467,8.53809-2.28207,14.749-4.11362,14.749-4.11368,6.97119-2.05578,8.41162-2.6448,11.63867-2.90963a29.30729,29.30729,0,0,1,12.24072,1.30432,29.66937,29.66937,0,0,1,18.96289,28.1936,27.03127,27.03127,0,0,1-4.61523,13.64526,31.09471,31.09471,0,0,1-10.6355,9.933c-4.37232,2.62753-6.56885,2.70443-16.655,5.51831-9.72437,2.71286-7.25513,2.522-21.47144,6.72235-12.03173,3.55487-13.28369,3.53882-17.157,5.61859-3.49951,1.87912-8.916,4.86713-13.14355,11.03671a34.81017,34.81017,0,0,0-5.01661,11.93958c-1.83154,7.281-.51074,10.492-1.2041,13.64529-2.56445,11.66046-30.56543,16.491-50.42944,16.76624C9151.184,650.77876,9130.85492,637.15953,9130.799,633.325Z" transform="translate(-8983.26417 -305.70361)"/><circle class="cls-2" cx="203.96655" cy="203.96662" r="198.96658"/><path class="cls-1" d="M9139.05941,425.658q1.06444,19.33348,2.12855,38.667c3.94672,3.339,22.48836,18.296,49.66393,16.67291a71.18991,71.18991,0,0,0,43.27862-18.44663q-.17757-19.15613-.35481-38.31224Q9186.41755,424.94852,9139.05941,425.658Z" transform="translate(-8983.26417 -305.70361)"/><path class="cls-1" d="M9251.04535,423.4066,9187.887,454.27183a5.38486,5.38486,0,0,1-4.80549-.03831l-60.88046-30.964a5.38484,5.38484,0,0,1,.0047-9.60183l62.09372-31.50461a5.38486,5.38486,0,0,1,4.88364.00545l61.94508,31.60337A5.38485,5.38485,0,0,1,9251.04535,423.4066Z" transform="translate(-8983.26417 -305.70361)"/><path class="cls-1" d="M9064.972,430.58984l10.76348,20.11936a1.37072,1.37072,0,0,0,1.03415.69314l24.06787,3.22629a1.24366,1.24366,0,0,1,.76121,2.16124L9084.183,472.45061a1.20756,1.20756,0,0,0-.395,1.12153l4.11128,22.11331a1.35368,1.35368,0,0,1-1.99287,1.33572l-21.527-10.44049a1.47614,1.47614,0,0,0-1.27829,0l-21.527,10.44049a1.35368,1.35368,0,0,1-1.99287-1.33572l4.11128-22.11331a1.20758,1.20758,0,0,0-.395-1.12153l-17.41568-15.66074a1.24366,1.24366,0,0,1,.76121-2.16124l24.06787-3.22629a1.37076,1.37076,0,0,0,1.03416-.69314l10.76347-20.11936A1.427,1.427,0,0,1,9064.972,430.58984Z" transform="translate(-8983.26417 -305.70361)"/><path class="cls-1" d="M9305.99324,430.58984l10.76347,20.11936a1.37076,1.37076,0,0,0,1.03416.69314l24.06787,3.22629a1.24366,1.24366,0,0,1,.76121,2.16124l-17.41567,15.66074a1.20756,1.20756,0,0,0-.395,1.12153l4.11128,22.11331a1.35367,1.35367,0,0,1-1.99287,1.33572l-21.52695-10.44049a1.47614,1.47614,0,0,0-1.27829,0l-21.52695,10.44049a1.35368,1.35368,0,0,1-1.99288-1.33572l4.11129-22.11331a1.20759,1.20759,0,0,0-.395-1.12153l-17.41567-15.66074a1.24366,1.24366,0,0,1,.76121-2.16124l24.06787-3.22629a1.37072,1.37072,0,0,0,1.03415-.69314l10.76348-20.11936A1.427,1.427,0,0,1,9305.99324,430.58984Z" transform="translate(-8983.26417 -305.70361)"/></svg>