<svg id="Слой_24" data-name="Слой 24" xmlns="http://www.w3.org/2000/svg" viewBox="0 0 407.93311 407.93324"><defs><style>.cls-1{fill:none;stroke-width:10px;}.cls-1,.cls-2{stroke:#72c5f6;stroke-miterlimit:10;}.cls-2,.cls-3{fill:#9debfc;}.cls-4{fill:#72c5f6;}</style></defs><circle class="cls-1" cx="203.96655" cy="203.96662" r="198.96658"/><rect class="cls-2" x="132.53448" y="159.80633" width="91.61579" height="46.67515"/><path class="cls-3" d="M11001.31709,532.32951a124.325,124.325,0,0,1-131.82606.37756V497.69558a125.36719,125.36719,0,0,0,131.82606-.01765V568.1173s-32.69144,17.67027-63.70558,18.29839c-33.95861.68775-68.43591-18.68285-68.43591-18.68285V460.3012" transform="translate(-10777.16651 -305.70361)"/><path class="cls-4" d="M10998.79349,528.01215a120.85579,120.85579,0,0,1-126.77886.37756l2.4764,4.31736V497.69558l-7.52359,4.31735a131.8938,131.8938,0,0,0,132.54012,2.53431c1.6854-.94731,4.00726-1.91443,5.34506-3.33377,2.56738-2.72387,1.46447-7.992,1.46447-11.40433V460.3012c0-6.43453-10-6.44518-10,0V568.1173l2.4764-4.31735c-19.314,10.38243-42.54866,18.003-64.57827,17.61911-21.37424-.37246-43.87565-7.59044-62.516-18.00357l2.47641,4.31735V460.3012c0-6.43453-10-6.44518-10,0V567.73284a5.01027,5.01027,0,0,0,2.4764,4.31736c20.17523,11.27054,44.42218,18.96561,67.56322,19.36886,23.7873.41451,48.7855-7.78167,69.62546-18.98441a4.98912,4.98912,0,0,0,2.47641-4.31735V460.3012c0-6.43453-10-6.44518-10,0v37.37673l2.4764-4.31735a121.889,121.889,0,0,1-126.77886.01764,5.04336,5.04336,0,0,0-7.5236,4.31736v25.28608c0,3.355-.788,7.8273.17861,11.0546.6424,2.14474,2.50992,3.13969,4.30078,4.202a131.97149,131.97149,0,0,0,25.35683,11.54132,129.21234,129.21234,0,0,0,80.75525.2782,132.23416,132.23416,0,0,0,28.75818-13.41091c5.44823-3.39928.43382-12.05445-5.04719-8.63471Z" transform="translate(-10777.16651 -305.70361)"/><path class="cls-3" d="M11001.31511,460.3012c-.2849-9.2983-37.02436-16.82676-66.06847-16.81986-28.97728.0069-65.78417,7.518-66.06907,16.81986-.28126,9.18525,35.05132,20.09417,66.863,19.92612C10966.95812,480.064,11001.59394,469.40058,11001.31511,460.3012Z" transform="translate(-10777.16651 -305.70361)"/><path class="cls-4" d="M11006.31511,460.3012c-.78333-7.89072-8.958-11.3351-15.52779-13.70634-10.6758-3.85323-22.16729-5.59334-33.40123-6.84029-24.08652-2.67356-49.71264-1.4959-73.0641,5.35444-6.64649,1.9498-17.0901,4.967-19.62379,12.41-2.3616,6.93741,4.143,12.16547,9.52369,15.09619,9.66346,5.26345,20.89326,7.97683,31.63955,9.88226a162.81507,162.81507,0,0,0,40.38022,2.3172c13.92159-1.0269,28.14936-3.41822,41.26047-8.33819,7.169-2.69019,18.46046-7.02824,18.813-16.17526.248-6.43565-9.75239-6.42492-10,0,.0313-.81211-.0274-.06314-.511.49725a12.30728,12.30728,0,0,1-2.94918,2.23906,51.93647,51.93647,0,0,1-10.50188,4.687,141.75774,141.75774,0,0,1-29.31175,6.44492c-21.46524,2.50754-43.92423.64637-64.45589-6.27929-4.09753-1.38216-12.9898-4.3164-14.48205-7.928.44707,1.082-.66111.91239.285.53919a22.73,22.73,0,0,0,2.30791-1.68311,43.70082,43.70082,0,0,1,9.68257-3.88606c19.11784-5.75607,39.97546-7.274,59.83469-6.12311a179.47279,179.47279,0,0,1,32.85859,4.73984,67.863,67.863,0,0,1,12.28213,3.99352c1.47211.68467,2.76375,1.58042,4.15967,2.37684.729.41593.93286,1.70808.80121.38194C10996.94495,466.64567,11006.95141,466.71083,11006.31511,460.3012Z" transform="translate(-10777.16651 -305.70361)"/><rect class="cls-2" x="132.53448" y="124.45283" width="91.61579" height="46.67515"/><path class="cls-3" d="M11001.31709,496.976a124.325,124.325,0,0,1-131.82606.37756V462.34207a125.36716,125.36716,0,0,0,131.82606-.01764v70.43936s-32.69144,17.67027-63.70558,18.29839c-33.95861.68776-68.43591-18.68285-68.43591-18.68285V424.94769" transform="translate(-10777.16651 -305.70361)"/><path class="cls-4" d="M10998.79349,492.65865a120.85581,120.85581,0,0,1-126.77886.37756l2.4764,4.31735V462.34207l-7.52359,4.31735a131.8938,131.8938,0,0,0,132.54012,2.53432c1.6854-.94732,4.00726-1.91443,5.34506-3.33378,2.56738-2.72387,1.46447-7.992,1.46447-11.40432V424.94769c0-6.43452-10-6.44518-10,0v107.8161l2.4764-4.31735c-19.314,10.38244-42.54866,18.003-64.57827,17.61912-21.37424-.37247-43.87565-7.59045-62.516-18.00358l2.47641,4.31735V424.94769c0-6.43452-10-6.44518-10,0V532.37933a5.01027,5.01027,0,0,0,2.4764,4.31736c20.17523,11.27055,44.42218,18.96562,67.56322,19.36887,23.7873.41451,48.7855-7.78168,69.62546-18.98441a4.98913,4.98913,0,0,0,2.47641-4.31736V424.94769c0-6.43452-10-6.44518-10,0v37.37674l2.4764-4.31736a121.889,121.889,0,0,1-126.77886.01765,5.04335,5.04335,0,0,0-7.5236,4.31735v25.28608c0,3.355-.788,7.8273.17861,11.05461.6424,2.14473,2.50992,3.13968,4.30078,4.202a131.97149,131.97149,0,0,0,25.35683,11.54132,129.21227,129.21227,0,0,0,80.75525.2782,132.2337,132.2337,0,0,0,28.75818-13.41091c5.44823-3.39928.43382-12.05444-5.04719-8.6347Z" transform="translate(-10777.16651 -305.70361)"/><path class="cls-3" d="M11001.31511,424.94769c-.2849-9.2983-37.02436-16.82675-66.06847-16.81985-28.97728.00689-65.78417,7.518-66.06907,16.81985-.28126,9.18525,35.05132,20.09417,66.863,19.92612C10966.95812,444.71048,11001.59394,434.04707,11001.31511,424.94769Z" transform="translate(-10777.16651 -305.70361)"/><path class="cls-4" d="M11006.31511,424.94769c-.78333-7.89072-8.958-11.3351-15.52779-13.70634-10.6758-3.85323-22.16729-5.59334-33.40123-6.84029-24.08652-2.67355-49.71264-1.4959-73.0641,5.35444-6.64649,1.9498-17.0901,4.967-19.62379,12.41-2.3616,6.93741,4.143,12.16548,9.52369,15.09619,9.66346,5.26346,20.89326,7.97683,31.63955,9.88226a162.81507,162.81507,0,0,0,40.38022,2.3172c13.92159-1.02689,28.14936-3.41822,41.26047-8.33818,7.169-2.6902,18.46046-7.02825,18.813-16.17527.248-6.43565-9.75239-6.42491-10,0,.0313-.81211-.0274-.06314-.511.49725a12.307,12.307,0,0,1-2.94918,2.23906,51.93706,51.93706,0,0,1-10.50188,4.687,141.75772,141.75772,0,0,1-29.31175,6.44491c-21.46524,2.50754-43.92423.64637-64.45589-6.27929-4.09753-1.38216-12.9898-4.3164-14.48205-7.928.44707,1.082-.66111.91239.285.53919a22.7314,22.7314,0,0,0,2.30791-1.6831,43.70037,43.70037,0,0,1,9.68257-3.88607c19.11784-5.75607,39.97546-7.274,59.83469-6.12311a179.47194,179.47194,0,0,1,32.85859,4.73985,67.86215,67.86215,0,0,1,12.28213,3.99351c1.47211.68467,2.76375,1.58043,4.15967,2.37684.729.41593.93286,1.70808.80121.38194C10996.94495,431.29217,11006.95141,431.35733,11006.31511,424.94769Z" transform="translate(-10777.16651 -305.70361)"/><rect class="cls-2" x="224.30793" y="204.33888" width="91.61579" height="46.67515"/><path class="cls-3" d="M11093.09053,576.86205a124.325,124.325,0,0,1-131.826.37756V542.22812a125.36715,125.36715,0,0,0,131.826-.01764v70.43936s-32.69144,17.67027-63.70557,18.29839c-33.95862.68776-68.43592-18.68285-68.43592-18.68285V504.83374" transform="translate(-10777.16651 -305.70361)"/><path class="cls-4" d="M11090.56694,572.5447a120.85583,120.85583,0,0,1-126.77887.37756l2.47641,4.31735V542.22812l-7.5236,4.31735a131.8938,131.8938,0,0,0,132.54012,2.53432c1.68541-.94732,4.00726-1.91443,5.34506-3.33378,2.56739-2.72387,1.46447-7.992,1.46447-11.40432V504.83374c0-6.43452-10-6.44518-10,0v107.8161l2.47641-4.31735c-19.314,10.38244-42.54867,18.003-64.57828,17.61912-21.37424-.37247-43.87565-7.59045-62.516-18.00358l2.4764,4.31735V504.83374c0-6.43452-10-6.44518-10,0V612.26538a5.01029,5.01029,0,0,0,2.4764,4.31736c20.17523,11.27055,44.42219,18.96562,67.56322,19.36887,23.7873.41451,48.78551-7.78168,69.62547-18.98441a4.98915,4.98915,0,0,0,2.4764-4.31736V504.83374c0-6.43452-10-6.44518-10,0v37.37674l2.47641-4.31736a121.889,121.889,0,0,1-126.77887.01765,5.04334,5.04334,0,0,0-7.52359,4.31735V567.5142c0,3.355-.78806,7.8273.1786,11.05461.6424,2.14473,2.50993,3.13968,4.30079,4.202a131.97121,131.97121,0,0,0,25.35683,11.54132,129.21223,129.21223,0,0,0,80.75524.2782,132.23377,132.23377,0,0,0,28.75819-13.41091c5.44822-3.39928.43382-12.05444-5.04719-8.6347Z" transform="translate(-10777.16651 -305.70361)"/><path class="cls-3" d="M11093.08856,504.83374c-.2849-9.2983-37.02437-16.82675-66.06847-16.81985-28.97728.00689-65.78418,7.518-66.06908,16.81985-.28126,9.18525,35.05132,20.09417,66.863,19.92612C11058.73157,524.59653,11093.36738,513.93312,11093.08856,504.83374Z" transform="translate(-10777.16651 -305.70361)"/><path class="cls-4" d="M11098.08856,504.83374c-.78334-7.89072-8.958-11.3351-15.52779-13.70634-10.67581-3.85323-22.16729-5.59334-33.40124-6.84029-24.08652-2.67355-49.71264-1.4959-73.06409,5.35444-6.6465,1.9498-17.09011,4.967-19.6238,12.41-2.36159,6.93741,4.143,12.16548,9.52369,15.09619,9.66347,5.26346,20.89326,7.97683,31.63956,9.88226a162.815,162.815,0,0,0,40.38021,2.3172c13.9216-1.02689,28.14937-3.41822,41.26048-8.33818,7.169-2.6902,18.46046-7.02825,18.813-16.17527.248-6.43565-9.75239-6.42491-10,0,.03129-.81211-.02741-.06314-.51105.49725a12.30677,12.30677,0,0,1-2.94917,2.23906,51.93755,51.93755,0,0,1-10.50188,4.687,141.75781,141.75781,0,0,1-29.31176,6.44491c-21.46524,2.50754-43.92423.64637-64.45589-6.27929-4.09753-1.38216-12.9898-4.3164-14.48205-7.928.44707,1.082-.66111.91239.285.53919a22.73018,22.73018,0,0,0,2.3079-1.6831,43.70037,43.70037,0,0,1,9.68257-3.88607c19.11784-5.75607,39.97547-7.27405,59.83469-6.12311a179.472,179.472,0,0,1,32.8586,4.73985,67.8624,67.8624,0,0,1,12.28213,3.99351c1.4721.68467,2.76374,1.58043,4.15966,2.37684.729.41593.93287,1.70808.80122.38194C11088.71839,511.17822,11098.72486,511.24338,11098.08856,504.83374Z" transform="translate(-10777.16651 -305.70361)"/></svg>