<svg id="Слой_27" data-name="Слой 27" xmlns="http://www.w3.org/2000/svg" viewBox="0 0 407.93311 407.93384"><defs><style>.cls-1,.cls-3,.cls-6,.cls-8{fill:none;stroke-miterlimit:10;}.cls-1{stroke:#72c5f6;}.cls-1,.cls-3{stroke-width:10px;}.cls-2{fill:#9debfc;}.cls-3{stroke:#76c2ec;}.cls-4{fill:#a6daf0;}.cls-5{fill:#0f2233;}.cls-6{stroke:#0f2233;}.cls-7{fill:#73777c;}.cls-8{stroke:#73777c;}</style></defs><circle class="cls-1" cx="7412.15315" cy="2301.57859" r="198.96686" transform="translate(-6664.67891 3817.68878) rotate(-45)"/><path class="cls-2" d="M7541.03609,2401.63737h-256.979a20.1201,20.1201,0,0,1-20.28808-19.82495V2213.29655a20.12049,20.12049,0,0,1,20.28808-19.82617h256.979a20.12038,20.12038,0,0,1,20.28759,19.82617v168.51587a20.12,20.12,0,0,1-20.28759,19.82495" transform="translate(-7208.18648 -2097.61173)"/><path class="cls-3" d="M7541.03609,2401.63737h-256.979a20.1201,20.1201,0,0,1-20.28808-19.82495V2213.29655a20.12049,20.12049,0,0,1,20.28808-19.82617h256.979a20.12038,20.12038,0,0,1,20.28759,19.82617v168.51587A20.12,20.12,0,0,1,7541.03609,2401.63737Z" transform="translate(-7208.18648 -2097.61173)"/><line class="cls-4" x1="54.7959" y1="145.53662" x2="352.34961" y2="145.53662"/><line class="cls-3" x1="54.7959" y1="145.53662" x2="352.34961" y2="145.53662"/><rect class="cls-5" x="193.49512" y="163.88525" width="24.13379" height="23.58398"/><rect class="cls-6" x="193.49512" y="163.88525" width="24.13379" height="23.58398"/><rect class="cls-5" x="193.49512" y="163.88525" width="24.13379" height="23.58398"/><rect class="cls-6" x="193.49512" y="163.88525" width="24.13379" height="23.58398"/><rect class="cls-7" x="246.18213" y="163.75732" width="24.13477" height="23.58398"/><rect class="cls-8" x="246.18213" y="163.75732" width="24.13477" height="23.58398"/><rect class="cls-7" x="246.18213" y="163.75732" width="24.13477" height="23.58398"/><rect class="cls-8" x="246.18213" y="163.75732" width="24.13477" height="23.58398"/><rect class="cls-7" x="298.86914" y="163.88525" width="24.13379" height="23.58398"/><rect class="cls-8" x="298.86914" y="163.88525" width="24.13379" height="23.58398"/><rect class="cls-7" x="298.86914" y="163.88525" width="24.13379" height="23.58398"/><rect class="cls-8" x="298.86914" y="163.88525" width="24.13379" height="23.58398"/><rect class="cls-7" x="84.14307" y="208.72729" width="24.13379" height="23.58496"/><rect class="cls-8" x="84.14307" y="208.72729" width="24.13379" height="23.58496"/><rect class="cls-7" x="84.14307" y="208.72729" width="24.13379" height="23.58496"/><rect class="cls-8" x="84.14307" y="208.72729" width="24.13379" height="23.58496"/><rect class="cls-7" x="139.21094" y="206.24219" width="24.13477" height="23.58398"/><rect class="cls-8" x="139.21094" y="206.24219" width="24.13477" height="23.58398"/><rect class="cls-7" x="139.21094" y="206.24219" width="24.13477" height="23.58398"/><rect class="cls-8" x="139.21094" y="206.24219" width="24.13477" height="23.58398"/><rect class="cls-7" x="194.28223" y="206.24219" width="24.13379" height="23.58398"/><rect class="cls-8" x="194.28223" y="206.24219" width="24.13379" height="23.58398"/><rect class="cls-7" x="194.28223" y="206.24219" width="24.13379" height="23.58398"/><rect class="cls-8" x="194.28223" y="206.24219" width="24.13379" height="23.58398"/><rect class="cls-7" x="246.18213" y="206.24219" width="24.13477" height="23.58398"/><rect class="cls-8" x="246.18213" y="206.24219" width="24.13477" height="23.58398"/><rect class="cls-7" x="246.18213" y="206.24219" width="24.13477" height="23.58398"/><rect class="cls-8" x="246.18213" y="206.24219" width="24.13477" height="23.58398"/><rect class="cls-7" x="298.86914" y="206.24219" width="24.13379" height="23.58398"/><rect class="cls-8" x="298.86914" y="206.24219" width="24.13379" height="23.58398"/><rect class="cls-7" x="298.86914" y="206.24219" width="24.13379" height="23.58398"/><rect class="cls-8" x="298.86914" y="206.24219" width="24.13379" height="23.58398"/><rect class="cls-7" x="84.14307" y="253.69824" width="24.13379" height="23.58398"/><rect class="cls-8" x="84.14307" y="253.69824" width="24.13379" height="23.58398"/><rect class="cls-7" x="84.14307" y="253.69824" width="24.13379" height="23.58398"/><rect class="cls-8" x="84.14307" y="253.69824" width="24.13379" height="23.58398"/><rect class="cls-7" x="139.21094" y="253.69824" width="24.13477" height="23.58398"/><rect class="cls-8" x="139.21094" y="253.69824" width="24.13477" height="23.58398"/><rect class="cls-7" x="139.21094" y="253.69824" width="24.13477" height="23.58398"/><rect class="cls-8" x="139.21094" y="253.69824" width="24.13477" height="23.58398"/><rect class="cls-7" x="194.28223" y="253.69824" width="24.13379" height="23.58398"/><rect class="cls-8" x="194.28223" y="253.69824" width="24.13379" height="23.58398"/><rect class="cls-7" x="194.28223" y="253.69824" width="24.13379" height="23.58398"/><rect class="cls-8" x="194.28223" y="253.69824" width="24.13379" height="23.58398"/><rect class="cls-7" x="246.5752" y="253.69824" width="24.13477" height="23.58398"/><rect class="cls-8" x="246.5752" y="253.69824" width="24.13477" height="23.58398"/><rect class="cls-7" x="246.5752" y="253.69824" width="24.13477" height="23.58398"/><rect class="cls-8" x="246.5752" y="253.69824" width="24.13477" height="23.58398"/><rect class="cls-7" x="298.86914" y="253.69824" width="24.13379" height="23.58398"/><rect class="cls-8" x="298.86914" y="253.69824" width="24.13379" height="23.58398"/><rect class="cls-7" x="298.86914" y="253.69824" width="24.13379" height="23.58398"/><rect class="cls-8" x="298.86914" y="253.69824" width="24.13379" height="23.58398"/><path class="cls-7" d="M7519.22359,2222.52824h-.20215a8.74259,8.74259,0,0,1-8.71729-8.7168v-42.043a8.7418,8.7418,0,0,1,8.71729-8.71606h.20215a8.74118,8.74118,0,0,1,8.71582,8.71606v42.043a8.742,8.742,0,0,1-8.71582,8.7168" transform="translate(-7208.18648 -2097.61173)"/><path class="cls-8" d="M310.83447,65.44067h.20117a8.71729,8.71729,0,0,1,8.71729,8.71729v42.04248a8.71606,8.71606,0,0,1-8.71606,8.71606h-.20313a8.71606,8.71606,0,0,1-8.71606-8.71606v-42.043a8.7168,8.7168,0,0,1,8.7168-8.7168Z"/><path class="cls-7" d="M7304.49605,2220.58586h-.20215a8.7426,8.7426,0,0,1-8.71729-8.7168v-42.043a8.74181,8.74181,0,0,1,8.71729-8.71606h.20215a8.74118,8.74118,0,0,1,8.71582,8.71606v42.043a8.742,8.742,0,0,1-8.71582,8.7168" transform="translate(-7208.18648 -2097.61173)"/><path class="cls-8" d="M96.106,63.49829h.20264a8.7168,8.7168,0,0,1,8.7168,8.7168v42.043a8.71606,8.71606,0,0,1-8.71606,8.71606H96.1062a8.71606,8.71606,0,0,1-8.71606-8.71606V72.21411A8.71582,8.71582,0,0,1,96.106,63.49829Z"/></svg>