<?xml version="1.0" encoding="UTF-8"?>
<svg id="_Слой_1" data-name="Слой 1" xmlns="http://www.w3.org/2000/svg" viewBox="0 0 227.23852 227.23931">
  <defs>
    <style>
      .cls-1 {
        fill: #dbeeff;
        stroke-width: 0px;
      }

      .cls-2 {
        fill: none;
        stroke: #82acf6;
        stroke-miterlimit: 5.57;
        stroke-width: 5.57px;
      }
    </style>
  </defs>
  <path class="cls-1" d="M155.09384,49.36319h-71.60791c-2.26709,0-4.11108,2.18384-4.11108,4.86792v89.85205c0,2.72388-1.88306,4.87402-4.17798,4.8689h-.04492c-11.9541,0-21.64697,7.68701-21.64697,17.16797,0,9.46997,9.68799,17.15698,21.64697,17.15698,11.95483,0,21.64697-7.68701,21.64697-17.15698,0-.33984-.01611-.67383-.04492-1.00806h.04492l-.72998-49.46582c-.03906-2.55713,2.02783-4.65112,4.58496-4.65112h37.53906c2.48999,0,4.52393,1.98218,4.58496,4.47217l.69092,27.6748c0,2.77905-1.96094,5.0022-4.30103,4.86304-.52881-.03394-1.06885-.04492-1.60986-.04492-11.94897,0-21.64697,7.67603-21.64697,17.15698,0,9.46997,9.69897,17.15698,21.64697,17.15698,11.95386,0,21.64697-7.68701,21.64697-17.15698V54.23111c0-2.68994-1.83813-4.86792-4.11108-4.86792M101.389,89.65396c-2.53418,0-4.58423-2.0498-4.58423-4.58398v-9.30298c0-2.69092,1.83813-4.8689,4.11011-4.8689h38.448c2.26709,0,4.11108,2.18408,4.11108,4.8689v9.30298c0,2.53418-2.05615,4.58398-4.58496,4.58398h-37.5Z"/>
  <path class="cls-2" d="M155.09384,49.36319h-71.60791c-2.26709,0-4.11108,2.18384-4.11108,4.86792v89.85205c0,2.72388-1.88306,4.87402-4.17798,4.8689h-.04492c-11.9541,0-21.64697,7.68701-21.64697,17.16797,0,9.46997,9.68799,17.15698,21.64697,17.15698,11.95483,0,21.64697-7.68701,21.64697-17.15698,0-.33984-.01611-.67383-.04492-1.00806h.04492l-.72998-49.46582c-.03906-2.55713,2.02783-4.65112,4.58496-4.65112h37.53906c2.48999,0,4.52393,1.98218,4.58496,4.47217l.69092,27.6748c0,2.77905-1.96094,5.0022-4.30103,4.86304-.52881-.03394-1.06885-.04492-1.60986-.04492-11.94897,0-21.64697,7.67603-21.64697,17.15698,0,9.46997,9.69897,17.15698,21.64697,17.15698,11.95386,0,21.64697-7.68701,21.64697-17.15698V54.23111c0-2.68994-1.83813-4.86792-4.11108-4.86792ZM101.389,89.65396c-2.53418,0-4.58423-2.0498-4.58423-4.58398v-9.30298c0-2.69092,1.83813-4.8689,4.11011-4.8689h38.448c2.26709,0,4.11108,2.18408,4.11108,4.8689v9.30298c0,2.53418-2.05615,4.58398-4.58496,4.58398h-37.5Z"/>
  <path class="cls-2" d="M35.2474,35.24795c43.28394-43.28394,113.45996-43.28394,156.7439,0,43.28296,43.2832,43.28296,113.46021,0,156.74414-43.28394,43.28296-113.45996,43.28296-156.7439,0-43.2832-43.28394-43.2832-113.45996,0-156.74414Z"/>
</svg>