<?xml version="1.0" encoding="UTF-8"?>
<svg id="_Слой_1" data-name="Слой 1" xmlns="http://www.w3.org/2000/svg" viewBox="0 0 227.23925 227.23931">
  <defs>
    <style>
      .cls-1 {
        fill: #dbeeff;
        stroke-width: 0px;
      }

      .cls-2 {
        fill: none;
        stroke: #82acf6;
        stroke-miterlimit: 5.57;
        stroke-width: 5.57px;
      }
    </style>
  </defs>
  <path class="cls-1" d="M55.30624,102.29605c.8689,15.7981,1.73779,31.59009,2.60693,47.38818,4.83496,4.09399,27.56299,22.4209,60.86304,20.43188,28.93896-1.72583,47.69995-17.71387,53.03589-22.60498-.14404-15.65308-.28906-31.30005-.43408-46.95288-38.68701.57886-77.37988,1.15894-116.07178,1.73779"/>
  <path class="cls-2" d="M55.30624,102.29605c.8689,15.7981,1.73779,31.59009,2.60693,47.38818,4.83496,4.09399,27.56299,22.4209,60.86304,20.43188,28.93896-1.72583,47.69995-17.71387,53.03589-22.60498-.14404-15.65308-.28906-31.30005-.43408-46.95288-38.68701.57886-77.37988,1.15894-116.07178,1.73779Z"/>
  <path class="cls-1" d="M192.55136,99.53872l-77.4021,37.82324c-1.86011.90796-4.04395.89185-5.88794-.04419l-74.61011-37.94604c-4.81299-2.4458-4.80786-9.32495.00513-11.76489l76.0979-38.60889c1.88306-.95215,4.10596-.95215,5.98291.00586l75.91406,38.73096c4.84692,2.46802,4.78491,9.41406-.09985,11.80396"/>
  <path class="cls-2" d="M192.55136,99.53872l-77.4021,37.82324c-1.86011.90796-4.04395.89185-5.88794-.04419l-74.61011-37.94604c-4.81299-2.4458-4.80786-9.32495.00513-11.76489l76.0979-38.60889c1.88306-.95215,4.10596-.95215,5.98291.00586l75.91406,38.73096c4.84692,2.46802,4.78491,9.41406-.09985,11.80396Z"/>
  <path class="cls-1" d="M99.25717,105.23721c.30078-.37891.78589-.98584,1.41479-1.70483.87402-1.00195,1.125-1.19214,1.95508-2.16113.71289-.83496,1.15894-1.43188,1.58203-2,.84106-1.13086,1.01392-1.48096,1.10889-1.69287.4231-.94116.51221-1.76001.52905-1.92798.03296-.36206,0-.33911,0-1.66504,0-1.125.02808-1.08105,0-1.34814-.11694-1.04199-.52393-1.75977-.61304-1.91577-.35596-.61304-.76904-.98608-.98584-1.18115-.21118-.18994-.74097-.62402-1.87109-1.0979-.69702-.28906-.88599-.28394-2.09497-.64014-1.31396-.38501-2.19409-.65186-3.23096-1.18091-.71216-.36792-1.18018-.61304-1.66504-1.13696-.26196-.28394-.80811-.896-.96997-1.86011-.13916-.81885.06689-1.47095.19482-1.84399.10107-.29492.30713-.89697.85815-1.48193.12793-.13892.6189-.62891,1.42603-.94092.27295-.1062.99194-.34521,1.8999-.23413.552.06714.68506.20093,1.64893.52905.45605.15088.36206.1001,1.91602.52905.91919.25098,1.8772.396,2.76318.74683,0,0,.57886.23413,1.40381.28906.26099.01709.49512.01709.71802-.12207.02808-.01685.36206-.229.41797-.59595.05005-.32886-.1499-.58496-.34497-.875-.31201-.46191-.52393-.98584-.802-1.46997-.49097-.85303-.53491-1.70996-.58496-2.54004-.02295-.38501-.06689-1.76587.58496-3.38696.18311-.46289.56201-1.37598,1.41406-2.30103.76904-.83496,1.53809-1.27002,1.92798-1.48193,1.08008-.59595,2.03296-.7959,2.46802-.87402,1.21411-.21191,2.16113-.07788,2.40015-.03906,1.11377.17212,1.8999.56812,2.38477.81909.46216.23901,1.27002.66187,2.07715,1.49805.78589.80786,1.17603,1.58789,1.41504,2.06689.27905.56201.69604,1.43115.82983,2.66211.10107.92505.21216,1.97803-.31689,2.99683-.86304,1.65503-1.19189,2.07812-1.19189,2.07812-.04517.05591-.20605.26709-.25122.56787-.01099.08911-.06079.45117.16699.73608.24023.29492.62402.31201.79102.31714.31201.01099.48999-.08423.96899-.25122.33521-.11597.68604-.19995,1.02515-.30591.83008-.25586.96997-.24487,2.32886-.61304,1.18115-.31689,2.03906-.56787,2.03906-.56787.96313-.28418,1.16406-.36719,1.61011-.40112.323-.02783.94702-.07202,1.69287.17798.86304.29004,1.37598.80298,1.48706.91406.47412.48413.67407.9751.802,1.29199.13989.34595.36792.92505.33496,1.69409-.04492.9519-.46289,1.61499-.64087,1.88794-.50708.78589-1.14697,1.18091-1.47021,1.36987-.60181.36304-.90796.37402-2.30078.76318-1.34302.37402-1.00317.35205-2.96899.93091-1.66602.48999-1.83813.48999-2.37305.77393-.48511.26221-1.23096.67407-1.81616,1.52612-.43994.64087-.58984,1.24805-.6958,1.64893-.22314.88013-.18921,1.59912-.16699,1.88916.03296.41187.13892,1.25879.61279,2.17798.32812.646.60107.87402,1.30322,1.70386.30591.36206.85181,1.09814,1.94385,2.56812,1.02515,1.37598.82495,1.16382,2.07812,2.8689.29492.40112.72388,1.00806,1.58203,2.21704.70776,1.00293.875,1.24805,1.01392,1.677.35107,1.10303.10498,2.07788.01099,2.38403-.10596.35693-.37305,1.21997-1.21997,1.91602-.802.65796-1.66602.79102-2.07812.81885-1.10303.07812-1.91602-.36182-2.32788-.59595-.35107-.19507-.58496-.38403-1.66602-1.47095-.90796-.90796-1.35913-1.36401-1.95508-2.01099-1.32593-1.43701-2.18896-2.43896-2.18896-2.43896-.72998-.84204-1.02002-1.20898-1.63794-1.56616-.26807-.15601-.85815-.48999-1.69409-.56787-1.07495-.1001-1.88794.28394-2.16089.41797-.48999.23901-.54614.38403-1.89917,1.61011-1.04785.94702-1.0249.87402-1.83301,1.62085-.42285.39014-.38989.37817-1.677,1.63794-1.15283,1.125-1.53198,1.48706-2.11084,1.927-.62402.48511-.94702.73022-1.44312.9021-.99097.35107-1.85498.17896-2.07788.12305-.22803-.05005-1.13013-.27905-1.91602-1.09814-.85205-.89087-1.00806-1.91577-1.05298-2.23291-.05005-.35693-.12817-1.27002.33496-2.27295.25586-.552.59497-.94702.8291-1.18115"/>
  <path class="cls-2" d="M99.25717,105.23721c.30078-.37891.78589-.98584,1.41479-1.70483.87402-1.00195,1.125-1.19214,1.95508-2.16113.71289-.83496,1.15894-1.43188,1.58203-2,.84106-1.13086,1.01392-1.48096,1.10889-1.69287.4231-.94116.51221-1.76001.52905-1.92798.03296-.36206,0-.33911,0-1.66504,0-1.125.02808-1.08105,0-1.34814-.11694-1.04199-.52393-1.75977-.61304-1.91577-.35596-.61304-.76904-.98608-.98584-1.18115-.21118-.18994-.74097-.62402-1.87109-1.0979-.69702-.28906-.88599-.28394-2.09497-.64014-1.31396-.38501-2.19409-.65186-3.23096-1.18091-.71216-.36792-1.18018-.61304-1.66504-1.13696-.26196-.28394-.80811-.896-.96997-1.86011-.13916-.81885.06689-1.47095.19482-1.84399.10107-.29492.30713-.89697.85815-1.48193.12793-.13892.6189-.62891,1.42603-.94092.27295-.1062.99194-.34521,1.8999-.23413.552.06714.68506.20093,1.64893.52905.45605.15088.36206.1001,1.91602.52905.91919.25098,1.8772.396,2.76318.74683,0,0,.57886.23413,1.40381.28906.26099.01709.49512.01709.71802-.12207.02808-.01685.36206-.229.41797-.59595.05005-.32886-.1499-.58496-.34497-.875-.31201-.46191-.52393-.98584-.802-1.46997-.49097-.85303-.53491-1.70996-.58496-2.54004-.02295-.38501-.06689-1.76587.58496-3.38696.18311-.46289.56201-1.37598,1.41406-2.30103.76904-.83496,1.53809-1.27002,1.92798-1.48193,1.08008-.59595,2.03296-.7959,2.46802-.87402,1.21411-.21191,2.16113-.07788,2.40015-.03906,1.11377.17212,1.8999.56812,2.38477.81909.46216.23901,1.27002.66187,2.07715,1.49805.78589.80786,1.17603,1.58789,1.41504,2.06689.27905.56201.69604,1.43115.82983,2.66211.10107.92505.21216,1.97803-.31689,2.99683-.86304,1.65503-1.19189,2.07812-1.19189,2.07812-.04517.05591-.20605.26709-.25122.56787-.01099.08911-.06079.45117.16699.73608.24023.29492.62402.31201.79102.31714.31201.01099.48999-.08423.96899-.25122.33521-.11597.68604-.19995,1.02515-.30591.83008-.25586.96997-.24487,2.32886-.61304,1.18115-.31689,2.03906-.56787,2.03906-.56787.96313-.28418,1.16406-.36719,1.61011-.40112.323-.02783.94702-.07202,1.69287.17798.86304.29004,1.37598.80298,1.48706.91406.47412.48413.67407.9751.802,1.29199.13989.34595.36792.92505.33496,1.69409-.04492.9519-.46289,1.61499-.64087,1.88794-.50708.78589-1.14697,1.18091-1.47021,1.36987-.60181.36304-.90796.37402-2.30078.76318-1.34302.37402-1.00317.35205-2.96899.93091-1.66602.48999-1.83813.48999-2.37305.77393-.48511.26221-1.23096.67407-1.81616,1.52612-.43994.64087-.58984,1.24805-.6958,1.64893-.22314.88013-.18921,1.59912-.16699,1.88916.03296.41187.13892,1.25879.61279,2.17798.32812.646.60107.87402,1.30322,1.70386.30591.36206.85181,1.09814,1.94385,2.56812,1.02515,1.37598.82495,1.16382,2.07812,2.8689.29492.40112.72388,1.00806,1.58203,2.21704.70776,1.00293.875,1.24805,1.01392,1.677.35107,1.10303.10498,2.07788.01099,2.38403-.10596.35693-.37305,1.21997-1.21997,1.91602-.802.65796-1.66602.79102-2.07812.81885-1.10303.07812-1.91602-.36182-2.32788-.59595-.35107-.19507-.58496-.38403-1.66602-1.47095-.90796-.90796-1.35913-1.36401-1.95508-2.01099-1.32593-1.43701-2.18896-2.43896-2.18896-2.43896-.72998-.84204-1.02002-1.20898-1.63794-1.56616-.26807-.15601-.85815-.48999-1.69409-.56787-1.07495-.1001-1.88794.28394-2.16089.41797-.48999.23901-.54614.38403-1.89917,1.61011-1.04785.94702-1.0249.87402-1.83301,1.62085-.42285.39014-.38989.37817-1.677,1.63794-1.15283,1.125-1.53198,1.48706-2.11084,1.927-.62402.48511-.94702.73022-1.44312.9021-.99097.35107-1.85498.17896-2.07788.12305-.22803-.05005-1.13013-.27905-1.91602-1.09814-.85205-.89087-1.00806-1.91577-1.05298-2.23291-.05005-.35693-.12817-1.27002.33496-2.27295.25586-.552.59497-.94702.8291-1.18115Z"/>
  <path class="cls-2" d="M35.24813,35.24795c43.28296-43.28394,113.45996-43.28394,156.7439,0,43.28296,43.2832,43.28296,113.46021,0,156.74414-43.28394,43.28296-113.46094,43.28296-156.7439,0-43.28418-43.28394-43.28418-113.45996,0-156.74414Z"/>
</svg>