<?xml version="1.0" encoding="UTF-8"?>
<svg id="_Слой_1" data-name="Слой 1" xmlns="http://www.w3.org/2000/svg" viewBox="0 0 223.62676 223.61174">
  <defs>
    <style>
      .cls-1 {
        fill: #dbeeff;
      }

      .cls-1, .cls-2 {
        stroke-width: 0px;
      }

      .cls-2 {
        fill: #82acf6;
      }
    </style>
  </defs>
  <path class="cls-2" d="M223.48706,106.62785c-.17483-3.52827-.46904-7.0419-.9688-10.5319-.96032-6.70581-2.49665-13.28424-4.65623-19.71043-2.41584-7.18945-5.51976-14.06499-9.32175-20.63267-7.1986-12.43522-16.46642-23.07592-27.74916-31.94551-10.0984-7.93859-21.26498-13.94512-33.45179-18.0173-8.85583-2.95909-17.93435-4.83664-27.2636-5.48717-1.08559-.07567-2.20833.07942-3.26991-.30287h-9.99687c-1.12274.36435-2.29861.22372-3.44465.31256-4.71213.36542-9.37809,1.0263-14.00602,1.96542-6.99171,1.41869-13.78636,3.50005-20.37118,6.23819-8.9411,3.71797-17.27494,8.50327-24.9758,14.38385-4.83794,3.69431-9.36443,7.738-13.53215,12.17038-6.6108,7.03091-12.24012,14.77767-16.86037,23.26134-4.97241,9.12995-8.58832,18.76534-10.89317,28.89351-.92442,4.06209-1.61875,8.16691-2.03966,12.31646-.2118,2.08792-.4427,4.17299-.51556,6.27181-.00607.17389.00214.35489-.17037.46927v11.04916c.36636.94143.24198,1.94631.31323,2.91475.2401,3.25852.62325,6.49914,1.15694,9.71713,1.07015,6.45298,2.68934,12.76979,4.86249,18.94481,2.44058,6.93528,5.53244,13.56421,9.28121,19.88531,3.28348,5.53628,7.01448,10.75093,11.20167,15.64651,3.6727,4.2942,7.62835,8.3037,11.90671,11.98488,5.34484,4.59895,11.06604,8.67569,17.18172,12.20463,6.72661,3.88146,13.77386,7.03413,21.14711,9.44644,5.37904,1.75987,10.86487,3.09847,16.45856,4.01812,5.30386.87206,10.63459,1.38588,16.00246,1.49722,2.47969.05143,4.96044-.00103,7.44379-.10451,4.3488-.18126,8.66618-.627,12.95016-1.33619,6.39311-1.05832,12.65371-2.65514,18.78047-4.79878,8.28035-2.89712,16.10551-6.70639,23.48501-11.43677,4.8249-3.09289,9.37693-6.54415,13.67725-10.34131,4.54498-4.0133,8.72949-8.36607,12.56924-13.04686,3.87708-4.72637,7.31941-9.76079,10.36368-15.06563,3.8202-6.65683,6.92859-13.6322,9.30925-20.92554,1.7567-5.38163,3.08177-10.87014,4.01486-16.46008.80781-4.83941,1.28453-9.70798,1.46088-14.60167.10617-2.94453.06661-5.89451-.07965-8.84655ZM111.80545,218.16088c-58.99334-.33136-106.3173-47.37856-106.28194-106.42231C5.55887,52.73689,52.8998,5.50663,111.85063,5.52164c58.9653.01496,106.30096,47.34321,106.23944,106.39489-.06125,58.94735-47.33861,105.93192-106.28462,106.24435Z"/>
  <path class="cls-2" d="M134.59722,138.75451c-5.93605.05581-11.56414-.93635-17.02269-2.89041-.56917-.20375-.86528-.01899-1.1789.39476-3.52685,4.65299-7.06035,9.30096-10.59173,13.95051-7.69833,10.13587-15.39398,20.27378-23.0967,30.40632-1.60736,2.11441-3.21075,4.23303-4.86972,6.30672-1.81185,2.26481-4.23472,3.5559-7.06088,4.03799-5.29861.90394-10.52639-1.76705-12.79429-6.65102-2.04551-4.40507-1.56087-8.66794,1.36029-12.54392,7.11504-9.44075,14.28456-18.84045,21.43517-28.25436,5.20865-6.85729,10.4139-13.71721,15.64801-20.55503.45364-.59263.41373-.91997-.06559-1.47047-6.01277-6.90575-9.92499-14.83598-11.6851-23.84464-.84677-4.33394-1.07941-8.70011-.79321-13.07096.55929-8.54155,3.15708-16.46277,7.76687-23.69317,5.35148-8.39373,12.56217-14.69166,21.57357-18.90338,4.81449-2.25018,9.87496-3.67434,15.1653-4.28728,10.69648-1.23928,20.80295.63654,30.28768,5.73245,3.82224,2.05359,7.30773,4.59302,10.476,7.57348,7.39053,6.95244,12.27286,15.35275,14.69816,25.19923,1.21765,4.94359,1.65217,9.9701,1.30662,15.02518-.76356,11.17069-4.72146,21.096-11.98429,29.66201-6.09576,7.18954-13.63549,12.26438-22.54753,15.29128-3.76461,1.27862-7.63806,2.06876-11.60918,2.41789-1.5193.13357-3.03314.09902-4.41789.16683ZM89.26975,87.99268c-.04898,25.13032,20.18793,44.76211,44.07065,45.29277,26.16695.58142,46.28963-20.38567,46.42046-44.88487.1361-25.48531-20.28204-45.23246-44.47819-45.60844-25.67386-.39893-46.1015,20.41718-46.01292,45.20054ZM69.02145,185.58166c1.57476.10972,3.13788-.5967,4.41871-1.98765,1.20556-1.30921,2.21245-2.77521,3.28949-4.18478,4.34614-5.68808,8.68254-11.38363,13.00868-17.08696,3.35887-4.42814,6.68553-8.88073,10.04763-13.30641,3.80208-5.00486,7.62684-9.99251,11.44478-14.98531.32662-.42712.36556-.71136-.20361-1.01102-3.36212-1.7701-6.54012-3.81773-9.38049-6.36171-.43879-.39301-.78109-.53015-1.26149.1098-3.40665,4.53803-6.87055,9.03302-10.30632,13.54925-4.6337,6.09089-9.26095,12.1867-13.88642,18.28384-4.16818,5.49437-8.33686,10.98836-12.49169,16.49283-1.59022,2.10679-1.96042,4.41798-.78615,6.8142,1.1554,2.35771,3.0468,3.70308,6.1069,3.67392Z"/>
  <path class="cls-1" d="M89.26975,87.99268c-.08858-24.78336,20.33906-45.59947,46.01292-45.20054,24.19615.37598,44.61429,20.12313,44.47819,45.60844-.13083,24.4992-20.25351,45.46629-46.42046,44.88487-23.88272-.53066-44.11963-20.16245-44.07065-45.29277ZM173.65518,87.63202c.10843-3.56573-.50306-7.01709-1.50095-10.41176-.29106-.99011-.89653-1.67204-1.9421-1.92986-2.07172-.51084-4.05229,1.32503-3.39931,3.37026,1.19488,3.74247,1.5978,7.58609,1.23619,11.53204-.3361,3.66733-1.23087,7.15786-2.76322,10.48672-2.02169,4.39187-4.99727,8.03629-8.79644,11.01747-1.21026.94969-1.38652,2.89958-.38769,4.14731.97789,1.22157,2.2192,1.35184,3.51088.30464,2.17543-1.76366,4.18767-3.68312,5.95042-5.88226,5.3113-6.62619,8.0101-14.15923,8.09221-22.63456Z"/>
  <path class="cls-1" d="M69.02145,185.58166c-3.06011.02916-4.9515-1.31622-6.1069-3.67392-1.17427-2.39622-.80407-4.70741.78615-6.8142,4.15483-5.50446,8.32351-10.99846,12.49169-16.49283,4.62547-6.09713,9.25272-12.19294,13.88642-18.28384,3.43577-4.51623,6.89967-9.01121,10.30632-13.54925.4804-.63994.8227-.50281,1.26149-.1098,2.84037,2.54398,6.01837,4.59161,9.38049,6.36171.56917.29965.53023.58389.20361,1.01102-3.81793,4.99281-7.6427,9.98045-11.44478,14.98531-3.3621,4.42569-6.68877,8.87827-10.04763,13.30641-4.32613,5.70332-8.66253,11.39888-13.00868,17.08696-1.07703,1.40957-2.08392,2.87557-3.28949,4.18478-1.28083,1.39096-2.84395,2.09737-4.41871,1.98765Z"/>
  <path class="cls-2" d="M173.65518,87.63202c-.08211,8.47534-2.78092,16.00838-8.09221,22.63456-1.76275,2.19914-3.77499,4.1186-5.95042,5.88226-1.29168,1.0472-2.533.91692-3.51088-.30464-.99884-1.24774-.82257-3.19762.38769-4.14731,3.79917-2.98118,6.77475-6.6256,8.79644-11.01747,1.53235-3.32885,2.42712-6.81938,2.76322-10.48672.36161-3.94596-.04131-7.78957-1.23619-11.53204-.65298-2.04523,1.32758-3.8811,3.39931-3.37026,1.04557.25781,1.65104.93975,1.9421,1.92986.99788,3.39467,1.60937,6.84603,1.50095,10.41176Z"/>
</svg>