<?xml version="1.0" encoding="UTF-8"?>
<svg id="_Слой_1" data-name="Слой 1" xmlns="http://www.w3.org/2000/svg" viewBox="0 0 227.23846 227.23858">
  <defs>
    <style>
      .cls-1 {
        stroke-width: 5.57px;
      }

      .cls-1, .cls-2, .cls-3 {
        fill: none;
        stroke: #81aafa;
        stroke-miterlimit: 5.57;
      }

      .cls-2 {
        stroke-width: 5.881px;
      }

      .cls-4 {
        fill: #dbeeff;
        stroke-width: 0px;
      }

      .cls-3 {
        stroke-width: 6.026px;
      }
    </style>
  </defs>
  <path class="cls-1" d="M35.2474,35.24722c43.28369-43.28296,113.45996-43.28296,156.74365,0,43.2832,43.28418,43.2832,113.46021,0,156.74414-43.28369,43.28296-113.45996,43.28296-156.74365,0-43.2832-43.28394-43.2832-113.46094,0-156.74414Z"/>
  <path class="cls-4" d="M92.15072,35.57168h-34.03467v139.97388h125.93164v-33.01587c-14.41699-17.14014-75.68066-88.44824-91.89697-106.95801M87.17709,145.33145v-65.72583l58.38965,65.72583h-58.38965Z"/>
  <path class="cls-1" d="M92.15072,35.57168h-34.03467v139.97388h125.93164v-33.01587c-14.41699-17.14014-75.68066-88.44824-91.89697-106.95801ZM87.17709,145.33145v-65.72583l58.38965,65.72583h-58.38965Z"/>
  <line class="cls-3" x1="97.38754" y1="46.1105" x2="86.37436" y2="55.8417"/>
  <line class="cls-1" x1="108.20541" y1="56.77774" x2="101.19223" y2="62.34878"/>
  <line class="cls-1" x1="115.65316" y1="67.36172" x2="104.91879" y2="75.8959"/>
  <line class="cls-1" x1="124.58822" y1="76.33584" x2="117.57406" y2="81.91201"/>
  <line class="cls-2" x1="133.81283" y1="88.21743" x2="122.05941" y2="96.90762"/>
  <line class="cls-1" x1="142.72006" y1="98.81265" x2="135.70688" y2="104.38882"/>
  <line class="cls-1" x1="152.8807" y1="109.5524" x2="142.14633" y2="118.08047"/>
  <line class="cls-1" x1="162.06039" y1="118.02505" x2="155.05307" y2="123.5961"/>
  <line class="cls-1" x1="169.74789" y1="128.53115" x2="159.01352" y2="137.06533"/>
</svg>