<?xml version="1.0" encoding="UTF-8"?>
<svg id="_Слой_1" data-name="Слой 1" xmlns="http://www.w3.org/2000/svg" viewBox="0 0 227.23882 227.23855">
  <defs>
    <style>
      .cls-1 {
        fill: #ffd03c;
        stroke-width: 0px;
      }

      .cls-2 {
        fill: none;
        stroke: #aac419;
        stroke-miterlimit: 5.57;
        stroke-width: 5.57px;
      }
    </style>
  </defs>
  <path class="cls-2" d="M35.24777,35.24722c43.28271-43.28296,113.45996-43.28296,156.74365,0,43.2832,43.28418,43.2832,113.46008,0,156.74402-43.28369,43.28308-113.45996,43.28308-156.74365,0-43.28418-43.28394-43.2832-113.46082,0-156.74402Z"/>
  <path class="cls-1" d="M170.33029,107.08682H60.42501c-9.9209,0-17.96484-8.04395-17.96484-17.96484v-18.99512c0-9.9209,8.04395-17.96484,17.96484-17.96484h109.90527c9.91992,0,17.96387,8.04395,17.96387,17.96484v18.99512c.00586,9.9209-8.03809,17.96484-17.96387,17.96484"/>
  <path class="cls-2" d="M170.33029,107.08682H60.42501c-9.9209,0-17.96484-8.04395-17.96484-17.96484v-18.99512c0-9.9209,8.04395-17.96484,17.96484-17.96484h109.90527c9.91992,0,17.96387,8.04395,17.96387,17.96484v18.99512c.00586,9.9209-8.03809,17.96484-17.96387,17.96484Z"/>
  <path class="cls-2" d="M166.55294,77.22915c1.32275,0,2.396,1.07324,2.396,2.39502,0,1.323-1.07324,2.396-2.396,2.396-1.32324,0-2.39502-1.073-2.39502-2.396,0-1.32178,1.07178-2.39502,2.39502-2.39502Z"/>
  <path class="cls-2" d="M142.9841,77.22915c1.32275,0,2.396,1.07324,2.396,2.39502,0,1.323-1.07324,2.396-2.396,2.396-1.32324,0-2.39502-1.073-2.39502-2.396,0-1.32178,1.07178-2.39502,2.39502-2.39502Z"/>
  <path class="cls-2" d="M117.01535,77.22915c1.32275,0,2.39453,1.07324,2.39453,2.39502,0,1.323-1.07178,2.396-2.39453,2.396-1.32324,0-2.39648-1.073-2.39648-2.396,0-1.32178,1.07324-2.39502,2.39648-2.39502Z"/>
  <path class="cls-1" d="M170.33029,178.97378H60.42501c-9.9209,0-17.96484-8.04395-17.96484-17.96497v-18.995c0-9.9209,8.04395-17.96484,17.96484-17.96484h109.90527c9.91992,0,17.96387,8.04395,17.96387,17.96484v18.995c.00586,9.92102-8.03809,17.96497-17.96387,17.96497"/>
  <path class="cls-2" d="M170.33029,178.97378H60.42501c-9.9209,0-17.96484-8.04395-17.96484-17.96497v-18.995c0-9.9209,8.04395-17.96484,17.96484-17.96484h109.90527c9.91992,0,17.96387,8.04395,17.96387,17.96484v18.995c.00586,9.92102-8.03809,17.96497-17.96387,17.96497Z"/>
  <path class="cls-2" d="M166.55294,149.11599c1.32275,0,2.396,1.07312,2.396,2.39502,0,1.323-1.07324,2.396-2.396,2.396-1.32324,0-2.39502-1.073-2.39502-2.396,0-1.3219,1.07178-2.39502,2.39502-2.39502Z"/>
  <path class="cls-2" d="M142.9841,149.11599c1.32275,0,2.396,1.07312,2.396,2.39502,0,1.323-1.07324,2.396-2.396,2.396-1.32324,0-2.39502-1.073-2.39502-2.396,0-1.3219,1.07178-2.39502,2.39502-2.39502Z"/>
  <path class="cls-2" d="M117.01535,149.11599c1.32275,0,2.39453,1.07312,2.39453,2.39502,0,1.323-1.07178,2.396-2.39453,2.396-1.32324,0-2.39648-1.073-2.39648-2.396,0-1.3219,1.07324-2.39502,2.39648-2.39502Z"/>
</svg>