<?xml version="1.0" encoding="UTF-8"?>
<svg id="_Слой_1" data-name="Слой 1" xmlns="http://www.w3.org/2000/svg" viewBox="0 0 227.23927 227.23858">
  <defs>
    <style>
      .cls-1 {
        stroke-width: .557px;
      }

      .cls-1, .cls-2 {
        fill: none;
        stroke: #f57d7f;
        stroke-miterlimit: 5.57;
      }

      .cls-2 {
        stroke-width: 5.57px;
      }

      .cls-3 {
        fill: #ffdae3;
        stroke-width: 0px;
      }
    </style>
  </defs>
  <path class="cls-2" d="M35.24804,35.24722c43.284-43.28296,113.45996-43.28296,156.74396,0,43.28302,43.28418,43.28302,113.46021,0,156.74414-43.284,43.28296-113.45996,43.28296-156.74396,0-43.28406-43.28394-43.28406-113.45996,0-156.74414Z"/>
  <path class="cls-3" d="M50.18335,63.78921l8.94598,16.72314c.16699.31201.48999.52295.85797.573l20.00403,2.67993c.93597.12207,1.30896,1.18604.63501,1.79395l-14.47803,13.01807c-.26697.23901-.39001.59009-.32898.92993l3.41498,18.3772c.16199.85791-.81897,1.51489-1.65399,1.10791l-17.89301-8.67798c-.33398-.16211-.729-.16211-1.06403,0l-17.89197,8.67798c-.836.40698-1.81598-.25-1.65399-1.10791l3.41998-18.3772c.06104-.33984-.06097-.69092-.32898-.92993l-14.47198-13.01807c-.67902-.60791-.30603-1.67188.63495-1.79395l20.00403-2.67993c.37299-.05005.69098-.26709.85797-.573l8.94604-16.72314c.41699-.77979,1.62598-.77979,2.04401,0"/>
  <path class="cls-1" d="M50.18335,63.78921l8.94598,16.72314c.16699.31201.48999.52295.85797.573l20.00403,2.67993c.93597.12207,1.30896,1.18604.63501,1.79395l-14.47803,13.01807c-.26697.23901-.39001.59009-.32898.92993l3.41498,18.3772c.16199.85791-.81897,1.51489-1.65399,1.10791l-17.89301-8.67798c-.33398-.16211-.729-.16211-1.06403,0l-17.89197,8.67798c-.836.40698-1.81598-.25-1.65399-1.10791l3.41998-18.3772c.06104-.33984-.06097-.69092-.32898-.92993l-14.47198-13.01807c-.67902-.60791-.30603-1.67188.63495-1.79395l20.00403-2.67993c.37299-.05005.69098-.26709.85797-.573l8.94604-16.72314c.41699-.77979,1.62598-.77979,2.04401,0"/>
  <path class="cls-2" d="M50.18335,63.78921l8.94598,16.72314c.16699.31201.48999.52295.85797.573l20.00403,2.67993c.93597.12207,1.30896,1.18604.63501,1.79395l-14.47803,13.01807c-.26697.23901-.39001.59009-.32898.92993l3.41498,18.3772c.16199.85791-.81897,1.51489-1.65399,1.10791l-17.89301-8.67798c-.33398-.16211-.729-.16211-1.06403,0l-17.89197,8.67798c-.836.40698-1.81598-.25-1.65399-1.10791l3.41998-18.3772c.06104-.33984-.06097-.69092-.32898-.92993l-14.47198-13.01807c-.67902-.60791-.30603-1.67188.63495-1.79395l20.00403-2.67993c.37299-.05005.69098-.26709.85797-.573l8.94604-16.72314c.41699-.77979,1.62598-.77979,2.04401,0Z"/>
  <path class="cls-2" d="M73.82434,135.23599l8.94598,16.72314c.16699.31201.48999.52295.85797.573l20.00403,2.67993c.93597.12207,1.30896,1.18604.63501,1.79395l-14.47803,13.01807c-.26697.23901-.39001.59009-.32898.92993l3.41498,18.3772c.16199.85791-.81897,1.51489-1.65399,1.10791l-17.89301-8.67798c-.33398-.16211-.729-.16211-1.06403,0l-17.89197,8.67798c-.83502.40698-1.81598-.25-1.65399-1.10791l3.41998-18.3772c.06104-.33984-.06097-.69092-.32898-.92993l-14.47198-13.01807c-.67902-.60791-.30603-1.67188.63495-1.79395l20.00403-2.67993c.37299-.05005.69098-.26709.85797-.573l8.94604-16.72314c.41199-.78491,1.62097-.78491,2.04401,0Z"/>
  <path class="cls-3" d="M154.71313,135.23599l8.94598,16.72314c.16699.31201.48999.52295.85797.573l20.00403,2.67993c.93597.12207,1.30896,1.18604.63501,1.79395l-14.47803,13.01807c-.26697.23901-.39001.59009-.32898.92993l3.41498,18.3772c.16199.85791-.81897,1.51489-1.65399,1.10791l-17.89301-8.67798c-.33398-.16211-.729-.16211-1.06403,0l-17.89197,8.67798c-.836.40698-1.81598-.25-1.65399-1.10791l3.41998-18.3772c.06104-.33984-.06097-.69092-.32898-.92993l-14.47198-13.01807c-.67902-.60791-.30603-1.67188.63495-1.79395l20.00403-2.67993c.37299-.05005.69098-.26709.85797-.573l8.94604-16.72314c.41699-.78491,1.62598-.78491,2.04401,0"/>
  <path class="cls-1" d="M154.71313,135.23599l8.94598,16.72314c.16699.31201.48999.52295.85797.573l20.00403,2.67993c.93597.12207,1.30896,1.18604.63501,1.79395l-14.47803,13.01807c-.26697.23901-.39001.59009-.32898.92993l3.41498,18.3772c.16199.85791-.81897,1.51489-1.65399,1.10791l-17.89301-8.67798c-.33398-.16211-.729-.16211-1.06403,0l-17.89197,8.67798c-.836.40698-1.81598-.25-1.65399-1.10791l3.41998-18.3772c.06104-.33984-.06097-.69092-.32898-.92993l-14.47198-13.01807c-.67902-.60791-.30603-1.67188.63495-1.79395l20.00403-2.67993c.37299-.05005.69098-.26709.85797-.573l8.94604-16.72314c.41699-.78491,1.62598-.78491,2.04401,0"/>
  <path class="cls-2" d="M154.71313,135.23599l8.94598,16.72314c.16699.31201.48999.52295.85797.573l20.00403,2.67993c.93597.12207,1.30896,1.18604.63501,1.79395l-14.47803,13.01807c-.26697.23901-.39001.59009-.32898.92993l3.41498,18.3772c.16199.85791-.81897,1.51489-1.65399,1.10791l-17.89301-8.67798c-.33398-.16211-.729-.16211-1.06403,0l-17.89197,8.67798c-.836.40698-1.81598-.25-1.65399-1.10791l3.41998-18.3772c.06104-.33984-.06097-.69092-.32898-.92993l-14.47198-13.01807c-.67902-.60791-.30603-1.67188.63495-1.79395l20.00403-2.67993c.37299-.05005.69098-.26709.85797-.573l8.94604-16.72314c.41699-.78491,1.62598-.78491,2.04401,0Z"/>
  <path class="cls-3" d="M179.12298,66.7416l8.94598,16.72314c.16699.31104.48999.52295.85797.573l20.00403,2.67993c.935.12207,1.30896,1.18604.63501,1.79297l-14.47803,13.01904c-.26697.23901-.39001.59009-.32898.92993l3.41498,18.38208c.16199.85791-.81897,1.51514-1.65399,1.10913l-17.89301-8.6792c-.33398-.16089-.729-.16089-1.06403,0l-17.89197,8.6792c-.836.40601-1.81598-.25122-1.65399-1.10913l3.41998-18.38208c.06104-.33984-.06097-.69092-.32898-.92993l-14.47198-13.01904c-.67902-.60693-.30603-1.6709.63495-1.79297l20.00403-2.67993c.37299-.05005.69098-.26709.85797-.573l8.94604-16.72314c.41699-.78491,1.62598-.78491,2.04401,0"/>
  <path class="cls-1" d="M179.12298,66.7416l8.94598,16.72314c.16699.31104.48999.52295.85797.573l20.00403,2.67993c.935.12207,1.30896,1.18604.63501,1.79297l-14.47803,13.01904c-.26697.23901-.39001.59009-.32898.92993l3.41498,18.38208c.16199.85791-.81897,1.51514-1.65399,1.10913l-17.89301-8.6792c-.33398-.16089-.729-.16089-1.06403,0l-17.89197,8.6792c-.836.40601-1.81598-.25122-1.65399-1.10913l3.41998-18.38208c.06104-.33984-.06097-.69092-.32898-.92993l-14.47198-13.01904c-.67902-.60693-.30603-1.6709.63495-1.79297l20.00403-2.67993c.37299-.05005.69098-.26709.85797-.573l8.94604-16.72314c.41699-.78491,1.62598-.78491,2.04401,0"/>
  <path class="cls-2" d="M179.12298,66.7416l8.94598,16.72314c.16699.31104.48999.52295.85797.573l20.00403,2.67993c.935.12207,1.30896,1.18604.63501,1.79297l-14.47803,13.01904c-.26697.23901-.39001.59009-.32898.92993l3.41498,18.38208c.16199.85791-.81897,1.51514-1.65399,1.10913l-17.89301-8.6792c-.33398-.16089-.729-.16089-1.06403,0l-17.89197,8.6792c-.836.40601-1.81598-.25122-1.65399-1.10913l3.41998-18.38208c.06104-.33984-.06097-.69092-.32898-.92993l-14.47198-13.01904c-.67902-.60693-.30603-1.6709.63495-1.79297l20.00403-2.67993c.37299-.05005.69098-.26709.85797-.573l8.94604-16.72314c.41699-.78491,1.62598-.78491,2.04401,0Z"/>
  <path class="cls-3" d="M115.61407,14.03384l9.89294,18.48804c.18402.34619.54004.58008.953.63599l22.12,2.96313c1.03601.13892,1.44806,1.31494.70203,1.98901l-16.00403,14.38794c-.29498.26709-.435.6521-.362,1.03101l3.77704,20.32104c.17798.9519-.90802,1.67603-1.83301,1.22485l-19.78101-9.5918c-.367-.17798-.80701-.17798-1.17499,0l-19.78101,9.5918c-.92499.45117-2.01099-.27783-1.83301-1.22485l3.77698-20.32104c.073-.37891-.06698-.76392-.362-1.03101l-16.00397-14.38794c-.74603-.67407-.33398-1.8501.70203-1.98901l22.11499-2.96313c.41199-.05591.76801-.2959.95197-.63599l9.89301-18.48804c.45203-.8689,1.789-.8689,2.25104,0"/>
  <path class="cls-1" d="M115.61407,14.03384l9.89294,18.48804c.18402.34619.54004.58008.953.63599l22.12,2.96313c1.03601.13892,1.44806,1.31494.70203,1.98901l-16.00403,14.38794c-.29498.26709-.435.6521-.362,1.03101l3.77704,20.32104c.17798.9519-.90802,1.67603-1.83301,1.22485l-19.78101-9.5918c-.367-.17798-.80701-.17798-1.17499,0l-19.78101,9.5918c-.92499.45117-2.01099-.27783-1.83301-1.22485l3.77698-20.32104c.073-.37891-.06698-.76392-.362-1.03101l-16.00397-14.38794c-.74603-.67407-.33398-1.8501.70203-1.98901l22.11499-2.96313c.41199-.05591.76801-.2959.95197-.63599l9.89301-18.48804c.45203-.8689,1.789-.8689,2.25104,0"/>
  <path class="cls-2" d="M115.61407,14.03384l9.89294,18.48804c.18402.34619.54004.58008.953.63599l22.12,2.96313c1.03601.13892,1.44806,1.31494.70203,1.98901l-16.00403,14.38794c-.29498.26709-.435.6521-.362,1.03101l3.77704,20.32104c.17798.9519-.90802,1.67603-1.83301,1.22485l-19.78101-9.5918c-.367-.17798-.80701-.17798-1.17499,0l-19.78101,9.5918c-.92499.45117-2.01099-.27783-1.83301-1.22485l3.77698-20.32104c.073-.37891-.06698-.76392-.362-1.03101l-16.00397-14.38794c-.74603-.67407-.33398-1.8501.70203-1.98901l22.11499-2.96313c.41199-.05591.76801-.2959.95197-.63599l9.89301-18.48804c.45203-.8689,1.789-.8689,2.25104,0Z"/>
</svg>