<?xml version="1.0" encoding="UTF-8"?><svg id="_Слой_1" xmlns="http://www.w3.org/2000/svg" viewBox="0 0 227.23602 227.24017"><defs><style>.cls-1{fill:none;stroke:#ee7e7d;stroke-miterlimit:5.57;stroke-width:5.57px;}.cls-2{fill:#ee7e7d;stroke-width:0px;}</style></defs><path class="cls-1" d="M224.45102,113.61996c0,61.21411-49.62207,110.83521-110.83545,110.83521-61.20801,0-110.83057-49.62109-110.83057-110.83521S52.40756,2.785,113.61557,2.785c61.21338.00513,110.83545,49.6272,110.83545,110.83496Z"/><path class="cls-2" d="M126.22689,113.47519c0,7.10815-5.63721,12.87305-12.59521,12.87305s-12.59521-5.76489-12.59521-12.87305,5.63721-12.8728,12.59521-12.8728c6.95801-.0061,12.59521,5.75903,12.59521,12.8728"/><path class="cls-1" d="M126.22689,113.47519c0,7.10815-5.63721,12.87305-12.59521,12.87305s-12.59521-5.76489-12.59521-12.87305,5.63721-12.8728,12.59521-12.8728c6.95801-.0061,12.59521,5.75903,12.59521,12.8728Z"/><ellipse class="cls-1" cx="113.63229" cy="113.47525" rx="36.80994" ry="97.05414"/><ellipse class="cls-1" cx="113.63253" cy="113.46975" rx="94.93201" ry="37.63397"/><path class="cls-1" d="M83.4349,140.08529c36.83154,37.65601,78.34766,56.27319,92.72559,41.57812,14.37695-14.69507-3.83203-57.13599-40.66406-94.7981C98.65854,49.20834,57.14779,30.59237,42.76986,45.28744c-14.37744,14.69507,3.82764,57.13599,40.66504,94.79785Z"/><path class="cls-1" d="M139.66293,140.08529c-36.8374,37.65601-78.34912,56.27319-92.72607,41.57812-14.37793-14.69507,3.83203-57.13599,40.66992-94.7981,36.83691-37.65698,78.34912-56.27295,92.72607-41.57788,14.37207,14.69507-3.83838,57.13599-40.66992,94.79785Z"/></svg>