<?xml version="1.0" encoding="UTF-8"?>
<svg id="_Слой_1" data-name="Слой 1" xmlns="http://www.w3.org/2000/svg" xmlns:xlink="http://www.w3.org/1999/xlink" viewBox="0 0 227.24041 227.24114">
  <defs>
    <style>
      .cls-1 {
        stroke: #81aafa;
        stroke-miterlimit: 5.57;
        stroke-width: 5.57px;
      }

      .cls-1, .cls-2 {
        fill: none;
      }

      .cls-3 {
        isolation: isolate;
      }

      .cls-2, .cls-4 {
        stroke-width: 0px;
      }

      .cls-4 {
        fill: #dbeeff;
      }

      .cls-5 {
        clip-path: url(#clippath);
      }

      .cls-6 {
        fill: #81aafa;
        font-family: ArialMT, Arial;
        font-size: 66.8456px;
      }
    </style>
    <clipPath id="clippath">
      <rect class="cls-2" x="122.15854" y="108.3182" width="44.81006" height="79.07007"/>
    </clipPath>
  </defs>
  <circle class="cls-1" cx="113.62033" cy="113.62088" r="110.83528" transform="translate(-28.05065 189.44051) rotate(-73.15499)"/>
  <path class="cls-4" d="M112.02133,120.97934h-54.00537c-5.65479,0-10.23877-4.58398-10.23877-10.23877v-54.00513c0-5.65405,4.58496-10.23901,10.23877-10.23901h54.00537c5.65381,0,10.23877,4.58496,10.23877,10.23901v54.00513c0,5.65479-4.58496,10.23877-10.23877,10.23877"/>
  <rect class="cls-1" x="47.77719" y="46.49643" width="74.48291" height="74.48291" rx="10.23877" ry="10.23877"/>
  <path class="cls-4" d="M169.22982,180.74472h-54.00635c-5.65381,0-10.23779-4.58398-10.23779-10.23877v-54.00513c0-5.65405,4.58398-10.23901,10.23779-10.23901h54.00635c5.65381,0,10.23779,4.58496,10.23779,10.23901v54.00513c.00098,5.65991-4.58398,10.23877-10.23779,10.23877"/>
  <path class="cls-1" d="M169.22982,180.74472h-54.00635c-5.65381,0-10.23779-4.58398-10.23779-10.23877v-54.00513c0-5.65405,4.58398-10.23901,10.23779-10.23901h54.00635c5.65381,0,10.23779,4.58496,10.23779,10.23901v54.00513c.00098,5.65991-4.58398,10.23877-10.23779,10.23877Z"/>
  <line class="cls-1" x1="47.77719" y1="138.04721" x2="71.15609" y2="138.47641"/>
  <line class="cls-1" x1="156.0892" y1="90.48105" x2="179.46811" y2="90.91024"/>
  <g class="cls-3">
    <g class="cls-5">
      <text class="cls-6" transform="translate(122.26021 165.68561)"><tspan x="0" y="0">А</tspan></text>
    </g>
  </g>
  <path class="cls-1" d="M50.19467,136.00277c.25586,3.927,1.55371,21.58008,10.9458,31.98022,14.32715,15.85889,28.57715,13.11279,30.521,12.76782"/>
  <path class="cls-1" d="M177.10678,93.09359c-.25635-3.92676-1.5542-21.57983-10.94629-31.97998-14.32715-15.85889-28.57617-13.11279-30.521-12.76782"/>
  <line class="cls-1" x1="65.85922" y1="74.087" x2="102.75814" y2="74.087"/>
  <line class="cls-1" x1="85.01547" y1="74.087" x2="85.01547" y2="57.18612"/>
  <path class="cls-1" d="M75.37338,74.087c.16699,2.44604,1.00195,13.43604,7.07959,19.90918,9.26904,9.87598,18.48926,8.16602,19.74805,7.94897"/>
  <path class="cls-1" d="M93.63314,74.087c-.16748,2.44604-1.00244,13.43604-7.08008,19.90918-9.26904,9.87598-18.48926,8.16602-19.74805,7.94897"/>
</svg>