<?xml version="1.0" encoding="UTF-8"?>
<svg id="_Слой_1" data-name="Слой 1" xmlns="http://www.w3.org/2000/svg" viewBox="0 0 226.9275 226.92751">
  <defs>
    <style>
      .cls-1 {
        stroke: #b8e87b;
        stroke-width: .557px;
      }

      .cls-1, .cls-2 {
        fill: none;
        stroke-miterlimit: 5.57;
      }

      .cls-3 {
        fill: #ffd03c;
        stroke-width: 0px;
      }

      .cls-2 {
        stroke: #aac419;
        stroke-width: 5.57px;
      }
    </style>
  </defs>
  <circle class="cls-2" cx="113.46375" cy="113.46371" r="110.6785"/>
  <path class="cls-3" d="M50.02235,63.79007l8.946,16.72217c.167.31201.49.52393.858.57397l20.004,2.67993c.93501.12207,1.30901,1.18604.635,1.79297l-14.478,13.01904c-.26701.23901-.39001.59009-.329.92993l3.415,18.3772c.16199.85791-.819,1.51489-1.654,1.10791l-17.893-8.67896c-.334-.16113-.729-.16113-1.064,0l-17.892,8.67896c-.836.40698-1.816-.25-1.654-1.10791l3.42-18.3772c.061-.33984-.061-.69092-.329-.92993l-14.472-13.01904c-.68-.60693-.301-1.6709.635-1.79297l20.004-2.67993c.373-.05005.69-.26709.857-.57397l8.947-16.72217c.417-.78491,1.626-.78491,2.044,0"/>
  <path class="cls-1" d="M50.02235,63.79007l8.946,16.72217c.167.31201.49.52393.858.57397l20.004,2.67993c.93501.12207,1.30901,1.18604.635,1.79297l-14.478,13.01904c-.26701.23901-.39001.59009-.329.92993l3.415,18.3772c.16199.85791-.819,1.51489-1.654,1.10791l-17.893-8.67896c-.334-.16113-.729-.16113-1.064,0l-17.892,8.67896c-.836.40698-1.816-.25-1.654-1.10791l3.42-18.3772c.061-.33984-.061-.69092-.329-.92993l-14.472-13.01904c-.68-.60693-.301-1.6709.635-1.79297l20.004-2.67993c.373-.05005.69-.26709.857-.57397l8.947-16.72217c.417-.78491,1.626-.78491,2.044,0"/>
  <path class="cls-2" d="M50.02235,63.79007l8.946,16.72217c.167.31201.49.52393.858.57397l20.004,2.67993c.93501.12207,1.30901,1.18604.635,1.79297l-14.478,13.01904c-.26701.23901-.39001.59009-.329.92993l3.415,18.3772c.16199.85791-.819,1.51489-1.654,1.10791l-17.893-8.67896c-.334-.16113-.729-.16113-1.064,0l-17.892,8.67896c-.836.40698-1.816-.25-1.654-1.10791l3.42-18.3772c.061-.33984-.061-.69092-.329-.92993l-14.472-13.01904c-.68-.60693-.301-1.6709.635-1.79297l20.004-2.67993c.373-.05005.69-.26709.857-.57397l8.947-16.72217c.417-.78491,1.626-.78491,2.044,0Z"/>
  <path class="cls-2" d="M73.71915,135.05301l8.935,16.7002c.167.31201.485.52393.858.57397l19.976,2.67883c.935.12903,1.309,1.18701.629,1.79407l-14.455,12.99597c-.268.23999-.39.58997-.32899.93005l3.415,18.35498c.161.85803-.819,1.51501-1.655,1.10803l-17.87-8.66699c-.334-.16211-.729-.16211-1.058,0l-17.86501,8.66699c-.835.40698-1.81599-.25-1.654-1.10803l3.415-18.35498c.061-.34009-.062-.69006-.32899-.93005l-14.455-12.99597c-.674-.60706-.301-1.66504.629-1.79407l19.97599-2.67883c.373-.05005.691-.26709.858-.57397l8.935-16.7002c.417-.77979,1.626-.77979,2.04401,0Z"/>
  <path class="cls-2" d="M154.49645,135.05301l8.935,16.7002c.16699.31201.485.52393.858.57397l19.976,2.67883c.935.12903,1.30899,1.18701.629,1.79407l-14.455,12.99597c-.26801.23999-.39.58997-.32899.93005l3.41499,18.35498c.161.85803-.819,1.51501-1.655,1.10803l-17.87-8.66699c-.334-.16211-.73001-.16211-1.058,0l-17.86501,8.66699c-.83501.40698-1.81599-.25-1.65401-1.10803l3.41501-18.35498c.061-.34009-.062-.69006-.32899-.93005l-14.455-12.99597c-.67401-.60706-.30101-1.66504.629-1.79407l19.976-2.67883c.373-.05005.69099-.26709.858-.57397l8.935-16.7002c.41699-.77979,1.62599-.77979,2.04401,0Z"/>
  <path class="cls-2" d="M178.87275,66.6531l8.935,16.7002c.16699.31201.485.52393.858.57397l19.976,2.67993c.935.12793,1.30899,1.18604.629,1.79297l-14.455,12.99609c-.26801.23999-.39.58984-.32899.92993l3.41499,18.35498c.161.85815-.819,1.51514-1.655,1.10815l-17.87-8.66699c-.334-.16211-.729-.16211-1.058,0l-17.86501,8.66699c-.83501.40698-1.81599-.25-1.65401-1.10815l3.41501-18.35498c.061-.34009-.062-.68994-.32899-.92993l-14.455-12.99609c-.67401-.60693-.30101-1.66504.629-1.79297l19.976-2.67993c.373-.05005.69099-.26709.858-.57397l8.935-16.7002c.41699-.77979,1.62599-.77979,2.04401,0Z"/>
  <path class="cls-2" d="M115.45305,14.01785l9.87599,18.46606c.18401.34595.541.5791.94701.63501l22.08699,2.95801c1.03601.13916,1.44901,1.30908.69701,1.98315l-15.98199,14.37183c-.29501.26709-.43501.6521-.362,1.03101l3.771,20.29297c.17799.94702-.90201,1.677-1.827,1.2251l-19.75301-9.58105c-.368-.17798-.808-.17798-1.175,0l-19.75301,9.58105c-.925.4519-2.006-.27295-1.827-1.2251l3.771-20.29297c.07201-.37891-.06699-.76392-.362-1.03101l-15.98199-14.37183c-.746-.67407-.334-1.84399.697-1.98315l22.086-2.95801c.413-.05591.764-.29492.947-.63501l9.877-18.46606c.468-.86279,1.805-.86279,2.26701,0Z"/>
</svg>