<?xml version="1.0" encoding="UTF-8"?><svg id="_Слой_1" xmlns="http://www.w3.org/2000/svg" viewBox="0 0 227.23846 227.23858"><defs><style>.cls-1{fill:#fccd9a;}.cls-1,.cls-2{stroke-width:0px;}.cls-3{fill:none;stroke:#ee7e7d;stroke-miterlimit:5.57;stroke-width:5.57px;}.cls-2{fill:#ffdae3;}</style></defs><path class="cls-3" d="M35.2474,35.24722c43.28369-43.28296,113.45996-43.28296,156.74365,0,43.2832,43.28418,43.2832,113.46021,0,156.74414-43.28369,43.28296-113.45996,43.28296-156.74365,0-43.2832-43.28394-43.2832-113.46094,0-156.74414Z"/><path class="cls-2" d="M49.04379,123.66006c0,32.2312,26.85498,58.31201,60.03857,58.31201"/><path class="cls-3" d="M49.04379,123.66006c0,32.2312,26.85498,58.31201,60.03857,58.31201"/><path class="cls-2" d="M109.0765,181.97158c0-32.23096-26.85547-58.31177-60.03906-58.31177"/><path class="cls-3" d="M109.0765,181.97158c0-32.23096-26.85547-58.31177-60.03906-58.31177"/><path class="cls-2" d="M170.22885,123.66006c0,32.2312-26.85547,58.31201-60.03906,58.31201"/><path class="cls-3" d="M170.22885,123.66006c0,32.2312-26.85547,58.31201-60.03906,58.31201"/><path class="cls-1" d="M110.19564,181.97158c0-32.23096,26.85498-58.31177,60.03857-58.31177"/><path class="cls-2" d="M110.19564,181.97158c0-32.23096,26.85498-58.31177,60.03857-58.31177"/><path class="cls-3" d="M110.19564,181.97158c0-32.23096,26.85498-58.31177,60.03857-58.31177"/><path class="cls-2" d="M159.17123,74.26675c0,27.30615-21.7583,49.39307-48.6582,49.39307"/><path class="cls-3" d="M159.17123,74.26675c0,27.30615-21.7583,49.39307-48.6582,49.39307"/><path class="cls-2" d="M110.50814,123.66006c0-27.30078,21.75781-49.39282,48.65771-49.39282"/><path class="cls-3" d="M110.50814,123.66006c0-27.30078,21.75781-49.39282,48.65771-49.39282"/><path class="cls-2" d="M60.4183,74.26675c0,27.30615,21.75781,49.39307,48.65771,49.39307"/><path class="cls-3" d="M60.4183,74.26675c0,27.30615,21.75781,49.39307,48.65771,49.39307"/><path class="cls-2" d="M109.0765,123.66006c0-27.30078-21.7583-49.39282-48.6582-49.39282"/><path class="cls-3" d="M109.0765,123.66006c0-27.30078-21.7583-49.39282-48.6582-49.39282"/><path class="cls-2" d="M112.33529,23.29702c15.92578,17.15112,14.96191,41.23804-2.13916,53.85522"/><path class="cls-3" d="M112.33529,23.29702c15.92578,17.15112,14.96191,41.23804-2.13916,53.85522"/><path class="cls-2" d="M110.19564,77.14663c-15.92627-17.15088-14.9624-41.23779,2.13867-53.84985"/><path class="cls-3" d="M110.19564,77.14663c-15.92627-17.15088-14.9624-41.23779,2.13867-53.84985"/><line class="cls-3" x1="110.19564" y1="77.14663" x2="110.19564" y2="200.7167"/></svg>