<?xml version="1.0" encoding="UTF-8"?><svg id="_Слой_1" xmlns="http://www.w3.org/2000/svg" viewBox="0 0 227.53747 227.2542"><defs><style>.cls-1{fill:#fccd9a;}.cls-1,.cls-2,.cls-3,.cls-4,.cls-5,.cls-6{stroke-width:0px;}.cls-7,.cls-8{stroke:#ee7e7d;}.cls-7,.cls-8,.cls-9,.cls-10,.cls-11,.cls-12,.cls-13{fill:none;stroke-miterlimit:5.57;}.cls-7,.cls-9,.cls-10,.cls-13{stroke-width:.557px;}.cls-2{fill:#331013;}.cls-8,.cls-11,.cls-12{stroke-width:5.57px;}.cls-9{stroke:#7b7575;}.cls-10{stroke:#331013;}.cls-3{fill:#9c414c;}.cls-4{fill:#7b7575;}.cls-5{fill:#ffdae3;}.cls-11{stroke:#f18faa;}.cls-6{fill:#ee7e7d;}.cls-12{stroke:#f993aa;}.cls-13{stroke:#9c414c;}</style></defs><path class="cls-12" d="M35.24777,35.24795c43.28394-43.28394,113.45996-43.28394,156.7439,0,43.28296,43.2832,43.28296,113.46021,0,156.74414-43.28394,43.28296-113.46094,43.28296-156.7439,0-43.28418-43.28394-43.2832-113.45996,0-156.74414Z"/><path class="cls-1" d="M184.74972,170.47671H41.59958c-6.16089.05005-11.21289-4.87988-11.302-11.04077v-93.87305c.08911-6.16113,5.13599-11.09595,11.302-11.04614h143.15015c6.16089-.0498,11.21289,4.87915,11.30176,11.04614v93.87305c-.09399,6.16089-5.14087,11.09692-11.30176,11.04077"/><path class="cls-11" d="M184.74972,170.47671H41.59958c-6.16089.05005-11.21289-4.87988-11.302-11.04077v-93.87305c.08911-6.16113,5.13599-11.09595,11.302-11.04614h143.15015c6.16089-.0498,11.21289,4.87915,11.30176,11.04614v93.87305c-.09399,6.16089-5.14087,11.09692-11.30176,11.04077Z"/><line class="cls-11" x1="30.08004" y1="84.69156" x2="195.82882" y2="84.69156"/><rect class="cls-2" x="107.34274" y="94.91323" width="13.44189" height="13.13501"/><rect class="cls-10" x="107.34274" y="94.91323" width="13.44189" height="13.13501"/><rect class="cls-2" x="107.34274" y="94.91323" width="13.44189" height="13.13501"/><rect class="cls-10" x="107.34274" y="94.91323" width="13.44189" height="13.13501"/><rect class="cls-4" x="136.68795" y="94.84121" width="13.44092" height="13.13501"/><rect class="cls-9" x="136.68795" y="94.84121" width="13.44092" height="13.13501"/><rect class="cls-4" x="136.68795" y="94.84121" width="13.44092" height="13.13501"/><rect class="cls-9" x="136.68795" y="94.84121" width="13.44092" height="13.13501"/><rect class="cls-4" x="166.03781" y="94.91323" width="13.44189" height="13.13501"/><rect class="cls-9" x="166.03781" y="94.91323" width="13.44189" height="13.13501"/><rect class="cls-4" x="166.03781" y="94.91323" width="13.44189" height="13.13501"/><rect class="cls-9" x="166.03781" y="94.91323" width="13.44189" height="13.13501"/><rect class="cls-4" x="46.42379" y="119.89126" width="13.44092" height="13.13501"/><rect class="cls-9" x="46.42379" y="119.89126" width="13.44092" height="13.13501"/><rect class="cls-4" x="46.42379" y="119.89126" width="13.44092" height="13.13501"/><rect class="cls-9" x="46.42379" y="119.89126" width="13.44092" height="13.13501"/><rect class="cls-4" x="77.1008" y="118.50918" width="13.44092" height="13.13501"/><rect class="cls-9" x="77.1008" y="118.50918" width="13.44092" height="13.13501"/><rect class="cls-4" x="77.1008" y="118.50918" width="13.44092" height="13.13501"/><rect class="cls-9" x="77.1008" y="118.50918" width="13.44092" height="13.13501"/><rect class="cls-4" x="107.77682" y="118.50918" width="13.44092" height="13.13501"/><rect class="cls-9" x="107.77682" y="118.50918" width="13.44092" height="13.13501"/><rect class="cls-4" x="107.77682" y="118.50918" width="13.44092" height="13.13501"/><rect class="cls-9" x="107.77682" y="118.50918" width="13.44092" height="13.13501"/><rect class="cls-4" x="136.68795" y="118.50918" width="13.44092" height="13.13501"/><rect class="cls-9" x="136.68795" y="118.50918" width="13.44092" height="13.13501"/><rect class="cls-4" x="136.68795" y="118.50918" width="13.44092" height="13.13501"/><rect class="cls-9" x="136.68795" y="118.50918" width="13.44092" height="13.13501"/><rect class="cls-4" x="166.03781" y="118.50918" width="13.44189" height="13.13501"/><rect class="cls-9" x="166.03781" y="118.50918" width="13.44189" height="13.13501"/><rect class="cls-4" x="166.03781" y="118.50918" width="13.44189" height="13.13501"/><rect class="cls-9" x="166.03781" y="118.50918" width="13.44189" height="13.13501"/><rect class="cls-4" x="46.42379" y="144.94717" width="13.44092" height="13.13501"/><rect class="cls-9" x="46.42379" y="144.94717" width="13.44092" height="13.13501"/><rect class="cls-4" x="46.42379" y="144.94717" width="13.44092" height="13.13501"/><rect class="cls-9" x="46.42379" y="144.94717" width="13.44092" height="13.13501"/><rect class="cls-4" x="77.1008" y="144.94717" width="13.44092" height="13.13501"/><rect class="cls-9" x="77.1008" y="144.94717" width="13.44092" height="13.13501"/><rect class="cls-4" x="77.1008" y="144.94717" width="13.44092" height="13.13501"/><rect class="cls-9" x="77.1008" y="144.94717" width="13.44092" height="13.13501"/><rect class="cls-4" x="107.77682" y="144.94717" width="13.44092" height="13.13501"/><rect class="cls-9" x="107.77682" y="144.94717" width="13.44092" height="13.13501"/><rect class="cls-4" x="107.77682" y="144.94717" width="13.44092" height="13.13501"/><rect class="cls-9" x="107.77682" y="144.94717" width="13.44092" height="13.13501"/><rect class="cls-4" x="136.91085" y="144.94717" width="13.44092" height="13.13501"/><rect class="cls-9" x="136.91085" y="144.94717" width="13.44092" height="13.13501"/><rect class="cls-4" x="136.91085" y="144.94717" width="13.44092" height="13.13501"/><rect class="cls-9" x="136.91085" y="144.94717" width="13.44092" height="13.13501"/><rect class="cls-4" x="166.03781" y="144.94717" width="13.44189" height="13.13501"/><rect class="cls-9" x="166.03781" y="144.94717" width="13.44189" height="13.13501"/><rect class="cls-4" x="166.03781" y="144.94717" width="13.44189" height="13.13501"/><rect class="cls-9" x="166.03781" y="144.94717" width="13.44189" height="13.13501"/><path class="cls-6" d="M172.81759,73.20523h-.11206c-2.67896-.00586-4.84595-2.17798-4.85718-4.85693v-23.41895c.00513-2.67896,2.17822-4.84595,4.85718-4.85693h.11206c2.67896.00488,4.84595,2.17798,4.85791,4.85693v23.41895c-.01196,2.68408-2.17896,4.85107-4.85791,4.85693"/><path class="cls-7" d="M172.81759,73.20523h-.11206c-2.67896-.00586-4.84595-2.17798-4.85718-4.85693v-23.41895c.00513-2.67896,2.17822-4.84595,4.85718-4.85693h.11206c2.67896.00488,4.84595,2.17798,4.85791,4.85693v23.41895c-.01196,2.68408-2.17896,4.85107-4.85791,4.85693"/><path class="cls-6" d="M172.81759,73.20523h-.11206c-2.67896-.00586-4.84595-2.17798-4.85718-4.85693v-23.41895c.00513-2.67896,2.17822-4.84595,4.85718-4.85693h.11206c2.67896.00488,4.84595,2.17798,4.85791,4.85693v23.41895c-.01196,2.68408-2.17896,4.85107-4.85791,4.85693"/><path class="cls-7" d="M172.81759,73.20523h-.11206c-2.67896-.00586-4.84595-2.17798-4.85718-4.85693v-23.41895c.00513-2.67896,2.17822-4.84595,4.85718-4.85693h.11206c2.67896.00488,4.84595,2.17798,4.85791,4.85693v23.41895c-.01196,2.68408-2.17896,4.85107-4.85791,4.85693"/><path class="cls-6" d="M172.81759,73.20523h-.11206c-2.67896-.00586-4.84595-2.17798-4.85718-4.85693v-23.41895c.00513-2.67896,2.17822-4.84595,4.85718-4.85693h.11206c2.67896.00488,4.84595,2.17798,4.85791,4.85693v23.41895c-.01196,2.68408-2.17896,4.85107-4.85791,4.85693"/><path class="cls-7" d="M172.81759,73.20523h-.11206c-2.67896-.00586-4.84595-2.17798-4.85718-4.85693v-23.41895c.00513-2.67896,2.17822-4.84595,4.85718-4.85693h.11206c2.67896.00488,4.84595,2.17798,4.85791,4.85693v23.41895c-.01196,2.68408-2.17896,4.85107-4.85791,4.85693"/><path class="cls-6" d="M172.70626,40.07754h.11182c2.67896,0,4.85718,2.1731,4.85718,4.85718v23.41895c0,2.67896-2.17212,4.85693-4.85718,4.85693h-.11182c-2.6792,0-4.85718-2.17188-4.85718-4.85693v-23.41895c0-2.68408,2.17212-4.85718,4.85718-4.85718"/><rect class="cls-7" x="167.84909" y="40.07754" width="9.82617" height="33.13306" rx="4.85718" ry="4.85718"/><path class="cls-6" d="M53.20309,72.12442h-.11206c-2.67896-.00586-4.84595-2.17798-4.85718-4.85693v-23.41895c.00513-2.67896,2.17822-4.84595,4.85718-4.85693h.11206c2.67896.00586,4.84595,2.17798,4.85693,4.85693v23.41895c-.01099,2.67896-2.17798,4.85205-4.85693,4.85693"/><path class="cls-7" d="M53.20309,72.12442h-.11206c-2.67896-.00586-4.84595-2.17798-4.85718-4.85693v-23.41895c.00513-2.67896,2.17822-4.84595,4.85718-4.85693h.11206c2.67896.00586,4.84595,2.17798,4.85693,4.85693v23.41895c-.01099,2.67896-2.17798,4.85205-4.85693,4.85693"/><path class="cls-6" d="M53.20309,72.12442h-.11206c-2.67896-.00586-4.84595-2.17798-4.85718-4.85693v-23.41895c.00513-2.67896,2.17822-4.84595,4.85718-4.85693h.11206c2.67896.00586,4.84595,2.17798,4.85693,4.85693v23.41895c-.01099,2.67896-2.17798,4.85205-4.85693,4.85693"/><path class="cls-7" d="M53.20309,72.12442h-.11206c-2.67896-.00586-4.84595-2.17798-4.85718-4.85693v-23.41895c.00513-2.67896,2.17822-4.84595,4.85718-4.85693h.11206c2.67896.00586,4.84595,2.17798,4.85693,4.85693v23.41895c-.01099,2.67896-2.17798,4.85205-4.85693,4.85693"/><path class="cls-6" d="M53.20309,72.12442h-.11206c-2.67896-.00586-4.84595-2.17798-4.85718-4.85693v-23.41895c.00513-2.67896,2.17822-4.84595,4.85718-4.85693h.11206c2.67896.00586,4.84595,2.17798,4.85693,4.85693v23.41895c-.01099,2.67896-2.17798,4.85205-4.85693,4.85693"/><path class="cls-7" d="M53.20309,72.12442h-.11206c-2.67896-.00586-4.84595-2.17798-4.85718-4.85693v-23.41895c.00513-2.67896,2.17822-4.84595,4.85718-4.85693h.11206c2.67896.00586,4.84595,2.17798,4.85693,4.85693v23.41895c-.01099,2.67896-2.17798,4.85205-4.85693,4.85693"/><path class="cls-6" d="M53.09176,38.99698h.11182c2.67896,0,4.85718,2.17212,4.85718,4.85718v23.41895c0,2.67896-2.17212,4.85693-4.85718,4.85693h-.11182c-2.6792,0-4.85815-2.17285-4.85815-4.85693v-23.41895c0-2.68506,2.17896-4.85718,4.85815-4.85718"/><path class="cls-7" d="M53.09176,38.99698h.11182c2.68075,0,4.85718,2.17643,4.85718,4.85718v23.4187c0,2.68075-2.17643,4.85718-4.85718,4.85718h-.11182c-2.68129,0-4.85815-2.17687-4.85815-4.85815v-23.41675c0-2.68129,2.17687-4.85815,4.85815-4.85815Z"/><path class="cls-8" d="M35.54635,35.26284c43.28394-43.28394,113.45996-43.28394,156.7439,0,43.28296,43.2832,43.28296,113.46021,0,156.74414-43.28394,43.28296-113.46094,43.28296-156.7439,0-43.28418-43.28394-43.2832-113.46094,0-156.74414Z"/><path class="cls-5" d="M185.04489,170.49893H41.89474c-6.16089.05005-11.21289-4.87988-11.302-11.04077v-93.87305c.08911-6.16113,5.13599-11.09595,11.302-11.04614h143.15015c6.16089-.0498,11.21289,4.87915,11.30176,11.04614v93.87305c-.08887,6.16089-5.13477,11.09082-11.30176,11.04077"/><path class="cls-8" d="M185.04489,170.49893H41.89474c-6.16089.05005-11.21289-4.87988-11.302-11.04077v-93.87305c.08911-6.16113,5.13599-11.09595,11.302-11.04614h143.15015c6.16089-.0498,11.21289,4.87915,11.30176,11.04614v93.87305c-.08887,6.15601-5.13477,11.09082-11.30176,11.04077Z"/><line class="cls-8" x1="30.37521" y1="84.71377" x2="196.13009" y2="84.71377"/><rect class="cls-2" x="107.63791" y="94.93521" width="13.44092" height="13.13501"/><rect class="cls-10" x="107.63791" y="94.93521" width="13.44092" height="13.13501"/><rect class="cls-6" x="107.63791" y="94.93521" width="13.44092" height="13.13501"/><rect class="cls-7" x="107.63791" y="94.93521" width="13.44092" height="13.13501"/><rect class="cls-7" x="107.63791" y="94.93521" width="13.44092" height="13.13501"/><rect class="cls-4" x="136.98874" y="94.86319" width="13.44092" height="13.13501"/><rect class="cls-9" x="136.98874" y="94.86319" width="13.44092" height="13.13501"/><rect class="cls-4" x="136.98874" y="94.86319" width="13.44092" height="13.13501"/><rect class="cls-3" x="136.98874" y="94.86319" width="13.44092" height="13.13501"/><rect class="cls-13" x="136.98874" y="94.86319" width="13.44092" height="13.13501"/><rect class="cls-4" x="166.33883" y="94.93521" width="13.44092" height="13.13501"/><rect class="cls-9" x="166.33883" y="94.93521" width="13.44092" height="13.13501"/><rect class="cls-4" x="166.33883" y="94.93521" width="13.44092" height="13.13501"/><rect class="cls-3" x="166.33883" y="94.93521" width="13.44092" height="13.13501"/><rect class="cls-13" x="166.33883" y="94.93521" width="13.44092" height="13.13501"/><rect class="cls-4" x="46.72482" y="119.91323" width="13.44092" height="13.13501"/><rect class="cls-9" x="46.72482" y="119.91323" width="13.44092" height="13.13501"/><rect class="cls-4" x="46.72482" y="119.91323" width="13.44092" height="13.13501"/><rect class="cls-3" x="46.72482" y="119.91323" width="13.44092" height="13.13501"/><rect class="cls-13" x="46.72482" y="119.91323" width="13.44092" height="13.13501"/><rect class="cls-4" x="77.40084" y="118.52627" width="13.44092" height="13.13501"/><rect class="cls-9" x="77.40084" y="118.52627" width="13.44092" height="13.13501"/><rect class="cls-4" x="77.40084" y="118.52627" width="13.44092" height="13.13501"/><rect class="cls-3" x="77.40084" y="118.52627" width="13.44092" height="13.13501"/><rect class="cls-13" x="77.40084" y="118.52627" width="13.44092" height="13.13501"/><rect class="cls-4" x="108.07785" y="118.52627" width="13.44092" height="13.13501"/><rect class="cls-9" x="108.07785" y="118.52627" width="13.44092" height="13.13501"/><rect class="cls-4" x="108.07785" y="118.52627" width="13.44092" height="13.13501"/><rect class="cls-3" x="108.07785" y="118.52627" width="13.44092" height="13.13501"/><rect class="cls-13" x="108.07785" y="118.52627" width="13.44092" height="13.13501"/><rect class="cls-4" x="136.98874" y="118.52627" width="13.44092" height="13.13501"/><rect class="cls-9" x="136.98874" y="118.52627" width="13.44092" height="13.13501"/><rect class="cls-4" x="136.98874" y="118.52627" width="13.44092" height="13.13501"/><rect class="cls-3" x="136.98874" y="118.52627" width="13.44092" height="13.13501"/><rect class="cls-13" x="136.98874" y="118.52627" width="13.44092" height="13.13501"/><rect class="cls-4" x="166.33883" y="118.52627" width="13.44092" height="13.13501"/><rect class="cls-9" x="166.33883" y="118.52627" width="13.44092" height="13.13501"/><rect class="cls-4" x="166.33883" y="118.52627" width="13.44092" height="13.13501"/><rect class="cls-3" x="166.33883" y="118.52627" width="13.44092" height="13.13501"/><rect class="cls-13" x="166.33883" y="118.52627" width="13.44092" height="13.13501"/><rect class="cls-4" x="46.72482" y="144.96426" width="13.44092" height="13.13501"/><rect class="cls-9" x="46.72482" y="144.96426" width="13.44092" height="13.13501"/><rect class="cls-4" x="46.72482" y="144.96426" width="13.44092" height="13.13501"/><rect class="cls-3" x="46.72482" y="144.96426" width="13.44092" height="13.13501"/><rect class="cls-13" x="46.72482" y="144.96426" width="13.44092" height="13.13501"/><rect class="cls-4" x="77.40084" y="144.96426" width="13.44092" height="13.13501"/><rect class="cls-9" x="77.40084" y="144.96426" width="13.44092" height="13.13501"/><rect class="cls-4" x="77.40084" y="144.96426" width="13.44092" height="13.13501"/><rect class="cls-3" x="77.40084" y="144.96426" width="13.44092" height="13.13501"/><rect class="cls-13" x="77.40084" y="144.96426" width="13.44092" height="13.13501"/><rect class="cls-4" x="108.07785" y="144.96426" width="13.44092" height="13.13501"/><rect class="cls-9" x="108.07785" y="144.96426" width="13.44092" height="13.13501"/><rect class="cls-4" x="108.07785" y="144.96426" width="13.44092" height="13.13501"/><rect class="cls-3" x="108.07785" y="144.96426" width="13.44092" height="13.13501"/><rect class="cls-13" x="108.07785" y="144.96426" width="13.44092" height="13.13501"/><rect class="cls-4" x="137.20578" y="144.96426" width="13.44092" height="13.13501"/><rect class="cls-9" x="137.20578" y="144.96426" width="13.44092" height="13.13501"/><rect class="cls-4" x="137.20578" y="144.96426" width="13.44092" height="13.13501"/><rect class="cls-3" x="137.20578" y="144.96426" width="13.44092" height="13.13501"/><rect class="cls-13" x="137.20578" y="144.96426" width="13.44092" height="13.13501"/><rect class="cls-4" x="166.33883" y="144.96426" width="13.44092" height="13.13501"/><rect class="cls-9" x="166.33883" y="144.96426" width="13.44092" height="13.13501"/><rect class="cls-4" x="166.33883" y="144.96426" width="13.44092" height="13.13501"/><rect class="cls-3" x="166.33883" y="144.96426" width="13.44092" height="13.13501"/><rect class="cls-13" x="166.33883" y="144.96426" width="13.44092" height="13.13501"/><path class="cls-6" d="M173.113,73.22744h-.11206c-2.67896-.00586-4.84595-2.17798-4.85718-4.85693v-23.41895c.00513-2.67896,2.17822-4.84595,4.85718-4.85693h.11206c2.67896.00586,4.84595,2.17798,4.85791,4.85693v23.41895c-.0061,2.67896-2.17896,4.84595-4.85791,4.85693"/><path class="cls-7" d="M173.113,73.22744h-.11206c-2.67896-.00586-4.84595-2.17798-4.85718-4.85693v-23.41895c.00513-2.67896,2.17822-4.84595,4.85718-4.85693h.11206c2.67896.00586,4.84595,2.17798,4.85791,4.85693v23.41895c-.0061,2.67896-2.17896,4.84595-4.85791,4.85693"/><path class="cls-6" d="M173.113,73.22744h-.11206c-2.67896-.00586-4.84595-2.17798-4.85718-4.85693v-23.41895c.00513-2.67896,2.17822-4.84595,4.85718-4.85693h.11206c2.67896.00586,4.84595,2.17798,4.85791,4.85693v23.41895c-.0061,2.67896-2.17896,4.84595-4.85791,4.85693"/><path class="cls-7" d="M173.113,73.22744h-.11206c-2.67896-.00586-4.84595-2.17798-4.85718-4.85693v-23.41895c.00513-2.67896,2.17822-4.84595,4.85718-4.85693h.11206c2.67896.00586,4.84595,2.17798,4.85791,4.85693v23.41895c-.0061,2.67896-2.17896,4.84595-4.85791,4.85693"/><path class="cls-6" d="M173.113,73.22744h-.11206c-2.67896-.00586-4.84595-2.17798-4.85718-4.85693v-23.41895c.00513-2.67896,2.17822-4.84595,4.85718-4.85693h.11206c2.67896.00586,4.84595,2.17798,4.85791,4.85693v23.41895c-.0061,2.67896-2.17896,4.84595-4.85791,4.85693"/><path class="cls-7" d="M173.113,73.22744h-.11206c-2.67896-.00586-4.84595-2.17798-4.85718-4.85693v-23.41895c.00513-2.67896,2.17822-4.84595,4.85718-4.85693h.11206c2.67896.00586,4.84595,2.17798,4.85791,4.85693v23.41895c-.0061,2.67896-2.17896,4.84595-4.85791,4.85693"/><path class="cls-6" d="M173.00143,40.09439h.11182c2.67896,0,4.85718,2.17212,4.85718,4.85718v23.41895c0,2.67896-2.17212,4.85693-4.85718,4.85693h-.11182c-2.6792,0-4.85718-2.17285-4.85718-4.85693v-23.41895c0-2.68506,2.17798-4.85718,4.85718-4.85718"/><rect class="cls-7" x="168.14425" y="40.09439" width="9.82617" height="33.13306" rx="4.85718" ry="4.85718"/><path class="cls-6" d="M53.50387,72.14688h-.11206c-2.67896-.00586-4.84595-2.17798-4.85718-4.85693v-23.41895c.00513-2.67896,2.17822-4.84595,4.85718-4.85693h.11206c2.67896.00488,4.84595,2.17798,4.85693,4.85693v23.41895c-.01099,2.67896-2.18311,4.84595-4.85693,4.85693"/><path class="cls-7" d="M53.50387,72.14688h-.11206c-2.67896-.00586-4.84595-2.17798-4.85718-4.85693v-23.41895c.00513-2.67896,2.17822-4.84595,4.85718-4.85693h.11206c2.67896.00488,4.84595,2.17798,4.85693,4.85693v23.41895c-.01099,2.67896-2.18311,4.84595-4.85693,4.85693"/><path class="cls-6" d="M53.50387,72.14688h-.11206c-2.67896-.00586-4.84595-2.17798-4.85718-4.85693v-23.41895c.00513-2.67896,2.17822-4.84595,4.85718-4.85693h.11206c2.67896.00488,4.84595,2.17798,4.85693,4.85693v23.41895c-.01099,2.67896-2.18311,4.84595-4.85693,4.85693"/><path class="cls-7" d="M53.50387,72.14688h-.11206c-2.67896-.00586-4.84595-2.17798-4.85718-4.85693v-23.41895c.00513-2.67896,2.17822-4.84595,4.85718-4.85693h.11206c2.67896.00488,4.84595,2.17798,4.85693,4.85693v23.41895c-.01099,2.67896-2.18311,4.84595-4.85693,4.85693"/><path class="cls-6" d="M53.50387,72.14688h-.11206c-2.67896-.00586-4.84595-2.17798-4.85718-4.85693v-23.41895c.00513-2.67896,2.17822-4.84595,4.85718-4.85693h.11206c2.67896.00488,4.84595,2.17798,4.85693,4.85693v23.41895c-.01099,2.67896-2.18311,4.84595-4.85693,4.85693"/><path class="cls-7" d="M53.50387,72.14688h-.11206c-2.67896-.00586-4.84595-2.17798-4.85718-4.85693v-23.41895c.00513-2.67896,2.17822-4.84595,4.85718-4.85693h.11206c2.67896.00488,4.84595,2.17798,4.85693,4.85693v23.41895c-.01099,2.67896-2.18311,4.84595-4.85693,4.85693"/><path class="cls-6" d="M53.38693,39.01358h.11182c2.67896,0,4.85718,2.1731,4.85718,4.85718v23.41895c0,2.67896-2.17212,4.85693-4.85718,4.85693h-.11182c-2.6792,0-4.85815-2.17188-4.85815-4.85693v-23.41895c.0061-2.68408,2.17896-4.85718,4.85815-4.85718"/><path class="cls-7" d="M53.38693,39.01358h.11182c2.67896,0,4.85718,2.1731,4.85718,4.85718v23.41895c0,2.67896-2.17212,4.85693-4.85718,4.85693h-.11182c-2.6792,0-4.85815-2.17188-4.85815-4.85693v-23.41895c.0061-2.68408,2.17896-4.85718,4.85815-4.85718Z"/></svg>