<?xml version="1.0" encoding="UTF-8"?>
<svg id="_Слой_1" data-name="Слой 1" xmlns="http://www.w3.org/2000/svg" viewBox="0 0 227.24041 227.24114">
  <defs>
    <style>
      .cls-1 {
        fill: none;
        stroke: #81aafa;
        stroke-miterlimit: 5.57;
        stroke-width: 5.57px;
      }

      .cls-2 {
        fill: #81aafa;
      }

      .cls-2, .cls-3 {
        stroke-width: 0px;
      }

      .cls-3 {
        fill: #dbeeff;
      }
    </style>
  </defs>
  <circle class="cls-1" cx="113.62033" cy="113.62039" r="110.83576" transform="translate(-9.74475 216.5778) rotate(-84.84755)"/>
  <path class="cls-3" d="M166.54525,169.43661H58.15512c-9.21924,0-16.68896-7.46997-16.68896-16.68896v-70.93481c0-9.21899,7.46973-16.68921,16.68896-16.68921h108.39014c9.21875,0,16.68896,7.47021,16.68896,16.68921v70.93481c0,9.21313-7.47021,16.68896-16.68896,16.68896"/>
  <rect class="cls-1" x="41.46615" y="65.12362" width="141.76807" height="104.31299" rx="16.68896" ry="16.68896"/>
  <line class="cls-1" x1="56.03305" y1="77.73007" x2="56.03305" y2="124.66122"/>
  <line class="cls-1" x1="168.66781" y1="77.73007" x2="168.66781" y2="124.66122"/>
  <line class="cls-1" x1="56.03305" y1="121.87045" x2="168.66781" y2="121.87045"/>
  <rect class="cls-2" x="102.27328" y="121.87021" width="22.68896" height="12.63403"/>
  <rect class="cls-1" x="102.27328" y="121.87021" width="22.68896" height="12.63403"/>
  <path class="cls-1" d="M97.81625,50.03329h29.06641c1.9096,0,3.45996,1.55036,3.45996,3.45996v8.1709c0,1.9096-1.55036,3.45996-3.45996,3.45996h-29.06641c-1.90907,0-3.45898-1.54992-3.45898-3.45898v-8.17285c0-1.90907,1.54992-3.45898,3.45898-3.45898Z"/>
</svg>