<?xml version="1.0" encoding="UTF-8"?>
<svg id="_Слой_1" data-name="Слой 1" xmlns="http://www.w3.org/2000/svg" viewBox="0 0 223.63668 223.63711">
  <defs>
    <style>
      .cls-1 {
        fill: #f57d7f;
      }

      .cls-1, .cls-2 {
        stroke-width: 0px;
      }

      .cls-2 {
        fill: #ffdae3;
      }
    </style>
  </defs>
  <path class="cls-1" d="M223.63668,117.33526c-.38182.87953-.23962,1.83134-.30357,2.7391-.46646,6.62093-1.54949,13.13692-3.19233,19.56113-2.84232,11.11493-7.32352,21.53232-13.38628,31.27028-5.0605,8.12815-11.07238,15.48543-18.01977,22.06778-6.9666,6.60055-14.65829,12.21878-23.07246,16.8473-8.72039,4.79697-17.91104,8.37307-27.58666,10.69875-4.62334,1.1113-9.29892,1.91018-14.02934,2.43063-5.23503.57597-10.48186.80666-15.73756.62735-5.94946-.20299-11.85445-.85232-17.71059-1.9822-7.67743-1.48126-15.11589-3.72652-22.30949-6.77068-8.97665-3.79872-17.31468-8.69981-25.01349-14.68346-4.29739-3.34003-8.33724-6.96688-12.10415-10.89435-6.78868-7.07812-12.55922-14.90775-17.29911-23.49631-4.83746-8.76538-8.43543-18.01262-10.76955-27.74695-1.10165-4.59439-1.90326-9.24101-2.41248-13.94316-.54793-5.05968-.7955-10.12983-.64787-15.21177.28757-9.89874,1.79357-19.60795,4.64309-29.10538,3.44455-11.48065,8.60156-22.12688,15.46423-31.94744,5.09207-7.28681,10.9792-13.86215,17.6396-19.75696,8.0619-7.13521,16.96585-12.97455,26.7032-17.54991,8.1172-3.8141,16.58222-6.59199,25.37552-8.33742,5.58187-1.10798,11.21627-1.84896,16.91574-2.00135.20018-.00535.41458.02958.57036-.15027h9.99718c.11113.17953.29548.16135.46725.16858,2.09826.08832,4.18565.29524,6.27464.50954,4.70371.48253,9.34616,1.3068,13.93951,2.40919,9.78884,2.3493,19.08242,5.97648,27.89132,10.85142,8.26974,4.57654,15.84032,10.11329,22.70402,16.60294,6.97341,6.59338,13.01045,13.96406,18.0904,22.11296,6.08287,9.75767,10.57762,20.19635,13.42478,31.33796,1.6413,6.42285,2.72369,12.9369,3.19068,19.55588.06399.90707-.07926,1.85846.30316,2.73727v11.04951ZM111.75863,5.41738c-29.04131.47015-54.29089,10.53557-74.93768,31.11462C16.20074,57.08457,5.67042,82.24872,5.54897,111.34405c-.122,29.22752,10.25903,54.57708,30.86424,75.33079,20.55555,20.70372,45.76689,31.28127,74.92649,31.41166,29.32856.13118,54.74457-10.30569,75.52246-31.03363,20.67827-20.62857,31.2051-45.89013,31.2404-75.08693.03537-29.22425-10.42124-54.53833-31.07891-75.24075-20.66258-20.70736-45.97322-30.84077-75.26503-31.30782Z"/>
  <path class="cls-2" d="M111.75863,5.41738c29.29181.46705,54.60245,10.60046,75.26503,31.30782,20.65767,20.70242,31.11428,46.01649,31.07891,75.24075-.0353,29.1968-10.56214,54.45836-31.2404,75.08693-20.7779,20.72794-46.1939,31.1648-75.52246,31.03363-29.15959-.13039-54.37094-10.70794-74.92649-31.41166-20.60521-20.75371-30.98624-46.10327-30.86424-75.33079.12145-29.09533,10.65176-54.25949,31.27198-74.81206C57.46773,15.95295,82.71731,5.88753,111.75863,5.41738ZM203.51896,84.02674c-.04248-5.21086-1.49036-8.83941-4.55025-11.78949-1.50322-1.44927-3.25523-2.53973-5.11236-3.47408-5.21014-2.62132-10.66383-4.74843-15.65927-7.80807-4.31064-2.64018-8.35586-5.60871-12.06336-9.05745-1.62768-1.51407-3.11207-3.14381-4.57959-4.79905-2.53874-2.8635-4.70604-6.00001-6.7617-9.21908-2.53867-3.97545-4.69318-8.19662-7.62401-11.92126-2.10433-2.67428-4.54446-4.94052-7.78519-6.16107-5.4319-2.0458-10.68043-1.62982-15.70349,1.30875-3.54354,2.07303-6.48817,4.91645-9.60926,7.52973-2.77967,2.3274-5.68952,4.46323-8.95433,6.05574-3.75378,1.83103-7.75305,2.87973-11.90561,3.16207-5.00938.3406-9.94744-.18378-14.73862-1.7865-3.28865-1.10011-6.56334-2.2456-9.8738-3.27593-3.88704-1.20978-7.80111-1.57114-11.70368.01251-3.90967,1.58653-6.8158,4.18043-8.36906,8.18176-1.03513,2.66656-1.73502,5.43665-2.59633,8.15685-1.66287,5.25169-3.98088,10.20717-6.82318,14.92317-2.18491,3.62525-4.61655,7.07546-7.41402,10.25001-1.8116,2.05578-3.75161,3.998-5.6171,6.00686-1.25174,1.34794-2.38995,2.78764-3.26546,4.41417-1.42182,2.64145-1.85585,5.48521-1.75585,8.45274.11039,3.27581,1.08832,6.28607,2.63243,9.14293,1.514,2.80115,3.44131,5.33941,5.09991,8.05061,2.98293,4.87601,2.52698,10.74284-1.27709,14.98157-1.43931,1.60378-2.91836,3.17537-4.29182,4.83406-4.13745,4.9967-3.76499,12.08943.93407,16.5111,2.88063,2.71059,5.97781,5.21089,8.44461,8.35701,3.24018,4.13246,5.73772,8.62199,7.07341,13.73091.76561,2.92841,1.09706,5.9377,1.74116,8.88736,1.13072,5.17826,4.12083,8.73425,9.21208,10.3709,2.73888.88043,5.53169.59613,8.29242.04907,2.64822-.52473,5.27174-1.24571,7.96284-1.45435,4.27902-.33177,8.41867.34146,12.33103,2.20061,3.97063,1.88682,6.97312,4.89272,9.72029,8.23282,2.03065,2.46891,3.94146,5.04642,6.4341,7.11259,2.71419,2.24981,5.82899,3.41007,9.31,3.42788,2.45012.01255,4.74915-.721,6.83371-2.0824,2.42721-1.58518,4.27489-3.7911,6.29316-5.80816,2.95785-2.95616,6.23088-5.42404,10.09286-7.0866,3.86057-1.66196,7.8836-2.64792,12.07249-2.85153,2.26724-.1102,4.5344-.1807,6.7999-.35585,3.12301-.24142,6.06815-1.1025,8.87465-2.42993,6.0969-2.88375,11.15552-7.06401,15.21917-12.43986,2.70151-3.57384,4.7061-7.49288,5.76219-11.87291.7296-3.02591.91592-6.14561,1.59913-9.17636.96865-4.29707,3.53016-7.32356,7.49667-9.18946,1.74875-.82266,3.62905-1.26654,5.44999-1.87968,3.58775-1.20806,6.09982-3.51641,7.48638-7.06229,1.1606-2.96804,1.05332-5.9626.31928-8.98614-.99982-4.11833-2.42078-8.14127-2.7378-12.41312-.26822-3.61436-.25795-7.20665.50857-10.77338.87275-4.06111,2.69556-7.74666,4.42748-11.47438,1.28067-2.75651,2.44853-5.55613,2.34823-7.71543Z"/>
  <path class="cls-1" d="M203.51896,84.02674c.1003,2.15931-1.06756,4.95893-2.34823,7.71543-1.73192,3.72771-3.55473,7.41327-4.42748,11.47438-.76651,3.56672-.77679,7.15902-.50857,10.77338.31701,4.27185,1.73798,8.29479,2.7378,12.41312.73403,3.02354.84132,6.0181-.31928,8.98614-1.38656,3.54588-3.89864,5.85423-7.48638,7.06229-1.82095.61314-3.70124,1.05702-5.44999,1.87968-3.96651,1.8659-6.52802,4.89238-7.49667,9.18946-.68321,3.03075-.86953,6.15045-1.59913,9.17636-1.05609,4.38003-3.06068,8.29907-5.76219,11.87291-4.06365,5.37585-9.12227,9.55611-15.21917,12.43986-2.8065,1.32743-5.75163,2.18851-8.87465,2.42993-2.2655.17515-4.53266.24566-6.7999.35585-4.18889.20361-8.21192,1.18957-12.07249,2.85153-3.86197,1.66256-7.13501,4.13044-10.09286,7.0866-2.01827,2.01706-3.86596,4.22297-6.29316,5.80816-2.08455,1.36141-4.38359,2.09495-6.83371,2.0824-3.48101-.01781-6.5958-1.17807-9.31-3.42788-2.49264-2.06617-4.40345-4.64368-6.4341-7.11259-2.74718-3.3401-5.74966-6.34599-9.72029-8.23282-3.91236-1.85914-8.05201-2.53237-12.33103-2.20061-2.6911.20864-5.31463.92961-7.96284,1.45435-2.76073.54706-5.55354.83136-8.29242-.04907-5.09125-1.63665-8.08135-5.19265-9.21208-10.3709-.64409-2.94966-.97554-5.95895-1.74116-8.88736-1.33569-5.10892-3.83323-9.59845-7.07341-13.73091-2.4668-3.14613-5.56398-5.64643-8.44461-8.35701-4.69906-4.42168-5.07151-11.5144-.93407-16.5111,1.37346-1.65869,2.85251-3.23029,4.29182-4.83406,3.80407-4.23873,4.26002-10.10556,1.27709-14.98157-1.65861-2.7112-3.58591-5.24946-5.09991-8.05061-1.54411-2.85687-2.52204-5.86713-2.63243-9.14293-.1-2.96753.33403-5.81128,1.75585-8.45274.87552-1.62653,2.01373-3.06623,3.26546-4.41417,1.86549-2.00886,3.80549-3.95108,5.6171-6.00686,2.79747-3.17455,5.22911-6.62477,7.41402-10.25001,2.8423-4.71599,5.16031-9.67148,6.82318-14.92317.86131-2.7202,1.56121-5.49029,2.59633-8.15685,1.55326-4.00134,4.45939-6.59524,8.36906-8.18176,3.90257-1.58365,7.81664-1.22229,11.70368-.01251,3.31046,1.03033,6.58514,2.17582,9.8738,3.27593,4.79118,1.60272,9.72923,2.1271,14.73862,1.7865,4.15256-.28234,8.15183-1.33104,11.90561-3.16207,3.2648-1.59251,6.17466-3.72834,8.95433-6.05574,3.12109-2.61327,6.06573-5.4567,9.60926-7.52973,5.02306-2.93857,10.27158-3.35455,15.70349-1.30875,3.24073,1.22055,5.68086,3.48679,7.78519,6.16107,2.93083,3.72463,5.08534,7.94581,7.62401,11.92126,2.05565,3.21907,4.22295,6.35558,6.7617,9.21908,1.46751,1.65524,2.95191,3.28497,4.57959,4.79905,3.7075,3.44874,7.75272,6.41727,12.06336,9.05745,4.99544,3.05964,10.44914,5.18675,15.65927,7.80807,1.85713.93436,3.60913,2.02481,5.11236,3.47408,3.05989,2.95007,4.50777,6.57862,4.55025,11.78949ZM104.68485,202.03924c.32738-.03047.87825.05027,1.4332-.06969,1.72453-.37279,3.05963-1.3969,4.29806-2.55935,2.19258-2.05808,4.18215-4.32294,6.46613-6.29157,3.7469-3.22956,8.03883-5.45147,12.70788-6.99019,4.69814-1.54829,9.56461-1.88875,14.4643-1.96914,1.72124-.02824,3.42233-.23814,5.09189-.64232,3.60171-.87191,6.76699-2.6485,9.75302-4.78462,3.47612-2.4867,6.34721-5.56178,8.74935-9.07709,2.83599-4.15024,4.03627-8.85635,4.60253-13.77489.37554-3.26203,1.09475-6.42466,2.88749-9.24968,2.05118-3.23227,4.77927-5.67217,8.27444-7.28253,1.9991-.92106,4.12708-1.43269,6.18657-2.15811,1.62254-.5715,2.86371-1.56424,3.63343-3.09376.99307-1.97329.97862-4.0554.46003-6.13974-1.26857-5.09883-2.85384-10.11315-3.10142-15.4406-.14045-3.02186.02952-5.99052.50131-8.94388.6812-4.26397,2.26862-8.23704,4.14948-12.10838.85181-1.75328,1.72278-3.50463,2.30224-5.38365,1.27273-4.12709.06761-8.06716-3.30664-10.68942-1.41934-1.10301-3.04349-1.84259-4.64762-2.60742-4.3178-2.05869-8.72638-3.92697-12.87162-6.34132-7.33344-4.2713-13.9391-9.41264-19.46522-15.90261-2.89928-3.40498-5.4185-7.06524-7.7954-10.84208-2.37127-3.76788-4.39326-7.75984-7.30306-11.18495-3.20786-3.77595-7.2219-5.16177-12.03145-4.18712-2.39302.48494-4.38932,1.83272-6.29359,3.30487-3.06275,2.36775-5.87601,5.03654-8.95323,7.38864-3.69032,2.82072-7.67976,5.10327-12.10951,6.5016-4.86012,1.53418-9.84355,2.20593-14.9674,1.83435-2.44563-.17735-4.84872-.51132-7.23202-1.04877-4.10569-.92587-8.00037-2.51585-11.99235-3.80034-2.37376-.7638-4.76952-1.52267-7.32884-1.15071-3.53622.51393-6.21045,2.1988-7.58881,5.62536-1.0786,2.68135-1.73858,5.4968-2.63413,8.23656-1.52675,4.67081-3.47917,9.15824-5.90853,13.433-1.59926,2.8141-3.32902,5.54446-5.22515,8.17059-2.85849,3.95902-6.20874,7.48391-9.57586,11.00004-.96168,1.00423-1.93424,2.0338-2.56259,3.30337-2.17051,4.38551-1.45162,8.62709.83369,12.68855,1.32718,2.35865,2.92095,4.56602,4.35896,6.86387,2.23914,3.578,3.62409,7.36796,3.23601,11.71328-.28843,3.22953-1.32252,6.12548-3.13058,8.77821-1.59983,2.34721-3.71283,4.25301-5.53266,6.41202-2.08465,2.47318-2.33313,5.72453-.41465,8.20997.83259,1.07866,1.84421,2.04583,2.88796,2.92965,2.81313,2.38211,5.43085,4.94876,7.65261,7.89147,3.37006,4.46365,5.91833,9.33792,7.33556,14.78535.80633,3.09934,1.20009,6.27271,1.85252,9.39896.85189,4.082,4.39094,6.57419,8.04848,6.32142,1.98225-.13702,3.91044-.56017,5.83294-.99513,4.50542-1.01934,9.04082-1.36487,13.60147-.56004,7.50298,1.32409,13.34735,5.37818,18.13331,11.16516,1.96155,2.3718,3.75475,4.89569,6.10201,6.93519,1.7047,1.48119,3.56345,2.5273,6.13545,2.37762Z"/>
  <path class="cls-2" d="M104.68485,202.03924c-2.572.14968-4.43075-.89643-6.13545-2.37762-2.34725-2.0395-4.14045-4.56339-6.10201-6.93519-4.78596-5.78698-10.63033-9.84108-18.13331-11.16516-4.56065-.80484-9.09604-.4593-13.60147.56004-1.9225.43496-3.85069.8581-5.83294.99513-3.65754.25276-7.1966-2.23942-8.04848-6.32142-.65243-3.12626-1.04619-6.29963-1.85252-9.39896-1.41723-5.44742-3.9655-10.32169-7.33556-14.78535-2.22175-2.94271-4.83948-5.50936-7.65261-7.89147-1.04375-.88382-2.05537-1.85099-2.88796-2.92965-1.91848-2.48544-1.67-5.73679.41465-8.20997,1.81982-2.15901,3.93283-4.06481,5.53266-6.41202,1.80805-2.65273,2.84215-5.54868,3.13058-8.77821.38808-4.34532-.99687-8.13527-3.23601-11.71328-1.43801-2.29785-3.03178-4.50522-4.35896-6.86387-2.28531-4.06146-3.0042-8.30304-.83369-12.68855.62835-1.26957,1.60091-2.29914,2.56259-3.30337,3.36712-3.51613,6.71737-7.04102,9.57586-11.00004,1.89613-2.62614,3.62589-5.35649,5.22515-8.17059,2.42935-4.27477,4.38177-8.76219,5.90853-13.433.89555-2.73976,1.55553-5.55522,2.63413-8.23656,1.37836-3.42656,4.05259-5.11143,7.58881-5.62536,2.55931-.37196,4.95507.38692,7.32884,1.15071,3.99198,1.28449,7.88666,2.87448,11.99235,3.80034,2.3833.53745,4.78639.87142,7.23202,1.04877,5.12385.37158,10.10728-.30017,14.9674-1.83435,4.42975-1.39833,8.41919-3.68088,12.10951-6.5016,3.07722-2.3521,5.89049-5.02089,8.95323-7.38864,1.90427-1.47215,3.90058-2.81993,6.29359-3.30487,4.80955-.97465,8.82359.41117,12.03145,4.18712,2.90981,3.42511,4.93179,7.41707,7.30306,11.18495,2.3769,3.77684,4.89612,7.4371,7.7954,10.84208,5.52611,6.48997,12.13177,11.63132,19.46522,15.90261,4.14525,2.41435,8.55382,4.28263,12.87162,6.34132,1.60413.76483,3.22828,1.50441,4.64762,2.60742,3.37425,2.62226,4.57936,6.56233,3.30664,10.68942-.57946,1.87902-1.45043,3.63037-2.30224,5.38365-1.88085,3.87134-3.46828,7.84441-4.14948,12.10838-.47179,2.95335-.64176,5.92201-.50131,8.94388.24758,5.32745,1.83285,10.34178,3.10142,15.4406.51859,2.08434.53304,4.16645-.46003,6.13974-.76972,1.52952-2.01089,2.52226-3.63343,3.09376-2.05949.72542-4.18748,1.23705-6.18657,2.15811-3.49517,1.61036-6.22326,4.05026-8.27444,7.28253-1.79274,2.82502-2.51195,5.98766-2.88749,9.24968-.56626,4.91854-1.76653,9.62466-4.60253,13.77489-2.40214,3.51531-5.27323,6.59038-8.74935,9.07709-2.98602,2.13612-6.15131,3.9127-9.75302,4.78462-1.66956.40417-3.37065.61408-5.09189.64232-4.89969.08039-9.76615.42085-14.4643,1.96914-4.66905,1.53872-8.96098,3.76063-12.70788,6.99019-2.28399,1.96863-4.27356,4.23349-6.46613,6.29157-1.23843,1.16244-2.57353,2.18656-4.29806,2.55935-.55495.11996-1.10583.03922-1.4332.06969ZM149.1194,109.74712c.01911-1.81704-.11488-3.6081-.34594-5.40635-.43721-3.4028-1.32028-6.67981-2.61025-9.84131-2.15494-5.28137-5.25934-9.9265-9.4401-13.8418-3.03573-2.84297-6.44355-5.10102-10.30935-6.62399-5.00009-1.96982-10.17649-2.77948-15.56157-2.32919-2.26781.18963-4.50526.48742-6.7075,1.02514-5.61462,1.3709-10.7721,3.75561-15.4667,7.1259-2.92659,2.10102-5.56328,4.53107-7.85047,7.31123-2.36242,2.87158-4.29834,6.0184-5.73996,9.45956-1.43994,3.43715-2.36542,7.01847-2.60357,10.72267-.35107,5.46061.33237,10.8099,2.27269,15.96385,2.46794,6.55542,6.19407,12.24013,11.49294,16.87844,3.19216,2.79422,6.72846,4.99686,10.63361,6.63241,3.46619,1.45169,7.08429,2.33107,10.8174,2.56587,2.17193.13662,4.36477.11767,6.55628-.10187,3.74692-.37531,7.33812-1.30408,10.75484-2.83521,6.2036-2.78003,11.42776-6.84267,15.56177-12.26412,5.50509-7.21949,8.51101-15.31431,8.54589-24.44123ZM67.68931,66.31792c-.08812.06814-.23764.15838-.35614.27907-2.82269,2.87463-5.64118,5.75338-8.46376,8.62812-.20981.21368-.32527.40463-.06143.66192,1.0244.99893,2.03992,2.00698,3.06523,3.00497.40266.39194.72782.36385,1.15095-.07506,2.69467-2.79522,5.41657-5.56433,8.14561-8.32611.35599-.36025.44638-.59532.03192-.98646-.97709-.92214-1.90945-1.89162-2.86337-2.83846-.16207-.16086-.30442-.36543-.64901-.34798ZM134.16548,54.5241c.00758-.34548-.29768-.39478-.51756-.50339-3.53148-1.7444-7.06945-3.47575-10.59605-5.22994-.45143-.22455-.66742-.13383-.87724.3046-.59211,1.23725-1.20687,2.46414-1.83854,3.68172-.23998.46259-.17089.73294.31244.96863,3.54035,1.72629,7.07425,3.46584,10.60465,5.21239.45622.2257.74975.17753.97863-.31115.42083-.89851.88678-1.77579,1.31509-2.67094.2257-.47168.4116-.96242.61859-1.45193ZM161.73079,144.19636c-.02844-2.12286.23843-1.91214-1.438-1.96251-1.2193-.03663-2.43956-.10169-3.65456-.20885-2.45781-.21678-4.91773-.3869-7.38275-.4952-.55425-.02435-.67463.20626-.69806.71582-.06389,1.3899-.17588,2.77832-.30306,4.16418-.04086.44541.12966.54881.53032.57179,2.86947.16464,5.74363.286,8.60389.55365,1.15457.10806,2.32552.00683,3.46702.27801.42752.10156.70505-.10165.67791-.55062-.07245-1.19871.18832-2.37669.19728-3.06627ZM101.99197,183.04259c.12942-.08388.27716-.17464.41977-.27285.76636-.52792,1.5335-1.05473,2.29659-1.58736,2.47988-1.73094,4.94788-3.4792,7.44553-5.18403.50042-.34158.50519-.58702.17401-1.03887-.80765-1.10196-1.58442-2.22725-2.3487-3.35997-.26665-.39517-.47927-.48653-.89907-.16995-.97451.73493-1.98418,1.42377-2.98764,2.1197-2.22254,1.54139-4.44931,3.07668-6.67623,4.61176-.35821.24695-.67483.47811-.32041.97473.84469,1.1836,1.66799,2.38244,2.5082,3.56929.09348.13203.14134.33575.38795.33755ZM63.84863,140.15542c-.07773-.12026-.12952-.22166-.20068-.30688-.33535-.40152-.67392-.80043-1.01513-1.19701-2.25624-2.62236-4.53623-5.22493-6.75035-7.88237-.42112-.50544-.72457-.5124-1.13931-.16523-.9363.78376-1.86966,1.57288-2.77036,2.39682-.82712.75663-.78372.75732-.02671,1.63225,1.61597,1.86767,3.20041,3.76258,4.80617,5.63915.86964,1.01632,1.75697,2.01752,2.63538,3.02635.23827.27366.44286.39522.79171.08657,1.1097-.98183,2.25409-1.92439,3.38093-2.88696.10558-.09018.182-.21448.28835-.34269ZM173.37465,101.73116c-.11512-.12089-.25222-.26975-.3945-.41349-.84253-.85114-1.73357-1.65973-2.52011-2.5597-1.84735-2.11379-3.93726-3.9866-5.86771-6.01643-.23207-.24402-.39264-.25057-.64138-.00911-1.02477.99484-2.06276,1.97634-3.10948,2.9481-.37435.34756-.4157.62708-.03101,1.01721,2.78706,2.82649,5.56232,5.66467,8.32891,8.51119.33206.34165.56075.40241.92142.02783.99262-1.03089,2.02161-2.02674,3.03244-3.0402.11809-.1184.2853-.2118.28142-.4654Z"/>
  <path class="cls-1" d="M149.1194,109.74712c-.03488,9.12692-3.0408,17.22174-8.54589,24.44123-4.13402,5.42145-9.35818,9.48409-15.56177,12.26412-3.41671,1.53113-7.00792,2.4599-10.75484,2.83521-2.19151.21954-4.38435.23848-6.55628.10187-3.73311-.2348-7.3512-1.11418-10.8174-2.56587-3.90515-1.63555-7.44145-3.83819-10.63361-6.63241-5.29887-4.63831-9.025-10.32302-11.49294-16.87844-1.94032-5.15395-2.62376-10.50324-2.27269-15.96385.23815-3.70419,1.16363-7.28552,2.60357-10.72267,1.44162-3.44116,3.37754-6.58799,5.73996-9.45956,2.2872-2.78015,4.92388-5.2102,7.85047-7.31123,4.6946-3.37029,9.85208-5.75501,15.4667-7.1259,2.20223-.53772,4.43968-.83551,6.7075-1.02514,5.38508-.45029,10.56148.35937,15.56157,2.32919,3.86581,1.52297,7.27362,3.78102,10.30935,6.62399,4.18077,3.91529,7.28516,8.56042,9.4401,13.8418,1.28997,3.1615,2.17304,6.43851,2.61025,9.84131.23105,1.79825.36505,3.58931.34594,5.40635ZM112.74281,77.11282c-1.49805-.07297-3.76548.17122-5.99044.6587-8.85492,1.94008-16.31448,6.25461-22.02021,13.3555-5.67735,7.06559-7.932,15.1523-6.42057,24.10915,1.55132,9.19336,6.07186,16.73065,13.50283,22.39693,6.63363,5.05828,14.17366,7.13365,22.46902,6.13969,6.47635-.77599,12.2208-3.41262,17.02573-7.77054,9.46644-8.58572,13.84443-19.1749,11.82718-32.02794-1.05406-6.71601-3.8981-12.64292-8.51008-17.64701-5.66316-6.14466-12.71393-9.22095-21.88345-9.21448Z"/>
  <path class="cls-1" d="M67.68931,66.31792c.34459-.01745.48694.18712.64901.34798.95392.94684,1.88628,1.91632,2.86337,2.83846.41446.39115.32406.62621-.03192.98646-2.72905,2.76178-5.45094,5.53089-8.14561,8.32611-.42313.43892-.74829.46701-1.15095.07506-1.02531-.998-2.04083-2.00604-3.06523-3.00497-.26384-.25728-.14838-.44824.06143-.66192,2.82258-2.87473,5.64107-5.75348,8.46376-8.62812.1185-.12069.26802-.21093.35614-.27907Z"/>
  <path class="cls-1" d="M134.16548,54.5241c-.20699.48951-.39289.98024-.61859,1.45193-.4283.89515-.89426,1.77243-1.31509,2.67094-.22888.48868-.52241.53685-.97863.31115-3.5304-1.74655-7.0643-3.4861-10.60465-5.21239-.48334-.23568-.55243-.50604-.31244-.96863.63167-1.21758,1.24644-2.44447,1.83854-3.68172.20983-.43844.42582-.52915.87724-.3046,3.5266,1.75419,7.06457,3.48554,10.59605,5.22994.21988.10861.52514.15791.51756.50339Z"/>
  <path class="cls-1" d="M161.73079,144.19636c-.00896.68958-.26973,1.86755-.19728,3.06627.02714.44896-.25039.65217-.67791.55062-1.1415-.27118-2.31245-.16995-3.46702-.27801-2.86026-.26764-5.73442-.38901-8.60389-.55365-.40066-.02298-.57118-.12638-.53032-.57179.12717-1.38587.23917-2.77428.30306-4.16418.02342-.50955.14381-.74017.69806-.71582,2.46502.1083,4.92494.27841,7.38275.4952,1.215.10717,2.43526.17222,3.65456.20885,1.67643.05037,1.40956-.16035,1.438,1.96251Z"/>
  <path class="cls-1" d="M101.99197,183.04259c-.24661-.0018-.29447-.20551-.38795-.33755-.84021-1.18685-1.66351-2.38569-2.5082-3.56929-.35442-.49662-.0378-.72778.32041-.97473,2.22692-1.53507,4.45369-3.07037,6.67623-4.61176,1.00346-.69593,2.01313-1.38476,2.98764-2.1197.4198-.31658.63242-.22522.89907.16995.76428,1.13272,1.54104,2.25801,2.3487,3.35997.33118.45184.32641.69728-.17401,1.03887-2.49766,1.70483-4.96566,3.45309-7.44553,5.18403-.76309.53263-1.53022,1.05944-2.29659,1.58736-.14261.09821-.29035.18896-.41977.27285Z"/>
  <path class="cls-1" d="M63.84863,140.15542c-.10635.1282-.18278.25251-.28835.34269-1.12684.96257-2.27123,1.90513-3.38093,2.88696-.34886.30865-.55344.18709-.79171-.08657-.87841-1.00883-1.76574-2.01003-2.63538-3.02635-1.60576-1.87657-3.1902-3.77147-4.80617-5.63915-.75701-.87493-.80042-.87562.02671-1.63225.9007-.82393,1.83406-1.61306,2.77036-2.39682.41474-.34717.71819-.34021,1.13931.16523,2.21413,2.65744,4.49411,5.26001,6.75035,7.88237.34121.39658.67978.79549,1.01513,1.19701.07116.08522.12295.18662.20068.30688Z"/>
  <path class="cls-1" d="M173.37465,101.73116c.00388.2536-.16334.347-.28142.4654-1.01083,1.01346-2.03982,2.00931-3.03244,3.0402-.36067.37458-.58937.31381-.92142-.02783-2.7666-2.84652-5.54185-5.6847-8.32891-8.51119-.38469-.39013-.34334-.66966.03101-1.01721,1.04672-.97176,2.08471-1.95326,3.10948-2.9481.24874-.24146.40931-.23491.64138.00911,1.93045,2.02983,4.02035,3.90264,5.86771,6.01643.78654.89997,1.67759,1.70857,2.52011,2.5597.14228.14373.27938.2926.3945.41349Z"/>
</svg>