<?xml version="1.0" encoding="UTF-8"?>
<svg id="_Слой_1" data-name="Слой 1" xmlns="http://www.w3.org/2000/svg" viewBox="0 0 227.23852 227.23928">
  <defs>
    <style>
      .cls-1 {
        stroke: #b8e87b;
      }

      .cls-1, .cls-2, .cls-3, .cls-4 {
        fill: none;
        stroke-miterlimit: 5.57;
      }

      .cls-1, .cls-2, .cls-4 {
        stroke-width: .557px;
      }

      .cls-5 {
        fill: #b8e87b;
      }

      .cls-5, .cls-6, .cls-7, .cls-8 {
        stroke-width: 0px;
      }

      .cls-2, .cls-3 {
        stroke: #aac419;
      }

      .cls-6 {
        fill: #4a6401;
      }

      .cls-7 {
        fill: #ffd03c;
      }

      .cls-3 {
        stroke-width: 5.57px;
      }

      .cls-8 {
        fill: #aac419;
      }

      .cls-4 {
        stroke: #718c09;
      }
    </style>
  </defs>
  <path class="cls-3" d="M35.2474,35.24795c43.28394-43.28394,113.45996-43.28394,156.7439,0,43.28296,43.2832,43.28296,113.46021,0,156.74402-43.28394,43.28308-113.45996,43.28308-156.7439,0-43.2832-43.28381-43.2832-113.45984,0-156.74402Z"/>
  <path class="cls-7" d="M73.53427,115.975h-7.67603c-2.08911,0-3.78198,1.69409-3.78198,3.78223v58.98083c0,2.08801,1.69287,3.776,3.78198,3.776h7.67603c2.08887,0,3.78198-1.69299,3.78198-3.776v-58.98083c0-2.08813-1.69312-3.78223-3.78198-3.78223"/>
  <path class="cls-1" d="M73.53427,115.975h-7.67603c-2.08911,0-3.78198,1.69409-3.78198,3.78223v58.98083c0,2.08801,1.69287,3.776,3.78198,3.776h7.67603c2.08887,0,3.78198-1.69299,3.78198-3.776v-58.98083c0-2.08813-1.69312-3.78223-3.78198-3.78223"/>
  <path class="cls-3" d="M73.53427,115.975h-7.67603c-2.08911,0-3.78198,1.69409-3.78198,3.78223v58.98083c0,2.08801,1.69287,3.776,3.78198,3.776h7.67603c2.08887,0,3.78198-1.69299,3.78198-3.776v-58.98083c0-2.08813-1.69312-3.78223-3.78198-3.78223Z"/>
  <path class="cls-7" d="M102.15536,99.82071h-6.88013c-2.30591,0-4.177,1.87207-4.177,4.17822v74.33789c0,2.30591,1.87109,4.17798,4.177,4.17798h6.88013c2.30591,0,4.17798-1.87207,4.17798-4.17798v-74.33789c0-2.30615-1.87207-4.17822-4.17798-4.17822"/>
  <path class="cls-1" d="M102.15536,99.82071h-6.88013c-2.30591,0-4.177,1.87207-4.177,4.17822v74.33789c0,2.30591,1.87109,4.17798,4.177,4.17798h6.88013c2.30591,0,4.17798-1.87207,4.17798-4.17798v-74.33789c0-2.30615-1.87207-4.17822-4.17798-4.17822"/>
  <path class="cls-3" d="M95.27646,99.82071h6.87988c2.30535,0,4.177,1.87165,4.177,4.177v74.34009c0,2.30535-1.87165,4.177-4.177,4.177h-6.88013c-2.30589,0-4.17798-1.87209-4.17798-4.17798v-74.33789c0-2.30602,1.8722-4.17822,4.17822-4.17822Z"/>
  <path class="cls-7" d="M131.26669,85.31533h-6.11108c-2.51807,0-4.56201,2.04419-4.56201,4.56201v88.08008c0,2.51794,2.04395,4.56299,4.56201,4.56299h6.11108c2.51782,0,4.56177-2.04504,4.56177-4.56299v-88.08008c-.00488-2.52295-2.04395-4.56201-4.56177-4.56201"/>
  <path class="cls-1" d="M131.26669,85.31533h-6.11108c-2.51807,0-4.56201,2.04419-4.56201,4.56201v88.08008c0,2.51794,2.04395,4.56299,4.56201,4.56299h6.11108c2.51782,0,4.56177-2.04504,4.56177-4.56299v-88.08008c-.00488-2.52295-2.04395-4.56201-4.56177-4.56201"/>
  <path class="cls-3" d="M131.26669,85.31533h-6.11108c-2.51807,0-4.56201,2.04419-4.56201,4.56201v88.08008c0,2.51794,2.04395,4.56299,4.56201,4.56299h6.11108c2.51782,0,4.56177-2.04504,4.56177-4.56299v-88.08008c-.00488-2.52295-2.04395-4.56201-4.56177-4.56201Z"/>
  <path class="cls-8" d="M161.98788,70.44204h-8.79614c-1.7771,0-3.21899,1.44312-3.21899,3.22021v105.63782c0,1.77698,1.44189,3.21997,3.21899,3.21997h8.79614c1.77686,0,3.21899-1.44299,3.21899-3.21997v-105.63782c-.00513-1.7771-1.44214-3.22021-3.21899-3.22021"/>
  <path class="cls-1" d="M161.98788,70.44204h-8.79614c-1.7771,0-3.21899,1.44312-3.21899,3.22021v105.63782c0,1.77698,1.44189,3.21997,3.21899,3.21997h8.79614c1.77686,0,3.21899-1.44299,3.21899-3.21997v-105.63782c-.00513-1.7771-1.44214-3.22021-3.21899-3.22021"/>
  <path class="cls-7" d="M161.98788,70.44204h-8.79614c-1.7771,0-3.21899,1.44312-3.21899,3.22021v105.63782c0,1.77698,1.44189,3.21997,3.21899,3.21997h8.79614c1.77686,0,3.21899-1.44299,3.21899-3.21997v-105.63782c-.00513-1.7771-1.44214-3.22021-3.21899-3.22021"/>
  <path class="cls-3" d="M161.98788,70.44204h-8.79614c-1.7771,0-3.21899,1.44312-3.21899,3.22021v105.63782c0,1.77698,1.44189,3.21997,3.21899,3.21997h8.79614c1.77686,0,3.21899-1.44299,3.21899-3.21997v-105.63782c-.00513-1.7771-1.44214-3.22021-3.21899-3.22021Z"/>
  <path class="cls-5" d="M63.61337,98.06045c10.22192-5.62085,20.44385-11.24097,30.66479-16.86694,16.21021-8.91895,32.42017-17.83105,48.63013-26.7439,3.75488-2.06714,7.50903-4.12793,11.26392-6.19409,3.14209-1.72705.33398-6.54004-2.81299-4.81299-10.22192,5.62012-20.44385,11.24097-30.66504,16.86694-16.20996,8.91309-32.4209,17.83105-48.62988,26.74414-3.75513,2.06689-7.50903,4.12793-11.26416,6.19385-3.14185,1.73315-.33398,6.54517,2.81323,4.81299"/>
  <path class="cls-8" d="M63.61337,98.06045c10.22192-5.62085,20.44385-11.24097,30.66479-16.86694,16.21021-8.91895,32.42017-17.83105,48.63013-26.7439,3.75488-2.06714,7.50903-4.12793,11.26392-6.19409,3.14209-1.72705.33398-6.54004-2.81299-4.81299-10.22192,5.62012-20.44385,11.24097-30.66504,16.86694-16.20996,8.91309-32.4209,17.83105-48.62988,26.74414-3.75513,2.06689-7.50903,4.12793-11.26416,6.19385-3.14185,1.73315-.33398,6.54517,2.81323,4.81299"/>
  <path class="cls-2" d="M63.61337,98.06045c10.22192-5.62085,20.44385-11.24097,30.66479-16.86694,16.21021-8.91895,32.42017-17.83105,48.63013-26.7439,3.75488-2.06714,7.50903-4.12793,11.26392-6.19409,3.14209-1.72705.33398-6.54004-2.81299-4.81299-10.22192,5.62012-20.44385,11.24097-30.66504,16.86694-16.20996,8.91309-32.4209,17.83105-48.62988,26.74414-3.75513,2.06689-7.50903,4.12793-11.26416,6.19385-3.14185,1.73315-.33398,6.54517,2.81323,4.81299"/>
  <path class="cls-6" d="M136.44711,47.49185c5.43677.38403,10.87891.76318,16.31592,1.14722,3.57593.25098,3.55908-5.31909,0-5.57007-5.43701-.38403-10.87915-.76294-16.31592-1.14795-3.57617-.2561-3.56006,5.31982,0,5.5708"/>
  <path class="cls-4" d="M136.44711,47.49185c5.43677.38403,10.87891.76318,16.31592,1.14722,3.57593.25098,3.55908-5.31909,0-5.57007-5.43701-.38403-10.87915-.76294-16.31592-1.14795-3.57617-.2561-3.56006,5.31982,0,5.5708"/>
  <path class="cls-8" d="M136.44711,47.49185c5.43677.38403,10.87891.76318,16.31592,1.14722,3.57593.25098,3.55908-5.31909,0-5.57007-5.43701-.38403-10.87915-.76294-16.31592-1.14795-3.57617-.2561-3.56006,5.31982,0,5.5708"/>
  <path class="cls-2" d="M136.44711,47.49185c5.43677.38403,10.87891.76318,16.31592,1.14722,3.57593.25098,3.55908-5.31909,0-5.57007-5.43701-.38403-10.87915-.76294-16.31592-1.14795-3.57617-.2561-3.56006,5.31982,0,5.5708"/>
  <path class="cls-5" d="M147.23153,61.76895c2.67896-4.74585,5.35889-9.4978,8.03784-14.2439,1.76611-3.125-3.04688-5.93799-4.80688-2.81299-2.6792,4.75195-5.35913,9.49805-8.03809,14.2439-1.76611,3.125,3.04102,5.93799,4.80713,2.81299"/>
  <path class="cls-8" d="M147.23153,61.76895c2.67896-4.74585,5.35889-9.4978,8.03784-14.2439,1.76611-3.125-3.04688-5.93799-4.80688-2.81299-2.6792,4.75195-5.35913,9.49805-8.03809,14.2439-1.76611,3.125,3.04102,5.93799,4.80713,2.81299"/>
  <path class="cls-2" d="M147.23153,61.76895c2.67896-4.74585,5.35889-9.4978,8.03784-14.2439,1.76611-3.125-3.04688-5.93799-4.80688-2.81299-2.6792,4.75195-5.35913,9.49805-8.03809,14.2439-1.76611,3.125,3.04102,5.93799,4.80713,2.81299"/>
</svg>