<svg id="Слой_1" data-name="Слой 1" xmlns="http://www.w3.org/2000/svg" viewBox="0 0 227.23924 227.23895"><defs><style>.cls-1{fill:none;stroke:#82acf6;stroke-miterlimit:5.57;stroke-width:5.57px;}.cls-2{fill:#dbeeff;}</style></defs><path class="cls-1" d="M421.71285,421.35131a110.83479,110.83479,0,1,1,0,156.74414A110.83511,110.83511,0,0,1,421.71285,421.35131Z" transform="translate(-386.46485 -386.10372)"/><path class="cls-2" d="M436.64224,449.89477l8.946,16.72216a1.13952,1.13952,0,0,0,.858.574l20.004,2.67993a1.03292,1.03292,0,0,1,.635,1.793l-14.478,13.01807a1.01277,1.01277,0,0,0-.329.9309l3.415,18.38208a1.124,1.124,0,0,1-1.654,1.10914l-17.893-8.6792a1.22639,1.22639,0,0,0-1.064,0l-17.892,8.6792a1.12356,1.12356,0,0,1-1.654-1.10914l3.42-18.38208a1.01029,1.01029,0,0,0-.329-.9309l-14.472-13.01807a1.0302,1.0302,0,0,1,.635-1.793l20.004-2.67993a1.14214,1.14214,0,0,0,.857-.574l8.947-16.72216a1.18075,1.18075,0,0,1,2.044,0" transform="translate(-386.46485 -386.10372)"/><path class="cls-1" d="M436.64224,449.89477l8.946,16.72216a1.13952,1.13952,0,0,0,.858.574l20.004,2.67993a1.03292,1.03292,0,0,1,.635,1.793l-14.478,13.01807a1.01277,1.01277,0,0,0-.329.9309l3.415,18.38208a1.124,1.124,0,0,1-1.654,1.10914l-17.893-8.6792a1.22639,1.22639,0,0,0-1.064,0l-17.892,8.6792a1.12356,1.12356,0,0,1-1.654-1.10914l3.42-18.38208a1.01029,1.01029,0,0,0-.329-.9309l-14.472-13.01807a1.0302,1.0302,0,0,1,.635-1.793l20.004-2.67993a1.14214,1.14214,0,0,0,.857-.574l8.947-16.72216A1.18075,1.18075,0,0,1,436.64224,449.89477Z" transform="translate(-386.46485 -386.10372)"/><path class="cls-1" d="M460.28335,521.34154l8.946,16.72217a1.13957,1.13957,0,0,0,.858.574l20.004,2.67993a1.03335,1.03335,0,0,1,.635,1.793l-14.478,13.019a1.01018,1.01018,0,0,0-.329.92993l3.415,18.3772a1.12314,1.12314,0,0,1-1.654,1.10791l-17.893-8.667a1.22477,1.22477,0,0,0-1.064,0l-17.892,8.678a1.12275,1.12275,0,0,1-1.654-1.10791l3.42-18.3772a1.00777,1.00777,0,0,0-.329-.92993l-14.472-13.01807a1.03082,1.03082,0,0,1,.635-1.79395l20.004-2.67993a1.14358,1.14358,0,0,0,.857-.573l8.947-16.7229A1.17731,1.17731,0,0,1,460.28335,521.34154Z" transform="translate(-386.46485 -386.10372)"/><path class="cls-1" d="M541.17205,521.34154l8.946,16.72217a1.13955,1.13955,0,0,0,.858.574l20.004,2.67993a1.03336,1.03336,0,0,1,.635,1.793l-14.478,13.019a1.01018,1.01018,0,0,0-.329.92993l3.415,18.3772a1.12315,1.12315,0,0,1-1.654,1.10791l-17.893-8.679a1.23149,1.23149,0,0,0-1.064,0l-17.892,8.679a1.12275,1.12275,0,0,1-1.654-1.10791l3.42-18.3772a1.00778,1.00778,0,0,0-.329-.92993l-14.472-13.019a1.0302,1.0302,0,0,1,.635-1.793l20.004-2.67993a1.14212,1.14212,0,0,0,.857-.574l8.947-16.72217A1.18148,1.18148,0,0,1,541.17205,521.34154Z" transform="translate(-386.46485 -386.10372)"/><path class="cls-1" d="M565.58184,452.84692l8.946,16.72314a1.13846,1.13846,0,0,0,.858.573l20.004,2.67993a1.03354,1.03354,0,0,1,.635,1.79394l-14.478,13.01807a1.01018,1.01018,0,0,0-.329.92993l3.415,18.3772a1.12315,1.12315,0,0,1-1.654,1.10791l-17.893-8.678a1.22477,1.22477,0,0,0-1.064,0l-17.892,8.678a1.12275,1.12275,0,0,1-1.654-1.10791l3.42-18.3772a1.00778,1.00778,0,0,0-.329-.92993l-14.472-13.01294a1.03094,1.03094,0,0,1,.635-1.79394l20.004-2.6792a1.14089,1.14089,0,0,0,.857-.574l8.947-16.72192A1.17919,1.17919,0,0,1,565.58184,452.84692Z" transform="translate(-386.46485 -386.10372)"/><path class="cls-2" d="M502.073,400.13915l9.893,18.489a1.25732,1.25732,0,0,0,.953.635l22.12,2.96314a1.14611,1.14611,0,0,1,.702,1.989l-16.004,14.394a1.10619,1.10619,0,0,0-.362,1.02978l3.777,20.32105a1.24345,1.24345,0,0,1-1.833,1.22607l-19.781-9.592a1.35294,1.35294,0,0,0-1.175,0l-19.781,9.592a1.24436,1.24436,0,0,1-1.832-1.22607l3.776-20.32105a1.10607,1.10607,0,0,0-.362-1.02978l-16.004-14.394a1.14474,1.14474,0,0,1,.702-1.989l22.115-2.96314a1.27109,1.27109,0,0,0,.952-.635l9.894-18.489a1.29689,1.29689,0,0,1,2.25,0" transform="translate(-386.46485 -386.10372)"/><path class="cls-1" d="M502.073,400.13915l9.893,18.489a1.25732,1.25732,0,0,0,.953.635l22.12,2.96314a1.14611,1.14611,0,0,1,.702,1.989l-16.004,14.394a1.10619,1.10619,0,0,0-.362,1.02978l3.777,20.32105a1.24345,1.24345,0,0,1-1.833,1.22607l-19.781-9.592a1.35294,1.35294,0,0,0-1.175,0l-19.781,9.592a1.24436,1.24436,0,0,1-1.832-1.22607l3.776-20.32105a1.10607,1.10607,0,0,0-.362-1.02978l-16.004-14.394a1.14474,1.14474,0,0,1,.702-1.989l22.115-2.96314a1.27109,1.27109,0,0,0,.952-.635l9.894-18.489A1.29689,1.29689,0,0,1,502.073,400.13915Z" transform="translate(-386.46485 -386.10372)"/></svg>