<?xml version="1.0" encoding="UTF-8"?>
<svg id="_Слой_1" data-name="Слой 1" xmlns="http://www.w3.org/2000/svg" viewBox="0 0 227.23846 227.23931">
  <defs>
    <style>
      .cls-1 {
        stroke-width: 5.57px;
      }

      .cls-1, .cls-2, .cls-3, .cls-4, .cls-5, .cls-6 {
        fill: none;
        stroke-miterlimit: 5.57;
      }

      .cls-1, .cls-6 {
        stroke: #81aafa;
      }

      .cls-2 {
        stroke: #dbeeff;
      }

      .cls-2, .cls-3, .cls-4, .cls-5, .cls-6 {
        stroke-width: .557px;
      }

      .cls-7 {
        fill: #331013;
      }

      .cls-7, .cls-8, .cls-9, .cls-10, .cls-11 {
        stroke-width: 0px;
      }

      .cls-3 {
        stroke: #7b7575;
      }

      .cls-4 {
        stroke: #331013;
      }

      .cls-5 {
        stroke: #4c5cad;
      }

      .cls-8 {
        fill: #7b7575;
      }

      .cls-9 {
        fill: #81aafa;
      }

      .cls-10 {
        fill: #dbeeff;
      }

      .cls-11 {
        fill: #4c5cad;
      }
    </style>
  </defs>
  <path class="cls-1" d="M35.2474,35.24795c43.28394-43.28394,113.45996-43.28394,156.74365,0,43.2832,43.2832,43.2832,113.46021,0,156.74414-43.28369,43.28296-113.45972,43.28296-156.74365,0-43.2832-43.28394-43.2832-113.46094,0-156.74414Z"/>
  <path class="cls-10" d="M185.15316,173.59976H42.00302c-6.16089.05005-11.21289-4.87988-11.302-11.04077v-93.87915c.08911-6.16089,5.13599-11.09595,11.302-11.0459h143.15015c6.16064-.05005,11.21289,4.87988,11.30176,11.0459v93.87402c-.09424,6.16113-5.14111,11.09595-11.30176,11.0459"/>
  <path class="cls-2" d="M185.15316,173.59976H42.00302c-6.16089.05005-11.21289-4.87988-11.302-11.04077v-93.87915c.08911-6.16089,5.13599-11.09595,11.302-11.0459h143.15015c6.16064-.05005,11.21289,4.87988,11.30176,11.0459v93.87402c-.09424,6.16113-5.14111,11.09595-11.30176,11.0459"/>
  <path class="cls-1" d="M185.15316,173.59976H42.00302c-6.16089.05005-11.21289-4.87988-11.302-11.04077v-93.87915c.08911-6.16089,5.13599-11.09595,11.302-11.0459h143.15015c6.16064-.05005,11.21289,4.87988,11.30176,11.0459v93.87402c-.09424,6.16113-5.14111,11.09595-11.30176,11.0459Z"/>
  <line class="cls-1" x1="31.06283" y1="87.35782" x2="196.81771" y2="87.35782"/>
  <rect class="cls-7" x="108.32455" y="97.57949" width="13.44092" height="13.13501"/>
  <rect class="cls-4" x="108.32455" y="97.57949" width="13.44092" height="13.13501"/>
  <rect class="cls-7" x="108.32455" y="97.57949" width="13.44092" height="13.13501"/>
  <rect class="cls-9" x="108.32455" y="97.57949" width="13.44092" height="13.13501"/>
  <rect class="cls-6" x="108.32455" y="97.57949" width="13.44092" height="13.13501"/>
  <rect class="cls-7" x="137.67563" y="97.50772" width="13.44092" height="13.13501"/>
  <rect class="cls-4" x="137.67563" y="97.50772" width="13.44092" height="13.13501"/>
  <rect class="cls-7" x="137.67563" y="97.50772" width="13.44092" height="13.13501"/>
  <rect class="cls-9" x="137.67563" y="97.50772" width="13.44092" height="13.13501"/>
  <rect class="cls-6" x="137.67563" y="97.50772" width="13.44092" height="13.13501"/>
  <rect class="cls-7" x="167.0267" y="97.57949" width="13.44092" height="13.13501"/>
  <rect class="cls-4" x="167.0267" y="97.57949" width="13.44092" height="13.13501"/>
  <rect class="cls-9" x="167.0267" y="97.57949" width="13.44092" height="13.13501"/>
  <rect class="cls-6" x="167.0267" y="97.57949" width="13.44092" height="13.13501"/>
  <rect class="cls-6" x="167.0267" y="97.57949" width="13.44092" height="13.13501"/>
  <rect class="cls-7" x="47.41269" y="122.55752" width="13.44092" height="13.13501"/>
  <rect class="cls-4" x="47.41269" y="122.55752" width="13.44092" height="13.13501"/>
  <rect class="cls-7" x="47.41269" y="122.55752" width="13.44092" height="13.13501"/>
  <rect class="cls-9" x="47.41269" y="122.55752" width="13.44092" height="13.13501"/>
  <rect class="cls-6" x="47.41269" y="122.55752" width="13.44092" height="13.13501"/>
  <rect class="cls-7" x="78.08871" y="121.17056" width="13.44092" height="13.13501"/>
  <rect class="cls-4" x="78.08871" y="121.17056" width="13.44092" height="13.13501"/>
  <rect class="cls-7" x="78.08871" y="121.17056" width="13.44092" height="13.13501"/>
  <rect class="cls-9" x="78.08871" y="121.17056" width="13.44092" height="13.13501"/>
  <rect class="cls-6" x="78.08871" y="121.17056" width="13.44092" height="13.13501"/>
  <rect class="cls-7" x="108.76474" y="121.17056" width="13.44189" height="13.13501"/>
  <rect class="cls-4" x="108.76474" y="121.17056" width="13.44189" height="13.13501"/>
  <rect class="cls-7" x="108.76474" y="121.17056" width="13.44189" height="13.13501"/>
  <rect class="cls-9" x="108.76474" y="121.17056" width="13.44189" height="13.13501"/>
  <rect class="cls-6" x="108.76474" y="121.17056" width="13.44189" height="13.13501"/>
  <rect class="cls-7" x="137.67563" y="121.17056" width="13.44092" height="13.13501"/>
  <rect class="cls-4" x="137.67563" y="121.17056" width="13.44092" height="13.13501"/>
  <rect class="cls-7" x="137.67563" y="121.17056" width="13.44092" height="13.13501"/>
  <rect class="cls-9" x="137.67563" y="121.17056" width="13.44092" height="13.13501"/>
  <rect class="cls-6" x="137.67563" y="121.17056" width="13.44092" height="13.13501"/>
  <rect class="cls-8" x="167.0267" y="121.17056" width="13.44092" height="13.13501"/>
  <rect class="cls-3" x="167.0267" y="121.17056" width="13.44092" height="13.13501"/>
  <rect class="cls-8" x="167.0267" y="121.17056" width="13.44092" height="13.13501"/>
  <rect class="cls-11" x="167.0267" y="121.17056" width="13.44092" height="13.13501"/>
  <rect class="cls-5" x="167.0267" y="121.17056" width="13.44092" height="13.13501"/>
  <rect class="cls-8" x="47.41269" y="147.60757" width="13.44092" height="13.13501"/>
  <rect class="cls-3" x="47.41269" y="147.60757" width="13.44092" height="13.13501"/>
  <rect class="cls-8" x="47.41269" y="147.60757" width="13.44092" height="13.13501"/>
  <rect class="cls-11" x="47.41269" y="147.60757" width="13.44092" height="13.13501"/>
  <rect class="cls-5" x="47.41269" y="147.60757" width="13.44092" height="13.13501"/>
  <rect class="cls-8" x="78.08871" y="147.60757" width="13.44092" height="13.13501"/>
  <rect class="cls-3" x="78.08871" y="147.60757" width="13.44092" height="13.13501"/>
  <rect class="cls-11" x="78.08871" y="147.60757" width="13.44092" height="13.13501"/>
  <rect class="cls-5" x="78.08871" y="147.60757" width="13.44092" height="13.13501"/>
  <rect class="cls-11" x="78.08871" y="147.60757" width="13.44092" height="13.13501"/>
  <rect class="cls-5" x="78.08871" y="147.60757" width="13.44092" height="13.13501"/>
  <rect class="cls-8" x="108.76474" y="147.60757" width="13.44189" height="13.13501"/>
  <rect class="cls-3" x="108.76474" y="147.60757" width="13.44189" height="13.13501"/>
  <rect class="cls-8" x="108.76474" y="147.60757" width="13.44189" height="13.13501"/>
  <rect class="cls-11" x="108.76474" y="147.60757" width="13.44189" height="13.13501"/>
  <rect class="cls-5" x="108.76474" y="147.60757" width="13.44189" height="13.13501"/>
  <rect class="cls-8" x="137.89242" y="147.60757" width="13.44092" height="13.13501"/>
  <rect class="cls-3" x="137.89242" y="147.60757" width="13.44092" height="13.13501"/>
  <rect class="cls-11" x="137.89242" y="147.60757" width="13.44092" height="13.13501"/>
  <rect class="cls-5" x="137.89242" y="147.60757" width="13.44092" height="13.13501"/>
  <rect class="cls-11" x="137.89242" y="147.60757" width="13.44092" height="13.13501"/>
  <rect class="cls-5" x="137.89242" y="147.60757" width="13.44092" height="13.13501"/>
  <rect class="cls-8" x="167.0267" y="147.60757" width="13.44092" height="13.13501"/>
  <rect class="cls-3" x="167.0267" y="147.60757" width="13.44092" height="13.13501"/>
  <rect class="cls-8" x="167.0267" y="147.60757" width="13.44092" height="13.13501"/>
  <rect class="cls-11" x="167.0267" y="147.60757" width="13.44092" height="13.13501"/>
  <rect class="cls-5" x="167.0267" y="147.60757" width="13.44092" height="13.13501"/>
  <path class="cls-9" d="M173.806,75.87149h-.11133c-2.67969-.00586-4.84668-2.17798-4.85791-4.85693v-23.41895c.00488-2.67896,2.17822-4.84595,4.85791-4.85693h.11133c2.67871.00586,4.8457,2.17798,4.85693,4.85693v23.41895c-.01123,2.67896-2.18311,4.84595-4.85693,4.85693"/>
  <path class="cls-6" d="M173.806,75.87149h-.11133c-2.67969-.00586-4.84668-2.17798-4.85791-4.85693v-23.41895c.00488-2.67896,2.17822-4.84595,4.85791-4.85693h.11133c2.67871.00586,4.8457,2.17798,4.85693,4.85693v23.41895c-.01123,2.67896-2.18311,4.84595-4.85693,4.85693"/>
  <path class="cls-9" d="M173.806,75.87149h-.11133c-2.67969-.00586-4.84668-2.17798-4.85791-4.85693v-23.41895c.00488-2.67896,2.17822-4.84595,4.85791-4.85693h.11133c2.67871.00586,4.8457,2.17798,4.85693,4.85693v23.41895c-.01123,2.67896-2.18311,4.84595-4.85693,4.85693"/>
  <path class="cls-6" d="M173.806,75.87149h-.11133c-2.67969-.00586-4.84668-2.17798-4.85791-4.85693v-23.41895c.00488-2.67896,2.17822-4.84595,4.85791-4.85693h.11133c2.67871.00586,4.8457,2.17798,4.85693,4.85693v23.41895c-.01123,2.67896-2.18311,4.84595-4.85693,4.85693"/>
  <path class="cls-9" d="M54.19125,74.79092h-.11108c-2.67993-.00586-4.84692-2.17798-4.85815-4.85693v-23.41895c.00513-2.67896,2.17822-4.84595,4.85815-4.85693h.11108c2.67896.00488,4.84595,2.17798,4.85791,4.85693v23.41895c-.01196,2.67896-2.17896,4.84595-4.85791,4.85693"/>
  <path class="cls-6" d="M54.19125,74.79092h-.11108c-2.67993-.00586-4.84692-2.17798-4.85815-4.85693v-23.41895c.00513-2.67896,2.17822-4.84595,4.85815-4.85693h.11108c2.67896.00488,4.84595,2.17798,4.85791,4.85693v23.41895c-.01196,2.67896-2.17896,4.84595-4.85791,4.85693"/>
  <path class="cls-9" d="M54.19125,74.79092h-.11108c-2.67993-.00586-4.84692-2.17798-4.85815-4.85693v-23.41895c.00513-2.67896,2.17822-4.84595,4.85815-4.85693h.11108c2.67896.00488,4.84595,2.17798,4.85791,4.85693v23.41895c-.01196,2.67896-2.17896,4.84595-4.85791,4.85693"/>
  <path class="cls-6" d="M54.19125,74.79092h-.11108c-2.67993-.00586-4.84692-2.17798-4.85815-4.85693v-23.41895c.00513-2.67896,2.17822-4.84595,4.85815-4.85693h.11108c2.67896.00488,4.84595,2.17798,4.85791,4.85693v23.41895c-.01196,2.67896-2.17896,4.84595-4.85791,4.85693"/>
</svg>