<?xml version="1.0" encoding="UTF-8"?>
<svg id="_Слой_1" data-name="Слой 1" xmlns="http://www.w3.org/2000/svg" viewBox="0 0 227.53393 227.25771">
  <defs>
    <style>
      .cls-1 {
        fill: #fccd9a;
      }

      .cls-1, .cls-2, .cls-3, .cls-4, .cls-5, .cls-6, .cls-7 {
        stroke-width: 0px;
      }

      .cls-2 {
        fill: #331013;
      }

      .cls-3 {
        fill: #b8e87c;
      }

      .cls-8 {
        stroke: #7b7575;
      }

      .cls-8, .cls-9, .cls-10, .cls-11, .cls-12, .cls-13, .cls-14, .cls-15 {
        fill: none;
        stroke-miterlimit: 5.57;
      }

      .cls-8, .cls-9, .cls-10, .cls-11, .cls-15 {
        stroke-width: .557px;
      }

      .cls-9 {
        stroke: #b8e87c;
      }

      .cls-10 {
        stroke: #331013;
      }

      .cls-4 {
        fill: #7b7575;
      }

      .cls-11, .cls-14 {
        stroke: #aac419;
      }

      .cls-12 {
        stroke: #f18faa;
      }

      .cls-12, .cls-13, .cls-14 {
        stroke-width: 5.57px;
      }

      .cls-13 {
        stroke: #f993aa;
      }

      .cls-5 {
        fill: #ffd03c;
      }

      .cls-6 {
        fill: #718c09;
      }

      .cls-7 {
        fill: #aac419;
      }

      .cls-15 {
        stroke: #718c09;
      }
    </style>
  </defs>
  <path class="cls-13" d="M35.24813,35.24759c43.28394-43.28296,113.45996-43.28394,156.7439,0,43.28296,43.2832,43.28296,113.46008,0,156.74402-43.28394,43.28308-113.46094,43.28308-156.7439,0-43.28418-43.28394-43.28418-113.45984,0-156.74402Z"/>
  <path class="cls-1" d="M184.74618,170.48135H41.59604c-6.16089.05005-11.21289-4.87988-11.302-11.04089v-93.87305c.08911-6.16089,5.13599-11.09692,11.302-11.0459h143.15015c6.16089-.05103,11.21289,4.87891,11.30176,11.0459v93.87305c-.08887,6.16101-5.14087,11.09692-11.30176,11.04089"/>
  <path class="cls-12" d="M184.74618,170.48135H41.59604c-6.16089.05005-11.21289-4.87988-11.302-11.04089v-93.87305c.08911-6.16089,5.13599-11.09692,11.302-11.0459h143.15015c6.16089-.05103,11.21289,4.87891,11.30176,11.0459v93.87305c-.08887,6.16101-5.14087,11.09692-11.30176,11.04089Z"/>
  <line class="cls-12" x1="30.0765" y1="84.69607" x2="195.83139" y2="84.69607"/>
  <rect class="cls-2" x="107.33944" y="94.91751" width="13.44189" height="13.13501"/>
  <rect class="cls-10" x="107.33944" y="94.91751" width="13.44189" height="13.13501"/>
  <rect class="cls-2" x="107.33944" y="94.91751" width="13.44189" height="13.13501"/>
  <rect class="cls-10" x="107.33944" y="94.91751" width="13.44189" height="13.13501"/>
  <rect class="cls-4" x="136.6893" y="94.84549" width="13.44092" height="13.13501"/>
  <rect class="cls-8" x="136.6893" y="94.84549" width="13.44092" height="13.13501"/>
  <rect class="cls-4" x="136.6893" y="94.84549" width="13.44092" height="13.13501"/>
  <rect class="cls-8" x="136.6893" y="94.84549" width="13.44092" height="13.13501"/>
  <rect class="cls-4" x="166.03549" y="94.91751" width="13.44189" height="13.13501"/>
  <rect class="cls-8" x="166.03549" y="94.91751" width="13.44189" height="13.13501"/>
  <rect class="cls-4" x="166.03549" y="94.91751" width="13.44189" height="13.13501"/>
  <rect class="cls-8" x="166.03549" y="94.91751" width="13.44189" height="13.13501"/>
  <rect class="cls-4" x="46.42538" y="119.89553" width="13.44189" height="13.13501"/>
  <rect class="cls-8" x="46.42538" y="119.89553" width="13.44189" height="13.13501"/>
  <rect class="cls-4" x="46.42538" y="119.89553" width="13.44189" height="13.13501"/>
  <rect class="cls-8" x="46.42538" y="119.89553" width="13.44189" height="13.13501"/>
  <rect class="cls-4" x="77.10238" y="118.51443" width="13.44092" height="13.13501"/>
  <rect class="cls-8" x="77.10238" y="118.51443" width="13.44092" height="13.13501"/>
  <rect class="cls-4" x="77.10238" y="118.51443" width="13.44092" height="13.13501"/>
  <rect class="cls-8" x="77.10238" y="118.51443" width="13.44092" height="13.13501"/>
  <rect class="cls-4" x="107.77938" y="118.51443" width="13.44092" height="13.13501"/>
  <rect class="cls-8" x="107.77938" y="118.51443" width="13.44092" height="13.13501"/>
  <rect class="cls-4" x="107.77938" y="118.51443" width="13.44092" height="13.13501"/>
  <rect class="cls-8" x="107.77938" y="118.51443" width="13.44092" height="13.13501"/>
  <rect class="cls-4" x="136.6893" y="118.51443" width="13.44092" height="13.13501"/>
  <rect class="cls-8" x="136.6893" y="118.51443" width="13.44092" height="13.13501"/>
  <rect class="cls-4" x="136.6893" y="118.51443" width="13.44092" height="13.13501"/>
  <rect class="cls-8" x="136.6893" y="118.51443" width="13.44092" height="13.13501"/>
  <rect class="cls-4" x="166.03549" y="118.51443" width="13.44189" height="13.13501"/>
  <rect class="cls-8" x="166.03549" y="118.51443" width="13.44189" height="13.13501"/>
  <rect class="cls-4" x="166.03549" y="118.51443" width="13.44189" height="13.13501"/>
  <rect class="cls-8" x="166.03549" y="118.51443" width="13.44189" height="13.13501"/>
  <rect class="cls-4" x="46.42538" y="144.94656" width="13.44189" height="13.13501"/>
  <rect class="cls-8" x="46.42538" y="144.94656" width="13.44189" height="13.13501"/>
  <rect class="cls-4" x="46.42538" y="144.94656" width="13.44189" height="13.13501"/>
  <rect class="cls-8" x="46.42538" y="144.94656" width="13.44189" height="13.13501"/>
  <rect class="cls-4" x="77.10238" y="144.94656" width="13.44092" height="13.13501"/>
  <rect class="cls-8" x="77.10238" y="144.94656" width="13.44092" height="13.13501"/>
  <rect class="cls-4" x="77.10238" y="144.94656" width="13.44092" height="13.13501"/>
  <rect class="cls-8" x="77.10238" y="144.94656" width="13.44092" height="13.13501"/>
  <rect class="cls-4" x="107.77938" y="144.94656" width="13.44092" height="13.13501"/>
  <rect class="cls-8" x="107.77938" y="144.94656" width="13.44092" height="13.13501"/>
  <rect class="cls-4" x="107.77938" y="144.94656" width="13.44092" height="13.13501"/>
  <rect class="cls-8" x="107.77938" y="144.94656" width="13.44092" height="13.13501"/>
  <rect class="cls-4" x="136.90731" y="144.94656" width="13.44092" height="13.13501"/>
  <rect class="cls-8" x="136.90731" y="144.94656" width="13.44092" height="13.13501"/>
  <rect class="cls-4" x="136.90731" y="144.94656" width="13.44092" height="13.13501"/>
  <rect class="cls-8" x="136.90731" y="144.94656" width="13.44092" height="13.13501"/>
  <rect class="cls-4" x="166.03549" y="144.94656" width="13.44189" height="13.13501"/>
  <rect class="cls-8" x="166.03549" y="144.94656" width="13.44189" height="13.13501"/>
  <rect class="cls-4" x="166.03549" y="144.94656" width="13.44189" height="13.13501"/>
  <rect class="cls-8" x="166.03549" y="144.94656" width="13.44189" height="13.13501"/>
  <path class="cls-3" d="M172.8143,73.20974h-.11206c-2.67896-.00488-4.84595-2.17798-4.85718-4.85693v-23.41895c.00513-2.67896,2.17822-4.84595,4.85718-4.85693h.11206c2.67896.00586,4.84595,2.17798,4.85791,4.85693v23.41895c-.0061,2.67896-2.17896,4.85205-4.85791,4.85693"/>
  <path class="cls-9" d="M172.8143,73.20974h-.11206c-2.67896-.00488-4.84595-2.17798-4.85718-4.85693v-23.41895c.00513-2.67896,2.17822-4.84595,4.85718-4.85693h.11206c2.67896.00586,4.84595,2.17798,4.85791,4.85693v23.41895c-.0061,2.67896-2.17896,4.85205-4.85791,4.85693"/>
  <path class="cls-3" d="M172.8143,73.20974h-.11206c-2.67896-.00488-4.84595-2.17798-4.85718-4.85693v-23.41895c.00513-2.67896,2.17822-4.84595,4.85718-4.85693h.11206c2.67896.00586,4.84595,2.17798,4.85791,4.85693v23.41895c-.0061,2.67896-2.17896,4.85205-4.85791,4.85693"/>
  <path class="cls-9" d="M172.8143,73.20974h-.11206c-2.67896-.00488-4.84595-2.17798-4.85718-4.85693v-23.41895c.00513-2.67896,2.17822-4.84595,4.85718-4.85693h.11206c2.67896.00586,4.84595,2.17798,4.85791,4.85693v23.41895c-.0061,2.67896-2.17896,4.85205-4.85791,4.85693"/>
  <path class="cls-3" d="M172.8143,73.20974h-.11206c-2.67896-.00488-4.84595-2.17798-4.85718-4.85693v-23.41895c.00513-2.67896,2.17822-4.84595,4.85718-4.85693h.11206c2.67896.00586,4.84595,2.17798,4.85791,4.85693v23.41895c-.0061,2.67896-2.17896,4.85205-4.85791,4.85693"/>
  <path class="cls-9" d="M172.8143,73.20974h-.11206c-2.67896-.00488-4.84595-2.17798-4.85718-4.85693v-23.41895c.00513-2.67896,2.17822-4.84595,4.85718-4.85693h.11206c2.67896.00586,4.84595,2.17798,4.85791,4.85693v23.41895c-.0061,2.67896-2.17896,4.85205-4.85791,4.85693"/>
  <path class="cls-3" d="M172.70272,40.0823h.11182c2.67896,0,4.85718,2.17212,4.85718,4.85718v23.41895c0,2.67896-2.17212,4.85693-4.85718,4.85693h-.11182c-2.6792,0-4.85718-2.17285-4.85718-4.85693v-23.41895c0-2.68506,2.17798-4.85718,4.85718-4.85718"/>
  <rect class="cls-9" x="167.84555" y="40.0823" width="9.82617" height="33.13306" rx="4.85718" ry="4.85718"/>
  <path class="cls-3" d="M53.20517,72.12918h-.11206c-2.67896-.00586-4.84595-2.17798-4.85718-4.85693v-23.41895c.00513-2.67896,2.17822-4.84595,4.85718-4.85693h.11206c2.67896.00488,4.84595,2.17798,4.85791,4.85693v23.41895c-.01196,2.67896-2.18408,4.85107-4.85791,4.85693"/>
  <path class="cls-9" d="M53.20517,72.12918h-.11206c-2.67896-.00586-4.84595-2.17798-4.85718-4.85693v-23.41895c.00513-2.67896,2.17822-4.84595,4.85718-4.85693h.11206c2.67896.00488,4.84595,2.17798,4.85791,4.85693v23.41895c-.01196,2.67896-2.18408,4.85107-4.85791,4.85693"/>
  <path class="cls-3" d="M53.20517,72.12918h-.11206c-2.67896-.00586-4.84595-2.17798-4.85718-4.85693v-23.41895c.00513-2.67896,2.17822-4.84595,4.85718-4.85693h.11206c2.67896.00488,4.84595,2.17798,4.85791,4.85693v23.41895c-.01196,2.67896-2.18408,4.85107-4.85791,4.85693"/>
  <path class="cls-9" d="M53.20517,72.12918h-.11206c-2.67896-.00586-4.84595-2.17798-4.85718-4.85693v-23.41895c.00513-2.67896,2.17822-4.84595,4.85718-4.85693h.11206c2.67896.00488,4.84595,2.17798,4.85791,4.85693v23.41895c-.01196,2.67896-2.18408,4.85107-4.85791,4.85693"/>
  <path class="cls-3" d="M53.20517,72.12918h-.11206c-2.67896-.00586-4.84595-2.17798-4.85718-4.85693v-23.41895c.00513-2.67896,2.17822-4.84595,4.85718-4.85693h.11206c2.67896.00488,4.84595,2.17798,4.85791,4.85693v23.41895c-.01196,2.67896-2.18408,4.85107-4.85791,4.85693"/>
  <path class="cls-9" d="M53.20517,72.12918h-.11206c-2.67896-.00586-4.84595-2.17798-4.85718-4.85693v-23.41895c.00513-2.67896,2.17822-4.84595,4.85718-4.85693h.11206c2.67896.00488,4.84595,2.17798,4.85791,4.85693v23.41895c-.01196,2.67896-2.18408,4.85107-4.85791,4.85693"/>
  <path class="cls-3" d="M53.08822,38.99612h.11182c2.67896,0,4.85718,2.17212,4.85718,4.85718v23.41895c0,2.67896-2.17212,4.85693-4.85718,4.85693h-.11182c-2.6792,0-4.85815-2.17285-4.85815-4.85693v-23.41895c.0061-2.67896,2.17896-4.85718,4.85815-4.85718"/>
  <path class="cls-9" d="M53.08822,38.99612h.11182c2.67896,0,4.85718,2.17212,4.85718,4.85718v23.41895c0,2.67896-2.17212,4.85693-4.85718,4.85693h-.11182c-2.6792,0-4.85815-2.17285-4.85815-4.85693v-23.41895c.0061-2.67896,2.17896-4.85718,4.85815-4.85718Z"/>
  <path class="cls-14" d="M35.54281,35.26638c43.28296-43.28296,113.45996-43.28296,156.7439,0,43.28296,43.2832,43.28296,113.46008,0,156.74402-43.28394,43.28308-113.46094,43.28308-156.7439,0-43.28418-43.28394-43.28418-113.45984,0-156.74402Z"/>
  <path class="cls-5" d="M185.04696,170.49795H41.89682c-6.16089.05005-11.21289-4.87988-11.302-11.04089v-93.87305c.08911-6.16089,5.13599-11.09692,11.302-11.0459h143.15015c6.16089-.05005,11.21289,4.87891,11.30176,11.0459v93.87305c-.09399,6.16101-5.14087,11.09692-11.30176,11.04089"/>
  <path class="cls-9" d="M185.04696,170.49795H41.89682c-6.16089.05005-11.21289-4.87988-11.302-11.04089v-93.87305c.08911-6.16089,5.13599-11.09692,11.302-11.0459h143.15015c6.16089-.05005,11.21289,4.87891,11.30176,11.0459v93.87305c-.09399,6.16101-5.14087,11.09692-11.30176,11.04089"/>
  <path class="cls-14" d="M185.04696,170.49795H41.89682c-6.16089.05005-11.21289-4.87988-11.302-11.04089v-93.87305c.08911-6.16089,5.13599-11.09692,11.302-11.0459h143.15015c6.16089-.05005,11.21289,4.87891,11.30176,11.0459v93.87305c-.09399,6.16101-5.14087,11.09692-11.30176,11.04089Z"/>
  <line class="cls-14" x1="30.37729" y1="84.71829" x2="196.12729" y2="84.71829"/>
  <rect class="cls-2" x="107.63437" y="94.9346" width="13.44092" height="13.13501"/>
  <rect class="cls-10" x="107.63437" y="94.9346" width="13.44092" height="13.13501"/>
  <rect class="cls-2" x="107.63437" y="94.9346" width="13.44092" height="13.13501"/>
  <rect class="cls-7" x="107.63437" y="94.9346" width="13.44092" height="13.13501"/>
  <rect class="cls-11" x="107.63437" y="94.9346" width="13.44092" height="13.13501"/>
  <rect class="cls-4" x="136.98544" y="94.86746" width="13.44092" height="13.13501"/>
  <rect class="cls-8" x="136.98544" y="94.86746" width="13.44092" height="13.13501"/>
  <rect class="cls-4" x="136.98544" y="94.86746" width="13.44092" height="13.13501"/>
  <rect class="cls-6" x="136.98544" y="94.86746" width="13.44092" height="13.13501"/>
  <rect class="cls-15" x="136.98544" y="94.86746" width="13.44092" height="13.13501"/>
  <rect class="cls-4" x="166.33651" y="94.9346" width="13.44092" height="13.13501"/>
  <rect class="cls-8" x="166.33651" y="94.9346" width="13.44092" height="13.13501"/>
  <rect class="cls-4" x="166.33651" y="94.9346" width="13.44092" height="13.13501"/>
  <rect class="cls-6" x="166.33651" y="94.9346" width="13.44092" height="13.13501"/>
  <rect class="cls-15" x="166.33651" y="94.9346" width="13.44092" height="13.13501"/>
  <rect class="cls-4" x="46.72152" y="119.91848" width="13.44092" height="13.13501"/>
  <rect class="cls-8" x="46.72152" y="119.91848" width="13.44092" height="13.13501"/>
  <rect class="cls-4" x="46.72152" y="119.91848" width="13.44092" height="13.13501"/>
  <rect class="cls-6" x="46.72152" y="119.91848" width="13.44092" height="13.13501"/>
  <rect class="cls-15" x="46.72152" y="119.91848" width="13.44092" height="13.13501"/>
  <rect class="cls-4" x="77.3973" y="118.53152" width="13.44092" height="13.13501"/>
  <rect class="cls-8" x="77.3973" y="118.53152" width="13.44092" height="13.13501"/>
  <rect class="cls-4" x="77.3973" y="118.53152" width="13.44092" height="13.13501"/>
  <rect class="cls-6" x="77.3973" y="118.53152" width="13.44092" height="13.13501"/>
  <rect class="cls-15" x="77.3973" y="118.53152" width="13.44092" height="13.13501"/>
  <rect class="cls-4" x="108.07431" y="118.53152" width="13.44092" height="13.13501"/>
  <rect class="cls-8" x="108.07431" y="118.53152" width="13.44092" height="13.13501"/>
  <rect class="cls-4" x="108.07431" y="118.53152" width="13.44092" height="13.13501"/>
  <rect class="cls-6" x="108.07431" y="118.53152" width="13.44092" height="13.13501"/>
  <rect class="cls-15" x="108.07431" y="118.53152" width="13.44092" height="13.13501"/>
  <rect class="cls-4" x="136.98544" y="118.53152" width="13.44092" height="13.13501"/>
  <rect class="cls-8" x="136.98544" y="118.53152" width="13.44092" height="13.13501"/>
  <rect class="cls-4" x="136.98544" y="118.53152" width="13.44092" height="13.13501"/>
  <rect class="cls-6" x="136.98544" y="118.53152" width="13.44092" height="13.13501"/>
  <rect class="cls-15" x="136.98544" y="118.53152" width="13.44092" height="13.13501"/>
  <rect class="cls-4" x="166.33651" y="118.53152" width="13.44092" height="13.13501"/>
  <rect class="cls-8" x="166.33651" y="118.53152" width="13.44092" height="13.13501"/>
  <rect class="cls-4" x="166.33651" y="118.53152" width="13.44092" height="13.13501"/>
  <rect class="cls-6" x="166.33651" y="118.53152" width="13.44092" height="13.13501"/>
  <rect class="cls-15" x="166.33651" y="118.53152" width="13.44092" height="13.13501"/>
  <rect class="cls-4" x="46.72152" y="144.96853" width="13.44092" height="13.13501"/>
  <rect class="cls-8" x="46.72152" y="144.96853" width="13.44092" height="13.13501"/>
  <rect class="cls-4" x="46.72152" y="144.96853" width="13.44092" height="13.13501"/>
  <rect class="cls-6" x="46.72152" y="144.96853" width="13.44092" height="13.13501"/>
  <rect class="cls-15" x="46.72152" y="144.96853" width="13.44092" height="13.13501"/>
  <rect class="cls-4" x="77.3973" y="144.96853" width="13.44092" height="13.13501"/>
  <rect class="cls-8" x="77.3973" y="144.96853" width="13.44092" height="13.13501"/>
  <rect class="cls-4" x="77.3973" y="144.96853" width="13.44092" height="13.13501"/>
  <rect class="cls-6" x="77.3973" y="144.96853" width="13.44092" height="13.13501"/>
  <rect class="cls-15" x="77.3973" y="144.96853" width="13.44092" height="13.13501"/>
  <rect class="cls-4" x="108.07431" y="144.96853" width="13.44092" height="13.13501"/>
  <rect class="cls-8" x="108.07431" y="144.96853" width="13.44092" height="13.13501"/>
  <rect class="cls-4" x="108.07431" y="144.96853" width="13.44092" height="13.13501"/>
  <rect class="cls-6" x="108.07431" y="144.96853" width="13.44092" height="13.13501"/>
  <rect class="cls-15" x="108.07431" y="144.96853" width="13.44092" height="13.13501"/>
  <rect class="cls-4" x="137.20248" y="144.96853" width="13.44092" height="13.13501"/>
  <rect class="cls-8" x="137.20248" y="144.96853" width="13.44092" height="13.13501"/>
  <rect class="cls-4" x="137.20248" y="144.96853" width="13.44092" height="13.13501"/>
  <rect class="cls-6" x="137.20248" y="144.96853" width="13.44092" height="13.13501"/>
  <rect class="cls-15" x="137.20248" y="144.96853" width="13.44092" height="13.13501"/>
  <rect class="cls-4" x="166.33651" y="144.96853" width="13.44092" height="13.13501"/>
  <rect class="cls-8" x="166.33651" y="144.96853" width="13.44092" height="13.13501"/>
  <rect class="cls-4" x="166.33651" y="144.96853" width="13.44092" height="13.13501"/>
  <rect class="cls-6" x="166.33651" y="144.96853" width="13.44092" height="13.13501"/>
  <rect class="cls-15" x="166.33651" y="144.96853" width="13.44092" height="13.13501"/>
  <path class="cls-3" d="M173.11508,73.22659h-.11108c-2.67993-.00586-4.84692-2.17798-4.85815-4.85693v-23.41895c.00513-2.67896,2.17822-4.84595,4.85815-4.85693h.11108c2.67896.00488,4.84595,2.17798,4.85791,4.85693v23.41895c-.01196,2.68408-2.18408,4.85107-4.85791,4.85693"/>
  <path class="cls-9" d="M173.11508,73.22659h-.11108c-2.67993-.00586-4.84692-2.17798-4.85815-4.85693v-23.41895c.00513-2.67896,2.17822-4.84595,4.85815-4.85693h.11108c2.67896.00488,4.84595,2.17798,4.85791,4.85693v23.41895c-.01196,2.68408-2.18408,4.85107-4.85791,4.85693"/>
  <path class="cls-3" d="M173.11508,73.22659h-.11108c-2.67993-.00586-4.84692-2.17798-4.85815-4.85693v-23.41895c.00513-2.67896,2.17822-4.84595,4.85815-4.85693h.11108c2.67896.00488,4.84595,2.17798,4.85791,4.85693v23.41895c-.01196,2.68408-2.18408,4.85107-4.85791,4.85693"/>
  <path class="cls-9" d="M173.11508,73.22659h-.11108c-2.67993-.00586-4.84692-2.17798-4.85815-4.85693v-23.41895c.00513-2.67896,2.17822-4.84595,4.85815-4.85693h.11108c2.67896.00488,4.84595,2.17798,4.85791,4.85693v23.41895c-.01196,2.68408-2.18408,4.85107-4.85791,4.85693"/>
  <path class="cls-3" d="M173.11508,73.22659h-.11108c-2.67993-.00586-4.84692-2.17798-4.85815-4.85693v-23.41895c.00513-2.67896,2.17822-4.84595,4.85815-4.85693h.11108c2.67896.00488,4.84595,2.17798,4.85791,4.85693v23.41895c-.01196,2.68408-2.18408,4.85107-4.85791,4.85693"/>
  <path class="cls-9" d="M173.11508,73.22659h-.11108c-2.67993-.00586-4.84692-2.17798-4.85815-4.85693v-23.41895c.00513-2.67896,2.17822-4.84595,4.85815-4.85693h.11108c2.67896.00488,4.84595,2.17798,4.85791,4.85693v23.41895c-.01196,2.68408-2.18408,4.85107-4.85791,4.85693"/>
  <path class="cls-7" d="M172.99813,40.0989h.11182c2.67896,0,4.85718,2.1731,4.85718,4.85718v23.41895c0,2.67896-2.17212,4.85693-4.85718,4.85693h-.11182c-2.6792,0-4.85718-2.17188-4.85718-4.85693v-23.41895c.00513-2.68408,2.17798-4.85718,4.85718-4.85718"/>
  <path class="cls-11" d="M172.99813,40.0989h.11182c2.67896,0,4.85718,2.1731,4.85718,4.85718v23.41895c0,2.67896-2.17212,4.85693-4.85718,4.85693h-.11182c-2.6792,0-4.85718-2.17188-4.85718-4.85693v-23.41895c.00513-2.68408,2.17798-4.85718,4.85718-4.85718Z"/>
  <path class="cls-3" d="M53.50058,72.14578h-.11206c-2.67896-.00586-4.84595-2.17798-4.85718-4.85693v-23.41895c.00513-2.67896,2.17822-4.84595,4.85718-4.85693h.11206c2.67896.00586,4.84595,2.17798,4.85693,4.85693v23.41895c-.01099,2.67896-2.17798,4.85107-4.85693,4.85693"/>
  <path class="cls-9" d="M53.50058,72.14578h-.11206c-2.67896-.00586-4.84595-2.17798-4.85718-4.85693v-23.41895c.00513-2.67896,2.17822-4.84595,4.85718-4.85693h.11206c2.67896.00586,4.84595,2.17798,4.85693,4.85693v23.41895c-.01099,2.67896-2.17798,4.85107-4.85693,4.85693"/>
  <path class="cls-3" d="M53.50058,72.14578h-.11206c-2.67896-.00586-4.84595-2.17798-4.85718-4.85693v-23.41895c.00513-2.67896,2.17822-4.84595,4.85718-4.85693h.11206c2.67896.00586,4.84595,2.17798,4.85693,4.85693v23.41895c-.01099,2.67896-2.17798,4.85107-4.85693,4.85693"/>
  <path class="cls-9" d="M53.50058,72.14578h-.11206c-2.67896-.00586-4.84595-2.17798-4.85718-4.85693v-23.41895c.00513-2.67896,2.17822-4.84595,4.85718-4.85693h.11206c2.67896.00586,4.84595,2.17798,4.85693,4.85693v23.41895c-.01099,2.67896-2.17798,4.85107-4.85693,4.85693"/>
  <path class="cls-3" d="M53.50058,72.14578h-.11206c-2.67896-.00586-4.84595-2.17798-4.85718-4.85693v-23.41895c.00513-2.67896,2.17822-4.84595,4.85718-4.85693h.11206c2.67896.00586,4.84595,2.17798,4.85693,4.85693v23.41895c-.01099,2.67896-2.17798,4.85107-4.85693,4.85693"/>
  <path class="cls-9" d="M53.50058,72.14578h-.11206c-2.67896-.00586-4.84595-2.17798-4.85718-4.85693v-23.41895c.00513-2.67896,2.17822-4.84595,4.85718-4.85693h.11206c2.67896.00586,4.84595,2.17798,4.85693,4.85693v23.41895c-.01099,2.67896-2.17798,4.85107-4.85693,4.85693"/>
  <path class="cls-7" d="M53.389,39.01834h.11182c2.67896,0,4.85718,2.17212,4.85718,4.85718v23.41895c0,2.67896-2.17212,4.85693-4.85718,4.85693h-.11182c-2.6792,0-4.85815-2.17188-4.85815-4.85693v-23.41895c.00098-2.68506,2.1731-4.85718,4.85815-4.85718"/>
  <path class="cls-11" d="M53.389,39.01834h.11182c2.67896,0,4.85718,2.17212,4.85718,4.85718v23.41895c0,2.67896-2.17212,4.85693-4.85718,4.85693h-.11182c-2.6792,0-4.85815-2.17188-4.85815-4.85693v-23.41895c.00098-2.68506,2.1731-4.85718,4.85815-4.85718Z"/>
</svg>