<?xml version="1.0" encoding="UTF-8"?>
<svg id="_Слой_1" data-name="Слой 1" xmlns="http://www.w3.org/2000/svg" viewBox="0 0 227.23922 227.23855">
  <defs>
    <style>
      .cls-1 {
        stroke: #b8e87b;
        stroke-width: .557px;
      }

      .cls-1, .cls-2 {
        fill: none;
        stroke-miterlimit: 5.57;
      }

      .cls-3 {
        fill: #baeeac;
      }

      .cls-3, .cls-4 {
        stroke-width: 0px;
      }

      .cls-4 {
        fill: #ffd03c;
      }

      .cls-2 {
        stroke: #aac419;
        stroke-width: 5.57px;
      }
    </style>
  </defs>
  <path class="cls-2" d="M35.24804,35.24722c43.284-43.28296,113.4599-43.28296,156.74396,0,43.28296,43.28418,43.28296,113.46021,0,156.74402-43.28406,43.28308-113.45996,43.28308-156.74396,0-43.28406-43.28381-43.28406-113.45984,0-156.74402Z"/>
  <path class="cls-3" d="M50.18683,63.79043l8.94592,16.72217c.16699.31201.48999.52393.85803.57397l20.00403,2.67993c.93494.12207,1.30896,1.18604.63501,1.79297l-14.47803,13.01904c-.26697.23901-.39001.59009-.32898.92993l3.41492,18.3772c.16199.85791-.81897,1.51489-1.65393,1.10791l-17.89301-8.67896c-.33398-.16113-.729-.16113-1.06403,0l-17.89197,8.67896c-.836.40698-1.81598-.25-1.65399-1.10791l3.41998-18.3772c.06104-.33984-.06097-.69092-.32898-.92993l-14.47198-13.01904c-.67902-.60693-.30603-1.6709.63495-1.79297l20.00403-2.67993c.37299-.05005.69098-.26709.85797-.57397l8.94604-16.72217c.41199-.78491,1.62598-.78491,2.04401,0"/>
  <path class="cls-1" d="M50.18683,63.79043l8.94592,16.72217c.16699.31201.48999.52393.85803.57397l20.00403,2.67993c.93494.12207,1.30896,1.18604.63501,1.79297l-14.47803,13.01904c-.26697.23901-.39001.59009-.32898.92993l3.41492,18.3772c.16199.85791-.81897,1.51489-1.65393,1.10791l-17.89301-8.67896c-.33398-.16113-.729-.16113-1.06403,0l-17.89197,8.67896c-.836.40698-1.81598-.25-1.65399-1.10791l3.41998-18.3772c.06104-.33984-.06097-.69092-.32898-.92993l-14.47198-13.01904c-.67902-.60693-.30603-1.6709.63495-1.79297l20.00403-2.67993c.37299-.05005.69098-.26709.85797-.57397l8.94604-16.72217c.41199-.78491,1.62598-.78491,2.04401,0"/>
  <path class="cls-4" d="M50.18683,63.79043l8.94592,16.72217c.16699.31201.48999.52393.85803.57397l20.00403,2.67993c.93494.12207,1.30896,1.18604.63501,1.79297l-14.47803,13.01904c-.26697.23901-.39001.59009-.32898.92993l3.41492,18.3772c.16199.85791-.81897,1.51489-1.65393,1.10791l-17.89301-8.67896c-.33398-.16113-.729-.16113-1.06403,0l-17.89197,8.67896c-.836.40698-1.81598-.25-1.65399-1.10791l3.41998-18.3772c.06104-.33984-.06097-.69092-.32898-.92993l-14.47198-13.01904c-.67902-.60693-.30603-1.6709.63495-1.79297l20.00403-2.67993c.37299-.05005.69098-.26709.85797-.57397l8.94604-16.72217c.41199-.78491,1.62598-.78491,2.04401,0"/>
  <path class="cls-2" d="M50.18683,63.79043l8.94592,16.72217c.16699.31201.48999.52393.85803.57397l20.00403,2.67993c.93494.12207,1.30896,1.18604.63501,1.79297l-14.47803,13.01904c-.26697.23901-.39001.59009-.32898.92993l3.41492,18.3772c.16199.85791-.81897,1.51489-1.65393,1.10791l-17.89301-8.67896c-.33398-.16113-.729-.16113-1.06403,0l-17.89197,8.67896c-.836.40698-1.81598-.25-1.65399-1.10791l3.41998-18.3772c.06104-.33984-.06097-.69092-.32898-.92993l-14.47198-13.01904c-.67902-.60693-.30603-1.6709.63495-1.79297l20.00403-2.67993c.37299-.05005.69098-.26709.85797-.57397l8.94604-16.72217c.41199-.78491,1.62598-.78491,2.04401,0Z"/>
  <path class="cls-3" d="M73.82232,135.23721l8.94592,16.72217c.16699.31201.48999.52393.85803.57397l20.00403,2.67993c.93591.12195,1.30896,1.18604.63501,1.79297l-14.47803,13.01904c-.26697.23901-.39001.58997-.32898.92993l3.41492,18.37708c.16199.85791-.81897,1.51501-1.65393,1.10791l-17.89307-8.67798c-.33398-.16199-.729-.16199-1.06396,0l-17.89197,8.67798c-.83508.4071-1.81604-.25-1.65405-1.10791l3.42004-18.37708c.06104-.33997-.06104-.69092-.32898-.92993l-14.47198-13.01904c-.67902-.60693-.30603-1.67102.63495-1.79297l20.00403-2.67993c.37292-.05005.69092-.26709.85791-.57397l8.94604-16.72217c.41797-.78491,1.62598-.78491,2.04407,0"/>
  <path class="cls-1" d="M73.82232,135.23721l8.94592,16.72217c.16699.31201.48999.52393.85803.57397l20.00403,2.67993c.93591.12195,1.30896,1.18604.63501,1.79297l-14.47803,13.01904c-.26697.23901-.39001.58997-.32898.92993l3.41492,18.37708c.16199.85791-.81897,1.51501-1.65393,1.10791l-17.89307-8.67798c-.33398-.16199-.729-.16199-1.06396,0l-17.89197,8.67798c-.83508.4071-1.81604-.25-1.65405-1.10791l3.42004-18.37708c.06104-.33997-.06104-.69092-.32898-.92993l-14.47198-13.01904c-.67902-.60693-.30603-1.67102.63495-1.79297l20.00403-2.67993c.37292-.05005.69092-.26709.85791-.57397l8.94604-16.72217c.41797-.78491,1.62598-.78491,2.04407,0"/>
  <path class="cls-4" d="M73.82232,135.23721l8.94592,16.72217c.16699.31201.48999.52393.85803.57397l20.00403,2.67993c.93591.12195,1.30896,1.18604.63501,1.79297l-14.47803,13.01904c-.26697.23901-.39001.58997-.32898.92993l3.41492,18.37708c.16199.85791-.81897,1.51501-1.65393,1.10791l-17.89307-8.67798c-.33398-.16199-.729-.16199-1.06396,0l-17.89197,8.67798c-.83508.4071-1.81604-.25-1.65405-1.10791l3.42004-18.37708c.06104-.33997-.06104-.69092-.32898-.92993l-14.47198-13.01904c-.67902-.60693-.30603-1.67102.63495-1.79297l20.00403-2.67993c.37292-.05005.69092-.26709.85791-.57397l8.94604-16.72217c.41797-.78491,1.62598-.78491,2.04407,0"/>
  <path class="cls-2" d="M73.82232,135.23721l8.94592,16.72217c.16699.31201.48999.52393.85803.57397l20.00403,2.67993c.93591.12195,1.30896,1.18604.63501,1.79297l-14.47803,13.01904c-.26697.23901-.39001.58997-.32898.92993l3.41492,18.37708c.16199.85791-.81897,1.51501-1.65393,1.10791l-17.89307-8.67798c-.33398-.16199-.729-.16199-1.06396,0l-17.89197,8.67798c-.83508.4071-1.81604-.25-1.65405-1.10791l3.42004-18.37708c.06104-.33997-.06104-.69092-.32898-.92993l-14.47198-13.01904c-.67902-.60693-.30603-1.67102.63495-1.79297l20.00403-2.67993c.37292-.05005.69092-.26709.85791-.57397l8.94604-16.72217c.41797-.78491,1.62598-.78491,2.04407,0Z"/>
  <path class="cls-3" d="M154.71673,135.23721l8.94592,16.72217c.16699.31201.48999.52393.85803.57397l20.00403,2.67993c.93494.12195,1.30896,1.18604.63501,1.79297l-14.47803,13.01904c-.26697.23901-.39001.58997-.32898.92993l3.41492,18.37708c.16101.85791-.81897,1.51501-1.65491,1.10791l-17.89209-8.67798c-.33398-.16199-.72998-.16199-1.06396,0l-17.89197,8.67798c-.83606.4071-1.81604-.25-1.65503-1.10791l3.42102-18.37708c.06104-.33997-.06201-.69092-.32898-.92993l-14.47205-13.01904c-.68005-.60693-.30603-1.67102.63501-1.79297l20.00403-2.67993c.37292-.05005.68994-.26709.85693-.57397l8.94702-16.72217c.41199-.78491,1.62598-.78491,2.04407,0"/>
  <path class="cls-1" d="M154.71673,135.23721l8.94592,16.72217c.16699.31201.48999.52393.85803.57397l20.00403,2.67993c.93494.12195,1.30896,1.18604.63501,1.79297l-14.47803,13.01904c-.26697.23901-.39001.58997-.32898.92993l3.41492,18.37708c.16101.85791-.81897,1.51501-1.65491,1.10791l-17.89209-8.67798c-.33398-.16199-.72998-.16199-1.06396,0l-17.89197,8.67798c-.83606.4071-1.81604-.25-1.65503-1.10791l3.42102-18.37708c.06104-.33997-.06201-.69092-.32898-.92993l-14.47205-13.01904c-.68005-.60693-.30603-1.67102.63501-1.79297l20.00403-2.67993c.37292-.05005.68994-.26709.85693-.57397l8.94702-16.72217c.41199-.78491,1.62598-.78491,2.04407,0"/>
  <path class="cls-4" d="M154.71673,135.23721l8.94592,16.72217c.16699.31201.48999.52393.85803.57397l20.00403,2.67993c.93494.12195,1.30896,1.18604.63501,1.79297l-14.47803,13.01904c-.26697.23901-.39001.58997-.32898.92993l3.41492,18.37708c.16101.85791-.81897,1.51501-1.65491,1.10791l-17.89209-8.67798c-.33398-.16199-.72998-.16199-1.06396,0l-17.89197,8.67798c-.83606.4071-1.81604-.25-1.65503-1.10791l3.42102-18.37708c.06104-.33997-.06201-.69092-.32898-.92993l-14.47205-13.01904c-.68005-.60693-.30603-1.67102.63501-1.79297l20.00403-2.67993c.37292-.05005.68994-.26709.85693-.57397l8.94702-16.72217c.41199-.78491,1.62598-.78491,2.04407,0"/>
  <path class="cls-2" d="M154.71673,135.23721l8.94592,16.72217c.16699.31201.48999.52393.85803.57397l20.00403,2.67993c.93494.12195,1.30896,1.18604.63501,1.79297l-14.47803,13.01904c-.26697.23901-.39001.58997-.32898.92993l3.41492,18.37708c.16101.85791-.81897,1.51501-1.65491,1.10791l-17.89209-8.67798c-.33398-.16199-.72998-.16199-1.06396,0l-17.89197,8.67798c-.83606.4071-1.81604-.25-1.65503-1.10791l3.42102-18.37708c.06104-.33997-.06201-.69092-.32898-.92993l-14.47205-13.01904c-.68005-.60693-.30603-1.67102.63501-1.79297l20.00403-2.67993c.37292-.05005.68994-.26709.85693-.57397l8.94702-16.72217c.41199-.78491,1.62598-.78491,2.04407,0Z"/>
  <path class="cls-3" d="M179.12652,66.74282l8.94592,16.72217c.16699.31201.48999.52393.85803.57397l20.00293,2.67993c.93604.12207,1.31006,1.18604.63611,1.79297l-14.47803,13.01904c-.26697.23901-.39001.59009-.32898.92993l3.41492,18.3772c.16101.85791-.81897,1.51489-1.65491,1.10791l-17.89209-8.67896c-.33398-.16113-.72998-.16113-1.06396,0l-17.89197,8.67896c-.83606.40698-1.81604-.25-1.65503-1.10791l3.42102-18.3772c.06104-.33984-.06201-.69092-.32898-.92993l-14.47205-13.01904c-.68005-.60693-.30701-1.6709.63501-1.79297l20.00293-2.67993c.37402-.05005.69104-.26709.85803-.57397l8.94604-16.72217c.41296-.78589,1.62695-.78589,2.04504,0"/>
  <path class="cls-1" d="M179.12652,66.74282l8.94592,16.72217c.16699.31201.48999.52393.85803.57397l20.00293,2.67993c.93604.12207,1.31006,1.18604.63611,1.79297l-14.47803,13.01904c-.26697.23901-.39001.59009-.32898.92993l3.41492,18.3772c.16101.85791-.81897,1.51489-1.65491,1.10791l-17.89209-8.67896c-.33398-.16113-.72998-.16113-1.06396,0l-17.89197,8.67896c-.83606.40698-1.81604-.25-1.65503-1.10791l3.42102-18.3772c.06104-.33984-.06201-.69092-.32898-.92993l-14.47205-13.01904c-.68005-.60693-.30701-1.6709.63501-1.79297l20.00293-2.67993c.37402-.05005.69104-.26709.85803-.57397l8.94604-16.72217c.41296-.78589,1.62695-.78589,2.04504,0"/>
  <path class="cls-4" d="M179.12652,66.74282l8.94592,16.72217c.16699.31201.48999.52393.85803.57397l20.00293,2.67993c.93604.12207,1.31006,1.18604.63611,1.79297l-14.47803,13.01904c-.26697.23901-.39001.59009-.32898.92993l3.41492,18.3772c.16101.85791-.81897,1.51489-1.65491,1.10791l-17.89209-8.67896c-.33398-.16113-.72998-.16113-1.06396,0l-17.89197,8.67896c-.83606.40698-1.81604-.25-1.65503-1.10791l3.42102-18.3772c.06104-.33984-.06201-.69092-.32898-.92993l-14.47205-13.01904c-.68005-.60693-.30701-1.6709.63501-1.79297l20.00293-2.67993c.37402-.05005.69104-.26709.85803-.57397l8.94604-16.72217c.41296-.78589,1.62695-.78589,2.04504,0"/>
  <path class="cls-2" d="M179.12652,66.74282l8.94592,16.72217c.16699.31201.48999.52393.85803.57397l20.00293,2.67993c.93604.12207,1.31006,1.18604.63611,1.79297l-14.47803,13.01904c-.26697.23901-.39001.59009-.32898.92993l3.41492,18.3772c.16101.85791-.81897,1.51489-1.65491,1.10791l-17.89209-8.67896c-.33398-.16113-.72998-.16113-1.06396,0l-17.89197,8.67896c-.83606.40698-1.81604-.25-1.65503-1.10791l3.42102-18.3772c.06104-.33984-.06201-.69092-.32898-.92993l-14.47205-13.01904c-.68005-.60693-.30701-1.6709.63501-1.79297l20.00293-2.67993c.37402-.05005.69104-.26709.85803-.57397l8.94604-16.72217c.41296-.78589,1.62695-.78589,2.04504,0Z"/>
  <path class="cls-3" d="M115.61761,14.03506l9.89294,18.48804c.18396.34619.54004.58521.953.63501l22.12,2.96411c1.03601.13892,1.448,1.31396.70203,1.98804l-16.00403,14.38892c-.29504.26709-.43506.6521-.36206,1.03003l3.7771,20.32104c.17798.95288-.90808,1.677-1.83301,1.22583l-19.78101-9.59277c-.36707-.17822-.80798-.17822-1.17505,0l-19.78101,9.59277c-.92493.45117-2.01099-.27881-1.83301-1.22583l3.77698-20.32104c.073-.37891-.06689-.76294-.36194-1.03003l-16.00403-14.38892c-.74597-.67407-.33398-1.84912.70203-1.98804l22.11499-2.96411c.41199-.05493.76807-.29492.95203-.63501l9.89294-18.48804c.44604-.8689,1.78906-.8689,2.2511,0"/>
  <path class="cls-1" d="M115.61761,14.03506l9.89294,18.48804c.18396.34619.54004.58521.953.63501l22.12,2.96411c1.03601.13892,1.448,1.31396.70203,1.98804l-16.00403,14.38892c-.29504.26709-.43506.6521-.36206,1.03003l3.7771,20.32104c.17798.95288-.90808,1.677-1.83301,1.22583l-19.78101-9.59277c-.36707-.17822-.80798-.17822-1.17505,0l-19.78101,9.59277c-.92493.45117-2.01099-.27881-1.83301-1.22583l3.77698-20.32104c.073-.37891-.06689-.76294-.36194-1.03003l-16.00403-14.38892c-.74597-.67407-.33398-1.84912.70203-1.98804l22.11499-2.96411c.41199-.05493.76807-.29492.95203-.63501l9.89294-18.48804c.44604-.8689,1.78906-.8689,2.2511,0"/>
  <path class="cls-4" d="M115.61761,14.03506l9.89294,18.48804c.18396.34619.54004.58521.953.63501l22.12,2.96411c1.03601.13892,1.448,1.31396.70203,1.98804l-16.00403,14.38892c-.29504.26709-.43506.6521-.36206,1.03003l3.7771,20.32104c.17798.95288-.90808,1.677-1.83301,1.22583l-19.78101-9.59277c-.36707-.17822-.80798-.17822-1.17505,0l-19.78101,9.59277c-.92493.45117-2.01099-.27881-1.83301-1.22583l3.77698-20.32104c.073-.37891-.06689-.76294-.36194-1.03003l-16.00403-14.38892c-.74597-.67407-.33398-1.84912.70203-1.98804l22.11499-2.96411c.41199-.05493.76807-.29492.95203-.63501l9.89294-18.48804c.44604-.8689,1.78906-.8689,2.2511,0"/>
  <path class="cls-2" d="M115.61761,14.03506l9.89294,18.48804c.18396.34619.54004.58521.953.63501l22.12,2.96411c1.03601.13892,1.448,1.31396.70203,1.98804l-16.00403,14.38892c-.29504.26709-.43506.6521-.36206,1.03003l3.7771,20.32104c.17798.95288-.90808,1.677-1.83301,1.22583l-19.78101-9.59277c-.36707-.17822-.80798-.17822-1.17505,0l-19.78101,9.59277c-.92493.45117-2.01099-.27881-1.83301-1.22583l3.77698-20.32104c.073-.37891-.06689-.76294-.36194-1.03003l-16.00403-14.38892c-.74597-.67407-.33398-1.84912.70203-1.98804l22.11499-2.96411c.41199-.05493.76807-.29492.95203-.63501l9.89294-18.48804c.44604-.8689,1.78906-.8689,2.2511,0Z"/>
</svg>