<svg id="Слой_1" data-name="Слой 1" xmlns="http://www.w3.org/2000/svg" viewBox="0 0 227.23924 227.23858"><defs><style>.cls-1{fill:none;stroke:#82acf6;stroke-miterlimit:5.57;stroke-width:5.57px;}.cls-2{fill:#dbeeff;}</style></defs><circle class="cls-1" cx="113.62" cy="113.61929" r="110.83479"/><path class="cls-2" d="M436.64534,449.89379l8.946,16.72217a1.13957,1.13957,0,0,0,.858.574l20.004,2.67993a1.03292,1.03292,0,0,1,.635,1.793l-14.478,13.01807a1.01278,1.01278,0,0,0-.329.93091l3.415,18.38208a1.12375,1.12375,0,0,1-1.654,1.10913l-17.893-8.6792a1.22634,1.22634,0,0,0-1.064,0l-17.892,8.6792a1.12444,1.12444,0,0,1-1.655-1.10913l3.421-18.38208a1.01278,1.01278,0,0,0-.329-.93091l-14.478-13.012a1.03253,1.03253,0,0,1,.635-1.79395l20.004-2.6792a1.14523,1.14523,0,0,0,.858-.574l8.946-16.7229a1.184,1.184,0,0,1,2.05-.00513" transform="translate(-386.46484 -386.1036)"/><path class="cls-1" d="M436.64534,449.89379l8.946,16.72217a1.13957,1.13957,0,0,0,.858.574l20.004,2.67993a1.03292,1.03292,0,0,1,.635,1.793l-14.478,13.01807a1.01278,1.01278,0,0,0-.329.93091l3.415,18.38208a1.12375,1.12375,0,0,1-1.654,1.10913l-17.893-8.6792a1.22634,1.22634,0,0,0-1.064,0l-17.892,8.6792a1.12444,1.12444,0,0,1-1.655-1.10913l3.421-18.38208a1.01278,1.01278,0,0,0-.329-.93091l-14.478-13.012a1.03253,1.03253,0,0,1,.635-1.79395l20.004-2.6792a1.14523,1.14523,0,0,0,.858-.574l8.946-16.7229A1.184,1.184,0,0,1,436.64534,449.89379Z" transform="translate(-386.46484 -386.1036)"/><path class="cls-1" d="M460.28074,521.34057l8.946,16.72217a1.13957,1.13957,0,0,0,.858.574l20.004,2.67993a1.03335,1.03335,0,0,1,.635,1.793l-14.478,13.019a1.01023,1.01023,0,0,0-.329.92993l3.415,18.3772a1.12294,1.12294,0,0,1-1.654,1.10791l-17.893-8.67895a1.23135,1.23135,0,0,0-1.064,0l-17.892,8.67895a1.12363,1.12363,0,0,1-1.655-1.10791l3.421-18.3772a1.0102,1.0102,0,0,0-.329-.92993l-14.478-13.019a1.03181,1.03181,0,0,1,.636-1.793l20.003-2.67993a1.144,1.144,0,0,0,.858-.574l8.946-16.72217A1.18669,1.18669,0,0,1,460.28074,521.34057Z" transform="translate(-386.46484 -386.1036)"/><path class="cls-1" d="M541.17515,521.34057l8.946,16.72217a1.13954,1.13954,0,0,0,.858.574l20.004,2.67993a1.03335,1.03335,0,0,1,.635,1.793l-14.478,13.019a1.01023,1.01023,0,0,0-.329.92993l3.415,18.3772a1.12294,1.12294,0,0,1-1.654,1.10791l-17.893-8.67895a1.23137,1.23137,0,0,0-1.064,0l-17.892,8.67895a1.12274,1.12274,0,0,1-1.654-1.10791l3.42-18.3772a1.0078,1.0078,0,0,0-.329-.92993l-14.472-13.019a1.03132,1.03132,0,0,1,.635-1.793l20.004-2.67993a1.14573,1.14573,0,0,0,.858-.574l8.946-16.72217A1.18148,1.18148,0,0,1,541.17515,521.34057Z" transform="translate(-386.46484 -386.1036)"/><path class="cls-1" d="M565.58485,452.84594l8.946,16.72314a1.13846,1.13846,0,0,0,.858.573l20.004,2.67993a1.03354,1.03354,0,0,1,.635,1.79395l-14.478,13.01806a1.01029,1.01029,0,0,0-.329.92994l3.415,18.37719a1.12294,1.12294,0,0,1-1.654,1.10791l-17.893-8.678a1.2248,1.2248,0,0,0-1.064,0l-17.892,8.678a1.12274,1.12274,0,0,1-1.654-1.10791l3.42-18.37719a1.00778,1.00778,0,0,0-.329-.92994l-14.472-13.01806a1.03083,1.03083,0,0,1,.635-1.79395l20.004-2.67993a1.14719,1.14719,0,0,0,.858-.573l8.946-16.72314A1.18148,1.18148,0,0,1,565.58485,452.84594Z" transform="translate(-386.46484 -386.1036)"/><path class="cls-1" d="M502.076,400.13817l9.893,18.489a1.25734,1.25734,0,0,0,.953.635l22.12,2.96313a1.14611,1.14611,0,0,1,.702,1.989l-16.004,14.394a1.10613,1.10613,0,0,0-.362,1.02978l3.777,20.32105a1.24346,1.24346,0,0,1-1.833,1.22607l-19.781-9.592a1.353,1.353,0,0,0-1.175,0l-19.781,9.592a1.24505,1.24505,0,0,1-1.833-1.22607l3.777-20.32105a1.10613,1.10613,0,0,0-.362-1.02978l-16.004-14.394a1.14474,1.14474,0,0,1,.702-1.989l22.115-2.96313a1.27109,1.27109,0,0,0,.952-.635l9.894-18.489A1.29688,1.29688,0,0,1,502.076,400.13817Z" transform="translate(-386.46484 -386.1036)"/></svg>