<?xml version="1.0" encoding="UTF-8"?>
<svg id="_Слой_1" data-name="Слой 1" xmlns="http://www.w3.org/2000/svg" viewBox="0 0 227.23992 227.24102">
  <defs>
    <style>
      .cls-1 {
        stroke-width: 4.93px;
      }

      .cls-1, .cls-2, .cls-3, .cls-4, .cls-5, .cls-6, .cls-7, .cls-8 {
        fill: none;
        stroke-miterlimit: 5.57;
      }

      .cls-1, .cls-2, .cls-3, .cls-4, .cls-6, .cls-7, .cls-8 {
        stroke: #aac419;
      }

      .cls-2 {
        stroke-width: 5.182px;
      }

      .cls-3 {
        stroke-width: 2.671px;
      }

      .cls-4 {
        stroke-width: 4.412px;
      }

      .cls-5 {
        stroke: #ffd03c;
        stroke-width: 1.377px;
      }

      .cls-9 {
        fill: #ffd03c;
      }

      .cls-9, .cls-10 {
        stroke-width: 0px;
      }

      .cls-6 {
        stroke-width: 5.57px;
      }

      .cls-10 {
        fill: #aac419;
      }

      .cls-7 {
        stroke-width: 2.941px;
      }

      .cls-8 {
        stroke-width: 5.279px;
      }
    </style>
  </defs>
  <circle class="cls-6" cx="113.62021" cy="113.62036" r="110.83568" transform="translate(-13.40507 212.02623) rotate(-82.76481)"/>
  <path class="cls-9" d="M158.73129,183.88754H60.11898c-2.9668,0-5.37207-2.40491-5.37207-5.37195v-106.50403c0-2.9668,2.40527-5.37183,5.37207-5.37183h98.6123c2.9668,0,5.37109,2.40503,5.37109,5.37183v106.50403c0,2.96704-2.4043,5.37195-5.37109,5.37195"/>
  <path class="cls-8" d="M60.11886,66.63974h98.61145c2.96493,0,5.37207,2.40714,5.37207,5.37207v106.50391c0,2.96479-2.40703,5.37183-5.37183,5.37183H60.11801c-2.96439,0-5.37109-2.40671-5.37109-5.37109v-106.50476c0-2.96486,2.40709-5.37195,5.37195-5.37195Z"/>
  <rect class="cls-10" x="84.5018" y="85.47812" width="50.73193" height="30.62891"/>
  <rect class="cls-1" x="84.5018" y="85.47812" width="50.73193" height="30.62891"/>
  <rect class="cls-10" x="84.5018" y="135.17294" width="50.73193" height="30.62903"/>
  <rect class="cls-2" x="84.5018" y="135.17294" width="50.73193" height="30.62903"/>
  <rect class="cls-10" x="146.05453" y="84.19296" width="8.22607" height="8.22607"/>
  <rect class="cls-3" x="146.05453" y="84.19296" width="8.22607" height="8.22607"/>
  <rect class="cls-10" x="146.05453" y="108.69882" width="8.22607" height="8.22607"/>
  <rect class="cls-3" x="146.05453" y="108.69882" width="8.22607" height="8.22607"/>
  <rect class="cls-10" x="146.05453" y="134.13998" width="8.22607" height="8.22607"/>
  <rect class="cls-3" x="146.05453" y="134.13998" width="8.22607" height="8.22607"/>
  <rect class="cls-10" x="146.05453" y="157.69394" width="8.22607" height="8.22595"/>
  <rect class="cls-3" x="146.05453" y="157.69394" width="8.22607" height="8.22595"/>
  <rect class="cls-10" x="65.55355" y="84.39999" width="8.22607" height="8.22607"/>
  <rect class="cls-3" x="65.55355" y="84.39999" width="8.22607" height="8.22607"/>
  <rect class="cls-10" x="65.55355" y="108.90585" width="8.22607" height="8.22607"/>
  <rect class="cls-3" x="65.55355" y="108.90585" width="8.22607" height="8.22607"/>
  <rect class="cls-10" x="65.55355" y="134.34677" width="8.22607" height="8.22607"/>
  <rect class="cls-3" x="65.55355" y="134.34677" width="8.22607" height="8.22607"/>
  <rect class="cls-10" x="65.55355" y="157.90097" width="8.22607" height="8.22595"/>
  <rect class="cls-3" x="65.55355" y="157.90097" width="8.22607" height="8.22595"/>
  <path class="cls-10" d="M132.53793,66.58847s1.40381-4.60596,4.25-6.25684c2.84668-1.6521,22.60352-9.35303,22.60352-9.35303l1.58984,3.84106-28.44336,11.7688Z"/>
  <path class="cls-7" d="M132.53793,66.58847s1.40381-4.60596,4.25-6.25684c2.84668-1.6521,22.60352-9.35303,22.60352-9.35303l1.58984,3.84106-28.44336,11.7688Z"/>
  <path class="cls-10" d="M149.10043,77.31649s3.71875-3.05786,4.15674-6.31982c.43799-3.26099,0-24.46313,0-24.46313h-4.15674v30.78296Z"/>
  <path class="cls-7" d="M149.10043,77.31649s3.71875-3.05786,4.15674-6.31982c.43799-3.26099,0-24.46313,0-24.46313h-4.15674v30.78296Z"/>
  <path class="cls-4" d="M157.21469,39.41342c0,3.28003-2.65918,5.93921-5.93848,5.93921-3.27979,0-5.93896-2.65918-5.93896-5.93921,0-3.27979,2.65918-5.93896,5.93896-5.93896,3.2793,0,5.93848,2.65918,5.93848,5.93896Z"/>
  <path class="cls-4" d="M173.37875,49.20272c0,3.28003-2.65918,5.93823-5.93945,5.93823s-5.93945-2.6582-5.93945-5.93823c0-3.27979,2.65918-5.93896,5.93945-5.93896s5.93945,2.65918,5.93945,5.93896Z"/>
  <path class="cls-9" d="M153.12973,56.99472c0,1.02319-.83008,1.85303-1.854,1.85303-1.02344,0-1.85303-.82983-1.85303-1.85303,0-1.02393.82959-1.85376,1.85303-1.85376,1.02393,0,1.854.82983,1.854,1.85376"/>
  <path class="cls-5" d="M153.12973,56.99472c0,1.02319-.83008,1.85303-1.854,1.85303-1.02344,0-1.85303-.82983-1.85303-1.85303,0-1.02393.82959-1.85376,1.85303-1.85376,1.02393,0,1.854.82983,1.854,1.85376Z"/>
</svg>