<?xml version="1.0" encoding="UTF-8"?>
<svg id="_Слой_1" data-name="Слой 1" xmlns="http://www.w3.org/2000/svg" viewBox="0 0 227.23925 227.23895">
  <defs>
    <style>
      .cls-1 {
        fill: #add0ee;
      }

      .cls-1, .cls-2, .cls-3 {
        stroke-width: 0px;
      }

      .cls-2 {
        fill: #dbeeff;
      }

      .cls-3 {
        fill: #82acf6;
      }

      .cls-4 {
        stroke-width: .557px;
      }

      .cls-4, .cls-5 {
        fill: none;
        stroke: #82acf6;
        stroke-miterlimit: 5.57;
      }

      .cls-5 {
        stroke-width: 5.57px;
      }
    </style>
  </defs>
  <path class="cls-5" d="M35.24813,35.24759c43.28296-43.28296,113.45996-43.28394,156.7439,0,43.28296,43.2832,43.28296,113.46021,0,156.74414-43.28394,43.28296-113.46094,43.28296-156.7439,0-43.28418-43.28394-43.28418-113.45996,0-156.74414Z"/>
  <path class="cls-1" d="M73.52621,115.97415h-7.67603c-2.08911,0-3.78198,1.69409-3.78198,3.78223v58.97998c0,2.08984,1.69287,3.77686,3.78198,3.77686h7.67603c2.08887,0,3.78198-1.69287,3.78198-3.77686v-58.98511c0-2.08301-1.69312-3.7771-3.78198-3.7771"/>
  <path class="cls-4" d="M73.52621,115.97415h-7.67603c-2.08911,0-3.78198,1.69409-3.78198,3.78223v58.97998c0,2.08984,1.69287,3.77686,3.78198,3.77686h7.67603c2.08887,0,3.78198-1.69287,3.78198-3.77686v-58.98511c0-2.08301-1.69312-3.7771-3.78198-3.7771"/>
  <path class="cls-2" d="M73.52621,115.97415h-7.67603c-2.08911,0-3.78198,1.69409-3.78198,3.78223v58.97998c0,2.08984,1.69287,3.77686,3.78198,3.77686h7.67603c2.08887,0,3.78198-1.69287,3.78198-3.77686v-58.98511c0-2.08301-1.69312-3.7771-3.78198-3.7771"/>
  <path class="cls-5" d="M73.52621,115.97415h-7.67603c-2.08911,0-3.78198,1.69409-3.78198,3.78223v58.97998c0,2.08984,1.69287,3.77686,3.78198,3.77686h7.67603c2.08887,0,3.78198-1.69287,3.78198-3.77686v-58.98511c0-2.08301-1.69312-3.7771-3.78198-3.7771Z"/>
  <path class="cls-1" d="M102.1473,99.81985h-6.88013c-2.30591,0-4.177,1.87207-4.177,4.17822v74.33789c0,2.30591,1.87109,4.17798,4.177,4.17798h6.88013c2.30591,0,4.17798-1.87207,4.17798-4.17798v-74.33789c0-2.30615-1.87207-4.17822-4.17798-4.17822"/>
  <path class="cls-4" d="M102.1473,99.81985h-6.88013c-2.30591,0-4.177,1.87207-4.177,4.17822v74.33789c0,2.30591,1.87109,4.17798,4.177,4.17798h6.88013c2.30591,0,4.17798-1.87207,4.17798-4.17798v-74.33789c0-2.30615-1.87207-4.17822-4.17798-4.17822"/>
  <path class="cls-2" d="M102.1473,99.81985h-6.88013c-2.30591,0-4.177,1.87207-4.177,4.17822v74.33789c0,2.30591,1.87109,4.17798,4.177,4.17798h6.88013c2.30591,0,4.17798-1.87207,4.17798-4.17798v-74.33789c0-2.30615-1.87207-4.17822-4.17798-4.17822"/>
  <path class="cls-5" d="M95.2684,99.81985h6.87988c2.30535,0,4.177,1.87165,4.177,4.177v74.34009c0,2.30535-1.87165,4.177-4.177,4.177h-6.88013c-2.30589,0-4.17798-1.87209-4.17798-4.17798v-74.33789c0-2.30602,1.8722-4.17822,4.17822-4.17822Z"/>
  <path class="cls-1" d="M131.25839,85.30886h-6.11108c-2.51807,0-4.56201,2.04419-4.56201,4.56201v88.08008c0,2.51807,2.04395,4.56299,4.56201,4.56299h6.11108c2.51782,0,4.56177-2.04492,4.56177-4.56299v-88.08008c0-2.51782-2.04395-4.56201-4.56177-4.56201"/>
  <path class="cls-4" d="M131.25839,85.30886h-6.11108c-2.51807,0-4.56201,2.04419-4.56201,4.56201v88.08008c0,2.51807,2.04395,4.56299,4.56201,4.56299h6.11108c2.51782,0,4.56177-2.04492,4.56177-4.56299v-88.08008c0-2.51782-2.04395-4.56201-4.56177-4.56201"/>
  <path class="cls-2" d="M131.25839,85.30886h-6.11108c-2.51807,0-4.56201,2.04419-4.56201,4.56201v88.08008c0,2.51807,2.04395,4.56299,4.56201,4.56299h6.11108c2.51782,0,4.56177-2.04492,4.56177-4.56299v-88.08008c0-2.51782-2.04395-4.56201-4.56177-4.56201"/>
  <path class="cls-5" d="M125.1473,85.30886h6.11084c2.51784,0,4.56201,2.04417,4.56201,4.56201v88.08008c0,2.51838-2.04461,4.56299-4.56299,4.56299h-6.11011c-2.51771,0-4.56177-2.04406-4.56177-4.56177v-88.0813c0-2.51784,2.04417-4.56201,4.56201-4.56201Z"/>
  <path class="cls-1" d="M161.97982,70.44119h-8.79614c-1.7771,0-3.21899,1.44312-3.21899,3.22021v105.63794c0,1.77686,1.44189,3.21997,3.21899,3.21997h8.79614c1.77686,0,3.21899-1.44312,3.21899-3.21997v-105.63794c0-1.7771-1.44214-3.22021-3.21899-3.22021"/>
  <path class="cls-4" d="M161.97982,70.44119h-8.79614c-1.7771,0-3.21899,1.44312-3.21899,3.22021v105.63794c0,1.77686,1.44189,3.21997,3.21899,3.21997h8.79614c1.77686,0,3.21899-1.44312,3.21899-3.21997v-105.63794c0-1.7771-1.44214-3.22021-3.21899-3.22021"/>
  <path class="cls-2" d="M161.97982,70.44119h-8.79614c-1.7771,0-3.21899,1.44312-3.21899,3.22021v105.63794c0,1.77686,1.44189,3.21997,3.21899,3.21997h8.79614c1.77686,0,3.21899-1.44312,3.21899-3.21997v-105.63794c0-1.7771-1.44214-3.22021-3.21899-3.22021"/>
  <path class="cls-5" d="M153.1849,70.44119h8.79492c1.77661,0,3.21899,1.44238,3.21899,3.21899v105.63916c0,1.77715-1.44282,3.21997-3.21997,3.21997h-8.79517c-1.77661,0-3.21899-1.44238-3.21899-3.21899v-105.63892c0-1.77728,1.44293-3.22021,3.22021-3.22021Z"/>
  <path class="cls-3" d="M63.61068,98.0596c10.22192-5.62085,20.44385-11.24097,30.66479-16.86694,16.21021-8.91284,32.42017-17.83105,48.63013-26.7439,3.75488-2.06714,7.50903-4.12793,11.26392-6.19409,3.14209-1.72705.33398-6.54004-2.81299-4.81299-10.22192,5.62012-20.44385,11.24097-30.66504,16.86694-16.20996,8.91309-32.4209,17.83105-48.62988,26.74414-3.75513,2.06592-7.50903,4.12793-11.26416,6.19385-3.14185,1.73315-.33398,6.54517,2.81323,4.81299"/>
  <path class="cls-3" d="M136.44467,47.48538c5.43677.38403,10.87891.76318,16.31592,1.14722,3.57593.25098,3.55908-5.31909,0-5.57007-5.43701-.38403-10.87915-.76294-16.31592-1.14795-3.58203-.25-3.56519,5.31982,0,5.5708"/>
  <path class="cls-3" d="M147.22348,61.76248l8.03784-14.2439c1.76611-3.125-3.04688-5.93799-4.80688-2.81299-2.6792,4.74609-5.35913,9.49805-8.03809,14.2439-1.76611,3.1311,3.04712,5.94409,4.80713,2.81299"/>
</svg>