<?xml version="1.0" encoding="UTF-8"?><svg id="_Слой_1" xmlns="http://www.w3.org/2000/svg" viewBox="0 0 227.23925 227.23931"><defs><style>.cls-1{stroke-width:.557px;}.cls-1,.cls-2{fill:none;stroke:#f57d7f;stroke-miterlimit:5.57;}.cls-2{stroke-width:5.57px;}.cls-3{fill:#f57d7f;}.cls-3,.cls-4,.cls-5{stroke-width:0px;}.cls-4{fill:#ffdae3;}.cls-5{fill:#edadad;}</style></defs><path class="cls-3" d="M136.44662,47.49282c5.43677.38501,10.87891.76318,16.31592,1.14819,3.57593.25,3.55908-5.32007,0-5.57104-5.43701-.38403-10.87915-.76294-16.31592-1.14697-3.58203-.25708-3.56519,5.31982,0,5.56982"/><path class="cls-2" d="M35.24813,35.24795c43.28394-43.28394,113.45996-43.28394,156.7439,0,43.28296,43.2832,43.28296,113.46021,0,156.74414-43.28394,43.28296-113.46094,43.28296-156.7439,0-43.28418-43.28394-43.28418-113.46094,0-156.74414Z"/><path class="cls-5" d="M73.52816,115.97622h-7.67603c-2.08911,0-3.78198,1.69312-3.78198,3.78223v58.97998c0,2.08887,1.69287,3.77686,3.78198,3.77686h7.67603c2.08887,0,3.78198-1.69287,3.78198-3.77686v-58.98511c0-2.08398-1.69312-3.7771-3.78198-3.7771"/><path class="cls-1" d="M73.52816,115.97622h-7.67603c-2.08911,0-3.78198,1.69312-3.78198,3.78223v58.97998c0,2.08887,1.69287,3.77686,3.78198,3.77686h7.67603c2.08887,0,3.78198-1.69287,3.78198-3.77686v-58.98511c0-2.08398-1.69312-3.7771-3.78198-3.7771"/><path class="cls-4" d="M73.52816,115.97622h-7.67603c-2.08911,0-3.78198,1.69312-3.78198,3.78223v58.97998c0,2.08887,1.69287,3.77686,3.78198,3.77686h7.67603c2.08887,0,3.78198-1.69287,3.78198-3.77686v-58.98511c0-2.08398-1.69312-3.7771-3.78198-3.7771"/><path class="cls-2" d="M73.52816,115.97622h-7.67603c-2.08911,0-3.78198,1.69312-3.78198,3.78223v58.97998c0,2.08887,1.69287,3.77686,3.78198,3.77686h7.67603c2.08887,0,3.78198-1.69287,3.78198-3.77686v-58.98511c0-2.08398-1.69312-3.7771-3.78198-3.7771Z"/><path class="cls-5" d="M102.14926,99.82193h-6.88013c-2.30591,0-4.177,1.87207-4.177,4.17822v74.33789c0,2.30591,1.87109,4.17798,4.177,4.17798h6.88013c2.30591,0,4.17798-1.87207,4.17798-4.17798v-74.33789c0-2.30615-1.87207-4.17822-4.17798-4.17822"/><path class="cls-1" d="M102.14926,99.82193h-6.88013c-2.30591,0-4.177,1.87207-4.177,4.17822v74.33789c0,2.30591,1.87109,4.17798,4.177,4.17798h6.88013c2.30591,0,4.17798-1.87207,4.17798-4.17798v-74.33789c0-2.30615-1.87207-4.17822-4.17798-4.17822"/><path class="cls-4" d="M102.14926,99.82193h-6.88013c-2.30591,0-4.177,1.87207-4.177,4.17822v74.33789c0,2.30591,1.87109,4.17798,4.177,4.17798h6.88013c2.30591,0,4.17798-1.87207,4.17798-4.17798v-74.33789c0-2.30615-1.87207-4.17822-4.17798-4.17822"/><path class="cls-2" d="M95.27035,99.82193h6.87988c2.30535,0,4.177,1.87165,4.177,4.177v74.33911c0,2.30589-1.87209,4.17798-4.17798,4.17798h-6.87915c-2.30589,0-4.17798-1.87209-4.17798-4.17798v-74.33789c0-2.30602,1.8722-4.17822,4.17822-4.17822Z"/><path class="cls-5" d="M131.26034,85.31094h-6.11108c-2.51807,0-4.56201,2.04419-4.56201,4.56201v88.08008c0,2.51807,2.04395,4.56299,4.56201,4.56299h6.11108c2.51782,0,4.56177-2.04492,4.56177-4.56299v-88.08008c0-2.51782-2.04395-4.56201-4.56177-4.56201"/><path class="cls-1" d="M131.26034,85.31094h-6.11108c-2.51807,0-4.56201,2.04419-4.56201,4.56201v88.08008c0,2.51807,2.04395,4.56299,4.56201,4.56299h6.11108c2.51782,0,4.56177-2.04492,4.56177-4.56299v-88.08008c0-2.51782-2.04395-4.56201-4.56177-4.56201"/><path class="cls-4" d="M131.26034,85.31094h-6.11108c-2.51807,0-4.56201,2.04419-4.56201,4.56201v88.08008c0,2.51807,2.04395,4.56299,4.56201,4.56299h6.11108c2.51782,0,4.56177-2.04492,4.56177-4.56299v-88.08008c0-2.51782-2.04395-4.56201-4.56177-4.56201"/><path class="cls-2" d="M125.14926,85.31094h6.11084c2.51784,0,4.56201,2.04417,4.56201,4.56201v88.08008c0,2.51838-2.04461,4.56299-4.56299,4.56299h-6.11011c-2.51771,0-4.56177-2.04406-4.56177-4.56177v-88.0813c0-2.51784,2.04417-4.56201,4.56201-4.56201Z"/><path class="cls-5" d="M161.98178,70.44326h-8.79614c-1.7771,0-3.21899,1.44312-3.21899,3.22021v105.63794c0,1.77686,1.44189,3.21997,3.21899,3.21997h8.79614c1.77686,0,3.21899-1.44312,3.21899-3.21997v-105.63794c0-1.7771-1.44214-3.22021-3.21899-3.22021"/><path class="cls-1" d="M161.98178,70.44326h-8.79614c-1.7771,0-3.21899,1.44312-3.21899,3.22021v105.63794c0,1.77686,1.44189,3.21997,3.21899,3.21997h8.79614c1.77686,0,3.21899-1.44312,3.21899-3.21997v-105.63794c0-1.7771-1.44214-3.22021-3.21899-3.22021"/><path class="cls-4" d="M161.98178,70.44326h-8.79614c-1.7771,0-3.21899,1.44312-3.21899,3.22021v105.63794c0,1.77686,1.44189,3.21997,3.21899,3.21997h8.79614c1.77686,0,3.21899-1.44312,3.21899-3.21997v-105.63794c0-1.7771-1.44214-3.22021-3.21899-3.22021"/><path class="cls-2" d="M153.18686,70.44326h8.79492c1.77661,0,3.21899,1.44238,3.21899,3.21899v105.63916c0,1.77715-1.44282,3.21997-3.21997,3.21997h-8.79517c-1.77661,0-3.21899-1.44238-3.21899-3.21899v-105.63892c0-1.77728,1.44293-3.22021,3.22021-3.22021Z"/><path class="cls-3" d="M63.61264,98.06167c10.22192-5.62085,20.44385-11.24097,30.66479-16.86694,16.21021-8.91284,32.42017-17.83105,48.63013-26.7439,3.75488-2.06714,7.50903-4.12793,11.26392-6.19507,3.14209-1.72607.33398-6.53906-2.81299-4.81201-10.22192,5.62012-20.44385,11.24097-30.66504,16.86694-16.20996,8.91309-32.4209,17.83105-48.62988,26.74414-3.75513,2.06592-7.50903,4.12695-11.26416,6.19385-3.14185,1.73218-.33398,6.54517,2.81323,4.81299"/><path class="cls-3" d="M147.22543,61.76455l8.03784-14.2439c1.76611-3.125-3.04688-5.93799-4.80688-2.81299-2.6792,4.74609-5.35913,9.49805-8.03809,14.2439-1.76611,3.13013,3.04712,5.94409,4.80713,2.81299"/></svg>