<?xml version="1.0" encoding="UTF-8"?>
<svg id="_Слой_1" data-name="Слой 1" xmlns="http://www.w3.org/2000/svg" viewBox="0 0 227.23846 227.23855">
  <defs>
    <style>
      .cls-1 {
        stroke-width: .557px;
      }

      .cls-1, .cls-2 {
        fill: none;
        stroke: #aac419;
        stroke-miterlimit: 5.57;
      }

      .cls-3 {
        fill: #ffd03c;
        stroke-width: 0px;
      }

      .cls-2 {
        stroke-width: 5.57px;
      }
    </style>
  </defs>
  <path class="cls-3" d="M114.09799,173.21597c0-4.573,34.8208-8.73999,78.97168-8.73999l.04492.54602-.43506-84.57703-13.49072-.56787"/>
  <path class="cls-2" d="M114.09799,173.21597c0-4.573,34.8208-8.73999,78.97168-8.73999l.04492.54602-.43506-84.57703-13.49072-.56787"/>
  <path class="cls-3" d="M113.44076,173.21597c0-4.573-35.73535-8.8009-79.88037-8.8009v.25l.22803-84.44202,14.93994.22192"/>
  <path class="cls-2" d="M113.44076,173.21597c0-4.573-35.73535-8.8009-79.88037-8.8009v.25l.22803-84.44202,14.93994.22192"/>
  <path class="cls-3" d="M113.14535,172.48062c0-8.7229-28.34229-16.00891-64.03809-16.00891v.22192-92.49182h.03271c35.05518,0,63.42627,7.05786,63.42627,15.78101"/>
  <path class="cls-1" d="M113.14535,172.48062c0-8.7229-28.34229-16.00891-64.03809-16.00891v.22192-92.49182h.03271c35.05518,0,63.42627,7.05786,63.42627,15.78101"/>
  <path class="cls-2" d="M113.14535,172.48062c0-8.7229-28.34229-16.00891-64.03809-16.00891v.22192-92.49182h.03271c35.05518,0,63.42627,7.05786,63.42627,15.78101"/>
  <path class="cls-3" d="M113.37924,79.98867c0-8.7229,29.11084-15.78076,65.08496-15.78076v92.68079-.18896c-35.57812,0-64.37207,7.05798-64.37207,15.78101h-.42822l-.86377-92.49207"/>
  <path class="cls-2" d="M113.37924,79.98867c0-8.7229,29.11084-15.78076,65.08496-15.78076v92.68079-.18896c-35.57812,0-64.37207,7.05798-64.37207,15.78101h-.42822l-.86377-92.49207"/>
  <path class="cls-2" d="M35.2474,35.24722c43.28369-43.28296,113.45996-43.28296,156.74365,0,43.2832,43.28418,43.2832,113.46008,0,156.74402-43.28369,43.28308-113.45996,43.28308-156.74365,0-43.2832-43.28394-43.2832-113.46082,0-156.74402Z"/>
</svg>