<?xml version="1.0" encoding="UTF-8"?>
<svg id="_Слой_1" data-name="Слой 1" xmlns="http://www.w3.org/2000/svg" viewBox="0 0 227.23852 227.23855">
  <defs>
    <style>
      .cls-1 {
        fill: #ffd03c;
        stroke-width: 0px;
      }

      .cls-2 {
        fill: none;
        stroke: #aac419;
        stroke-miterlimit: 5.57;
        stroke-width: 5.57px;
      }
    </style>
  </defs>
  <path class="cls-1" d="M155.09848,44.55191h-71.60815c-2.26685,0-4.11084,2.18286-4.11084,4.86792v89.85205c0,2.72388-1.88306,4.87402-4.17798,4.8689h-.04419c-11.95483,0-21.64697,7.68701-21.64697,17.16797,0,9.46899,9.68701,17.15698,21.64697,17.15698,11.9541,0,21.646-7.68799,21.646-17.15698,0-.33997-.01587-.67395-.04395-1.00903h.04395l-.729-49.29785c-.04004-2.6521,2.1001-4.81909,4.74609-4.81909h37.21606c2.573,0,4.68481,2.05615,4.74585,4.62915l.68506,27.5188c0,2.77905-1.96094,4.99609-4.30005,4.86304-.53003-.03394-1.06982-.05103-1.60986-.05103-11.94897,0-21.64697,7.677-21.64697,17.15796,0,9.46899,9.698,17.1571,21.64697,17.1571,11.95386,0,21.646-7.68811,21.646-17.1571V49.41983c.00586-2.68994-1.83203-4.86792-4.10498-4.86792M101.55551,84.84268c-2.62402,0-4.74609-2.12793-4.74609-4.74585v-9.13599c0-2.68994,1.83789-4.86816,4.11108-4.86816h38.44678c2.26709,0,4.11108,2.18311,4.11108,4.86816v9.13599c0,2.62402-2.12793,4.74585-4.74609,4.74585h-37.17676Z"/>
  <path class="cls-2" d="M155.09848,44.55191h-71.60815c-2.26685,0-4.11084,2.18286-4.11084,4.86792v89.85205c0,2.72388-1.88306,4.87402-4.17798,4.8689h-.04419c-11.95483,0-21.64697,7.68701-21.64697,17.16797,0,9.46899,9.68701,17.15698,21.64697,17.15698,11.9541,0,21.646-7.68799,21.646-17.15698,0-.33997-.01587-.67395-.04395-1.00903h.04395l-.729-49.29785c-.04004-2.6521,2.1001-4.81909,4.74609-4.81909h37.21606c2.573,0,4.68481,2.05615,4.74585,4.62915l.68506,27.5188c0,2.77905-1.96094,4.99609-4.30005,4.86304-.53003-.03394-1.06982-.05103-1.60986-.05103-11.94897,0-21.64697,7.677-21.64697,17.15796,0,9.46899,9.698,17.1571,21.64697,17.1571,11.95386,0,21.646-7.68811,21.646-17.1571V49.41983c.00586-2.68994-1.83203-4.86792-4.10498-4.86792ZM101.55551,84.84268c-2.62402,0-4.74609-2.12793-4.74609-4.74585v-9.13599c0-2.68994,1.83789-4.86816,4.11108-4.86816h38.44678c2.26709,0,4.11108,2.18311,4.11108,4.86816v9.13599c0,2.62402-2.12793,4.74585-4.74609,4.74585h-37.17676Z"/>
  <path class="cls-2" d="M35.2474,35.24722c43.28394-43.28296,113.45996-43.28296,156.7439,0,43.28296,43.2832,43.28296,113.46021,0,156.74402-43.28394,43.28308-113.46094,43.28308-156.7439,0-43.2832-43.28381-43.2832-113.45984,0-156.74402Z"/>
</svg>