<?xml version="1.0" encoding="UTF-8"?>
<svg id="_Слой_1" data-name="Слой 1" xmlns="http://www.w3.org/2000/svg" viewBox="0 0 227.23925 227.23891">
  <defs>
    <style>
      .cls-1 {
        fill: #b8e87b;
      }

      .cls-1, .cls-2, .cls-3 {
        stroke-width: 0px;
      }

      .cls-4 {
        stroke-width: .557px;
      }

      .cls-4, .cls-5 {
        fill: none;
        stroke: #aac419;
        stroke-miterlimit: 5.57;
      }

      .cls-2 {
        fill: #ffd03c;
      }

      .cls-5 {
        stroke-width: 5.57px;
      }

      .cls-3 {
        fill: #aac419;
      }
    </style>
  </defs>
  <path class="cls-5" d="M35.24804,35.24759c43.28394-43.28394,113.45996-43.28296,156.7439,0,43.28308,43.2832,43.28308,113.46021,0,156.74402-43.28394,43.28308-113.45996,43.28308-156.7439,0-43.28406-43.28381-43.28406-113.45984,0-156.74402Z"/>
  <path class="cls-3" d="M73.13183,30.34085c-29.62903,16.66724-46.14612,50.7251-40.91003,84.30908,5.24792,33.67896,32.79895,60.34497,66.21692,65.87598,18.90601,3.13098,38.29102-.36206,54.87402-9.97595,3.09802-1.80005.30103-6.61206-2.81299-4.81311-27.26196,15.80908-62.75098,13.21301-87.09998-7.03589-24.54297-20.40991-32.79895-54.51196-21.552-84.19189,6.328-16.69409,18.56702-30.62598,34.09094-39.36108,3.1311-1.75391.323-6.56689-2.80688-4.80713"/>
  <path class="cls-4" d="M73.13183,30.34085c-29.62903,16.66724-46.14612,50.7251-40.91003,84.30908,5.24792,33.67896,32.79895,60.34497,66.21692,65.87598,18.90601,3.13098,38.29102-.36206,54.87402-9.97595,3.09802-1.80005.30103-6.61206-2.81299-4.81311-27.26196,15.80908-62.75098,13.21301-87.09998-7.03589-24.54297-20.40991-32.79895-54.51196-21.552-84.19189,6.328-16.69409,18.56702-30.62598,34.09094-39.36108,3.1311-1.75391.323-6.56689-2.80688-4.80713"/>
  <line class="cls-5" x1="113.63464" y1="203.41531" x2="113.63464" y2="178.91641"/>
  <path class="cls-1" d="M86.6123,206.20059h54.04492c3.58105,0,3.59302-5.57092,0-5.57092h-54.04492c-3.58203,0-3.58704,5.57092,0,5.57092"/>
  <path class="cls-3" d="M86.6123,206.20059h54.04492c3.58105,0,3.59302-5.57092,0-5.57092h-54.04492c-3.58203,0-3.58704,5.57092,0,5.57092"/>
  <path class="cls-4" d="M86.6123,206.20059h54.04492c3.58105,0,3.59302-5.57092,0-5.57092h-54.04492c-3.58203,0-3.58704,5.57092,0,5.57092"/>
  <path class="cls-2" d="M171.30566,103.12454c0,34.02417-27.5791,61.604-61.604,61.604s-61.604-27.57983-61.604-61.604,27.57996-61.60376,61.604-61.60376,61.604,27.58496,61.604,61.60376"/>
  <path class="cls-3" d="M168.5205,103.12454c-.151,24.41504-15.56909,46.96509-38.68103,55.29211-23.35706,8.41199-49.83899,1.09192-65.64807-18.00305-15.78101-19.06787-17.54199-46.98096-4.65198-68.021,12.71802-20.75586,37.75098-31.78491,61.65405-26.97192,27.323,5.50293,47.15393,29.91895,47.32703,57.70386.02197,3.58203,5.5929,3.59302,5.56995,0-.16699-26.76587-16.96704-51.01978-42.07898-60.40576-25.29504-9.45923-54.90808-1.42603-71.99304,19.46289-17.07898,20.88403-19.49097,51.00293-5.48096,74.17603,13.94299,23.06189,41.34399,35.06689,67.75903,29.91895,26.06396-5.08008,47.03699-26.89404,51.00293-53.16992.50195-3.30811.76904-6.63403.79102-9.98218.02295-3.58179-5.54797-3.58691-5.56995,0"/>
  <path class="cls-4" d="M168.5205,103.12454c-.151,24.41504-15.56909,46.96509-38.68103,55.29211-23.35706,8.41199-49.83899,1.09192-65.64807-18.00305-15.78101-19.06787-17.54199-46.98096-4.65198-68.021,12.71802-20.75586,37.75098-31.78491,61.65405-26.97192,27.323,5.50293,47.15393,29.91895,47.32703,57.70386.02197,3.58203,5.5929,3.59302,5.56995,0-.16699-26.76587-16.96704-51.01978-42.07898-60.40576-25.29504-9.45923-54.90808-1.42603-71.99304,19.46289-17.07898,20.88403-19.49097,51.00293-5.48096,74.17603,13.94299,23.06189,41.34399,35.06689,67.75903,29.91895,26.06396-5.08008,47.03699-26.89404,51.00293-53.16992.50195-3.30811.76904-6.63403.79102-9.98218.02295-3.58179-5.54797-3.58691-5.56995,0"/>
  <path class="cls-3" d="M107.53503,43.55398c.12195.28418-.39612.46802-4.55103,4.55103-6.328,6.21704-7.01306,7.64307-7.39807,8.81812-1.19702,3.68799-.06702,6.96289.28406,7.96606.18994.53979,2.31799,6.41187,5.68799,6.25586,1.40393-.06689,2.88-1.16992,3.41394-2.56299.91406-2.38403-1.54797-3.98804-.85193-5.97095.88-2.51294,6.245-4.00513,9.95496-2.27295,2.30603,1.07495,3.42004,2.96289,5.11902,5.97095,1.39294,2.46802,2.61206,4.62402,2.27795,7.30298-.1449,1.12598-.401,1.08691-2.84595,5.49805-2.63501,4.75806-3.20898,6.37305-5.12,7.11401-1.15796.44507-1.42603.03906-2.75098.56787-2.12305.85815-3.203,2.62915-4.078,3.98315-2.44507,3.79883-6.38904,9.92603-8.81799,9.38599-.72998-.16113-.94104-.84717-2.17798-1.04102-1.23108-.19507-2.25.27808-2.6571.4729-.245.11694-2.81299,1.42603-3.13098,4.26709-.21094,1.8999.802,3.88306,2.27307,4.83496,2.37292,1.53809,4.74597-1.96094,8.53394-.85205,1.30908.38403,3.03601,1.34814,3.13098,2.56201.10498,1.40405-2.078,1.97803-1.98901,3.41504.08411,1.354,2.13306,2.63501,3.94409,2.69604.76892.02808,1.25293-.1731,3.73792-1.27515,2.26111-1.00293,3.38611-1.49878,3.698-1.64893,3.198-1.50391,8.81311,1.13599,19.90906,6.48413,5.31995,2.56201,7.98303,3.88184,8.25,5.97095.21204,1.66602-1.03601,2.28394-2.27295,5.97192-1.28101,3.81592-.52307,4.88501-1.42004,7.39697-1.21497,3.39795-3.44299,3.79907-7.68201,7.68213-5.55396,5.08594-4.39502,6.84082-9.67004,11.66382-2.66895,2.44006-8.07202,7.3761-10.63391,5.97205-3.06409-1.68201,1.68201-10.40002.3949-25.88586-.25-2.97412-1.08594-10.62817-5.526-18.42114-4.04395-7.10303-7.63696-8.28882-9.26892-8.60083-1.63806-.31201-1.755.16699-3.98303,0-6.58997-.49609-11.10706-5.10815-11.66394-5.68799-2.53503-2.66211-2.26709-4.24414-4.83508-10.52222-4.41199-10.7959-7.76599-12.39478-11.38098-23.60791-.97498-3.0249-1.45898-4.54004-1.42004-5.40308.67407-15.23584,44.4071-25.57397,45.51611-23.05103"/>
  <path class="cls-4" d="M107.53503,43.55398c.12195.28418-.39612.46802-4.55103,4.55103-6.328,6.21704-7.01306,7.64307-7.39807,8.81812-1.19702,3.68799-.06702,6.96289.28406,7.96606.18994.53979,2.31799,6.41187,5.68799,6.25586,1.40393-.06689,2.88-1.16992,3.41394-2.56299.91406-2.38403-1.54797-3.98804-.85193-5.97095.88-2.51294,6.245-4.00513,9.95496-2.27295,2.30603,1.07495,3.42004,2.96289,5.11902,5.97095,1.39294,2.46802,2.61206,4.62402,2.27795,7.30298-.1449,1.12598-.401,1.08691-2.84595,5.49805-2.63501,4.75806-3.20898,6.37305-5.12,7.11401-1.15796.44507-1.42603.03906-2.75098.56787-2.12305.85815-3.203,2.62915-4.078,3.98315-2.44507,3.79883-6.38904,9.92603-8.81799,9.38599-.72998-.16113-.94104-.84717-2.17798-1.04102-1.23108-.19507-2.25.27808-2.6571.4729-.245.11694-2.81299,1.42603-3.13098,4.26709-.21094,1.8999.802,3.88306,2.27307,4.83496,2.37292,1.53809,4.74597-1.96094,8.53394-.85205,1.30908.38403,3.03601,1.34814,3.13098,2.56201.10498,1.40405-2.078,1.97803-1.98901,3.41504.08411,1.354,2.13306,2.63501,3.94409,2.69604.76892.02808,1.25293-.1731,3.73792-1.27515,2.26111-1.00293,3.38611-1.49878,3.698-1.64893,3.198-1.50391,8.81311,1.13599,19.90906,6.48413,5.31995,2.56201,7.98303,3.88184,8.25,5.97095.21204,1.66602-1.03601,2.28394-2.27295,5.97192-1.28101,3.81592-.52307,4.88501-1.42004,7.39697-1.21497,3.39795-3.44299,3.79907-7.68201,7.68213-5.55396,5.08594-4.39502,6.84082-9.67004,11.66382-2.66895,2.44006-8.07202,7.3761-10.63391,5.97205-3.06409-1.68201,1.68201-10.40002.3949-25.88586-.25-2.97412-1.08594-10.62817-5.526-18.42114-4.04395-7.10303-7.63696-8.28882-9.26892-8.60083-1.63806-.31201-1.755.16699-3.98303,0-6.58997-.49609-11.10706-5.10815-11.66394-5.68799-2.53503-2.66211-2.26709-4.24414-4.83508-10.52222-4.41199-10.7959-7.76599-12.39478-11.38098-23.60791-.97498-3.0249-1.45898-4.54004-1.42004-5.40308.67407-15.23584,44.4071-25.57397,45.51611-23.05103"/>
  <path class="cls-3" d="M161.57959,82.52493s-.51208.85815-7.68201,9.95508c-6.09399,7.73096-8.94006,6.56714-9.38611,9.9541-.59094,4.43994,4.495,5.01294,8.25,14.78906.83008,2.16187,1.51501,4.56787,3.41406,5.11987,1.57703.45605,2.59595-.78003,5.97205-1.4209,3.15295-.60107,3.849.17285,5.1189-.28418,5.64905-2.03882,3.27002-21.38989.85303-32.14087-1.17603-5.21411-2.43994-8.77905-3.98303-8.81812-.953-.02295-1.64294,1.32007-2.55688,2.84595"/>
  <path class="cls-4" d="M161.57959,82.52493s-.51208.85815-7.68201,9.95508c-6.09399,7.73096-8.94006,6.56714-9.38611,9.9541-.59094,4.43994,4.495,5.01294,8.25,14.78906.83008,2.16187,1.51501,4.56787,3.41406,5.11987,1.57703.45605,2.59595-.78003,5.97205-1.4209,3.15295-.60107,3.849.17285,5.1189-.28418,5.64905-2.03882,3.27002-21.38989.85303-32.14087-1.17603-5.21411-2.43994-8.77905-3.98303-8.81812-.953-.02295-1.64294,1.32007-2.55688,2.84595"/>
  <path class="cls-3" d="M124.88696,45.54837c-2.01709,1.73218.36194,7.37012.85193,8.53418.78003,1.85498,2.72998,6.4729,5.97205,6.53906,2.25598.05078,3.93799-2.13306,4.26697-2.56201,1.29199-1.677,1.68201-3.78223,1.42004-5.40308-.88599-5.55908-10.03809-9.22998-12.51099-7.10815"/>
  <path class="cls-4" d="M124.88696,45.54837c-2.01709,1.73218.36194,7.37012.85193,8.53418.78003,1.85498,2.72998,6.4729,5.97205,6.53906,2.25598.05078,3.93799-2.13306,4.26697-2.56201,1.29199-1.677,1.68201-3.78223,1.42004-5.40308-.88599-5.55908-10.03809-9.22998-12.51099-7.10815"/>
</svg>