<?xml version="1.0" encoding="UTF-8"?>
<svg id="_Слой_1" data-name="Слой 1" xmlns="http://www.w3.org/2000/svg" viewBox="0 0 227.23922 227.23931">
  <defs>
    <style>
      .cls-1 {
        stroke-width: .557px;
      }

      .cls-1, .cls-2 {
        fill: none;
        stroke: #f57d7f;
        stroke-miterlimit: 5.57;
      }

      .cls-2 {
        stroke-width: 5.57px;
      }

      .cls-3 {
        fill: #ffdae3;
        stroke-width: 0px;
      }
    </style>
  </defs>
  <path class="cls-2" d="M35.24804,35.24795c43.284-43.28394,113.4599-43.28394,156.74396,0,43.28296,43.2832,43.28296,113.46021,0,156.74414-43.28406,43.28296-113.45996,43.28296-156.74396,0-43.28406-43.28394-43.28406-113.46094,0-156.74414Z"/>
  <path class="cls-3" d="M50.18432,63.78677l8.94598,16.72314c.16699.31201.48999.52295.85797.573l20.00397,2.67993c.93506.12207,1.30896,1.18604.63501,1.79395l-14.47803,13.01807c-.26697.23901-.39001.59009-.32898.92993l3.41504,18.3772c.16199.85791-.81897,1.51489-1.65405,1.10791l-17.89294-8.67798c-.33398-.16211-.729-.16211-1.06403,0l-17.89197,8.67798c-.836.40698-1.81598-.25-1.65399-1.10791l3.41998-18.3772c.06104-.33984-.06097-.69092-.32898-.92993l-14.47198-13.01807c-.67902-.60791-.30603-1.67188.63495-1.79395l20.00403-2.67993c.37299-.05005.69098-.26709.85797-.573l8.94604-16.72314c.41699-.77979,1.62598-.77979,2.04401,0"/>
  <path class="cls-1" d="M50.18432,63.78677l8.94598,16.72314c.16699.31201.48999.52295.85797.573l20.00397,2.67993c.93506.12207,1.30896,1.18604.63501,1.79395l-14.47803,13.01807c-.26697.23901-.39001.59009-.32898.92993l3.41504,18.3772c.16199.85791-.81897,1.51489-1.65405,1.10791l-17.89294-8.67798c-.33398-.16211-.729-.16211-1.06403,0l-17.89197,8.67798c-.836.40698-1.81598-.25-1.65399-1.10791l3.41998-18.3772c.06104-.33984-.06097-.69092-.32898-.92993l-14.47198-13.01807c-.67902-.60791-.30603-1.67188.63495-1.79395l20.00403-2.67993c.37299-.05005.69098-.26709.85797-.573l8.94604-16.72314c.41699-.77979,1.62598-.77979,2.04401,0"/>
  <path class="cls-2" d="M50.18432,63.78677l8.94598,16.72314c.16699.31201.48999.52295.85797.573l20.00397,2.67993c.93506.12207,1.30896,1.18604.63501,1.79395l-14.47803,13.01807c-.26697.23901-.39001.59009-.32898.92993l3.41504,18.3772c.16199.85791-.81897,1.51489-1.65405,1.10791l-17.89294-8.67798c-.33398-.16211-.729-.16211-1.06403,0l-17.89197,8.67798c-.836.40698-1.81598-.25-1.65399-1.10791l3.41998-18.3772c.06104-.33984-.06097-.69092-.32898-.92993l-14.47198-13.01807c-.67902-.60791-.30603-1.67188.63495-1.79395l20.00403-2.67993c.37299-.05005.69098-.26709.85797-.573l8.94604-16.72314c.41699-.77979,1.62598-.77979,2.04401,0Z"/>
  <path class="cls-3" d="M73.82537,135.23355l8.94592,16.72314c.16699.31201.48999.52295.85803.573l20.00403,2.67993c.93591.12207,1.30896,1.18604.63501,1.79395l-14.47803,13.01807c-.26697.23901-.39001.59009-.32898.92993l3.41492,18.3772c.16199.85791-.81897,1.51489-1.65393,1.10791l-17.89307-8.67798c-.33398-.16211-.729-.16211-1.06396,0l-17.89197,8.67798c-.836.40698-1.81598-.25-1.65399-1.10791l3.41998-18.3772c.06104-.33984-.06097-.69092-.32898-.92993l-14.47198-13.01807c-.67902-.60791-.30603-1.67188.63495-1.79395l20.00403-2.67993c.37299-.05005.69098-.26709.85797-.573l8.94598-16.72314c.41699-.78491,1.62598-.78491,2.04407,0"/>
  <path class="cls-1" d="M73.82537,135.23355l8.94592,16.72314c.16699.31201.48999.52295.85803.573l20.00403,2.67993c.93591.12207,1.30896,1.18604.63501,1.79395l-14.47803,13.01807c-.26697.23901-.39001.59009-.32898.92993l3.41492,18.3772c.16199.85791-.81897,1.51489-1.65393,1.10791l-17.89307-8.67798c-.33398-.16211-.729-.16211-1.06396,0l-17.89197,8.67798c-.836.40698-1.81598-.25-1.65399-1.10791l3.41998-18.3772c.06104-.33984-.06097-.69092-.32898-.92993l-14.47198-13.01807c-.67902-.60791-.30603-1.67188.63495-1.79395l20.00403-2.67993c.37299-.05005.69098-.26709.85797-.573l8.94598-16.72314c.41699-.78491,1.62598-.78491,2.04407,0"/>
  <path class="cls-2" d="M73.82537,135.23355l8.94592,16.72314c.16699.31201.48999.52295.85803.573l20.00403,2.67993c.93591.12207,1.30896,1.18604.63501,1.79395l-14.47803,13.01807c-.26697.23901-.39001.59009-.32898.92993l3.41492,18.3772c.16199.85791-.81897,1.51489-1.65393,1.10791l-17.89307-8.67798c-.33398-.16211-.729-.16211-1.06396,0l-17.89197,8.67798c-.836.40698-1.81598-.25-1.65399-1.10791l3.41998-18.3772c.06104-.33984-.06097-.69092-.32898-.92993l-14.47198-13.01807c-.67902-.60791-.30603-1.67188.63495-1.79395l20.00403-2.67993c.37299-.05005.69098-.26709.85797-.573l8.94598-16.72314c.41699-.78491,1.62598-.78491,2.04407,0Z"/>
  <path class="cls-3" d="M154.71966,135.23355l8.94592,16.72314c.16699.31201.48999.52295.85803.573l20.00403,2.67993c.93494.12207,1.30896,1.18604.63501,1.79395l-14.47803,13.01807c-.26697.23901-.39001.59009-.32898.92993l3.41492,18.3772c.16199.85791-.81897,1.51489-1.65393,1.10791l-17.89307-8.67798c-.33398-.16211-.729-.16211-1.06396,0l-17.89197,8.67798c-.83606.40698-1.81604-.25-1.65405-1.10791l3.42004-18.3772c.06104-.33984-.06104-.69092-.32898-.92993l-14.47205-13.01807c-.67896-.60791-.30603-1.67188.63501-1.79395l20.00403-2.67993c.37292-.05005.69092-.26709.85791-.573l8.94604-16.72314c.41199-.78491,1.62097-.78491,2.04407,0"/>
  <path class="cls-1" d="M154.71966,135.23355l8.94592,16.72314c.16699.31201.48999.52295.85803.573l20.00403,2.67993c.93494.12207,1.30896,1.18604.63501,1.79395l-14.47803,13.01807c-.26697.23901-.39001.59009-.32898.92993l3.41492,18.3772c.16199.85791-.81897,1.51489-1.65393,1.10791l-17.89307-8.67798c-.33398-.16211-.729-.16211-1.06396,0l-17.89197,8.67798c-.83606.40698-1.81604-.25-1.65405-1.10791l3.42004-18.3772c.06104-.33984-.06104-.69092-.32898-.92993l-14.47205-13.01807c-.67896-.60791-.30603-1.67188.63501-1.79395l20.00403-2.67993c.37292-.05005.69092-.26709.85791-.573l8.94604-16.72314c.41199-.78491,1.62097-.78491,2.04407,0"/>
  <path class="cls-2" d="M154.71966,135.23355l8.94592,16.72314c.16699.31201.48999.52295.85803.573l20.00403,2.67993c.93494.12207,1.30896,1.18604.63501,1.79395l-14.47803,13.01807c-.26697.23901-.39001.59009-.32898.92993l3.41492,18.3772c.16199.85791-.81897,1.51489-1.65393,1.10791l-17.89307-8.67798c-.33398-.16211-.729-.16211-1.06396,0l-17.89197,8.67798c-.83606.40698-1.81604-.25-1.65405-1.10791l3.42004-18.3772c.06104-.33984-.06104-.69092-.32898-.92993l-14.47205-13.01807c-.67896-.60791-.30603-1.67188.63501-1.79395l20.00403-2.67993c.37292-.05005.69092-.26709.85791-.573l8.94604-16.72314c.41199-.78491,1.62097-.78491,2.04407,0Z"/>
  <path class="cls-3" d="M179.12396,66.73916l8.94592,16.72314c.16699.31104.48999.52295.85803.573l20.00293,2.67993c.93604.12207,1.31006,1.18604.63501,1.79297l-14.47693,13.01904c-.26807.23901-.39001.59009-.32898.92993l3.41492,18.38208c.16101.85791-.81897,1.51514-1.65491,1.10913l-17.89209-8.6792c-.33398-.16089-.72998-.16089-1.06396,0l-17.89197,8.6792c-.83606.40601-1.81604-.25122-1.65503-1.10913l3.42004-18.38208c.06201-.33984-.06104-.69092-.328-.92993l-14.47205-13.01904c-.68005-.60693-.30701-1.6709.63501-1.79297l20.00293-2.67993c.37402-.05005.69104-.26709.85803-.573l8.94604-16.72314c.41797-.78491,1.62695-.78491,2.04504,0"/>
  <path class="cls-1" d="M179.12396,66.73916l8.94592,16.72314c.16699.31104.48999.52295.85803.573l20.00293,2.67993c.93604.12207,1.31006,1.18604.63501,1.79297l-14.47693,13.01904c-.26807.23901-.39001.59009-.32898.92993l3.41492,18.38208c.16101.85791-.81897,1.51514-1.65491,1.10913l-17.89209-8.6792c-.33398-.16089-.72998-.16089-1.06396,0l-17.89197,8.6792c-.83606.40601-1.81604-.25122-1.65503-1.10913l3.42004-18.38208c.06201-.33984-.06104-.69092-.328-.92993l-14.47205-13.01904c-.68005-.60693-.30701-1.6709.63501-1.79297l20.00293-2.67993c.37402-.05005.69104-.26709.85803-.573l8.94604-16.72314c.41797-.78491,1.62695-.78491,2.04504,0"/>
  <path class="cls-2" d="M179.12396,66.73916l8.94592,16.72314c.16699.31104.48999.52295.85803.573l20.00293,2.67993c.93604.12207,1.31006,1.18604.63501,1.79297l-14.47693,13.01904c-.26807.23901-.39001.59009-.32898.92993l3.41492,18.38208c.16101.85791-.81897,1.51514-1.65491,1.10913l-17.89209-8.6792c-.33398-.16089-.72998-.16089-1.06396,0l-17.89197,8.6792c-.83606.40601-1.81604-.25122-1.65503-1.10913l3.42004-18.38208c.06201-.33984-.06104-.69092-.328-.92993l-14.47205-13.01904c-.68005-.60693-.30701-1.6709.63501-1.79297l20.00293-2.67993c.37402-.05005.69104-.26709.85803-.573l8.94604-16.72314c.41797-.78491,1.62695-.78491,2.04504,0Z"/>
  <path class="cls-3" d="M115.61505,14.0314l9.89294,18.48804c.18396.34619.54004.58008.953.63599l22.12,2.96313c1.03601.13892,1.448,1.31494.70203,1.98901l-16.00403,14.38794c-.29504.26709-.43506.6521-.36206,1.03101l3.7771,20.32104c.17798.9519-.90808,1.67603-1.83301,1.22485l-19.78101-9.5918c-.36707-.17798-.80798-.17798-1.17505,0l-19.78101,9.5918c-.92493.45117-2.01099-.27783-1.83301-1.22485l3.77698-20.32104c.073-.37891-.06689-.76392-.36194-1.03101l-16.00403-14.38794c-.74597-.67407-.33398-1.8501.70203-1.98901l22.11499-2.96313c.41199-.05591.76807-.2959.95203-.63599l9.89294-18.48804c.45203-.8689,1.78906-.8689,2.2511,0"/>
  <path class="cls-1" d="M115.61505,14.0314l9.89294,18.48804c.18396.34619.54004.58008.953.63599l22.12,2.96313c1.03601.13892,1.448,1.31494.70203,1.98901l-16.00403,14.38794c-.29504.26709-.43506.6521-.36206,1.03101l3.7771,20.32104c.17798.9519-.90808,1.67603-1.83301,1.22485l-19.78101-9.5918c-.36707-.17798-.80798-.17798-1.17505,0l-19.78101,9.5918c-.92493.45117-2.01099-.27783-1.83301-1.22485l3.77698-20.32104c.073-.37891-.06689-.76392-.36194-1.03101l-16.00403-14.38794c-.74597-.67407-.33398-1.8501.70203-1.98901l22.11499-2.96313c.41199-.05591.76807-.2959.95203-.63599l9.89294-18.48804c.45203-.8689,1.78906-.8689,2.2511,0"/>
  <path class="cls-2" d="M115.61505,14.0314l9.89294,18.48804c.18396.34619.54004.58008.953.63599l22.12,2.96313c1.03601.13892,1.448,1.31494.70203,1.98901l-16.00403,14.38794c-.29504.26709-.43506.6521-.36206,1.03101l3.7771,20.32104c.17798.9519-.90808,1.67603-1.83301,1.22485l-19.78101-9.5918c-.36707-.17798-.80798-.17798-1.17505,0l-19.78101,9.5918c-.92493.45117-2.01099-.27783-1.83301-1.22485l3.77698-20.32104c.073-.37891-.06689-.76392-.36194-1.03101l-16.00403-14.38794c-.74597-.67407-.33398-1.8501.70203-1.98901l22.11499-2.96313c.41199-.05591.76807-.2959.95203-.63599l9.89294-18.48804c.45203-.8689,1.78906-.8689,2.2511,0Z"/>
</svg>