<?xml version="1.0" encoding="UTF-8"?>
<svg id="_Слой_1" data-name="Слой 1" xmlns="http://www.w3.org/2000/svg" viewBox="0 0 227.53368 227.25774">
  <defs>
    <style>
      .cls-1 {
        fill: #fccd9a;
      }

      .cls-1, .cls-2, .cls-3, .cls-4, .cls-5, .cls-6 {
        stroke-width: 0px;
      }

      .cls-7, .cls-8, .cls-9, .cls-10, .cls-11, .cls-12, .cls-13, .cls-14 {
        fill: none;
        stroke-miterlimit: 5.57;
      }

      .cls-7, .cls-12 {
        stroke: #81aafa;
      }

      .cls-7, .cls-13, .cls-14 {
        stroke-width: 5.57px;
      }

      .cls-8 {
        stroke: #dbeeff;
      }

      .cls-8, .cls-9, .cls-10, .cls-11, .cls-12 {
        stroke-width: .557px;
      }

      .cls-2 {
        fill: #331013;
      }

      .cls-9 {
        stroke: #7b7575;
      }

      .cls-10 {
        stroke: #331013;
      }

      .cls-11 {
        stroke: #4c5cad;
      }

      .cls-3 {
        fill: #7b7575;
      }

      .cls-4 {
        fill: #81aafa;
      }

      .cls-5 {
        fill: #dbeeff;
      }

      .cls-13 {
        stroke: #f18faa;
      }

      .cls-14 {
        stroke: #f993aa;
      }

      .cls-6 {
        fill: #4c5cad;
      }
    </style>
  </defs>
  <path class="cls-14" d="M35.24813,35.24759c43.28296-43.28296,113.45996-43.28394,156.7439,0,43.28296,43.2832,43.28296,113.46021,0,156.74414-43.28394,43.28296-113.46094,43.28296-156.7439,0-43.28418-43.28394-43.28418-113.45996,0-156.74414Z"/>
  <path class="cls-1" d="M184.74472,170.4822H41.59457c-6.16089.05005-11.21289-4.87988-11.302-11.04077v-93.87305c.08911-6.16113,5.13599-11.09595,11.302-11.04614h143.15015c6.16089-.0498,11.21289,4.87915,11.30176,11.04614v93.87305c-.08887,6.16089-5.13477,11.09082-11.30176,11.04077"/>
  <path class="cls-13" d="M184.74472,170.4822H41.59457c-6.16089.05005-11.21289-4.87988-11.302-11.04077v-93.87305c.08911-6.16113,5.13599-11.09595,11.302-11.04614h143.15015c6.16089-.0498,11.21289,4.87915,11.30176,11.04614v93.87305c-.08887,6.15601-5.13477,11.09082-11.30176,11.04077Z"/>
  <line class="cls-13" x1="30.07504" y1="84.69705" x2="195.82992" y2="84.69705"/>
  <rect class="cls-2" x="107.33773" y="94.91848" width="13.44092" height="13.13501"/>
  <rect class="cls-10" x="107.33773" y="94.91848" width="13.44092" height="13.13501"/>
  <rect class="cls-2" x="107.33773" y="94.91848" width="13.44092" height="13.13501"/>
  <rect class="cls-10" x="107.33773" y="94.91848" width="13.44092" height="13.13501"/>
  <rect class="cls-3" x="136.68881" y="94.84646" width="13.44092" height="13.13501"/>
  <rect class="cls-9" x="136.68881" y="94.84646" width="13.44092" height="13.13501"/>
  <rect class="cls-3" x="136.68881" y="94.84646" width="13.44092" height="13.13501"/>
  <rect class="cls-9" x="136.68881" y="94.84646" width="13.44092" height="13.13501"/>
  <rect class="cls-3" x="166.03866" y="94.91848" width="13.44092" height="13.13501"/>
  <rect class="cls-9" x="166.03866" y="94.91848" width="13.44092" height="13.13501"/>
  <rect class="cls-3" x="166.03866" y="94.91848" width="13.44092" height="13.13501"/>
  <rect class="cls-9" x="166.03866" y="94.91848" width="13.44092" height="13.13501"/>
  <rect class="cls-3" x="46.42489" y="119.89651" width="13.44092" height="13.13501"/>
  <rect class="cls-9" x="46.42489" y="119.89651" width="13.44092" height="13.13501"/>
  <rect class="cls-3" x="46.42489" y="119.89651" width="13.44092" height="13.13501"/>
  <rect class="cls-9" x="46.42489" y="119.89651" width="13.44092" height="13.13501"/>
  <rect class="cls-3" x="77.10067" y="118.50955" width="13.44092" height="13.13501"/>
  <rect class="cls-9" x="77.10067" y="118.50955" width="13.44092" height="13.13501"/>
  <rect class="cls-3" x="77.10067" y="118.50955" width="13.44092" height="13.13501"/>
  <rect class="cls-9" x="77.10067" y="118.50955" width="13.44092" height="13.13501"/>
  <rect class="cls-3" x="107.77768" y="118.50955" width="13.44092" height="13.13501"/>
  <rect class="cls-9" x="107.77768" y="118.50955" width="13.44092" height="13.13501"/>
  <rect class="cls-3" x="107.77768" y="118.50955" width="13.44092" height="13.13501"/>
  <rect class="cls-9" x="107.77768" y="118.50955" width="13.44092" height="13.13501"/>
  <rect class="cls-3" x="136.68881" y="118.50955" width="13.44092" height="13.13501"/>
  <rect class="cls-9" x="136.68881" y="118.50955" width="13.44092" height="13.13501"/>
  <rect class="cls-3" x="136.68881" y="118.50955" width="13.44092" height="13.13501"/>
  <rect class="cls-9" x="136.68881" y="118.50955" width="13.44092" height="13.13501"/>
  <rect class="cls-3" x="166.03866" y="118.50955" width="13.44092" height="13.13501"/>
  <rect class="cls-9" x="166.03866" y="118.50955" width="13.44092" height="13.13501"/>
  <rect class="cls-3" x="166.03866" y="118.50955" width="13.44092" height="13.13501"/>
  <rect class="cls-9" x="166.03866" y="118.50955" width="13.44092" height="13.13501"/>
  <rect class="cls-3" x="46.42489" y="144.94754" width="13.44092" height="13.13501"/>
  <rect class="cls-9" x="46.42489" y="144.94754" width="13.44092" height="13.13501"/>
  <rect class="cls-3" x="46.42489" y="144.94754" width="13.44092" height="13.13501"/>
  <rect class="cls-9" x="46.42489" y="144.94754" width="13.44092" height="13.13501"/>
  <rect class="cls-3" x="77.10067" y="144.94754" width="13.44092" height="13.13501"/>
  <rect class="cls-9" x="77.10067" y="144.94754" width="13.44092" height="13.13501"/>
  <rect class="cls-3" x="77.10067" y="144.94754" width="13.44092" height="13.13501"/>
  <rect class="cls-9" x="77.10067" y="144.94754" width="13.44092" height="13.13501"/>
  <rect class="cls-3" x="107.77768" y="144.94754" width="13.44092" height="13.13501"/>
  <rect class="cls-9" x="107.77768" y="144.94754" width="13.44092" height="13.13501"/>
  <rect class="cls-3" x="107.77768" y="144.94754" width="13.44092" height="13.13501"/>
  <rect class="cls-9" x="107.77768" y="144.94754" width="13.44092" height="13.13501"/>
  <rect class="cls-3" x="136.90585" y="144.94754" width="13.44092" height="13.13501"/>
  <rect class="cls-9" x="136.90585" y="144.94754" width="13.44092" height="13.13501"/>
  <rect class="cls-3" x="136.90585" y="144.94754" width="13.44092" height="13.13501"/>
  <rect class="cls-9" x="136.90585" y="144.94754" width="13.44092" height="13.13501"/>
  <rect class="cls-3" x="166.03866" y="144.94754" width="13.44092" height="13.13501"/>
  <rect class="cls-9" x="166.03866" y="144.94754" width="13.44092" height="13.13501"/>
  <rect class="cls-3" x="166.03866" y="144.94754" width="13.44092" height="13.13501"/>
  <rect class="cls-9" x="166.03866" y="144.94754" width="13.44092" height="13.13501"/>
  <path class="cls-4" d="M172.81283,73.21072h-.11206c-2.67896-.00586-4.84595-2.17798-4.85718-4.85693v-23.41895c.00513-2.67896,2.17822-4.84595,4.85718-4.85693h.11206c2.67896.00586,4.84595,2.17798,4.85791,4.85693v23.41895c-.0061,2.67896-2.17896,4.84595-4.85791,4.85693"/>
  <path class="cls-12" d="M172.81283,73.21072h-.11206c-2.67896-.00586-4.84595-2.17798-4.85718-4.85693v-23.41895c.00513-2.67896,2.17822-4.84595,4.85718-4.85693h.11206c2.67896.00586,4.84595,2.17798,4.85791,4.85693v23.41895c-.0061,2.67896-2.17896,4.84595-4.85791,4.85693"/>
  <path class="cls-4" d="M172.81283,73.21072h-.11206c-2.67896-.00586-4.84595-2.17798-4.85718-4.85693v-23.41895c.00513-2.67896,2.17822-4.84595,4.85718-4.85693h.11206c2.67896.00586,4.84595,2.17798,4.85791,4.85693v23.41895c-.0061,2.67896-2.17896,4.84595-4.85791,4.85693"/>
  <path class="cls-12" d="M172.81283,73.21072h-.11206c-2.67896-.00586-4.84595-2.17798-4.85718-4.85693v-23.41895c.00513-2.67896,2.17822-4.84595,4.85718-4.85693h.11206c2.67896.00586,4.84595,2.17798,4.85791,4.85693v23.41895c-.0061,2.67896-2.17896,4.84595-4.85791,4.85693"/>
  <path class="cls-4" d="M172.81283,73.21072h-.11206c-2.67896-.00586-4.84595-2.17798-4.85718-4.85693v-23.41895c.00513-2.67896,2.17822-4.84595,4.85718-4.85693h.11206c2.67896.00586,4.84595,2.17798,4.85791,4.85693v23.41895c-.0061,2.67896-2.17896,4.84595-4.85791,4.85693"/>
  <path class="cls-12" d="M172.81283,73.21072h-.11206c-2.67896-.00586-4.84595-2.17798-4.85718-4.85693v-23.41895c.00513-2.67896,2.17822-4.84595,4.85718-4.85693h.11206c2.67896.00586,4.84595,2.17798,4.85791,4.85693v23.41895c-.0061,2.67896-2.17896,4.84595-4.85791,4.85693"/>
  <path class="cls-4" d="M172.70126,40.07766h.11182c2.67896,0,4.85718,2.17212,4.85718,4.85718v23.41895c0,2.67896-2.17212,4.85693-4.85718,4.85693h-.11182c-2.6792,0-4.85718-2.17188-4.85718-4.85693v-23.41895c0-2.68506,2.17798-4.85718,4.85718-4.85718"/>
  <rect class="cls-12" x="167.84408" y="40.07766" width="9.82617" height="33.13306" rx="4.85718" ry="4.85718"/>
  <path class="cls-4" d="M53.2037,72.13015h-.11206c-2.67896-.00586-4.84595-2.17798-4.85718-4.85693v-23.41895c.00513-2.67896,2.17822-4.84595,4.85718-4.85693h.11206c2.67896.00488,4.84595,2.17798,4.85693,4.85693v23.41895c-.01099,2.67896-2.18311,4.84595-4.85693,4.85693"/>
  <path class="cls-12" d="M53.2037,72.13015h-.11206c-2.67896-.00586-4.84595-2.17798-4.85718-4.85693v-23.41895c.00513-2.67896,2.17822-4.84595,4.85718-4.85693h.11206c2.67896.00488,4.84595,2.17798,4.85693,4.85693v23.41895c-.01099,2.67896-2.18311,4.84595-4.85693,4.85693"/>
  <path class="cls-4" d="M53.2037,72.13015h-.11206c-2.67896-.00586-4.84595-2.17798-4.85718-4.85693v-23.41895c.00513-2.67896,2.17822-4.84595,4.85718-4.85693h.11206c2.67896.00488,4.84595,2.17798,4.85693,4.85693v23.41895c-.01099,2.67896-2.18311,4.84595-4.85693,4.85693"/>
  <path class="cls-12" d="M53.2037,72.13015h-.11206c-2.67896-.00586-4.84595-2.17798-4.85718-4.85693v-23.41895c.00513-2.67896,2.17822-4.84595,4.85718-4.85693h.11206c2.67896.00488,4.84595,2.17798,4.85693,4.85693v23.41895c-.01099,2.67896-2.18311,4.84595-4.85693,4.85693"/>
  <path class="cls-4" d="M53.2037,72.13015h-.11206c-2.67896-.00586-4.84595-2.17798-4.85718-4.85693v-23.41895c.00513-2.67896,2.17822-4.84595,4.85718-4.85693h.11206c2.67896.00488,4.84595,2.17798,4.85693,4.85693v23.41895c-.01099,2.67896-2.18311,4.84595-4.85693,4.85693"/>
  <path class="cls-12" d="M53.2037,72.13015h-.11206c-2.67896-.00586-4.84595-2.17798-4.85718-4.85693v-23.41895c.00513-2.67896,2.17822-4.84595,4.85718-4.85693h.11206c2.67896.00488,4.84595,2.17798,4.85693,4.85693v23.41895c-.01099,2.67896-2.18311,4.84595-4.85693,4.85693"/>
  <path class="cls-4" d="M53.08676,38.99685h.11182c2.67896,0,4.85718,2.1731,4.85718,4.85718v23.41895c0,2.67896-2.17212,4.85693-4.85718,4.85693h-.11182c-2.6792,0-4.85815-2.17188-4.85815-4.85693v-23.41895c.0061-2.68408,2.17896-4.85718,4.85815-4.85718"/>
  <path class="cls-12" d="M53.08676,38.99685h.11182c2.67896,0,4.85718,2.1731,4.85718,4.85718v23.41895c0,2.67896-2.17212,4.85693-4.85718,4.85693h-.11182c-2.6792,0-4.85815-2.17188-4.85815-4.85693v-23.41895c.0061-2.68408,2.17896-4.85718,4.85815-4.85718Z"/>
  <path class="cls-7" d="M35.54257,35.26638c43.28394-43.28296,113.45996-43.28296,156.7439,0,43.28296,43.2832,43.28296,113.46021,0,156.74414-43.28394,43.28296-113.46094,43.28296-156.7439,0-43.28418-43.28394-43.28418-113.45996,0-156.74414Z"/>
  <path class="cls-5" d="M185.0455,170.49905H41.89535c-6.16089.05005-11.21289-4.87988-11.302-11.04077v-93.87305c.08911-6.16113,5.13599-11.09717,11.302-11.04614h143.15015c6.16089-.05103,11.21289,4.87915,11.30176,11.04614v93.87305c-.09399,6.16089-5.14087,11.09082-11.30176,11.04077"/>
  <path class="cls-8" d="M185.0455,170.49905H41.89535c-6.16089.05005-11.21289-4.87988-11.302-11.04077v-93.87305c.08911-6.16113,5.13599-11.09717,11.302-11.04614h143.15015c6.16089-.05103,11.21289,4.87915,11.30176,11.04614v93.87305c-.09399,6.16089-5.14087,11.09082-11.30176,11.04077"/>
  <path class="cls-7" d="M185.0455,170.49905H41.89535c-6.16089.05005-11.21289-4.87988-11.302-11.04077v-93.87305c.08911-6.16113,5.13599-11.09717,11.302-11.04614h143.15015c6.16089-.05103,11.21289,4.87915,11.30176,11.04614v93.87305c-.09399,6.16089-5.14087,11.09082-11.30176,11.04077Z"/>
  <line class="cls-7" x1="30.37582" y1="84.71365" x2="196.12582" y2="84.71365"/>
  <rect class="cls-2" x="107.63266" y="94.93557" width="13.44092" height="13.13501"/>
  <rect class="cls-10" x="107.63266" y="94.93557" width="13.44092" height="13.13501"/>
  <rect class="cls-4" x="107.63266" y="94.93557" width="13.44092" height="13.13501"/>
  <rect class="cls-12" x="107.63266" y="94.93557" width="13.44092" height="13.13501"/>
  <rect class="cls-12" x="107.63266" y="94.93557" width="13.44092" height="13.13501"/>
  <rect class="cls-3" x="136.98373" y="94.86258" width="13.44092" height="13.13501"/>
  <rect class="cls-9" x="136.98373" y="94.86258" width="13.44092" height="13.13501"/>
  <rect class="cls-6" x="136.98373" y="94.86258" width="13.44092" height="13.13501"/>
  <rect class="cls-11" x="136.98373" y="94.86258" width="13.44092" height="13.13501"/>
  <rect class="cls-6" x="136.98373" y="94.86258" width="13.44092" height="13.13501"/>
  <rect class="cls-11" x="136.98373" y="94.86258" width="13.44092" height="13.13501"/>
  <rect class="cls-3" x="166.3348" y="94.93557" width="13.44189" height="13.13501"/>
  <rect class="cls-9" x="166.3348" y="94.93557" width="13.44189" height="13.13501"/>
  <rect class="cls-3" x="166.3348" y="94.93557" width="13.44189" height="13.13501"/>
  <rect class="cls-6" x="166.3348" y="94.93557" width="13.44189" height="13.13501"/>
  <rect class="cls-11" x="166.3348" y="94.93557" width="13.44189" height="13.13501"/>
  <rect class="cls-3" x="46.71981" y="119.9136" width="13.44092" height="13.13501"/>
  <rect class="cls-9" x="46.71981" y="119.9136" width="13.44092" height="13.13501"/>
  <rect class="cls-6" x="46.71981" y="119.9136" width="13.44092" height="13.13501"/>
  <rect class="cls-11" x="46.71981" y="119.9136" width="13.44092" height="13.13501"/>
  <rect class="cls-6" x="46.71981" y="119.9136" width="13.44092" height="13.13501"/>
  <rect class="cls-11" x="46.71981" y="119.9136" width="13.44092" height="13.13501"/>
  <rect class="cls-3" x="77.39682" y="118.53152" width="13.44092" height="13.13501"/>
  <rect class="cls-9" x="77.39682" y="118.53152" width="13.44092" height="13.13501"/>
  <rect class="cls-6" x="77.39682" y="118.53152" width="13.44092" height="13.13501"/>
  <rect class="cls-11" x="77.39682" y="118.53152" width="13.44092" height="13.13501"/>
  <rect class="cls-6" x="77.39682" y="118.53152" width="13.44092" height="13.13501"/>
  <rect class="cls-11" x="77.39682" y="118.53152" width="13.44092" height="13.13501"/>
  <rect class="cls-3" x="108.07284" y="118.53152" width="13.44092" height="13.13501"/>
  <rect class="cls-9" x="108.07284" y="118.53152" width="13.44092" height="13.13501"/>
  <rect class="cls-6" x="108.07284" y="118.53152" width="13.44092" height="13.13501"/>
  <rect class="cls-11" x="108.07284" y="118.53152" width="13.44092" height="13.13501"/>
  <rect class="cls-6" x="108.07284" y="118.53152" width="13.44092" height="13.13501"/>
  <rect class="cls-11" x="108.07284" y="118.53152" width="13.44092" height="13.13501"/>
  <rect class="cls-3" x="136.98373" y="118.53152" width="13.44092" height="13.13501"/>
  <rect class="cls-9" x="136.98373" y="118.53152" width="13.44092" height="13.13501"/>
  <rect class="cls-3" x="136.98373" y="118.53152" width="13.44092" height="13.13501"/>
  <rect class="cls-6" x="136.98373" y="118.53152" width="13.44092" height="13.13501"/>
  <rect class="cls-11" x="136.98373" y="118.53152" width="13.44092" height="13.13501"/>
  <rect class="cls-3" x="166.3348" y="118.53152" width="13.44189" height="13.13501"/>
  <rect class="cls-9" x="166.3348" y="118.53152" width="13.44189" height="13.13501"/>
  <rect class="cls-6" x="166.3348" y="118.53152" width="13.44189" height="13.13501"/>
  <rect class="cls-11" x="166.3348" y="118.53152" width="13.44189" height="13.13501"/>
  <rect class="cls-6" x="166.3348" y="118.53152" width="13.44189" height="13.13501"/>
  <rect class="cls-11" x="166.3348" y="118.53152" width="13.44189" height="13.13501"/>
  <rect class="cls-3" x="46.71981" y="144.96365" width="13.44092" height="13.13501"/>
  <rect class="cls-9" x="46.71981" y="144.96365" width="13.44092" height="13.13501"/>
  <rect class="cls-6" x="46.71981" y="144.96365" width="13.44092" height="13.13501"/>
  <rect class="cls-11" x="46.71981" y="144.96365" width="13.44092" height="13.13501"/>
  <rect class="cls-6" x="46.71981" y="144.96365" width="13.44092" height="13.13501"/>
  <rect class="cls-11" x="46.71981" y="144.96365" width="13.44092" height="13.13501"/>
  <rect class="cls-3" x="77.39682" y="144.96365" width="13.44092" height="13.13501"/>
  <rect class="cls-9" x="77.39682" y="144.96365" width="13.44092" height="13.13501"/>
  <rect class="cls-6" x="77.39682" y="144.96365" width="13.44092" height="13.13501"/>
  <rect class="cls-11" x="77.39682" y="144.96365" width="13.44092" height="13.13501"/>
  <rect class="cls-6" x="77.39682" y="144.96365" width="13.44092" height="13.13501"/>
  <rect class="cls-11" x="77.39682" y="144.96365" width="13.44092" height="13.13501"/>
  <rect class="cls-3" x="108.07284" y="144.96365" width="13.44092" height="13.13501"/>
  <rect class="cls-9" x="108.07284" y="144.96365" width="13.44092" height="13.13501"/>
  <rect class="cls-6" x="108.07284" y="144.96365" width="13.44092" height="13.13501"/>
  <rect class="cls-11" x="108.07284" y="144.96365" width="13.44092" height="13.13501"/>
  <rect class="cls-6" x="108.07284" y="144.96365" width="13.44092" height="13.13501"/>
  <rect class="cls-11" x="108.07284" y="144.96365" width="13.44092" height="13.13501"/>
  <rect class="cls-3" x="137.20077" y="144.96365" width="13.44092" height="13.13501"/>
  <rect class="cls-9" x="137.20077" y="144.96365" width="13.44092" height="13.13501"/>
  <rect class="cls-6" x="137.20077" y="144.96365" width="13.44092" height="13.13501"/>
  <rect class="cls-11" x="137.20077" y="144.96365" width="13.44092" height="13.13501"/>
  <rect class="cls-6" x="137.20077" y="144.96365" width="13.44092" height="13.13501"/>
  <rect class="cls-11" x="137.20077" y="144.96365" width="13.44092" height="13.13501"/>
  <rect class="cls-3" x="166.3348" y="144.96365" width="13.44189" height="13.13501"/>
  <rect class="cls-9" x="166.3348" y="144.96365" width="13.44189" height="13.13501"/>
  <rect class="cls-6" x="166.3348" y="144.96365" width="13.44189" height="13.13501"/>
  <rect class="cls-11" x="166.3348" y="144.96365" width="13.44189" height="13.13501"/>
  <rect class="cls-6" x="166.3348" y="144.96365" width="13.44189" height="13.13501"/>
  <rect class="cls-11" x="166.3348" y="144.96365" width="13.44189" height="13.13501"/>
  <path class="cls-4" d="M173.11361,73.22757h-.11206c-2.67896-.00586-4.84595-2.17798-4.85718-4.85791v-23.41797c.00513-2.67896,2.17822-4.84595,4.85718-4.85693h.11206c2.67896.00488,4.84595,2.17798,4.85791,4.85693v23.41797c-.01196,2.67993-2.18408,4.85205-4.85791,4.85791"/>
  <path class="cls-12" d="M173.11361,73.22757h-.11206c-2.67896-.00586-4.84595-2.17798-4.85718-4.85791v-23.41797c.00513-2.67896,2.17822-4.84595,4.85718-4.85693h.11206c2.67896.00488,4.84595,2.17798,4.85791,4.85693v23.41797c-.01196,2.67993-2.18408,4.85205-4.85791,4.85791"/>
  <path class="cls-4" d="M173.11361,73.22757h-.11206c-2.67896-.00586-4.84595-2.17798-4.85718-4.85791v-23.41797c.00513-2.67896,2.17822-4.84595,4.85718-4.85693h.11206c2.67896.00488,4.84595,2.17798,4.85791,4.85693v23.41797c-.01196,2.67993-2.18408,4.85205-4.85791,4.85791"/>
  <path class="cls-12" d="M173.11361,73.22757h-.11206c-2.67896-.00586-4.84595-2.17798-4.85718-4.85791v-23.41797c.00513-2.67896,2.17822-4.84595,4.85718-4.85693h.11206c2.67896.00488,4.84595,2.17798,4.85791,4.85693v23.41797c-.01196,2.67993-2.18408,4.85205-4.85791,4.85791"/>
  <path class="cls-4" d="M173.11361,73.22757h-.11206c-2.67896-.00586-4.84595-2.17798-4.85718-4.85791v-23.41797c.00513-2.67896,2.17822-4.84595,4.85718-4.85693h.11206c2.67896.00488,4.84595,2.17798,4.85791,4.85693v23.41797c-.01196,2.67993-2.18408,4.85205-4.85791,4.85791"/>
  <path class="cls-12" d="M173.11361,73.22757h-.11206c-2.67896-.00586-4.84595-2.17798-4.85718-4.85791v-23.41797c.00513-2.67896,2.17822-4.84595,4.85718-4.85693h.11206c2.67896.00488,4.84595,2.17798,4.85791,4.85693v23.41797c-.01196,2.67993-2.18408,4.85205-4.85791,4.85791"/>
  <path class="cls-4" d="M172.99667,40.09427h.11182c2.67896,0,4.85718,2.1731,4.85718,4.85718v23.41895c0,2.67896-2.17212,4.85693-4.85718,4.85693h-.11182c-2.6792,0-4.85718-2.17188-4.85718-4.85693v-23.41895c.00513-2.67896,2.17798-4.85718,4.85718-4.85718"/>
  <path class="cls-12" d="M172.99667,40.09427h.11182c2.67896,0,4.85718,2.1731,4.85718,4.85718v23.41895c0,2.67896-2.17212,4.85693-4.85718,4.85693h-.11182c-2.6792,0-4.85718-2.17188-4.85718-4.85693v-23.41895c.00513-2.67896,2.17798-4.85718,4.85718-4.85718Z"/>
  <path class="cls-4" d="M53.49911,72.14676h-.11206c-2.67896-.00586-4.84595-2.17798-4.85718-4.85693v-23.41895c.00513-2.67896,2.17822-4.84595,4.85718-4.85693h.11206c2.67896.00586,4.84595,2.17798,4.85693,4.85693v23.41895c-.01099,2.67896-2.17798,4.84595-4.85693,4.85693"/>
  <path class="cls-12" d="M53.49911,72.14676h-.11206c-2.67896-.00586-4.84595-2.17798-4.85718-4.85693v-23.41895c.00513-2.67896,2.17822-4.84595,4.85718-4.85693h.11206c2.67896.00586,4.84595,2.17798,4.85693,4.85693v23.41895c-.01099,2.67896-2.17798,4.84595-4.85693,4.85693"/>
  <path class="cls-4" d="M53.49911,72.14676h-.11206c-2.67896-.00586-4.84595-2.17798-4.85718-4.85693v-23.41895c.00513-2.67896,2.17822-4.84595,4.85718-4.85693h.11206c2.67896.00586,4.84595,2.17798,4.85693,4.85693v23.41895c-.01099,2.67896-2.17798,4.84595-4.85693,4.85693"/>
  <path class="cls-12" d="M53.49911,72.14676h-.11206c-2.67896-.00586-4.84595-2.17798-4.85718-4.85693v-23.41895c.00513-2.67896,2.17822-4.84595,4.85718-4.85693h.11206c2.67896.00586,4.84595,2.17798,4.85693,4.85693v23.41895c-.01099,2.67896-2.17798,4.84595-4.85693,4.85693"/>
  <path class="cls-4" d="M53.49911,72.14676h-.11206c-2.67896-.00586-4.84595-2.17798-4.85718-4.85693v-23.41895c.00513-2.67896,2.17822-4.84595,4.85718-4.85693h.11206c2.67896.00586,4.84595,2.17798,4.85693,4.85693v23.41895c-.01099,2.67896-2.17798,4.84595-4.85693,4.85693"/>
  <path class="cls-12" d="M53.49911,72.14676h-.11206c-2.67896-.00586-4.84595-2.17798-4.85718-4.85693v-23.41895c.00513-2.67896,2.17822-4.84595,4.85718-4.85693h.11206c2.67896.00586,4.84595,2.17798,4.85693,4.85693v23.41895c-.01099,2.67896-2.17798,4.84595-4.85693,4.85693"/>
  <path class="cls-4" d="M53.38754,39.0137h.11182c2.67896,0,4.85718,2.17212,4.85718,4.85718v23.41895c0,2.67896-2.17212,4.85693-4.85718,4.85693h-.11182c-2.6792,0-4.85815-2.17188-4.85815-4.85693v-23.41895c.00098-2.68506,2.1731-4.85718,4.85815-4.85718"/>
  <path class="cls-12" d="M53.38754,39.0137h.11182c2.67896,0,4.85718,2.17212,4.85718,4.85718v23.41895c0,2.67896-2.17212,4.85693-4.85718,4.85693h-.11182c-2.6792,0-4.85815-2.17188-4.85815-4.85693v-23.41895c.00098-2.68506,2.1731-4.85718,4.85815-4.85718Z"/>
</svg>