<?xml version="1.0" encoding="UTF-8"?>
<svg id="_Слой_1" data-name="Слой 1" xmlns="http://www.w3.org/2000/svg" viewBox="0 0 227.24139 227.24114">
  <defs>
    <style>
      .cls-1 {
        stroke-width: 5.57px;
      }

      .cls-1, .cls-2, .cls-3 {
        fill: none;
        stroke-miterlimit: 5.57;
      }

      .cls-1, .cls-3 {
        stroke: #81aafa;
      }

      .cls-4 {
        fill: #331013;
      }

      .cls-4, .cls-5, .cls-6 {
        stroke-width: 0px;
      }

      .cls-2 {
        stroke: #331013;
      }

      .cls-2, .cls-3 {
        stroke-width: .557px;
      }

      .cls-5 {
        fill: #81aafa;
      }

      .cls-6 {
        fill: #dbeeff;
      }
    </style>
  </defs>
  <circle class="cls-1" cx="113.62106" cy="113.62088" r="110.83548" transform="translate(-47.06325 113.62101) rotate(-45)"/>
  <path class="cls-6" d="M184.93441,171.98251H41.78402c-6.16064.05005-11.21289-4.87988-11.30176-11.04077v-93.87305c.08887-6.16113,5.13574-11.09595,11.30176-11.04614h143.15039c6.16064-.0498,11.21289,4.87915,11.30273,11.04614v93.87305c-.08984,6.16089-5.14209,11.09082-11.30273,11.04077"/>
  <path class="cls-1" d="M184.93441,171.98251H41.78402c-6.16064.05005-11.21289-4.87988-11.30176-11.04077v-93.87305c.08887-6.16113,5.13574-11.09595,11.30176-11.04614h143.15039c6.16064-.0498,11.21289,4.87915,11.30273,11.04614v93.87305c-.08984,6.16089-5.14209,11.09082-11.30273,11.04077Z"/>
  <line class="cls-1" x1="30.66586" y1="85.22812" x2="196.42074" y2="85.22812"/>
  <rect class="cls-4" x="107.92807" y="95.44955" width="13.44189" height="13.13501"/>
  <rect class="cls-2" x="107.92807" y="95.44955" width="13.44189" height="13.13501"/>
  <rect class="cls-4" x="107.92807" y="95.44955" width="13.44189" height="13.13501"/>
  <rect class="cls-5" x="107.92807" y="95.44955" width="13.44189" height="13.13501"/>
  <rect class="cls-3" x="107.92807" y="95.44955" width="13.44189" height="13.13501"/>
  <rect class="cls-4" x="137.27914" y="95.37753" width="13.44092" height="13.13501"/>
  <rect class="cls-2" x="137.27914" y="95.37753" width="13.44092" height="13.13501"/>
  <rect class="cls-4" x="137.27914" y="95.37753" width="13.44092" height="13.13501"/>
  <rect class="cls-5" x="137.27914" y="95.37753" width="13.44092" height="13.13501"/>
  <rect class="cls-3" x="137.27914" y="95.37753" width="13.44092" height="13.13501"/>
  <rect class="cls-4" x="166.62436" y="95.44955" width="13.44092" height="13.13501"/>
  <rect class="cls-2" x="166.62436" y="95.44955" width="13.44092" height="13.13501"/>
  <rect class="cls-4" x="166.62436" y="95.44955" width="13.44092" height="13.13501"/>
  <rect class="cls-5" x="166.62436" y="95.44955" width="13.44092" height="13.13501"/>
  <rect class="cls-3" x="166.62436" y="95.44955" width="13.44092" height="13.13501"/>
  <rect class="cls-4" x="47.01498" y="120.42758" width="13.44092" height="13.13501"/>
  <rect class="cls-2" x="47.01498" y="120.42758" width="13.44092" height="13.13501"/>
  <rect class="cls-4" x="47.01498" y="120.42758" width="13.44092" height="13.13501"/>
  <rect class="cls-5" x="47.01498" y="120.42758" width="13.44092" height="13.13501"/>
  <rect class="cls-3" x="47.01498" y="120.42758" width="13.44092" height="13.13501"/>
  <rect class="cls-4" x="77.69223" y="119.04037" width="13.44092" height="13.13501"/>
  <rect class="cls-2" x="77.69223" y="119.04037" width="13.44092" height="13.13501"/>
  <rect class="cls-4" x="77.69223" y="119.04037" width="13.44092" height="13.13501"/>
  <rect class="cls-5" x="77.69223" y="119.04037" width="13.44092" height="13.13501"/>
  <rect class="cls-3" x="77.69223" y="119.04037" width="13.44092" height="13.13501"/>
  <rect class="cls-4" x="108.36801" y="119.04037" width="13.44092" height="13.13501"/>
  <rect class="cls-2" x="108.36801" y="119.04037" width="13.44092" height="13.13501"/>
  <rect class="cls-4" x="108.36801" y="119.04037" width="13.44092" height="13.13501"/>
  <rect class="cls-5" x="108.36801" y="119.04037" width="13.44092" height="13.13501"/>
  <rect class="cls-3" x="108.36801" y="119.04037" width="13.44092" height="13.13501"/>
  <rect class="cls-4" x="137.27914" y="119.04037" width="13.44092" height="13.13501"/>
  <rect class="cls-2" x="137.27914" y="119.04037" width="13.44092" height="13.13501"/>
  <rect class="cls-4" x="137.27914" y="119.04037" width="13.44092" height="13.13501"/>
  <rect class="cls-5" x="137.27914" y="119.04037" width="13.44092" height="13.13501"/>
  <rect class="cls-3" x="137.27914" y="119.04037" width="13.44092" height="13.13501"/>
  <rect class="cls-4" x="166.62436" y="119.04037" width="13.44092" height="13.13501"/>
  <rect class="cls-2" x="166.62436" y="119.04037" width="13.44092" height="13.13501"/>
  <rect class="cls-4" x="166.62436" y="119.04037" width="13.44092" height="13.13501"/>
  <rect class="cls-5" x="166.62436" y="119.04037" width="13.44092" height="13.13501"/>
  <rect class="cls-3" x="166.62436" y="119.04037" width="13.44092" height="13.13501"/>
  <rect class="cls-4" x="47.01498" y="145.47836" width="13.44092" height="13.13501"/>
  <rect class="cls-2" x="47.01498" y="145.47836" width="13.44092" height="13.13501"/>
  <rect class="cls-4" x="47.01498" y="145.47836" width="13.44092" height="13.13501"/>
  <rect class="cls-5" x="47.01498" y="145.47836" width="13.44092" height="13.13501"/>
  <rect class="cls-3" x="47.01498" y="145.47836" width="13.44092" height="13.13501"/>
  <rect class="cls-4" x="77.69223" y="145.47836" width="13.44092" height="13.13501"/>
  <rect class="cls-2" x="77.69223" y="145.47836" width="13.44092" height="13.13501"/>
  <rect class="cls-4" x="77.69223" y="145.47836" width="13.44092" height="13.13501"/>
  <rect class="cls-5" x="77.69223" y="145.47836" width="13.44092" height="13.13501"/>
  <rect class="cls-3" x="77.69223" y="145.47836" width="13.44092" height="13.13501"/>
  <rect class="cls-4" x="108.36801" y="145.47836" width="13.44092" height="13.13501"/>
  <rect class="cls-2" x="108.36801" y="145.47836" width="13.44092" height="13.13501"/>
  <rect class="cls-4" x="108.36801" y="145.47836" width="13.44092" height="13.13501"/>
  <rect class="cls-5" x="108.36801" y="145.47836" width="13.44092" height="13.13501"/>
  <rect class="cls-3" x="108.36801" y="145.47836" width="13.44092" height="13.13501"/>
  <rect class="cls-4" x="137.49594" y="145.47836" width="13.44092" height="13.13501"/>
  <rect class="cls-2" x="137.49594" y="145.47836" width="13.44092" height="13.13501"/>
  <rect class="cls-4" x="137.49594" y="145.47836" width="13.44092" height="13.13501"/>
  <rect class="cls-5" x="137.49594" y="145.47836" width="13.44092" height="13.13501"/>
  <rect class="cls-3" x="137.49594" y="145.47836" width="13.44092" height="13.13501"/>
  <rect class="cls-4" x="166.62436" y="145.47836" width="13.44092" height="13.13501"/>
  <rect class="cls-2" x="166.62436" y="145.47836" width="13.44092" height="13.13501"/>
  <rect class="cls-4" x="166.62436" y="145.47836" width="13.44092" height="13.13501"/>
  <rect class="cls-5" x="166.62436" y="145.47836" width="13.44092" height="13.13501"/>
  <rect class="cls-3" x="166.62436" y="145.47836" width="13.44092" height="13.13501"/>
  <path class="cls-5" d="M173.40365,73.74179h-.1123c-2.67871-.00586-4.8457-2.17798-4.85693-4.85693v-23.41895c.00488-2.67896,2.17822-4.84595,4.85693-4.85693h.1123c2.67871.00488,4.8457,2.17798,4.85693,4.85693v23.41895c-.01123,2.67896-2.17822,4.84595-4.85693,4.85693"/>
  <path class="cls-3" d="M173.40365,73.74179h-.1123c-2.67871-.00586-4.8457-2.17798-4.85693-4.85693v-23.41895c.00488-2.67896,2.17822-4.84595,4.85693-4.85693h.1123c2.67871.00488,4.8457,2.17798,4.85693,4.85693v23.41895c-.01123,2.67896-2.17822,4.84595-4.85693,4.85693"/>
  <path class="cls-5" d="M173.40365,73.74179h-.1123c-2.67871-.00586-4.8457-2.17798-4.85693-4.85693v-23.41895c.00488-2.67896,2.17822-4.84595,4.85693-4.85693h.1123c2.67871.00488,4.8457,2.17798,4.85693,4.85693v23.41895c-.01123,2.67896-2.17822,4.84595-4.85693,4.85693"/>
  <path class="cls-3" d="M173.40365,73.74179h-.1123c-2.67871-.00586-4.8457-2.17798-4.85693-4.85693v-23.41895c.00488-2.67896,2.17822-4.84595,4.85693-4.85693h.1123c2.67871.00488,4.8457,2.17798,4.85693,4.85693v23.41895c-.01123,2.67896-2.17822,4.84595-4.85693,4.85693"/>
  <path class="cls-5" d="M173.40365,73.74179h-.1123c-2.67871-.00586-4.8457-2.17798-4.85693-4.85693v-23.41895c.00488-2.67896,2.17822-4.84595,4.85693-4.85693h.1123c2.67871.00488,4.8457,2.17798,4.85693,4.85693v23.41895c-.01123,2.67896-2.17822,4.84595-4.85693,4.85693"/>
  <path class="cls-3" d="M173.40365,73.74179h-.1123c-2.67871-.00586-4.8457-2.17798-4.85693-4.85693v-23.41895c.00488-2.67896,2.17822-4.84595,4.85693-4.85693h.1123c2.67871.00488,4.8457,2.17798,4.85693,4.85693v23.41895c-.01123,2.67896-2.17822,4.84595-4.85693,4.85693"/>
  <path class="cls-5" d="M173.29232,40.60849h.11084c2.67969,0,4.85791,2.1731,4.85791,4.85718v23.41895c0,2.67896-2.17285,4.85693-4.85791,4.85693h-.11084c-2.68018,0-4.85742-2.17188-4.85742-4.85693v-23.41895c0-2.68408,2.17725-4.85718,4.85742-4.85718"/>
  <rect class="cls-3" x="168.4349" y="40.60849" width="9.82617" height="33.13306" rx="4.85718" ry="4.85718"/>
  <path class="cls-5" d="M53.79477,72.65536h-.1123c-2.67871-.00488-4.8457-2.17798-4.85693-4.85693v-23.41895c.00488-2.67896,2.17822-4.84595,4.85693-4.85693h.1123c2.67871.00586,4.8457,2.17798,4.85693,4.85693v23.41895c-.01123,2.68506-2.18408,4.85205-4.85693,4.85693"/>
  <path class="cls-3" d="M53.79477,72.65536h-.1123c-2.67871-.00488-4.8457-2.17798-4.85693-4.85693v-23.41895c.00488-2.67896,2.17822-4.84595,4.85693-4.85693h.1123c2.67871.00586,4.8457,2.17798,4.85693,4.85693v23.41895c-.01123,2.68506-2.18408,4.85205-4.85693,4.85693"/>
  <path class="cls-5" d="M53.79477,72.65536h-.1123c-2.67871-.00488-4.8457-2.17798-4.85693-4.85693v-23.41895c.00488-2.67896,2.17822-4.84595,4.85693-4.85693h.1123c2.67871.00586,4.8457,2.17798,4.85693,4.85693v23.41895c-.01123,2.68506-2.18408,4.85205-4.85693,4.85693"/>
  <path class="cls-3" d="M53.79477,72.65536h-.1123c-2.67871-.00488-4.8457-2.17798-4.85693-4.85693v-23.41895c.00488-2.67896,2.17822-4.84595,4.85693-4.85693h.1123c2.67871.00586,4.8457,2.17798,4.85693,4.85693v23.41895c-.01123,2.68506-2.18408,4.85205-4.85693,4.85693"/>
  <path class="cls-5" d="M53.79477,72.65536h-.1123c-2.67871-.00488-4.8457-2.17798-4.85693-4.85693v-23.41895c.00488-2.67896,2.17822-4.84595,4.85693-4.85693h.1123c2.67871.00586,4.8457,2.17798,4.85693,4.85693v23.41895c-.01123,2.68506-2.18408,4.85205-4.85693,4.85693"/>
  <path class="cls-3" d="M53.79477,72.65536h-.1123c-2.67871-.00488-4.8457-2.17798-4.85693-4.85693v-23.41895c.00488-2.67896,2.17822-4.84595,4.85693-4.85693h.1123c2.67871.00586,4.8457,2.17798,4.85693,4.85693v23.41895c-.01123,2.68506-2.18408,4.85205-4.85693,4.85693"/>
  <path class="cls-5" d="M53.67758,39.52792h.11182c2.67871,0,4.85693,2.17212,4.85693,4.85718v23.41895c0,2.67896-2.17188,4.85693-4.85693,4.85693h-.11182c-2.6792,0-4.85742-2.17188-4.85742-4.85693v-23.41895c.00537-2.68506,2.17822-4.85718,4.85742-4.85718"/>
  <path class="cls-3" d="M53.67758,39.52792h.11182c2.67871,0,4.85693,2.17212,4.85693,4.85718v23.41895c0,2.67896-2.17188,4.85693-4.85693,4.85693h-.11182c-2.6792,0-4.85742-2.17188-4.85742-4.85693v-23.41895c.00537-2.68506,2.17822-4.85718,4.85742-4.85718Z"/>
</svg>