<?xml version="1.0" encoding="UTF-8"?>
<svg id="_Слой_1" data-name="Слой 1" xmlns="http://www.w3.org/2000/svg" viewBox="0 0 227.24041 227.24102">
  <defs>
    <style>
      .cls-1 {
        fill: #ffd03c;
      }

      .cls-1, .cls-2 {
        stroke-width: 0px;
      }

      .cls-3 {
        fill: none;
        stroke: #aac419;
        stroke-miterlimit: 5.57;
        stroke-width: 5.57px;
      }

      .cls-2 {
        fill: #aac419;
      }
    </style>
  </defs>
  <circle class="cls-3" cx="113.62033" cy="113.62085" r="110.83519" transform="translate(-47.06345 113.62048) rotate(-45)"/>
  <path class="cls-1" d="M166.54525,169.43112H58.15512c-9.21924,0-16.68896-7.46997-16.68896-16.68896v-70.93396c0-9.21997,7.4751-16.68896,16.68896-16.68896h108.39014c9.21875,0,16.68896,7.46997,16.68896,16.68896v70.93396c0,9.21301-7.47607,16.68896-16.68896,16.68896"/>
  <rect class="cls-3" x="41.46615" y="65.11923" width="141.76807" height="104.31189" rx="16.68896" ry="16.68896"/>
  <line class="cls-3" x1="56.03305" y1="77.72445" x2="56.03305" y2="124.65561"/>
  <line class="cls-3" x1="168.66732" y1="77.72445" x2="168.66732" y2="124.65561"/>
  <line class="cls-3" x1="56.03305" y1="121.86483" x2="168.66684" y2="121.86483"/>
  <rect class="cls-2" x="102.27279" y="121.86508" width="22.68896" height="12.63403"/>
  <rect class="cls-3" x="102.27279" y="121.86508" width="22.68896" height="12.63403"/>
  <rect class="cls-3" x="94.35727" y="50.02865" width="35.98535" height="15.08984" rx="3.45898" ry="3.45898"/>
</svg>