<?xml version="1.0" encoding="UTF-8"?>
<svg id="_Слой_1" data-name="Слой 1" xmlns="http://www.w3.org/2000/svg" viewBox="0 0 227.23919 227.23882">
  <defs>
    <style>
      .cls-1 {
        fill: none;
        stroke: #81aafa;
        stroke-miterlimit: 5.57;
        stroke-width: 5.57px;
      }

      .cls-2 {
        fill: #dbeeff;
      }

      .cls-2, .cls-3 {
        stroke-width: 0px;
      }

      .cls-3 {
        fill: #a6daf0;
      }
    </style>
  </defs>
  <path class="cls-1" d="M35.24813,35.24759c43.28271-43.28296,113.45996-43.28394,156.74365,0,43.2832,43.2832,43.2832,113.46021,0,156.74414-43.28369,43.28296-113.45996,43.28296-156.74365-.00098-43.28418-43.28296-43.28418-113.45996,0-156.74316Z"/>
  <path class="cls-2" d="M48.48544,123.7532c0,32.2312,26.85498,58.31201,60.03857,58.31201"/>
  <path class="cls-1" d="M48.48544,123.7532c0,32.2312,26.85498,58.31201,60.03857,58.31201"/>
  <path class="cls-3" d="M108.51815,182.07034c0-32.23096-26.85547-58.31177-60.03906-58.31177"/>
  <path class="cls-2" d="M108.51815,182.07034c0-32.23096-26.85547-58.31177-60.03906-58.31177"/>
  <path class="cls-1" d="M108.51815,182.07034c0-32.23096-26.85547-58.31177-60.03906-58.31177"/>
  <path class="cls-2" d="M169.67099,123.7532c0,32.2312-26.85547,58.31201-60.03906,58.31201"/>
  <path class="cls-1" d="M169.67099,123.7532c0,32.2312-26.85547,58.31201-60.03906,58.31201"/>
  <path class="cls-3" d="M109.63778,182.07034c0-32.23096,26.85498-58.31177,60.03857-58.31177"/>
  <path class="cls-2" d="M109.63778,182.07034c0-32.23096,26.85498-58.31177,60.03857-58.31177"/>
  <path class="cls-1" d="M109.63778,182.07034c0-32.23096,26.85498-58.31177,60.03857-58.31177"/>
  <path class="cls-2" d="M158.61288,74.35989c0,27.30615-21.7583,49.39307-48.6582,49.39307"/>
  <path class="cls-1" d="M158.61288,74.35989c0,27.30615-21.7583,49.39307-48.6582,49.39307"/>
  <path class="cls-2" d="M109.9498,123.7532c0-27.30078,21.75781-49.39282,48.65771-49.39282"/>
  <path class="cls-1" d="M109.9498,123.7532c0-27.30078,21.75781-49.39282,48.65771-49.39282"/>
  <path class="cls-2" d="M59.86044,74.35989c0,27.30615,21.75781,49.39307,48.65771,49.39307"/>
  <path class="cls-1" d="M59.86044,74.35989c0,27.30615,21.75781,49.39307,48.65771,49.39307"/>
  <path class="cls-3" d="M108.51815,123.7532c0-27.30078-21.7583-49.39282-48.6582-49.39282"/>
  <path class="cls-2" d="M108.51815,123.7532c0-27.30078-21.7583-49.39282-48.6582-49.39282"/>
  <path class="cls-1" d="M108.51815,123.7532c0-27.30078-21.7583-49.39282-48.6582-49.39282"/>
  <path class="cls-3" d="M111.77694,23.39016c15.92578,17.15112,14.96191,41.23804-2.13916,53.85522"/>
  <path class="cls-2" d="M111.77694,23.39016c15.92578,17.15112,14.96191,41.23804-2.13916,53.85522"/>
  <path class="cls-1" d="M111.77694,23.39016c15.92578,17.15112,14.96191,41.23804-2.13916,53.85522"/>
  <path class="cls-3" d="M109.63778,77.24539c-15.92627-17.15088-14.96338-41.23779,2.13867-53.85498"/>
  <path class="cls-2" d="M109.63778,77.24539c-15.92627-17.15088-14.96338-41.23779,2.13867-53.85498"/>
  <path class="cls-1" d="M109.63778,77.24539c-15.92627-17.15088-14.96338-41.23779,2.13867-53.85498"/>
  <line class="cls-1" x1="109.63778" y1="77.24539" x2="109.63778" y2="200.8096"/>
</svg>