<?xml version="1.0" encoding="UTF-8"?>
<svg id="_Слой_1" data-name="Слой 1" xmlns="http://www.w3.org/2000/svg" viewBox="0 0 227.23919 227.23855">
  <defs>
    <style>
      .cls-1 {
        fill: #331013;
      }

      .cls-1, .cls-2, .cls-3, .cls-4, .cls-5, .cls-6 {
        stroke-width: 0px;
      }

      .cls-2 {
        fill: #b8e87c;
      }

      .cls-7 {
        stroke: #7b7575;
      }

      .cls-7, .cls-8, .cls-9, .cls-10, .cls-11, .cls-12 {
        fill: none;
        stroke-miterlimit: 5.57;
      }

      .cls-7, .cls-8, .cls-9, .cls-10, .cls-12 {
        stroke-width: .557px;
      }

      .cls-8 {
        stroke: #b8e87c;
      }

      .cls-9 {
        stroke: #331013;
      }

      .cls-3 {
        fill: #7b7575;
      }

      .cls-10, .cls-11 {
        stroke: #aac419;
      }

      .cls-4 {
        fill: #ffd03c;
      }

      .cls-5 {
        fill: #718c09;
      }

      .cls-11 {
        stroke-width: 5.57px;
      }

      .cls-6 {
        fill: #aac419;
      }

      .cls-12 {
        stroke: #718c09;
      }
    </style>
  </defs>
  <path class="cls-11" d="M35.24813,35.24722c43.28394-43.28296,113.45996-43.28296,156.74365,0,43.2832,43.28418,43.2832,113.46008,0,156.74402-43.28369,43.28308-113.46069,43.28308-156.74365,0-43.28418-43.28394-43.28418-113.45984,0-156.74402Z"/>
  <path class="cls-4" d="M185.15731,173.60208H42.00717c-6.16089.05005-11.21289-4.87988-11.302-11.04089v-93.87305c.08911-6.16089,5.13599-11.09692,11.302-11.0459h143.15015c6.16064-.05103,11.21289,4.87891,11.30176,11.0459v93.87305c-.09424,6.15601-5.14111,11.09094-11.30176,11.04089"/>
  <path class="cls-8" d="M185.15731,173.60208H42.00717c-6.16089.05005-11.21289-4.87988-11.302-11.04089v-93.87305c.08911-6.16089,5.13599-11.09692,11.302-11.0459h143.15015c6.16064-.05103,11.21289,4.87891,11.30176,11.0459v93.87305c-.09424,6.15601-5.14111,11.09094-11.30176,11.04089"/>
  <path class="cls-11" d="M185.15731,173.60208H42.00717c-6.16089.05005-11.21289-4.87988-11.302-11.04089v-93.87305c.08911-6.16089,5.13599-11.09692,11.302-11.0459h143.15015c6.16064-.05103,11.21289,4.87891,11.30176,11.0459v93.87305c-.09424,6.15601-5.14111,11.09094-11.30176,11.04089Z"/>
  <line class="cls-11" x1="31.07235" y1="87.36001" x2="196.82235" y2="87.36001"/>
  <rect class="cls-1" x="108.32895" y="97.58194" width="13.44092" height="13.13501"/>
  <rect class="cls-9" x="108.32895" y="97.58194" width="13.44092" height="13.13501"/>
  <rect class="cls-1" x="108.32895" y="97.58194" width="13.44092" height="13.13501"/>
  <rect class="cls-6" x="108.32895" y="97.58194" width="13.44092" height="13.13501"/>
  <rect class="cls-10" x="108.32895" y="97.58194" width="13.44092" height="13.13501"/>
  <rect class="cls-1" x="137.67978" y="97.50991" width="13.44092" height="13.13501"/>
  <rect class="cls-9" x="137.67978" y="97.50991" width="13.44092" height="13.13501"/>
  <rect class="cls-1" x="137.67978" y="97.50991" width="13.44092" height="13.13501"/>
  <rect class="cls-6" x="137.67978" y="97.50991" width="13.44092" height="13.13501"/>
  <rect class="cls-10" x="137.67978" y="97.50991" width="13.44092" height="13.13501"/>
  <rect class="cls-1" x="167.03085" y="97.58194" width="13.44092" height="13.13501"/>
  <rect class="cls-9" x="167.03085" y="97.58194" width="13.44092" height="13.13501"/>
  <rect class="cls-1" x="167.03085" y="97.58194" width="13.44092" height="13.13501"/>
  <rect class="cls-6" x="167.03085" y="97.58194" width="13.44092" height="13.13501"/>
  <rect class="cls-10" x="167.03085" y="97.58194" width="13.44092" height="13.13501"/>
  <rect class="cls-1" x="47.41586" y="122.55972" width="13.44092" height="13.13501"/>
  <rect class="cls-9" x="47.41586" y="122.55972" width="13.44092" height="13.13501"/>
  <rect class="cls-1" x="47.41586" y="122.55972" width="13.44092" height="13.13501"/>
  <rect class="cls-6" x="47.41586" y="122.55972" width="13.44092" height="13.13501"/>
  <rect class="cls-10" x="47.41586" y="122.55972" width="13.44092" height="13.13501"/>
  <rect class="cls-1" x="78.09286" y="121.17276" width="13.44189" height="13.13501"/>
  <rect class="cls-9" x="78.09286" y="121.17276" width="13.44189" height="13.13501"/>
  <rect class="cls-1" x="78.09286" y="121.17276" width="13.44189" height="13.13501"/>
  <rect class="cls-6" x="78.09286" y="121.17276" width="13.44189" height="13.13501"/>
  <rect class="cls-10" x="78.09286" y="121.17276" width="13.44189" height="13.13501"/>
  <rect class="cls-1" x="108.76889" y="121.17276" width="13.44189" height="13.13501"/>
  <rect class="cls-9" x="108.76889" y="121.17276" width="13.44189" height="13.13501"/>
  <rect class="cls-1" x="108.76889" y="121.17276" width="13.44189" height="13.13501"/>
  <rect class="cls-6" x="108.76889" y="121.17276" width="13.44189" height="13.13501"/>
  <rect class="cls-10" x="108.76889" y="121.17276" width="13.44189" height="13.13501"/>
  <rect class="cls-1" x="137.67978" y="121.17276" width="13.44092" height="13.13501"/>
  <rect class="cls-9" x="137.67978" y="121.17276" width="13.44092" height="13.13501"/>
  <rect class="cls-1" x="137.67978" y="121.17276" width="13.44092" height="13.13501"/>
  <rect class="cls-6" x="137.67978" y="121.17276" width="13.44092" height="13.13501"/>
  <rect class="cls-10" x="137.67978" y="121.17276" width="13.44092" height="13.13501"/>
  <rect class="cls-3" x="167.03085" y="121.17276" width="13.44092" height="13.13501"/>
  <rect class="cls-7" x="167.03085" y="121.17276" width="13.44092" height="13.13501"/>
  <rect class="cls-3" x="167.03085" y="121.17276" width="13.44092" height="13.13501"/>
  <rect class="cls-5" x="167.03085" y="121.17276" width="13.44092" height="13.13501"/>
  <rect class="cls-12" x="167.03085" y="121.17276" width="13.44092" height="13.13501"/>
  <rect class="cls-3" x="47.41586" y="147.60989" width="13.44092" height="13.13501"/>
  <rect class="cls-7" x="47.41586" y="147.60989" width="13.44092" height="13.13501"/>
  <rect class="cls-3" x="47.41586" y="147.60989" width="13.44092" height="13.13501"/>
  <rect class="cls-5" x="47.41586" y="147.60989" width="13.44092" height="13.13501"/>
  <rect class="cls-12" x="47.41586" y="147.60989" width="13.44092" height="13.13501"/>
  <rect class="cls-3" x="78.09286" y="147.60989" width="13.44189" height="13.13501"/>
  <rect class="cls-7" x="78.09286" y="147.60989" width="13.44189" height="13.13501"/>
  <rect class="cls-3" x="78.09286" y="147.60989" width="13.44189" height="13.13501"/>
  <rect class="cls-5" x="78.09286" y="147.60989" width="13.44189" height="13.13501"/>
  <rect class="cls-12" x="78.09286" y="147.60989" width="13.44189" height="13.13501"/>
  <rect class="cls-3" x="108.76889" y="147.60989" width="13.44189" height="13.13501"/>
  <rect class="cls-7" x="108.76889" y="147.60989" width="13.44189" height="13.13501"/>
  <rect class="cls-3" x="108.76889" y="147.60989" width="13.44189" height="13.13501"/>
  <rect class="cls-5" x="108.76889" y="147.60989" width="13.44189" height="13.13501"/>
  <rect class="cls-12" x="108.76889" y="147.60989" width="13.44189" height="13.13501"/>
  <rect class="cls-3" x="137.89706" y="147.60989" width="13.44092" height="13.13501"/>
  <rect class="cls-7" x="137.89706" y="147.60989" width="13.44092" height="13.13501"/>
  <rect class="cls-3" x="137.89706" y="147.60989" width="13.44092" height="13.13501"/>
  <rect class="cls-5" x="137.89706" y="147.60989" width="13.44092" height="13.13501"/>
  <rect class="cls-12" x="137.89706" y="147.60989" width="13.44092" height="13.13501"/>
  <rect class="cls-3" x="167.03085" y="147.60989" width="13.44092" height="13.13501"/>
  <rect class="cls-7" x="167.03085" y="147.60989" width="13.44092" height="13.13501"/>
  <rect class="cls-3" x="167.03085" y="147.60989" width="13.44092" height="13.13501"/>
  <rect class="cls-5" x="167.03085" y="147.60989" width="13.44092" height="13.13501"/>
  <rect class="cls-12" x="167.03085" y="147.60989" width="13.44092" height="13.13501"/>
  <path class="cls-2" d="M173.81015,75.87393h-.11133c-2.67969-.00586-4.84668-2.17798-4.85791-4.85791v-23.41797c.00488-2.67896,2.17822-4.84595,4.85791-4.85693h.11133c2.67871.00488,4.8457,2.17798,4.85693,4.85693v23.41797c-.01123,2.67993-2.18311,4.84692-4.85693,4.85791"/>
  <path class="cls-8" d="M173.81015,75.87393h-.11133c-2.67969-.00586-4.84668-2.17798-4.85791-4.85791v-23.41797c.00488-2.67896,2.17822-4.84595,4.85791-4.85693h.11133c2.67871.00488,4.8457,2.17798,4.85693,4.85693v23.41797c-.01123,2.67993-2.18311,4.84692-4.85693,4.85791"/>
  <path class="cls-6" d="M173.81015,75.87393h-.11133c-2.67969-.00586-4.84668-2.17798-4.85791-4.85791v-23.41797c.00488-2.67896,2.17822-4.84595,4.85791-4.85693h.11133c2.67871.00488,4.8457,2.17798,4.85693,4.85693v23.41797c-.01123,2.67993-2.18311,4.84692-4.85693,4.85791"/>
  <path class="cls-10" d="M173.81015,75.87393h-.11133c-2.67969-.00586-4.84668-2.17798-4.85791-4.85791v-23.41797c.00488-2.67896,2.17822-4.84595,4.85791-4.85693h.11133c2.67871.00488,4.8457,2.17798,4.85693,4.85693v23.41797c-.01123,2.67993-2.18311,4.84692-4.85693,4.85791"/>
  <path class="cls-2" d="M54.1954,74.79312h-.11108c-2.67993-.00586-4.84692-2.17798-4.85815-4.85693v-23.41895c.00513-2.67896,2.17822-4.84595,4.85815-4.85693h.11108c2.67896.00586,4.84595,2.17798,4.85791,4.85693v23.41895c-.01196,2.67896-2.17896,4.84595-4.85791,4.85693"/>
  <path class="cls-8" d="M54.1954,74.79312h-.11108c-2.67993-.00586-4.84692-2.17798-4.85815-4.85693v-23.41895c.00513-2.67896,2.17822-4.84595,4.85815-4.85693h.11108c2.67896.00586,4.84595,2.17798,4.85791,4.85693v23.41895c-.01196,2.67896-2.17896,4.84595-4.85791,4.85693"/>
  <path class="cls-6" d="M54.1954,74.79312h-.11108c-2.67993-.00586-4.84692-2.17798-4.85815-4.85693v-23.41895c.00513-2.67896,2.17822-4.84595,4.85815-4.85693h.11108c2.67896.00586,4.84595,2.17798,4.85791,4.85693v23.41895c-.01196,2.67896-2.17896,4.84595-4.85791,4.85693"/>
  <path class="cls-10" d="M54.1954,74.79312h-.11108c-2.67993-.00586-4.84692-2.17798-4.85815-4.85693v-23.41895c.00513-2.67896,2.17822-4.84595,4.85815-4.85693h.11108c2.67896.00586,4.84595,2.17798,4.85791,4.85693v23.41895c-.01196,2.67896-2.17896,4.84595-4.85791,4.85693"/>
</svg>