<?xml version="1.0" encoding="UTF-8"?>
<svg id="_Слой_1" data-name="Слой 1" xmlns="http://www.w3.org/2000/svg" viewBox="0 0 227.24188 227.24114">
  <defs>
    <style>
      .cls-1 {
        stroke-width: 5.967px;
      }

      .cls-1, .cls-2, .cls-3, .cls-4, .cls-5, .cls-6, .cls-7, .cls-8, .cls-9 {
        fill: none;
        stroke: #ee7e7d;
      }

      .cls-1, .cls-2, .cls-3, .cls-5, .cls-6, .cls-7, .cls-8, .cls-9 {
        stroke-miterlimit: 5.57;
      }

      .cls-2 {
        stroke-width: 6.728px;
      }

      .cls-3 {
        stroke-width: 6.105px;
      }

      .cls-4 {
        stroke-miterlimit: 10;
        stroke-width: 1.239px;
      }

      .cls-5 {
        stroke-width: 6.146px;
      }

      .cls-6 {
        stroke-width: 5.57px;
      }

      .cls-7 {
        stroke-width: 4.543px;
      }

      .cls-10 {
        fill: #ee7e7d;
        font-family: ArialMT, Arial;
        font-size: 35.4431px;
      }

      .cls-8 {
        stroke-width: 4.541px;
      }

      .cls-11 {
        fill: #ffdae3;
        stroke-width: 0px;
      }

      .cls-9 {
        stroke-width: 7.023px;
      }
    </style>
  </defs>
  <path class="cls-6" d="M113.62191,2.785c61.21289,0,110.83496,49.62305,110.83496,110.83618s-49.62207,110.83496-110.83496,110.83496S2.785,174.8331,2.785,113.62118,52.40805,2.785,113.62191,2.785Z"/>
  <path class="cls-11" d="M165.87582,102.76693c0,32.3772-26.24609,58.62402-58.62402,58.62402s-58.62402-26.24683-58.62402-58.62402,26.24609-58.62378,58.62402-58.62378,58.62402,26.24683,58.62402,58.62378"/>
  <circle class="cls-6" cx="107.2518" cy="102.76699" r="58.62404" transform="translate(-31.16316 48.86612) rotate(-22.49999)"/>
  <path class="cls-11" d="M178.61508,158.43051c0,14.10913-11.43848,25.54712-25.54785,25.54712-14.1084,0-25.54785-11.43799-25.54785-25.54712s11.43945-25.54688,25.54785-25.54688c14.10938,0,25.54785,11.43799,25.54785,25.54688"/>
  <circle class="cls-1" cx="153.06723" cy="158.43057" r="25.54785" transform="translate(-5.96735 5.99099) rotate(-2.19939)"/>
  <line class="cls-2" x1="80.63656" y1="81.13803" x2="134.46859" y2="81.13803"/>
  <line class="cls-9" x1="107.63266" y1="75.63119" x2="107.63266" y2="131.58822"/>
  <line class="cls-5" x1="85.09262" y1="91.92318" x2="130.01352" y2="91.92318"/>
  <line class="cls-3" x1="85.69516" y1="110.31527" x2="130.01254" y2="110.31527"/>
  <line class="cls-3" x1="85.69516" y1="101.11923" x2="130.01254" y2="101.11923"/>
  <line class="cls-8" x1="127.80551" y1="88.83505" x2="127.80551" y2="113.35629"/>
  <line class="cls-7" x1="87.3807" y1="88.83505" x2="87.3807" y2="113.38021"/>
  <path class="cls-6" d="M107.85434,113.38021s5.56543,5.57202,11.39453,8.99512c8.55566,5.0249,15.21973,3.62891,15.21973,3.62891"/>
  <path class="cls-6" d="M107.2518,113.38021s-5.56641,5.57202-11.39453,8.99512c-8.55566,5.0249-15.2207,3.62891-15.2207,3.62891"/>
  <text class="cls-10" transform="translate(140.26999 169.40282) scale(1.15601 1)"><tspan x="0" y="0">А</tspan></text>
  <path class="cls-4" d="M151.89242,151.54306c.67969-1.60303,1.20801-3.21899,1.58105-4.84595.45312,1.37305,1.14551,3.12695,2.08203,5.26099l3.05957,7.02686h-9.94238l3.21973-7.44189ZM144.3309,169.40292l3.2207-7.68384h12.2627l3.42188,7.68384h4.42188l-12.00391-25.37085h-4.18066l-11.26367,25.37085h4.12109Z"/>
</svg>