<?xml version="1.0" encoding="UTF-8"?><svg id="_Слой_1" xmlns="http://www.w3.org/2000/svg" viewBox="0 0 227.23925 227.23858"><defs><style>.cls-1{fill:none;stroke:#f57d7f;stroke-miterlimit:5.57;stroke-width:5.57px;}.cls-2{fill:#ffdae3;stroke-width:0px;}</style></defs><path class="cls-2" d="M155.09628,44.55728h-71.60815c-2.26685,0-4.11084,2.18311-4.11084,4.86792v89.85205c0,2.72412-1.88306,4.87402-4.17798,4.86816h-.04419c-11.95483,0-21.64697,7.68701-21.64697,17.16797,0,9.46997,9.68701,17.15698,21.64697,17.15698,11.9541,0,21.646-7.68701,21.646-17.15698,0-.34497-.01587-.67407-.04395-1.00806h.04395l-.74097-50.20093c-.03296-2.15601,1.70508-3.91602,3.86108-3.91602h38.98193c2.09399,0,3.80493,1.6709,3.86011,3.76587l.70801,28.3811c0,2.78003-1.96118,4.99707-4.30103,4.86304-.52905-.03296-1.06909-.04419-1.61011-.04419-11.948,0-21.646,7.67603-21.646,17.15723,0,9.46899,9.698,17.15698,21.646,17.15698,11.9541,0,21.64697-7.68799,21.64697-17.15698V49.4252c0-2.68994-1.83789-4.86792-4.11084-4.86792M100.66732,84.84219c-2.13403,0-3.86011-1.72681-3.86011-3.85986v-10.0271c0-2.69092,1.83789-4.8689,4.11011-4.8689h38.448c2.26685,0,4.11084,2.18408,4.11084,4.8689v10.0271c0,2.13306-1.72705,3.85986-3.86084,3.85986h-38.948Z"/><path class="cls-1" d="M155.09628,44.55728h-71.60815c-2.26685,0-4.11084,2.18311-4.11084,4.86792v89.85205c0,2.72412-1.88306,4.87402-4.17798,4.86816h-.04419c-11.95483,0-21.64697,7.68701-21.64697,17.16797,0,9.46997,9.68701,17.15698,21.64697,17.15698,11.9541,0,21.646-7.68701,21.646-17.15698,0-.34497-.01587-.67407-.04395-1.00806h.04395l-.74097-50.20093c-.03296-2.15601,1.70508-3.91602,3.86108-3.91602h38.98193c2.09399,0,3.80493,1.6709,3.86011,3.76587l.70801,28.3811c0,2.78003-1.96118,4.99707-4.30103,4.86304-.52905-.03296-1.06909-.04419-1.61011-.04419-11.948,0-21.646,7.67603-21.646,17.15723,0,9.46899,9.698,17.15698,21.646,17.15698,11.9541,0,21.64697-7.68799,21.64697-17.15698V49.4252c0-2.68994-1.83789-4.86792-4.11084-4.86792ZM100.66732,84.84219c-2.13403,0-3.86011-1.72681-3.86011-3.85986v-10.0271c0-2.69092,1.83789-4.8689,4.11011-4.8689h38.448c2.26685,0,4.11084,2.18408,4.11084,4.8689v10.0271c0,2.13306-1.72705,3.85986-3.86084,3.85986h-38.948Z"/><path class="cls-1" d="M35.24813,35.24722c43.28296-43.28296,113.45996-43.28296,156.7439,0,43.28296,43.28418,43.28296,113.46021,0,156.74414-43.28394,43.28296-113.46094,43.28296-156.7439,0-43.28418-43.28394-43.28418-113.45996,0-156.74414Z"/></svg>