<?xml version="1.0" encoding="UTF-8"?>
<svg id="_Слой_1" data-name="Слой 1" xmlns="http://www.w3.org/2000/svg" viewBox="0 0 227.23925 227.23858">
  <defs>
    <style>
      .cls-1 {
        fill: #dbeeff;
        stroke-width: 0px;
      }

      .cls-2 {
        fill: none;
        stroke: #82acf6;
        stroke-miterlimit: 5.57;
        stroke-width: 5.57px;
      }
    </style>
  </defs>
  <path class="cls-2" d="M35.24804,35.24722c43.28394-43.28296,113.45996-43.28296,156.7439,0,43.28308,43.28418,43.28308,113.46021,0,156.74414-43.28394,43.28296-113.45996,43.28296-156.7439,0-43.28406-43.28394-43.28406-113.45996,0-156.74414Z"/>
  <path class="cls-1" d="M50.1817,63.78482l8.94598,16.72217c.16699.31201.48999.52393.85797.57397l20.00397,2.67993c.93506.12207,1.30896,1.18604.63501,1.79297l-14.47803,13.01807c-.26697.23999-.39001.59106-.32898.93091l3.41504,18.38208c.16199.85791-.81897,1.51514-1.65405,1.10913l-17.89294-8.6792c-.33398-.16187-.729-.16187-1.06403,0l-17.89197,8.6792c-.836.40601-1.81598-.25122-1.65399-1.10913l3.41998-18.38208c.06104-.33984-.06097-.69092-.32898-.93091l-14.47198-13.01807c-.67902-.60693-.30603-1.6709.63495-1.79297l20.00403-2.67993c.37299-.05005.69098-.26709.85797-.57397l8.94604-16.72217c.41699-.78589,1.62598-.78589,2.04401,0"/>
  <path class="cls-2" d="M50.1817,63.78482l8.94598,16.72217c.16699.31201.48999.52393.85797.57397l20.00397,2.67993c.93506.12207,1.30896,1.18604.63501,1.79297l-14.47803,13.01807c-.26697.23999-.39001.59106-.32898.93091l3.41504,18.38208c.16199.85791-.81897,1.51514-1.65405,1.10913l-17.89294-8.6792c-.33398-.16187-.729-.16187-1.06403,0l-17.89197,8.6792c-.836.40601-1.81598-.25122-1.65399-1.10913l3.41998-18.38208c.06104-.33984-.06097-.69092-.32898-.93091l-14.47198-13.01807c-.67902-.60693-.30603-1.6709.63495-1.79297l20.00403-2.67993c.37299-.05005.69098-.26709.85797-.57397l8.94604-16.72217c.41699-.78589,1.62598-.78589,2.04401,0Z"/>
  <path class="cls-1" d="M73.82275,135.23159l8.94592,16.72217c.16699.31201.48999.52393.85803.57397l20.00403,2.67993c.93591.12793,1.30896,1.18604.63501,1.79297l-14.47803,13.01904c-.26697.23901-.39001.59009-.32898.92993l3.41492,18.3772c.16199.85791-.81897,1.51489-1.65393,1.10791l-17.89307-8.67896c-.33398-.16113-.729-.16113-1.06396,0l-17.89197,8.67896c-.836.40698-1.81598-.25-1.65399-1.10791l3.41998-18.3772c.06104-.33984-.06097-.69092-.32898-.92993l-14.47198-13.01904c-.67902-.60693-.30603-1.6709.63495-1.79297l20.00403-2.67993c.37299-.05005.69098-.26709.85797-.57397l8.94598-16.72217c.41699-.78491,1.62598-.78491,2.04407,0"/>
  <path class="cls-2" d="M73.82275,135.23159l8.94592,16.72217c.16699.31201.48999.52393.85803.57397l20.00403,2.67993c.93591.12793,1.30896,1.18604.63501,1.79297l-14.47803,13.01904c-.26697.23901-.39001.59009-.32898.92993l3.41492,18.3772c.16199.85791-.81897,1.51489-1.65393,1.10791l-17.89307-8.67896c-.33398-.16113-.729-.16113-1.06396,0l-17.89197,8.67896c-.836.40698-1.81598-.25-1.65399-1.10791l3.41998-18.3772c.06104-.33984-.06097-.69092-.32898-.92993l-14.47198-13.01904c-.67902-.60693-.30603-1.6709.63495-1.79297l20.00403-2.67993c.37299-.05005.69098-.26709.85797-.57397l8.94598-16.72217c.41699-.78491,1.62598-.78491,2.04407,0Z"/>
  <path class="cls-1" d="M154.71704,135.23159l8.94592,16.72217c.16699.31201.48999.52393.85803.57397l20.00403,2.67993c.93494.12793,1.30896,1.18604.63501,1.79297l-14.47803,13.01904c-.26697.23901-.39001.59009-.32898.92993l3.41492,18.3772c.16199.85791-.81897,1.51489-1.65393,1.10791l-17.89307-8.67896c-.33398-.16113-.729-.16113-1.06396,0l-17.89197,8.67896c-.83606.40698-1.81604-.25-1.65405-1.10791l3.42004-18.3772c.06104-.33984-.06104-.69092-.32898-.92993l-14.47205-13.01904c-.67896-.60693-.30603-1.6709.63501-1.79297l20.00403-2.67993c.37292-.05005.69092-.26709.85791-.57397l8.94604-16.72217c.41199-.78491,1.62097-.78491,2.04407,0"/>
  <path class="cls-2" d="M154.71704,135.23159l8.94592,16.72217c.16699.31201.48999.52393.85803.57397l20.00403,2.67993c.93494.12793,1.30896,1.18604.63501,1.79297l-14.47803,13.01904c-.26697.23901-.39001.59009-.32898.92993l3.41492,18.3772c.16199.85791-.81897,1.51489-1.65393,1.10791l-17.89307-8.67896c-.33398-.16113-.729-.16113-1.06396,0l-17.89197,8.67896c-.83606.40698-1.81604-.25-1.65405-1.10791l3.42004-18.3772c.06104-.33984-.06104-.69092-.32898-.92993l-14.47205-13.01904c-.67896-.60693-.30603-1.6709.63501-1.79297l20.00403-2.67993c.37292-.05005.69092-.26709.85791-.57397l8.94604-16.72217c.41199-.78491,1.62097-.78491,2.04407,0Z"/>
  <path class="cls-1" d="M179.12133,66.73697l8.94592,16.72314c.16699.31201.48999.52295.85803.573l20.00293,2.67993c.93604.12207,1.31006,1.18604.63501,1.79395l-14.47693,13.01807c-.26807.23901-.39001.59009-.32898.92993l3.41492,18.3772c.16101.85791-.81897,1.51489-1.65491,1.10791l-17.89209-8.67798c-.33398-.16211-.72998-.16211-1.06396,0l-17.89197,8.67798c-.83606.40698-1.81604-.25-1.65503-1.10791l3.42004-18.3772c.06201-.33984-.06104-.69092-.328-.92993l-14.47205-13.01807c-.68005-.60791-.30701-1.67188.63501-1.79395l20.00293-2.67993c.37402-.05005.69104-.26709.85803-.573l8.94604-16.72314c.41797-.78491,1.62695-.78491,2.04504,0"/>
  <path class="cls-2" d="M179.12133,66.73697l8.94592,16.72314c.16699.31201.48999.52295.85803.573l20.00293,2.67993c.93604.12207,1.31006,1.18604.63501,1.79395l-14.47693,13.01807c-.26807.23901-.39001.59009-.32898.92993l3.41492,18.3772c.16101.85791-.81897,1.51489-1.65491,1.10791l-17.89209-8.67798c-.33398-.16211-.72998-.16211-1.06396,0l-17.89197,8.67798c-.83606.40698-1.81604-.25-1.65503-1.10791l3.42004-18.3772c.06201-.33984-.06104-.69092-.328-.92993l-14.47205-13.01807c-.68005-.60791-.30701-1.67188.63501-1.79395l20.00293-2.67993c.37402-.05005.69104-.26709.85803-.573l8.94604-16.72314c.41797-.78491,1.62695-.78491,2.04504,0Z"/>
  <path class="cls-1" d="M115.61242,14.0292l9.89294,18.48901c.18396.34521.54004.5791.953.63501l22.12,2.96313c1.03601.13892,1.448,1.31494.70203,1.98901l-16.00403,14.39404c-.29504.26685-.43506.65186-.36206,1.02979l3.7771,20.32104c.17798.95312-.90808,1.677-1.83301,1.22607l-19.78101-9.59204c-.36707-.17896-.80798-.17896-1.17505,0l-19.78101,9.59204c-.92493.45093-2.01099-.27905-1.83301-1.22607l3.77698-20.32104c.073-.37793-.06689-.76294-.36194-1.02979l-16.00403-14.39404c-.74597-.67407-.33398-1.8501.70203-1.98901l22.11499-2.96313c.41199-.05591.76807-.2959.95203-.63501l9.89294-18.48901c.45203-.8689,1.78906-.8689,2.2511,0"/>
  <path class="cls-2" d="M115.61242,14.0292l9.89294,18.48901c.18396.34521.54004.5791.953.63501l22.12,2.96313c1.03601.13892,1.448,1.31494.70203,1.98901l-16.00403,14.39404c-.29504.26685-.43506.65186-.36206,1.02979l3.7771,20.32104c.17798.95312-.90808,1.677-1.83301,1.22607l-19.78101-9.59204c-.36707-.17896-.80798-.17896-1.17505,0l-19.78101,9.59204c-.92493.45093-2.01099-.27905-1.83301-1.22607l3.77698-20.32104c.073-.37793-.06689-.76294-.36194-1.02979l-16.00403-14.39404c-.74597-.67407-.33398-1.8501.70203-1.98901l22.11499-2.96313c.41199-.05591.76807-.2959.95203-.63501l9.89294-18.48901c.45203-.8689,1.78906-.8689,2.2511,0Z"/>
</svg>