<?xml version="1.0" encoding="UTF-8"?>
<svg id="_Слой_1" data-name="Слой 1" xmlns="http://www.w3.org/2000/svg" viewBox="0 0 227.24041 227.24102">
  <defs>
    <style>
      .cls-1 {
        stroke-width: .557px;
      }

      .cls-1, .cls-2 {
        fill: none;
        stroke: #aac419;
        stroke-miterlimit: 5.57;
      }

      .cls-3 {
        fill: #ffd03c;
      }

      .cls-3, .cls-4 {
        stroke-width: 0px;
      }

      .cls-2 {
        stroke-width: 5.57px;
      }

      .cls-4 {
        fill: #aac419;
      }
    </style>
  </defs>
  <circle class="cls-2" cx="113.62033" cy="113.62036" r="110.83567" transform="translate(-11.1559 214.86292) rotate(-84.05564)"/>
  <path class="cls-4" d="M169.01352,173.7706l-24.82324-37.07764,24.82324-36.36328c.875-1.28101.19531-3.04199-.99658-3.81006l-4.98096-3.198c-1.32031-.84595-3.0083-.21094-3.81006.99707l-21.61133,32.49829-21.93262-32.49829c-.8252-1.33691-2.57324-1.74902-3.90527-.92407-.16699.10596-.32275.22217-.46777.36206l-4.26709,3.55396c-.89111.89697-1.07422,2.28394-.43408,3.37598l24.27295,36.00708-24.27295,36.72595c-.89697,1.35901-.1499,2.94702.99707,3.80994l4.26709,3.198c1.25879.94702,3.04688.12805,3.81006-.99792l21.95068-32.36316,21.9502,32.36316c.79688,1.30396,2.479,1.75,3.81006.99792l4.62402-2.84692c1.22559-.75208,1.85498-2.53406.99658-3.81006Z"/>
  <path class="cls-3" d="M178.99545,59.37533c-29.68506-.17798-59.37012-.35693-89.05518-.53491-5.95508,32.7041-11.90918,65.41406-17.86426,98.11792-5.33203-16.9729-10.66797-33.9519-15.99902-50.9248-8.80078.26782-17.59668.53491-26.39795.802l-1.86572,8.53394,21.3291-.26709,18.92871,62.92395,11.73096-.26794c5.95508-34.12988,11.91016-68.26001,17.86523-102.38501l80.521,1.33203c.27783-5.77686.54492-11.55396.80713-17.33008"/>
  <path class="cls-4" d="M178.99545,56.58993l-89.05518-.53491c-1.13086-.00488-2.46729.86401-2.68506,2.04492-5.95508,32.7041-11.91016,65.41406-17.86523,98.11804h5.37012c-5.33105-16.97302-10.66797-33.95203-15.99805-50.92493-.35107-1.198-1.43701-2.02808-2.68506-2.04492-8.80176.26782-17.59766.53491-26.39893.802-1.24707.01685-2.33887.84692-2.68506,2.04492l-1.86572,8.53394c-.39014,1.50903.51807,3.04712,2.02197,3.43701.21777.05493.43994.08301.66309.08911l21.33008-.26709-2.68604-2.04492,18.92871,62.92383c.35107,1.198,1.43799,2.02808,2.68604,2.04407l11.73096-.26697c1.125-.02808,2.47314-.84106,2.68506-2.04407,5.95508-34.13,11.90918-68.26086,17.86426-102.38586l-2.68506,2.04492,80.521,1.33105c1.52686-.02808,2.75781-1.25903,2.78564-2.78491.26709-5.7771.53418-11.55322.80225-17.33008.16699-3.58203-5.40381-3.57593-5.5708,0-.26709,5.77686-.53418,11.55298-.80225,17.33008l2.78516-2.78516-80.521-1.33105c-1.11914-.01685-2.479.86816-2.68506,2.04419-5.95508,34.12988-11.90918,68.25488-17.86426,102.38489l2.68506-2.04407-11.73096.26697,2.68506,2.04407-18.9292-62.92383c-.35059-1.19702-1.43701-2.0271-2.68457-2.04419l-21.33008.26709,2.68506,3.5271,1.8667-8.53418-2.68604,2.04395c8.80127-.26685,17.59717-.53491,26.39893-.802l-2.68555-2.04395c5.33154,16.97314,10.66797,33.95117,15.99854,50.92505.76318,2.42798,4.85205,2.86292,5.37012,0,5.95508-32.7041,11.90918-65.41406,17.86426-98.1189l-2.68506,2.04492,89.05469.53491c3.58838.01611,3.59424-5.55396.00146-5.57104"/>
  <path class="cls-1" d="M178.99545,56.58993l-89.05518-.53491c-1.13086-.00488-2.46729.86401-2.68506,2.04492-5.95508,32.7041-11.91016,65.41406-17.86523,98.11804h5.37012c-5.33105-16.97302-10.66797-33.95203-15.99805-50.92493-.35107-1.198-1.43701-2.02808-2.68506-2.04492-8.80176.26782-17.59766.53491-26.39893.802-1.24707.01685-2.33887.84692-2.68506,2.04492l-1.86572,8.53394c-.39014,1.50903.51807,3.04712,2.02197,3.43701.21777.05493.43994.08301.66309.08911l21.33008-.26709-2.68604-2.04492,18.92871,62.92383c.35107,1.198,1.43799,2.02808,2.68604,2.04407l11.73096-.26697c1.125-.02808,2.47314-.84106,2.68506-2.04407,5.95508-34.13,11.90918-68.26086,17.86426-102.38586l-2.68506,2.04492,80.521,1.33105c1.52686-.02808,2.75781-1.25903,2.78564-2.78491.26709-5.7771.53418-11.55322.80225-17.33008.16699-3.58203-5.40381-3.57593-5.5708,0-.26709,5.77686-.53418,11.55298-.80225,17.33008l2.78516-2.78516-80.521-1.33105c-1.11914-.01685-2.479.86816-2.68506,2.04419-5.95508,34.12988-11.90918,68.25488-17.86426,102.38489l2.68506-2.04407-11.73096.26697,2.68506,2.04407-18.9292-62.92383c-.35059-1.19702-1.43701-2.0271-2.68457-2.04419l-21.33008.26709,2.68506,3.5271,1.8667-8.53418-2.68604,2.04395c8.80127-.26685,17.59717-.53491,26.39893-.802l-2.68555-2.04395c5.33154,16.97314,10.66797,33.95117,15.99854,50.92505.76318,2.42798,4.85205,2.86292,5.37012,0,5.95508-32.7041,11.90918-65.41406,17.86426-98.1189l-2.68506,2.04492,89.05469.53491c3.58838.01611,3.59424-5.55396.00146-5.57104Z"/>
</svg>