<?xml version="1.0" encoding="UTF-8"?>
<svg id="_Слой_1" data-name="Слой 1" xmlns="http://www.w3.org/2000/svg" viewBox="0 0 227.23924 227.23855">
  <defs>
    <style>
      .cls-1 {
        stroke: #b8e87b;
        stroke-width: .557px;
      }

      .cls-1, .cls-2 {
        fill: none;
        stroke-miterlimit: 5.57;
      }

      .cls-3 {
        fill: #baeeac;
      }

      .cls-3, .cls-4 {
        stroke-width: 0px;
      }

      .cls-4 {
        fill: #ffd03c;
      }

      .cls-2 {
        stroke: #aac419;
        stroke-width: 5.57px;
      }
    </style>
  </defs>
  <path class="cls-2" d="M35.24802,35.24722c43.284-43.28296,113.45996-43.28296,156.74396,0,43.28302,43.28418,43.28302,113.46021,0,156.74402-43.284,43.28308-113.45996,43.28308-156.74396,0-43.28403-43.28381-43.28403-113.45984,0-156.74402Z"/>
  <path class="cls-3" d="M50.18283,63.79165l8.94598,16.72217c.16699.31201.48999.52393.85797.57397l20.00403,2.67993c.935.12207,1.30896,1.18604.63501,1.79297l-14.47803,13.01904c-.26697.23901-.39001.59009-.32898.92993l3.41498,18.3772c.16199.85791-.81897,1.51489-1.65399,1.10791l-17.89301-8.67896c-.33398-.16113-.72998-.16113-1.06403,0l-17.89197,8.67896c-.836.40698-1.81598-.25-1.65399-1.10791l3.41998-18.3772c.06104-.33984-.06097-.69092-.32898-.92993l-14.47198-13.01904c-.68002-.60693-.306-1.6709.63498-1.79297l20.004-2.67993c.37299-.05005.69-.26709.85797-.57397l8.94604-16.72217c.41699-.78491,1.62598-.78491,2.04401,0"/>
  <path class="cls-1" d="M50.18283,63.79165l8.94598,16.72217c.16699.31201.48999.52393.85797.57397l20.00403,2.67993c.935.12207,1.30896,1.18604.63501,1.79297l-14.47803,13.01904c-.26697.23901-.39001.59009-.32898.92993l3.41498,18.3772c.16199.85791-.81897,1.51489-1.65399,1.10791l-17.89301-8.67896c-.33398-.16113-.72998-.16113-1.06403,0l-17.89197,8.67896c-.836.40698-1.81598-.25-1.65399-1.10791l3.41998-18.3772c.06104-.33984-.06097-.69092-.32898-.92993l-14.47198-13.01904c-.68002-.60693-.306-1.6709.63498-1.79297l20.004-2.67993c.37299-.05005.69-.26709.85797-.57397l8.94604-16.72217c.41699-.78491,1.62598-.78491,2.04401,0"/>
  <path class="cls-4" d="M50.18283,63.79165l8.94598,16.72217c.16699.31201.48999.52393.85797.57397l20.00403,2.67993c.935.12207,1.30896,1.18604.63501,1.79297l-14.47803,13.01904c-.26697.23901-.39001.59009-.32898.92993l3.41498,18.3772c.16199.85791-.81897,1.51489-1.65399,1.10791l-17.89301-8.67896c-.33398-.16113-.72998-.16113-1.06403,0l-17.89197,8.67896c-.836.40698-1.81598-.25-1.65399-1.10791l3.41998-18.3772c.06104-.33984-.06097-.69092-.32898-.92993l-14.47198-13.01904c-.68002-.60693-.306-1.6709.63498-1.79297l20.004-2.67993c.37299-.05005.69-.26709.85797-.57397l8.94604-16.72217c.41699-.78491,1.62598-.78491,2.04401,0"/>
  <path class="cls-2" d="M50.18283,63.79165l8.94598,16.72217c.16699.31201.48999.52393.85797.57397l20.00403,2.67993c.935.12207,1.30896,1.18604.63501,1.79297l-14.47803,13.01904c-.26697.23901-.39001.59009-.32898.92993l3.41498,18.3772c.16199.85791-.81897,1.51489-1.65399,1.10791l-17.89301-8.67896c-.33398-.16113-.72998-.16113-1.06403,0l-17.89197,8.67896c-.836.40698-1.81598-.25-1.65399-1.10791l3.41998-18.3772c.06104-.33984-.06097-.69092-.32898-.92993l-14.47198-13.01904c-.68002-.60693-.306-1.6709.63498-1.79297l20.004-2.67993c.37299-.05005.69-.26709.85797-.57397l8.94604-16.72217c.41699-.78491,1.62598-.78491,2.04401,0Z"/>
  <path class="cls-2" d="M73.82383,135.23843l8.94598,16.72217c.16699.31201.48999.52393.85797.57397l20.00403,2.67993c.93597.12195,1.30896,1.18604.63501,1.79297l-14.47803,13.01904c-.26697.23901-.39001.58997-.32898.92993l3.41498,18.37708c.16199.85791-.81897,1.51501-1.65399,1.10791l-17.89301-8.67798c-.33398-.16199-.729-.16199-1.06403,0l-17.89197,8.67798c-.83502.4071-1.81598-.25-1.65399-1.10791l3.41998-18.37708c.06104-.33997-.06097-.69092-.32898-.92993l-14.47198-13.01904c-.67902-.60693-.30603-1.67102.63495-1.79297l20.00403-2.67993c.37299-.05005.69098-.26709.85797-.57397l8.94604-16.72217c.41699-.78491,1.62598-.78491,2.04401,0Z"/>
  <path class="cls-2" d="M154.71262,135.23843l8.94598,16.72217c.16699.31201.48999.52393.85797.57397l20.00403,2.67993c.93597.12195,1.30896,1.18604.63501,1.79297l-14.47803,13.01904c-.26697.23901-.39001.58997-.32898.92993l3.41498,18.37708c.16199.85791-.81897,1.51501-1.65399,1.10791l-17.89301-8.67798c-.33398-.16199-.729-.16199-1.06403,0l-17.89197,8.67798c-.836.4071-1.81598-.25-1.65399-1.10791l3.41998-18.37708c.06104-.33997-.06097-.69092-.32898-.92993l-14.47198-13.01904c-.67902-.60693-.30603-1.67102.63495-1.79297l20.00403-2.67993c.37299-.05005.69098-.26709.85797-.57397l8.94604-16.72217c.41699-.78491,1.62598-.78491,2.04401,0Z"/>
  <path class="cls-3" d="M179.12247,66.74405l8.94598,16.72217c.16699.31201.48999.52393.85797.57397l20.00403,2.67993c.935.12207,1.30896,1.18604.63501,1.79297l-14.47803,13.01904c-.26697.23901-.39001.59009-.32898.92993l3.41498,18.3772c.16199.85791-.81897,1.51489-1.65399,1.10791l-17.89301-8.67896c-.33398-.16113-.729-.16113-1.06403,0l-17.89197,8.67896c-.836.40698-1.81598-.25-1.65399-1.10791l3.41998-18.3772c.06104-.33984-.06097-.69092-.32898-.92993l-14.47198-13.01904c-.67902-.60693-.30603-1.6709.63495-1.79297l20.00403-2.67993c.37299-.05005.69098-.26709.85797-.57397l8.94604-16.72217c.41699-.78589,1.62598-.78589,2.04401,0"/>
  <path class="cls-1" d="M179.12247,66.74405l8.94598,16.72217c.16699.31201.48999.52393.85797.57397l20.00403,2.67993c.935.12207,1.30896,1.18604.63501,1.79297l-14.47803,13.01904c-.26697.23901-.39001.59009-.32898.92993l3.41498,18.3772c.16199.85791-.81897,1.51489-1.65399,1.10791l-17.89301-8.67896c-.33398-.16113-.729-.16113-1.06403,0l-17.89197,8.67896c-.836.40698-1.81598-.25-1.65399-1.10791l3.41998-18.3772c.06104-.33984-.06097-.69092-.32898-.92993l-14.47198-13.01904c-.67902-.60693-.30603-1.6709.63495-1.79297l20.00403-2.67993c.37299-.05005.69098-.26709.85797-.57397l8.94604-16.72217c.41699-.78589,1.62598-.78589,2.04401,0"/>
  <path class="cls-4" d="M179.12247,66.74405l8.94598,16.72217c.16699.31201.48999.52393.85797.57397l20.00403,2.67993c.935.12207,1.30896,1.18604.63501,1.79297l-14.47803,13.01904c-.26697.23901-.39001.59009-.32898.92993l3.41498,18.3772c.16199.85791-.81897,1.51489-1.65399,1.10791l-17.89301-8.67896c-.33398-.16113-.729-.16113-1.06403,0l-17.89197,8.67896c-.836.40698-1.81598-.25-1.65399-1.10791l3.41998-18.3772c.06104-.33984-.06097-.69092-.32898-.92993l-14.47198-13.01904c-.67902-.60693-.30603-1.6709.63495-1.79297l20.00403-2.67993c.37299-.05005.69098-.26709.85797-.57397l8.94604-16.72217c.41699-.78589,1.62598-.78589,2.04401,0"/>
  <path class="cls-2" d="M179.12247,66.74405l8.94598,16.72217c.16699.31201.48999.52393.85797.57397l20.00403,2.67993c.935.12207,1.30896,1.18604.63501,1.79297l-14.47803,13.01904c-.26697.23901-.39001.59009-.32898.92993l3.41498,18.3772c.16199.85791-.81897,1.51489-1.65399,1.10791l-17.89301-8.67896c-.33398-.16113-.729-.16113-1.06403,0l-17.89197,8.67896c-.836.40698-1.81598-.25-1.65399-1.10791l3.41998-18.3772c.06104-.33984-.06097-.69092-.32898-.92993l-14.47198-13.01904c-.67902-.60693-.30603-1.6709.63495-1.79297l20.00403-2.67993c.37299-.05005.69098-.26709.85797-.57397l8.94604-16.72217c.41699-.78589,1.62598-.78589,2.04401,0Z"/>
  <path class="cls-3" d="M115.61356,14.03628l9.89294,18.48804c.18402.34619.54004.58521.953.63501l22.12,2.96411c1.03601.13892,1.44806,1.31396.70203,1.98804l-16.00403,14.38892c-.29498.26709-.435.6521-.362,1.03003l3.77704,20.32104c.17798.95288-.90802,1.677-1.83301,1.22583l-19.78101-9.59277c-.367-.17822-.80798-.17822-1.17499,0l-19.78101,9.59277c-.92499.45117-2.01099-.27881-1.83301-1.22583l3.77698-20.32104c.073-.37891-.06696-.76294-.362-1.03003l-16.00397-14.38892c-.75201-.67407-.33398-1.84912.70203-1.98804l22.11499-2.96411c.41199-.05493.76801-.29492.95197-.63501l9.89301-18.48804c.45203-.8689,1.789-.8689,2.25104,0"/>
  <path class="cls-1" d="M115.61356,14.03628l9.89294,18.48804c.18402.34619.54004.58521.953.63501l22.12,2.96411c1.03601.13892,1.44806,1.31396.70203,1.98804l-16.00403,14.38892c-.29498.26709-.435.6521-.362,1.03003l3.77704,20.32104c.17798.95288-.90802,1.677-1.83301,1.22583l-19.78101-9.59277c-.367-.17822-.80798-.17822-1.17499,0l-19.78101,9.59277c-.92499.45117-2.01099-.27881-1.83301-1.22583l3.77698-20.32104c.073-.37891-.06696-.76294-.362-1.03003l-16.00397-14.38892c-.75201-.67407-.33398-1.84912.70203-1.98804l22.11499-2.96411c.41199-.05493.76801-.29492.95197-.63501l9.89301-18.48804c.45203-.8689,1.789-.8689,2.25104,0"/>
  <path class="cls-4" d="M115.61356,14.03628l9.89294,18.48804c.18402.34619.54004.58521.953.63501l22.12,2.96411c1.03601.13892,1.44806,1.31396.70203,1.98804l-16.00403,14.38892c-.29498.26709-.435.6521-.362,1.03003l3.77704,20.32104c.17798.95288-.90802,1.677-1.83301,1.22583l-19.78101-9.59277c-.367-.17822-.80798-.17822-1.17499,0l-19.78101,9.59277c-.92499.45117-2.01099-.27881-1.83301-1.22583l3.77698-20.32104c.073-.37891-.06696-.76294-.362-1.03003l-16.00397-14.38892c-.75201-.67407-.33398-1.84912.70203-1.98804l22.11499-2.96411c.41199-.05493.76801-.29492.95197-.63501l9.89301-18.48804c.45203-.8689,1.789-.8689,2.25104,0"/>
  <path class="cls-2" d="M115.61356,14.03628l9.89294,18.48804c.18402.34619.54004.58521.953.63501l22.12,2.96411c1.03601.13892,1.44806,1.31396.70203,1.98804l-16.00403,14.38892c-.29498.26709-.435.6521-.362,1.03003l3.77704,20.32104c.17798.95288-.90802,1.677-1.83301,1.22583l-19.78101-9.59277c-.367-.17822-.80798-.17822-1.17499,0l-19.78101,9.59277c-.92499.45117-2.01099-.27881-1.83301-1.22583l3.77698-20.32104c.073-.37891-.06696-.76294-.362-1.03003l-16.00397-14.38892c-.75201-.67407-.33398-1.84912.70203-1.98804l22.11499-2.96411c.41199-.05493.76801-.29492.95197-.63501l9.89301-18.48804c.45203-.8689,1.789-.8689,2.25104,0Z"/>
</svg>