<?xml version="1.0" encoding="UTF-8"?>
<svg id="_Слой_1" data-name="Слой 1" xmlns="http://www.w3.org/2000/svg" viewBox="0 0 227.24041 227.24114">
  <defs>
    <style>
      .cls-1 {
        fill: none;
        stroke: #81aafa;
        stroke-miterlimit: 5.57;
        stroke-width: 5.57px;
      }

      .cls-2 {
        fill: #dbeeff;
      }

      .cls-2, .cls-3 {
        stroke-width: 0px;
      }

      .cls-3 {
        fill: #aac419;
      }
    </style>
  </defs>
  <circle class="cls-1" cx="113.62033" cy="113.62088" r="110.83528" transform="translate(-28.05065 189.44051) rotate(-73.15499)"/>
  <path class="cls-2" d="M119.42514,86.70956c13.30762,9.35815,67.09082,20.76709,82.7876,16.55615,0,0-10.42773,58.31104-16.41602,64.71191-6.90771,7.38599-33.25586,20.32617-42.2959,18.82812-9.04102-1.49902-30.34277-25.11206-33.646-32.99414-3.54883-8.46191,9.57031-67.10205,9.57031-67.10205"/>
  <path class="cls-1" d="M119.42514,86.70956c13.30762,9.35815,67.09082,20.76709,82.7876,16.55615,0,0-10.42773,58.31104-16.41602,64.71191-6.90771,7.38599-33.25586,20.32617-42.2959,18.82812-9.04102-1.49902-30.34277-25.11206-33.646-32.99414-3.54883-8.46191,9.57031-67.10205,9.57031-67.10205Z"/>
  <path class="cls-2" d="M40.40219,60.26669c18.17578,13.23022,64.09375,11.69824,84.21973-5.88794,0,0,5.33691,58.99707,1.25391,66.75098-4.71289,8.94604-26.71094,28.38696-35.82373,29.32812-9.11328.94189-35.896-16.20996-41.16602-22.93896-5.66016-7.22998-8.48389-67.2522-8.48389-67.2522"/>
  <path class="cls-1" d="M40.40219,60.26669c18.17578,13.23022,64.09375,11.69824,84.21973-5.88794,0,0,5.33691,58.99707,1.25391,66.75098-4.71289,8.94604-26.71094,28.38696-35.82373,29.32812-9.11328.94189-35.896-16.20996-41.16602-22.93896-5.66016-7.22998-8.48389-67.2522-8.48389-67.2522Z"/>
  <path class="cls-1" d="M54.60141,94.20761c5.65381-9.65381,16.33789-9.65381,22.62695-1.91577"/>
  <path class="cls-1" d="M93.32748,92.05722c5.65381-9.65381,16.33789-9.65381,22.62695-1.91577"/>
  <path class="cls-1" d="M164.2059,121.19638c4.63965,10.18311,15.26855,11.26904,22.30957,4.21118"/>
  <path class="cls-1" d="M127.41293,113.81552c4.63965,10.18311,15.26855,11.26904,22.30957,4.21118"/>
  <path class="cls-2" d="M69.26303,119.67001s9.9209,2.40112,18.17578,1.57715c12.30518-1.22607,18.58887-3.98291,18.58887-3.98291-3.14111,8.7229-6.91309,11.41382-18.53809,12.67188-10.68994.0061-12.88477-1.25293-18.22656-10.26611"/>
  <path class="cls-1" d="M69.26303,119.67001s9.9209,2.40112,18.17578,1.57715c12.30518-1.22607,18.58887-3.98291,18.58887-3.98291-3.14111,8.7229-6.91309,11.41382-18.53809,12.67188-10.68994.0061-12.88477-1.25293-18.22656-10.26611Z"/>
  <path class="cls-2" d="M132.62143,156.34604s8.95166-.28394,16.00391,1.66016c10.51172,2.89087,15.58105,6.01587,15.58105,6.01587-1.50439-7.22998-4.39502-9.90381-14.31104-12.71191-9.28027-1.69897-11.36914-1.07495-17.27393,5.03589"/>
  <path class="cls-1" d="M132.62143,156.34604s8.95166-.28394,16.00391,1.66016c10.51172,2.89087,15.58105,6.01587,15.58105,6.01587-1.50439-7.22998-4.39502-9.90381-14.31104-12.71191-9.28027-1.69897-11.36914-1.07495-17.27393,5.03589Z"/>
  <path class="cls-3" d="M181.20688,148.10727c-.22314.81323-.98047,2.70215-2.73535,2.34009-2.55078-.52393-1.62109-3.25293.14502-4.21191,2.04932-1.11914,3.09131-2.21094,3.09131-2.21094,0,0,.14502,1.74292-.50098,4.08276"/>
  <path class="cls-1" d="M181.20688,148.10727c-.22314.81323-.98047,2.70215-2.73535,2.34009-2.55078-.52393-1.62109-3.25293.14502-4.21191,2.04932-1.11914,3.09131-2.21094,3.09131-2.21094,0,0,.14502,1.74292-.50098,4.08276Z"/>
</svg>