<?xml version="1.0" encoding="UTF-8"?><svg id="_Слой_1" xmlns="http://www.w3.org/2000/svg" viewBox="0 0 227.23925 227.23931"><defs><style>.cls-1{stroke-width:.557px;}.cls-1,.cls-2{fill:none;stroke:#f57d7f;stroke-miterlimit:5.57;}.cls-2{stroke-width:5.57px;}.cls-3{fill:#f57d7f;}.cls-3,.cls-4{stroke-width:0px;}.cls-4{fill:#ffdae3;}</style></defs><path class="cls-2" d="M35.24804,35.24795c43.28394-43.28394,113.45996-43.28394,156.7439,0,43.28308,43.2832,43.28308,113.46021,0,156.74414-43.28394,43.28296-113.45996,43.28296-156.7439,0-43.28406-43.28394-43.28406-113.46094,0-156.74414Z"/><path class="cls-4" d="M72.64404,126.65152l-22.94507,7.79907c-3.31396,1.125-6.91296-.64697-8.03796-3.96094l-3.59802-10.58398c-1.12598-3.31396.646-6.91309,3.95996-8.03809l22.94507-7.79883c3.31396-1.125,6.91296.646,8.03796,3.96094l3.599,10.58887c1.125,3.30908-.64697,6.90796-3.96094,8.03296"/><path class="cls-1" d="M72.64404,126.65152l-22.94507,7.79907c-3.31396,1.125-6.91296-.64697-8.03796-3.96094l-3.59802-10.58398c-1.12598-3.31396.646-6.91309,3.95996-8.03809l22.94507-7.79883c3.31396-1.125,6.91296.646,8.03796,3.96094l3.599,10.58887c1.125,3.30908-.64697,6.90796-3.96094,8.03296"/><path class="cls-2" d="M72.64404,126.65152l-22.94507,7.79907c-3.31396,1.125-6.91296-.64697-8.03796-3.96094l-3.59802-10.58398c-1.12598-3.31396.646-6.91309,3.95996-8.03809l22.94507-7.79883c3.31396-1.125,6.91296.646,8.03796,3.96094l3.599,10.58887c1.125,3.30908-.64697,6.90796-3.96094,8.03296Z"/><path class="cls-4" d="M132.87756,116.5187l-52.61304,17.8811c-3.71497,1.26514-7.74902-.72388-9.01306-4.43896l-9.5979-28.23193c-1.26404-3.71509.724-7.74805,4.43994-9.01196l52.61304-17.88208c3.71497-1.26416,7.74792.72485,9.01294,4.43994l9.59802,28.23096c1.26404,3.71606-.72498,7.75415-4.43994,9.01294"/><path class="cls-1" d="M132.87756,116.5187l-52.61304,17.8811c-3.71497,1.26514-7.74902-.72388-9.01306-4.43896l-9.5979-28.23193c-1.26404-3.71509.724-7.74805,4.43994-9.01196l52.61304-17.88208c3.71497-1.26416,7.74792.72485,9.01294,4.43994l9.59802,28.23096c1.26404,3.71606-.72498,7.75415-4.43994,9.01294"/><path class="cls-2" d="M132.87756,116.5187l-52.61304,17.8811c-3.71497,1.26514-7.74902-.72388-9.01306-4.43896l-9.5979-28.23193c-1.26404-3.71509.724-7.74805,4.43994-9.01196l52.61304-17.88208c3.71497-1.26416,7.74792.72485,9.01294,4.43994l9.59802,28.23096c1.26404,3.71606-.72498,7.75415-4.43994,9.01294Z"/><path class="cls-4" d="M190.62646,107.42227l-63.93811,21.73022c-3.69299,1.25391-7.698-.71802-8.95691-4.41113l-15.90906-46.80396c-1.25403-3.69312.71802-7.698,4.41101-8.95093l63.93799-21.7312c3.69299-1.25293,7.69897.71899,8.95203,4.41211l15.90894,46.80298c1.25903,3.68799-.7179,7.69897-4.40588,8.9519"/><path class="cls-2" d="M190.62646,107.42227l-63.93811,21.73022c-3.69299,1.25391-7.698-.71802-8.95691-4.41113l-15.90906-46.80396c-1.25403-3.69312.71802-7.698,4.41101-8.95093l63.93799-21.7312c3.69299-1.25293,7.69897.71899,8.95203,4.41211l15.90894,46.80298c1.25903,3.68799-.7179,7.69897-4.40588,8.9519Z"/><path class="cls-3" d="M75.16748,197.63028c7.02991-17.00684,14.05994-34.0188,21.08997-51.0249,1.01392-2.45703,2.03296-4.91309,3.047-7.36987,1.37-3.30908-4.01697-4.7522-5.37-1.48218-7.03003,17.00708-14.06006,34.01904-21.09009,51.02612-1.01392,2.45605-2.03296,4.91284-3.047,7.3689-1.37,3.30908,4.01611,4.75195,5.37012,1.48193"/><path class="cls-3" d="M136.00244,195.61392c-7.82703-18.28784-15.65906-36.56982-23.48511-54.85791-1.10901-2.59009-2.21692-5.18091-3.32593-7.76489-1.40308-3.28711-6.20508-.45117-4.81201,2.81299,7.82593,18.28784,15.65796,36.56982,23.48499,54.85791,1.10803,2.59009,2.21704,5.17993,3.32495,7.76514,1.41003,3.28101,6.21106.4458,4.81311-2.81323"/><path class="cls-3" d="M99.64965,138.62246v58.26709c0,3.58203,5.56995,3.59302,5.56995,0v-58.26709c0-3.58691-5.56995-3.59277-5.56995,0"/><path class="cls-3" d="M81.38977,187.12442h41.25989c3.58203,0,3.59302-5.5708,0-5.5708h-41.25989c-3.58801,0-3.59302,5.5708,0,5.5708"/><path class="cls-3" d="M97.30444,141.03433l10.22192-3.92676c3.31396-1.27002,1.87207-6.66211-1.48193-5.37012l-10.22205,3.927c-3.30896,1.27002-1.87097,6.65698,1.48206,5.36987"/></svg>