<?xml version="1.0" encoding="UTF-8"?>
<svg id="_Слой_1" data-name="Слой 1" xmlns="http://www.w3.org/2000/svg" viewBox="0 0 227.23882 227.23855">
  <defs>
    <style>
      .cls-1 {
        stroke-width: 5.881px;
      }

      .cls-1, .cls-2, .cls-3 {
        fill: none;
        stroke: #aac419;
        stroke-miterlimit: 5.57;
      }

      .cls-2 {
        stroke-width: 6.025px;
      }

      .cls-4 {
        fill: #ffd03c;
        stroke-width: 0px;
      }

      .cls-3 {
        stroke-width: 5.57px;
      }
    </style>
  </defs>
  <path class="cls-3" d="M35.24777,35.24722c43.28271-43.28296,113.45996-43.28296,156.74365,0,43.2832,43.28418,43.2832,113.46008,0,156.74402-43.28369,43.28308-113.45996,43.28308-156.74365,0-43.28418-43.28394-43.2832-113.46082,0-156.74402Z"/>
  <path class="cls-4" d="M92.15744,36.2604h-34.03467v139.97388h125.93213v-33.01587c-14.41699-17.14014-75.68115-88.44824-91.89746-106.95801M87.17892,146.02017v-65.72583l58.38965,65.72583h-58.38965Z"/>
  <path class="cls-3" d="M92.15744,36.2604h-34.03467v139.97388h125.93213v-33.01587c-14.41699-17.14014-75.68115-88.44824-91.89746-106.95801ZM87.17892,146.02017v-65.72583l58.38965,65.72583h-58.38965Z"/>
  <line class="cls-2" x1="97.43966" y1="46.84927" x2="86.38742" y2="56.54239"/>
  <line class="cls-3" x1="108.20724" y1="57.46646" x2="101.19894" y2="63.0375"/>
  <line class="cls-3" x1="115.66037" y1="68.05044" x2="104.92013" y2="76.58462"/>
  <line class="cls-3" x1="124.59542" y1="77.02432" x2="117.58224" y2="82.60049"/>
  <line class="cls-1" x1="133.81466" y1="88.90615" x2="122.06662" y2="97.59634"/>
  <line class="cls-3" x1="142.72726" y1="99.50137" x2="135.71408" y2="105.07754"/>
  <line class="cls-3" x1="152.88791" y1="110.24112" x2="142.15353" y2="118.76919"/>
  <line class="cls-3" x1="162.06759" y1="118.71377" x2="155.05441" y2="124.28482"/>
  <line class="cls-3" x1="169.75509" y1="129.21963" x2="159.02072" y2="137.75381"/>
</svg>