<?xml version="1.0" encoding="UTF-8"?>
<svg id="_Слой_1" data-name="Слой 1" xmlns="http://www.w3.org/2000/svg" viewBox="0 0 227.23888 227.23855">
  <defs>
    <style>
      .cls-1 {
        stroke: #b8e87b;
      }

      .cls-1, .cls-2 {
        stroke-width: .557px;
      }

      .cls-1, .cls-2, .cls-3 {
        fill: none;
        stroke-miterlimit: 5.57;
      }

      .cls-2, .cls-3 {
        stroke: #aac419;
      }

      .cls-4 {
        fill: #ffd03c;
      }

      .cls-4, .cls-5 {
        stroke-width: 0px;
      }

      .cls-3 {
        stroke-width: 5.57px;
      }

      .cls-5 {
        fill: #aac419;
      }
    </style>
  </defs>
  <path class="cls-3" d="M35.24768,35.24722c43.28394-43.28296,113.45996-43.28296,156.7439,0,43.28308,43.28418,43.28308,113.46021,0,156.74402-43.28394,43.28308-113.45996,43.28308-156.7439,0-43.28308-43.28381-43.28406-113.45984,0-156.74402Z"/>
  <path class="cls-4" d="M72.65063,126.64981l-22.94507,7.79907c-3.31396,1.125-6.91296-.646-8.03796-3.96094l-3.59802-10.58398c-1.12598-3.31396.646-6.91309,3.95996-8.03809l22.94507-7.79883c3.31396-1.125,6.91296.646,8.03796,3.96094l3.599,10.58887c1.125,3.30908-.64697,6.90796-3.96094,8.03296"/>
  <path class="cls-1" d="M72.65063,126.64981l-22.94507,7.79907c-3.31396,1.125-6.91296-.646-8.03796-3.96094l-3.59802-10.58398c-1.12598-3.31396.646-6.91309,3.95996-8.03809l22.94507-7.79883c3.31396-1.125,6.91296.646,8.03796,3.96094l3.599,10.58887c1.125,3.30908-.64697,6.90796-3.96094,8.03296"/>
  <path class="cls-3" d="M72.65063,126.64981l-22.94507,7.79907c-3.31396,1.125-6.91296-.646-8.03796-3.96094l-3.59802-10.58398c-1.12598-3.31396.646-6.91309,3.95996-8.03809l22.94507-7.79883c3.31396-1.125,6.91296.646,8.03796,3.96094l3.599,10.58887c1.125,3.30908-.64697,6.90796-3.96094,8.03296Z"/>
  <path class="cls-4" d="M131.01794,118.05459l-55.203,18.76123c-3.71606,1.26489-7.74902-.72412-9.01306-4.43921l-10.15002-29.86401c-1.26392-3.71484.72498-7.7478,4.44006-9.01196l55.203-18.76196c3.71594-1.26392,7.7489.72412,9.01294,4.43994l10.15002,29.86304c1.26404,3.71606-.72498,7.74902-4.43994,9.01294"/>
  <path class="cls-1" d="M131.01794,118.05459l-55.203,18.76123c-3.71606,1.26489-7.74902-.72412-9.01306-4.43921l-10.15002-29.86401c-1.26392-3.71484.72498-7.7478,4.44006-9.01196l55.203-18.76196c3.71594-1.26392,7.7489.72412,9.01294,4.43994l10.15002,29.86304c1.26404,3.71606-.72498,7.74902-4.43994,9.01294"/>
  <path class="cls-3" d="M131.01794,118.05459l-55.203,18.76123c-3.71606,1.26489-7.74902-.72412-9.01306-4.43921l-10.15002-29.86401c-1.26392-3.71484.72498-7.7478,4.44006-9.01196l55.203-18.76196c3.71594-1.26392,7.7489.72412,9.01294,4.43994l10.15002,29.86304c1.26404,3.71606-.72498,7.74902-4.43994,9.01294Z"/>
  <path class="cls-4" d="M191.02856,108.60147l-66.96802,22.76123c-3.68799,1.25293-7.6991-.71899-8.95203-4.41211l-16.71106-49.15894c-1.25391-3.69312.71802-7.69897,4.41199-8.95215l66.96802-22.76099c3.69299-1.25293,7.698.71899,8.95105,4.41211l16.71204,49.15894c1.25293,3.68799-.71899,7.69312-4.41199,8.9519"/>
  <path class="cls-3" d="M191.02856,108.60147l-66.96802,22.76123c-3.68799,1.25293-7.6991-.71899-8.95203-4.41211l-16.71106-49.15894c-1.25391-3.69312.71802-7.69897,4.41199-8.95215l66.96802-22.76099c3.69299-1.25293,7.698.71899,8.95105,4.41211l16.71204,49.15894c1.25293,3.68799-.71899,7.69312-4.41199,8.9519Z"/>
  <path class="cls-5" d="M75.17407,197.62881c7.02991-17.00696,14.05994-34.01892,21.08997-51.02588,1.01392-2.45605,2.03296-4.91309,3.047-7.3689,1.37-3.30908-4.01599-4.7522-5.37-1.48218-7.03003,17.00696-14.06006,34.01904-21.09009,51.02502-1.01392,2.45703-2.03296,4.91394-3.047,7.37-1.37,3.30896,4.01611,4.75195,5.37012,1.48193"/>
  <path class="cls-2" d="M75.17407,197.62881c7.02991-17.00696,14.05994-34.01892,21.08997-51.02588,1.01392-2.45605,2.03296-4.91309,3.047-7.3689,1.37-3.30908-4.01599-4.7522-5.37-1.48218-7.03003,17.00696-14.06006,34.01904-21.09009,51.02502-1.01392,2.45703-2.03296,4.91394-3.047,7.37-1.37,3.30896,4.01611,4.75195,5.37012,1.48193"/>
  <path class="cls-5" d="M136.00915,195.61221c-7.82703-18.28796-15.65906-36.56995-23.48511-54.85791-1.10901-2.59009-2.21692-5.18091-3.32593-7.76489-1.40308-3.28711-6.20508-.45117-4.81201,2.81299,7.82593,18.28784,15.65796,36.56982,23.48499,54.85791,1.10803,2.58997,2.21704,5.18091,3.32495,7.76501,1.40906,3.28101,6.20605.44592,4.81311-2.81311"/>
  <path class="cls-2" d="M136.00915,195.61221c-7.82703-18.28796-15.65906-36.56995-23.48511-54.85791-1.10901-2.59009-2.21692-5.18091-3.32593-7.76489-1.40308-3.28711-6.20508-.45117-4.81201,2.81299,7.82593,18.28784,15.65796,36.56982,23.48499,54.85791,1.10803,2.58997,2.21704,5.18091,3.32495,7.76501,1.40906,3.28101,6.20605.44592,4.81311-2.81311"/>
  <path class="cls-5" d="M99.65625,138.62075v58.26709c0,3.58191,5.56995,3.59302,5.56995,0v-58.26709c0-3.58179-5.56995-3.58691-5.56995,0"/>
  <path class="cls-2" d="M99.65625,138.62075v58.26709c0,3.58191,5.56995,3.59302,5.56995,0v-58.26709c0-3.58179-5.56995-3.58691-5.56995,0"/>
  <path class="cls-5" d="M81.39062,178.13211h41.25989c3.58203,0,3.59302-5.56995,0-5.56995h-41.25989c-3.58203,0-3.58704,5.56995,0,5.56995"/>
  <path class="cls-2" d="M81.39062,178.13211h41.25989c3.58203,0,3.59302-5.56995,0-5.56995h-41.25989c-3.58203,0-3.58704,5.56995,0,5.56995"/>
  <path class="cls-5" d="M97.31103,141.03286c3.40894-1.30884,6.81799-2.61792,10.22192-3.92676,3.31396-1.27002,1.87207-6.66309-1.48193-5.37012-3.40906,1.30908-6.81799,2.61792-10.22205,3.927-3.31396,1.27002-1.87695,6.65698,1.48206,5.36987"/>
  <path class="cls-2" d="M97.31103,141.03286c3.40894-1.30884,6.81799-2.61792,10.22192-3.92676,3.31396-1.27002,1.87207-6.66309-1.48193-5.37012-3.40906,1.30908-6.81799,2.61792-10.22205,3.927-3.31396,1.27002-1.87695,6.65698,1.48206,5.36987"/>
</svg>