<?xml version="1.0" encoding="UTF-8"?>
<svg id="_Слой_1" data-name="Слой 1" xmlns="http://www.w3.org/2000/svg" viewBox="0 0 227.23907 227.23858">
  <defs>
    <style>
      .cls-1 {
        stroke-width: 5.57px;
      }

      .cls-1, .cls-2 {
        fill: none;
        stroke: #81aafa;
        stroke-miterlimit: 5.57;
      }

      .cls-3 {
        fill: #dbeeff;
        stroke-width: 0px;
      }

      .cls-2 {
        stroke-width: .557px;
      }
    </style>
  </defs>
  <path class="cls-3" d="M114.08798,173.20816c0-4.573,34.82568-8.73999,78.97168-8.73999l.03906.54614-.43408-84.57715-13.4917-.56177"/>
  <path class="cls-1" d="M114.08798,173.20816c0-4.573,34.82568-8.73999,78.97168-8.73999l.03906.54614-.43408-84.57715-13.4917-.56177"/>
  <path class="cls-3" d="M113.43612,173.20816c0-4.573-35.73535-8.80078-79.88135-8.80078v.25l.229-84.44214,14.93994.22192"/>
  <path class="cls-1" d="M113.43612,173.20816c0-4.573-35.73535-8.80078-79.88135-8.80078v.25l.229-84.44214,14.93994.22192"/>
  <path class="cls-3" d="M113.13534,172.47842c0-8.7229-28.34229-16.00977-64.03809-16.00977v.2229-92.49194h.03271c35.05518,0,63.42529,7.05786,63.42529,15.78101"/>
  <path class="cls-2" d="M113.13534,172.47842c0-8.7229-28.34229-16.00977-64.03809-16.00977v.2229-92.49194h.03271c35.05518,0,63.42529,7.05786,63.42529,15.78101"/>
  <path class="cls-1" d="M113.13534,172.47842c0-8.7229-28.34229-16.00977-64.03809-16.00977v.2229-92.49194h.03271c35.05518,0,63.42529,7.05786,63.42529,15.78101"/>
  <path class="cls-3" d="M113.3746,79.98648c0-8.7229,29.11084-15.78076,65.08496-15.78076v92.68091-.18896c-35.57812,0-64.37207,7.05786-64.37207,15.78101h-.42822l-.86377-92.49219"/>
  <path class="cls-1" d="M113.3746,79.98648c0-8.7229,29.11084-15.78076,65.08496-15.78076v92.68091-.18896c-35.57812,0-64.37207,7.05786-64.37207,15.78101h-.42822l-.86377-92.49219"/>
  <path class="cls-1" d="M35.24813,35.24722c43.28271-43.28296,113.45996-43.28296,156.74268,0,43.28418,43.28418,43.28418,113.46021.00098,156.74414-43.28369,43.28296-113.45996,43.28296-156.74365,0-43.28418-43.28394-43.28418-113.46094,0-156.74414Z"/>
</svg>