<?xml version="1.0" encoding="UTF-8"?><svg id="_Слой_1" xmlns="http://www.w3.org/2000/svg" viewBox="0 0 227.23846 227.23846"><defs><style>.cls-1{stroke-width:5.125px;}.cls-1,.cls-2{fill:none;stroke:#ee7e7d;stroke-miterlimit:5.57;}.cls-3{fill:#fccd9a;}.cls-3,.cls-4{stroke-width:0px;}.cls-2{stroke-width:5.57px;}.cls-4{fill:#ffdae3;}</style></defs><path class="cls-2" d="M101.2059,33.76724c-1.63818,0-2.96436-1.29199-2.96436-2.89087,0-1.59302,1.32617-2.89111,2.96436-2.89111,1.6377,0,2.96289,1.29199,2.96289,2.89111-.00537,1.59888-1.3252,2.89087-2.96289,2.89087Z"/><path class="cls-2" d="M117.17709,33.76724c-1.63818,0-2.96436-1.29199-2.96436-2.89087,0-1.59302,1.32617-2.89111,2.96436-2.89111,1.6377,0,2.96289,1.29199,2.96289,2.89111,0,1.59888-1.32617,2.89087-2.96289,2.89087Z"/><path class="cls-2" d="M132.8851,33.76724c-1.63818,0-2.96338-1.29199-2.96338-2.89087,0-1.59302,1.3252-2.89111,2.96338-2.89111,1.6377,0,2.96387,1.29199,2.96387,2.89111,0,1.59888-1.32617,2.89087-2.96387,2.89087Z"/><path class="cls-2" d="M84.70639,33.76724c-1.63818,0-2.96338-1.29199-2.96338-2.89087,0-1.59302,1.3252-2.89111,2.96338-2.89111,1.6377,0,2.96387,1.29199,2.96387,2.89111-.00098,1.59888-1.32617,2.89087-2.96387,2.89087Z"/><path class="cls-2" d="M69.52133,33.76724c-1.63818,0-2.96436-1.29199-2.96436-2.89087,0-1.59302,1.32617-2.89111,2.96436-2.89111,1.6377,0,2.96289,1.29199,2.96289,2.89111,0,1.59888-1.3252,2.89087-2.96289,2.89087Z"/><path class="cls-2" d="M148.59945,33.76724c-1.63818,0-2.96436-1.29199-2.96436-2.89087,0-1.59302,1.32617-2.89111,2.96436-2.89111,1.6377,0,2.95752,1.29199,2.95752,2.89111,0,1.59888-1.31982,2.89087-2.95752,2.89087Z"/><path class="cls-2" d="M163.26107,33.76724c-1.63818,0-2.96436-1.29199-2.96436-2.89087,0-1.59302,1.32617-2.89111,2.96436-2.89111,1.6377,0,2.95752,1.29199,2.95752,2.89111.00635,1.59888-1.31982,2.89087-2.95752,2.89087Z"/><path class="cls-2" d="M100.42074,194.9374c-1.63818,0-2.96338-1.29199-2.96338-2.89087,0-1.59302,1.3252-2.89111,2.96338-2.89111,1.6377,0,2.96387,1.29199,2.96387,2.89111-.00635,1.59302-1.33203,2.89087-2.96387,2.89087Z"/><path class="cls-2" d="M116.39145,194.9374c-1.63818,0-2.96436-1.29199-2.96436-2.89087,0-1.59302,1.32617-2.89111,2.96436-2.89111,1.6377,0,2.96289,1.29199,2.96289,2.89111,0,1.59302-1.32617,2.89087-2.96289,2.89087Z"/><path class="cls-2" d="M132.09994,194.9374c-1.63818,0-2.96338-1.29199-2.96338-2.89087,0-1.59302,1.3252-2.89111,2.96338-2.89111,1.6377,0,2.96387,1.29199,2.96387,2.89111-.00098,1.59302-1.32617,2.89087-2.96387,2.89087Z"/><path class="cls-2" d="M83.92123,194.9374c-1.63818,0-2.96436-1.29199-2.96436-2.89087,0-1.59302,1.32617-2.89111,2.96436-2.89111,1.6377,0,2.96289,1.29199,2.96289,2.89111,0,1.59302-1.32617,2.89087-2.96289,2.89087Z"/><path class="cls-2" d="M68.73617,194.9374c-1.63818,0-2.96436-1.29199-2.96436-2.89087,0-1.59302,1.32617-2.89111,2.96436-2.89111,1.6377,0,2.96289,1.29199,2.96289,2.89111,0,1.59302-1.32617,2.89087-2.96289,2.89087Z"/><path class="cls-2" d="M147.8143,194.9374c-1.63818,0-2.96338-1.29199-2.96338-2.89087,0-1.59302,1.3252-2.89111,2.96338-2.89111,1.6377,0,2.95752,1.29199,2.95752,2.89111,0,1.59302-1.32568,2.89087-2.95752,2.89087Z"/><path class="cls-2" d="M162.47543,194.9374c-1.63818,0-2.96338-1.29199-2.96338-2.89087,0-1.59302,1.3252-2.89111,2.96338-2.89111,1.6377,0,2.95752,1.29199,2.95752,2.89111.00635,1.59302-1.31982,2.89087-2.95752,2.89087Z"/><path class="cls-3" d="M160.76596,160.52871h-89.79639c-3.10303,0-5.6377-2.53491-5.6377-5.63696v-86.86084c0-3.10205,2.53467-5.63696,5.6377-5.63696h89.79639c3.10254,0,5.63672,2.53491,5.63672,5.63696v86.86084c0,3.10205-2.53516,5.63696-5.63672,5.63696"/><path class="cls-4" d="M160.76596,160.52871h-89.79639c-3.10303,0-5.6377-2.53491-5.6377-5.63696v-86.86084c0-3.10205,2.53467-5.63696,5.6377-5.63696h89.79639c3.10254,0,5.63672,2.53491,5.63672,5.63696v86.86084c0,3.10205-2.53516,5.63696-5.63672,5.63696"/><path class="cls-2" d="M70.96884,62.39395h89.79614c3.11153,0,5.6377,2.52617,5.6377,5.6377v86.86011c0,3.11112-2.52584,5.63696-5.63696,5.63696h-89.79687c-3.11112,0-5.63696-2.52584-5.63696-5.63696v-86.86084c0-3.11112,2.52584-5.63696,5.63696-5.63696Z"/><path class="cls-3" d="M136.11654,133.4396h-40.49219c-1.39307,0-2.53418-1.14185-2.53418-2.53491v-38.88696c0-1.39307,1.14111-2.53491,2.53418-2.53491h40.49219c1.39258,0,2.53369,1.14185,2.53369,2.53491v38.88696c0,1.39893-1.14111,2.53491-2.53369,2.53491"/><line class="cls-2" x1="100.68246" y1="33.76724" x2="100.68246" y2="62.39346"/><line class="cls-2" x1="116.39145" y1="33.76724" x2="116.39145" y2="62.39346"/><line class="cls-2" x1="148.86166" y1="33.76724" x2="148.86166" y2="62.39346"/><line class="cls-2" x1="132.36703" y1="33.76724" x2="132.36703" y2="62.39346"/><line class="cls-2" x1="164.04672" y1="33.76724" x2="164.04672" y2="62.39346"/><line class="cls-2" x1="84.97348" y1="33.76724" x2="84.97348" y2="62.39346"/><line class="cls-2" x1="70.30648" y1="33.76724" x2="70.30648" y2="62.39346"/><line class="cls-2" x1="99.37387" y1="160.52871" x2="99.37387" y2="189.15493"/><line class="cls-2" x1="115.08188" y1="160.52871" x2="115.08188" y2="189.15493"/><line class="cls-2" x1="147.55209" y1="160.52871" x2="147.55209" y2="189.15493"/><line class="cls-2" x1="131.05844" y1="160.52871" x2="131.05844" y2="189.15493"/><line class="cls-2" x1="162.73764" y1="160.52871" x2="162.73764" y2="189.15493"/><line class="cls-2" x1="83.65902" y1="160.52871" x2="83.65902" y2="189.15493"/><line class="cls-2" x1="68.99789" y1="160.52871" x2="68.99789" y2="189.15493"/><line class="cls-2" x1="195.73129" y1="95.35977" x2="166.40219" y2="95.35977"/><line class="cls-2" x1="195.73129" y1="110.69522" x2="166.40219" y2="110.69522"/><line class="cls-2" x1="195.73129" y1="142.38565" x2="166.40219" y2="142.38565"/><line class="cls-2" x1="195.73129" y1="126.28701" x2="166.40219" y2="126.28701"/><line class="cls-2" x1="195.73129" y1="157.20865" x2="166.40219" y2="157.20865"/><line class="cls-2" x1="195.73129" y1="80.02993" x2="166.40219" y2="80.02993"/><line class="cls-2" x1="195.73129" y1="65.71377" x2="166.40219" y2="65.71377"/><line class="cls-2" x1="65.33236" y1="95.35977" x2="36.00326" y2="95.35977"/><line class="cls-2" x1="65.33236" y1="110.69522" x2="36.00326" y2="110.69522"/><line class="cls-2" x1="65.33236" y1="142.38565" x2="36.00326" y2="142.38565"/><line class="cls-2" x1="65.33236" y1="126.28701" x2="36.00326" y2="126.28701"/><line class="cls-2" x1="65.33236" y1="157.20865" x2="36.00326" y2="157.20865"/><line class="cls-2" x1="65.33236" y1="80.02993" x2="36.00326" y2="80.02993"/><line class="cls-2" x1="65.33236" y1="65.71377" x2="36.00326" y2="65.71377"/><path class="cls-3" d="M156.32016,80.02993c0,3.74316-3.1084,6.77417-6.94043,6.77417-3.83301,0-6.94092-3.03101-6.94092-6.77417,0-3.73779,3.10791-6.77393,6.94092-6.77393,3.8374,0,6.94043,3.03101,6.94043,6.77393"/><path class="cls-2" d="M156.32016,80.02993c0,3.74316-3.1084,6.77417-6.94043,6.77417-3.83301,0-6.94092-3.03101-6.94092-6.77417,0-3.73779,3.10791-6.77393,6.94092-6.77393,3.8374,0,6.94043,3.03101,6.94043,6.77393Z"/><path class="cls-3" d="M91.12338,142.38565c0,3.74316-3.1084,6.77417-6.94043,6.77417-3.83301,0-6.94092-3.03101-6.94092-6.77417,0-3.73779,3.10791-6.77393,6.94092-6.77393,3.83203,0,6.94043,3.03101,6.94043,6.77393"/><path class="cls-2" d="M91.12338,142.38565c0,3.74316-3.1084,6.77417-6.94043,6.77417-3.83301,0-6.94092-3.03101-6.94092-6.77417,0-3.73779,3.10791-6.77393,6.94092-6.77393,3.83203,0,6.94043,3.03101,6.94043,6.77393Z"/><path class="cls-3" d="M156.32016,142.38565c0,3.74316-3.1084,6.77417-6.94043,6.77417-3.83301,0-6.94092-3.03101-6.94092-6.77417,0-3.73779,3.10791-6.77393,6.94092-6.77393,3.8374,0,6.94043,3.03101,6.94043,6.77393"/><path class="cls-2" d="M156.32016,142.38565c0,3.74316-3.1084,6.77417-6.94043,6.77417-3.83301,0-6.94092-3.03101-6.94092-6.77417,0-3.73779,3.10791-6.77393,6.94092-6.77393,3.8374,0,6.94043,3.03101,6.94043,6.77393Z"/><path class="cls-3" d="M91.12338,80.02993c0,3.74316-3.1084,6.77417-6.94043,6.77417-3.83301,0-6.94092-3.03101-6.94092-6.77417,0-3.73779,3.10791-6.77393,6.94092-6.77393,3.83203,0,6.94043,3.03101,6.94043,6.77393"/><path class="cls-2" d="M91.12338,80.02993c0,3.74316-3.1084,6.77417-6.94043,6.77417-3.83301,0-6.94092-3.03101-6.94092-6.77417,0-3.73779,3.10791-6.77393,6.94092-6.77393,3.83203,0,6.94043,3.03101,6.94043,6.77393Z"/><path class="cls-2" d="M202.1766,126.28701c0,1.59912-1.32617,2.89111-2.96436,2.89111-1.6377,0-2.96289-1.29199-2.96289-2.89111,0-1.59888,1.3252-2.89087,2.96289-2.89087,1.63818,0,2.96436,1.29199,2.96436,2.89087Z"/><path class="cls-2" d="M202.1766,110.69522c0,1.59912-1.32617,2.89111-2.96436,2.89111-1.6377,0-2.96289-1.29199-2.96289-2.89111,0-1.59888,1.3252-2.89087,2.96289-2.89087,1.63818,0,2.96436,1.29199,2.96436,2.89087Z"/><path class="cls-2" d="M202.1766,95.35977c0,1.59912-1.32617,2.89111-2.96436,2.89111-1.6377,0-2.96289-1.29199-2.96289-2.89111,0-1.59888,1.3252-2.89087,2.96289-2.89087,1.63818,0,2.96436,1.2981,2.96436,2.89087Z"/><path class="cls-2" d="M202.1766,142.38565c0,1.59912-1.32617,2.89111-2.96436,2.89111-1.6377,0-2.96289-1.29199-2.96289-2.89111,0-1.59888,1.3252-2.89087,2.96289-2.89087,1.63818,0,2.96436,1.29199,2.96436,2.89087Z"/><path class="cls-2" d="M202.1766,157.20865c0,1.59912-1.32617,2.89111-2.96436,2.89111-1.6377,0-2.96289-1.29199-2.96289-2.89111,0-1.59888,1.3252-2.89087,2.96289-2.89087,1.63818,0,2.96436,1.29199,2.96436,2.89087Z"/><path class="cls-2" d="M202.1766,80.02993c0,1.59912-1.32617,2.89111-2.96436,2.89111-1.6377,0-2.96289-1.29199-2.96289-2.89111,0-1.59888,1.3252-2.89087,2.96289-2.89087,1.63818,0,2.96436,1.29199,2.96436,2.89087Z"/><path class="cls-2" d="M202.1766,65.71377c0,1.59912-1.32617,2.89111-2.96436,2.89111-1.6377,0-2.96289-1.29199-2.96289-2.89111,0-1.59888,1.3252-2.89087,2.96289-2.89087,1.63818,0,2.96436,1.2981,2.96436,2.89087Z"/><path class="cls-2" d="M36.00375,125.51822c0,1.59912-1.32617,2.89111-2.95801,2.89111-1.63818,0-2.96338-1.29199-2.96338-2.89111,0-1.59888,1.3252-2.89087,2.96338-2.89087,1.63184,0,2.95801,1.29199,2.95801,2.89087Z"/><path class="cls-2" d="M36.00375,109.92666c0,1.59912-1.32617,2.89111-2.95801,2.89111-1.63818,0-2.96338-1.29199-2.96338-2.89111,0-1.59277,1.3252-2.89087,2.96338-2.89087,1.63184,0,2.95801,1.2981,2.95801,2.89087Z"/><path class="cls-2" d="M36.00375,94.59658c0,1.59912-1.32617,2.89111-2.95801,2.89111-1.63818,0-2.96338-1.29199-2.96338-2.89111,0-1.59888,1.3252-2.89087,2.96338-2.89087,1.63184,0,2.95801,1.29199,2.95801,2.89087Z"/><path class="cls-2" d="M36.00375,141.61685c0,1.59912-1.32617,2.89111-2.95801,2.89111-1.63818,0-2.96338-1.29199-2.96338-2.89111,0-1.59888,1.3252-2.89087,2.96338-2.89087,1.63184,0,2.95801,1.2981,2.95801,2.89087Z"/><path class="cls-2" d="M36.00375,156.43985c0,1.59912-1.32617,2.89111-2.95801,2.89111-1.63818,0-2.96338-1.29199-2.96338-2.89111,0-1.59888,1.3252-2.89087,2.96338-2.89087,1.63184,0,2.95801,1.2981,2.95801,2.89087Z"/><path class="cls-2" d="M36.00375,79.26114c0,1.59912-1.32617,2.89111-2.95801,2.89111-1.63818,0-2.96338-1.29199-2.96338-2.89111,0-1.59888,1.3252-2.89087,2.96338-2.89087,1.63184,0,2.95801,1.29199,2.95801,2.89087Z"/><path class="cls-2" d="M36.00375,64.95059c0,1.59912-1.32617,2.89111-2.95801,2.89111-1.63818,0-2.96338-1.29199-2.96338-2.89111,0-1.59888,1.3252-2.89087,2.96338-2.89087,1.63184,0,2.95801,1.29199,2.95801,2.89087Z"/><path class="cls-3" d="M152.34311,80.02993c0,1.59912-1.32617,2.89111-2.95801,2.89111-1.63818,0-2.96338-1.29199-2.96338-2.89111,0-1.59888,1.3252-2.89087,2.96338-2.89087,1.63184,0,2.95801,1.29199,2.95801,2.89087"/><path class="cls-2" d="M152.34311,80.02993c0,1.59912-1.32617,2.89111-2.95801,2.89111-1.63818,0-2.96338-1.29199-2.96338-2.89111,0-1.59888,1.3252-2.89087,2.96338-2.89087,1.63184,0,2.95801,1.29199,2.95801,2.89087Z"/><path class="cls-3" d="M152.34311,142.38565c0,1.59912-1.32617,2.89111-2.95801,2.89111-1.63818,0-2.96338-1.29199-2.96338-2.89111,0-1.59888,1.3252-2.89087,2.96338-2.89087,1.63184,0,2.95801,1.29199,2.95801,2.89087"/><path class="cls-2" d="M152.34311,142.38565c0,1.59912-1.32617,2.89111-2.95801,2.89111-1.63818,0-2.96338-1.29199-2.96338-2.89111,0-1.59888,1.3252-2.89087,2.96338-2.89087,1.63184,0,2.95801,1.29199,2.95801,2.89087Z"/><path class="cls-3" d="M87.14633,142.38565c0,1.59912-1.32617,2.89111-2.96338,2.89111-1.63867,0-2.96387-1.29199-2.96387-2.89111,0-1.59888,1.3252-2.89087,2.96387-2.89087,1.63721,0,2.96338,1.29199,2.96338,2.89087"/><path class="cls-2" d="M87.14633,142.38565c0,1.59912-1.32617,2.89111-2.96338,2.89111-1.63867,0-2.96387-1.29199-2.96387-2.89111,0-1.59888,1.3252-2.89087,2.96387-2.89087,1.63721,0,2.96338,1.29199,2.96338,2.89087Z"/><path class="cls-3" d="M87.14633,80.02993c0,1.59912-1.32617,2.89111-2.96338,2.89111-1.63867,0-2.96387-1.29199-2.96387-2.89111,0-1.59888,1.3252-2.89087,2.96387-2.89087,1.63721,0,2.96338,1.29199,2.96338,2.89087"/><path class="cls-2" d="M87.14633,80.02993c0,1.59912-1.32617,2.89111-2.96338,2.89111-1.63867,0-2.96387-1.29199-2.96387-2.89111,0-1.59888,1.3252-2.89087,2.96387-2.89087,1.63721,0,2.96338,1.29199,2.96338,2.89087Z"/><path class="cls-2" d="M35.2474,35.24722c43.28369-43.28296,113.45996-43.28296,156.74365,0,43.2832,43.28418,43.2832,113.46021,0,156.74414-43.28369,43.28296-113.45996,43.28296-156.74365-.00098-43.2832-43.28296-43.2832-113.45996,0-156.74316Z"/><path class="cls-4" d="M135.431,129.89102h-38.07422c-1.34326,0-2.43408-1.03589-2.43408-2.30591v-36.20801c0-1.27002,1.09717-2.30591,2.43408-2.30591h38.07422c1.34277,0,2.43457,1.03589,2.43457,2.30591v36.20801c0,1.27002-1.09766,2.30591-2.43457,2.30591"/><path class="cls-1" d="M135.431,129.89102h-38.07422c-1.34326,0-2.43408-1.03589-2.43408-2.30591v-36.20801c0-1.27002,1.09717-2.30591,2.43408-2.30591h38.07422c1.34277,0,2.43457,1.03589,2.43457,2.30591v36.20801c0,1.27002-1.09766,2.30591-2.43457,2.30591Z"/></svg>