<?xml version="1.0" encoding="UTF-8"?>
<svg id="_Слой_1" data-name="Слой 1" xmlns="http://www.w3.org/2000/svg" viewBox="0 0 227.23882 227.23858">
  <defs>
    <style>
      .cls-1 {
        stroke-width: 5.57px;
      }

      .cls-1, .cls-2 {
        fill: none;
        stroke: #81aafa;
        stroke-miterlimit: 5.57;
      }

      .cls-2 {
        stroke-width: 5.125px;
      }

      .cls-3 {
        fill: #dbeeff;
      }

      .cls-3, .cls-4 {
        stroke-width: 0px;
      }

      .cls-4 {
        fill: #a6daf0;
      }
    </style>
  </defs>
  <path class="cls-1" d="M98.59738,33.72696c-1.54346,0-2.79102-1.29199-2.79102-2.89087,0-1.59912,1.24756-2.89111,2.79102-2.89111,1.54199,0,2.79053,1.29199,2.79053,2.89111,0,1.59888-1.24756,2.89087-2.79053,2.89087Z"/>
  <path class="cls-1" d="M113.65988,33.72696c-1.54346,0-2.79102-1.29199-2.79102-2.89087,0-1.59912,1.24756-2.89111,2.79102-2.89111,1.54199,0,2.79053,1.29199,2.79053,2.89111,0,1.59888-1.25391,2.89087-2.79053,2.89087Z"/>
  <path class="cls-1" d="M128.46603,33.72696c-1.54346,0-2.79102-1.29199-2.79102-2.89087,0-1.59912,1.24756-2.89111,2.79102-2.89111,1.54297,0,2.79053,1.29199,2.79053,2.89111.00537,1.59888-1.24756,2.89087-2.79053,2.89087Z"/>
  <path class="cls-1" d="M83.04464,33.72696c-1.54346,0-2.79102-1.29199-2.79102-2.89087,0-1.59912,1.24756-2.89111,2.79102-2.89111,1.54199,0,2.79053,1.29199,2.79053,2.89111,0,1.59888-1.24854,2.89087-2.79053,2.89087Z"/>
  <path class="cls-1" d="M68.72824,33.72696c-1.54346,0-2.79102-1.29199-2.79102-2.89087,0-1.59912,1.24756-2.89111,2.79102-2.89111,1.54297,0,2.79053,1.29199,2.79053,2.89111,0,1.59888-1.24756,2.89087-2.79053,2.89087Z"/>
  <path class="cls-1" d="M143.27804,33.72696c-1.54346,0-2.79102-1.29199-2.79102-2.89087,0-1.59912,1.24756-2.89111,2.79102-2.89111,1.54199,0,2.79053,1.29199,2.79053,2.89111.00537,1.59888-1.24756,2.89087-2.79053,2.89087Z"/>
  <path class="cls-1" d="M157.10373,33.72696c-1.54248,0-2.79102-1.29199-2.79102-2.89087,0-1.59912,1.24854-2.89111,2.79102-2.89111,1.54297,0,2.79053,1.29199,2.79053,2.89111,0,1.59888-1.24756,2.89087-2.79053,2.89087Z"/>
  <path class="cls-1" d="M35.24777,35.24722c43.28271-43.28296,113.45996-43.28296,156.74365,0,43.2832,43.28418,43.2832,113.46021,0,156.74414-43.28369,43.28296-113.45996,43.28296-156.74365,0-43.28418-43.28394-43.2832-113.46094,0-156.74414Z"/>
  <path class="cls-4" d="M154.59201,160.55532h-84.3374c-3.01367,0-5.47607-2.46191-5.47607-5.47583v-87.23315c0-3.01392,2.4624-5.47583,5.47607-5.47583h84.3374c3.00781,0,5.47559,2.46191,5.47559,5.47583v87.23315c-.00098,3.00806-2.46875,5.47583-5.47559,5.47583"/>
  <path class="cls-3" d="M154.59201,160.55532h-84.3374c-3.01367,0-5.47607-2.46191-5.47607-5.47583v-87.23315c0-3.01392,2.4624-5.47583,5.47607-5.47583h84.3374c3.00781,0,5.47559,2.46191,5.47559,5.47583v87.23315c-.00098,3.00806-2.46875,5.47583-5.47559,5.47583"/>
  <path class="cls-1" d="M154.59201,160.55532h-84.3374c-3.01367,0-5.47607-2.46191-5.47607-5.47583v-87.23315c0-3.01392,2.4624-5.47583,5.47607-5.47583h84.3374c3.00781,0,5.47559,2.46191,5.47559,5.47583v87.23315c-.00098,3.00806-2.46875,5.47583-5.47559,5.47583Z"/>
  <path class="cls-4" d="M131.44064,133.44937h-38.03516c-1.354,0-2.46289-1.10791-2.46289-2.46191v-39.06006c0-1.354,1.10889-2.46191,2.46289-2.46191h38.03516c1.35352,0,2.46191,1.10791,2.46191,2.46191v39.06006c-.00537,1.354-1.1084,2.46191-2.46191,2.46191"/>
  <line class="cls-1" x1="98.10714" y1="33.72696" x2="98.10714" y2="62.36514"/>
  <line class="cls-1" x1="112.91867" y1="33.72696" x2="112.91867" y2="62.36514"/>
  <line class="cls-1" x1="143.52853" y1="33.72696" x2="143.52853" y2="62.36514"/>
  <line class="cls-1" x1="127.9758" y1="33.72696" x2="127.9758" y2="62.36514"/>
  <line class="cls-1" x1="157.84494" y1="33.72696" x2="157.84494" y2="62.36514"/>
  <line class="cls-1" x1="83.29513" y1="33.72696" x2="83.29513" y2="62.36514"/>
  <line class="cls-1" x1="69.46896" y1="33.72696" x2="69.46896" y2="62.36514"/>
  <line class="cls-1" x1="96.87033" y1="160.55532" x2="96.87033" y2="189.19351"/>
  <line class="cls-1" x1="111.68234" y1="160.55532" x2="111.68234" y2="189.19351"/>
  <line class="cls-1" x1="142.2922" y1="160.55532" x2="142.2922" y2="189.19351"/>
  <line class="cls-1" x1="126.73947" y1="160.55532" x2="126.73947" y2="189.19351"/>
  <line class="cls-1" x1="156.61398" y1="160.55532" x2="156.61398" y2="189.19351"/>
  <line class="cls-1" x1="82.0588" y1="160.55532" x2="82.0588" y2="189.19351"/>
  <line class="cls-1" x1="68.23263" y1="160.55532" x2="68.23263" y2="189.19351"/>
  <line class="cls-1" x1="187.71359" y1="95.34732" x2="160.0671" y2="95.34732"/>
  <line class="cls-1" x1="187.71359" y1="110.694" x2="160.0671" y2="110.694"/>
  <line class="cls-1" x1="187.71359" y1="142.40127" x2="160.0671" y2="142.40127"/>
  <line class="cls-1" x1="187.71359" y1="126.29141" x2="160.0671" y2="126.29141"/>
  <line class="cls-1" x1="187.71359" y1="157.22964" x2="160.0671" y2="157.22964"/>
  <line class="cls-1" x1="187.71359" y1="80.00625" x2="160.0671" y2="80.00625"/>
  <line class="cls-1" x1="187.71359" y1="65.69033" x2="160.0671" y2="65.69033"/>
  <line class="cls-1" x1="64.77902" y1="95.34732" x2="37.12667" y2="95.34732"/>
  <line class="cls-1" x1="64.77902" y1="110.694" x2="37.12667" y2="110.694"/>
  <line class="cls-1" x1="64.77902" y1="142.40127" x2="37.12667" y2="142.40127"/>
  <line class="cls-1" x1="64.77902" y1="126.29141" x2="37.12667" y2="126.29141"/>
  <line class="cls-1" x1="64.77902" y1="157.22964" x2="37.12667" y2="157.22964"/>
  <line class="cls-1" x1="64.77902" y1="80.00625" x2="37.12667" y2="80.00625"/>
  <line class="cls-1" x1="64.77902" y1="65.69033" x2="37.12667" y2="65.69033"/>
  <path class="cls-4" d="M150.56417,80.00625c0,3.74316-2.93018,6.77417-6.54004,6.77417-3.61523,0-6.54004-3.03613-6.54004-6.77417,0-3.74292,2.92969-6.77393,6.54004-6.77393,3.60986,0,6.54004,3.03101,6.54004,6.77393"/>
  <path class="cls-1" d="M150.56417,80.00625c0,3.74316-2.93018,6.77417-6.54004,6.77417-3.61523,0-6.54004-3.03613-6.54004-6.77417,0-3.74292,2.92969-6.77393,6.54004-6.77393,3.60986,0,6.54004,3.03101,6.54004,6.77393Z"/>
  <path class="cls-4" d="M89.09396,142.40127c0,3.74316-2.93018,6.77417-6.54004,6.77417-3.61523,0-6.54004-3.03613-6.54004-6.77417,0-3.74292,2.93066-6.77393,6.54004-6.77393,3.60986-.00488,6.54004,3.03101,6.54004,6.77393"/>
  <path class="cls-1" d="M89.09396,142.40127c0,3.74316-2.93018,6.77417-6.54004,6.77417-3.61523,0-6.54004-3.03613-6.54004-6.77417,0-3.74292,2.93066-6.77393,6.54004-6.77393,3.60986-.00488,6.54004,3.03101,6.54004,6.77393Z"/>
  <path class="cls-4" d="M150.56417,142.40127c0,3.74316-2.93018,6.77417-6.54004,6.77417-3.61523,0-6.54004-3.03613-6.54004-6.77417,0-3.74292,2.92969-6.77393,6.54004-6.77393,3.60986-.00488,6.54004,3.03101,6.54004,6.77393"/>
  <path class="cls-1" d="M150.56417,142.40127c0,3.74316-2.93018,6.77417-6.54004,6.77417-3.61523,0-6.54004-3.03613-6.54004-6.77417,0-3.74292,2.92969-6.77393,6.54004-6.77393,3.60986-.00488,6.54004,3.03101,6.54004,6.77393Z"/>
  <path class="cls-4" d="M89.09396,80.00625c0,3.74316-2.93018,6.77417-6.54004,6.77417-3.61523,0-6.54004-3.03613-6.54004-6.77417,0-3.74292,2.93066-6.77393,6.54004-6.77393,3.60986,0,6.54004,3.03101,6.54004,6.77393"/>
  <path class="cls-1" d="M89.09396,80.00625c0,3.74316-2.93018,6.77417-6.54004,6.77417-3.61523,0-6.54004-3.03613-6.54004-6.77417,0-3.74292,2.93066-6.77393,6.54004-6.77393,3.60986,0,6.54004,3.03101,6.54004,6.77393Z"/>
  <path class="cls-1" d="M193.79074,126.29141c0,1.59912-1.24805,2.89111-2.79102,2.89111-1.54199,0-2.79102-1.29199-2.79102-2.89111,0-1.59888,1.24902-2.89087,2.79102-2.89087,1.54297,0,2.79102,1.29199,2.79102,2.89087Z"/>
  <path class="cls-1" d="M193.79074,110.694c0,1.59912-1.24805,2.89111-2.79102,2.89111-1.54199,0-2.79102-1.29199-2.79102-2.89111,0-1.59888,1.24902-2.89087,2.79102-2.89087,1.54297,0,2.79102,1.29199,2.79102,2.89087Z"/>
  <path class="cls-1" d="M193.79074,95.34732c0,1.59912-1.24805,2.89111-2.79102,2.89111-1.54199,0-2.79102-1.29199-2.79102-2.89111,0-1.59888,1.24902-2.89087,2.79102-2.89087,1.54297,0,2.79102,1.2981,2.79102,2.89087Z"/>
  <path class="cls-1" d="M193.79074,142.40127c0,1.59912-1.24805,2.89111-2.79102,2.89111-1.54199,0-2.79102-1.29199-2.79102-2.89111,0-1.59888,1.24902-2.89087,2.79102-2.89087,1.54297-.0061,2.79102,1.29199,2.79102,2.89087Z"/>
  <path class="cls-1" d="M193.79074,157.22964c0,1.59912-1.24805,2.89111-2.79102,2.89111-1.54199,0-2.79102-1.29199-2.79102-2.89111,0-1.59888,1.24902-2.89087,2.79102-2.89087,1.54297,0,2.79102,1.29199,2.79102,2.89087Z"/>
  <path class="cls-1" d="M193.79074,80.00625c0,1.59912-1.24805,2.89111-2.79102,2.89111-1.54199,0-2.79102-1.29199-2.79102-2.89111,0-1.59888,1.24902-2.89087,2.79102-2.89087,1.54297,0,2.79102,1.2981,2.79102,2.89087Z"/>
  <path class="cls-1" d="M193.79074,65.69033c0,1.59912-1.24805,2.89111-2.79102,2.89111-1.54199,0-2.79102-1.29199-2.79102-2.89111,0-1.59888,1.24902-2.89087,2.79102-2.89087,1.54297,0,2.79102,1.29199,2.79102,2.89087Z"/>
  <path class="cls-1" d="M37.12716,125.52261c0,1.59912-1.24805,2.89111-2.79102,2.89111-1.54199,0-2.79004-1.29199-2.79004-2.89111,0-1.59888,1.24805-2.89087,2.79004-2.89087,1.54297,0,2.79102,1.29199,2.79102,2.89087Z"/>
  <path class="cls-1" d="M37.12716,109.92544c0,1.59912-1.24805,2.89111-2.79102,2.89111-1.54199,0-2.79004-1.29199-2.79004-2.89111,0-1.59888,1.24805-2.89087,2.79004-2.89087,1.54297,0,2.79102,1.29199,2.79102,2.89087Z"/>
  <path class="cls-1" d="M37.12716,94.58438c0,1.59912-1.24805,2.89111-2.79102,2.89111-1.54199,0-2.79004-1.29199-2.79004-2.89111,0-1.59888,1.24805-2.89087,2.79004-2.89087,1.54297,0,2.79102,1.29199,2.79102,2.89087Z"/>
  <path class="cls-1" d="M37.12716,141.63247c0,1.59912-1.24805,2.89111-2.79102,2.89111-1.54199,0-2.79004-1.29199-2.79004-2.89111,0-1.59888,1.24805-2.89087,2.79004-2.89087,1.54297,0,2.79102,1.29199,2.79102,2.89087Z"/>
  <path class="cls-1" d="M37.12716,156.46109c0,1.59912-1.24805,2.89111-2.79102,2.89111-1.54199,0-2.79004-1.29199-2.79004-2.89111,0-1.59888,1.24805-2.89087,2.79004-2.89087,1.54297,0,2.79102,1.29199,2.79102,2.89087Z"/>
  <path class="cls-1" d="M37.12716,79.24331c0,1.59912-1.24805,2.89111-2.79102,2.89111-1.54199,0-2.79004-1.29199-2.79004-2.89111,0-1.59888,1.24805-2.89087,2.79004-2.89087,1.54297-.0061,2.79102,1.29199,2.79102,2.89087Z"/>
  <path class="cls-1" d="M37.12716,64.92154c0,1.59912-1.24805,2.89111-2.79102,2.89111-1.54199,0-2.79004-1.29199-2.79004-2.89111,0-1.59888,1.24805-2.89087,2.79004-2.89087,1.54297,0,2.79102,1.29199,2.79102,2.89087Z"/>
  <path class="cls-1" d="M97.85617,194.97525c-1.54248,0-2.79102-1.29199-2.79102-2.89087,0-1.59912,1.24854-2.89111,2.79102-2.89111,1.54297,0,2.79053,1.29199,2.79053,2.89111,0,1.59888-1.24756,2.89087-2.79053,2.89087Z"/>
  <path class="cls-1" d="M112.91867,194.97525c-1.54248,0-2.79102-1.29199-2.79102-2.89087,0-1.59912,1.24854-2.89111,2.79102-2.89111,1.54297,0,2.79053,1.29199,2.79053,2.89111,0,1.59888-1.25293,2.89087-2.79053,2.89087Z"/>
  <path class="cls-1" d="M127.72531,194.97525c-1.54346,0-2.79102-1.29199-2.79102-2.89087,0-1.59912,1.24756-2.89111,2.79102-2.89111,1.54199,0,2.79053,1.29199,2.79053,2.89111.00537,1.59888-1.24756,2.89087-2.79053,2.89087Z"/>
  <path class="cls-1" d="M82.30343,194.97525c-1.54248,0-2.79102-1.29199-2.79102-2.89087,0-1.59912,1.24854-2.89111,2.79102-2.89111,1.54297,0,2.79053,1.29199,2.79053,2.89111,0,1.59888-1.24756,2.89087-2.79053,2.89087Z"/>
  <path class="cls-1" d="M67.98751,194.97525c-1.54346,0-2.79102-1.29199-2.79102-2.89087,0-1.59912,1.24756-2.89111,2.79102-2.89111,1.54199,0,2.79053,1.29199,2.79053,2.89111,0,1.59888-1.24756,2.89087-2.79053,2.89087Z"/>
  <path class="cls-1" d="M142.53683,194.97525c-1.54248,0-2.79102-1.29199-2.79102-2.89087,0-1.59912,1.24854-2.89111,2.79102-2.89111,1.54297,0,2.79053,1.29199,2.79053,2.89111.00635,1.59888-1.24756,2.89087-2.79053,2.89087Z"/>
  <path class="cls-1" d="M156.363,194.97525c-1.54346,0-2.79102-1.29199-2.79102-2.89087,0-1.59912,1.24756-2.89111,2.79102-2.89111,1.54297,0,2.79053,1.29199,2.79053,2.89111,0,1.59888-1.24756,2.89087-2.79053,2.89087Z"/>
  <path class="cls-4" d="M146.81564,80.00625c0,1.59912-1.24805,2.89111-2.79102,2.89111-1.54199,0-2.79102-1.29199-2.79102-2.89111,0-1.59888,1.24902-2.89087,2.79102-2.89087,1.5376,0,2.79102,1.2981,2.79102,2.89087"/>
  <path class="cls-1" d="M146.81564,80.00625c0,1.59912-1.24805,2.89111-2.79102,2.89111-1.54199,0-2.79102-1.29199-2.79102-2.89111,0-1.59888,1.24902-2.89087,2.79102-2.89087,1.5376,0,2.79102,1.2981,2.79102,2.89087Z"/>
  <path class="cls-4" d="M146.81564,142.40127c0,1.59912-1.24805,2.89111-2.79102,2.89111-1.54199,0-2.79102-1.29199-2.79102-2.89111,0-1.59888,1.24902-2.89087,2.79102-2.89087,1.5376-.0061,2.79102,1.29199,2.79102,2.89087"/>
  <path class="cls-1" d="M146.81564,142.40127c0,1.59912-1.24805,2.89111-2.79102,2.89111-1.54199,0-2.79102-1.29199-2.79102-2.89111,0-1.59888,1.24902-2.89087,2.79102-2.89087,1.5376-.0061,2.79102,1.29199,2.79102,2.89087Z"/>
  <path class="cls-4" d="M85.34494,142.40127c0,1.59912-1.24805,2.89111-2.79102,2.89111-1.54199,0-2.79004-1.29199-2.79004-2.89111,0-1.59888,1.24805-2.89087,2.79004-2.89087,1.5376-.0061,2.79102,1.29199,2.79102,2.89087"/>
  <path class="cls-1" d="M85.34494,142.40127c0,1.59912-1.24805,2.89111-2.79102,2.89111-1.54199,0-2.79004-1.29199-2.79004-2.89111,0-1.59888,1.24805-2.89087,2.79004-2.89087,1.5376-.0061,2.79102,1.29199,2.79102,2.89087Z"/>
  <path class="cls-4" d="M85.34494,80.00625c0,1.59912-1.24805,2.89111-2.79102,2.89111-1.54199,0-2.79004-1.29199-2.79004-2.89111,0-1.59888,1.24805-2.89087,2.79004-2.89087,1.5376,0,2.79102,1.2981,2.79102,2.89087"/>
  <path class="cls-1" d="M85.34494,80.00625c0,1.59912-1.24805,2.89111-2.79102,2.89111-1.54199,0-2.79004-1.29199-2.79004-2.89111,0-1.59888,1.24805-2.89087,2.79004-2.89087,1.5376,0,2.79102,1.2981,2.79102,2.89087Z"/>
  <path class="cls-3" d="M132.69406,131.10415h-38.07422c-1.34326,0-2.43408-1.03589-2.43408-2.30591v-36.20801c0-1.27002,1.09717-2.30591,2.43408-2.30591h38.07422c1.3418,0,2.43359,1.03589,2.43359,2.30591v36.20801c0,1.26392-1.09668,2.30591-2.43359,2.30591"/>
  <path class="cls-2" d="M132.69406,131.10415h-38.07422c-1.34326,0-2.43408-1.03589-2.43408-2.30591v-36.20801c0-1.27002,1.09717-2.30591,2.43408-2.30591h38.07422c1.3418,0,2.43359,1.03589,2.43359,2.30591v36.20801c0,1.26392-1.09668,2.30591-2.43359,2.30591Z"/>
</svg>