<?xml version="1.0" encoding="UTF-8"?>
<svg id="_Слой_1" data-name="Слой 1" xmlns="http://www.w3.org/2000/svg" viewBox="0 0 227.23602 227.24114">
  <defs>
    <style>
      .cls-1 {
        fill: none;
        stroke: #81aafa;
        stroke-miterlimit: 5.57;
        stroke-width: 5.57px;
      }

      .cls-2 {
        fill: #81aafa;
        stroke-width: 0px;
      }
    </style>
  </defs>
  <path class="cls-1" d="M224.45102,113.62094c0,61.21411-49.62207,110.83521-110.83545,110.83521-61.20801,0-110.83057-49.62109-110.83057-110.83521S52.40756,2.785,113.61557,2.785c61.21338,0,110.83545,49.62207,110.83545,110.83594Z"/>
  <path class="cls-2" d="M126.22689,113.47055c0,7.10815-5.63721,12.87305-12.59521,12.87305s-12.59521-5.76489-12.59521-12.87305,5.63721-12.87378,12.59521-12.87378,12.59521,5.76587,12.59521,12.87378"/>
  <path class="cls-1" d="M126.22689,113.47055c0,7.10815-5.63721,12.87305-12.59521,12.87305s-12.59521-5.76489-12.59521-12.87305,5.63721-12.87378,12.59521-12.87378,12.59521,5.76587,12.59521,12.87378Z"/>
  <path class="cls-1" d="M76.8226,113.47055c0,53.59912,16.47754,97.0542,36.80957,97.0542s36.81006-43.4502,36.81006-97.0542c0-53.59888-16.48291-97.05396-36.81006-97.05396-20.33203.00513-36.80957,43.45508-36.80957,97.05396Z"/>
  <ellipse class="cls-1" cx="113.63253" cy="113.47073" rx="94.93201" ry="37.63397"/>
  <path class="cls-1" d="M83.4349,140.08065c36.83154,37.65601,78.34766,56.27319,92.72559,41.57812,14.37695-14.69507-3.83203-57.13599-40.66406-94.7981C98.65854,49.2037,57.14779,30.58773,42.76986,45.2828c-14.37744,14.69995,3.82764,57.14209,40.66504,94.79785Z"/>
  <path class="cls-1" d="M139.66293,140.08065c-36.8374,37.65601-78.34912,56.27319-92.72607,41.57812-14.37793-14.69507,3.83203-57.13599,40.66992-94.7981,36.83691-37.65698,78.34912-56.27295,92.72607-41.57788,14.37207,14.69995-3.83838,57.14209-40.66992,94.79785Z"/>
</svg>