<?xml version="1.0" encoding="UTF-8"?>
<svg id="_Слой_1" data-name="Слой 1" xmlns="http://www.w3.org/2000/svg" viewBox="0 0 227.24041 227.24114">
  <defs>
    <style>
      .cls-1 {
        stroke-width: .557px;
      }

      .cls-1, .cls-2 {
        fill: none;
        stroke: #ee7e7d;
        stroke-miterlimit: 5.57;
      }

      .cls-2 {
        stroke-width: 5.57px;
      }

      .cls-3 {
        fill: #ffdae3;
      }

      .cls-3, .cls-4, .cls-5 {
        stroke-width: 0px;
      }

      .cls-4 {
        fill: #ee7e7d;
      }

      .cls-5 {
        fill: #f57d7f;
      }
    </style>
  </defs>
  <circle class="cls-2" cx="113.62033" cy="113.62039" r="110.83576" transform="translate(-9.74475 216.5778) rotate(-84.84755)"/>
  <path class="cls-5" d="M169.01352,173.77084l-24.82324-37.07764,24.82324-36.36328c.875-1.28198.19531-3.04199-.99658-3.81104l-4.97998-3.19702c-1.32031-.84692-3.0083-.21191-3.81104.99707l-21.61133,32.49829-21.93262-32.49829c-.82422-1.33691-2.57324-1.74902-3.9043-.92505-.16699.10596-.32373.22314-.46777.36206l-4.26709,3.55396c-.89111.89697-1.0752,2.28394-.43506,3.37598l24.27295,36.00757-24.27295,36.72656c-.89697,1.35889-.1499,2.9458.99707,3.80981l4.26709,3.19702c1.25879.94702,3.04688.12817,3.81006-.99683l21.9502-32.36328,21.95068,32.36328c.79688,1.30396,2.479,1.74902,3.81006.99683l4.62402-2.84595c1.22559-.75195,1.85498-2.53491.99658-3.81006Z"/>
  <path class="cls-3" d="M178.99594,59.36972l-89.05518-.53491c-5.95508,32.7041-11.91016,65.41406-17.86523,98.11792-5.33105-16.9729-10.66699-33.95093-15.99805-50.9248-8.80078.26782-17.59668.53491-26.39795.802l-1.86572,8.53394,21.3291-.26709,18.92871,62.92407,11.73096-.26709c5.95508-34.13086,11.90918-68.26099,17.86426-102.38501l80.521,1.33105c.27881-5.77686.5459-11.55298.80811-17.33008"/>
  <path class="cls-4" d="M178.99594,56.58456l-89.05518-.53491c-1.13086-.00488-2.46826.86401-2.68506,2.04492-5.95508,32.7041-11.91016,65.41406-17.86523,98.11816h5.37012c-5.33105-16.97314-10.66797-33.95215-15.99805-50.92505-.35107-1.198-1.43799-2.02808-2.68506-2.04492-8.80176.26782-17.59766.53491-26.39893.802-1.24805.01685-2.33984.84692-2.68506,2.04492l-1.86572,8.53394c-.39014,1.50903.51807,3.04712,2.02197,3.43701.2168.05493.43994.08301.66309.08911l21.3291-.26807-2.68506-2.04395,18.92871,62.92383c.35107,1.198,1.43701,2.02808,2.68506,2.04419l11.73193-.26709c1.12402-.02808,2.47314-.84106,2.68506-2.04395,5.95508-34.13013,11.90918-68.26099,17.86426-102.38599l-2.68506,2.04492,80.521,1.33105c1.52588-.02808,2.75781-1.25903,2.78467-2.78491.26807-5.7771.53516-11.55322.80322-17.33008.16699-3.58203-5.40381-3.57593-5.5708,0-.26807,5.77686-.53516,11.55298-.80225,17.33008l2.78516-2.78516-80.521-1.33203c-1.11914-.01587-2.479.86914-2.68506,2.04517-5.95508,34.12988-11.91016,68.25488-17.86523,102.38501l2.68604-2.04419-11.73193.26709,2.68506,2.04395-18.92822-62.92383c-.35059-1.19702-1.43701-2.0271-2.68555-2.04419l-21.3291.26709,2.68506,3.5271,1.86572-8.53418-2.68506,2.04395c8.80127-.26782,17.59717-.53491,26.39893-.802l-2.68555-2.04492c5.33154,16.97314,10.66797,33.95215,15.99854,50.92603.76318,2.42798,4.85107,2.86304,5.36914,0,5.95508-32.70508,11.91016-65.41406,17.86523-98.1189l-2.68506,2.04492,89.05469.53394c3.58838.02295,3.59424-5.54785.00146-5.57007"/>
  <path class="cls-1" d="M178.99594,56.58456l-89.05518-.53491c-1.13086-.00488-2.46826.86401-2.68506,2.04492-5.95508,32.7041-11.91016,65.41406-17.86523,98.11816h5.37012c-5.33105-16.97314-10.66797-33.95215-15.99805-50.92505-.35107-1.198-1.43799-2.02808-2.68506-2.04492-8.80176.26782-17.59766.53491-26.39893.802-1.24805.01685-2.33984.84692-2.68506,2.04492l-1.86572,8.53394c-.39014,1.50903.51807,3.04712,2.02197,3.43701.2168.05493.43994.08301.66309.08911l21.3291-.26807-2.68506-2.04395,18.92871,62.92383c.35107,1.198,1.43701,2.02808,2.68506,2.04419l11.73193-.26709c1.12402-.02808,2.47314-.84106,2.68506-2.04395,5.95508-34.13013,11.90918-68.26099,17.86426-102.38599l-2.68506,2.04492,80.521,1.33105c1.52588-.02808,2.75781-1.25903,2.78467-2.78491.26807-5.7771.53516-11.55322.80322-17.33008.16699-3.58203-5.40381-3.57593-5.5708,0-.26807,5.77686-.53516,11.55298-.80225,17.33008l2.78516-2.78516-80.521-1.33203c-1.11914-.01587-2.479.86914-2.68506,2.04517-5.95508,34.12988-11.91016,68.25488-17.86523,102.38501l2.68604-2.04419-11.73193.26709,2.68506,2.04395-18.92822-62.92383c-.35059-1.19702-1.43701-2.0271-2.68555-2.04419l-21.3291.26709,2.68506,3.5271,1.86572-8.53418-2.68506,2.04395c8.80127-.26782,17.59717-.53491,26.39893-.802l-2.68555-2.04492c5.33154,16.97314,10.66797,33.95215,15.99854,50.92603.76318,2.42798,4.85107,2.86304,5.36914,0,5.95508-32.70508,11.91016-65.41406,17.86523-98.1189l-2.68506,2.04492,89.05469.53394c3.58838.02295,3.59424-5.54785.00146-5.57007Z"/>
</svg>