<?xml version="1.0" encoding="UTF-8"?>
<svg id="_Слой_1" data-name="Слой 1" xmlns="http://www.w3.org/2000/svg" viewBox="0 0 227.24139 227.24102">
  <defs>
    <style>
      .cls-1 {
        fill: #331013;
      }

      .cls-1, .cls-2, .cls-3, .cls-4 {
        stroke-width: 0px;
      }

      .cls-2 {
        fill: #b8e87c;
      }

      .cls-5 {
        stroke: #b8e87c;
      }

      .cls-5, .cls-6, .cls-7 {
        stroke-width: .557px;
      }

      .cls-5, .cls-6, .cls-7, .cls-8 {
        fill: none;
        stroke-miterlimit: 5.57;
      }

      .cls-6 {
        stroke: #331013;
      }

      .cls-7, .cls-8 {
        stroke: #aac419;
      }

      .cls-3 {
        fill: #ffd03c;
      }

      .cls-8 {
        stroke-width: 5.57px;
      }

      .cls-4 {
        fill: #aac419;
      }
    </style>
  </defs>
  <circle class="cls-8" cx="113.62106" cy="113.62085" r="110.83543" transform="translate(-47.06323 113.621) rotate(-45)"/>
  <path class="cls-3" d="M184.93441,171.98239H41.78402c-6.16064.05005-11.21289-4.87988-11.30176-11.04089v-93.87305c.08887-6.16089,5.13574-11.09692,11.30176-11.0459h143.15039c6.16064-.05103,11.21289,4.87891,11.30273,11.0459v93.87305c-.09521,6.16101-5.14209,11.09094-11.30273,11.04089"/>
  <path class="cls-5" d="M184.93441,171.98239H41.78402c-6.16064.05005-11.21289-4.87988-11.30176-11.04089v-93.87305c.08887-6.16089,5.13574-11.09692,11.30176-11.0459h143.15039c6.16064-.05103,11.21289,4.87891,11.30273,11.0459v93.87305c-.09521,6.16101-5.14209,11.09094-11.30273,11.04089"/>
  <path class="cls-8" d="M184.93441,171.98239H41.78402c-6.16064.05005-11.21289-4.87988-11.30176-11.04089v-93.87305c.08887-6.16089,5.13574-11.09692,11.30176-11.0459h143.15039c6.16064-.05103,11.21289,4.87891,11.30273,11.0459v93.87305c-.09521,6.16101-5.14209,11.09094-11.30273,11.04089Z"/>
  <line class="cls-8" x1="30.66586" y1="85.22787" x2="196.41586" y2="85.22787"/>
  <rect class="cls-1" x="107.92904" y="95.44955" width="13.44092" height="13.13501"/>
  <rect class="cls-6" x="107.92904" y="95.44955" width="13.44092" height="13.13501"/>
  <rect class="cls-1" x="107.92904" y="95.44955" width="13.44092" height="13.13501"/>
  <rect class="cls-4" x="107.92904" y="95.44955" width="13.44092" height="13.13501"/>
  <rect class="cls-7" x="107.92904" y="95.44955" width="13.44092" height="13.13501"/>
  <rect class="cls-1" x="137.27377" y="95.37753" width="13.44092" height="13.13501"/>
  <rect class="cls-6" x="137.27377" y="95.37753" width="13.44092" height="13.13501"/>
  <rect class="cls-1" x="137.27377" y="95.37753" width="13.44092" height="13.13501"/>
  <rect class="cls-4" x="137.27377" y="95.37753" width="13.44092" height="13.13501"/>
  <rect class="cls-7" x="137.27377" y="95.37753" width="13.44092" height="13.13501"/>
  <rect class="cls-1" x="166.62387" y="95.44955" width="13.44092" height="13.13501"/>
  <rect class="cls-6" x="166.62387" y="95.44955" width="13.44092" height="13.13501"/>
  <rect class="cls-1" x="166.62387" y="95.44955" width="13.44092" height="13.13501"/>
  <rect class="cls-4" x="166.62387" y="95.44955" width="13.44092" height="13.13501"/>
  <rect class="cls-7" x="166.62387" y="95.44955" width="13.44092" height="13.13501"/>
  <rect class="cls-1" x="47.0101" y="120.42758" width="13.44092" height="13.13501"/>
  <rect class="cls-6" x="47.0101" y="120.42758" width="13.44092" height="13.13501"/>
  <rect class="cls-1" x="47.0101" y="120.42758" width="13.44092" height="13.13501"/>
  <rect class="cls-4" x="47.0101" y="120.42758" width="13.44092" height="13.13501"/>
  <rect class="cls-7" x="47.0101" y="120.42758" width="13.44092" height="13.13501"/>
  <rect class="cls-1" x="77.68588" y="119.04037" width="13.44092" height="13.13501"/>
  <rect class="cls-6" x="77.68588" y="119.04037" width="13.44092" height="13.13501"/>
  <rect class="cls-1" x="77.68588" y="119.04037" width="13.44092" height="13.13501"/>
  <rect class="cls-4" x="77.68588" y="119.04037" width="13.44092" height="13.13501"/>
  <rect class="cls-7" x="77.68588" y="119.04037" width="13.44092" height="13.13501"/>
  <rect class="cls-1" x="108.36313" y="119.04037" width="13.44092" height="13.13501"/>
  <rect class="cls-6" x="108.36313" y="119.04037" width="13.44092" height="13.13501"/>
  <rect class="cls-1" x="108.36313" y="119.04037" width="13.44092" height="13.13501"/>
  <rect class="cls-4" x="108.36313" y="119.04037" width="13.44092" height="13.13501"/>
  <rect class="cls-7" x="108.36313" y="119.04037" width="13.44092" height="13.13501"/>
  <rect class="cls-1" x="137.27377" y="119.04037" width="13.44092" height="13.13501"/>
  <rect class="cls-6" x="137.27377" y="119.04037" width="13.44092" height="13.13501"/>
  <rect class="cls-1" x="137.27377" y="119.04037" width="13.44092" height="13.13501"/>
  <rect class="cls-4" x="137.27377" y="119.04037" width="13.44092" height="13.13501"/>
  <rect class="cls-7" x="137.27377" y="119.04037" width="13.44092" height="13.13501"/>
  <rect class="cls-1" x="166.62387" y="119.04037" width="13.44092" height="13.13501"/>
  <rect class="cls-6" x="166.62387" y="119.04037" width="13.44092" height="13.13501"/>
  <rect class="cls-1" x="166.62387" y="119.04037" width="13.44092" height="13.13501"/>
  <rect class="cls-4" x="166.62387" y="119.04037" width="13.44092" height="13.13501"/>
  <rect class="cls-7" x="166.62387" y="119.04037" width="13.44092" height="13.13501"/>
  <rect class="cls-1" x="47.0101" y="145.47848" width="13.44092" height="13.13501"/>
  <rect class="cls-6" x="47.0101" y="145.47848" width="13.44092" height="13.13501"/>
  <rect class="cls-1" x="47.0101" y="145.47848" width="13.44092" height="13.13501"/>
  <rect class="cls-4" x="47.0101" y="145.47848" width="13.44092" height="13.13501"/>
  <rect class="cls-7" x="47.0101" y="145.47848" width="13.44092" height="13.13501"/>
  <rect class="cls-1" x="77.68588" y="145.47848" width="13.44092" height="13.13501"/>
  <rect class="cls-6" x="77.68588" y="145.47848" width="13.44092" height="13.13501"/>
  <rect class="cls-1" x="77.68588" y="145.47848" width="13.44092" height="13.13501"/>
  <rect class="cls-4" x="77.68588" y="145.47848" width="13.44092" height="13.13501"/>
  <rect class="cls-7" x="77.68588" y="145.47848" width="13.44092" height="13.13501"/>
  <rect class="cls-1" x="108.36313" y="145.47848" width="13.44092" height="13.13501"/>
  <rect class="cls-6" x="108.36313" y="145.47848" width="13.44092" height="13.13501"/>
  <rect class="cls-1" x="108.36313" y="145.47848" width="13.44092" height="13.13501"/>
  <rect class="cls-4" x="108.36313" y="145.47848" width="13.44092" height="13.13501"/>
  <rect class="cls-7" x="108.36313" y="145.47848" width="13.44092" height="13.13501"/>
  <rect class="cls-1" x="137.49691" y="145.47848" width="13.44092" height="13.13501"/>
  <rect class="cls-6" x="137.49691" y="145.47848" width="13.44092" height="13.13501"/>
  <rect class="cls-1" x="137.49691" y="145.47848" width="13.44092" height="13.13501"/>
  <rect class="cls-4" x="137.49691" y="145.47848" width="13.44092" height="13.13501"/>
  <rect class="cls-7" x="137.49691" y="145.47848" width="13.44092" height="13.13501"/>
  <rect class="cls-1" x="166.62387" y="145.47848" width="13.44092" height="13.13501"/>
  <rect class="cls-6" x="166.62387" y="145.47848" width="13.44092" height="13.13501"/>
  <rect class="cls-1" x="166.62387" y="145.47848" width="13.44092" height="13.13501"/>
  <rect class="cls-4" x="166.62387" y="145.47848" width="13.44092" height="13.13501"/>
  <rect class="cls-7" x="166.62387" y="145.47848" width="13.44092" height="13.13501"/>
  <path class="cls-2" d="M173.40365,73.74179h-.11133c-2.67969-.00586-4.84668-2.17798-4.85791-4.85791v-23.41797c.00586-2.67896,2.17822-4.84595,4.85791-4.85693h.11133c2.67969.00488,4.84668,2.17798,4.85791,4.85693v23.41797c-.01221,2.67993-2.1792,4.84692-4.85791,4.85791"/>
  <path class="cls-5" d="M173.40365,73.74179h-.11133c-2.67969-.00586-4.84668-2.17798-4.85791-4.85791v-23.41797c.00586-2.67896,2.17822-4.84595,4.85791-4.85693h.11133c2.67969.00488,4.84668,2.17798,4.85791,4.85693v23.41797c-.01221,2.67993-2.1792,4.84692-4.85791,4.85791"/>
  <path class="cls-2" d="M173.40365,73.74179h-.11133c-2.67969-.00586-4.84668-2.17798-4.85791-4.85791v-23.41797c.00586-2.67896,2.17822-4.84595,4.85791-4.85693h.11133c2.67969.00488,4.84668,2.17798,4.85791,4.85693v23.41797c-.01221,2.67993-2.1792,4.84692-4.85791,4.85791"/>
  <path class="cls-5" d="M173.40365,73.74179h-.11133c-2.67969-.00586-4.84668-2.17798-4.85791-4.85791v-23.41797c.00586-2.67896,2.17822-4.84595,4.85791-4.85693h.11133c2.67969.00488,4.84668,2.17798,4.85791,4.85693v23.41797c-.01221,2.67993-2.1792,4.84692-4.85791,4.85791"/>
  <path class="cls-2" d="M173.40365,73.74179h-.11133c-2.67969-.00586-4.84668-2.17798-4.85791-4.85791v-23.41797c.00586-2.67896,2.17822-4.84595,4.85791-4.85693h.11133c2.67969.00488,4.84668,2.17798,4.85791,4.85693v23.41797c-.01221,2.67993-2.1792,4.84692-4.85791,4.85791"/>
  <path class="cls-5" d="M173.40365,73.74179h-.11133c-2.67969-.00586-4.84668-2.17798-4.85791-4.85791v-23.41797c.00586-2.67896,2.17822-4.84595,4.85791-4.85693h.11133c2.67969.00488,4.84668,2.17798,4.85791,4.85693v23.41797c-.01221,2.67993-2.1792,4.84692-4.85791,4.85791"/>
  <path class="cls-4" d="M173.29232,40.60849h.11084c2.67969,0,4.85791,2.17212,4.85791,4.85718v23.41895c0,2.67896-2.17285,4.85693-4.85791,4.85693h-.11084c-2.68018,0-4.85742-2.17188-4.85742-4.85693v-23.41895c0-2.68506,2.17236-4.85718,4.85742-4.85718"/>
  <path class="cls-7" d="M173.29208,40.60849h.11108c2.68115,0,4.85791,2.17676,4.85791,4.85791v23.41821c0,2.68061-2.17632,4.85693-4.85693,4.85693h-.1123c-2.68061,0-4.85693-2.17632-4.85693-4.85693v-23.41895c0-2.68075,2.17643-4.85718,4.85718-4.85718Z"/>
  <path class="cls-2" d="M53.78939,72.65536h-.1123c-2.67871-.00586-4.8457-2.17798-4.85693-4.85693v-23.41895c.00488-2.67896,2.17822-4.84595,4.85693-4.85693h.1123c2.67871.00586,4.8457,2.17798,4.85693,4.85693v23.41895c-.01123,2.68506-2.17822,4.85107-4.85693,4.85693"/>
  <path class="cls-5" d="M53.78939,72.65536h-.1123c-2.67871-.00586-4.8457-2.17798-4.85693-4.85693v-23.41895c.00488-2.67896,2.17822-4.84595,4.85693-4.85693h.1123c2.67871.00586,4.8457,2.17798,4.85693,4.85693v23.41895c-.01123,2.68506-2.17822,4.85107-4.85693,4.85693"/>
  <path class="cls-2" d="M53.78939,72.65536h-.1123c-2.67871-.00586-4.8457-2.17798-4.85693-4.85693v-23.41895c.00488-2.67896,2.17822-4.84595,4.85693-4.85693h.1123c2.67871.00586,4.8457,2.17798,4.85693,4.85693v23.41895c-.01123,2.68506-2.17822,4.85107-4.85693,4.85693"/>
  <path class="cls-5" d="M53.78939,72.65536h-.1123c-2.67871-.00586-4.8457-2.17798-4.85693-4.85693v-23.41895c.00488-2.67896,2.17822-4.84595,4.85693-4.85693h.1123c2.67871.00586,4.8457,2.17798,4.85693,4.85693v23.41895c-.01123,2.68506-2.17822,4.85107-4.85693,4.85693"/>
  <path class="cls-2" d="M53.78939,72.65536h-.1123c-2.67871-.00586-4.8457-2.17798-4.85693-4.85693v-23.41895c.00488-2.67896,2.17822-4.84595,4.85693-4.85693h.1123c2.67871.00586,4.8457,2.17798,4.85693,4.85693v23.41895c-.01123,2.68506-2.17822,4.85107-4.85693,4.85693"/>
  <path class="cls-5" d="M53.78939,72.65536h-.1123c-2.67871-.00586-4.8457-2.17798-4.85693-4.85693v-23.41895c.00488-2.67896,2.17822-4.84595,4.85693-4.85693h.1123c2.67871.00586,4.8457,2.17798,4.85693,4.85693v23.41895c-.01123,2.68506-2.17822,4.85107-4.85693,4.85693"/>
  <path class="cls-4" d="M53.67758,39.52792h.11182c2.67871,0,4.85693,2.17212,4.85693,4.85718v23.41895c0,2.67896-2.17188,4.85693-4.85693,4.85693h-.11182c-2.6792,0-4.85742-2.17285-4.85742-4.85693v-23.41895c0-2.68506,2.17236-4.85718,4.85742-4.85718"/>
  <rect class="cls-7" x="48.82016" y="39.52792" width="9.82617" height="33.13306" rx="4.85718" ry="4.85718"/>
</svg>