<?xml version="1.0" encoding="UTF-8"?>
<svg id="_Слой_1" data-name="Слой 1" xmlns="http://www.w3.org/2000/svg" viewBox="0 0 227.23846 227.23855">
  <defs>
    <style>
      .cls-1 {
        stroke-width: 5.152px;
      }

      .cls-1, .cls-2, .cls-3 {
        stroke: #aac419;
      }

      .cls-1, .cls-2, .cls-3, .cls-4 {
        fill: none;
        stroke-miterlimit: 5.57;
      }

      .cls-5 {
        fill: #787974;
      }

      .cls-5, .cls-6, .cls-7, .cls-8 {
        stroke-width: 0px;
      }

      .cls-2, .cls-4 {
        stroke-width: .557px;
      }

      .cls-6 {
        fill: #d8ffe8;
      }

      .cls-7 {
        fill: #ffd03c;
      }

      .cls-3 {
        stroke-width: 5.57px;
      }

      .cls-8 {
        fill: #aac419;
      }

      .cls-4 {
        stroke: #718c09;
      }
    </style>
  </defs>
  <path class="cls-3" d="M35.2474,35.24722c43.28369-43.28296,113.45996-43.28296,156.74365,0,43.2832,43.28418,43.2832,113.46008,0,156.74402-43.28369,43.28308-113.45996,43.28308-156.74365,0-43.2832-43.28394-43.2832-113.46082,0-156.74402Z"/>
  <path class="cls-5" d="M158.34506,160.07144h-89.30029c-3.15283,0-5.73193-2.57898-5.73193-5.73193v-90.33594c0-3.15308,2.5791-5.73193,5.73193-5.73193h89.30029c3.15283,0,5.73193,2.57886,5.73193,5.73193v90.33594c0,3.15295-2.5791,5.73193-5.73193,5.73193"/>
  <path class="cls-6" d="M158.34506,160.07144h-89.30029c-3.15283,0-5.73193-2.57898-5.73193-5.73193v-90.33594c0-3.15308,2.5791-5.73193,5.73193-5.73193h89.30029c3.15283,0,5.73193,2.57886,5.73193,5.73193v90.33594c0,3.15295-2.5791,5.73193-5.73193,5.73193"/>
  <path class="cls-4" d="M158.34506,160.07144h-89.30029c-3.15283,0-5.73193-2.57898-5.73193-5.73193v-90.33594c0-3.15308,2.5791-5.73193,5.73193-5.73193h89.30029c3.15283,0,5.73193,2.57886,5.73193,5.73193v90.33594c0,3.15295-2.5791,5.73193-5.73193,5.73193"/>
  <path class="cls-7" d="M158.34506,160.07144h-89.30029c-3.15283,0-5.73193-2.57898-5.73193-5.73193v-90.33594c0-3.15308,2.5791-5.73193,5.73193-5.73193h89.30029c3.15283,0,5.73193,2.57886,5.73193,5.73193v90.33594c0,3.15295-2.5791,5.73193-5.73193,5.73193"/>
  <rect class="cls-3" x="63.31283" y="58.27163" width="100.76416" height="101.7998" rx="5.73193" ry="5.73193"/>
  <path class="cls-5" d="M133.82943,127.99112h-40.27441c-1.41504,0-2.57373-1.05786-2.57373-2.35083v-36.91504c0-1.29297,1.15869-2.35107,2.57373-2.35107h40.27441c1.41455,0,2.57861,1.05811,2.57861,2.35107v36.91504c-.00586,1.29297-1.16406,2.35083-2.57861,2.35083"/>
  <path class="cls-7" d="M133.24984,127.99112h-38.07422c-1.34326,0-2.43408-1.03589-2.43408-2.30591v-36.20801c0-1.27002,1.09717-2.30688,2.43408-2.30688h38.07422c1.34277,0,2.43457,1.03687,2.43457,2.30688v36.20801c-.00098,1.27002-1.09277,2.30591-2.43457,2.30591"/>
  <path class="cls-2" d="M133.24984,127.99112h-38.07422c-1.34326,0-2.43408-1.03589-2.43408-2.30591v-36.20801c0-1.27002,1.09717-2.30688,2.43408-2.30688h38.07422c1.34277,0,2.43457,1.03687,2.43457,2.30688v36.20801c-.00098,1.27002-1.09277,2.30591-2.43457,2.30591"/>
  <path class="cls-1" d="M133.24984,128.45352h-38.07422c-1.34326,0-2.43408-1.04688-2.43408-2.32886v-36.59204c0-1.28101,1.09717-2.3291,2.43408-2.3291h38.07422c1.34277,0,2.43457,1.0481,2.43457,2.3291v36.59204c-.00098,1.27588-1.09277,2.32886-2.43457,2.32886Z"/>
  <line class="cls-3" x1="98.5516" y1="28.57486" x2="98.5516" y2="58.2709"/>
  <line class="cls-3" x1="114.21566" y1="28.57486" x2="114.21566" y2="58.2709"/>
  <line class="cls-3" x1="146.58529" y1="28.57486" x2="146.58529" y2="58.2709"/>
  <line class="cls-3" x1="130.14145" y1="28.57486" x2="130.14145" y2="58.2709"/>
  <line class="cls-3" x1="161.72592" y1="28.57486" x2="161.72592" y2="58.2709"/>
  <line class="cls-3" x1="82.88754" y1="28.57486" x2="82.88754" y2="58.2709"/>
  <line class="cls-3" x1="68.27035" y1="28.57486" x2="68.27035" y2="58.2709"/>
  <line class="cls-3" x1="97.2474" y1="160.07144" x2="97.2474" y2="189.76748"/>
  <line class="cls-3" x1="112.91195" y1="160.07144" x2="112.91195" y2="189.76748"/>
  <line class="cls-3" x1="145.28207" y1="160.07144" x2="145.28207" y2="189.76748"/>
  <line class="cls-3" x1="128.83236" y1="160.07144" x2="128.83236" y2="189.76748"/>
  <line class="cls-3" x1="160.42221" y1="160.07144" x2="160.42221" y2="189.76748"/>
  <line class="cls-3" x1="81.58383" y1="160.07144" x2="81.58383" y2="189.76748"/>
  <line class="cls-3" x1="66.96127" y1="160.07144" x2="66.96127" y2="189.76748"/>
  <line class="cls-3" x1="193.31625" y1="92.46817" x2="164.07699" y2="92.46817"/>
  <line class="cls-3" x1="193.31625" y1="108.37735" x2="164.07699" y2="108.37735"/>
  <line class="cls-3" x1="193.31625" y1="141.24868" x2="164.07699" y2="141.24868"/>
  <line class="cls-3" x1="193.31625" y1="124.54849" x2="164.07699" y2="124.54849"/>
  <line class="cls-3" x1="193.31625" y1="156.62881" x2="164.07699" y2="156.62881"/>
  <line class="cls-3" x1="193.31625" y1="76.5646" x2="164.07699" y2="76.5646"/>
  <line class="cls-3" x1="193.31625" y1="61.71914" x2="164.07699" y2="61.71914"/>
  <line class="cls-3" x1="63.30697" y1="92.46817" x2="34.06674" y2="92.46817"/>
  <line class="cls-3" x1="63.30697" y1="108.37735" x2="34.06674" y2="108.37735"/>
  <line class="cls-3" x1="63.30697" y1="141.24868" x2="34.06674" y2="141.24868"/>
  <line class="cls-3" x1="63.30697" y1="124.54849" x2="34.06674" y2="124.54849"/>
  <line class="cls-3" x1="63.30697" y1="156.62881" x2="34.06674" y2="156.62881"/>
  <line class="cls-3" x1="63.30697" y1="76.5646" x2="34.06674" y2="76.5646"/>
  <line class="cls-3" x1="63.30697" y1="61.71914" x2="34.06674" y2="61.71914"/>
  <path class="cls-5" d="M154.02768,76.5646c0,3.88306-3.09717,7.02417-6.91846,7.02417-3.82178,0-6.91895-3.14697-6.91895-7.02417,0-3.87695,3.09717-7.02393,6.91895-7.02393,3.82031,0,6.91846,3.14111,6.91846,7.02393"/>
  <path class="cls-8" d="M154.02768,76.5646c0,3.88306-3.09717,7.02417-6.91846,7.02417-3.82178,0-6.91895-3.14697-6.91895-7.02417,0-3.87695,3.09717-7.02393,6.91895-7.02393,3.82031,0,6.91846,3.14111,6.91846,7.02393"/>
  <path class="cls-3" d="M154.02768,76.5646c0,3.88306-3.09717,7.02417-6.91846,7.02417-3.82178,0-6.91895-3.14697-6.91895-7.02417,0-3.87695,3.09717-7.02393,6.91895-7.02393,3.82031,0,6.91846,3.14111,6.91846,7.02393Z"/>
  <path class="cls-5" d="M89.02035,141.24868c0,3.88306-3.09717,7.02405-6.91846,7.02405-3.82178,0-6.91895-3.14697-6.91895-7.02405s3.09717-7.02393,6.91895-7.02393c3.82129,0,6.91846,3.14697,6.91846,7.02393"/>
  <path class="cls-8" d="M89.02035,141.24868c0,3.88306-3.09717,7.02405-6.91846,7.02405-3.82178,0-6.91895-3.14697-6.91895-7.02405s3.09717-7.02393,6.91895-7.02393c3.82129,0,6.91846,3.14697,6.91846,7.02393"/>
  <path class="cls-3" d="M89.02035,141.24868c0,3.88306-3.09717,7.02405-6.91846,7.02405-3.82178,0-6.91895-3.14697-6.91895-7.02405s3.09717-7.02393,6.91895-7.02393c3.82129,0,6.91846,3.14697,6.91846,7.02393Z"/>
  <path class="cls-5" d="M154.02768,141.24868c0,3.88306-3.09717,7.02405-6.91846,7.02405-3.82178,0-6.91895-3.14697-6.91895-7.02405s3.09717-7.02393,6.91895-7.02393c3.82031,0,6.91846,3.14697,6.91846,7.02393"/>
  <path class="cls-8" d="M154.02768,141.24868c0,3.88306-3.09717,7.02405-6.91846,7.02405-3.82178,0-6.91895-3.14697-6.91895-7.02405s3.09717-7.02393,6.91895-7.02393c3.82031,0,6.91846,3.14697,6.91846,7.02393"/>
  <path class="cls-3" d="M154.02768,141.24868c0,3.88306-3.09717,7.02405-6.91846,7.02405-3.82178,0-6.91895-3.14697-6.91895-7.02405s3.09717-7.02393,6.91895-7.02393c3.82031,0,6.91846,3.14697,6.91846,7.02393Z"/>
  <path class="cls-5" d="M89.02035,76.5646c0,3.88306-3.09717,7.02417-6.91846,7.02417-3.82178,0-6.91895-3.14697-6.91895-7.02417,0-3.87695,3.09717-7.02393,6.91895-7.02393,3.82129,0,6.91846,3.14111,6.91846,7.02393"/>
  <path class="cls-8" d="M89.02035,76.5646c0,3.88306-3.09717,7.02417-6.91846,7.02417-3.82178,0-6.91895-3.14697-6.91895-7.02417,0-3.87695,3.09717-7.02393,6.91895-7.02393,3.82129,0,6.91846,3.14111,6.91846,7.02393"/>
  <path class="cls-3" d="M89.02035,76.5646c0,3.88306-3.09717,7.02417-6.91846,7.02417-3.82178,0-6.91895-3.14697-6.91895-7.02417,0-3.87695,3.09717-7.02393,6.91895-7.02393,3.82129,0,6.91846,3.14111,6.91846,7.02393Z"/>
  <path class="cls-8" d="M199.74398,124.54849c0,1.65503-1.32031,2.99707-2.95215,2.99707-1.63232,0-2.95215-1.34204-2.95215-2.99707,0-1.65381,1.31982-2.99683,2.95215-2.99683,1.63281,0,2.95215,1.34204,2.95215,2.99683"/>
  <path class="cls-3" d="M199.74398,124.54849c0,1.65503-1.32031,2.99707-2.95215,2.99707-1.63232,0-2.95215-1.34204-2.95215-2.99707,0-1.65381,1.31982-2.99683,2.95215-2.99683,1.63281,0,2.95215,1.34204,2.95215,2.99683Z"/>
  <path class="cls-8" d="M199.74398,108.37735c0,1.65503-1.32031,2.99707-2.95215,2.99707-1.63232,0-2.95215-1.34204-2.95215-2.99707,0-1.65381,1.31982-2.99683,2.95215-2.99683,1.63281,0,2.95215,1.34302,2.95215,2.99683"/>
  <path class="cls-3" d="M199.74398,108.37735c0,1.65503-1.32031,2.99707-2.95215,2.99707-1.63232,0-2.95215-1.34204-2.95215-2.99707,0-1.65381,1.31982-2.99683,2.95215-2.99683,1.63281,0,2.95215,1.34302,2.95215,2.99683Z"/>
  <path class="cls-8" d="M199.74398,92.46817c0,1.65503-1.32031,2.99707-2.95215,2.99707-1.63232,0-2.95215-1.34204-2.95215-2.99707,0-1.65381,1.31982-2.99683,2.95215-2.99683,1.63281,0,2.95215,1.34302,2.95215,2.99683"/>
  <path class="cls-3" d="M199.74398,92.46817c0,1.65503-1.32031,2.99707-2.95215,2.99707-1.63232,0-2.95215-1.34204-2.95215-2.99707,0-1.65381,1.31982-2.99683,2.95215-2.99683,1.63281,0,2.95215,1.34302,2.95215,2.99683Z"/>
  <path class="cls-8" d="M199.74398,141.24868c0,1.65503-1.32031,2.99707-2.95215,2.99707-1.63232,0-2.95215-1.34204-2.95215-2.99707,0-1.65381,1.31982-2.99683,2.95215-2.99683,1.63281,0,2.95215,1.34302,2.95215,2.99683"/>
  <path class="cls-3" d="M199.74398,141.24868c0,1.65503-1.32031,2.99707-2.95215,2.99707-1.63232,0-2.95215-1.34204-2.95215-2.99707,0-1.65381,1.31982-2.99683,2.95215-2.99683,1.63281,0,2.95215,1.34302,2.95215,2.99683Z"/>
  <path class="cls-8" d="M199.74398,156.62881c0,1.65405-1.32031,2.99707-2.95215,2.99707-1.63232,0-2.95215-1.34302-2.95215-2.99707,0-1.65393,1.31982-2.99695,2.95215-2.99695,1.63281-.005,2.95215,1.33704,2.95215,2.99695"/>
  <path class="cls-3" d="M199.74398,156.62881c0,1.65405-1.32031,2.99707-2.95215,2.99707-1.63232,0-2.95215-1.34302-2.95215-2.99707,0-1.65393,1.31982-2.99695,2.95215-2.99695,1.63281-.005,2.95215,1.33704,2.95215,2.99695Z"/>
  <path class="cls-8" d="M199.74398,76.5646c0,1.65405-1.32031,2.99707-2.95215,2.99707-1.63232,0-2.95215-1.34302-2.95215-2.99707,0-1.65479,1.31982-2.99683,2.95215-2.99683,1.63281,0,2.95215,1.33691,2.95215,2.99683"/>
  <path class="cls-3" d="M199.74398,76.5646c0,1.65405-1.32031,2.99707-2.95215,2.99707-1.63232,0-2.95215-1.34302-2.95215-2.99707,0-1.65479,1.31982-2.99683,2.95215-2.99683,1.63281,0,2.95215,1.33691,2.95215,2.99683Z"/>
  <path class="cls-8" d="M199.74398,61.71914c0,1.65503-1.32031,2.99707-2.95215,2.99707-1.63232,0-2.95215-1.34204-2.95215-2.99707,0-1.65381,1.31982-2.99683,2.95215-2.99683,1.63281-.00513,2.95215,1.33691,2.95215,2.99683"/>
  <path class="cls-3" d="M199.74398,61.71914c0,1.65503-1.32031,2.99707-2.95215,2.99707-1.63232,0-2.95215-1.34204-2.95215-2.99707,0-1.65381,1.31982-2.99683,2.95215-2.99683,1.63281-.00513,2.95215,1.33691,2.95215,2.99683Z"/>
  <path class="cls-8" d="M34.06723,123.75186c0,1.65503-1.32031,2.99707-2.95215,2.99707-1.63232,0-2.95215-1.34204-2.95215-2.99707,0-1.65381,1.31982-2.99683,2.95215-2.99683,1.63281,0,2.95215,1.34302,2.95215,2.99683"/>
  <path class="cls-3" d="M34.06723,123.75186c0,1.65503-1.32031,2.99707-2.95215,2.99707-1.63232,0-2.95215-1.34204-2.95215-2.99707,0-1.65381,1.31982-2.99683,2.95215-2.99683,1.63281,0,2.95215,1.34302,2.95215,2.99683Z"/>
  <path class="cls-8" d="M34.06723,107.58096c0,1.65405-1.32031,2.99707-2.95215,2.99707-1.63232,0-2.95215-1.34302-2.95215-2.99707,0-1.65479,1.31982-2.99683,2.95215-2.99683,1.63281,0,2.95215,1.34204,2.95215,2.99683"/>
  <path class="cls-3" d="M34.06723,107.58096c0,1.65405-1.32031,2.99707-2.95215,2.99707-1.63232,0-2.95215-1.34302-2.95215-2.99707,0-1.65479,1.31982-2.99683,2.95215-2.99683,1.63281,0,2.95215,1.34204,2.95215,2.99683Z"/>
  <path class="cls-8" d="M34.06723,91.67154c0,1.65503-1.32031,2.99707-2.95215,2.99707-1.63232,0-2.95215-1.34204-2.95215-2.99707,0-1.65381,1.31982-2.99683,2.95215-2.99683,1.63281,0,2.95215,1.34302,2.95215,2.99683"/>
  <path class="cls-3" d="M34.06723,91.67154c0,1.65503-1.32031,2.99707-2.95215,2.99707-1.63232,0-2.95215-1.34204-2.95215-2.99707,0-1.65381,1.31982-2.99683,2.95215-2.99683,1.63281,0,2.95215,1.34302,2.95215,2.99683Z"/>
  <path class="cls-8" d="M34.06723,140.4523c0,1.65405-1.32031,2.99707-2.95215,2.99707-1.63232,0-2.95215-1.34302-2.95215-2.99707,0-1.65479,1.31982-2.99683,2.95215-2.99683,1.63281,0,2.95215,1.34204,2.95215,2.99683"/>
  <path class="cls-3" d="M34.06723,140.4523c0,1.65405-1.32031,2.99707-2.95215,2.99707-1.63232,0-2.95215-1.34302-2.95215-2.99707,0-1.65479,1.31982-2.99683,2.95215-2.99683,1.63281,0,2.95215,1.34204,2.95215,2.99683Z"/>
  <path class="cls-8" d="M34.06723,155.83218c0,1.65405-1.32031,2.99707-2.95215,2.99707-1.63232,0-2.95215-1.34302-2.95215-2.99707,0-1.65393,1.31982-2.99695,2.95215-2.99695,1.63281,0,2.95215,1.34302,2.95215,2.99695"/>
  <path class="cls-3" d="M34.06723,155.83218c0,1.65405-1.32031,2.99707-2.95215,2.99707-1.63232,0-2.95215-1.34302-2.95215-2.99707,0-1.65393,1.31982-2.99695,2.95215-2.99695,1.63281,0,2.95215,1.34302,2.95215,2.99695Z"/>
  <path class="cls-8" d="M34.06723,75.76797c0,1.65405-1.32031,2.99707-2.95215,2.99707-1.63232,0-2.95215-1.34302-2.95215-2.99707,0-1.65479,1.31982-2.99683,2.95215-2.99683,1.63281,0,2.95215,1.34204,2.95215,2.99683"/>
  <path class="cls-3" d="M34.06723,75.76797c0,1.65405-1.32031,2.99707-2.95215,2.99707-1.63232,0-2.95215-1.34302-2.95215-2.99707,0-1.65479,1.31982-2.99683,2.95215-2.99683,1.63281,0,2.95215,1.34204,2.95215,2.99683Z"/>
  <path class="cls-8" d="M34.06723,60.92251c0,1.65503-1.32031,2.99707-2.95215,2.99707-1.63232,0-2.95215-1.34204-2.95215-2.99707,0-1.65381,1.31982-2.99683,2.95215-2.99683,1.63281,0,2.95215,1.33691,2.95215,2.99683"/>
  <path class="cls-3" d="M34.06723,60.92251c0,1.65503-1.32031,2.99707-2.95215,2.99707-1.63232,0-2.95215-1.34204-2.95215-2.99707,0-1.65381,1.31982-2.99683,2.95215-2.99683,1.63281,0,2.95215,1.33691,2.95215,2.99683Z"/>
  <path class="cls-8" d="M99.07504,28.57486c-1.63232,0-2.95312-1.3418-2.95312-2.99683,0-1.65405,1.3208-2.99707,2.95312-2.99707,1.63184,0,2.95166,1.34302,2.95166,2.99707,0,1.65503-1.32568,2.99683-2.95166,2.99683"/>
  <path class="cls-3" d="M99.07504,28.57486c-1.63232,0-2.95312-1.3418-2.95312-2.99683,0-1.65405,1.3208-2.99707,2.95312-2.99707,1.63184,0,2.95166,1.34302,2.95166,2.99707,0,1.65503-1.32568,2.99683-2.95166,2.99683Z"/>
  <path class="cls-8" d="M114.99545,28.57486c-1.63232,0-2.95312-1.3418-2.95312-2.99683,0-1.65405,1.3208-2.99707,2.95312-2.99707,1.63184,0,2.95166,1.34302,2.95166,2.99707,0,1.65503-1.31982,2.99683-2.95166,2.99683"/>
  <path class="cls-3" d="M114.99545,28.57486c-1.63232,0-2.95312-1.3418-2.95312-2.99683,0-1.65405,1.3208-2.99707,2.95312-2.99707,1.63184,0,2.95166,1.34302,2.95166,2.99707,0,1.65503-1.31982,2.99683-2.95166,2.99683Z"/>
  <path class="cls-8" d="M130.65951,28.57486c-1.63232,0-2.95215-1.3418-2.95215-2.99683,0-1.65405,1.31982-2.99707,2.95215-2.99707,1.63184,0,2.95166,1.34302,2.95166,2.99707,0,1.65503-1.31982,2.99683-2.95166,2.99683"/>
  <path class="cls-3" d="M130.65951,28.57486c-1.63232,0-2.95215-1.3418-2.95215-2.99683,0-1.65405,1.31982-2.99707,2.95215-2.99707,1.63184,0,2.95166,1.34302,2.95166,2.99707,0,1.65503-1.31982,2.99683-2.95166,2.99683Z"/>
  <path class="cls-8" d="M82.62533,28.57486c-1.63232,0-2.95312-1.3418-2.95312-2.99683,0-1.65405,1.3208-2.99707,2.95312-2.99707,1.63184,0,2.95166,1.34302,2.95166,2.99707.00098,1.65503-1.31982,2.99683-2.95166,2.99683"/>
  <path class="cls-3" d="M82.62533,28.57486c-1.63232,0-2.95312-1.3418-2.95312-2.99683,0-1.65405,1.3208-2.99707,2.95312-2.99707,1.63184,0,2.95166,1.34302,2.95166,2.99707.00098,1.65503-1.31982,2.99683-2.95166,2.99683Z"/>
  <path class="cls-8" d="M67.48471,28.57486c-1.63232,0-2.95215-1.3418-2.95215-2.99683,0-1.65405,1.31982-2.99707,2.95215-2.99707,1.63184,0,2.95166,1.34302,2.95166,2.99707,0,1.65503-1.31982,2.99683-2.95166,2.99683"/>
  <path class="cls-3" d="M67.48471,28.57486c-1.63232,0-2.95215-1.3418-2.95215-2.99683,0-1.65405,1.31982-2.99707,2.95215-2.99707,1.63184,0,2.95166,1.34302,2.95166,2.99707,0,1.65503-1.31982,2.99683-2.95166,2.99683Z"/>
  <path class="cls-8" d="M146.32357,28.57486c-1.63232,0-2.95215-1.3418-2.95215-2.99683,0-1.65405,1.31982-2.99707,2.95215-2.99707,1.63184,0,2.95166,1.34302,2.95166,2.99707,0,1.65503-1.31982,2.99683-2.95166,2.99683"/>
  <path class="cls-3" d="M146.32357,28.57486c-1.63232,0-2.95215-1.3418-2.95215-2.99683,0-1.65405,1.31982-2.99707,2.95215-2.99707,1.63184,0,2.95166,1.34302,2.95166,2.99707,0,1.65503-1.31982,2.99683-2.95166,2.99683Z"/>
  <path class="cls-8" d="M160.94613,28.57486c-1.63232,0-2.95215-1.3418-2.95215-2.99683,0-1.65405,1.31982-2.99707,2.95215-2.99707,1.63184,0,2.95166,1.34302,2.95166,2.99707,0,1.65503-1.31982,2.99683-2.95166,2.99683"/>
  <path class="cls-3" d="M160.94613,28.57486c-1.63232,0-2.95215-1.3418-2.95215-2.99683,0-1.65405,1.31982-2.99707,2.95215-2.99707,1.63184,0,2.95166,1.34302,2.95166,2.99707,0,1.65503-1.31982,2.99683-2.95166,2.99683Z"/>
  <path class="cls-8" d="M98.28939,195.76138c-1.63232,0-2.95215-1.3429-2.95215-2.99695,0-1.65393,1.31982-2.99695,2.95215-2.99695,1.63184,0,2.95166,1.34302,2.95166,2.99695.00098,1.65405-1.31982,2.99695-2.95166,2.99695"/>
  <path class="cls-3" d="M98.28939,195.76138c-1.63232,0-2.95215-1.3429-2.95215-2.99695,0-1.65393,1.31982-2.99695,2.95215-2.99695,1.63184,0,2.95166,1.34302,2.95166,2.99695.00098,1.65405-1.31982,2.99695-2.95166,2.99695Z"/>
  <path class="cls-8" d="M114.21566,195.76138c-1.63232,0-2.95215-1.3429-2.95215-2.99695,0-1.65393,1.31982-2.99695,2.95215-2.99695,1.63184,0,2.95166,1.34302,2.95166,2.99695,0,1.65405-1.31982,2.99695-2.95166,2.99695"/>
  <path class="cls-3" d="M114.21566,195.76138c-1.63232,0-2.95215-1.3429-2.95215-2.99695,0-1.65393,1.31982-2.99695,2.95215-2.99695,1.63184,0,2.95166,1.34302,2.95166,2.99695,0,1.65405-1.31982,2.99695-2.95166,2.99695Z"/>
  <path class="cls-8" d="M129.87924,195.76138c-1.63232,0-2.95215-1.3429-2.95215-2.99695,0-1.65393,1.31982-2.99695,2.95215-2.99695,1.63184,0,2.95264,1.34302,2.95264,2.99695,0,1.65405-1.31982,2.99695-2.95264,2.99695"/>
  <path class="cls-3" d="M129.87924,195.76138c-1.63232,0-2.95215-1.3429-2.95215-2.99695,0-1.65393,1.31982-2.99695,2.95215-2.99695,1.63184,0,2.95264,1.34302,2.95264,2.99695,0,1.65405-1.31982,2.99695-2.95264,2.99695Z"/>
  <path class="cls-8" d="M81.84555,195.76138c-1.63232,0-2.95215-1.3429-2.95215-2.99695,0-1.65393,1.31982-2.99695,2.95215-2.99695,1.63184,0,2.95166,1.34302,2.95166,2.99695,0,1.65405-1.32568,2.99695-2.95166,2.99695"/>
  <path class="cls-3" d="M81.84555,195.76138c-1.63232,0-2.95215-1.3429-2.95215-2.99695,0-1.65393,1.31982-2.99695,2.95215-2.99695,1.63184,0,2.95166,1.34302,2.95166,2.99695,0,1.65405-1.32568,2.99695-2.95166,2.99695Z"/>
  <path class="cls-8" d="M66.69906,195.76138c-1.63232,0-2.95215-1.3429-2.95215-2.99695,0-1.65393,1.31982-2.99695,2.95215-2.99695,1.63184,0,2.95264,1.34302,2.95264,2.99695,0,1.65405-1.31982,2.99695-2.95264,2.99695"/>
  <path class="cls-3" d="M66.69906,195.76138c-1.63232,0-2.95215-1.3429-2.95215-2.99695,0-1.65393,1.31982-2.99695,2.95215-2.99695,1.63184,0,2.95264,1.34302,2.95264,2.99695,0,1.65405-1.31982,2.99695-2.95264,2.99695Z"/>
  <path class="cls-8" d="M145.54379,195.76138c-1.63232,0-2.95215-1.3429-2.95215-2.99695,0-1.65393,1.31982-2.99695,2.95215-2.99695,1.63184,0,2.95166,1.34302,2.95166,2.99695,0,1.65405-1.32568,2.99695-2.95166,2.99695"/>
  <path class="cls-3" d="M145.54379,195.76138c-1.63232,0-2.95215-1.3429-2.95215-2.99695,0-1.65393,1.31982-2.99695,2.95215-2.99695,1.63184,0,2.95166,1.34302,2.95166,2.99695,0,1.65405-1.32568,2.99695-2.95166,2.99695Z"/>
  <path class="cls-8" d="M160.16049,195.76138c-1.63232,0-2.95215-1.3429-2.95215-2.99695,0-1.65393,1.31982-2.99695,2.95215-2.99695,1.63184,0,2.95264,1.34302,2.95264,2.99695,0,1.65405-1.3208,2.99695-2.95264,2.99695"/>
  <path class="cls-3" d="M160.16049,195.76138c-1.63232,0-2.95215-1.3429-2.95215-2.99695,0-1.65393,1.31982-2.99695,2.95215-2.99695,1.63184,0,2.95264,1.34302,2.95264,2.99695,0,1.65405-1.3208,2.99695-2.95264,2.99695Z"/>
  <path class="cls-5" d="M150.06137,76.5646c0,1.65405-1.32031,2.99707-2.95215,2.99707-1.63232,0-2.95215-1.34302-2.95215-2.99707,0-1.65479,1.31982-2.99683,2.95215-2.99683,1.63184,0,2.95215,1.33691,2.95215,2.99683"/>
  <path class="cls-8" d="M150.06137,76.5646c0,1.65405-1.32031,2.99707-2.95215,2.99707-1.63232,0-2.95215-1.34302-2.95215-2.99707,0-1.65479,1.31982-2.99683,2.95215-2.99683,1.63184,0,2.95215,1.33691,2.95215,2.99683"/>
  <path class="cls-3" d="M150.06137,76.5646c0,1.65405-1.32031,2.99707-2.95215,2.99707-1.63232,0-2.95215-1.34302-2.95215-2.99707,0-1.65479,1.31982-2.99683,2.95215-2.99683,1.63184,0,2.95215,1.33691,2.95215,2.99683Z"/>
  <path class="cls-5" d="M150.06137,141.24868c0,1.65503-1.32031,2.99707-2.95215,2.99707-1.63232,0-2.95215-1.34204-2.95215-2.99707,0-1.65381,1.31982-2.99683,2.95215-2.99683,1.63184,0,2.95215,1.34302,2.95215,2.99683"/>
  <path class="cls-8" d="M150.06137,141.24868c0,1.65503-1.32031,2.99707-2.95215,2.99707-1.63232,0-2.95215-1.34204-2.95215-2.99707,0-1.65381,1.31982-2.99683,2.95215-2.99683,1.63184,0,2.95215,1.34302,2.95215,2.99683"/>
  <path class="cls-3" d="M150.06137,141.24868c0,1.65503-1.32031,2.99707-2.95215,2.99707-1.63232,0-2.95215-1.34204-2.95215-2.99707,0-1.65381,1.31982-2.99683,2.95215-2.99683,1.63184,0,2.95215,1.34302,2.95215,2.99683Z"/>
  <path class="cls-5" d="M85.05404,141.24868c0,1.65503-1.32031,2.99707-2.95215,2.99707-1.63232,0-2.95215-1.34204-2.95215-2.99707,0-1.65381,1.31982-2.99683,2.95215-2.99683,1.63184,0,2.95215,1.34302,2.95215,2.99683"/>
  <path class="cls-8" d="M85.05404,141.24868c0,1.65503-1.32031,2.99707-2.95215,2.99707-1.63232,0-2.95215-1.34204-2.95215-2.99707,0-1.65381,1.31982-2.99683,2.95215-2.99683,1.63184,0,2.95215,1.34302,2.95215,2.99683"/>
  <path class="cls-3" d="M85.05404,141.24868c0,1.65503-1.32031,2.99707-2.95215,2.99707-1.63232,0-2.95215-1.34204-2.95215-2.99707,0-1.65381,1.31982-2.99683,2.95215-2.99683,1.63184,0,2.95215,1.34302,2.95215,2.99683Z"/>
  <path class="cls-5" d="M85.05404,76.5646c0,1.65405-1.32031,2.99707-2.95215,2.99707-1.63232,0-2.95215-1.34302-2.95215-2.99707,0-1.65479,1.31982-2.99683,2.95215-2.99683,1.63184-.00513,2.95215,1.33691,2.95215,2.99683"/>
  <path class="cls-8" d="M85.05404,76.5646c0,1.65405-1.32031,2.99707-2.95215,2.99707-1.63232,0-2.95215-1.34302-2.95215-2.99707,0-1.65479,1.31982-2.99683,2.95215-2.99683,1.63184-.00513,2.95215,1.33691,2.95215,2.99683"/>
  <path class="cls-3" d="M85.05404,76.5646c0,1.65405-1.32031,2.99707-2.95215,2.99707-1.63232,0-2.95215-1.34302-2.95215-2.99707,0-1.65479,1.31982-2.99683,2.95215-2.99683,1.63184-.00513,2.95215,1.33691,2.95215,2.99683Z"/>
</svg>