<?xml version="1.0" encoding="UTF-8"?>
<svg id="_Слой_1" data-name="Слой 1" xmlns="http://www.w3.org/2000/svg" viewBox="0 0 227.23925 227.23895">
  <defs>
    <style>
      .cls-1 {
        fill: #dbeeff;
      }

      .cls-1, .cls-2 {
        stroke-width: 0px;
      }

      .cls-2 {
        fill: #82acf6;
      }

      .cls-3 {
        stroke-width: .557px;
      }

      .cls-3, .cls-4 {
        fill: none;
        stroke: #82acf6;
        stroke-miterlimit: 5.57;
      }

      .cls-4 {
        stroke-width: 5.57px;
      }
    </style>
  </defs>
  <path class="cls-2" d="M86.61023,206.20047h54.04492c3.58105,0,3.59302-5.56982,0-5.56982h-54.04492c-3.58203,0-3.58704,5.56982,0,5.56982"/>
  <path class="cls-3" d="M86.61023,206.20047h54.04492c3.58105,0,3.59302-5.56982,0-5.56982h-54.04492c-3.58203,0-3.58704,5.56982,0,5.56982"/>
  <path class="cls-4" d="M35.24804,35.24759c43.28394-43.28394,113.45996-43.28296,156.7439,0,43.28308,43.28418,43.28308,113.46021,0,156.74414-43.28394,43.28296-113.45996,43.28296-156.7439,0-43.28406-43.28394-43.28406-113.45996,0-156.74414Z"/>
  <path class="cls-2" d="M73.13525,30.34085c-29.62903,16.66724-46.14612,50.7251-40.90906,84.30908,5.24695,33.67896,32.79797,60.34497,66.21594,65.87695,18.90601,3.13013,38.29102-.36304,54.87402-9.97681,3.09802-1.80005.30103-6.61206-2.81299-4.80811-27.26196,15.80908-62.75098,13.21411-87.09998-7.03491-24.54297-20.41602-32.79797-54.51318-21.552-84.19214,6.328-16.69507,18.56702-30.63184,34.09094-39.36084,3.125-1.76001.323-6.573-2.80688-4.81323"/>
  <line class="cls-4" x1="113.63256" y1="203.41531" x2="113.63256" y2="178.9114"/>
  <path class="cls-1" d="M171.30359,103.12454c0,34.02417-27.5791,61.604-61.604,61.604s-61.604-27.57983-61.604-61.604,27.57996-61.60376,61.604-61.60376,61.604,27.57983,61.604,61.60376"/>
  <path class="cls-2" d="M168.51831,103.12454c-.15002,24.41602-15.56909,46.96509-38.68103,55.29224-23.35706,8.41187-49.83899,1.0979-65.64807-18.00317-15.78101-19.06787-17.54199-46.98193-4.65198-68.021,12.71802-20.75586,37.75098-31.78491,61.65405-26.97192,27.323,5.50293,47.15393,29.91309,47.32703,57.70386.02197,3.58203,5.5929,3.59302,5.56995,0-.16699-26.76587-16.96704-51.01978-42.07898-60.40576-25.29504-9.45923-54.90808-1.42603-71.99304,19.46289-17.07898,20.88403-19.49097,51.00293-5.48096,74.17603,13.94299,23.06201,41.34399,35.06689,67.75903,29.91992,26.06396-5.08105,47.03699-26.89502,51.00293-53.1709.50195-3.30811.76904-6.63403.79102-9.98218.02295-3.58691-5.54797-3.58691-5.56995,0"/>
  <path class="cls-2" d="M107.53283,43.55398c.12292.28418-.39502.46802-4.55103,4.55103-6.328,6.21704-7.01306,7.64307-7.39807,8.81812-1.19702,3.68799-.06702,6.96289.28503,7.96606.18896.53979,2.31702,6.41187,5.68701,6.25586,1.40393-.06689,2.88-1.16992,3.41504-2.56299.91296-2.38403-1.54907-3.98804-.85303-5.97095.88-2.51294,6.245-4.00513,9.95496-2.27295,2.30603,1.07495,3.42004,2.96289,5.11902,5.97095,1.39294,2.46802,2.61206,4.62402,2.27795,7.30298-.1449,1.12598-.401,1.08691-2.84595,5.49805-2.63501,4.75708-3.20898,6.37305-5.11902,7.11401-1.15894.44507-1.42603.03906-2.75195.56787-2.12305.85205-3.203,2.62915-4.078,3.98315-2.44507,3.79883-6.38904,9.92603-8.81799,9.38599-.72998-.16113-.94104-.84717-2.17798-1.04199-1.23108-.19409-2.25.27905-2.6571.47388-.245.11694-2.81299,1.42603-3.13098,4.26709-.21094,1.8999.802,3.88208,2.27307,4.83496,2.37292,1.53711,4.74597-1.96094,8.53394-.85205,1.30908.38403,3.03601,1.34814,3.13098,2.56201.10498,1.40405-2.078,1.97803-1.98901,3.41504.08411,1.354,2.13403,2.63501,3.94409,2.69604.76892.02808,1.25293-.1731,3.73792-1.27515,2.26111-1.00293,3.38708-1.49878,3.698-1.64893,3.198-1.50488,8.81311,1.13599,19.90906,6.48315,5.31995,2.56299,7.98303,3.88281,8.25,5.97192.21204,1.66602-1.03601,2.28394-2.27295,5.97192-1.28101,3.81592-.52307,4.88501-1.42004,7.39697-1.21399,3.39795-3.44299,3.79907-7.68201,7.68213-5.55396,5.08594-4.39502,6.84082-9.67004,11.66382-2.66797,2.44019-8.07202,7.37622-10.63391,5.97217-3.06409-1.68213,1.68201-10.40015.3949-25.88599-.25-2.9751-1.08594-10.62817-5.526-18.42114-4.04395-7.10303-7.63696-8.28882-9.26892-8.60083-1.63708-.31201-1.75403.16699-3.98303,0-6.58997-.49609-11.10706-5.10815-11.66394-5.68799-2.53503-2.66211-2.26709-4.24414-4.83508-10.52222-4.41199-10.7959-7.76501-12.39478-11.38098-23.60791-.97498-3.0249-1.45898-4.54004-1.42004-5.40308.67908-15.24097,44.41309-25.57983,45.51611-23.05103"/>
  <path class="cls-2" d="M161.58313,82.52517s-.51208.85815-7.68201,9.9541c-6.09399,7.73193-8.94006,6.56812-9.38611,9.95508-.58997,4.44482,4.495,5.01294,8.25,14.78906.83008,2.16187,1.51501,4.56787,3.41504,5.11987,1.57605.45605,2.59497-.78003,5.97107-1.4209,3.15295-.60205,3.849.17285,5.1189-.28418,5.64905-2.03882,3.27002-21.39087.85303-32.14185-1.17603-5.21313-2.43994-8.77905-3.98303-8.81812-.95789-.02197-1.64893,1.32104-2.55688,2.84692"/>
  <path class="cls-2" d="M124.88476,45.54275c-2.01611,1.73218.36194,7.37012.85193,8.53418.78003,1.85498,2.72998,6.4729,5.97205,6.54492,2.25598.05005,3.93799-2.13306,4.26697-2.56201,1.29199-1.6709,1.68201-3.78296,1.42004-5.40308-.88501-5.55981-10.03809-9.23096-12.51099-7.11401"/>
</svg>