<?xml version="1.0" encoding="UTF-8"?><svg id="_Слой_1" xmlns="http://www.w3.org/2000/svg" viewBox="0 0 227.23846 227.23846"><defs><style>.cls-1{stroke-width:5.881px;}.cls-1,.cls-2,.cls-3{fill:none;stroke:#ee7e7d;stroke-miterlimit:5.57;}.cls-2{stroke-width:6.588px;}.cls-3{stroke-width:5.57px;}.cls-4{fill:#ffdae3;stroke-width:0px;}</style></defs><path class="cls-3" d="M35.2474,35.24722c43.28369-43.28296,113.45996-43.28296,156.74365,0,43.2832,43.28418,43.2832,113.46021,0,156.74414-43.28369,43.28296-113.45996,43.28296-156.74365-.00098-43.2832-43.28296-43.2832-113.45996,0-156.74316Z"/><path class="cls-4" d="M92.15561,38.09488h-34.03467v139.9751h125.93164v-33.01611c-14.41699-17.13501-75.68066-88.44312-91.89697-106.95898M87.18197,147.86074v-65.73096l58.38965,65.72607h-58.38965v.00488Z"/><path class="cls-3" d="M92.15561,38.09488h-34.03467v139.9751h125.93164v-33.01611c-14.41699-17.13501-75.68066-88.44312-91.89697-106.95898ZM87.18197,147.86074v-65.73096l58.38965,65.72607h-58.38965v.00488Z"/><line class="cls-2" x1="99.17465" y1="48.03799" x2="86.62436" y2="58.24917"/><line class="cls-3" x1="108.21029" y1="59.30703" x2="101.19711" y2="64.87808"/><line class="cls-3" x1="115.65805" y1="69.89102" x2="104.92367" y2="78.4252"/><line class="cls-3" x1="124.59311" y1="78.8649" x2="117.57895" y2="84.44107"/><line class="cls-1" x1="133.81771" y1="90.74673" x2="122.0643" y2="99.43692"/><line class="cls-3" x1="142.72494" y1="101.34195" x2="135.71176" y2="106.91812"/><line class="cls-3" x1="152.88559" y1="112.08169" x2="142.15121" y2="120.60977"/><line class="cls-3" x1="162.06527" y1="120.55435" x2="155.05795" y2="126.12539"/><line class="cls-3" x1="169.75277" y1="131.06021" x2="159.0184" y2="139.59439"/></svg>