<?xml version="1.0" encoding="UTF-8"?><svg id="_Слой_1" xmlns="http://www.w3.org/2000/svg" viewBox="0 0 227.23919 227.23931"><defs><style>.cls-1,.cls-2{stroke:#ee7e7d;}.cls-1,.cls-2,.cls-3,.cls-4,.cls-5,.cls-6{fill:none;stroke-miterlimit:5.57;}.cls-1,.cls-3,.cls-4,.cls-5,.cls-6{stroke-width:.557px;}.cls-7{fill:#331013;}.cls-7,.cls-8,.cls-9,.cls-10,.cls-11{stroke-width:0px;}.cls-2{stroke-width:5.57px;}.cls-3{stroke:#7b7575;}.cls-4{stroke:#b8e87c;}.cls-5{stroke:#331013;}.cls-8{fill:#9c414c;}.cls-9{fill:#7b7575;}.cls-10{fill:#ffdae3;}.cls-11{fill:#ee7e7d;}.cls-6{stroke:#9c414c;}</style></defs><path class="cls-2" d="M35.24813,35.24795c43.28296-43.28394,113.45996-43.28394,156.74365,0,43.2832,43.2832,43.2832,113.46021,0,156.74414-43.28369,43.28296-113.46069,43.28296-156.74365,0-43.28418-43.28394-43.28418-113.45996,0-156.74414Z"/><path class="cls-10" d="M185.15341,173.59365H42.00326c-6.16089.05005-11.21289-4.87988-11.302-11.04077v-93.87305c.08911-6.16113,5.13599-11.09595,11.302-11.04614h143.15015c6.16064-.0498,11.21289,4.87915,11.30273,11.04614v93.87305c-.08984,6.16089-5.13574,11.09692-11.30273,11.04077"/><path class="cls-4" d="M185.15341,173.59365H42.00326c-6.16089.05005-11.21289-4.87988-11.302-11.04077v-93.87305c.08911-6.16113,5.13599-11.09595,11.302-11.04614h143.15015c6.16064-.0498,11.21289,4.87915,11.30273,11.04614v93.87305c-.08984,6.16089-5.13574,11.09692-11.30273,11.04077"/><path class="cls-2" d="M185.15341,173.59365H42.00326c-6.16089.05005-11.21289-4.87988-11.302-11.04077v-93.87305c.08911-6.16113,5.13599-11.09595,11.302-11.04614h143.15015c6.16064-.0498,11.21289,4.87915,11.30273,11.04614v93.87305c-.08984,6.16089-5.13574,11.09692-11.30273,11.04077Z"/><line class="cls-2" x1="31.06894" y1="87.35733" x2="196.81747" y2="87.35733"/><rect class="cls-7" x="108.3309" y="97.57925" width="13.44092" height="13.13501"/><rect class="cls-5" x="108.3309" y="97.57925" width="13.44092" height="13.13501"/><rect class="cls-11" x="108.3309" y="97.57925" width="13.44092" height="13.13501"/><rect class="cls-1" x="108.3309" y="97.57925" width="13.44092" height="13.13501"/><rect class="cls-1" x="108.3309" y="97.57925" width="13.44092" height="13.13501"/><rect class="cls-7" x="137.68173" y="97.50723" width="13.44092" height="13.13501"/><rect class="cls-5" x="137.68173" y="97.50723" width="13.44092" height="13.13501"/><rect class="cls-11" x="137.68173" y="97.50723" width="13.44092" height="13.13501"/><rect class="cls-1" x="137.68173" y="97.50723" width="13.44092" height="13.13501"/><rect class="cls-1" x="137.68173" y="97.50723" width="13.44092" height="13.13501"/><rect class="cls-7" x="167.02694" y="97.57925" width="13.44189" height="13.13501"/><rect class="cls-5" x="167.02694" y="97.57925" width="13.44189" height="13.13501"/><rect class="cls-11" x="167.02694" y="97.57925" width="13.44189" height="13.13501"/><rect class="cls-1" x="167.02694" y="97.57925" width="13.44189" height="13.13501"/><rect class="cls-1" x="167.02694" y="97.57925" width="13.44189" height="13.13501"/><rect class="cls-7" x="47.41879" y="122.55728" width="13.44092" height="13.13501"/><rect class="cls-5" x="47.41879" y="122.55728" width="13.44092" height="13.13501"/><rect class="cls-11" x="47.41879" y="122.55728" width="13.44092" height="13.13501"/><rect class="cls-1" x="47.41879" y="122.55728" width="13.44092" height="13.13501"/><rect class="cls-1" x="47.41879" y="122.55728" width="13.44092" height="13.13501"/><rect class="cls-7" x="78.09481" y="121.17032" width="13.44092" height="13.13501"/><rect class="cls-5" x="78.09481" y="121.17032" width="13.44092" height="13.13501"/><rect class="cls-11" x="78.09481" y="121.17032" width="13.44092" height="13.13501"/><rect class="cls-1" x="78.09481" y="121.17032" width="13.44092" height="13.13501"/><rect class="cls-1" x="78.09481" y="121.17032" width="13.44092" height="13.13501"/><rect class="cls-7" x="108.77084" y="121.17032" width="13.44189" height="13.13501"/><rect class="cls-5" x="108.77084" y="121.17032" width="13.44189" height="13.13501"/><rect class="cls-11" x="108.77084" y="121.17032" width="13.44189" height="13.13501"/><rect class="cls-1" x="108.77084" y="121.17032" width="13.44189" height="13.13501"/><rect class="cls-1" x="108.77084" y="121.17032" width="13.44189" height="13.13501"/><rect class="cls-7" x="137.68173" y="121.17032" width="13.44092" height="13.13501"/><rect class="cls-5" x="137.68173" y="121.17032" width="13.44092" height="13.13501"/><rect class="cls-11" x="137.68173" y="121.17032" width="13.44092" height="13.13501"/><rect class="cls-1" x="137.68173" y="121.17032" width="13.44092" height="13.13501"/><rect class="cls-1" x="137.68173" y="121.17032" width="13.44092" height="13.13501"/><rect class="cls-9" x="167.02694" y="121.17032" width="13.44189" height="13.13501"/><rect class="cls-3" x="167.02694" y="121.17032" width="13.44189" height="13.13501"/><rect class="cls-9" x="167.02694" y="121.17032" width="13.44189" height="13.13501"/><rect class="cls-8" x="167.02694" y="121.17032" width="13.44189" height="13.13501"/><rect class="cls-6" x="167.02694" y="121.17032" width="13.44189" height="13.13501"/><rect class="cls-9" x="47.41879" y="147.60708" width="13.44092" height="13.13501"/><rect class="cls-3" x="47.41879" y="147.60708" width="13.44092" height="13.13501"/><rect class="cls-9" x="47.41879" y="147.60708" width="13.44092" height="13.13501"/><rect class="cls-8" x="47.41879" y="147.60708" width="13.44092" height="13.13501"/><rect class="cls-6" x="47.41879" y="147.60708" width="13.44092" height="13.13501"/><rect class="cls-9" x="78.09481" y="147.60708" width="13.44092" height="13.13501"/><rect class="cls-3" x="78.09481" y="147.60708" width="13.44092" height="13.13501"/><rect class="cls-9" x="78.09481" y="147.60708" width="13.44092" height="13.13501"/><rect class="cls-8" x="78.09481" y="147.60708" width="13.44092" height="13.13501"/><rect class="cls-6" x="78.09481" y="147.60708" width="13.44092" height="13.13501"/><rect class="cls-9" x="108.77084" y="147.60708" width="13.44189" height="13.13501"/><rect class="cls-3" x="108.77084" y="147.60708" width="13.44189" height="13.13501"/><rect class="cls-9" x="108.77084" y="147.60708" width="13.44189" height="13.13501"/><rect class="cls-8" x="108.77084" y="147.60708" width="13.44189" height="13.13501"/><rect class="cls-6" x="108.77084" y="147.60708" width="13.44189" height="13.13501"/><rect class="cls-9" x="137.89901" y="147.60708" width="13.44092" height="13.13501"/><rect class="cls-3" x="137.89901" y="147.60708" width="13.44092" height="13.13501"/><rect class="cls-9" x="137.89901" y="147.60708" width="13.44092" height="13.13501"/><rect class="cls-8" x="137.89901" y="147.60708" width="13.44092" height="13.13501"/><rect class="cls-6" x="137.89901" y="147.60708" width="13.44092" height="13.13501"/><rect class="cls-9" x="167.02694" y="147.60708" width="13.44189" height="13.13501"/><rect class="cls-3" x="167.02694" y="147.60708" width="13.44189" height="13.13501"/><rect class="cls-9" x="167.02694" y="147.60708" width="13.44189" height="13.13501"/><rect class="cls-8" x="167.02694" y="147.60708" width="13.44189" height="13.13501"/><rect class="cls-6" x="167.02694" y="147.60708" width="13.44189" height="13.13501"/><path class="cls-11" d="M173.80624,75.871h-.11133c-2.67969-.00586-4.84668-2.17798-4.85791-4.85693v-23.41895c.00586-2.67896,2.17822-4.84595,4.85791-4.85693h.11133c2.67969.00586,4.84668,2.17798,4.85791,4.85693v23.41895c-.01123,2.67896-2.17822,4.84595-4.85791,4.85693"/><path class="cls-1" d="M173.80624,75.871h-.11133c-2.67969-.00586-4.84668-2.17798-4.85791-4.85693v-23.41895c.00586-2.67896,2.17822-4.84595,4.85791-4.85693h.11133c2.67969.00586,4.84668,2.17798,4.85791,4.85693v23.41895c-.01123,2.67896-2.17822,4.84595-4.85791,4.85693"/><path class="cls-11" d="M173.80624,75.871h-.11133c-2.67969-.00586-4.84668-2.17798-4.85791-4.85693v-23.41895c.00586-2.67896,2.17822-4.84595,4.85791-4.85693h.11133c2.67969.00586,4.84668,2.17798,4.85791,4.85693v23.41895c-.01123,2.67896-2.17822,4.84595-4.85791,4.85693"/><path class="cls-1" d="M173.80624,75.871h-.11133c-2.67969-.00586-4.84668-2.17798-4.85791-4.85693v-23.41895c.00586-2.67896,2.17822-4.84595,4.85791-4.85693h.11133c2.67969.00586,4.84668,2.17798,4.85791,4.85693v23.41895c-.01123,2.67896-2.17822,4.84595-4.85791,4.85693"/><path class="cls-11" d="M54.19174,74.79043h-.11206c-2.67896-.00586-4.84595-2.17798-4.85718-4.85693v-23.41895c.00513-2.67896,2.17822-4.84595,4.85718-4.85693h.11206c2.67896.00488,4.84595,2.17798,4.85791,4.85693v23.41797c-.0061,2.67993-2.17896,4.84692-4.85791,4.85791"/><path class="cls-1" d="M54.19174,74.79043h-.11206c-2.67896-.00586-4.84595-2.17798-4.85718-4.85693v-23.41895c.00513-2.67896,2.17822-4.84595,4.85718-4.85693h.11206c2.67896.00488,4.84595,2.17798,4.85791,4.85693v23.41797c-.0061,2.67993-2.17896,4.84692-4.85791,4.85791"/><path class="cls-11" d="M54.19174,74.79043h-.11206c-2.67896-.00586-4.84595-2.17798-4.85718-4.85693v-23.41895c.00513-2.67896,2.17822-4.84595,4.85718-4.85693h.11206c2.67896.00488,4.84595,2.17798,4.85791,4.85693v23.41797c-.0061,2.67993-2.17896,4.84692-4.85791,4.85791"/><path class="cls-1" d="M54.19174,74.79043h-.11206c-2.67896-.00586-4.84595-2.17798-4.85718-4.85693v-23.41895c.00513-2.67896,2.17822-4.84595,4.85718-4.85693h.11206c2.67896.00488,4.84595,2.17798,4.85791,4.85693v23.41797c-.0061,2.67993-2.17896,4.84692-4.85791,4.85791"/></svg>