<?xml version="1.0" encoding="UTF-8"?>
<svg id="_Слой_1" data-name="Слой 1" xmlns="http://www.w3.org/2000/svg" viewBox="0 0 227.23925 227.23858">
  <defs>
    <style>
      .cls-1 {
        fill: none;
        stroke: #f57d7f;
        stroke-miterlimit: 5.57;
        stroke-width: 5.57px;
      }

      .cls-2 {
        fill: #ffdae3;
        stroke-width: 0px;
      }
    </style>
  </defs>
  <path class="cls-1" d="M35.248,35.24722c43.284-43.28296,113.45999-43.28296,156.744,0,43.28299,43.28418,43.28299,113.46021,0,156.74414-43.28401,43.28296-113.46001,43.28296-156.744,0-43.284-43.28394-43.284-113.45996,0-156.74414Z"/>
  <path class="cls-2" d="M50.1829,63.79141l8.946,16.72314c.167.31201.49.52295.85799.573l20.00401,2.67993c.935.12207,1.309,1.18604.635,1.79395l-14.478,13.01807c-.267.23901-.39.59009-.329.92993l3.415,18.3772c.162.85791-.819,1.51489-1.654,1.10791l-17.893-8.67798c-.334-.16211-.73-.16211-1.064,0l-17.892,8.67798c-.836.40698-1.816-.25-1.655-1.10791l3.421-18.3772c.061-.33984-.062-.69092-.329-.92993l-14.472-13.01807c-.68-.60791-.301-1.67188.635-1.79395l20.004-2.67993c.373-.05005.69-.26709.857-.573l8.947-16.72314c.412-.77979,1.626-.77979,2.044,0"/>
  <path class="cls-1" d="M50.1829,63.79141l8.946,16.72314c.167.31201.49.52295.85799.573l20.00401,2.67993c.935.12207,1.309,1.18604.635,1.79395l-14.478,13.01807c-.267.23901-.39.59009-.329.92993l3.415,18.3772c.162.85791-.819,1.51489-1.654,1.10791l-17.893-8.67798c-.334-.16211-.73-.16211-1.064,0l-17.892,8.67798c-.836.40698-1.816-.25-1.655-1.10791l3.421-18.3772c.061-.33984-.062-.69092-.329-.92993l-14.472-13.01807c-.68-.60791-.301-1.67188.635-1.79395l20.004-2.67993c.373-.05005.69-.26709.857-.573l8.947-16.72314c.412-.77979,1.626-.77979,2.044,0Z"/>
  <path class="cls-1" d="M73.8183,135.23819l8.946,16.72314c.167.31201.49.52295.85799.573l20.00401,2.67993c.935.12207,1.309,1.18604.635,1.79395l-14.478,13.01807c-.267.23901-.39.59009-.329.92993l3.415,18.3772c.162.85791-.819,1.51489-1.654,1.10791l-17.893-8.67798c-.334-.16211-.73-.16211-1.064,0l-17.89199,8.67798c-.836.40698-1.816-.25-1.655-1.10791l3.421-18.3772c.061-.33984-.062-.69092-.32899-.92993l-14.478-13.01807c-.679-.60791-.3-1.67188.636-1.79395l20.003-2.67993c.373-.05005.691-.26709.858-.573l8.946-16.72314c.423-.78491,1.632-.78491,2.05,0Z"/>
  <path class="cls-1" d="M154.71271,135.23819l8.946,16.72314c.16699.31201.48999.52295.85799.573l20.00401,2.67993c.935.12207,1.30899,1.18604.63499,1.79395l-14.478,13.01807c-.267.23901-.39.59009-.32901.92993l3.41501,18.3772c.162.85791-.819,1.51489-1.65401,1.10791l-17.89299-8.67798c-.334-.16211-.729-.16211-1.06401,0l-17.892,8.67798c-.836.40698-1.81599-.25-1.65399-1.10791l3.42-18.3772c.061-.33984-.061-.69092-.32899-.92993l-14.472-13.01807c-.68001-.60791-.30101-1.67188.63499-1.79395l20.004-2.67993c.373-.05005.69-.26709.858-.573l8.946-16.72314c.412-.78491,1.62599-.78491,2.04401,0Z"/>
  <path class="cls-1" d="M179.12241,66.7438l8.946,16.72314c.16699.31104.48999.52295.85799.573l20.00401,2.67993c.935.12207,1.30899,1.18604.63499,1.79297l-14.478,13.01904c-.267.23901-.39.59009-.32901.92993l3.41501,18.38208c.162.85791-.819,1.51514-1.65401,1.10913l-17.89299-8.6792c-.334-.16089-.729-.16089-1.06401,0l-17.892,8.6792c-.836.40601-1.81599-.25122-1.65399-1.10913l3.42-18.38208c.061-.33984-.061-.69092-.32899-.92993l-14.472-13.01904c-.68001-.60693-.306-1.6709.63499-1.79297l20.004-2.67993c.373-.05005.69-.26709.858-.573l8.946-16.72314c.412-.78491,1.621-.78491,2.04401,0Z"/>
  <path class="cls-1" d="M115.6136,14.03604l9.89299,18.48804c.18401.34619.54001.58008.953.63599l22.12,2.96313c1.03601.13892,1.44801,1.31494.70201,1.98901l-16.00401,14.38794c-.295.26709-.435.6521-.362,1.03101l3.77701,20.32104c.17799.9519-.908,1.67603-1.83301,1.22485l-19.78099-9.5918c-.367-.17798-.807-.17798-1.175,0l-19.781,9.5918c-.925.45117-2.011-.27783-1.833-1.22485l3.777-20.32104c.073-.37891-.067-.76392-.362-1.03101l-16.004-14.38794c-.752-.67407-.334-1.8501.702-1.98901l22.115-2.96313c.41199-.05591.769-.2959.952-.63599l9.894-18.48804c.445-.8689,1.78799-.8689,2.25,0Z"/>
</svg>