<?xml version="1.0" encoding="UTF-8"?>
<svg id="_Слой_1" data-name="Слой 1" xmlns="http://www.w3.org/2000/svg" xmlns:xlink="http://www.w3.org/1999/xlink" viewBox="0 0 227.23846 227.23846">
  <defs>
    <style>
      .cls-1 {
        stroke-width: .557px;
      }

      .cls-1, .cls-2, .cls-3, .cls-4 {
        fill: none;
      }

      .cls-1, .cls-2, .cls-4 {
        stroke: #ee7e7d;
        stroke-miterlimit: 5.57;
      }

      .cls-5 {
        isolation: isolate;
      }

      .cls-2 {
        stroke-width: 5.57px;
      }

      .cls-3, .cls-6 {
        stroke-width: 0px;
      }

      .cls-7 {
        clip-path: url(#clippath-1);
      }

      .cls-4 {
        stroke-width: 5.564px;
      }

      .cls-8 {
        fill: #ee7e7d;
        font-family: ArialMT, Arial;
        font-size: 79.1006px;
      }

      .cls-6 {
        fill: #ffdae3;
      }

      .cls-9 {
        clip-path: url(#clippath);
      }
    </style>
    <clipPath id="clippath">
      <rect class="cls-3" x="79.63217" y="68.3378" width="74.84961" height="93.57007"/>
    </clipPath>
    <clipPath id="clippath-1">
      <rect class="cls-3" x="79.35189" y="68.05777" width="75.41016" height="94.12012"/>
    </clipPath>
  </defs>
  <path class="cls-2" d="M35.2474,35.24722c43.28369-43.28296,113.45996-43.28296,156.74365,0,43.2832,43.28418,43.2832,113.46021,0,156.74414-43.28369,43.28296-113.45996,43.28296-156.74365-.00098-43.2832-43.28296-43.2832-113.45996,0-156.74316Z"/>
  <path class="cls-6" d="M159.05355,183.72622h-91.17236c-13.58594,0-24.59912-11.01294-24.59912-24.59888v-91.17798c0-13.58594,11.01318-24.59912,24.59912-24.59912h91.17236c13.58594,0,24.59863,11.01318,24.59863,24.59912v91.17188c0,13.59204-11.01172,24.60498-24.59863,24.60498"/>
  <path class="cls-4" d="M159.05355,183.72622h-91.17236c-13.58594,0-24.59912-11.01294-24.59912-24.59888v-91.17798c0-13.58594,11.01318-24.59912,24.59912-24.59912h91.17236c13.58594,0,24.59863,11.01318,24.59863,24.59912v91.17188c0,13.59204-11.01172,24.60498-24.59863,24.60498Z"/>
  <g class="cls-5">
    <g class="cls-9">
      <text class="cls-8" transform="translate(79.74875 136.22012)"><tspan x="0" y="0">AI</tspan></text>
    </g>
  </g>
  <g class="cls-5">
    <g class="cls-7">
      <path class="cls-1" d="M102.1893,96.36123c1.31201-3.5791,2.33008-7.18408,3.05029-10.81494.875,3.06494,2.21484,6.979,4.01709,11.74097l5.90967,15.68188h-19.1958l6.21875-16.60791ZM87.58969,136.22012l6.21777-17.14795h23.67676l6.604,17.14795h8.53516l-23.17383-56.62183h-8.07227l-21.74463,56.62183h7.95703Z"/>
      <rect class="cls-1" x="139.88559" y="79.59781" width="7.49316" height="56.62207"/>
    </g>
  </g>
</svg>