<?xml version="1.0" encoding="UTF-8"?>
<svg id="_Слой_1" data-name="Слой 1" xmlns="http://www.w3.org/2000/svg" viewBox="0 0 227.23602 227.24102">
  <defs>
    <style>
      .cls-1 {
        fill: #718c09;
      }

      .cls-1, .cls-2 {
        stroke-width: 0px;
      }

      .cls-3 {
        stroke: #aac419;
        stroke-width: 5.57px;
      }

      .cls-3, .cls-4 {
        fill: none;
        stroke-miterlimit: 5.57;
      }

      .cls-2 {
        fill: #aac419;
      }

      .cls-4 {
        stroke: #718c09;
        stroke-width: .557px;
      }
    </style>
  </defs>
  <path class="cls-3" d="M224.45102,113.61996c0,61.21411-49.62207,110.83606-110.83545,110.83606-61.20801,0-110.83057-49.62195-110.83057-110.83606S52.40756,2.785,113.61557,2.785c61.21338,0,110.83545,49.62109,110.83545,110.83496Z"/>
  <path class="cls-1" d="M126.22689,113.46957c0,7.10815-5.63721,12.87305-12.59521,12.87305s-12.59521-5.76489-12.59521-12.87305,5.63721-12.8728,12.59521-12.8728,12.59521,5.76489,12.59521,12.8728"/>
  <path class="cls-4" d="M126.22689,113.46957c0,7.10815-5.63721,12.87305-12.59521,12.87305s-12.59521-5.76489-12.59521-12.87305,5.63721-12.8728,12.59521-12.8728,12.59521,5.76489,12.59521,12.8728"/>
  <path class="cls-2" d="M126.22689,113.46957c0,7.10815-5.63721,12.87305-12.59521,12.87305s-12.59521-5.76489-12.59521-12.87305,5.63721-12.8728,12.59521-12.8728,12.59521,5.76489,12.59521,12.8728"/>
  <path class="cls-3" d="M126.22689,113.46957c0,7.10815-5.63721,12.87305-12.59521,12.87305s-12.59521-5.76489-12.59521-12.87305,5.63721-12.8728,12.59521-12.8728,12.59521,5.76489,12.59521,12.8728Z"/>
  <path class="cls-3" d="M76.82797,113.46957c0,53.599,16.47754,97.05408,36.80957,97.05408s36.81006-43.44897,36.81006-97.05408c0-53.59888-16.48291-97.05396-36.81006-97.05396-20.33203.00513-36.80957,43.45508-36.80957,97.05396Z"/>
  <ellipse class="cls-3" cx="113.63791" cy="113.46978" rx="94.93201" ry="37.634"/>
  <path class="cls-3" d="M83.44027,140.0798c36.83154,37.65601,78.34863,56.27307,92.72559,41.578,14.37695-14.69495-3.83203-57.13599-40.66406-94.79785C98.66391,49.20297,57.15316,30.587,42.77621,45.28183c-14.3833,14.7002,3.82666,57.14209,40.66406,94.79797Z"/>
  <path class="cls-3" d="M139.66293,140.0798c-36.8374,37.65601-78.34912,56.27307-92.72607,41.578-14.37793-14.69495,3.83203-57.13599,40.66992-94.79785,36.83691-37.65698,78.34814-56.27295,92.72607-41.57812,14.37695,14.7002-3.83301,57.14209-40.66992,94.79797Z"/>
</svg>