<?xml version="1.0" encoding="UTF-8"?>
<svg id="_Слой_1" data-name="Слой 1" xmlns="http://www.w3.org/2000/svg" viewBox="0 0 227.24041 227.24114">
  <defs>
    <style>
      .cls-1 {
        stroke-width: 5.57px;
      }

      .cls-1, .cls-2 {
        fill: none;
        stroke: #81aafa;
        stroke-miterlimit: 5.57;
      }

      .cls-3 {
        fill: #81aafa;
      }

      .cls-3, .cls-4, .cls-5 {
        stroke-width: 0px;
      }

      .cls-4 {
        fill: #dbeeff;
      }

      .cls-5 {
        fill: #82acf6;
      }

      .cls-2 {
        stroke-width: .557px;
      }
    </style>
  </defs>
  <circle class="cls-1" cx="113.62033" cy="113.62088" r="110.83528" transform="translate(-28.05065 189.44051) rotate(-73.15499)"/>
  <path class="cls-5" d="M169.01303,173.77084l-24.82324-37.07764,24.82324-36.36328c.875-1.28198.19531-3.04199-.99658-3.81006l-4.98096-3.198c-1.32031-.84692-3.0083-.21191-3.81006.99707l-21.61133,32.49829-21.93262-32.49829c-.8252-1.33691-2.57324-1.74902-3.90527-.92407-.16699.10498-.32275.22217-.46777.36206l-4.26709,3.55396c-.89111.896-1.07422,2.28296-.43408,3.375l24.27295,36.00757-24.27295,36.72656c-.89697,1.35889-.1499,2.9458.99707,3.80981l4.26709,3.198c1.25879.94604,3.04688.1272,3.81006-.9978l21.9502-32.36328,21.95068,32.36328c.79688,1.30396,2.479,1.74902,3.81006.9978l4.62402-2.84692c1.22559-.75195,1.85498-2.53491.99658-3.81006Z"/>
  <path class="cls-4" d="M178.99496,59.36996c-29.68506-.17798-59.37012-.35693-89.05518-.53491-5.95508,32.7041-11.90918,65.41406-17.86426,98.11792-5.33057-16.9729-10.66797-33.9519-15.99902-50.9248-8.80078.26782-17.59668.53491-26.39795.802l-1.86572,8.53394,21.3291-.26709,18.92871,62.92407,11.73096-.26709c5.95508-34.13086,11.91016-68.26099,17.86523-102.38599l80.521,1.33203c.27783-5.77686.54492-11.55396.80713-17.33008"/>
  <path class="cls-3" d="M178.99496,56.58456l-89.05518-.53491c-1.13086-.00488-2.46729.86401-2.68506,2.04492-5.95508,32.7041-11.91016,65.41406-17.86523,98.11816h5.37012c-5.33105-16.97314-10.66797-33.95215-15.99805-50.92505-.35107-1.198-1.43701-2.02808-2.68506-2.04492-8.80176.26782-17.59766.53491-26.39795.802-1.24805.01685-2.33984.84692-2.68604,2.04492l-1.86572,8.53394c-.39014,1.50903.51807,3.04712,2.02197,3.43701.21777.05493.43994.08301.66309.08911l21.33008-.26709-2.68506-2.04492,18.92871,62.92383c.3501,1.198,1.43701,2.02808,2.68506,2.04419l11.73096-.26709c1.125-.02808,2.47314-.84106,2.68506-2.04395,5.95508-34.13013,11.90918-68.26099,17.86426-102.38501l-2.68506,2.04395,80.521,1.33105c1.52686-.0271,2.75781-1.25903,2.78564-2.78491.26709-5.77612.53418-11.55322.80225-17.33008.16699-3.58105-5.40381-3.57593-5.5708,0-.26709,5.77686-.53418,11.55298-.80225,17.33008l2.78516-2.78516-80.521-1.33105c-1.11914-.01685-2.479.86816-2.68506,2.04419-5.95508,34.12988-11.90918,68.25488-17.86426,102.38501l2.68506-2.04419-11.73096.26709,2.68506,2.04395-18.9292-62.92383c-.35059-1.19702-1.43701-2.0271-2.68457-2.04419l-21.33008.26709,2.68506,3.5271,1.8667-8.53418-2.68506,2.04395c8.80029-.26685,17.59619-.53491,26.39795-.802l-2.68555-2.04492c5.33154,16.97412,10.66797,33.95215,15.99854,50.92603.76318,2.42798,4.85205,2.86304,5.37012,0,5.95508-32.7041,11.90918-65.41406,17.86426-98.1189l-2.68506,2.04492,89.05469.53491c3.58936.02197,3.59424-5.54883.00146-5.57104"/>
  <path class="cls-2" d="M178.99496,56.58456l-89.05518-.53491c-1.13086-.00488-2.46729.86401-2.68506,2.04492-5.95508,32.7041-11.91016,65.41406-17.86523,98.11816h5.37012c-5.33105-16.97314-10.66797-33.95215-15.99805-50.92505-.35107-1.198-1.43701-2.02808-2.68506-2.04492-8.80176.26782-17.59766.53491-26.39795.802-1.24805.01685-2.33984.84692-2.68604,2.04492l-1.86572,8.53394c-.39014,1.50903.51807,3.04712,2.02197,3.43701.21777.05493.43994.08301.66309.08911l21.33008-.26709-2.68506-2.04492,18.92871,62.92383c.3501,1.198,1.43701,2.02808,2.68506,2.04419l11.73096-.26709c1.125-.02808,2.47314-.84106,2.68506-2.04395,5.95508-34.13013,11.90918-68.26099,17.86426-102.38501l-2.68506,2.04395,80.521,1.33105c1.52686-.0271,2.75781-1.25903,2.78564-2.78491.26709-5.77612.53418-11.55322.80225-17.33008.16699-3.58105-5.40381-3.57593-5.5708,0-.26709,5.77686-.53418,11.55298-.80225,17.33008l2.78516-2.78516-80.521-1.33105c-1.11914-.01685-2.479.86816-2.68506,2.04419-5.95508,34.12988-11.90918,68.25488-17.86426,102.38501l2.68506-2.04419-11.73096.26709,2.68506,2.04395-18.9292-62.92383c-.35059-1.19702-1.43701-2.0271-2.68457-2.04419l-21.33008.26709,2.68506,3.5271,1.8667-8.53418-2.68506,2.04395c8.80029-.26685,17.59619-.53491,26.39795-.802l-2.68555-2.04492c5.33154,16.97412,10.66797,33.95215,15.99854,50.92603.76318,2.42798,4.85205,2.86304,5.37012,0,5.95508-32.7041,11.90918-65.41406,17.86426-98.1189l-2.68506,2.04492,89.05469.53491c3.58936.02197,3.59424-5.54883.00146-5.57104Z"/>
</svg>