<?xml version="1.0" encoding="UTF-8"?>
<svg id="_Слой_1" data-name="Слой 1" xmlns="http://www.w3.org/2000/svg" viewBox="0 0 227.23992 227.24114">
  <defs>
    <style>
      .cls-1 {
        stroke-width: 5.57px;
      }

      .cls-1, .cls-2, .cls-3, .cls-4, .cls-5, .cls-6, .cls-7, .cls-8 {
        fill: none;
        stroke-miterlimit: 5.57;
      }

      .cls-1, .cls-2, .cls-3, .cls-4, .cls-5, .cls-7, .cls-8 {
        stroke: #81aafa;
      }

      .cls-2 {
        stroke-width: 2.941px;
      }

      .cls-3 {
        stroke-width: 4.93px;
      }

      .cls-4 {
        stroke-width: 2.671px;
      }

      .cls-5 {
        stroke-width: 5.182px;
      }

      .cls-6 {
        stroke: #dbeeff;
        stroke-width: 1.377px;
      }

      .cls-7 {
        stroke-width: 4.412px;
      }

      .cls-9 {
        fill: #81aafa;
      }

      .cls-9, .cls-10 {
        stroke-width: 0px;
      }

      .cls-10 {
        fill: #dbeeff;
      }

      .cls-8 {
        stroke-width: 5.279px;
      }
    </style>
  </defs>
  <circle class="cls-1" cx="113.62021" cy="113.62088" r="110.83529" transform="translate(-21.11206 201.17927) rotate(-78.01878)"/>
  <path class="cls-10" d="M162.9266,180.80478h-98.6123c-2.9668,0-5.37207-2.40479-5.37207-5.37183v-106.50415c0-2.9668,2.40527-5.37183,5.37207-5.37183h98.6123c2.9668,0,5.37109,2.40503,5.37109,5.37183v106.50415c0,2.96704-2.4043,5.37183-5.37109,5.37183"/>
  <path class="cls-8" d="M64.31405,63.55697h98.61157c2.96493,0,5.37207,2.40714,5.37207,5.37207v106.50391c0,2.96479-2.40703,5.37183-5.37183,5.37183h-98.61255c-2.96439,0-5.37109-2.40671-5.37109-5.37109v-106.50488c0-2.96479,2.40703-5.37183,5.37183-5.37183Z"/>
  <rect class="cls-9" x="88.69662" y="82.39633" width="50.73193" height="30.62891"/>
  <rect class="cls-3" x="88.69662" y="82.39633" width="50.73193" height="30.62891"/>
  <rect class="cls-9" x="88.69662" y="132.09042" width="50.73193" height="30.62891"/>
  <rect class="cls-5" x="88.69662" y="132.09042" width="50.73193" height="30.62891"/>
  <rect class="cls-9" x="150.24936" y="81.1102" width="8.22607" height="8.22607"/>
  <rect class="cls-4" x="150.24936" y="81.1102" width="8.22607" height="8.22607"/>
  <rect class="cls-9" x="150.24936" y="105.61605" width="8.22607" height="8.22607"/>
  <rect class="cls-4" x="150.24936" y="105.61605" width="8.22607" height="8.22607"/>
  <rect class="cls-9" x="150.24936" y="131.05722" width="8.22607" height="8.22607"/>
  <rect class="cls-4" x="150.24936" y="131.05722" width="8.22607" height="8.22607"/>
  <rect class="cls-9" x="150.24936" y="154.61215" width="8.22607" height="8.22607"/>
  <rect class="cls-4" x="150.24936" y="154.61215" width="8.22607" height="8.22607"/>
  <rect class="cls-9" x="69.7474" y="81.31723" width="8.22607" height="8.22607"/>
  <rect class="cls-4" x="69.7474" y="81.31723" width="8.22607" height="8.22607"/>
  <rect class="cls-9" x="69.7474" y="105.82309" width="8.22607" height="8.22607"/>
  <rect class="cls-4" x="69.7474" y="105.82309" width="8.22607" height="8.22607"/>
  <rect class="cls-9" x="69.7474" y="131.26425" width="8.22607" height="8.22607"/>
  <rect class="cls-4" x="69.7474" y="131.26425" width="8.22607" height="8.22607"/>
  <rect class="cls-9" x="69.7474" y="154.8182" width="8.22607" height="8.22607"/>
  <rect class="cls-4" x="69.7474" y="154.8182" width="8.22607" height="8.22607"/>
  <path class="cls-9" d="M136.73324,63.5057s1.40283-4.60596,4.25-6.25684c2.84668-1.6521,22.60352-9.35303,22.60352-9.35303l1.58984,3.84106-28.44336,11.7688Z"/>
  <path class="cls-2" d="M136.73324,63.5057s1.40283-4.60596,4.25-6.25684c2.84668-1.6521,22.60352-9.35303,22.60352-9.35303l1.58984,3.84106-28.44336,11.7688Z"/>
  <path class="cls-9" d="M153.29525,74.23373s3.71973-3.05786,4.15674-6.31982c.43799-3.26099,0-24.46313,0-24.46313h-4.15674v30.78296Z"/>
  <path class="cls-2" d="M153.29525,74.23373s3.71973-3.05786,4.15674-6.31982c.43799-3.26099,0-24.46313,0-24.46313h-4.15674v30.78296Z"/>
  <path class="cls-7" d="M161.41,36.33065c0,3.28003-2.65918,5.93921-5.93945,5.93921-3.27979,0-5.93799-2.65918-5.93799-5.93921,0-3.27979,2.6582-5.93799,5.93799-5.93799,3.28027,0,5.93945,2.6582,5.93945,5.93799Z"/>
  <path class="cls-7" d="M177.57309,46.11996c0,3.28003-2.6582,5.93921-5.93848,5.93921-3.28125,0-5.93945-2.65918-5.93945-5.93921,0-3.27979,2.6582-5.93896,5.93945-5.93896,3.28027,0,5.93848,2.65918,5.93848,5.93896Z"/>
  <path class="cls-10" d="M157.32455,53.91195c0,1.02417-.83008,1.854-1.854,1.854-1.02344,0-1.85303-.82983-1.85303-1.854,0-1.02295.82959-1.85278,1.85303-1.85278,1.02393,0,1.854.82983,1.854,1.85278"/>
  <path class="cls-6" d="M157.32455,53.91195c0,1.02417-.83008,1.854-1.854,1.854-1.02344,0-1.85303-.82983-1.85303-1.854,0-1.02295.82959-1.85278,1.85303-1.85278,1.02393,0,1.854.82983,1.854,1.85278Z"/>
</svg>