<?xml version="1.0" encoding="UTF-8"?>
<svg id="_Слой_1" data-name="Слой 1" xmlns="http://www.w3.org/2000/svg" viewBox="0 0 226.60367 226.58954">
  <defs>
    <style>
      .cls-1 {
        fill: #dbeeff;
      }

      .cls-1, .cls-2 {
        stroke-width: 0px;
      }

      .cls-2 {
        fill: #82acf6;
      }
    </style>
  </defs>
  <path class="cls-2" d="M226.60367,111.88221c-.19385-.64844-.04419-1.31281-.09131-1.96796.00024-.4632,0-.92657,0-1.38983-.02563-.3584.05859-.7226-.05762-1.07617-.13623-1.87927-.21094-3.76544-.42017-5.6366-.67456-6.02832-1.72534-11.98694-3.30591-17.85278-3.02832-11.23846-7.65161-21.76752-13.90942-31.57812-6.2124-9.73956-13.74731-18.31915-22.58179-25.76648-6.31323-5.32196-13.12915-9.88525-20.44019-13.71246-8.5769-4.48999-17.59131-7.80139-27.01953-9.99713C131.21231,1.14283,123.54166.22333,115.78409.02771c-3.53613-.08917-7.06787.04474-10.60059.28857-4.41064.30438-8.78564.86353-13.11865,1.70026-11.53198,2.22675-22.48145,6.10687-32.80566,11.72858-12.51514,6.81488-23.36768,15.66125-32.56201,26.55121-7.0459,8.34558-12.74707,17.52106-17.13696,27.51898C3.69059,81.18299.57731,95.1778.05729,109.75116c-.16528,4.62561.04004,9.24573.44946,13.862.50293,5.66956,1.44678,11.2583,2.80566,16.77759,2.32129,9.42902,5.79736,18.41443,10.43823,26.94879,6.21265,11.42487,14.14624,21.48651,23.81787,30.18225,8.52319,7.66339,17.98608,13.88971,28.39917,18.68127,13.1792,6.06415,27.01636,9.44086,41.49365,10.23145.40161.13245.81543.03271,1.22266.06372.59717.05194,1.20508-.10864,1.79468.09131h5.66455c.57959-.19977,1.17773-.03979,1.76538-.09131.38721.00043.77441,0,1.16235,0,2.95044.01703,5.88452-.22009,8.8064-.59796,6.36011-.82257,12.61206-2.16785,18.73657-4.06708,11.0332-3.42139,21.34106-8.35059,30.87134-14.90118,6.23975-4.28894,11.9751-9.1524,17.25293-14.58453,3.85205-3.96472,7.4021-8.1665,10.63086-12.64545,4.56763-6.33588,8.47266-13.05731,11.63672-20.20026,2.96973-6.70447,5.32275-13.61865,6.93604-20.77783,1.46094-6.48126,2.52881-13.01373,2.57056-19.67975.00024-.34021,0-.68097,0-1.02136.00024-.45312,0-.90656,0-1.35999.04761-.64868-.10278-1.30658.09131-1.94836v-2.83228ZM113.22184,221.0047c-59.72217-.05682-107.65649-48.01483-107.62085-107.77478C5.63663,53.49457,53.61759,5.80713,113.35782,5.52417c59.71582.31628,107.67456,48.03778,107.6604,107.79681-.01392,59.78455-48.02637,107.7406-107.79639,107.68372Z"/>
  <path class="cls-2" d="M127.29657,74.92036c-.00042,2.27167-.00056,4.54335-.00039,6.81502.00042,5.45026.01848,10.90064-.01769,16.35065-.00532.80129.26813.91836.96958.84868,5.75846-.57199,11.5199-.60026,17.29605-.20165,5.02636.34686,10.01964.91637,14.97031,1.83198,4.00322.74039,7.92529,1.80183,11.66414,3.43829,2.38247,1.04279,4.57313,2.34948,5.6824,4.90069.27544.63347.42827,1.26294.42603,1.9607-.01677,5.25135-.01043,10.50277-.01051,15.75418-.00025,14.41921-.01448,28.83844.01992,43.25758.00387,1.61961-.61975,2.65013-2.03669,3.38214-7.1223,3.67955-14.52075,6.61145-22.34494,8.42632-5.97446,1.38582-12.02721,2.04097-18.1483,1.67002-8.71285-.52801-17.07614-2.63388-25.15095-5.92251-3.33428-1.35796-6.57022-2.91814-9.72406-4.65304-1.05931-.58274-1.56953-1.45737-1.56766-2.66095.00599-3.83529-.01395-7.67071.01577-11.50578.0058-.7478-.14541-.94489-.94246-.79874-2.46047.4512-4.94708.71054-7.45159.81304-11.74552.4807-22.82395-2.25958-33.52238-6.87891-2.49231-1.07611-4.90551-2.30551-7.30302-3.57335-1.22314-.64681-1.78434-1.60133-1.78369-2.99219.01232-26.28652.00524-52.57305.0154-78.85957.00087-2.24772,1.3146-3.79674,2.99686-5.0488,2.16211-1.60919,4.69497-2.42997,7.24024-3.19528,4.40238-1.32371,8.88245-2.30965,13.43142-2.95682,2.59157-.3687,5.19883-.61418,7.81373-.79489,3.24141-.22401,6.48312-.18414,9.72579-.16825,4.54101.02226,9.04888.47387,13.55082,1.03862,4.73872.59446,9.42686,1.42421,13.9774,2.89469,2.7203.87904,5.44284,1.80391,7.68951,3.67406,1.60844,1.3389,2.59005,2.98606,2.53503,5.18884-.06629,2.65355-.01568,5.31002-.01609,7.96522Z"/>
  <path class="cls-1" d="M121.80252,73.14456c0,3.98021-.00375,7.81138.00512,11.64251.00103.44161-.19342.70477-.56231.91278-6.22164,3.50822-12.82705,5.99371-19.82755,7.41017-3.59684.72777-7.22916,1.10584-10.9029,1.2835-7.50003.36266-14.7949-.67417-21.97417-2.76533-4.96864-1.44726-9.66595-3.52072-14.18354-6.02677-.39364-.21837-.52704-.48136-.52566-.91324.01164-3.62708.0149-7.25425-.0017-10.88129-.00274-.60015.13661-.73871.69434-.43913,4.66388,2.50514,9.73874,3.78686,14.87127,4.81818,3.52829.70897,7.09908,1.18569,10.69459,1.52144,3.88206.36252,7.7641.4057,11.63963.26714,3.27167-.11696,6.53534-.49619,9.78938-.96514,4.92777-.71017,9.74375-1.8259,14.44316-3.44842,1.94126-.67023,3.8318-1.47885,5.84033-2.4164Z"/>
  <path class="cls-1" d="M172.7839,123.67304c.00001,1.77011-.01692,3.54048.01032,5.31017.0082.53388-.15137.84338-.6384,1.11721-6.02025,3.38464-12.3952,5.83223-19.15213,7.25887-2.98334.62989-5.99687,1.04593-9.04522,1.28552-2.94796.23168-5.89378.19865-8.83163.10351-2.95408-.09567-5.89233-.52148-8.80674-1.07176-7.05488-1.33203-13.70017-3.78476-20.0265-7.15887-1.03739-.55329-1.56183-1.14151-1.51348-2.43389.11901-3.18174.03818-6.37094.0394-9.55714.00042-1.11324-.01222-1.08327.94568-.60693,3.54672,1.76375,7.29297,2.95751,11.13664,3.87772,2.93909.70364,5.90984,1.24767,8.89496,1.68612,1.93933.28486,3.89388.49194,5.85583.63982,3.14229.23683,6.28602.43118,9.43111.30088,2.7808-.11521,5.55802-.32082,8.33051-.64387,4.027-.4692,8.00759-1.13702,11.93205-2.14729,3.68306-.94814,7.26357-2.18882,10.70219-3.81709.59307-.28084.75635-.20847.74546.45836-.02934,1.79914-.01004,3.59906-.01004,5.39868Z"/>
  <path class="cls-1" d="M172.78392,136.17745v10.64254c0,2.30829-.01745,2.27552-2.06195,3.36394-5.32721,2.83595-10.90127,5.01465-16.78984,6.3544-2.80063.63719-5.62969,1.09084-8.49228,1.40496-3.40924.37409-6.82157.41141-10.22707.27677-2.98132-.11787-5.95243-.51735-8.89469-1.07484-6.87346-1.30237-13.3647-3.65852-19.5564-6.90645-1.28334-.67319-1.88241-1.38592-1.81259-2.94253.15183-3.38555.04651-6.78261.04709-10.17497.00017-.98417.00347-.98833.83749-.5713,6.18967,3.09509,12.68843,5.29456,19.47754,6.60533,2.41377.46605,4.85714.77911,7.31737.96501,2.46339.18615,4.92521.3959,7.39481.32034,5.02172-.15363,10.00359-.68311,14.91119-1.79371,5.9933-1.35629,11.72575-3.44395,17.21895-6.19397.15488-.07753.31761-.13945.63038-.27552Z"/>
  <path class="cls-1" d="M172.78392,155.58402v.7868c0,3.80449-.02195,7.60922.01825,11.4133.00819.77427-.28082,1.15673-.94423,1.48799-7.19306,3.59171-14.69514,6.27918-22.61916,7.70632-2.30516.41515-4.63431.69177-6.98664.78896-1.024.04231-2.04963.14377-3.07815.13902-4.65318-.0215-9.24339-.60597-13.77863-1.61447-6.84083-1.5212-13.34671-3.9647-19.58207-7.15603-.72813-.37266-1.02529-.78759-1.01447-1.62643.04715-3.65643.01936-7.31381.02084-10.97085.00041-1.01849.00724-1.02561.94048-.55193,5.00165,2.53866,10.20873,4.54065,15.65774,5.87373,3.35915.82179,6.76262,1.38417,10.21206,1.75381,3.70576.3971,7.41591.44513,11.10914.26293,5.54478-.27354,11.00434-1.22934,16.33829-2.83272,4.49371-1.35081,8.82028-3.10435,12.98859-5.25484.20262-.10453.39802-.25593.71794-.20558Z"/>
  <path class="cls-1" d="M54.01465,98.38155c0-1.76984-.00014-3.53968.00003-5.30952.00014-1.3655.00454-1.37379,1.18185-.77282,4.89696,2.49972,10.03317,4.35509,15.37097,5.64445,3.42027.82617,6.88205,1.40242,10.39175,1.75556,3.32031.33409,6.64154.4105,9.96084.29268,3.33731-.11845,6.65886-.50769,9.95453-1.09543,3.53388-.6302,6.99434-1.54273,10.39753-2.66325,2.34605-.77243,4.6447-1.68536,6.89133-2.71806,1.01567-.46687,2.02364-.95248,3.01737-1.46404.4031-.20751.6177-.1947.61851.30543.00371,2.27129-.00741,4.54263.00867,6.8138.00365.51536-.37795.58287-.69773.63127-3.98261.60302-7.8846,1.55615-11.73743,2.71099-2.62545.78693-5.20865,1.67274-7.40614,3.4162-1.74966,1.38818-2.7089,3.11502-2.64834,5.38843.04182,1.57022.00939,1.57968-1.50883,1.82083-2.66886.42391-5.34686.73869-8.05757.70139-1.13694-.01566-2.27182.05195-3.41252.0398-5.46777-.05818-10.81125-.88267-16.0786-2.28014-5.48978-1.45649-10.6846-3.63989-15.64448-6.39911-.49133-.27331-.61462-.63621-.60932-1.15507.01926-1.88764.0076-3.77558.00759-5.66341Z"/>
  <path class="cls-1" d="M87.51394,59.67021c2.93853-.14435,6.1703.12006,9.38753.38247,6.31847.51536,12.56934,1.52324,18.65342,3.3623,1.85413.56046,3.67318,1.25994,5.31675,2.33483.81842.53525.85932.58474.08313,1.2126-1.29213,1.04522-2.77808,1.78594-4.30403,2.40292-4.866,1.96741-9.9368,3.23029-15.10439,4.05966-3.18005.51038-6.39139.80389-9.61868.97735-2.20966.11876-4.41594.16853-6.61675.10431-5.40038-.15758-10.75978-.74168-16.02659-1.99638-4.52192-1.07725-8.99706-2.30145-13.16683-4.43473-.53131-.27183-.98999-.63348-1.46407-.97723-.54917-.39821-.61248-.7786.02064-1.22921,1.85526-1.32042,3.98429-1.98941,6.11862-2.64506,3.56625-1.09554,7.20958-1.87794,10.89166-2.43952,2.43015-.37064,4.87588-.64795,7.33891-.80123,2.72917-.16983,5.45348-.35929,8.49069-.31308Z"/>
  <path class="cls-1" d="M138.21871,104.10842c2.67143-.10316,5.4118-.03017,8.13864.18602,3.91132.3101,7.81009.73967,11.67162,1.49636,2.88165.56468,5.75863,1.13034,8.5561,2.0273,1.84654.59204,3.66917,1.26062,5.30063,2.34962.80154.53501.81955.68884-.03523,1.27728-1.70589,1.17438-3.56372,2.06006-5.50097,2.78307-4.58183,1.71001-9.31929,2.83516-14.13215,3.62369-2.36747.38787-4.75998.64107-7.16417.77649-2.37514.13379-4.74953.40695-7.12662.31063-3.60188-.14594-7.19912-.32662-10.78414-.82072-4.84405-.66763-9.58212-1.74351-14.21173-3.27924-2.17024-.71991-4.36552-1.42487-6.32562-2.67089-.60645-.38551-1.35526-.82708-1.42835-1.45219-.04563-.39027.87741-.74386,1.40842-1.04887,2.79004-1.60254,5.89372-2.31074,8.96733-3.07927,3.84205-.96069,7.7437-1.58133,11.68699-1.98752,3.6312-.37406,7.26228-.59381,10.97924-.49177Z"/>
  <path class="cls-1" d="M99.32639,145.15294c-.00001,2.035-.03043,4.07072.01733,6.1046.01562.66536-.28179.87805-.83982.9723-4.38833.741-8.81167,1.13188-13.25253.86885-5.34066-.31633-10.58728-1.27155-15.72508-2.7941-5.03559-1.49228-9.86589-3.48955-14.5717-5.81064-.80588-.39749-1.16272-.84721-1.14436-1.81.06917-3.62629.02717-7.25469.02813-10.8823.00028-1.06035.01238-1.07946.97995-.56919,5.12921,2.70503,10.54636,4.64648,16.16423,6.02702,3.01655.74128,6.0805,1.22925,9.17659,1.56455,2.6029.28188,5.21656.49592,7.81621.44399,3.39331-.06776,6.80499-.15702,10.16316-.80412,1.18274-.22792,1.18785-.20167,1.18789,1.02643.00005,1.88754.00002,3.77507,0,5.66261Z"/>
  <path class="cls-1" d="M99.32641,125.55394c0,2.00487-.02927,4.01042.01708,6.01421.01473.63636-.21006.9041-.79767,1.00924-4.47211.80015-8.98718,1.13584-13.51296.86913-5.42876-.31993-10.74189-1.36509-15.96106-2.93091-5.00623-1.50195-9.78981-3.5202-14.4578-5.84479-.53123-.26454-.79827-.54743-.79258-1.19618.03364-3.83254.03377-7.66568.00278-11.49826-.00657-.81271.22569-.81528.83931-.47795,3.28038,1.80332,6.74184,3.20821,10.27958,4.39413,3.97954,1.33398,8.04813,2.34327,12.22125,2.91346,2.70563.36969,5.41405.58236,8.14188.7282,4.33193.23159,8.60903-.1152,12.88114-.73282,1.13951-.16474,1.13896-.16928,1.13901,1.00329.0001,1.91642.00003,3.83283.00003,5.74925Z"/>
</svg>