<?xml version="1.0" encoding="UTF-8"?>
<svg id="_Слой_1" data-name="Слой 1" xmlns="http://www.w3.org/2000/svg" viewBox="0 0 227.24041 227.24102">
  <defs>
    <style>
      .cls-1 {
        fill: #ffd03c;
      }

      .cls-1, .cls-2 {
        stroke-width: 0px;
      }

      .cls-3 {
        fill: none;
        stroke: #aac419;
        stroke-miterlimit: 5.57;
        stroke-width: 5.57px;
      }

      .cls-2 {
        fill: #aac419;
      }
    </style>
  </defs>
  <circle class="cls-3" cx="113.62033" cy="113.62036" r="110.83567" transform="translate(-11.1559 214.86292) rotate(-84.05564)"/>
  <path class="cls-1" d="M119.42465,86.70956c13.30762,9.35815,67.09082,20.76709,82.78857,16.55518,0,0-10.42773,58.31189-16.41602,64.71289-6.91357,7.38599-33.25586,20.32605-42.29688,18.828-9.04102-1.49902-30.3418-25.11206-33.646-32.99402-3.54785-8.46204,9.57031-67.10205,9.57031-67.10205"/>
  <path class="cls-3" d="M119.42465,86.70956c13.30762,9.35815,67.09082,20.76709,82.78857,16.55518,0,0-10.42773,58.31189-16.41602,64.71289-6.91357,7.38599-33.25586,20.32605-42.29688,18.828-9.04102-1.49902-30.3418-25.11206-33.646-32.99402-3.54785-8.46204,9.57031-67.10205,9.57031-67.10205Z"/>
  <path class="cls-1" d="M40.39682,60.26669c18.17578,13.23022,64.09277,11.69824,84.21973-5.88794,0,0,5.33691,58.99707,1.25293,66.75098-4.71191,8.94604-26.70996,28.38696-35.82275,29.328-9.11426.94202-35.89697-16.20984-41.16602-22.93884-5.6543-7.22998-8.48389-67.2522-8.48389-67.2522"/>
  <path class="cls-3" d="M40.39682,60.26669c18.17578,13.23022,64.09277,11.69824,84.21973-5.88794,0,0,5.33691,58.99707,1.25293,66.75098-4.71191,8.94604-26.70996,28.38696-35.82275,29.328-9.11426.94202-35.89697-16.20984-41.16602-22.93884-5.6543-7.22998-8.48389-67.2522-8.48389-67.2522Z"/>
  <path class="cls-3" d="M54.60141,94.21298c5.65381-9.65381,16.33789-9.65381,22.62695-1.91577"/>
  <path class="cls-3" d="M93.32699,92.05722c5.65381-9.65381,16.33789-9.65381,22.62695-1.91577"/>
  <path class="cls-3" d="M164.2059,121.19638c4.63965,10.18311,15.26855,11.26904,22.30957,4.21118"/>
  <path class="cls-3" d="M127.40756,113.81552c4.63965,10.18311,15.26855,11.26904,22.30957,4.21118"/>
  <path class="cls-1" d="M69.25717,119.67563s9.91992,2.40112,18.17578,1.57617c12.30518-1.2251,18.58887-3.98193,18.58887-3.98193-3.14111,8.7229-6.91309,11.41284-18.53906,12.67188-10.68359,0-12.88379-1.25903-18.22559-10.26611"/>
  <path class="cls-3" d="M69.25717,119.67563s9.91992,2.40112,18.17578,1.57617c12.30518-1.2251,18.58887-3.98193,18.58887-3.98193-3.14111,8.7229-6.91309,11.41284-18.53906,12.67188-10.68359,0-12.88379-1.25903-18.22559-10.26611Z"/>
  <path class="cls-1" d="M132.62094,156.34604s8.95166-.28394,16.00391,1.66003c10.51172,2.89099,15.58105,6.01599,15.58105,6.01599-1.50439-7.22998-4.39502-9.90393-14.31104-12.71191-9.28613-1.6991-11.36914-1.06909-17.27393,5.03589"/>
  <path class="cls-3" d="M132.62094,156.34604s8.95166-.28394,16.00391,1.66003c10.51172,2.89099,15.58105,6.01599,15.58105,6.01599-1.50439-7.22998-4.39502-9.90393-14.31104-12.71191-9.28613-1.6991-11.36914-1.06909-17.27393,5.03589Z"/>
  <path class="cls-2" d="M181.20102,148.10727c-.22314.81311-.98047,2.70203-2.73535,2.34009-2.55176-.52405-1.61572-3.25403.14502-4.21204,2.04932-1.11902,3.09131-2.21094,3.09131-2.21094,0,0,.14502,1.74292-.50098,4.08289"/>
  <path class="cls-3" d="M181.20102,148.10727c-.22314.81311-.98047,2.70203-2.73535,2.34009-2.55176-.52405-1.61572-3.25403.14502-4.21204,2.04932-1.11902,3.09131-2.21094,3.09131-2.21094,0,0,.14502,1.74292-.50098,4.08289Z"/>
</svg>