<?xml version="1.0" encoding="UTF-8"?>
<svg id="_Слой_1" data-name="Слой 1" xmlns="http://www.w3.org/2000/svg" viewBox="0 0 227.23924 227.23858">
  <defs>
    <style>
      .cls-1 {
        fill: #dbeeff;
        stroke-width: 0px;
      }

      .cls-2 {
        fill: none;
        stroke: #82acf6;
        stroke-miterlimit: 5.57;
        stroke-width: 5.57px;
      }
    </style>
  </defs>
  <path class="cls-2" d="M35.24802,35.24722c43.284-43.28296,113.45996-43.28296,156.74396,0,43.28302,43.28418,43.28302,113.46021,0,156.74414-43.284,43.28296-113.45996,43.28296-156.74396,0-43.28403-43.28394-43.28403-113.45996,0-156.74414Z"/>
  <path class="cls-1" d="M50.18393,63.7875l8.94598,16.72217c.16699.31201.48999.52393.85797.57397l20.00403,2.67993c.935.12207,1.30896,1.18604.63501,1.79297l-14.47803,13.01807c-.26697.23999-.39001.59106-.32898.93091l3.41498,18.38208c.16199.85791-.81897,1.51514-1.65399,1.10913l-17.89301-8.6792c-.33398-.16187-.729-.16187-1.06403,0l-17.89197,8.6792c-.836.40601-1.81598-.25122-1.65399-1.10913l3.41998-18.38208c.06104-.33984-.06097-.69092-.32898-.93091l-14.47198-13.01807c-.67902-.60693-.306-1.6709.63498-1.79297l20.004-2.67993c.37299-.05005.69-.26709.85797-.57397l8.94604-16.72217c.41199-.78589,1.62097-.78589,2.04401,0"/>
  <path class="cls-2" d="M50.18393,63.7875l8.94598,16.72217c.16699.31201.48999.52393.85797.57397l20.00403,2.67993c.935.12207,1.30896,1.18604.63501,1.79297l-14.47803,13.01807c-.26697.23999-.39001.59106-.32898.93091l3.41498,18.38208c.16199.85791-.81897,1.51514-1.65399,1.10913l-17.89301-8.6792c-.33398-.16187-.729-.16187-1.06403,0l-17.89197,8.6792c-.836.40601-1.81598-.25122-1.65399-1.10913l3.41998-18.38208c.06104-.33984-.06097-.69092-.32898-.93091l-14.47198-13.01807c-.67902-.60693-.306-1.6709.63498-1.79297l20.004-2.67993c.37299-.05005.69-.26709.85797-.57397l8.94604-16.72217c.41199-.78589,1.62097-.78589,2.04401,0Z"/>
  <path class="cls-2" d="M73.81943,135.23428l8.94598,16.72217c.16699.31201.48999.52393.85797.57397l20.00403,2.67993c.935.12793,1.30896,1.18604.63501,1.79297l-14.47803,13.01904c-.26697.23901-.39001.59009-.32898.92993l3.41498,18.3772c.16199.85791-.81897,1.51489-1.65399,1.10791l-17.89301-8.67896c-.33398-.16113-.729-.16113-1.06403,0l-17.89197,8.67896c-.836.40698-1.81598-.25-1.65399-1.10791l3.41998-18.3772c.06104-.33984-.06097-.69092-.32898-.92993l-14.47198-13.01904c-.67902-.60693-.30603-1.6709.63495-1.79297l20.00403-2.67993c.37299-.05005.69-.26709.85797-.57397l8.94604-16.72217c.41699-.78491,1.62598-.78491,2.04401,0Z"/>
  <path class="cls-2" d="M154.71372,135.23428l8.94598,16.72217c.16699.31201.48999.52393.85797.57397l20.00403,2.67993c.93597.12793,1.30896,1.18604.63501,1.79297l-14.47803,13.01904c-.26697.23901-.39001.59009-.32898.92993l3.41498,18.3772c.16199.85791-.81897,1.51489-1.65399,1.10791l-17.89301-8.67896c-.33398-.16113-.729-.16113-1.06403,0l-17.89197,8.67896c-.836.40698-1.81598-.25-1.65399-1.10791l3.41998-18.3772c.06104-.33984-.06097-.69092-.32898-.92993l-14.47198-13.01904c-.67902-.60693-.30603-1.6709.63495-1.79297l20.00403-2.67993c.37299-.05005.69098-.26709.85797-.57397l8.94604-16.72217c.41199-.78491,1.62097-.78491,2.04401,0Z"/>
  <path class="cls-1" d="M179.12339,66.73965l8.94598,16.72314c.16699.31201.48999.52295.85797.573l20.00403,2.67993c.93597.12207,1.30896,1.18604.63501,1.79395l-14.47803,13.01807c-.26697.23901-.39001.59009-.32898.92993l3.41498,18.3772c.16199.85791-.81897,1.51489-1.65399,1.10791l-17.89301-8.67798c-.33398-.16211-.729-.16211-1.06403,0l-17.89197,8.67798c-.836.40698-1.81598-.25-1.65399-1.10791l3.41998-18.3772c.06104-.33984-.06097-.69092-.32898-.92993l-14.47699-13.01294c-.68005-.60693-.30701-1.67114.63495-1.79395l20.00305-2.6792c.37299-.0498.69098-.26685.85797-.57397l8.94598-16.72192c.41803-.79102,1.62701-.79102,2.05005-.0061"/>
  <path class="cls-2" d="M179.12339,66.73965l8.94598,16.72314c.16699.31201.48999.52295.85797.573l20.00403,2.67993c.93597.12207,1.30896,1.18604.63501,1.79395l-14.47803,13.01807c-.26697.23901-.39001.59009-.32898.92993l3.41498,18.3772c.16199.85791-.81897,1.51489-1.65399,1.10791l-17.89301-8.67798c-.33398-.16211-.729-.16211-1.06403,0l-17.89197,8.67798c-.836.40698-1.81598-.25-1.65399-1.10791l3.41998-18.3772c.06104-.33984-.06097-.69092-.32898-.92993l-14.47699-13.01294c-.68005-.60693-.30701-1.67114.63495-1.79395l20.00305-2.6792c.37299-.0498.69098-.26685.85797-.57397l8.94598-16.72192c.41803-.79102,1.62701-.79102,2.05005-.0061Z"/>
  <path class="cls-1" d="M115.6146,14.03189l9.89294,18.48901c.18402.34521.54004.5791.953.63501l22.12,2.96313c1.03601.13892,1.44806,1.31494.70203,1.98901l-16.00403,14.39404c-.29498.26685-.435.65186-.362,1.02979l3.77704,20.32104c.17798.95312-.90802,1.677-1.83301,1.22607l-19.78101-9.59204c-.36798-.17896-.80798-.17896-1.17499,0l-19.78101,9.59204c-.92499.45093-2.01099-.27905-1.83301-1.22607l3.77698-20.32104c.073-.37793-.06696-.76294-.362-1.02979l-16.00397-14.39404c-.75201-.67407-.33398-1.8501.70203-1.98901l22.11499-2.96313c.41199-.05591.76801-.2959.95197-.63501l9.89301-18.48901c.44598-.8689,1.78302-.8689,2.25104,0"/>
  <path class="cls-2" d="M115.6146,14.03189l9.89294,18.48901c.18402.34521.54004.5791.953.63501l22.12,2.96313c1.03601.13892,1.44806,1.31494.70203,1.98901l-16.00403,14.39404c-.29498.26685-.435.65186-.362,1.02979l3.77704,20.32104c.17798.95312-.90802,1.677-1.83301,1.22607l-19.78101-9.59204c-.36798-.17896-.80798-.17896-1.17499,0l-19.78101,9.59204c-.92499.45093-2.01099-.27905-1.83301-1.22607l3.77698-20.32104c.073-.37793-.06696-.76294-.362-1.02979l-16.00397-14.39404c-.75201-.67407-.33398-1.8501.70203-1.98901l22.11499-2.96313c.41199-.05591.76801-.2959.95197-.63501l9.89301-18.48901c.44598-.8689,1.78302-.8689,2.25104,0Z"/>
</svg>