<?xml version="1.0" encoding="UTF-8"?>
<svg id="_Слой_1" data-name="Слой 1" xmlns="http://www.w3.org/2000/svg" viewBox="0 0 227.23924 227.23858">
  <defs>
    <style>
      .cls-1 {
        stroke-width: .557px;
      }

      .cls-1, .cls-2 {
        fill: none;
        stroke: #f57d7f;
        stroke-miterlimit: 5.57;
      }

      .cls-2 {
        stroke-width: 5.57px;
      }

      .cls-3 {
        fill: #ffdae3;
        stroke-width: 0px;
      }
    </style>
  </defs>
  <path class="cls-2" d="M35.24801,35.24722c43.284-43.28296,113.45999-43.28296,156.74399,0,43.28299,43.28418,43.28299,113.46021,0,156.74414-43.284,43.28296-113.45999,43.28296-156.74399,0-43.28401-43.28394-43.28401-113.45996,0-156.74414Z"/>
  <path class="cls-3" d="M50.18032,63.79312l8.94598,16.72314c.16699.31201.48999.52295.858.573l20.004,2.67993c.935.12207,1.30899,1.18604.63501,1.79395l-14.478,13.01807c-.267.23901-.39001.59009-.32901.92993l3.41501,18.3772c.16098.85791-.819,1.51489-1.65402,1.10791l-17.89297-8.67798c-.33401-.16211-.73001-.16211-1.06403,0l-17.892,8.67798c-.836.40698-1.81598-.25-1.655-1.10791l3.42102-18.3772c.061-.33984-.061-.69092-.32901-.92993l-14.47198-13.01807c-.68002-.60791-.306-1.67188.63498-1.79395l20.004-2.67993c.37302-.05005.69-.26709.85699-.573l8.94702-16.72314c.41699-.77979,1.62598-.77979,2.04401,0"/>
  <path class="cls-1" d="M50.18032,63.79312l8.94598,16.72314c.16699.31201.48999.52295.858.573l20.004,2.67993c.935.12207,1.30899,1.18604.63501,1.79395l-14.478,13.01807c-.267.23901-.39001.59009-.32901.92993l3.41501,18.3772c.16098.85791-.819,1.51489-1.65402,1.10791l-17.89297-8.67798c-.33401-.16211-.73001-.16211-1.06403,0l-17.892,8.67798c-.836.40698-1.81598-.25-1.655-1.10791l3.42102-18.3772c.061-.33984-.061-.69092-.32901-.92993l-14.47198-13.01807c-.68002-.60791-.306-1.67188.63498-1.79395l20.004-2.67993c.37302-.05005.69-.26709.85699-.573l8.94702-16.72314c.41699-.77979,1.62598-.77979,2.04401,0"/>
  <path class="cls-2" d="M50.18032,63.79312l8.94598,16.72314c.16699.31201.48999.52295.858.573l20.004,2.67993c.935.12207,1.30899,1.18604.63501,1.79395l-14.478,13.01807c-.267.23901-.39001.59009-.32901.92993l3.41501,18.3772c.16098.85791-.819,1.51489-1.65402,1.10791l-17.89297-8.67798c-.33401-.16211-.73001-.16211-1.06403,0l-17.892,8.67798c-.836.40698-1.81598-.25-1.655-1.10791l3.42102-18.3772c.061-.33984-.061-.69092-.32901-.92993l-14.47198-13.01807c-.68002-.60791-.306-1.67188.63498-1.79395l20.004-2.67993c.37302-.05005.69-.26709.85699-.573l8.94702-16.72314c.41699-.77979,1.62598-.77979,2.04401,0Z"/>
  <path class="cls-2" d="M73.82131,135.2399l8.94598,16.72314c.16699.31201.48999.52295.858.573l20.004,2.67993c.935.12207,1.30899,1.18604.63501,1.79395l-14.478,13.01807c-.267.23901-.39001.59009-.32901.92993l3.41501,18.3772c.16098.85791-.819,1.51489-1.65402,1.10791l-17.89297-8.67798c-.33401-.16211-.73001-.16211-1.06403,0l-17.892,8.67798c-.836.40698-1.81598-.25-1.65399-1.10791l3.42001-18.3772c.061-.33984-.061-.69092-.32901-.92993l-14.47198-13.01807c-.68002-.60791-.306-1.67188.63498-1.79395l20.004-2.67993c.37302-.05005.69-.26709.85699-.573l8.94702-16.72314c.41199-.78491,1.621-.78491,2.04401,0Z"/>
  <path class="cls-2" d="M154.71011,135.2399l8.94598,16.72314c.16699.31201.48999.52295.858.573l20.004,2.67993c.935.12207,1.30899,1.18604.63501,1.79395l-14.478,13.01807c-.267.23901-.39001.59009-.32901.92993l3.41501,18.3772c.16098.85791-.819,1.51489-1.65402,1.10791l-17.89297-8.67798c-.33401-.16211-.73001-.16211-1.06403,0l-17.892,8.67798c-.836.40698-1.81598-.25-1.65399-1.10791l3.42001-18.3772c.061-.33984-.061-.69092-.32901-.92993l-14.47198-13.01807c-.68002-.60791-.306-1.67188.63498-1.79395l20.004-2.67993c.37302-.05005.69-.26709.85699-.573l8.94702-16.72314c.41699-.78491,1.62598-.78491,2.04401,0Z"/>
  <path class="cls-2" d="M179.1199,66.74551l8.94598,16.72314c.16699.31104.48999.52295.858.573l20.004,2.67993c.935.12207,1.30899,1.18604.63501,1.79297l-14.478,13.01904c-.267.23901-.39001.59009-.32901.92993l3.41501,18.38208c.16098.85791-.819,1.51514-1.65402,1.10913l-17.89297-8.6792c-.33401-.16089-.73001-.16089-1.06403,0l-17.892,8.6792c-.836.40601-1.81598-.25122-1.65399-1.10913l3.42001-18.38208c.061-.33984-.061-.69092-.32901-.92993l-14.47198-13.01904c-.68002-.60693-.306-1.6709.63498-1.79297l20.004-2.67993c.37302-.05005.69-.26709.85699-.573l8.94702-16.72314c.41199-.78491,1.62598-.78491,2.04401,0Z"/>
  <path class="cls-3" d="M115.61102,14.03775l9.89297,18.48804c.18402.34619.54001.58008.953.63599l22.12,2.96313c1.03601.13892,1.44803,1.31494.70203,1.98901l-16.00403,14.38794c-.29498.26709-.435.6521-.362,1.03101l3.77701,20.32104c.17801.9519-.90799,1.67603-1.83301,1.22485l-19.78098-9.5918c-.367-.17798-.80701-.17798-1.17502,0l-19.78101,9.5918c-.92398.45117-2.01099-.27783-1.832-1.22485l3.776-20.32104c.073-.37891-.06699-.76392-.362-1.03101l-16.004-14.38794c-.75198-.67407-.33398-1.8501.70203-1.98901l22.11499-2.96313c.41199-.05591.76898-.2959.953-.63599l9.89301-18.48804c.45099-.8689,1.78799-.8689,2.25,0"/>
  <path class="cls-1" d="M115.61102,14.03775l9.89297,18.48804c.18402.34619.54001.58008.953.63599l22.12,2.96313c1.03601.13892,1.44803,1.31494.70203,1.98901l-16.00403,14.38794c-.29498.26709-.435.6521-.362,1.03101l3.77701,20.32104c.17801.9519-.90799,1.67603-1.83301,1.22485l-19.78098-9.5918c-.367-.17798-.80701-.17798-1.17502,0l-19.78101,9.5918c-.92398.45117-2.01099-.27783-1.832-1.22485l3.776-20.32104c.073-.37891-.06699-.76392-.362-1.03101l-16.004-14.38794c-.75198-.67407-.33398-1.8501.70203-1.98901l22.11499-2.96313c.41199-.05591.76898-.2959.953-.63599l9.89301-18.48804c.45099-.8689,1.78799-.8689,2.25,0"/>
  <path class="cls-2" d="M115.61102,14.03775l9.89297,18.48804c.18402.34619.54001.58008.953.63599l22.12,2.96313c1.03601.13892,1.44803,1.31494.70203,1.98901l-16.00403,14.38794c-.29498.26709-.435.6521-.362,1.03101l3.77701,20.32104c.17801.9519-.90799,1.67603-1.83301,1.22485l-19.78098-9.5918c-.367-.17798-.80701-.17798-1.17502,0l-19.78101,9.5918c-.92398.45117-2.01099-.27783-1.832-1.22485l3.776-20.32104c.073-.37891-.06699-.76392-.362-1.03101l-16.004-14.38794c-.75198-.67407-.33398-1.8501.70203-1.98901l22.11499-2.96313c.41199-.05591.76898-.2959.953-.63599l9.89301-18.48804c.45099-.8689,1.78799-.8689,2.25,0Z"/>
</svg>