<?xml version="1.0" encoding="UTF-8"?>
<svg id="_Слой_1" data-name="Слой 1" xmlns="http://www.w3.org/2000/svg" viewBox="0 0 227.23919 227.23858">
  <defs>
    <style>
      .cls-1 {
        fill: none;
        stroke: #ee7e7d;
        stroke-miterlimit: 5.57;
        stroke-width: 5.57px;
      }

      .cls-2 {
        fill: #ffdae3;
        stroke-width: 0px;
      }
    </style>
  </defs>
  <path class="cls-1" d="M35.24813,35.24722c43.28271-43.28296,113.45996-43.28296,156.74365,0,43.2832,43.28418,43.2832,113.46021,0,156.74414-43.28369,43.28296-113.45996,43.28296-156.74365,0-43.28418-43.28394-43.28418-113.46094,0-156.74414Z"/>
  <path class="cls-2" d="M170.3287,107.08731H60.42343c-9.9209,0-17.96484-8.04395-17.96484-17.96484v-18.99512c0-9.9209,8.04395-17.96484,17.96484-17.96484h109.90527c9.9209,0,17.96484,8.04395,17.96484,17.96484v18.99512c0,9.9209-8.04395,17.96484-17.96484,17.96484"/>
  <rect class="cls-1" x="42.45858" y="52.1625" width="145.83496" height="54.9248" rx="17.96484" ry="17.96484"/>
  <path class="cls-1" d="M166.54647,77.22964c1.32275,0,2.39453,1.07324,2.39453,2.39502,0,1.323-1.07178,2.396-2.39453,2.396-1.32324,0-2.39648-1.073-2.39648-2.396,0-1.32178,1.07324-2.39502,2.39648-2.39502Z"/>
  <path class="cls-1" d="M142.98349,77.22964c1.32275,0,2.39453,1.07324,2.39453,2.39502,0,1.323-1.07178,2.396-2.39453,2.396-1.32324,0-2.39648-1.073-2.39648-2.396,0-1.32178,1.07324-2.39502,2.39648-2.39502Z"/>
  <path class="cls-1" d="M117.01376,77.22964c1.32275,0,2.39453,1.07324,2.39453,2.39502,0,1.323-1.07178,2.396-2.39453,2.396-1.32324,0-2.39502-1.073-2.39502-2.396,0-1.32178,1.07178-2.39502,2.39502-2.39502Z"/>
  <path class="cls-2" d="M170.3287,178.97427H60.42343c-9.9209,0-17.96484-8.04395-17.96484-17.96484v-18.99512c0-9.9209,8.04395-17.96484,17.96484-17.96484h109.90527c9.9209,0,17.96484,8.04395,17.96484,17.96484v18.99512c0,9.9209-8.04395,17.96484-17.96484,17.96484"/>
  <rect class="cls-1" x="42.45858" y="124.04947" width="145.83496" height="54.9248" rx="17.96484" ry="17.96484"/>
  <path class="cls-1" d="M166.54647,149.1166c1.32275,0,2.39453,1.07324,2.39453,2.39502,0,1.323-1.07178,2.396-2.39453,2.396-1.32324,0-2.39648-1.073-2.39648-2.396,0-1.32178,1.07324-2.39502,2.39648-2.39502Z"/>
  <path class="cls-1" d="M142.98349,149.1166c1.32275,0,2.39453,1.07324,2.39453,2.39502,0,1.323-1.07178,2.396-2.39453,2.396-1.32324,0-2.39648-1.073-2.39648-2.396,0-1.32178,1.07324-2.39502,2.39648-2.39502Z"/>
  <path class="cls-1" d="M117.01376,149.1166c1.32275,0,2.39453,1.07324,2.39453,2.39502,0,1.323-1.07178,2.396-2.39453,2.396-1.32324,0-2.39502-1.073-2.39502-2.396,0-1.32178,1.07178-2.39502,2.39502-2.39502Z"/>
</svg>