<?xml version="1.0" encoding="UTF-8"?>
<svg id="_Слой_1" data-name="Слой 1" xmlns="http://www.w3.org/2000/svg" viewBox="0 0 227.23924 227.23855">
  <defs>
    <style>
      .cls-1 {
        stroke: #b8e87b;
        stroke-width: .557px;
      }

      .cls-1, .cls-2 {
        fill: none;
        stroke-miterlimit: 5.57;
      }

      .cls-3 {
        fill: #ffd03c;
        stroke-width: 0px;
      }

      .cls-2 {
        stroke: #aac419;
        stroke-width: 5.57px;
      }
    </style>
  </defs>
  <path class="cls-2" d="M35.24801,35.24722c43.284-43.28296,113.45999-43.28296,156.74399,0,43.28299,43.28418,43.28299,113.46021,0,156.74402-43.284,43.28308-113.45999,43.28308-156.74399,0-43.28401-43.28381-43.28401-113.45984,0-156.74402Z"/>
  <path class="cls-3" d="M50.1863,63.79214l8.94598,16.72217c.16699.31201.48999.52393.858.57397l20.004,2.67993c.935.12207,1.30899,1.18604.63501,1.79297l-14.478,13.01904c-.267.23901-.39001.59009-.32901.92993l3.41501,18.3772c.16098.85791-.819,1.51489-1.65402,1.10791l-17.89297-8.67896c-.33401-.16113-.73001-.16113-1.06403,0l-17.892,8.67896c-.836.40698-1.81598-.25-1.65399-1.10791l3.42001-18.3772c.061-.33984-.061-.69092-.32901-.92993l-14.47198-13.01904c-.68002-.60693-.306-1.6709.63498-1.79297l20.004-2.67993c.37302-.05005.69-.26709.85699-.57397l8.94702-16.72217c.41199-.78491,1.621-.78491,2.04401,0"/>
  <path class="cls-1" d="M50.1863,63.79214l8.94598,16.72217c.16699.31201.48999.52393.858.57397l20.004,2.67993c.935.12207,1.30899,1.18604.63501,1.79297l-14.478,13.01904c-.267.23901-.39001.59009-.32901.92993l3.41501,18.3772c.16098.85791-.819,1.51489-1.65402,1.10791l-17.89297-8.67896c-.33401-.16113-.73001-.16113-1.06403,0l-17.892,8.67896c-.836.40698-1.81598-.25-1.65399-1.10791l3.42001-18.3772c.061-.33984-.061-.69092-.32901-.92993l-14.47198-13.01904c-.68002-.60693-.306-1.6709.63498-1.79297l20.004-2.67993c.37302-.05005.69-.26709.85699-.57397l8.94702-16.72217c.41199-.78491,1.621-.78491,2.04401,0"/>
  <path class="cls-2" d="M50.1863,63.79214l8.94598,16.72217c.16699.31201.48999.52393.858.57397l20.004,2.67993c.935.12207,1.30899,1.18604.63501,1.79297l-14.478,13.01904c-.267.23901-.39001.59009-.32901.92993l3.41501,18.3772c.16098.85791-.819,1.51489-1.65402,1.10791l-17.89297-8.67896c-.33401-.16113-.73001-.16113-1.06403,0l-17.892,8.67896c-.836.40698-1.81598-.25-1.65399-1.10791l3.42001-18.3772c.061-.33984-.061-.69092-.32901-.92993l-14.47198-13.01904c-.68002-.60693-.306-1.6709.63498-1.79297l20.004-2.67993c.37302-.05005.69-.26709.85699-.57397l8.94702-16.72217c.41199-.78491,1.621-.78491,2.04401,0Z"/>
  <path class="cls-2" d="M73.8218,135.23892l8.94598,16.72217c.16699.31201.48999.52393.858.57397l20.004,2.67993c.935.12195,1.30899,1.18604.63501,1.79297l-14.478,13.01904c-.267.23901-.39001.58997-.32901.92993l3.41501,18.37708c.16098.85791-.819,1.51501-1.65402,1.10791l-17.89297-8.67798c-.33401-.16199-.73001-.16199-1.06403,0l-17.892,8.67798c-.836.4071-1.81598-.25-1.65399-1.10791l3.42001-18.37708c.061-.33997-.061-.69092-.32901-.92993l-14.47198-13.01904c-.68002-.60693-.306-1.67102.63498-1.79297l20.004-2.67993c.37302-.05005.69-.26709.85699-.57397l8.94702-16.72217c.41699-.78491,1.62598-.78491,2.04401,0Z"/>
  <path class="cls-2" d="M154.716,135.23892l8.94598,16.72217c.16699.31201.48999.52393.858.57397l20.004,2.67993c.935.12195,1.30899,1.18604.63501,1.79297l-14.478,13.01904c-.267.23901-.39001.58997-.32901.92993l3.41501,18.37708c.16098.85791-.819,1.51501-1.65402,1.10791l-17.89297-8.67798c-.33401-.16199-.73001-.16199-1.06403,0l-17.892,8.67798c-.836.4071-1.81598-.25-1.65399-1.10791l3.42001-18.37708c.061-.33997-.061-.69092-.32901-.92993l-14.47198-13.01904c-.68002-.60693-.306-1.67102.63498-1.79297l20.004-2.67993c.37302-.05005.69-.26709.85699-.57397l8.94702-16.72217c.41199-.78491,1.621-.78491,2.04401,0Z"/>
  <path class="cls-2" d="M179.12582,66.74453l8.94598,16.72217c.16699.31201.48999.52393.858.57397l20.004,2.67993c.935.12207,1.30899,1.18604.63501,1.79297l-14.478,13.01904c-.267.23901-.39001.59009-.32901.92993l3.41501,18.3772c.16098.85791-.819,1.51489-1.65402,1.10791l-17.89297-8.67896c-.33401-.16113-.73001-.16113-1.06403,0l-17.892,8.67896c-.836.40698-1.81598-.25-1.65399-1.10791l3.42001-18.3772c.061-.33984-.061-.69092-.32901-.92993l-14.47198-13.01904c-.68002-.60693-.306-1.6709.63498-1.79297l20.004-2.67993c.37302-.05005.69-.26709.85699-.57397l8.94702-16.72217c.41199-.78589,1.621-.78589,2.04401,0Z"/>
  <path class="cls-3" d="M115.61691,14.03677l9.89297,18.48804c.18402.34619.54001.58521.953.63501l22.12,2.96411c1.03601.13892,1.44803,1.31396.70203,1.98804l-16.00403,14.38892c-.29498.26709-.435.6521-.362,1.03003l3.77701,20.32104c.17801.95288-.90799,1.677-1.83301,1.22583l-19.78098-9.59277c-.367-.17822-.80701-.17822-1.17502,0l-19.78101,9.59277c-.92398.45117-2.01099-.27881-1.832-1.22583l3.776-20.32104c.073-.37891-.06598-.76294-.362-1.03003l-16.004-14.38892c-.75198-.67407-.33398-1.84912.70203-1.98804l22.11499-2.96411c.41199-.05493.76898-.29492.953-.63501l9.89301-18.48804c.44498-.8689,1.78198-.8689,2.25,0"/>
  <path class="cls-1" d="M115.61691,14.03677l9.89297,18.48804c.18402.34619.54001.58521.953.63501l22.12,2.96411c1.03601.13892,1.44803,1.31396.70203,1.98804l-16.00403,14.38892c-.29498.26709-.435.6521-.362,1.03003l3.77701,20.32104c.17801.95288-.90799,1.677-1.83301,1.22583l-19.78098-9.59277c-.367-.17822-.80701-.17822-1.17502,0l-19.78101,9.59277c-.92398.45117-2.01099-.27881-1.832-1.22583l3.776-20.32104c.073-.37891-.06598-.76294-.362-1.03003l-16.004-14.38892c-.75198-.67407-.33398-1.84912.70203-1.98804l22.11499-2.96411c.41199-.05493.76898-.29492.953-.63501l9.89301-18.48804c.44498-.8689,1.78198-.8689,2.25,0"/>
  <path class="cls-2" d="M115.61691,14.03677l9.89297,18.48804c.18402.34619.54001.58521.953.63501l22.12,2.96411c1.03601.13892,1.44803,1.31396.70203,1.98804l-16.00403,14.38892c-.29498.26709-.435.6521-.362,1.03003l3.77701,20.32104c.17801.95288-.90799,1.677-1.83301,1.22583l-19.78098-9.59277c-.367-.17822-.80701-.17822-1.17502,0l-19.78101,9.59277c-.92398.45117-2.01099-.27881-1.832-1.22583l3.776-20.32104c.073-.37891-.06598-.76294-.362-1.03003l-16.004-14.38892c-.75198-.67407-.33398-1.84912.70203-1.98804l22.11499-2.96411c.41199-.05493.76898-.29492.953-.63501l9.89301-18.48804c.44498-.8689,1.78198-.8689,2.25,0Z"/>
</svg>