<?xml version="1.0" encoding="UTF-8"?>
<svg id="_Слой_1" data-name="Слой 1" xmlns="http://www.w3.org/2000/svg" viewBox="0 0 227.23925 227.23928">
  <defs>
    <style>
      .cls-1 {
        fill: #ffd03c;
      }

      .cls-1, .cls-2 {
        stroke-width: 0px;
      }

      .cls-3 {
        fill: none;
        stroke: #aac419;
        stroke-miterlimit: 5.57;
        stroke-width: 5.57px;
      }

      .cls-2 {
        fill: #aac419;
      }
    </style>
  </defs>
  <path class="cls-1" d="M55.30722,102.29654c.8689,15.7981,1.73779,31.59009,2.60693,47.38806,4.83496,4.09399,27.56299,22.42102,60.86304,20.43201,28.93896-1.72595,47.69995-17.71399,53.03589-22.60498-.14404-15.65308-.28906-31.30005-.43408-46.95288-38.68701.57886-77.37988,1.15894-116.07178,1.73779"/>
  <path class="cls-3" d="M55.30722,102.29654c.8689,15.7981,1.73779,31.59009,2.60693,47.38806,4.83496,4.09399,27.56299,22.42102,60.86304,20.43201,28.93896-1.72595,47.69995-17.71399,53.03589-22.60498-.14404-15.65308-.28906-31.30005-.43408-46.95288-38.68701.57886-77.37988,1.15894-116.07178,1.73779Z"/>
  <path class="cls-1" d="M192.54696,99.53897l-77.4021,37.82324c-1.86011.90796-4.04395.89185-5.88794-.04419l-74.61011-37.94604c-4.81299-2.4458-4.80786-9.32495.00513-11.76489l76.0979-38.60889c1.88306-.95215,4.10596-.95215,5.98291.00586l75.91406,38.73096c4.85205,2.46802,4.79102,9.41406-.09985,11.80396"/>
  <path class="cls-3" d="M192.54696,99.53897l-77.4021,37.82324c-1.86011.90796-4.04395.89185-5.88794-.04419l-74.61011-37.94604c-4.81299-2.4458-4.80786-9.32495.00513-11.76489l76.0979-38.60889c1.88306-.95215,4.10596-.95215,5.98291.00586l75.91406,38.73096c4.85205,2.46802,4.79102,9.41406-.09985,11.80396Z"/>
  <path class="cls-2" d="M99.25277,105.2377c.30078-.37891.78491-.98584,1.41479-1.70483.87402-1.00195,1.125-1.19214,1.95508-2.16113.71289-.83594,1.15894-1.43188,1.58203-2,.84106-1.13086,1.01392-1.48193,1.10889-1.69287.4231-.94116.51221-1.76099.52905-1.92798.03296-.36206,0-.33911,0-1.66504,0-1.125.02808-1.08105,0-1.34814-.11694-1.04199-.52393-1.75977-.61304-1.91699-.35596-.61182-.76904-.98486-.98584-1.17993-.21118-.18994-.74097-.62402-1.87109-1.0979-.69702-.28906-.88599-.28394-2.09497-.64014-1.31396-.38501-2.19507-.65186-3.23096-1.18091-.71216-.36792-1.18115-.61304-1.66504-1.13696-.26196-.28394-.80811-.89697-.96997-1.86011-.13916-.81885.06689-1.47095.19482-1.84399.10107-.29492.30713-.89697.85815-1.48193.12793-.13892.61792-.62891,1.42603-.94092.27295-.1062.99194-.34521,1.8999-.23413.552.06714.68506.19995,1.64893.52905.45605.15088.36206.1001,1.91602.52905.91919.25098,1.8772.38989,2.76318.74683,0,0,.57886.23413,1.40381.28906.26099.01709.49512.01709.71802-.12207.02808-.01685.36206-.229.41797-.59595.05005-.32886-.1499-.58496-.34497-.875-.31201-.46191-.52393-.98584-.802-1.46997-.49097-.85303-.53491-1.71094-.58496-2.54102-.02295-.38403-.06689-1.76587.58496-3.38599.18311-.46289.56201-1.37598,1.41406-2.30103.76904-.83594,1.53809-1.27002,1.92798-1.48193,1.08008-.59595,2.03296-.79712,2.46802-.87402,1.21411-.21191,2.16113-.07788,2.40015-.03906,1.11377.17212,1.8999.56812,2.38477.81909.46216.23901,1.27002.66187,2.07715,1.49805.78589.80786,1.17505,1.58789,1.41504,2.06689.27905.56201.69604,1.43115.82983,2.66211.10107.92505.21216,1.97803-.31689,2.99683-.86304,1.65503-1.19189,2.07812-1.19189,2.07812-.04517.05591-.20605.26196-.25122.56787-.01099.08911-.06079.45117.16699.73511.24023.2959.62402.31201.79102.31812.31201.01685.48999-.08423.96899-.25122.33398-.11694.68604-.19995,1.02515-.30591.83008-.25586.96997-.24487,2.32886-.60693,1.18115-.31812,2.03906-.56812,2.03906-.56812.96313-.28491,1.16406-.36792,1.60913-.40186.32397-.0271.948-.07202,1.69385.17896.86304.28906,1.37598.802,1.48706.91309.47412.48486.67407.97485.802,1.29199.13989.34595.36792.9248.33496,1.69385-.04492.95215-.46289,1.61597-.64087,1.88916-.50708.78491-1.14697,1.17993-1.47021,1.36987-.60181.36206-.90796.37305-2.30078.76294-1.34302.37305-1.00317.35107-2.96899.93018-1.66602.48999-1.83813.48999-2.37305.77393-.48511.26196-1.23096.67407-1.81616,1.52686-.43994.64014-.58984,1.24805-.6958,1.64917-.22314.87988-.18921,1.5979-.16699,1.88794.03296.41211.13892,1.25903.61279,2.17798.32812.646.60107.875,1.30322,1.70508.30591.36206.85181,1.09692,1.94385,2.56787,1.02515,1.37598.82495,1.16406,2.07812,2.86816.29492.40186.72388,1.00903,1.58203,2.2168.70679,1.00317.87378,1.24805,1.01392,1.677.35107,1.10303.10498,2.07812.01099,2.38403-.10596.35718-.37305,1.21997-1.21997,1.91699-.802.65698-1.66602.79102-2.07812.81812-1.10303.07886-1.91602-.36206-2.32788-.59595-.35107-.19507-.58496-.38403-1.66602-1.46997-.90796-.9082-1.35913-1.36499-1.95508-2.01123-1.32593-1.43677-2.18994-2.43994-2.18994-2.43994-.729-.84082-1.01904-1.20898-1.63696-1.56494-.26807-.15601-.85815-.49097-1.69409-.56812-1.07495-.10083-1.88794.28418-2.16089.41724-.48999.23999-.54614.38477-1.89917,1.60986-1.04785.94702-1.0249.875-1.83301,1.62109-.42383.38989-.38989.37891-1.677,1.63794-1.15283,1.1311-1.53198,1.48706-2.11084,1.927-.62402.48486-.94702.72998-1.44312.90308-.99097.35083-1.85498.17798-2.07788.12183-.22803-.0498-1.13013-.27783-1.91602-1.09692-.85205-.89111-1.00806-1.91602-1.05298-2.23389-.05005-.3562-.12817-1.27002.33496-2.27319.26099-.55688.59497-.9519.8291-1.18604"/>
  <path class="cls-1" d="M99.25277,105.2377c.30078-.37891.78491-.98584,1.41479-1.70483.87402-1.00195,1.125-1.19214,1.95508-2.16113.71289-.83594,1.15894-1.43188,1.58203-2,.84106-1.13086,1.01392-1.48193,1.10889-1.69287.4231-.94116.51221-1.76099.52905-1.92798.03296-.36206,0-.33911,0-1.66504,0-1.125.02808-1.08105,0-1.34814-.11694-1.04199-.52393-1.75977-.61304-1.91699-.35596-.61182-.76904-.98486-.98584-1.17993-.21118-.18994-.74097-.62402-1.87109-1.0979-.69702-.28906-.88599-.28394-2.09497-.64014-1.31396-.38501-2.19507-.65186-3.23096-1.18091-.71216-.36792-1.18115-.61304-1.66504-1.13696-.26196-.28394-.80811-.89697-.96997-1.86011-.13916-.81885.06689-1.47095.19482-1.84399.10107-.29492.30713-.89697.85815-1.48193.12793-.13892.61792-.62891,1.42603-.94092.27295-.1062.99194-.34521,1.8999-.23413.552.06714.68506.19995,1.64893.52905.45605.15088.36206.1001,1.91602.52905.91919.25098,1.8772.38989,2.76318.74683,0,0,.57886.23413,1.40381.28906.26099.01709.49512.01709.71802-.12207.02808-.01685.36206-.229.41797-.59595.05005-.32886-.1499-.58496-.34497-.875-.31201-.46191-.52393-.98584-.802-1.46997-.49097-.85303-.53491-1.71094-.58496-2.54102-.02295-.38403-.06689-1.76587.58496-3.38599.18311-.46289.56201-1.37598,1.41406-2.30103.76904-.83594,1.53809-1.27002,1.92798-1.48193,1.08008-.59595,2.03296-.79712,2.46802-.87402,1.21411-.21191,2.16113-.07788,2.40015-.03906,1.11377.17212,1.8999.56812,2.38477.81909.46216.23901,1.27002.66187,2.07715,1.49805.78589.80786,1.17505,1.58789,1.41504,2.06689.27905.56201.69604,1.43115.82983,2.66211.10107.92505.21216,1.97803-.31689,2.99683-.86304,1.65503-1.19189,2.07812-1.19189,2.07812-.04517.05591-.20605.26196-.25122.56787-.01099.08911-.06079.45117.16699.73511.24023.2959.62402.31201.79102.31812.31201.01685.48999-.08423.96899-.25122.33398-.11694.68604-.19995,1.02515-.30591.83008-.25586.96997-.24487,2.32886-.60693,1.18115-.31812,2.03906-.56812,2.03906-.56812.96313-.28491,1.16406-.36792,1.60913-.40186.32397-.0271.948-.07202,1.69385.17896.86304.28906,1.37598.802,1.48706.91309.47412.48486.67407.97485.802,1.29199.13989.34595.36792.9248.33496,1.69385-.04492.95215-.46289,1.61597-.64087,1.88916-.50708.78491-1.14697,1.17993-1.47021,1.36987-.60181.36206-.90796.37305-2.30078.76294-1.34302.37305-1.00317.35107-2.96899.93018-1.66602.48999-1.83813.48999-2.37305.77393-.48511.26196-1.23096.67407-1.81616,1.52686-.43994.64014-.58984,1.24805-.6958,1.64917-.22314.87988-.18921,1.5979-.16699,1.88794.03296.41211.13892,1.25903.61279,2.17798.32812.646.60107.875,1.30322,1.70508.30591.36206.85181,1.09692,1.94385,2.56787,1.02515,1.37598.82495,1.16406,2.07812,2.86816.29492.40186.72388,1.00903,1.58203,2.2168.70679,1.00317.87378,1.24805,1.01392,1.677.35107,1.10303.10498,2.07812.01099,2.38403-.10596.35718-.37305,1.21997-1.21997,1.91699-.802.65698-1.66602.79102-2.07812.81812-1.10303.07886-1.91602-.36206-2.32788-.59595-.35107-.19507-.58496-.38403-1.66602-1.46997-.90796-.9082-1.35913-1.36499-1.95508-2.01123-1.32593-1.43677-2.18994-2.43994-2.18994-2.43994-.729-.84082-1.01904-1.20898-1.63696-1.56494-.26807-.15601-.85815-.49097-1.69409-.56812-1.07495-.10083-1.88794.28418-2.16089.41724-.48999.23999-.54614.38477-1.89917,1.60986-1.04785.94702-1.0249.875-1.83301,1.62109-.42383.38989-.38989.37891-1.677,1.63794-1.15283,1.1311-1.53198,1.48706-2.11084,1.927-.62402.48486-.94702.72998-1.44312.90308-.99097.35083-1.85498.17798-2.07788.12183-.22803-.0498-1.13013-.27783-1.91602-1.09692-.85205-.89111-1.00806-1.91602-1.05298-2.23389-.05005-.3562-.12817-1.27002.33496-2.27319.26099-.55688.59497-.9519.8291-1.18604"/>
  <path class="cls-3" d="M99.25277,105.2377c.30078-.37891.78491-.98584,1.41479-1.70483.87402-1.00195,1.125-1.19214,1.95508-2.16113.71289-.83594,1.15894-1.43188,1.58203-2,.84106-1.13086,1.01392-1.48193,1.10889-1.69287.4231-.94116.51221-1.76099.52905-1.92798.03296-.36206,0-.33911,0-1.66504,0-1.125.02808-1.08105,0-1.34814-.11694-1.04199-.52393-1.75977-.61304-1.91699-.35596-.61182-.76904-.98486-.98584-1.17993-.21118-.18994-.74097-.62402-1.87109-1.0979-.69702-.28906-.88599-.28394-2.09497-.64014-1.31396-.38501-2.19507-.65186-3.23096-1.18091-.71216-.36792-1.18115-.61304-1.66504-1.13696-.26196-.28394-.80811-.89697-.96997-1.86011-.13916-.81885.06689-1.47095.19482-1.84399.10107-.29492.30713-.89697.85815-1.48193.12793-.13892.61792-.62891,1.42603-.94092.27295-.1062.99194-.34521,1.8999-.23413.552.06714.68506.19995,1.64893.52905.45605.15088.36206.1001,1.91602.52905.91919.25098,1.8772.38989,2.76318.74683,0,0,.57886.23413,1.40381.28906.26099.01709.49512.01709.71802-.12207.02808-.01685.36206-.229.41797-.59595.05005-.32886-.1499-.58496-.34497-.875-.31201-.46191-.52393-.98584-.802-1.46997-.49097-.85303-.53491-1.71094-.58496-2.54102-.02295-.38403-.06689-1.76587.58496-3.38599.18311-.46289.56201-1.37598,1.41406-2.30103.76904-.83594,1.53809-1.27002,1.92798-1.48193,1.08008-.59595,2.03296-.79712,2.46802-.87402,1.21411-.21191,2.16113-.07788,2.40015-.03906,1.11377.17212,1.8999.56812,2.38477.81909.46216.23901,1.27002.66187,2.07715,1.49805.78589.80786,1.17505,1.58789,1.41504,2.06689.27905.56201.69604,1.43115.82983,2.66211.10107.92505.21216,1.97803-.31689,2.99683-.86304,1.65503-1.19189,2.07812-1.19189,2.07812-.04517.05591-.20605.26196-.25122.56787-.01099.08911-.06079.45117.16699.73511.24023.2959.62402.31201.79102.31812.31201.01685.48999-.08423.96899-.25122.33398-.11694.68604-.19995,1.02515-.30591.83008-.25586.96997-.24487,2.32886-.60693,1.18115-.31812,2.03906-.56812,2.03906-.56812.96313-.28491,1.16406-.36792,1.60913-.40186.32397-.0271.948-.07202,1.69385.17896.86304.28906,1.37598.802,1.48706.91309.47412.48486.67407.97485.802,1.29199.13989.34595.36792.9248.33496,1.69385-.04492.95215-.46289,1.61597-.64087,1.88916-.50708.78491-1.14697,1.17993-1.47021,1.36987-.60181.36206-.90796.37305-2.30078.76294-1.34302.37305-1.00317.35107-2.96899.93018-1.66602.48999-1.83813.48999-2.37305.77393-.48511.26196-1.23096.67407-1.81616,1.52686-.43994.64014-.58984,1.24805-.6958,1.64917-.22314.87988-.18921,1.5979-.16699,1.88794.03296.41211.13892,1.25903.61279,2.17798.32812.646.60107.875,1.30322,1.70508.30591.36206.85181,1.09692,1.94385,2.56787,1.02515,1.37598.82495,1.16406,2.07812,2.86816.29492.40186.72388,1.00903,1.58203,2.2168.70679,1.00317.87378,1.24805,1.01392,1.677.35107,1.10303.10498,2.07812.01099,2.38403-.10596.35718-.37305,1.21997-1.21997,1.91699-.802.65698-1.66602.79102-2.07812.81812-1.10303.07886-1.91602-.36206-2.32788-.59595-.35107-.19507-.58496-.38403-1.66602-1.46997-.90796-.9082-1.35913-1.36499-1.95508-2.01123-1.32593-1.43677-2.18994-2.43994-2.18994-2.43994-.729-.84082-1.01904-1.20898-1.63696-1.56494-.26807-.15601-.85815-.49097-1.69409-.56812-1.07495-.10083-1.88794.28418-2.16089.41724-.48999.23999-.54614.38477-1.89917,1.60986-1.04785.94702-1.0249.875-1.83301,1.62109-.42383.38989-.38989.37891-1.677,1.63794-1.15283,1.1311-1.53198,1.48706-2.11084,1.927-.62402.48486-.94702.72998-1.44312.90308-.99097.35083-1.85498.17798-2.07788.12183-.22803-.0498-1.13013-.27783-1.91602-1.09692-.85205-.89111-1.00806-1.91602-1.05298-2.23389-.05005-.3562-.12817-1.27002.33496-2.27319.26099-.55688.59497-.9519.8291-1.18604Z"/>
  <path class="cls-3" d="M35.24813,35.24795c43.28394-43.28394,113.45996-43.28394,156.7439,0,43.28296,43.2832,43.28296,113.46008,0,156.74402-43.28394,43.28308-113.46094,43.28308-156.7439,0-43.28418-43.28394-43.28418-113.46082,0-156.74402Z"/>
</svg>