<?xml version="1.0" encoding="UTF-8"?>
<svg id="_Слой_1" data-name="Слой 1" xmlns="http://www.w3.org/2000/svg" viewBox="0 0 226.61178 226.60054">
  <defs>
    <style>
      .cls-1 {
        fill: #dbeeff;
      }

      .cls-1, .cls-2 {
        stroke-width: 0px;
      }

      .cls-2 {
        fill: #82acf6;
      }
    </style>
  </defs>
  <path class="cls-2" d="M226.44113,107.34633c-.21777-4.64801-.77905-9.25494-1.58203-13.83765-1.73779-9.91785-4.76562-19.42914-9.06787-28.52252-6.03882-12.76349-14.15698-24.03583-24.40649-33.77039-4.41284-4.19122-9.11328-8.01752-14.13647-11.44482-9.06372-6.1842-18.81763-10.95294-29.26855-14.32355-8.92358-2.87799-18.06177-4.5896-27.40088-5.21454-4.11426-.27527-8.23804-.30743-12.36841-.09149-4.23706.2215-8.4436.63684-12.63477,1.27667-6.23975.95258-12.34351,2.47278-18.31934,4.47772-8.04541,2.69928-15.69312,6.271-22.94238,10.69507-6.20776,3.78839-11.99854,8.1319-17.37231,13.02374-3.73071,3.39606-7.20337,7.04584-10.44751,10.91528-5.15063,6.14343-9.60571,12.7525-13.34766,19.83813-3.55933,6.73999-6.40063,13.7724-8.55469,21.08929C1.88522,90.65114.40866,100.0414.06564,109.60475c-.19116,5.33185.03979,10.65613.63306,15.96832.5,4.47778,1.21484,8.91473,2.23804,13.29663,2.35645,10.09351,5.99414,19.70404,10.98657,28.79761,5.52881,10.07117,12.40332,19.10297,20.67383,27.08771,5.89868,5.69476,12.32397,10.69019,19.2937,14.99811,8.31665,5.14032,17.15649,9.12628,26.50879,11.95801,8.04883,2.43695,16.26392,4.00354,24.66528,4.58447.91528.06329,1.87695-.07935,2.76489.30493h10.79834c.91724-.39838,1.90894-.23267,2.85376-.29822,7.65649-.53125,15.16577-1.86865,22.54688-3.94702,5.5061-1.55048,10.86719-3.5011,16.07812-5.86713,8.05835-3.65894,15.58691-8.19379,22.58325-13.61072,2.8667-2.21954,5.61182-4.58112,8.25781-7.06256,6.45776-6.0564,12.10791-12.79065,16.97412-20.17963,5.27588-8.01123,9.48193-16.55072,12.57324-25.6391,2.38428-7.00995,4.11108-14.16785,5.08032-21.51233.39258-2.97632.69141-5.9577.86011-8.95361.01123-.20032-.03491-.4209.17603-.55927v-11.1524c-.17773-.11365-.1626-.29797-.17065-.47223ZM189.35031,189.52577c-20.92017,20.88788-46.51245,31.03931-76.0105,31.58575-29.50293-.539-55.12402-10.69409-76.06738-31.60077-20.98999-20.95325-31.62476-46.59131-31.63013-76.19312-.00562-29.5343,10.57935-55.1347,31.48853-76.07397C58.08615,16.25807,83.72995,5.63222,113.32711,5.63307c29.66748.00085,55.35107,10.67242,76.31665,31.74866,20.82007,20.9303,31.35962,46.49133,31.34741,75.95551-.01221,29.5993-10.6543,55.23444-31.64087,76.18854Z"/>
  <path class="cls-2" d="M202.73173,111.45537c-.02074,7.96191-2.66439,15.05412-7.19698,21.50459-4.30292,6.12364-9.79645,10.95769-16.18907,14.80019-.51589.3101-.85314.60309-.93773,1.31767-.33004,2.78811-1.20822,5.38234-3.02094,7.60886-1.94245,2.38589-4.53291,3.43672-7.48118,3.90401-1.81794.28815-3.64257.0607-5.46312.28125-2.89076.35021-4.06468,2.17679-4.14672,4.80819-.0826,2.65005.58294,5.19252,1.28354,7.71729.60645,2.18544,1.34222,4.32941,2.22051,6.42323.86334,2.05821-.31997,3.96193-2.58407,4.09455-2.61568.15317-5.23514.24049-7.85249.36664-2.35192.11332-4.71826.11464-7.05077.39445-2.6961.32347-4.62243-.78296-6.19005-2.79082-1.21812-1.56021-2.60613-2.967-3.95701-4.40353-3.93827-4.1879-7.92456-8.3306-11.88401-12.49861-1.38014-1.45286-2.76634-2.902-4.0907-4.40489-.56785-.64439-1.05894-.7805-1.89419-.47009-4.45076,1.65415-9.07547,2.50929-13.81602,2.55522-9.60346.09304-17.76618-3.30862-24.39081-10.3073-.24334-.25707-.5611-.47482-.71872-.77646-.63669-1.21853-1.53048-1.08266-2.65899-.74731-2.85399.84817-5.7903,1.24765-8.76709,1.45202-6.55213.44984-12.86992-.57961-18.91101-3.06825-9.38806-3.86742-16.59232-10.25035-21.30894-19.28433-2.43974-4.67295-3.7615-9.67674-3.96557-14.98186-.38968-10.13052,2.82047-19.0463,8.98956-26.96264,4.17851-5.36198,9.36622-9.51244,15.4984-12.4599.51056-.2454.75138-.57037.8565-1.10581,2.09359-10.66396,8.09507-18.32618,17.85452-23.02468,3.20285-1.54194,6.64265-2.33324,10.18288-2.72903,6.89161-.77049,13.48203.32112,19.82445,3.05715.43237.18651.81295.23961,1.25495-.00879,4.80461-2.70005,9.94294-4.46293,15.41149-5.09396,8.7792-1.01305,17.00422.60907,24.43278,5.5836.95236.63775,1.85739,1.35408,2.734,2.09369.42895.36192.82269.46013,1.36491.36133,13.36457-2.43549,25.53319.3647,36.30563,8.6396,7.58554,5.82688,12.40715,13.60302,15.09546,22.74061.42395,1.44098.75833,2.90272,1.02594,4.37763.07209.39739.25084.62564.5538.83446,5.40123,3.72301,8.23409,8.98696,9.2331,15.36138.25157,1.60527.38726,3.21302.35374,4.84066ZM101.65295,55.32427c.27577.20586.50267.38233.73668.54879,1.70296,1.21134,3.34,2.50479,4.82096,3.98206,1.2244,1.22134,1.25711,2.51717.14016,3.74721-1.12547,1.23942-2.5278,1.37026-3.83236.34464-.39223-.30836-.77221-.63454-1.13804-.97387-2.43704-2.26057-5.20299-4.05364-8.18007-5.48288-3.67309-1.76337-7.51729-2.99524-11.62058-3.34912-3.60059-.31053-7.17113-.25464-10.67494.67127-5.02021,1.32663-9.43786,3.69644-12.97209,7.60545-1.57644,1.74362-2.91202,3.6444-3.90641,5.74454-2.25256,4.75735-3.16606,9.77182-2.81456,15.05563.29267,4.39949,1.33048,8.57269,3.13911,12.57208.71174,1.57384.10974,3.28585-1.43981,4.02934-1.44582.69371-2.68587.18649-3.48428-1.49854-2.35658-4.97351-3.68069-10.20528-3.84845-15.7168-.02814-.92463-.04216-.93812-.85971-.4721-2.10137,1.1978-4.07515,2.59079-5.86408,4.20667-3.97232,3.58807-7.21089,7.72556-9.41961,12.65526-2.03968,4.55241-3.0649,9.31398-3.10847,14.26747-.01872,2.12835.24005,4.26863.66131,6.37772,1.19573,5.98665,3.91774,11.19283,8.08779,15.61313,3.30368,3.50194,7.18927,6.21267,11.60602,8.18847,4.48875,2.00799,9.19246,3.03879,14.06601,3.29829,3.4444.18341,6.86244-.19059,10.2277-.97756,1.0683-.24982,1.08269-.25754.55859-1.25429-2.86523-5.44914-4.28166-11.29736-4.68431-17.39837-.19215-2.91148.12164-5.82097.72973-8.66979,1.29488-6.06648,4.1575-11.34705,8.3462-15.89564,2.98345-3.23979,6.4786-5.80493,10.54151-7.5559,3.57687-1.5415,7.28029-2.24292,11.17854-1.6944,4.2305.59526,7.79581,2.55824,10.90838,5.37984,4.27185,3.87249,7.23778,8.63597,9.27537,13.99884.18278.4811.40356.96787.24217,1.53114-.31338,1.09378-1.13363,1.81634-2.26452,1.93319-1.44502.14931-2.52821-.31067-3.05185-1.44573-.79024-1.71286-1.58173-3.42338-2.5422-5.0476-1.73191-2.92875-3.72708-5.64795-6.42236-7.78048-2.17226-1.71872-4.63205-2.81857-7.39705-3.05037-2.9367-.24618-5.7456.40986-8.37496,1.70139-3.19768,1.57068-5.96214,3.71205-8.36384,6.37312-2.16401,2.39769-3.77052,5.09789-4.97758,8.06007-.99212,2.43472-1.56086,4.97511-1.88548,7.58474-.31334,2.51897-.32951,5.02804.00857,7.53761.43802,3.25144,1.31165,6.3783,2.74725,9.34014.94987,1.9597,1.72917,4.01966,2.84866,5.87561,1.88317,3.12204,4.57581,5.47995,7.66851,7.40637,6.45234,4.0191,13.4677,5.28427,20.89669,4.10463,5.12699-.8141,9.81316-2.77872,13.84182-6.17633,3.50578-2.95665,4.92821-6.59342,3.99814-11.13623-.6413-3.13238-1.78997-6.15063-2.11755-9.34938-.26302-2.56861-.20604-5.09811.90277-7.52295,1.54282-3.37402,4.10127-5.77402,7.19144-7.67576,4.32501-2.66167,9.05683-3.53084,13.99104-2.59738,5.65307,1.06946,9.78689,4.39217,12.26241,9.5671,2.51306,5.25338,2.61845,10.70736.74735,16.20258-.38934,1.14347-1.18378,1.90069-2.41729,2.06102-1.82457.23717-3.83296-1.29913-3.01546-3.34499.18462-.46197.31585-.94823.43779-1.43184,1.18151-4.68622.96856-9.18463-2.05022-13.19112-2.16961-2.8795-5.10994-4.43916-8.74233-4.6491-3.30326-.19094-6.29255.78343-9.0231,2.53627-3.16312,2.03051-5.14369,4.76835-4.91645,8.76182.08786,1.54406.43124,3.0199.83448,4.48903.89427,3.25821,1.91688,6.48303,1.67793,9.93972-.16075,2.32532-.7429,4.50411-1.87501,6.54437-.56092,1.01091-1.21156,1.96062-1.98441,2.92784.42772.03061.72423.05183,1.14173.0817-.25415.19308-.37852.32823-.53251.39838-1.89515.86331-3.43858,2.24255-5.10749,3.44032-.54378.39027-.53169.64748-.07426,1.08231.5097.48454.9357,1.05578,1.42371,1.56474,1.79463,1.87167,3.64781,3.68989,5.3836,5.61426,1.08724,1.20538,2.26085,2.32121,3.35904,3.51152,3.15505,3.41976,6.34253,6.8084,9.59827,10.13284.3217.32848.66532.42601,1.10391.41672,1.35234-.02865,2.7008-.05939,4.0535-.1595,2.08139-.15404,4.17467-.14578,6.26268-.21326.92749-.02997,1.01142-.18985.70919-1.04014-1.5767-4.4358-2.71887-8.9289-2.06606-13.71367.54335-3.98264,3.13278-6.88774,7.02389-7.93667,2.15335-.58049,4.35646-.56075,6.53317-.84029,2.06255-.26486,3.9495-.8875,5.05022-2.79511,1.0476-1.81555,1.31452-3.81984,1.28161-5.9199-.06943-4.43092-.78332-8.75638-1.79762-13.05141-.11639-.49281-.10713-1.04787.12312-1.56395.47425-1.063,1.81185-1.90686,2.90917-1.80004,1.27044.12365,2.04679.86659,2.41229,2.34015.72023,2.90376,1.36186,5.82566,1.75862,8.79189.08858.66221.17678.76224.73685.36999,2.36294-1.65486,4.66187-3.39685,6.71488-5.42225,3.61452-3.56594,6.56117-7.61231,8.53244-12.32683,2.02774-4.84953,3.33896-9.8112,2.84124-15.15431-.31958-3.4306-1.32609-6.55951-3.43413-9.28437-1.24365-1.60752-2.66983-3.05623-4.55506-3.9318-3.9723-1.84491-8.09667-3.13805-12.49468-3.48574-3.44439-.27232-6.86546-.28022-10.25388.50385-2.84419.65813-5.57718,1.66243-8.31688,2.64819-.85013.30587-1.73909.49254-2.55153-.03802-1.53317-1.00123-1.73022-3.2512-.41934-4.54286.94522-.93135,2.14055-1.48599,3.3616-1.89675,5.62041-1.89072,11.37795-2.73409,17.32854-2.34461,3.23589.2118,6.41614.62674,9.5453,1.46167.27148.07244.58438.32299.82966.07437.28459-.28849-.02729-.61171-.11444-.89614-1.31295-4.28555-3.2686-8.25224-5.91877-11.87401-1.92105-2.62536-4.11447-5.00019-6.63421-7.0515-2.70505-2.20215-5.66996-3.99264-8.88702-5.36631-4.61874-1.97219-9.44619-2.98612-14.44744-3.21031-1.67637-.07515-3.35323.00317-5.02532.16448-.32455.03131-.71997-.01211-.86879.30029-.13806.28983.20036.5303.36311.75032,2.78175,3.76071,4.71933,7.92641,5.99238,12.41306.40744,1.4359-.0677,2.67625-1.17615,3.29081-1.61108.89323-3.57044.32925-4.13249-1.64668-1.31061-4.60744-3.4195-8.81362-6.54384-12.48897-2.31241-2.72023-4.95857-5.01786-8.1122-6.71167-5.39023-2.89507-11.12481-3.94576-17.21096-3.36621-3.06678.29203-6.02068.98706-8.90599,2.0067-.95401.33712-1.96835.59047-2.84425,1.28878Z"/>
  <path class="cls-1" d="M101.65295,55.32427c.87591-.69831,1.89024-.95165,2.84425-1.28878,2.88531-1.01964,5.83921-1.71467,8.90599-2.0067,6.08616-.57955,11.82073.47114,17.21096,3.36621,3.15363,1.69381,5.79979,3.99144,8.1122,6.71167,3.12434,3.67536,5.23323,7.88154,6.54384,12.48897.56205,1.97593,2.52141,2.53991,4.13249,1.64668,1.10845-.61456,1.5836-1.85491,1.17615-3.29081-1.27305-4.48665-3.21064-8.65235-5.99238-12.41306-.16275-.22002-.50117-.46049-.36311-.75032.14881-.3124.54424-.26898.86879-.30029,1.67208-.16131,3.34895-.23963,5.02532-.16448,5.00126.2242,9.8287,1.23812,14.44744,3.21031,3.21705,1.37367,6.18197,3.16415,8.88702,5.36631,2.51974,2.05131,4.71315,4.42615,6.63421,7.0515,2.65017,3.62178,4.60582,7.58847,5.91877,11.87401.08715.28443.39903.60765.11444.89614-.24529.24862-.55819-.00193-.82966-.07437-3.12916-.83493-6.30941-1.24986-9.5453-1.46167-5.95059-.38949-11.70813.45388-17.32854,2.34461-1.22105.41076-2.41638.96539-3.3616,1.89675-1.31089,1.29167-1.11383,3.54163.41934,4.54286.81244.53056,1.70141.34389,2.55153.03802,2.7397-.98577,5.47269-1.99006,8.31688-2.64819,3.38843-.78407,6.80949-.77617,10.25388-.50385,4.39801.34769,8.52237,1.64083,12.49468,3.48574,1.88523.87557,3.31141,2.32428,4.55506,3.9318,2.10804,2.72486,3.11455,5.85377,3.43413,9.28437.49772,5.34311-.8135,10.30478-2.84124,15.15431-1.97127,4.71451-4.91792,8.76088-8.53244,12.32683-2.053,2.02539-4.35193,3.76738-6.71488,5.42225-.56007.39225-.64827.29222-.73685-.36999-.39676-2.96624-1.03839-5.88813-1.75862-8.79189-.3655-1.47356-1.14185-2.21651-2.41229-2.34015-1.09731-.10681-2.43492.73705-2.90917,1.80004-.23025.51608-.23951,1.07114-.12312,1.56395,1.0143,4.29503,1.72819,8.62049,1.79762,13.05141.03291,2.10005-.23401,4.10435-1.28161,5.9199-1.10073,1.90761-2.98767,2.53025-5.05022,2.79511-2.17671.27955-4.37982.25981-6.53317.84029-3.89111,1.04893-6.48053,3.95402-7.02389,7.93667-.6528,4.78478.48936,9.27787,2.06606,13.71367.30223.85029.2183,1.01016-.70919,1.04014-2.08801.06749-4.18129.05922-6.26268.21326-1.3527.1001-2.70116.13084-4.0535.1595-.43859.00929-.78222-.08824-1.10391-.41672-3.25574-3.32444-6.44323-6.71308-9.59827-10.13284-1.09819-1.19031-2.27179-2.30614-3.35904-3.51152-1.73579-1.92436-3.58897-3.74259-5.3836-5.61426-.48801-.50896-.91401-1.0802-1.42371-1.56474-.45743-.43483-.46952-.69203.07426-1.08231,1.66891-1.19777,3.21234-2.57701,5.10749-3.44032.154-.07014.27837-.2053.53251-.39838-.4175-.02987-.71401-.05109-1.14173-.0817.77285-.96722,1.42349-1.91693,1.98441-2.92784,1.1321-2.04026,1.71426-4.21905,1.87501-6.54437.23895-3.45669-.78366-6.68151-1.67793-9.93972-.40324-1.46913-.74662-2.94497-.83448-4.48903-.22724-3.99347,1.75334-6.73132,4.91645-8.76182,2.73056-1.75284,5.71984-2.72721,9.0231-2.53627,3.63239.20994,6.57272,1.76961,8.74233,4.6491,3.01878,4.00649,3.23174,8.5049,2.05022,13.19112-.12194.48361-.25317.96987-.43779,1.43184-.8175,2.04586,1.19089,3.58216,3.01546,3.34499,1.23351-.16033,2.02794-.91755,2.41729-2.06102,1.87109-5.49522,1.76571-10.9492-.74735-16.20258-2.47552-5.17493-6.60935-8.49764-12.26241-9.5671-4.9342-.93346-9.66603-.06429-13.99104,2.59738-3.09018,1.90174-5.64862,4.30174-7.19144,7.67576-1.10881,2.42484-1.16578,4.95434-.90277,7.52295.32757,3.19875,1.47625,6.217,2.11755,9.34938.93007,4.54281-.49235,8.17958-3.99814,11.13623-4.02865,3.39761-8.71482,5.36223-13.84182,6.17633-7.42899,1.17964-14.44435-.08553-20.89669-4.10463-3.0927-1.92641-5.78534-4.28433-7.66851-7.40637-1.11948-1.85595-1.89879-3.9159-2.84866-5.87561-1.4356-2.96184-2.30923-6.0887-2.74725-9.34014-.33808-2.50957-.32191-5.01864-.00857-7.53761.32462-2.60963.89336-5.15003,1.88548-7.58474,1.20706-2.96217,2.81357-5.66238,4.97758-8.06007,2.4017-2.66106,5.16616-4.80243,8.36384-6.37312,2.62936-1.29153,5.43826-1.94757,8.37496-1.70139,2.765.2318,5.22479,1.33165,7.39705,3.05037,2.69528,2.13252,4.69045,4.85172,6.42236,7.78048.96047,1.62422,1.75196,3.33474,2.5422,5.0476.52364,1.13505,1.60684,1.59504,3.05185,1.44573,1.13089-.11685,1.95115-.83941,2.26452-1.93319.16139-.56326-.05939-1.05004-.24217-1.53114-2.03758-5.36287-5.00352-10.12635-9.27537-13.99884-3.11257-2.8216-6.67788-4.78458-10.90838-5.37984-3.89825-.54853-7.60167.1529-11.17854,1.6944-4.06291,1.75097-7.55806,4.31612-10.54151,7.5559-4.1887,4.54859-7.05132,9.82916-8.3462,15.89564-.60808,2.84882-.92188,5.75831-.72973,8.66979.40265,6.10101,1.81908,11.94923,4.68431,17.39837.5241.99676.50971,1.00447-.55859,1.25429-3.36526.78696-6.7833,1.16096-10.2277.97756-4.87355-.2595-9.57726-1.2903-14.06601-3.29829-4.41675-1.9758-8.30235-4.68653-11.60602-8.18847-4.17005-4.4203-6.89206-9.62648-8.08779-15.61313-.42126-2.10909-.68003-4.24937-.66131-6.37772.04357-4.95349,1.06879-9.71506,3.10847-14.26747,2.20872-4.9297,5.44729-9.06719,9.41961-12.65526,1.78893-1.61588,3.76271-3.00887,5.86408-4.20667.81754-.46602.83157-.45253.85971.4721.16775,5.51152,1.49187,10.74329,3.84845,15.7168.79841,1.68503,2.03846,2.19225,3.48428,1.49854,1.54956-.7435,2.15155-2.4555,1.43981-4.02934-1.80863-3.99939-2.84644-8.1726-3.13911-12.57208-.35151-5.28381.562-10.29827,2.81456-15.05563.99439-2.10014,2.32997-4.00093,3.90641-5.74454,3.53423-3.90901,7.95188-6.27882,12.97209-7.60545,3.50381-.9259,7.07434-.9818,10.67494-.67127,4.10329.35388,7.94749,1.58575,11.62058,3.34912,2.97708,1.42924,5.74304,3.22231,8.18007,5.48288.36582.33933.74581.66551,1.13804.97387,1.30457,1.02562,2.70689.89478,3.83236-.34464,1.11696-1.23004,1.08424-2.52587-.14016-3.74721-1.48096-1.47727-3.118-2.77072-4.82096-3.98206-.23401-.16647-.46091-.34293-.73668-.54879ZM145.35828,87.78115c-.04231-.93655-.00984-1.86848-.14602-2.81259-.67785-4.69903-2.64302-8.68287-6.35617-11.71326-4.99402-4.07574-10.65389-4.926-16.76597-3.30966-3.02755.80064-5.57863,2.49537-7.80326,4.64518-.96599.93351-2.05705,1.87161-1.8804,3.51144.13638,1.2659.8414,2.26849,2.16751,2.71957.84711.28815,1.71384-.16716,2.56347-1.11565,3.41144-3.80838,7.59499-5.72267,12.75654-4.77794,5.6283,1.03017,9.93899,6.36483,9.9956,12.0901.01345,1.35914-.25014,2.69435-.20074,4.04875.04806,1.31769,1.28429,2.50668,2.81013,2.55774,1.0934.03658,2.25655-.51404,2.52926-2.07902.21799-1.25102.40099-2.49297.33006-3.76466ZM88.19874,76.13084c.16977-2.48678-.84583-4.93539-2.59392-7.05494-3.14602-3.81451-7.3848-5.52003-12.2024-5.84069-3.31625-.22073-6.5441.34812-9.66842,1.53086-1.2505.47338-1.939,1.33305-2.07045,2.59168-.1952,1.86905,1.47055,3.77468,3.36078,2.84566.62562-.30749,1.32438-.47516,2.00035-.66973,3.93888-1.1337,7.7971-1.20552,11.53104.79987,3.66577,1.96877,4.99415,5.37956,3.57203,9.2193-.75164,2.02945-2.05835,3.67825-3.45218,5.27838-1.19311,1.36971-1.09139,2.68468.34844,4.00638,1.06025.97328,2.47623,1.01567,3.67036-.22362.8589-.89137,1.64737-1.8364,2.3335-2.86634,1.8732-2.81182,3.21576-5.80467,3.17087-9.61681ZM162.58515,111.19265c1.92591.05331,3.81035-.23119,5.67224-.66099,3.94897-.91164,7.41603-2.74292,10.43635-5.45477,1.1069-.99385,1.39124-2.44171.55713-3.60823-.8906-1.24553-2.54388-1.65434-3.7465-.86074-.65801.4342-1.2144,1.01956-1.85717,1.4802-4.9242,3.52893-10.29867,4.47162-16.13132,2.79087-3.31399-.95495-6.06124-2.78995-8.42587-5.26722-1.07772-1.12907-2.54077-1.11405-3.6959-.05089-1.07173.9864-1.27474,2.72085-.35557,3.75198.80305.90085,1.63216,1.80373,2.57102,2.55397,4.3718,3.49352,9.37465,5.26849,14.97558,5.32584ZM101.78178,139.33179c2.63155.09444,5.0483-.64714,7.33234-1.89342,1.53631-.83828,2.03782-2.44828,1.22273-3.88644-.87306-1.5405-2.45178-1.92757-4.00083-.94959-.71014.44834-1.49582.6824-2.28213.92291-3.26371.99829-7.08545-.36889-9.04982-3.16475-1.41856-2.01899-2.17296-4.21101-2.05636-6.69275.03771-.80267-.05531-1.59269-.62662-2.23322-.71199-.79824-1.99123-1.10807-2.99252-.73172-1.38536.52073-1.99642,1.3257-2.02475,2.77081-.04536,2.31375.34043,4.5436,1.21079,6.70715,2.06122,5.12377,7.37662,9.28789,13.26718,9.15102ZM38.97386,115.93782c-.11556,1.72882.20209,3.37882.94593,4.90111,3.16462,6.47663,9.97179,8.1183,16.12154,5.41555,1.38441-.60844,1.7831-2.23224.96236-3.50518-.9719-1.50739-2.30714-1.90133-4.06065-1.19802-2.72748,1.09395-5.76265.18975-7.42238-2.22459-1.28448-1.8685-1.4141-3.87566-.64696-5.96538.19597-.53383.3281-1.06144.29423-1.63367-.08112-1.37051-1.19919-2.51274-2.75149-2.79174-.94634-.17012-1.84395.42982-2.37317,1.70994-.70036,1.69408-1.21176,3.44037-1.06941,5.29199Z"/>
  <path class="cls-2" d="M145.35828,87.78115c.07093,1.27169-.11207,2.51364-.33006,3.76466-.27271,1.56498-1.43585,2.1156-2.52926,2.07902-1.52584-.05105-2.76207-1.24004-2.81013-2.55774-.0494-1.3544.21419-2.68962.20074-4.04875-.05661-5.72527-4.3673-11.05993-9.9956-12.0901-5.16154-.94474-9.3451.96956-12.75654,4.77794-.84963.94849-1.71636,1.4038-2.56347,1.11565-1.32611-.45109-2.03113-1.45367-2.16751-2.71957-.17665-1.63983.9144-2.57794,1.8804-3.51144,2.22463-2.1498,4.77571-3.84454,7.80326-4.64518,6.11208-1.61634,11.77195-.76608,16.76597,3.30966,3.71316,3.03039,5.67833,7.01423,6.35617,11.71326.13618.94412.10371,1.87605.14602,2.81259Z"/>
  <path class="cls-2" d="M88.19874,76.13084c.04489,3.81214-1.29767,6.80499-3.17087,9.61681-.68613,1.02994-1.4746,1.97496-2.3335,2.86634-1.19413,1.2393-2.61011,1.1969-3.67036.22362-1.43983-1.3217-1.54155-2.63667-.34844-4.00638,1.39383-1.60014,2.70054-3.24894,3.45218-5.27838,1.42212-3.83974.09374-7.25053-3.57203-9.2193-3.73394-2.00538-7.59217-1.93357-11.53104-.79987-.67598.19456-1.37474.36224-2.00035.66973-1.89022.92902-3.55598-.97661-3.36078-2.84566.13145-1.25863.81995-2.11831,2.07045-2.59168,3.12432-1.18274,6.35218-1.75158,9.66842-1.53086,4.8176.32066,9.05638,2.02617,12.2024,5.84069,1.74809,2.11955,2.76369,4.56816,2.59392,7.05494Z"/>
  <path class="cls-2" d="M162.58515,111.19265c-5.60093-.05735-10.60378-1.83232-14.97558-5.32584-.93885-.75024-1.76796-1.65311-2.57102-2.55397-.91917-1.03112-.71616-2.76557.35557-3.75198,1.15513-1.06316,2.61818-1.07818,3.6959.05089,2.36463,2.47727,5.11187,4.31227,8.42587,5.26722,5.83265,1.68075,11.20712.73806,16.13132-2.79087.64276-.46063,1.19916-1.04599,1.85717-1.4802,1.20261-.79361,2.8559-.38479,3.7465.86074.83411,1.16653.54977,2.61438-.55713,3.60823-3.02032,2.71185-6.48738,4.54313-10.43635,5.45477-1.86189.42981-3.74634.7143-5.67224.66099Z"/>
  <path class="cls-2" d="M101.7819,139.33223c-5.89068.13644-11.20608-4.02768-13.2673-9.15145-.87037-2.16355-1.25616-4.3934-1.21079-6.70715.02834-1.44511.63939-2.25009,2.02475-2.77081,1.00129-.37636,2.28053-.06652,2.99252.73172.57131.64053.66433,1.43055.62662,2.23322-.1166,2.48174.63781,4.67376,2.05636,6.69275,1.96437,2.79586,5.78611,4.16304,9.04982,3.16475.78631-.24051,1.57199-.47457,2.28213-.92291,1.54905-.97798,3.12776-.5909,4.00083.94959.81509,1.43817.31358,3.04816-1.22273,3.88644-2.28403,1.24628-4.70078,1.98786-7.33222,1.89385Z"/>
  <path class="cls-2" d="M38.97386,115.93782c-.14235-1.85161.36905-3.5979,1.06941-5.29199.52922-1.28013,1.42683-1.88006,2.37317-1.70994,1.5523.27901,2.67037,1.42123,2.75149,2.79174.03387.57223-.09826,1.09984-.29423,1.63367-.76713,2.08973-.63752,4.09688.64696,5.96538,1.65972,2.41434,4.6949,3.31854,7.42238,2.22459,1.75351-.7033,3.08874-.30937,4.06065,1.19802.82074,1.27294.42205,2.89674-.96236,3.50518-6.14975,2.70276-12.95692,1.06109-16.12154-5.41555-.74384-1.52229-1.06149-3.17229-.94593-4.90111Z"/>
</svg>