<?xml version="1.0" encoding="UTF-8"?>
<svg id="_Слой_1" data-name="Слой 1" xmlns="http://www.w3.org/2000/svg" viewBox="0 0 227.23919 227.23855">
  <defs>
    <style>
      .cls-1 {
        fill: #787974;
      }

      .cls-1, .cls-2 {
        stroke-width: 0px;
      }

      .cls-2 {
        fill: #ffd03c;
      }

      .cls-3 {
        fill: none;
        stroke: #aac419;
        stroke-miterlimit: 5.57;
        stroke-width: 5.57px;
      }
    </style>
  </defs>
  <path class="cls-3" d="M35.24813,35.24722c43.28271-43.28296,113.45996-43.28296,156.74365,0,43.2832,43.28418,43.2832,113.46008,0,156.74402-43.28369,43.28308-113.45996,43.28308-156.74365,0-43.28418-43.28394-43.28418-113.46082,0-156.74402Z"/>
  <path class="cls-2" d="M50.47323,126.03555c0,32.23108,26.85498,58.31201,60.03857,58.31201"/>
  <path class="cls-3" d="M50.47323,126.03555c0,32.23108,26.85498,58.31201,60.03857,58.31201"/>
  <path class="cls-2" d="M110.51181,184.34719c0-32.23096-26.85547-58.31189-60.03906-58.31189"/>
  <path class="cls-3" d="M110.51181,184.34719c0-32.23096-26.85547-58.31189-60.03906-58.31189"/>
  <path class="cls-2" d="M171.66464,126.03555c0,32.23108-26.85547,58.31201-60.03906,58.31201"/>
  <path class="cls-3" d="M171.66464,126.03555c0,32.23108-26.85547,58.31201-60.03906,58.31201"/>
  <path class="cls-2" d="M111.62606,184.34719c0-32.23096,26.85498-58.31189,60.03857-58.31189"/>
  <path class="cls-3" d="M111.62606,184.34719c0-32.23096,26.85498-58.31189,60.03857-58.31189"/>
  <path class="cls-1" d="M160.60116,76.64224c0,27.30615-21.7583,49.39307-48.6582,49.39307"/>
  <path class="cls-2" d="M160.60116,76.64224c0,27.30615-21.7583,49.39307-48.6582,49.39307"/>
  <path class="cls-3" d="M160.60116,76.64224c0,27.30615-21.7583,49.39307-48.6582,49.39307"/>
  <path class="cls-2" d="M111.94345,126.03555c0-27.30078,21.75781-49.39282,48.65771-49.39282"/>
  <path class="cls-3" d="M111.94345,126.03555c0-27.30078,21.75781-49.39282,48.65771-49.39282"/>
  <path class="cls-2" d="M61.85409,76.64224c0,27.30615,21.75781,49.39307,48.65771,49.39307"/>
  <path class="cls-3" d="M61.85409,76.64224c0,27.30615,21.75781,49.39307,48.65771,49.39307"/>
  <path class="cls-2" d="M110.51181,126.03555c0-27.30078-21.7583-49.39282-48.6582-49.39282"/>
  <path class="cls-3" d="M110.51181,126.03555c0-27.30078-21.7583-49.39282-48.6582-49.39282"/>
  <path class="cls-2" d="M113.77011,25.67251c15.92578,17.1521,14.96191,41.23804-2.13916,53.85522"/>
  <path class="cls-3" d="M113.77011,25.67251c15.92578,17.1521,14.96191,41.23804-2.13916,53.85522"/>
  <path class="cls-2" d="M111.62606,79.52774c-15.92627-17.15088-14.96338-41.23779,2.13867-53.84985"/>
  <path class="cls-3" d="M111.62606,79.52774c-15.92627-17.15088-14.96338-41.23779,2.13867-53.84985"/>
  <line class="cls-3" x1="111.62606" y1="79.52774" x2="111.62606" y2="203.09182"/>
</svg>